<?xml version="1.0" encoding="utf-8"?>
<!-- Generator: Adobe Illustrator 22.0.0, SVG Export Plug-In . SVG Version: 6.00 Build 0)  -->
<svg version="1.1" id="Layer_1" xmlns="http://www.w3.org/2000/svg" xmlns:xlink="http://www.w3.org/1999/xlink" x="0px" y="0px"
	 viewBox="0 0 100 82" enable-background="new 0 0 100 82" xml:space="preserve">
<g id="Background">
	<rect x="1.37" y="1.71" opacity="0.1" fill="#1D2132" enable-background="new    " width="97" height="75.63"/>
</g>
<g id="Plumbing">
	<g>
		<polyline fill="#FFFFFF" points="94.5,21.69 97.69,21.69 97.69,14.53 94.5,14.53 94.27,14.53 94.04,14.57 93.83,14.62 
			93.62,14.69 93.41,14.8 93.24,14.91 93.07,15.06 92.92,15.21 92.74,15.44 92.59,15.69 92.46,15.95 92.35,16.21 92.26,16.47 
			92.16,16.76 92.1,17.03 92.04,17.3 92,17.59 91.98,17.87 91.96,18.12 91.98,18.36 91.99,18.65 92.04,18.93 92.1,19.21 
			92.16,19.48 92.25,19.73 92.35,20.02 92.46,20.28 92.59,20.54 92.74,20.79 92.92,21.02 93.07,21.17 93.24,21.32 93.41,21.43 
			93.62,21.53 93.83,21.62 94.04,21.67 94.27,21.69 94.38,21.69 94.5,21.69 		"/>
		
			<line fill="none" stroke="#1D2132" stroke-width="0.1" stroke-linecap="square" stroke-miterlimit="10" x1="97.69" y1="21.69" x2="97.69" y2="14.53"/>
		
			<line fill="none" stroke="#1D2132" stroke-width="0.1" stroke-linecap="square" stroke-miterlimit="10" x1="97.69" y1="14.53" x2="94.5" y2="14.53"/>
		
			<line fill="none" stroke="#1D2132" stroke-width="0.1" stroke-linecap="square" stroke-miterlimit="10" x1="97.69" y1="21.69" x2="94.5" y2="21.69"/>
		
			<line fill="none" stroke="#1D2132" stroke-width="0.1" stroke-linecap="square" stroke-miterlimit="10" x1="97.69" y1="16.99" x2="97.69" y2="19.24"/>
		
			<line fill="none" stroke="#1D2132" stroke-width="0.1" stroke-linecap="square" stroke-miterlimit="10" x1="95.13" y1="17.52" x2="95.13" y2="17.89"/>
		
			<line fill="none" stroke="#1D2132" stroke-width="0.1" stroke-linecap="square" stroke-miterlimit="10" x1="95.76" y1="18.12" x2="95.35" y2="18.12"/>
		
			<line fill="none" stroke="#1D2132" stroke-width="0.1" stroke-linecap="square" stroke-miterlimit="10" x1="95.13" y1="18.34" x2="95.13" y2="18.72"/>
		
			<line fill="none" stroke="#1D2132" stroke-width="0.1" stroke-linecap="square" stroke-miterlimit="10" x1="94.88" y1="18.12" x2="94.49" y2="18.12"/>
		<path fill="none" stroke="#1D2132" stroke-width="0.1" stroke-linecap="square" stroke-miterlimit="10" d="M95.89,20.02
			c-0.39,0.56-0.94,0.99-1.6,1.24"/>
		<path fill="none" stroke="#1D2132" stroke-width="0.1" stroke-linecap="square" stroke-miterlimit="10" d="M96.36,18.11
			c0.01,0.08,0.01,0.18,0.01,0.25c0,0.59-0.16,1.16-0.48,1.65"/>
		<path fill="none" stroke="#1D2132" stroke-width="0.1" stroke-linecap="square" stroke-miterlimit="10" d="M94.3,14.97
			c0.66,0.24,1.2,0.68,1.6,1.24"/>
		<path fill="none" stroke="#1D2132" stroke-width="0.1" stroke-linecap="square" stroke-miterlimit="10" d="M95.89,16.2
			c0.31,0.5,0.48,1.07,0.48,1.65c0,0.08,0,0.18-0.01,0.25"/>
		<path fill="none" stroke="#1D2132" stroke-width="0.1" stroke-linecap="square" stroke-miterlimit="10" d="M92.6,20.55
			c-0.36-0.69-0.56-1.43-0.62-2.17"/>
		<path fill="none" stroke="#1D2132" stroke-width="0.1" stroke-linecap="square" stroke-miterlimit="10" d="M92.92,15.21
			c0.37-0.43,0.92-0.68,1.5-0.68c0.02,0,0.06,0,0.07,0"/>
		<path fill="none" stroke="#1D2132" stroke-width="0.1" stroke-linecap="square" stroke-miterlimit="10" d="M91.98,18.37
			c-0.01-0.08-0.01-0.17-0.01-0.25s0-0.18,0.01-0.25"/>
		<path fill="none" stroke="#1D2132" stroke-width="0.1" stroke-linecap="square" stroke-miterlimit="10" d="M95.77,16.13
			c0.1,0.67,0.16,1.33,0.16,1.99s-0.06,1.34-0.16,2"/>
		<path fill="none" stroke="#1D2132" stroke-width="0.1" stroke-linecap="square" stroke-miterlimit="10" d="M97.07,16.11
			c0.1,0.67,0.15,1.35,0.15,2.02"/>
		<path fill="none" stroke="#1D2132" stroke-width="0.1" stroke-linecap="square" stroke-miterlimit="10" d="M94.01,14.71
			c0.02,0,0.04,0,0.06,0c1.04,0,2.04,0.36,2.82,1.02"/>
		<path fill="none" stroke="#1D2132" stroke-width="0.1" stroke-linecap="square" stroke-miterlimit="10" d="M96.88,15.73
			c0.11,0.09,0.19,0.23,0.21,0.37"/>
		<path fill="none" stroke="#1D2132" stroke-width="0.1" stroke-linecap="square" stroke-miterlimit="10" d="M96.89,20.51
			c-0.78,0.65-1.78,1.01-2.82,1.01c-0.01,0-0.04,0-0.05,0"/>
		<path fill="none" stroke="#1D2132" stroke-width="0.1" stroke-linecap="square" stroke-miterlimit="10" d="M97.24,18.11
			c0,0.68-0.06,1.35-0.15,2.02"/>
		<path fill="none" stroke="#1D2132" stroke-width="0.1" stroke-linecap="square" stroke-miterlimit="10" d="M97.07,20.14
			c-0.02,0.13-0.09,0.27-0.21,0.37"/>
		<path fill="none" stroke="#1D2132" stroke-width="0.1" stroke-linecap="square" stroke-miterlimit="10" d="M94.5,21.69
			c-0.02,0-0.06,0-0.07,0c-0.58,0-1.14-0.25-1.5-0.68"/>
		<path fill="none" stroke="#1D2132" stroke-width="0.1" stroke-linecap="square" stroke-miterlimit="10" d="M92.91,21.02
			c-0.12-0.15-0.23-0.31-0.32-0.47"/>
		<path fill="none" stroke="#1D2132" stroke-width="0.1" stroke-linecap="square" stroke-miterlimit="10" d="M92.6,15.69
			c0.08-0.17,0.2-0.33,0.32-0.47"/>
		<path fill="none" stroke="#1D2132" stroke-width="0.1" stroke-linecap="square" stroke-miterlimit="10" d="M91.97,17.87
			c0.06-0.76,0.27-1.5,0.62-2.17"/>
		<path fill="none" stroke="#1D2132" stroke-width="0.1" stroke-linecap="square" stroke-miterlimit="10" d="M92.5,19.11
			c-0.07-0.32-0.12-0.66-0.12-0.99s0.05-0.67,0.12-0.99"/>
		<path fill="none" stroke="#1D2132" stroke-width="0.1" stroke-linecap="square" stroke-miterlimit="10" d="M94.3,21.27
			c-0.02,0-0.05,0-0.07,0c-0.34,0-0.65-0.13-0.87-0.37"/>
		<path fill="none" stroke="#1D2132" stroke-width="0.1" stroke-linecap="square" stroke-miterlimit="10" d="M93.37,20.89
			c-0.44-0.52-0.73-1.12-0.87-1.78"/>
		<path fill="none" stroke="#1D2132" stroke-width="0.1" stroke-linecap="square" stroke-miterlimit="10" d="M93.36,15.34
			c0.23-0.23,0.54-0.37,0.87-0.37c0.02,0,0.05,0,0.07,0"/>
		<path fill="none" stroke="#1D2132" stroke-width="0.1" stroke-linecap="square" stroke-miterlimit="10" d="M92.49,17.12
			c0.13-0.65,0.41-1.27,0.87-1.79"/>
		<path fill="none" stroke="#1D2132" stroke-width="0.1" stroke-linecap="square" stroke-miterlimit="10" d="M95.61,18.12
			c0-0.25-0.22-0.46-0.49-0.46s-0.49,0.21-0.49,0.46s0.22,0.46,0.49,0.46C95.39,18.59,95.61,18.37,95.61,18.12"/>
		<path fill="none" stroke="#1D2132" stroke-width="0.1" stroke-linecap="square" stroke-miterlimit="10" d="M95.39,18.12
			c0-0.14-0.11-0.25-0.26-0.25s-0.26,0.11-0.26,0.25s0.11,0.25,0.26,0.25C95.27,18.37,95.39,18.26,95.39,18.12"/>
	</g>
	<g>
		<polygon fill="#FFFFFF" points="83.74,2.2 86.32,2.2 86.32,4 86.32,4.02 86.3,4.05 86.3,4.07 86.29,4.09 86.29,4.12 86.28,4.14 
			86.27,4.16 86.26,4.18 86.24,4.19 86.23,4.22 86.21,4.23 86.18,4.24 86.18,4.25 86.16,4.27 86.13,4.28 86.11,4.29 86.11,9.06 
			86.1,9.19 86.1,9.3 86.08,9.42 86.06,9.53 86.02,9.64 86.01,9.75 85.95,9.86 85.91,9.97 85.85,10.07 85.8,10.16 85.74,10.26 
			85.67,10.35 85.6,10.44 85.52,10.52 85.44,10.6 85.35,10.68 85.27,10.76 85.18,10.82 85.11,10.88 85,10.93 84.9,10.99 84.8,11.04 
			84.7,11.09 84.61,11.13 84.5,11.16 84.4,11.19 84.29,11.22 84.18,11.25 84.07,11.26 83.96,11.27 83.85,11.27 83.74,11.27 
			83.63,11.27 83.52,11.27 83.41,11.26 83.3,11.25 83.19,11.22 83.09,11.19 82.98,11.16 82.87,11.13 82.78,11.09 82.67,11.04 
			82.57,10.99 82.48,10.93 82.39,10.88 82.3,10.82 82.2,10.76 82.12,10.68 82.04,10.6 81.96,10.52 81.88,10.44 81.8,10.35 
			81.74,10.26 81.68,10.16 81.63,10.07 81.57,9.97 81.53,9.86 81.48,9.75 81.46,9.64 81.42,9.53 81.4,9.42 81.37,9.3 81.37,9.19 
			81.37,9.06 81.37,4.29 81.35,4.28 81.32,4.27 81.3,4.25 81.29,4.24 81.27,4.23 81.25,4.22 81.24,4.19 81.21,4.18 81.2,4.16 
			81.2,4.14 81.2,4.12 81.2,4.09 81.18,4.07 81.18,4.05 81.16,4.02 81.16,4 81.16,2.2 		"/>
		
			<line fill="none" stroke="#1D2132" stroke-width="0.1" stroke-linecap="square" stroke-miterlimit="10" x1="86.11" y1="4.29" x2="86.11" y2="9.06"/>
		
			<line fill="none" stroke="#1D2132" stroke-width="0.1" stroke-linecap="square" stroke-miterlimit="10" x1="86.32" y1="2.2" x2="81.16" y2="2.2"/>
		
			<line fill="none" stroke="#1D2132" stroke-width="0.1" stroke-linecap="square" stroke-miterlimit="10" x1="86.32" y1="2.2" x2="86.32" y2="4"/>
		
			<line fill="none" stroke="#1D2132" stroke-width="0.1" stroke-linecap="square" stroke-miterlimit="10" x1="83.74" y1="5.13" x2="81.82" y2="5.13"/>
		
			<line fill="none" stroke="#1D2132" stroke-width="0.1" stroke-linecap="square" stroke-miterlimit="10" x1="86.11" y1="9.06" x2="85.65" y2="5.13"/>
		
			<line fill="none" stroke="#1D2132" stroke-width="0.1" stroke-linecap="square" stroke-miterlimit="10" x1="83.74" y1="5.13" x2="85.65" y2="5.13"/>
		
			<line fill="none" stroke="#1D2132" stroke-width="0.1" stroke-linecap="square" stroke-miterlimit="10" x1="81.37" y1="9.06" x2="81.82" y2="5.13"/>
		
			<line fill="none" stroke="#1D2132" stroke-width="0.1" stroke-linecap="square" stroke-miterlimit="10" x1="81.37" y1="4.29" x2="81.37" y2="9.06"/>
		
			<line fill="none" stroke="#1D2132" stroke-width="0.1" stroke-linecap="square" stroke-miterlimit="10" x1="81.16" y1="2.2" x2="81.16" y2="4"/>
		<path fill="none" stroke="#1D2132" stroke-width="0.1" stroke-linecap="square" stroke-miterlimit="10" d="M81.43,4.3
			c0.77,0.08,1.54,0.12,2.31,0.12s1.54-0.04,2.31-0.13"/>
		<path fill="none" stroke="#1D2132" stroke-width="0.1" stroke-linecap="square" stroke-miterlimit="10" d="M86.05,4.31
			C86.2,4.28,86.32,4.15,86.32,4"/>
		<path fill="none" stroke="#1D2132" stroke-width="0.1" stroke-linecap="square" stroke-miterlimit="10" d="M81.37,9.06
			c0,1.22,1.06,2.21,2.37,2.21c1.31,0,2.37-0.99,2.37-2.21"/>
		<path fill="none" stroke="#1D2132" stroke-width="0.1" stroke-linecap="square" stroke-miterlimit="10" d="M81.16,3.99
			c0,0.15,0.12,0.3,0.27,0.31"/>
		<path fill="none" stroke="#1D2132" stroke-width="0.1" stroke-linecap="square" stroke-miterlimit="10" d="M83.74,3.09
			c0.13,0,0.24,0.12,0.24,0.26s-0.11,0.26-0.24,0.26S83.5,3.48,83.5,3.35C83.51,3.2,83.61,3.09,83.74,3.09"/>
	</g>
	<g>
		<path fill="#FFFFFF" d="M85.6,22.68h12.06c0.08,0,0.12,0.05,0.12,0.12v12.04c0,0.08-0.05,0.12-0.12,0.12H85.61
			c-0.08,0-0.12-0.05-0.12-0.12V22.79C85.49,22.74,85.55,22.68,85.6,22.68z"/>
		
			<line fill="none" stroke="#1D2132" stroke-width="0.1" stroke-linecap="square" stroke-miterlimit="10" x1="95.84" y1="31.85" x2="95.05" y2="31.85"/>
		
			<line fill="none" stroke="#1D2132" stroke-width="0.1" stroke-linecap="square" stroke-miterlimit="10" x1="94.72" y1="32.19" x2="94.72" y2="32.98"/>
		
			<line fill="none" stroke="#1D2132" stroke-width="0.1" stroke-linecap="square" stroke-miterlimit="10" x1="94.37" y1="31.85" x2="93.6" y2="31.85"/>
		
			<line fill="none" stroke="#1D2132" stroke-width="0.1" stroke-linecap="square" stroke-miterlimit="10" x1="94.72" y1="30.73" x2="94.72" y2="31.52"/>
		
			<line fill="none" stroke="#1D2132" stroke-width="0.1" stroke-linecap="square" stroke-miterlimit="10" x1="97.05" y1="23.37" x2="93.76" y2="23.37"/>
		
			<line fill="none" stroke="#1D2132" stroke-width="0.1" stroke-linecap="square" stroke-miterlimit="10" x1="93.89" y1="34.31" x2="86.37" y2="34.31"/>
		<path fill="none" stroke="#1D2132" stroke-width="0.1" stroke-linecap="square" stroke-miterlimit="10" d="M97.05,23.37H86.43
			c-0.1,0-0.19,0.09-0.19,0.19v10.62"/>
		
			<line fill="none" stroke="#1D2132" stroke-width="0.1" stroke-linecap="square" stroke-miterlimit="10" x1="97.18" y1="23.5" x2="97.18" y2="31.03"/>
		<g>
			<path fill="none" stroke="#1D2132" stroke-width="0.1" stroke-linecap="square" stroke-miterlimit="10" d="M97.16,31.24
				c0.03-0.06,0.04-0.15,0.04-0.21"/>
		</g>
		<g>
			<path fill="none" stroke="#1D2132" stroke-width="0.1" stroke-linecap="square" stroke-miterlimit="10" d="M97.18,23.5
				c0-0.07-0.06-0.13-0.13-0.13"/>
		</g>
		<g>
			<path fill="none" stroke="#1D2132" stroke-width="0.1" stroke-linecap="square" stroke-miterlimit="10" d="M97.16,31.24
				c0.03-0.06,0.04-0.15,0.04-0.21"/>
		</g>
		<g>
			<path fill="none" stroke="#1D2132" stroke-width="0.1" stroke-linecap="square" stroke-miterlimit="10" d="M86.24,34.18
				c0,0.07,0.06,0.13,0.13,0.13"/>
		</g>
		<g>
			<path fill="none" stroke="#1D2132" stroke-width="0.1" stroke-linecap="square" stroke-miterlimit="10" d="M94.03,34.29
				c1.34-0.68,2.43-1.79,3.15-3.15"/>
		</g>
		<g>
			<path fill="none" stroke="#1D2132" stroke-width="0.1" stroke-linecap="square" stroke-miterlimit="10" d="M93.9,34.31
				c0.07,0,0.15-0.02,0.22-0.03"/>
		</g>
		<g>
			<path fill="none" stroke="#1D2132" stroke-width="0.1" stroke-linecap="square" stroke-miterlimit="10" d="M94.1,34.29
				c1.44-0.48,2.56-1.62,3.04-3.04"/>
		</g>
		<g>
			<path fill="none" stroke="#1D2132" stroke-width="0.1" stroke-linecap="square" stroke-miterlimit="10" d="M93.9,34.31
				c0.07,0,0.15-0.02,0.22-0.03"/>
		</g>
		<g>
			<path fill="none" stroke="#1D2132" stroke-width="0.1" stroke-linecap="square" stroke-miterlimit="10" d="M95.35,31.85
				c0,0.33-0.29,0.61-0.61,0.61c-0.34,0.02-0.61-0.27-0.61-0.61c0-0.33,0.28-0.61,0.61-0.61C95.05,31.24,95.35,31.52,95.35,31.85"/>
		</g>
		<g>
			<path fill="none" stroke="#1D2132" stroke-width="0.1" stroke-linecap="square" stroke-miterlimit="10" d="M95.58,31.85
				c0,0.48-0.38,0.86-0.86,0.86c-0.48,0-0.88-0.38-0.88-0.86c0-0.48,0.39-0.87,0.87-0.87C95.19,31,95.58,31.37,95.58,31.85"/>
		</g>
		<path fill="none" stroke="#1D2132" stroke-width="0.1" stroke-linecap="square" stroke-miterlimit="10" d="M85.87,22.68H97.5
			c0.18,0,0.33,0.15,0.33,0.33v11.62c0,0.18-0.15,0.33-0.33,0.33H85.9c-0.18,0-0.33-0.15-0.33-0.33V23.01
			C85.55,22.83,85.7,22.68,85.87,22.68z"/>
	</g>
	<g>
		<g>
			<path fill="#FFFFFF" stroke="#1D2132" stroke-width="0.1" stroke-linecap="square" stroke-miterlimit="10" d="M78.88,29.73
				c0.11,0,0.2-0.07,0.2-0.16s-0.09-0.16-0.2-0.16s-0.2,0.07-0.2,0.16C78.68,29.65,78.77,29.73,78.88,29.73z"/>
			
				<ellipse fill="#FFFFFF" stroke="#1D2132" stroke-width="0.1" stroke-linecap="square" stroke-miterlimit="10" cx="78.04" cy="29.57" rx="0.2" ry="0.16"/>
			<path fill="#FFFFFF" stroke="#1D2132" stroke-width="0.1" stroke-linecap="square" stroke-miterlimit="10" d="M74.58,29.73
				c0.11,0,0.2-0.07,0.2-0.16s-0.09-0.16-0.2-0.16s-0.2,0.07-0.2,0.16C74.38,29.65,74.46,29.72,74.58,29.73z"/>
			<path fill="#FFFFFF" stroke="#1D2132" stroke-width="0.1" stroke-linecap="square" stroke-miterlimit="10" d="M79.08,29.56
				c0.44,0,0.8,0.09,0.8,0.21v0.54c0,0.12-0.36,0.21-0.8,0.21h-4.7c-0.44,0-0.8-0.09-0.8-0.21v-0.53c0-0.12,0.36-0.21,0.8-0.21
				L79.08,29.56z"/>
			
				<rect x="73.2" y="29.85" fill="#FFFFFF" stroke="#1D2132" stroke-width="0.1" stroke-linecap="square" stroke-miterlimit="10" width="7" height="4.71"/>
			<path fill="#FFFFFF" stroke="#1D2132" stroke-width="0.1" stroke-linecap="square" stroke-miterlimit="10" d="M79.08,30.1
				c0.44,0,0.8,0.77,0.8,1.72v0.77c0,0.95-0.36,1.72-0.8,1.72h-4.7c-0.44,0-0.8-0.77-0.8-1.72v-0.77c0-0.95,0.36-1.72,0.8-1.72
				H79.08z"/>
		</g>
		<g>
			<path fill="#FFFFFF" stroke="#1D2132" stroke-width="0.1" stroke-linecap="square" stroke-miterlimit="10" d="M74.36,33.89v0.02
				c0,0.09,0.07,0.16,0.16,0.16h4.43c0.09,0,0.16-0.07,0.16-0.16v-0.02c0-0.09-0.07-0.16-0.16-0.16h-4.43
				C74.43,33.73,74.36,33.8,74.36,33.89z"/>
			<g>
				
					<rect x="78.64" y="34.06" fill="#FFFFFF" stroke="#1D2132" stroke-width="0.1" stroke-linecap="square" stroke-miterlimit="10" width="0.28" height="0.75"/>
				
					<rect x="74.53" y="34.06" fill="#FFFFFF" stroke="#1D2132" stroke-width="0.1" stroke-linecap="square" stroke-miterlimit="10" width="0.28" height="0.75"/>
			</g>
			<g>
				
					<rect x="78.48" y="34.81" fill="#FFFFFF" stroke="#1D2132" stroke-width="0.1" stroke-linecap="square" stroke-miterlimit="10" width="0.59" height="0.14"/>
				
					<rect x="74.38" y="34.81" fill="#FFFFFF" stroke="#1D2132" stroke-width="0.1" stroke-linecap="square" stroke-miterlimit="10" width="0.59" height="0.14"/>
			</g>
		</g>
	</g>
</g>
<g id="Furniture">
	<g>
		
			<rect x="88.69" y="36.56" fill="#FFFFFF" stroke="#1D2132" stroke-width="0.0939" stroke-linecap="square" stroke-miterlimit="22.9256" width="9.03" height="38.25"/>
		
			<rect x="88.68" y="51.68" fill="#FFFFFF" stroke="#1D2132" stroke-width="0.0939" stroke-linecap="square" stroke-miterlimit="22.9256" width="9.03" height="7.03"/>
		
			<rect x="88.69" y="36.16" fill="#FFFFFF" stroke="#1D2132" stroke-width="0.0939" stroke-linecap="square" stroke-miterlimit="22.9256" width="9.03" height="7.98"/>
		
			<rect x="88.69" y="67.05" fill="#FFFFFF" stroke="#1D2132" stroke-width="0.0939" stroke-linecap="square" stroke-miterlimit="22.9256" width="9.03" height="7.76"/>
		<g>
			
				<line fill="none" stroke="#1D2132" stroke-width="0.0939" stroke-linecap="square" stroke-miterlimit="22.9256" x1="92.08" y1="70.84" x2="94.32" y2="70.84"/>
			
				<line fill="none" stroke="#1D2132" stroke-width="0.0939" stroke-linecap="square" stroke-miterlimit="22.9256" x1="92.4" y1="70.03" x2="93.99" y2="71.63"/>
			
				<line fill="none" stroke="#1D2132" stroke-width="0.0939" stroke-linecap="square" stroke-miterlimit="22.9256" x1="93.2" y1="69.69" x2="93.2" y2="71.96"/>
			
				<line fill="none" stroke="#1D2132" stroke-width="0.0939" stroke-linecap="square" stroke-miterlimit="22.9256" x1="93.99" y1="70.03" x2="92.4" y2="71.63"/>
		</g>
		<g>
			
				<rect x="89.05" y="52.61" fill="#FFFFFF" stroke="#1D2132" stroke-width="0.0939" stroke-linecap="square" stroke-miterlimit="22.9256" width="8.29" height="5.27"/>
			<g>
				<path fill="#FFFFFF" stroke="#1D2132" stroke-width="0.0939" stroke-linecap="square" stroke-miterlimit="22.9256" d="
					M91.31,53.8c-0.8,0-1.45,0.65-1.44,1.44c0,0.8,0.64,1.44,1.44,1.44s1.44-0.63,1.44-1.44C92.74,54.45,92.12,53.8,91.31,53.8"/>
				<path fill="#FFFFFF" stroke="#1D2132" stroke-width="0.0939" stroke-linecap="square" stroke-miterlimit="22.9256" d="
					M95.38,53.8c-0.79,0-1.44,0.65-1.44,1.44c0,0.8,0.63,1.44,1.44,1.44c0.8,0,1.44-0.63,1.44-1.44
					C96.82,54.45,96.17,53.8,95.38,53.8"/>
				<path fill="#FFFFFF" stroke="#1D2132" stroke-width="0.0939" stroke-linecap="square" stroke-miterlimit="22.9256" d="
					M91.31,54.08c-0.64,0-1.16,0.52-1.15,1.15c0,0.62,0.51,1.15,1.15,1.15c0.62,0,1.15-0.51,1.15-1.15
					C92.45,54.61,91.95,54.08,91.31,54.08"/>
				<path fill="#FFFFFF" stroke="#1D2132" stroke-width="0.0939" stroke-linecap="square" stroke-miterlimit="22.9256" d="
					M95.38,54.08c-0.64,0-1.15,0.52-1.15,1.15c0,0.62,0.51,1.15,1.15,1.15c0.62,0,1.15-0.51,1.15-1.15
					C96.53,54.61,96.02,54.08,95.38,54.08"/>
			</g>
		</g>
		<g>
			<path fill="#FFFFFF" stroke="#1D2132" stroke-width="0.0939" stroke-linecap="square" stroke-miterlimit="22.9256" d="
				M95.5,42.42h-5.75c-0.3,0-0.53-0.23-0.53-0.53v-3.48c0-0.3,0.23-0.53,0.53-0.53h5.75c0.3,0,0.53,0.23,0.53,0.53v3.48
				C96.03,42.19,95.8,42.41,95.5,42.42z"/>
			<g>
				<path fill="#FFFFFF" stroke="#1D2132" stroke-width="0.0939" stroke-linecap="square" stroke-miterlimit="22.9256" d="
					M95.16,40.16c0,0.2-0.19,0.37-0.41,0.37c-0.23,0-0.41-0.17-0.41-0.37s0.19-0.37,0.41-0.37C94.98,39.77,95.16,39.96,95.16,40.16z
					"/>
				<g>
					<path fill="#FFFFFF" stroke="#1D2132" stroke-width="0.0939" stroke-linecap="square" stroke-miterlimit="22.9256" d="
						M97.16,40.15c0,0.35-0.25,0.62-0.56,0.62c-0.31,0-0.56-0.26-0.56-0.62c0-0.34,0.25-0.6,0.56-0.62
						C96.91,39.53,97.17,39.8,97.16,40.15z"/>
					<path fill="#FFFFFF" stroke="#1D2132" stroke-width="0.0939" stroke-linecap="square" stroke-miterlimit="22.9256" d="
						M93.41,40.17c0-0.11,0.12-0.18,0.3-0.19l2.94-0.02c0.17,0,0.3,0.08,0.3,0.19l0,0c0,0.1-0.13,0.19-0.3,0.19l-2.94,0.02
						C93.52,40.36,93.41,40.28,93.41,40.17L93.41,40.17z"/>
					<path fill="#FFFFFF" stroke="#1D2132" stroke-width="0.0939" stroke-linecap="square" stroke-miterlimit="22.9256" d="
						M96.73,40.16c0,0.48-0.06,0.86-0.17,0.86c-0.08,0-0.17-0.39-0.17-0.86c0-0.48,0.07-0.86,0.17-0.86
						C96.69,39.28,96.75,39.67,96.73,40.16z"/>
				</g>
			</g>
		</g>
	</g>
	<g>
		<path fill="#FFFFFF" stroke="#1D2132" stroke-width="0.1" stroke-linecap="square" stroke-miterlimit="10" d="M6.11,15.65
			c-0.78,0.51-1.86,2.26-1.05,3.44c0.4,0.58,0.25,1.08,1.06,2.81c0.35,0.75,0.84,2.11,2.41,2.79s3.73,0.39,5.8-2.76
			s0.71-6.21-1.29-6.82S10,15.17,9,15.17S7.53,14.71,6.11,15.65z"/>
		<path fill="none" stroke="#1D2132" stroke-width="0.1" stroke-linecap="square" stroke-miterlimit="10" d="M8.54,24.68
			c0,0-1.17-0.84-1.45-1.56c-0.56-1.45-0.72-1.09-1.25-2.96c-0.16-0.56,0.21-0.77,0.14-0.86c-0.07-0.1-0.42-0.81,0-1.59
			c0.42-0.78,0.75-1.36,1.59-1.79c0.52-0.26,1.04-0.23,1.19-0.11c0.26,0.2,0.26-0.12,1.23-0.4c1.38-0.4,1.78-0.27,2.63-0.06
			c0.85,0.21,1.09,0.15,1.63,0.66c0.54,0.51,0.81,1.1,0.81,1.1"/>
		<path fill="none" stroke="#1D2132" stroke-width="0.1" stroke-linecap="square" stroke-miterlimit="10" d="M8.4,22.37
			c0,0,0.65-0.5,0.52-0.94c-0.14-0.44-0.16-0.75-0.18-0.9C8.7,20.38,8.7,20.38,8.7,20.38s-0.66-0.46-1.16-0.66
			c-0.5-0.2-0.64-0.19-0.64-0.19"/>
		<path fill="none" stroke="#1D2132" stroke-width="0.1" stroke-linecap="square" stroke-miterlimit="10" d="M8.7,20.38
			c0,0,0.37-0.43,0.87-1.06c0.5-0.63,0.85-1.51,0.85-1.51s-0.43-0.43-0.8-0.85c-0.38-0.41-0.49-0.7-0.49-0.7"/>
		<path fill="none" stroke="#1D2132" stroke-width="0.1" stroke-linecap="square" stroke-miterlimit="10" d="M12.46,16.43
			c0,0,0.1,0.68-0.06,1.07c-0.15,0.39-0.36,0.45-0.96,0.45s-1.02-0.13-1.02-0.13"/>
		<path fill="none" stroke="#1D2132" stroke-width="0.1" stroke-linecap="square" stroke-miterlimit="10" d="M10.34,22.44
			c0,0,1.02-0.45,1.39-0.9c0.37-0.45,0.37-0.45,0.37-0.45s0.12,0,0.36,0.15c0.24,0.15,0.35,0.31,0.35,0.31"/>
		<path fill="none" stroke="#1D2132" stroke-width="0.1" stroke-linecap="square" stroke-miterlimit="10" d="M12.11,21.09
			c0,0,0.18-0.57,0.46-0.95c0.29-0.38,0.45-0.9,0.42-1.12c-0.03-0.22-0.03-0.22-0.03-0.22s0.2-0.19,0.45-0.17"/>
		<path fill="none" stroke="#1D2132" stroke-width="0.1" stroke-linecap="square" stroke-miterlimit="10" d="M10.34,22.44
			c0,0,0.01,0.38,0.15,0.53c0.14,0.15,0.3,0.25,0.3,0.25"/>
		<path fill="#FFFFFF" stroke="#1D2132" stroke-width="0.1" stroke-linecap="square" stroke-miterlimit="10" d="M6.05,18.12
			c0,0,0.06-0.11-0.01-0.12c-0.12-0.02-0.31-0.18-0.28-0.29c0.05-0.2,0.26-0.35,0.41-0.63c0.15-0.29,0.13-0.59,0.35-0.66
			c0.13-0.04,0.31,0.25,0.37,0.26C6.94,16.67,7,16.55,7,16.55l-0.43-0.31c0,0-0.31-0.06-0.49,0.24c-0.18,0.29-0.32,0.46-0.46,0.74
			c-0.15,0.29-0.29,0.48-0.07,0.7C5.78,18.13,6.05,18.12,6.05,18.12z"/>
	</g>
	<g>
		<path fill="#FFFFFF" stroke="#1D2132" stroke-width="0.1" stroke-linecap="square" stroke-miterlimit="10" d="M4.1,35.34
			c0.31,0.88,1.75,2.35,3.09,1.84c0.66-0.25,1.11,0.01,2.98-0.36c0.81-0.16,2.25-0.32,3.29-1.68s1.27-3.53-1.29-6.29
			s-5.86-2.18-6.93-0.38c-1.07,1.79-0.66,2.97-0.9,3.94C4.1,33.4,3.53,33.74,4.1,35.34z"/>
		<path fill="none" stroke="#1D2132" stroke-width="0.1" stroke-linecap="square" stroke-miterlimit="10" d="M13.46,35.15
			c0,0-1.1,0.94-1.87,1.04c-1.55,0.2-1.23,0.44-3.17,0.51c-0.59,0.02-0.69-0.38-0.81-0.34c-0.11,0.04-0.89,0.22-1.55-0.38
			S4.92,34.92,4.71,34c-0.13-0.56,0.02-1.07,0.17-1.19c0.26-0.2-0.05-0.28-0.09-1.29c-0.06-1.43,0.16-1.79,0.57-2.57
			c0.4-0.78,0.4-1.02,1.03-1.43S7.66,27,7.66,27"/>
		<path fill="none" stroke="#1D2132" stroke-width="0.1" stroke-linecap="square" stroke-miterlimit="10" d="M11.17,34.73
			c0,0-0.33-0.75-0.79-0.73s-0.77-0.03-0.92-0.04s-0.15-0.01-0.15-0.01s-0.61,0.53-0.92,0.97s-0.34,0.57-0.34,0.57"/>
		<path fill="none" stroke="#1D2132" stroke-width="0.1" stroke-linecap="square" stroke-miterlimit="10" d="M9.32,33.95
			c0,0-0.33-0.46-0.82-1.1c-0.49-0.63-1.26-1.19-1.26-1.19s-0.52,0.31-1.02,0.58c-0.49,0.27-0.79,0.31-0.79,0.31"/>
		<path fill="none" stroke="#1D2132" stroke-width="0.1" stroke-linecap="square" stroke-miterlimit="10" d="M6.38,29.36
			c0,0,0.68,0.07,1.03,0.31s0.35,0.46,0.21,1.04c-0.15,0.59-0.37,0.96-0.37,0.96"/>
		<path fill="none" stroke="#1D2132" stroke-width="0.1" stroke-linecap="square" stroke-miterlimit="10" d="M11.71,32.85
			c0,0-0.2-1.1-0.54-1.57c-0.35-0.47-0.35-0.47-0.35-0.47s0.02-0.12,0.23-0.32c0.21-0.2,0.38-0.26,0.38-0.26"/>
		<path fill="none" stroke="#1D2132" stroke-width="0.1" stroke-linecap="square" stroke-miterlimit="10" d="M10.82,30.82
			c0,0-0.51-0.31-0.82-0.68c-0.3-0.37-0.77-0.65-0.99-0.68c-0.22-0.03-0.22-0.03-0.22-0.03s-0.14-0.24-0.06-0.47"/>
		<path fill="none" stroke="#1D2132" stroke-width="0.1" stroke-linecap="square" stroke-miterlimit="10" d="M11.71,32.85
			c0,0,0.37,0.08,0.55-0.02c0.18-0.1,0.31-0.23,0.31-0.23"/>
		<path fill="#FFFFFF" stroke="#1D2132" stroke-width="0.1" stroke-linecap="square" stroke-miterlimit="10" d="M6.49,35.99
			c0,0-0.09-0.09-0.12-0.02c-0.05,0.11-0.25,0.26-0.35,0.2c-0.18-0.1-0.28-0.33-0.52-0.54c-0.24-0.21-0.54-0.27-0.56-0.5
			c-0.01-0.14,0.31-0.24,0.34-0.3c0.02-0.04-0.09-0.13-0.09-0.13l-0.4,0.34c0,0-0.13,0.29,0.11,0.53c0.24,0.24,0.37,0.42,0.61,0.63
			c0.24,0.21,0.4,0.4,0.66,0.23S6.49,35.99,6.49,35.99z"/>
	</g>
	<g>
		<path fill="#FFFFFF" stroke="#1D2132" stroke-width="0.1" stroke-linecap="square" stroke-miterlimit="10" d="M69.08,33.28
			c-0.75,0.12-1.56,0.11-2.42,0c-0.69,0-1.25-0.56-1.25-1.25c-0.26-1.49-0.41-3.07,0-5.1c0-0.69,0.56-1.25,1.25-1.25
			c0.81-0.19,1.61-0.19,2.42,0c0.69,0,1.25,0.56,1.25,1.25c0.25,1.65,0.19,3.37,0,5.1C70.33,32.72,69.77,33.28,69.08,33.28z"/>
		<g>
			<path fill="#FFFFFF" stroke="#1D2132" stroke-width="0.1" stroke-linecap="square" stroke-miterlimit="10" d="M65.66,26.66
				c0-0.39,0.34-0.7,0.76-0.7"/>
			<path fill="#FFFFFF" stroke="#1D2132" stroke-width="0.1" stroke-linecap="square" stroke-miterlimit="10" d="M66.42,32.98
				c-0.42,0-0.76-0.31-0.76-0.7"/>
			<path fill="#FFFFFF" stroke="#1D2132" stroke-width="0.1" stroke-linecap="square" stroke-miterlimit="10" d="M70.07,32.28
				c0,0.39-0.34,0.7-0.76,0.7"/>
			<path fill="#FFFFFF" stroke="#1D2132" stroke-width="0.1" stroke-linecap="square" stroke-miterlimit="10" d="M69.31,25.96
				c0.42,0,0.76,0.31,0.76,0.7"/>
		</g>
	</g>
	<g>
		
			<rect x="71.26" y="25.43" fill="#FFFFFF" stroke="#1D2132" stroke-width="0.1" stroke-linecap="square" stroke-miterlimit="10" width="0.66" height="7.97"/>
		
			<rect x="71.26" y="25.87" fill="#FFFFFF" stroke="#1D2132" stroke-width="0.1" stroke-linecap="square" stroke-miterlimit="10" width="0.4" height="7.08"/>
	</g>
	<g>
		
			<rect x="71.32" y="4.29" fill="#FFFFFF" stroke="#1D2132" stroke-width="0.1" stroke-linecap="square" stroke-miterlimit="10" width="0.66" height="5.31"/>
		<g>
			
				<rect x="70.31" y="8.93" fill="#FFFFFF" stroke="#1D2132" stroke-width="0.1" stroke-linecap="square" stroke-miterlimit="10" width="1.01" height="0.29"/>
			
				<rect x="71.13" y="8.93" fill="#FFFFFF" stroke="#1D2132" stroke-width="0.1" stroke-linecap="square" stroke-miterlimit="10" width="0.19" height="0.29"/>
		</g>
		<g>
			
				<rect x="70.31" y="7.51" fill="#FFFFFF" stroke="#1D2132" stroke-width="0.1" stroke-linecap="square" stroke-miterlimit="10" width="1.01" height="0.29"/>
			
				<rect x="71.13" y="7.51" fill="#FFFFFF" stroke="#1D2132" stroke-width="0.1" stroke-linecap="square" stroke-miterlimit="10" width="0.19" height="0.29"/>
		</g>
		<g>
			
				<rect x="70.31" y="6.09" fill="#FFFFFF" stroke="#1D2132" stroke-width="0.1" stroke-linecap="square" stroke-miterlimit="10" width="1.01" height="0.29"/>
			
				<rect x="71.13" y="6.09" fill="#FFFFFF" stroke="#1D2132" stroke-width="0.1" stroke-linecap="square" stroke-miterlimit="10" width="0.19" height="0.29"/>
		</g>
		<g>
			
				<rect x="70.31" y="4.67" fill="#FFFFFF" stroke="#1D2132" stroke-width="0.1" stroke-linecap="square" stroke-miterlimit="10" width="1.01" height="0.29"/>
			
				<rect x="71.13" y="4.67" fill="#FFFFFF" stroke="#1D2132" stroke-width="0.1" stroke-linecap="square" stroke-miterlimit="10" width="0.19" height="0.29"/>
		</g>
	</g>
	<g>
		<g>
			<g>
				
					<rect x="3.92" y="38.55" transform="matrix(-1 -4.542956e-11 4.542956e-11 -1 12.8939 82.142)" fill="#FFFFFF" stroke="#1D2132" stroke-width="0.1" stroke-linecap="square" stroke-miterlimit="10" width="5.05" height="5.05"/>
				<polygon fill="#FFFFFF" stroke="#1D2132" stroke-width="0.1" stroke-linecap="square" stroke-miterlimit="10" points="
					8.97,40.08 8.97,39.56 9.48,39.56 9.48,42.58 8.97,42.58 8.97,42.06 9.3,42.06 9.3,40.08 				"/>
			</g>
			<g>
				
					<rect x="3.92" y="69.21" transform="matrix(-1 -4.470836e-11 4.470836e-11 -1 12.8939 143.4662)" fill="#FFFFFF" stroke="#1D2132" stroke-width="0.1" stroke-linecap="square" stroke-miterlimit="10" width="5.05" height="5.05"/>
				<polygon fill="#FFFFFF" stroke="#1D2132" stroke-width="0.1" stroke-linecap="square" stroke-miterlimit="10" points="
					8.97,70.75 8.97,70.22 9.48,70.22 9.48,73.25 8.97,73.25 8.97,72.72 9.3,72.72 9.3,70.75 				"/>
			</g>
		</g>
		<g>
			<g>
				
					<rect x="3.49" y="44.46" fill="#FFFFFF" stroke="#1D2132" stroke-width="0.1" stroke-linecap="square" stroke-miterlimit="22.9256" width="26.55" height="23.9"/>
				<path fill="#FFFFFF" stroke="#1D2132" stroke-width="0.1" stroke-linecap="square" stroke-miterlimit="22.9256" d="M5.33,68.08
					c0,0,0.65,0.05,1.28,0c1.06-0.08,1.72-0.13,2.8-0.13c1.08,0,1.18,0.15,1.35,0.02c0.17-0.13,0.41-0.15,0.68,0
					c0.27,0.15,1.79,0.03,2.84,0.03c1.05,0,2.7,0.12,3.61,0.08c0.91-0.04,0.57-0.17,0.64-0.32c0.07-0.15,0.81,0.12,0.95,0.25
					c0.14,0.13,0.72,0.07,2.71,0.09c1.99,0.02,3.65-0.14,4.71-0.1c0.66,0.03,1.04,0,1.21-0.03c0.4-0.08,0.23,0.01,0.68,0.01
					c0.51-0.01-0.65-0.3-0.01-0.17c0.44,0.09,0.86,0.26,0.76,0.13c-0.1-0.13-0.53-0.36-0.59-0.44c-0.07-0.07-0.41-0.3-0.14-0.23
					c0.27,0.07,0.87,0.87,0.9,0.66c0.04-0.23,0.06-0.98,0.06-2.76c0-1.76,0-13.95-0.17-14.04c-0.17-0.09-0.1-0.09,0-0.2
					c0.1-0.11-0.03-2.26,0.1-2.69c0.14-0.43,0.1-1.08-0.07-1.17c-0.17-0.09-0.2-0.07-0.07-0.17c0.13-0.09,0.17-0.85,0.17-1.24
					c0-0.58,0.22-0.78-0.22-0.52c-0.44,0.26-0.78,0.23-0.51,0.06c0.27-0.17,0.64-0.21,0.7-0.32s0.32-0.09-0.39-0.1
					c-0.71-0.02-4.82-0.12-6.17-0.08c-1.35,0.04-2.4-0.01-2.6,0.03c-0.52,0.12-1.26-0.07-2.43-0.03c-1.46,0.05-3.74,0.04-5.39,0.06
					c-1.66,0.02-2.13,0.02-3.34,0c-1.22-0.02-1.68,0.25-2.06,0.12c-0.76-0.26-1.08-0.03-1.66,0.01c-0.57,0.04-1.43-0.1-1.72-0.07
					c-0.23,0.02,0.65,0.41,0.51,0.57c-0.14,0.16-0.54-0.7-0.63-0.38s0.09,4.4,0,4.71s0,0.23,0,0.23s0,0.94,0,1.63s0,15.35,0,15.72
					c0,0.37,0.08,0.74,0.23,0.37s-0.03,0.38,0.26,0.4S5.04,67.96,5.33,68.08z"/>
				<path fill="#FFFFFF" stroke="#1D2132" stroke-width="0.1" stroke-linecap="square" stroke-miterlimit="22.9256" d="M10.85,68.41
					c0.78,0.11,4.55,0.04,4.55-0.06c0-0.1-1.29,0.25-2.04-0.41c-0.75-0.66-1.29-1.38-1.06-1.19c0.24,0.19,0.27,0.21,0.44,0.43
					c0.17,0.21,0.24,0.43,0.31,0.31c0.07-0.12-0.12-0.83-0.31-1.45c-0.24-0.79,0-2.8,0.06-3.7c0.16-2.28,0.56-15.09,1.58-16.51
					c1.02-1.42,1.19-1.29,1.53-1.37c0.34-0.08,1.39,0.07,0.86-0.06c-0.52-0.13-1.6-0.02-2.64-0.11c-1.05-0.1-1.39-0.21-1.46-0.06
					c-0.07,0.16-1.01,1.9-0.85,1.65c0.04-0.06,0.72-1.55,0.68-1.67c-0.03-0.12-0.36-0.03-0.75,0c-0.51,0.04-0.51,0.04-0.51,0.1
					c0,0.25-0.09,1.03-0.05,1.99c0.03,0.95-0.2,0.12-0.07-0.41c0.14-0.53-0.14-0.06-0.41,0.91c-0.27,0.97,0.3,15.22,0.06,15.92
					c-0.24,0.7-0.54,3.07-0.14,3.95C11.04,67.55,10.27,68.33,10.85,68.41z"/>
				<g>
					<path fill="#FFFFFF" stroke="#1D2132" stroke-width="0.1" stroke-linecap="square" stroke-miterlimit="22.9256" d="M3.64,55.19
						c0,0.37,0.06,0.28,0.17,0.19c0.11-0.09,0.28-0.14,1.04,0c0.76,0.14,1.32,0.18,2.04-0.05c0.72-0.23,0.81-0.1,1-0.01
						c0.19,0.09,0.34,0.05,0.19-0.23c-0.15-0.27,0.07-1.07,0.1-1.73c0.11-2.52,0.01-3.62-0.08-5.38c-0.02-0.38-0.14-0.7-0.1-0.88
						c0.04-0.18-0.04-0.41-0.15-0.27c-0.11,0.14-1.36-0.18-2.26-0.09c-0.91,0.09-1.42,0.04-1.53-0.01c-0.11-0.05-0.45,0.09-0.3,0.27
						c0.15,0.18-0.08,0.92-0.12,1.29c-0.04,0.37-0.15,1.16-0.11,3.12c0.04,1.97,0.02,2.83,0.14,3.15
						C3.75,54.88,3.64,55.1,3.64,55.19z"/>
					<path fill="none" stroke="#1D2132" stroke-width="0.1" stroke-linecap="square" stroke-miterlimit="22.9256" d="M7.58,54.85
						c0,0,0.51-1.5,0.51-3.74c0-2.25-0.7-3.87-0.7-3.87"/>
				</g>
				<g>
					<path fill="#FFFFFF" stroke="#1D2132" stroke-width="0.1" stroke-linecap="square" stroke-miterlimit="22.9256" d="M6.06,54.08
						c0,0.27,0.05,0.2,0.14,0.13c0.09-0.07,0.23-0.1,0.84,0c0.61,0.1,1.07,0.13,1.65-0.03c0.58-0.17,0.66-0.08,0.81-0.01
						C9.65,54.24,9.77,54.2,9.65,54c-0.12-0.2,0.05-0.78,0.08-1.25c0.09-1.83,0-2.63-0.07-3.91c-0.02-0.27-0.11-0.51-0.08-0.64
						c0.03-0.13-0.03-0.3-0.12-0.2c-0.09,0.1-1.1-0.13-1.83-0.07C6.89,48,6.47,47.96,6.38,47.93c-0.09-0.03-0.37,0.07-0.24,0.2
						c0.12,0.13-0.07,0.67-0.1,0.94c-0.03,0.27-0.12,0.84-0.09,2.27c0.03,1.43,0.02,2.06,0.11,2.29
						C6.15,53.85,6.06,54.01,6.06,54.08z"/>
					<path fill="none" stroke="#1D2132" stroke-width="0.1" stroke-linecap="square" stroke-miterlimit="22.9256" d="M9.25,53.83
						c0,0,0.41-1.09,0.41-2.72c0-1.63-0.57-2.81-0.57-2.81"/>
				</g>
				<g>
					<path fill="#FFFFFF" stroke="#1D2132" stroke-width="0.1" stroke-linecap="square" stroke-miterlimit="22.9256" d="M3.64,65.66
						c0,0.37,0.06,0.28,0.17,0.19c0.11-0.09,0.28-0.14,1.04,0c0.76,0.14,1.32,0.18,2.04-0.05c0.72-0.23,0.81-0.1,1-0.01
						c0.19,0.09,0.34,0.05,0.19-0.23c-0.15-0.27,0.07-1.07,0.1-1.73c0.11-2.52,0.01-3.62-0.08-5.38c-0.02-0.38-0.14-0.7-0.1-0.88
						c0.04-0.18-0.04-0.41-0.15-0.27c-0.11,0.14-1.36-0.18-2.26-0.09c-0.91,0.09-1.42,0.04-1.53-0.01c-0.11-0.05-0.45,0.09-0.3,0.27
						c0.15,0.18-0.08,0.92-0.12,1.29c-0.04,0.37-0.15,1.16-0.11,3.12c0.04,1.97,0.02,2.83,0.14,3.15
						C3.75,65.35,3.64,65.57,3.64,65.66z"/>
					<path fill="none" stroke="#1D2132" stroke-width="0.1" stroke-linecap="square" stroke-miterlimit="22.9256" d="M7.58,65.32
						c0,0,0.51-1.5,0.51-3.74c0-2.25-0.7-3.87-0.7-3.87"/>
				</g>
				<g>
					<path fill="#FFFFFF" stroke="#1D2132" stroke-width="0.1" stroke-linecap="square" stroke-miterlimit="22.9256" d="M6.06,64.54
						c0,0.27,0.05,0.2,0.14,0.13c0.09-0.07,0.23-0.1,0.84,0c0.61,0.1,1.07,0.13,1.65-0.03c0.58-0.17,0.66-0.08,0.81-0.01
						c0.15,0.07,0.27,0.03,0.15-0.17c-0.12-0.2,0.05-0.78,0.08-1.25c0.09-1.83,0-2.63-0.07-3.91c-0.02-0.27-0.11-0.51-0.08-0.64
						c0.03-0.13-0.03-0.3-0.12-0.2c-0.09,0.1-1.1-0.13-1.83-0.07c-0.73,0.07-1.15,0.03-1.24-0.01c-0.09-0.03-0.37,0.07-0.24,0.2
						c0.12,0.13-0.07,0.67-0.1,0.94c-0.03,0.27-0.12,0.84-0.09,2.27c0.03,1.43,0.02,2.06,0.11,2.29
						C6.15,64.32,6.06,64.48,6.06,64.54z"/>
					<path fill="none" stroke="#1D2132" stroke-width="0.1" stroke-linecap="square" stroke-miterlimit="22.9256" d="M9.25,64.29
						c0,0,0.41-1.09,0.41-2.72c0-1.63-0.57-2.81-0.57-2.81"/>
				</g>
				<path fill="#FFFFFF" stroke="#1D2132" stroke-width="0.1" stroke-linecap="square" stroke-miterlimit="22.9256" d="M29.8,44.96
					v23.06c0,0.35-0.28,0.62-0.62,0.62h-7.39c-0.35,0-0.62-0.28-0.62-0.62V44.96c0-0.35,0.28-0.62,0.62-0.62h7.39
					C29.52,44.34,29.8,44.62,29.8,44.96z"/>
			</g>
			<g>
				
					<rect x="-13.28" y="56.07" transform="matrix(4.515594e-11 -1 1 4.515594e-11 -53.7463 59.0578)" fill="#FFFFFF" stroke="#1D2132" stroke-width="0.1" stroke-linecap="square" stroke-miterlimit="22.9256" width="31.86" height="0.66"/>
				<path fill="#FFFFFF" stroke="#1D2132" stroke-width="0.1" stroke-linecap="square" stroke-miterlimit="22.9256" d="M3.49,41.26
					v30.29c0,0.28-0.23,0.51-0.51,0.51h0v-31.3h0C3.27,40.75,3.49,40.98,3.49,41.26z"/>
				<g>
					<g>
						<g>
							<path fill="#FFFFFF" stroke="#1D2132" stroke-width="0.1" stroke-linecap="square" stroke-miterlimit="22.9256" d="
								M2.99,41.54v1h0.12c0.28,0,0.5-0.22,0.5-0.5l0,0c0-0.28-0.22-0.5-0.5-0.5H2.99z"/>
							<path fill="#FFFFFF" stroke="#1D2132" stroke-width="0.1" stroke-linecap="square" stroke-miterlimit="22.9256" d="
								M6.71,45.2l0.18-0.75c0.42-0.04,0.85-0.02,1.27,0.06l0,0c0.11,0.03,0.13,0.32,0.05,0.65c-0.08,0.34-0.23,0.59-0.34,0.56l0,0
								C7.46,45.62,7.08,45.45,6.71,45.2z"/>
							
								<ellipse transform="matrix(0.2315 -0.9728 0.9728 0.2315 -38.3839 41.0623)" fill="#FFFFFF" stroke="#1D2132" stroke-width="0.1" stroke-linecap="square" stroke-miterlimit="22.9256" cx="6.8" cy="44.83" rx="0.39" ry="0.13"/>
							<path fill="#FFFFFF" stroke="#1D2132" stroke-width="0.1" stroke-linecap="square" stroke-miterlimit="22.9256" d="
								M6.76,44.73L6.68,44.7c0,0-0.42-0.17-0.73-0.79c-0.06-0.12-0.11-0.25-0.17-0.38c-0.17-0.4-0.36-0.85-0.74-1.15
								c-0.51-0.4-1.31-0.4-1.34-0.4l-0.08,0l0,0.17l0.08,0c0.01,0,0.77,0,1.23,0.36c0.35,0.28,0.52,0.69,0.69,1.08
								c0.06,0.14,0.11,0.27,0.17,0.39c0.34,0.68,0.8,0.87,0.82,0.87l0.08,0.03C6.73,44.88,6.77,44.78,6.76,44.73z"/>
						</g>
					</g>
					<g>
						<g>
							<path fill="#FFFFFF" stroke="#1D2132" stroke-width="0.1" stroke-linecap="square" stroke-miterlimit="22.9256" d="
								M2.99,71.27v-1h0.12c0.28,0,0.5,0.22,0.5,0.5l0,0c0,0.28-0.22,0.5-0.5,0.5H2.99z"/>
							<path fill="#FFFFFF" stroke="#1D2132" stroke-width="0.1" stroke-linecap="square" stroke-miterlimit="22.9256" d="
								M6.71,67.6l0.18,0.75c0.42,0.04,0.85,0.02,1.27-0.06l0,0c0.11-0.03,0.13-0.32,0.05-0.65c-0.08-0.34-0.23-0.59-0.34-0.56l0,0
								C7.46,67.18,7.08,67.36,6.71,67.6z"/>
							
								<ellipse transform="matrix(0.9728 -0.2315 0.2315 0.9728 -15.5525 3.4205)" fill="#FFFFFF" stroke="#1D2132" stroke-width="0.1" stroke-linecap="square" stroke-miterlimit="22.9256" cx="6.8" cy="67.98" rx="0.13" ry="0.39"/>
							<path fill="#FFFFFF" stroke="#1D2132" stroke-width="0.1" stroke-linecap="square" stroke-miterlimit="22.9256" d="
								M6.76,68.08l-0.08,0.03c0,0-0.42,0.17-0.73,0.79c-0.06,0.12-0.11,0.25-0.17,0.38c-0.17,0.4-0.36,0.85-0.74,1.15
								c-0.51,0.4-1.31,0.4-1.34,0.4l-0.08,0l0-0.17l0.08,0c0.01,0,0.77,0,1.23-0.36c0.35-0.28,0.52-0.69,0.69-1.08
								c0.06-0.14,0.11-0.27,0.17-0.39c0.34-0.68,0.8-0.87,0.82-0.87l0.08-0.03C6.73,67.92,6.77,68.02,6.76,68.08z"/>
						</g>
					</g>
				</g>
			</g>
		</g>
	</g>
	<g>
		<g>
			
				<rect x="21.73" y="76.5" transform="matrix(-1 -1.224647e-16 1.224647e-16 -1 54.082 153.8041)" fill="#FFFFFF" stroke="#1D2132" stroke-width="0.1" stroke-linecap="square" stroke-miterlimit="10" width="10.62" height="0.8"/>
			
				<line fill="none" stroke="#1D2132" stroke-width="0.1" stroke-linecap="square" stroke-miterlimit="10" x1="31.52" y1="77.14" x2="31.52" y2="76.66"/>
			
				<line fill="none" stroke="#1D2132" stroke-width="0.1" stroke-linecap="square" stroke-miterlimit="10" x1="31.23" y1="77.14" x2="31.23" y2="76.66"/>
			
				<line fill="none" stroke="#1D2132" stroke-width="0.1" stroke-linecap="square" stroke-miterlimit="10" x1="32.09" y1="77.14" x2="32.09" y2="76.66"/>
			
				<line fill="none" stroke="#1D2132" stroke-width="0.1" stroke-linecap="square" stroke-miterlimit="10" x1="31.8" y1="77.14" x2="31.8" y2="76.66"/>
			
				<line fill="none" stroke="#1D2132" stroke-width="0.1" stroke-linecap="square" stroke-miterlimit="10" x1="30.94" y1="77.14" x2="30.94" y2="76.66"/>
			
				<line fill="none" stroke="#1D2132" stroke-width="0.1" stroke-linecap="square" stroke-miterlimit="10" x1="30.66" y1="77.14" x2="30.66" y2="76.66"/>
			
				<line fill="none" stroke="#1D2132" stroke-width="0.1" stroke-linecap="square" stroke-miterlimit="10" x1="30.37" y1="77.14" x2="30.37" y2="76.66"/>
			
				<line fill="none" stroke="#1D2132" stroke-width="0.1" stroke-linecap="square" stroke-miterlimit="10" x1="30.08" y1="77.14" x2="30.08" y2="76.66"/>
			
				<line fill="none" stroke="#1D2132" stroke-width="0.1" stroke-linecap="square" stroke-miterlimit="10" x1="29.8" y1="77.14" x2="29.8" y2="76.66"/>
			
				<line fill="none" stroke="#1D2132" stroke-width="0.1" stroke-linecap="square" stroke-miterlimit="10" x1="29.51" y1="77.14" x2="29.51" y2="76.66"/>
			
				<line fill="none" stroke="#1D2132" stroke-width="0.1" stroke-linecap="square" stroke-miterlimit="10" x1="28.65" y1="77.14" x2="28.65" y2="76.66"/>
			
				<line fill="none" stroke="#1D2132" stroke-width="0.1" stroke-linecap="square" stroke-miterlimit="10" x1="28.36" y1="77.14" x2="28.36" y2="76.66"/>
			
				<line fill="none" stroke="#1D2132" stroke-width="0.1" stroke-linecap="square" stroke-miterlimit="10" x1="29.22" y1="77.14" x2="29.22" y2="76.66"/>
			
				<line fill="none" stroke="#1D2132" stroke-width="0.1" stroke-linecap="square" stroke-miterlimit="10" x1="28.94" y1="77.14" x2="28.94" y2="76.66"/>
			
				<line fill="none" stroke="#1D2132" stroke-width="0.1" stroke-linecap="square" stroke-miterlimit="10" x1="28.08" y1="77.14" x2="28.08" y2="76.66"/>
			
				<line fill="none" stroke="#1D2132" stroke-width="0.1" stroke-linecap="square" stroke-miterlimit="10" x1="27.79" y1="77.14" x2="27.79" y2="76.66"/>
			
				<line fill="none" stroke="#1D2132" stroke-width="0.1" stroke-linecap="square" stroke-miterlimit="10" x1="27.5" y1="77.14" x2="27.5" y2="76.66"/>
			
				<line fill="none" stroke="#1D2132" stroke-width="0.1" stroke-linecap="square" stroke-miterlimit="10" x1="27.22" y1="77.14" x2="27.22" y2="76.66"/>
			
				<line fill="none" stroke="#1D2132" stroke-width="0.1" stroke-linecap="square" stroke-miterlimit="10" x1="26.93" y1="77.14" x2="26.93" y2="76.66"/>
			
				<line fill="none" stroke="#1D2132" stroke-width="0.1" stroke-linecap="square" stroke-miterlimit="10" x1="26.64" y1="77.14" x2="26.64" y2="76.66"/>
			
				<line fill="none" stroke="#1D2132" stroke-width="0.1" stroke-linecap="square" stroke-miterlimit="10" x1="25.78" y1="77.14" x2="25.78" y2="76.66"/>
			
				<line fill="none" stroke="#1D2132" stroke-width="0.1" stroke-linecap="square" stroke-miterlimit="10" x1="25.5" y1="77.14" x2="25.5" y2="76.66"/>
			
				<line fill="none" stroke="#1D2132" stroke-width="0.1" stroke-linecap="square" stroke-miterlimit="10" x1="26.36" y1="77.14" x2="26.36" y2="76.66"/>
			
				<line fill="none" stroke="#1D2132" stroke-width="0.1" stroke-linecap="square" stroke-miterlimit="10" x1="26.07" y1="77.14" x2="26.07" y2="76.66"/>
			
				<line fill="none" stroke="#1D2132" stroke-width="0.1" stroke-linecap="square" stroke-miterlimit="10" x1="25.21" y1="77.14" x2="25.21" y2="76.66"/>
			
				<line fill="none" stroke="#1D2132" stroke-width="0.1" stroke-linecap="square" stroke-miterlimit="10" x1="24.92" y1="77.14" x2="24.92" y2="76.66"/>
			
				<line fill="none" stroke="#1D2132" stroke-width="0.1" stroke-linecap="square" stroke-miterlimit="10" x1="24.64" y1="77.14" x2="24.64" y2="76.66"/>
			
				<line fill="none" stroke="#1D2132" stroke-width="0.1" stroke-linecap="square" stroke-miterlimit="10" x1="24.35" y1="77.14" x2="24.35" y2="76.66"/>
			
				<line fill="none" stroke="#1D2132" stroke-width="0.1" stroke-linecap="square" stroke-miterlimit="10" x1="24.06" y1="77.14" x2="24.06" y2="76.66"/>
			
				<line fill="none" stroke="#1D2132" stroke-width="0.1" stroke-linecap="square" stroke-miterlimit="10" x1="23.78" y1="77.14" x2="23.78" y2="76.66"/>
			
				<line fill="none" stroke="#1D2132" stroke-width="0.1" stroke-linecap="square" stroke-miterlimit="10" x1="22.92" y1="77.14" x2="22.92" y2="76.66"/>
			
				<line fill="none" stroke="#1D2132" stroke-width="0.1" stroke-linecap="square" stroke-miterlimit="10" x1="22.63" y1="77.14" x2="22.63" y2="76.66"/>
			
				<line fill="none" stroke="#1D2132" stroke-width="0.1" stroke-linecap="square" stroke-miterlimit="10" x1="23.49" y1="77.14" x2="23.49" y2="76.66"/>
			
				<line fill="none" stroke="#1D2132" stroke-width="0.1" stroke-linecap="square" stroke-miterlimit="10" x1="23.2" y1="77.14" x2="23.2" y2="76.66"/>
			
				<line fill="none" stroke="#1D2132" stroke-width="0.1" stroke-linecap="square" stroke-miterlimit="10" x1="22.34" y1="77.14" x2="22.34" y2="76.66"/>
			
				<line fill="none" stroke="#1D2132" stroke-width="0.1" stroke-linecap="square" stroke-miterlimit="10" x1="22.06" y1="77.14" x2="22.06" y2="76.66"/>
		</g>
		<path fill="none" stroke="#1D2132" stroke-width="0.1" stroke-linecap="square" stroke-miterlimit="10" d="M41.94,76.35
			c-0.42,0,0-0.74-0.42-0.74c-0.42,0,0,0.74-0.42,0.74c-0.42,0,0-0.74-0.42-0.74c-0.42,0,0,0.74-0.42,0.74c-0.42,0,0-0.74-0.42-0.74
			c-0.42,0,0,0.74-0.42,0.74c-0.42,0,0-0.74-0.42-0.74c-0.42,0,0,0.74-0.42,0.74c-0.42,0,0-0.74-0.42-0.74c-0.42,0,0,0.74-0.42,0.74
			s0-0.74-0.42-0.74c-0.42,0,0,0.74-0.42,0.74c-0.42,0,0-0.74-0.42-0.74c-0.42,0,0,0.74-0.42,0.74c-0.42,0,0-0.74-0.42-0.74
			c-0.42,0,0,0.74-0.42,0.74c-0.42,0,0-0.74-0.42-0.74c-0.42,0,0,0.74-0.42,0.74c-0.42,0,0-0.74-0.42-0.74c-0.42,0,0,0.74-0.42,0.74
			c-0.42,0,0-0.74-0.42-0.74s0,0.74-0.42,0.74c-0.42,0,0-0.74-0.42-0.74c-0.42,0,0,0.74-0.42,0.74s0-0.74-0.42-0.74
			s0,0.74-0.42,0.74c-0.42,0,0-0.74-0.42-0.74c-0.42,0,0,0.74-0.42,0.74s0-0.74-0.42-0.74s0,0.74-0.42,0.74s0-0.74-0.42-0.74
			s0,0.74-0.42,0.74s0-0.74-0.42-0.74"/>
		<path fill="none" stroke="#1D2132" stroke-width="0.1" stroke-linecap="square" stroke-miterlimit="10" d="M12.06,76.35
			c0.42,0,0-0.74,0.42-0.74c0.42,0,0,0.74,0.42,0.74s0-0.74,0.42-0.74s0,0.74,0.42,0.74s0-0.74,0.42-0.74s0,0.74,0.42,0.74
			c0.42,0,0-0.74,0.42-0.74c0.42,0,0,0.74,0.42,0.74s0-0.74,0.42-0.74s0,0.74,0.42,0.74s0-0.74,0.42-0.74s0,0.74,0.42,0.74
			s0-0.74,0.42-0.74s0,0.74,0.42,0.74s0-0.74,0.42-0.74c0.42,0,0,0.74,0.42,0.74c0.42,0,0-0.74,0.42-0.74s0,0.74,0.42,0.74
			s0-0.74,0.42-0.74s0,0.74,0.42,0.74s0-0.74,0.42-0.74s0,0.74,0.42,0.74s0-0.74,0.42-0.74s0,0.74,0.42,0.74s0-0.74,0.42-0.74
			s0,0.74,0.42,0.74c0.42,0,0-0.74,0.42-0.74c0.42,0,0,0.74,0.42,0.74s0-0.74,0.42-0.74s0,0.74,0.42,0.74s0-0.74,0.42-0.74
			s0,0.74,0.42,0.74s0-0.74,0.42-0.74"/>
	</g>
	<g>
		<g>
			
				<rect x="67.57" y="76.5" transform="matrix(-1 -1.224647e-16 1.224647e-16 -1 145.7638 153.8041)" fill="#FFFFFF" stroke="#1D2132" stroke-width="0.1" stroke-linecap="square" stroke-miterlimit="10" width="10.62" height="0.8"/>
			
				<line fill="none" stroke="#1D2132" stroke-width="0.1" stroke-linecap="square" stroke-miterlimit="10" x1="77.36" y1="77.14" x2="77.36" y2="76.66"/>
			
				<line fill="none" stroke="#1D2132" stroke-width="0.1" stroke-linecap="square" stroke-miterlimit="10" x1="77.07" y1="77.14" x2="77.07" y2="76.66"/>
			
				<line fill="none" stroke="#1D2132" stroke-width="0.1" stroke-linecap="square" stroke-miterlimit="10" x1="77.93" y1="77.14" x2="77.93" y2="76.66"/>
			
				<line fill="none" stroke="#1D2132" stroke-width="0.1" stroke-linecap="square" stroke-miterlimit="10" x1="77.64" y1="77.14" x2="77.64" y2="76.66"/>
			
				<line fill="none" stroke="#1D2132" stroke-width="0.1" stroke-linecap="square" stroke-miterlimit="10" x1="76.78" y1="77.14" x2="76.78" y2="76.66"/>
			
				<line fill="none" stroke="#1D2132" stroke-width="0.1" stroke-linecap="square" stroke-miterlimit="10" x1="76.5" y1="77.14" x2="76.5" y2="76.66"/>
			
				<line fill="none" stroke="#1D2132" stroke-width="0.1" stroke-linecap="square" stroke-miterlimit="10" x1="76.21" y1="77.14" x2="76.21" y2="76.66"/>
			
				<line fill="none" stroke="#1D2132" stroke-width="0.1" stroke-linecap="square" stroke-miterlimit="10" x1="75.92" y1="77.14" x2="75.92" y2="76.66"/>
			
				<line fill="none" stroke="#1D2132" stroke-width="0.1" stroke-linecap="square" stroke-miterlimit="10" x1="75.64" y1="77.14" x2="75.64" y2="76.66"/>
			
				<line fill="none" stroke="#1D2132" stroke-width="0.1" stroke-linecap="square" stroke-miterlimit="10" x1="75.35" y1="77.14" x2="75.35" y2="76.66"/>
			
				<line fill="none" stroke="#1D2132" stroke-width="0.1" stroke-linecap="square" stroke-miterlimit="10" x1="74.49" y1="77.14" x2="74.49" y2="76.66"/>
			
				<line fill="none" stroke="#1D2132" stroke-width="0.1" stroke-linecap="square" stroke-miterlimit="10" x1="74.2" y1="77.14" x2="74.2" y2="76.66"/>
			
				<line fill="none" stroke="#1D2132" stroke-width="0.1" stroke-linecap="square" stroke-miterlimit="10" x1="75.06" y1="77.14" x2="75.06" y2="76.66"/>
			
				<line fill="none" stroke="#1D2132" stroke-width="0.1" stroke-linecap="square" stroke-miterlimit="10" x1="74.78" y1="77.14" x2="74.78" y2="76.66"/>
			
				<line fill="none" stroke="#1D2132" stroke-width="0.1" stroke-linecap="square" stroke-miterlimit="10" x1="73.92" y1="77.14" x2="73.92" y2="76.66"/>
			
				<line fill="none" stroke="#1D2132" stroke-width="0.1" stroke-linecap="square" stroke-miterlimit="10" x1="73.63" y1="77.14" x2="73.63" y2="76.66"/>
			
				<line fill="none" stroke="#1D2132" stroke-width="0.1" stroke-linecap="square" stroke-miterlimit="10" x1="73.34" y1="77.14" x2="73.34" y2="76.66"/>
			
				<line fill="none" stroke="#1D2132" stroke-width="0.1" stroke-linecap="square" stroke-miterlimit="10" x1="73.06" y1="77.14" x2="73.06" y2="76.66"/>
			
				<line fill="none" stroke="#1D2132" stroke-width="0.1" stroke-linecap="square" stroke-miterlimit="10" x1="72.77" y1="77.14" x2="72.77" y2="76.66"/>
			
				<line fill="none" stroke="#1D2132" stroke-width="0.1" stroke-linecap="square" stroke-miterlimit="10" x1="72.48" y1="77.14" x2="72.48" y2="76.66"/>
			
				<line fill="none" stroke="#1D2132" stroke-width="0.1" stroke-linecap="square" stroke-miterlimit="10" x1="71.62" y1="77.14" x2="71.62" y2="76.66"/>
			
				<line fill="none" stroke="#1D2132" stroke-width="0.1" stroke-linecap="square" stroke-miterlimit="10" x1="71.34" y1="77.14" x2="71.34" y2="76.66"/>
			
				<line fill="none" stroke="#1D2132" stroke-width="0.1" stroke-linecap="square" stroke-miterlimit="10" x1="72.2" y1="77.14" x2="72.2" y2="76.66"/>
			
				<line fill="none" stroke="#1D2132" stroke-width="0.1" stroke-linecap="square" stroke-miterlimit="10" x1="71.91" y1="77.14" x2="71.91" y2="76.66"/>
			
				<line fill="none" stroke="#1D2132" stroke-width="0.1" stroke-linecap="square" stroke-miterlimit="10" x1="71.05" y1="77.14" x2="71.05" y2="76.66"/>
			
				<line fill="none" stroke="#1D2132" stroke-width="0.1" stroke-linecap="square" stroke-miterlimit="10" x1="70.76" y1="77.14" x2="70.76" y2="76.66"/>
			
				<line fill="none" stroke="#1D2132" stroke-width="0.1" stroke-linecap="square" stroke-miterlimit="10" x1="70.48" y1="77.14" x2="70.48" y2="76.66"/>
			
				<line fill="none" stroke="#1D2132" stroke-width="0.1" stroke-linecap="square" stroke-miterlimit="10" x1="70.19" y1="77.14" x2="70.19" y2="76.66"/>
			
				<line fill="none" stroke="#1D2132" stroke-width="0.1" stroke-linecap="square" stroke-miterlimit="10" x1="69.9" y1="77.14" x2="69.9" y2="76.66"/>
			
				<line fill="none" stroke="#1D2132" stroke-width="0.1" stroke-linecap="square" stroke-miterlimit="10" x1="69.62" y1="77.14" x2="69.62" y2="76.66"/>
			
				<line fill="none" stroke="#1D2132" stroke-width="0.1" stroke-linecap="square" stroke-miterlimit="10" x1="68.76" y1="77.14" x2="68.76" y2="76.66"/>
			
				<line fill="none" stroke="#1D2132" stroke-width="0.1" stroke-linecap="square" stroke-miterlimit="10" x1="68.47" y1="77.14" x2="68.47" y2="76.66"/>
			
				<line fill="none" stroke="#1D2132" stroke-width="0.1" stroke-linecap="square" stroke-miterlimit="10" x1="69.33" y1="77.14" x2="69.33" y2="76.66"/>
			
				<line fill="none" stroke="#1D2132" stroke-width="0.1" stroke-linecap="square" stroke-miterlimit="10" x1="69.04" y1="77.14" x2="69.04" y2="76.66"/>
			
				<line fill="none" stroke="#1D2132" stroke-width="0.1" stroke-linecap="square" stroke-miterlimit="10" x1="68.18" y1="77.14" x2="68.18" y2="76.66"/>
			
				<line fill="none" stroke="#1D2132" stroke-width="0.1" stroke-linecap="square" stroke-miterlimit="10" x1="67.9" y1="77.14" x2="67.9" y2="76.66"/>
		</g>
		<path fill="none" stroke="#1D2132" stroke-width="0.1" stroke-linecap="square" stroke-miterlimit="10" d="M87.78,76.35
			c-0.42,0,0-0.74-0.42-0.74s0,0.74-0.42,0.74s0-0.74-0.42-0.74s0,0.74-0.42,0.74c-0.42,0,0-0.74-0.42-0.74
			c-0.42,0,0,0.74-0.42,0.74s0-0.74-0.42-0.74s0,0.74-0.42,0.74c-0.42,0,0-0.74-0.42-0.74c-0.42,0,0,0.74-0.42,0.74
			s0-0.74-0.42-0.74s0,0.74-0.42,0.74c-0.42,0,0-0.74-0.42-0.74c-0.42,0,0,0.74-0.42,0.74s0-0.74-0.42-0.74s0,0.74-0.42,0.74
			s0-0.74-0.42-0.74c-0.42,0,0,0.74-0.42,0.74c-0.42,0,0-0.74-0.42-0.74s0,0.74-0.42,0.74s0-0.74-0.42-0.74
			c-0.42,0,0,0.74-0.42,0.74c-0.42,0,0-0.74-0.42-0.74s0,0.74-0.42,0.74s0-0.74-0.42-0.74s0,0.74-0.42,0.74
			c-0.42,0,0-0.74-0.42-0.74c-0.42,0,0,0.74-0.42,0.74s0-0.74-0.42-0.74s0,0.74-0.42,0.74c-0.42,0,0-0.74-0.42-0.74
			c-0.42,0,0,0.74-0.42,0.74s0-0.74-0.42-0.74"/>
		<path fill="none" stroke="#1D2132" stroke-width="0.1" stroke-linecap="square" stroke-miterlimit="10" d="M57.9,76.35
			c0.42,0,0-0.74,0.42-0.74c0.42,0,0,0.74,0.42,0.74c0.42,0,0-0.74,0.42-0.74c0.42,0,0,0.74,0.42,0.74c0.42,0,0-0.74,0.42-0.74
			s0,0.74,0.42,0.74c0.42,0,0-0.74,0.42-0.74c0.42,0,0,0.74,0.42,0.74c0.42,0,0-0.74,0.42-0.74c0.42,0,0,0.74,0.42,0.74
			c0.42,0,0-0.74,0.42-0.74c0.42,0,0,0.74,0.42,0.74c0.42,0,0-0.74,0.42-0.74c0.42,0,0,0.74,0.42,0.74s0-0.74,0.42-0.74
			c0.42,0,0,0.74,0.42,0.74c0.42,0,0-0.74,0.42-0.74s0,0.74,0.42,0.74s0-0.74,0.42-0.74s0,0.74,0.42,0.74c0.42,0,0-0.74,0.42-0.74
			c0.42,0,0,0.74,0.42,0.74s0-0.74,0.42-0.74s0,0.74,0.42,0.74c0.42,0,0-0.74,0.42-0.74c0.42,0,0,0.74,0.42,0.74s0-0.74,0.42-0.74
			s0,0.74,0.42,0.74s0-0.74,0.42-0.74c0.42,0,0,0.74,0.42,0.74c0.42,0,0-0.74,0.42-0.74s0,0.74,0.42,0.74s0-0.74,0.42-0.74"/>
	</g>
	<g>
		
			<circle fill="#FFFFFF" stroke="#1D2132" stroke-width="0.1" stroke-linecap="square" stroke-miterlimit="22.9256" cx="5.57" cy="24.4" r="1.87"/>
		
			<circle fill="#FFFFFF" stroke="#1D2132" stroke-width="0.1" stroke-linecap="square" stroke-miterlimit="22.9256" cx="5.57" cy="24.4" r="0.4"/>
		<path fill="#FFFFFF" stroke="#1D2132" stroke-width="0.1" stroke-linecap="square" stroke-miterlimit="22.9256" d="M10.99,28.34
			c0.41,0.18,1.01-0.24,1.32-0.95s0.23-1.43-0.18-1.61l0,0c-0.83-0.39-1.48-0.44-2.5-0.43l-0.63,1.43
			C9.65,27.56,10.13,28,10.99,28.34z"/>
		<path fill="#FFFFFF" stroke="#1D2132" stroke-width="0.1" stroke-linecap="square" stroke-miterlimit="22.9256" d="M9.73,26.25
			c0.18-0.39,0.13-0.8-0.1-0.9l-0.51-0.23l-0.63,1.43l0.51,0.23C9.22,26.88,9.55,26.64,9.73,26.25z"/>
		
			<ellipse transform="matrix(0.4062 -0.9138 0.9138 0.4062 -18.3831 23.3801)" fill="#FFFFFF" stroke="#1D2132" stroke-width="0.1" stroke-linecap="square" stroke-miterlimit="22.9256" cx="8.8" cy="25.83" rx="0.78" ry="0.46"/>
		<path fill="#FFFFFF" stroke="#1D2132" stroke-width="0.1" stroke-linecap="square" stroke-miterlimit="22.9256" d="M5.45,24.34
			L5.45,24.34c0.03-0.07,0.11-0.1,0.19-0.07l1.94,0.86c0.07,0.03,0.1,0.11,0.07,0.19l0,0c-0.03,0.07-0.11,0.1-0.19,0.07l-1.94-0.86
			C5.45,24.5,5.42,24.42,5.45,24.34z"/>
		<path fill="#FFFFFF" stroke="#1D2132" stroke-width="0.1" stroke-linecap="square" stroke-miterlimit="22.9256" d="M6.54,24.83
			L6.54,24.83c0.03-0.07,0.11-0.1,0.19-0.07l1.94,0.86c0.07,0.03,0.1,0.11,0.07,0.19h0c-0.03,0.07-0.11,0.1-0.19,0.07l-1.94-0.86
			C6.54,24.99,6.51,24.9,6.54,24.83z"/>
	</g>
	<g>
		<g>
			<path fill="#FFFFFF" stroke="#1D2132" stroke-width="0.1" stroke-linecap="square" stroke-miterlimit="10" d="M68.81,69.93
				c0.96,0.81,2.14,2.04,2.75,2.31c0.54,0.24,1.11-0.91,2.11-1.91c1.01-1.01,2.16-1.57,1.92-2.11c-0.27-0.61-1.5-1.8-2.31-2.76
				c-0.81-0.96-1.3-1.01-1.94-0.62c-0.63,0.38-1.25,1.05-1.67,1.47c-0.42,0.42-1.09,1.04-1.47,1.67
				C67.81,68.62,67.85,69.12,68.81,69.93z"/>
			<path fill="#FFFFFF" stroke="#1D2132" stroke-width="0.1" stroke-linecap="square" stroke-miterlimit="10" d="M68.73,69.52
				c0.79,0.66,1.76,1.67,2.28,1.88c0.46,0.18,1.56-0.3,2.49-1.24c0.93-0.93,1.42-2.03,1.24-2.49c-0.2-0.52-1.22-1.49-1.87-2.29
				c-0.66-0.79-1.08-0.81-1.66-0.44c-0.57,0.37-1.15,0.99-1.54,1.37c-0.39,0.39-1.01,0.97-1.38,1.54
				C67.92,68.43,67.94,68.86,68.73,69.52z"/>
			<g>
				<path fill="#FFFFFF" stroke="#1D2132" stroke-width="0.1" stroke-linecap="square" stroke-miterlimit="10" d="M75.63,69.78
					c0.24-0.35,0.45-0.72,0.63-1.09c-1.13-0.89-1.3,0.74-2.4,1.83c-1.13,1.13-2.88,1.36-1.8,2.44
					C73.46,72.24,74.69,71.17,75.63,69.78z"/>
				<path fill="#FFFFFF" stroke="#1D2132" stroke-width="0.1" stroke-linecap="square" stroke-miterlimit="10" d="M72.13,73.26
					c0.09-0.04,0.17-0.09,0.25-0.14c1.36-0.74,2.57-1.81,3.49-3.18c0.22-0.32,0.41-0.66,0.59-1c0.04-0.07,0.07-0.14,0.1-0.2
					l-0.26-0.13c-0.01,0.03-0.03,0.05-0.04,0.08c-0.19,0.37-0.4,0.73-0.63,1.09c-0.94,1.39-2.17,2.46-3.57,3.19
					C72.04,72.98,72.02,72.99,72,73L72.13,73.26z"/>
			</g>
		</g>
		<g>
			<path fill="#FFFFFF" stroke="#1D2132" stroke-width="0.1" stroke-linecap="square" stroke-miterlimit="10" d="M56.59,57.71
				c-0.81-0.96-2.04-2.14-2.31-2.75c-0.24-0.54,0.91-1.11,1.91-2.11c1.01-1.01,1.57-2.16,2.11-1.92c0.61,0.27,1.8,1.5,2.76,2.31
				c0.96,0.81,1.01,1.3,0.62,1.94c-0.38,0.63-1.05,1.25-1.47,1.67c-0.42,0.42-1.04,1.09-1.67,1.47
				C57.9,58.72,57.41,58.67,56.59,57.71z"/>
			<path fill="#FFFFFF" stroke="#1D2132" stroke-width="0.1" stroke-linecap="square" stroke-miterlimit="10" d="M57.01,57.79
				c-0.66-0.79-1.67-1.76-1.88-2.28c-0.18-0.46,0.3-1.56,1.24-2.49c0.93-0.93,2.03-1.42,2.49-1.24c0.52,0.2,1.49,1.22,2.29,1.87
				c0.79,0.66,0.81,1.08,0.44,1.66c-0.37,0.57-0.99,1.15-1.37,1.54c-0.39,0.39-0.97,1.01-1.54,1.38
				C58.09,58.6,57.67,58.59,57.01,57.79z"/>
			<g>
				<path fill="#FFFFFF" stroke="#1D2132" stroke-width="0.1" stroke-linecap="square" stroke-miterlimit="10" d="M56.75,50.89
					c0.35-0.24,0.72-0.45,1.09-0.63c0.89,1.13-0.74,1.3-1.83,2.4c-1.13,1.13-1.36,2.88-2.44,1.8
					C54.28,53.07,55.36,51.83,56.75,50.89z"/>
				<path fill="#FFFFFF" stroke="#1D2132" stroke-width="0.1" stroke-linecap="square" stroke-miterlimit="10" d="M53.26,54.39
					c0.04-0.09,0.09-0.17,0.14-0.25c0.74-1.36,1.81-2.57,3.18-3.49c0.32-0.22,0.66-0.41,1-0.59c0.07-0.04,0.14-0.07,0.2-0.1
					l0.13,0.26c-0.03,0.01-0.05,0.03-0.08,0.04c-0.37,0.19-0.73,0.4-1.09,0.63c-1.39,0.94-2.46,2.17-3.19,3.57
					c-0.01,0.02-0.02,0.04-0.04,0.07L53.26,54.39z"/>
			</g>
		</g>
		<g>
			<path fill="#FFFFFF" stroke="#1D2132" stroke-width="0.1" stroke-linecap="square" stroke-miterlimit="10" d="M56.59,65.46
				c-0.81,0.96-2.04,2.14-2.31,2.75c-0.24,0.54,0.91,1.11,1.91,2.11c1.01,1.01,1.57,2.16,2.11,1.92c0.61-0.27,1.8-1.5,2.76-2.31
				c0.96-0.81,1.01-1.3,0.62-1.94c-0.38-0.63-1.05-1.25-1.47-1.67c-0.42-0.42-1.04-1.09-1.67-1.47
				C57.9,64.45,57.41,64.5,56.59,65.46z"/>
			<path fill="#FFFFFF" stroke="#1D2132" stroke-width="0.1" stroke-linecap="square" stroke-miterlimit="10" d="M57.01,65.38
				c-0.66,0.79-1.67,1.76-1.88,2.28c-0.18,0.46,0.3,1.56,1.24,2.49c0.93,0.93,2.03,1.42,2.49,1.24c0.52-0.2,1.49-1.22,2.29-1.87
				c0.79-0.66,0.81-1.08,0.44-1.66c-0.37-0.57-0.99-1.15-1.37-1.54c-0.39-0.39-0.97-1.01-1.54-1.38
				C58.09,64.57,57.67,64.58,57.01,65.38z"/>
			<g>
				<path fill="#FFFFFF" stroke="#1D2132" stroke-width="0.1" stroke-linecap="square" stroke-miterlimit="10" d="M56.75,72.28
					c0.35,0.24,0.72,0.45,1.09,0.63c0.89-1.13-0.74-1.3-1.83-2.4c-1.13-1.13-1.36-2.88-2.44-1.8C54.28,70.1,55.36,71.34,56.75,72.28
					z"/>
				<path fill="#FFFFFF" stroke="#1D2132" stroke-width="0.1" stroke-linecap="square" stroke-miterlimit="10" d="M53.26,68.78
					c0.04,0.09,0.09,0.17,0.14,0.25c0.74,1.36,1.81,2.57,3.18,3.49c0.32,0.22,0.66,0.41,1,0.59c0.07,0.04,0.14,0.07,0.2,0.1
					l0.13-0.26c-0.03-0.01-0.05-0.03-0.08-0.04c-0.37-0.19-0.73-0.4-1.09-0.63c-1.39-0.94-2.46-2.17-3.19-3.57
					c-0.01-0.02-0.02-0.04-0.04-0.07L53.26,68.78z"/>
			</g>
		</g>
		<g>
			<path fill="#FFFFFF" stroke="#1D2132" stroke-width="0.1" stroke-linecap="square" stroke-miterlimit="10" d="M68.81,53.24
				c0.96-0.81,2.14-2.04,2.75-2.31c0.54-0.24,1.11,0.91,2.11,1.91c1.01,1.01,2.16,1.57,1.92,2.11c-0.27,0.61-1.5,1.8-2.31,2.76
				c-0.81,0.96-1.3,1.01-1.94,0.62c-0.63-0.38-1.25-1.05-1.67-1.47c-0.42-0.42-1.09-1.04-1.47-1.67
				C67.81,54.55,67.85,54.05,68.81,53.24z"/>
			<path fill="#FFFFFF" stroke="#1D2132" stroke-width="0.1" stroke-linecap="square" stroke-miterlimit="10" d="M68.73,53.65
				c0.79-0.66,1.76-1.67,2.28-1.88c0.46-0.18,1.56,0.3,2.49,1.24c0.93,0.93,1.42,2.03,1.24,2.49c-0.2,0.52-1.22,1.49-1.87,2.29
				c-0.66,0.79-1.08,0.81-1.66,0.44c-0.57-0.37-1.15-0.99-1.54-1.37c-0.39-0.39-1.01-0.97-1.38-1.54
				C67.92,54.74,67.94,54.31,68.73,53.65z"/>
			<g>
				<path fill="#FFFFFF" stroke="#1D2132" stroke-width="0.1" stroke-linecap="square" stroke-miterlimit="10" d="M75.63,53.39
					c0.24,0.35,0.45,0.72,0.63,1.09c-1.13,0.89-1.3-0.74-2.4-1.83c-1.13-1.13-2.88-1.36-1.8-2.44C73.46,50.93,74.69,52,75.63,53.39z
					"/>
				<path fill="#FFFFFF" stroke="#1D2132" stroke-width="0.1" stroke-linecap="square" stroke-miterlimit="10" d="M72.13,49.91
					c0.09,0.04,0.17,0.09,0.25,0.14c1.36,0.74,2.57,1.81,3.49,3.18c0.22,0.32,0.41,0.66,0.59,1c0.04,0.07,0.07,0.14,0.1,0.2
					l-0.26,0.13c-0.01-0.03-0.03-0.05-0.04-0.08c-0.19-0.37-0.4-0.73-0.63-1.09c-0.94-1.39-2.17-2.46-3.57-3.19
					c-0.02-0.01-0.04-0.02-0.07-0.04L72.13,49.91z"/>
			</g>
		</g>
		
			<circle fill="#FFFFFF" stroke="#1D2132" stroke-width="0.1" stroke-linecap="square" stroke-miterlimit="10" cx="64.94" cy="61.59" r="6.36"/>
	</g>
	<g>
		
			<rect x="43.48" y="4.86" fill="#FFFFFF" stroke="#1D2132" stroke-width="0.1" stroke-linecap="square" stroke-miterlimit="10" width="7.43" height="15.42"/>
		<g>
			<path fill="#FFFFFF" stroke="#1D2132" stroke-width="0.1" stroke-linecap="square" stroke-miterlimit="10" d="M46.08,12.15h-0.34
				c-0.02-0.01-0.06-0.07-0.09-0.11c-0.1-0.15-0.26-0.38-0.59-0.43c-0.25-0.04-0.47,0.05-0.61,0.24c-0.14,0.2-0.16,0.47-0.05,0.7
				c0.18,0.36,0.56,0.4,0.73,0.38c0.06-0.01,0.1-0.06,0.09-0.12c-0.01-0.06-0.06-0.1-0.12-0.09c0,0-0.35,0.05-0.51-0.27
				c-0.08-0.16-0.07-0.34,0.03-0.48c0.09-0.12,0.24-0.18,0.41-0.15c0.25,0.04,0.36,0.21,0.46,0.35c0.07,0.11,0.14,0.21,0.26,0.2
				h0.35c0.06,0,0.11-0.05,0.11-0.11S46.14,12.15,46.08,12.15z M45.73,12.15L45.73,12.15L45.73,12.15z"/>
			<path fill="#FFFFFF" stroke="#1D2132" stroke-width="0.1" stroke-linecap="square" stroke-miterlimit="10" d="M48.3,8.06
				C48.05,8,47.79,8.11,47.66,8.35c0,0-0.01,0.01-0.01,0.02l-1.55,3.26c-0.01,0.03-0.02,0.06-0.02,0.08v1.1
				c0,0.03,0.01,0.06,0.02,0.08l1.55,3.26c0,0.01,0,0.01,0.01,0.02c0.13,0.24,0.38,0.35,0.64,0.29c0.26-0.06,0.19-0.36,0.19-0.63
				V8.69C48.5,8.42,48.56,8.13,48.3,8.06z M47.05,12.77v-1.01l0.99-3.45c0.05-0.09,0.14-0.08,0.16-0.07
				c0.03,0.01,0.11,0.04,0.11,0.15v7.76c0,0.11-0.09,0.14-0.11,0.15c-0.03,0.01-0.11,0.02-0.16-0.07L47.05,12.77z"/>
		</g>
	</g>
	<g>
		
			<rect x="18.32" y="-13.87" transform="matrix(2.384842e-06 -1 1 2.384842e-06 16.0637 28.5434)" fill="#FFFFFF" stroke="#1D2132" stroke-width="0.1" stroke-linecap="square" stroke-miterlimit="10" width="7.97" height="40.22"/>
		<g>
			<path fill="#FFFFFF" stroke="#1D2132" stroke-width="0.1" stroke-linecap="square" stroke-miterlimit="10" d="M22.38,6.91v0.37
				c-0.01,0.02-0.08,0.06-0.12,0.09c-0.16,0.11-0.41,0.28-0.47,0.64c-0.04,0.26,0.05,0.51,0.25,0.66c0.21,0.16,0.51,0.17,0.75,0.05
				c0.38-0.2,0.43-0.6,0.41-0.78c-0.01-0.06-0.07-0.1-0.13-0.1c-0.06,0.01-0.1,0.07-0.1,0.13c0,0,0.05,0.37-0.29,0.55
				c-0.17,0.09-0.37,0.07-0.51-0.03c-0.13-0.1-0.19-0.26-0.16-0.44c0.04-0.26,0.23-0.39,0.37-0.49c0.11-0.08,0.22-0.15,0.22-0.28
				l0-0.37c0-0.06-0.05-0.11-0.11-0.11C22.43,6.79,22.38,6.84,22.38,6.91z M22.38,7.28L22.38,7.28L22.38,7.28z"/>
			<path fill="#FFFFFF" stroke="#1D2132" stroke-width="0.1" stroke-linecap="square" stroke-miterlimit="10" d="M18,4.52
				c-0.07,0.28,0.05,0.56,0.31,0.69c0.01,0,0.01,0.01,0.02,0.01l3.5,1.66c0.03,0.01,0.06,0.02,0.09,0.02l1.18,0
				c0.03,0,0.06-0.01,0.09-0.02l3.5-1.66c0.01,0,0.01,0,0.02-0.01C26.95,5.08,27.07,4.8,27,4.52c-0.07-0.28-0.39-0.21-0.68-0.21
				l-7.65,0C18.39,4.31,18.07,4.24,18,4.52z M23.05,5.87l-1.09,0l-3.7-1.06c-0.1-0.06-0.08-0.15-0.07-0.18
				c0.01-0.03,0.04-0.12,0.16-0.12l8.32,0c0.12,0,0.15,0.09,0.16,0.12c0.01,0.03,0.02,0.12-0.07,0.18L23.05,5.87z"/>
		</g>
	</g>
	<g>
		<g>
			
				<rect x="45.45" y="42.98" fill="#FFFFFF" stroke="#1D2132" stroke-width="0.1" stroke-linecap="square" stroke-miterlimit="10" width="5.05" height="29.21"/>
			<g>
				<polygon fill="#FFFFFF" stroke="#1D2132" stroke-width="0.1" stroke-linecap="square" stroke-miterlimit="10" points="
					45.45,45.9 45.45,45.38 44.94,45.38 44.94,48.4 45.45,48.4 45.45,47.88 45.12,47.88 45.12,45.9 				"/>
				<polygon fill="#FFFFFF" stroke="#1D2132" stroke-width="0.1" stroke-linecap="square" stroke-miterlimit="10" points="
					45.45,67.29 45.45,66.77 44.94,66.77 44.94,69.79 45.45,69.79 45.45,69.27 45.12,69.27 45.12,67.29 				"/>
			</g>
			<g>
				<polygon fill="#FFFFFF" stroke="#1D2132" stroke-width="0.1" stroke-linecap="square" stroke-miterlimit="10" points="
					45.45,51.52 45.45,51 44.94,51 44.94,54.02 45.45,54.02 45.45,53.5 45.12,53.5 45.12,51.52 				"/>
				<polygon fill="#FFFFFF" stroke="#1D2132" stroke-width="0.1" stroke-linecap="square" stroke-miterlimit="10" points="
					45.45,61.67 45.45,61.15 44.94,61.15 44.94,64.17 45.45,64.17 45.45,63.65 45.12,63.65 45.12,61.67 				"/>
			</g>
		</g>
		<g>
			<path fill="#FFFFFF" stroke="#1D2132" stroke-width="0.1" stroke-linecap="square" stroke-miterlimit="10" d="M48.59,59.47h-0.22
				c-0.5,0-0.91-0.41-0.91-0.91v-1.94c0-0.5,0.41-0.91,0.91-0.91h0.22c0.5,0,0.91,0.41,0.91,0.91v1.94
				C49.5,59.06,49.09,59.47,48.59,59.47z"/>
			<path fill="#FFFFFF" stroke="#1D2132" stroke-width="0.1" stroke-linecap="square" stroke-miterlimit="10" d="M48.25,58.77
				L48.25,58.77c-0.23,0-0.42-0.19-0.42-0.42v-1.53c0-0.23,0.19-0.42,0.42-0.42l0,0c0.23,0,0.42,0.19,0.42,0.42v1.53
				C48.67,58.58,48.48,58.77,48.25,58.77z"/>
			
				<rect x="47.83" y="50.95" fill="#FFFFFF" stroke="#1D2132" stroke-width="0.1" stroke-linecap="square" stroke-miterlimit="10" width="0.17" height="13.28"/>
			<polygon fill="#FFFFFF" stroke="#1D2132" stroke-width="0.1" stroke-linecap="square" stroke-miterlimit="10" points="
				48.34,62.3 48,64.22 48,50.95 48.34,52.87 			"/>
		</g>
	</g>
</g>
<g id="Doors">
	<g>
		<polygon fill="none" stroke="#1D2132" stroke-width="0.1" stroke-miterlimit="10" points="70.69,0.5 70.69,1.68 70.1,1.68 
			70.1,0.5 		"/>
		<polygon fill="none" stroke="#1D2132" stroke-width="0.1" stroke-miterlimit="10" points="55.03,0.5 55.03,1.68 55.62,1.68 
			55.62,0.5 		"/>
		<polyline fill="none" stroke="#1D2132" stroke-width="0.1" stroke-miterlimit="10" points="55.62,1.6 55.63,1.86 55.65,2.13 
			55.66,2.39 55.68,2.65 55.71,2.92 55.74,3.18 55.76,3.44 55.81,3.7 55.85,3.96 55.91,4.22 55.95,4.48 56.01,4.74 56.07,5 
			56.14,5.26 56.21,5.5 56.28,5.76 56.37,6.01 56.45,6.26 56.53,6.51 56.63,6.75 56.72,7 56.83,7.25 56.93,7.48 57.04,7.73 
			57.16,7.97 57.27,8.2 57.39,8.44 57.52,8.66 57.65,8.9 57.78,9.12 57.92,9.35 58.06,9.57 58.21,9.8 58.36,10.01 58.51,10.23 
			58.67,10.44 58.83,10.64 59,10.86 59.16,11.06 59.34,11.26 59.51,11.46 59.69,11.65 59.87,11.85 		"/>
		<polygon fill="none" stroke="#1D2132" stroke-width="0.1" stroke-miterlimit="10" points="69.58,1.25 59.51,11.46 59.87,11.85 
			70,1.66 		"/>
	</g>
	<g>
		<polygon fill="none" stroke="#1D2132" stroke-width="0.1" stroke-miterlimit="10" points="73.1,11.7 72.01,11.7 72.01,12.13 
			73.1,12.13 		"/>
		<polygon fill="none" stroke="#1D2132" stroke-width="0.1" stroke-miterlimit="10" points="73.1,23.25 72.01,23.25 72.01,22.81 
			73.1,22.81 		"/>
		<polyline fill="none" stroke="#1D2132" stroke-width="0.1" stroke-miterlimit="10" points="72.04,22.81 71.85,22.8 71.65,22.8 
			71.46,22.79 71.26,22.77 71.06,22.75 70.87,22.73 70.68,22.71 70.49,22.67 70.3,22.65 70.11,22.6 69.92,22.57 69.73,22.53 
			69.53,22.48 69.34,22.43 69.16,22.38 68.97,22.33 68.79,22.27 68.6,22.2 68.42,22.14 68.24,22.07 68.05,22 67.87,21.93 
			67.7,21.85 67.52,21.77 67.34,21.68 67.17,21.6 66.99,21.51 66.83,21.41 66.65,21.32 66.49,21.22 66.32,21.12 66.16,21.01 
			65.99,20.91 65.84,20.8 65.67,20.68 65.51,20.57 65.37,20.45 65.21,20.33 65.06,20.2 64.91,20.07 64.77,19.94 64.63,19.81 
			64.48,19.68 		"/>
		<polygon fill="none" stroke="#1D2132" stroke-width="0.1" stroke-miterlimit="10" points="72.3,12.51 64.77,19.94 64.48,19.68 
			72,12.21 		"/>
	</g>
	<g>
		<polygon fill="none" stroke="#1D2132" stroke-width="0.1" stroke-miterlimit="10" points="51.63,22.07 50.56,22.07 50.56,22.56 
			51.63,22.56 		"/>
		<polygon fill="none" stroke="#1D2132" stroke-width="0.1" stroke-miterlimit="10" points="51.63,34.97 50.54,34.97 50.54,34.49 
			51.63,34.49 		"/>
		<polyline fill="none" stroke="#1D2132" stroke-width="0.1" stroke-miterlimit="10" points="50.44,34.49 50.23,34.48 50,34.47 
			49.79,34.46 49.58,34.44 49.35,34.42 49.14,34.39 48.92,34.37 48.71,34.33 48.5,34.3 48.28,34.25 48.07,34.22 47.86,34.17 
			47.64,34.12 47.43,34.06 47.22,34 47.01,33.94 46.81,33.88 46.6,33.81 46.4,33.74 46.19,33.66 45.99,33.58 45.79,33.5 
			45.59,33.41 45.39,33.32 45.19,33.22 45,33.13 44.81,33.03 44.62,32.92 44.43,32.82 44.24,32.71 44.06,32.59 43.87,32.48 
			43.69,32.36 43.51,32.23 43.33,32.11 43.15,31.98 42.99,31.84 42.81,31.71 42.65,31.57 42.48,31.43 42.32,31.28 42.16,31.14 
			42,30.99 		"/>
		<polygon fill="none" stroke="#1D2132" stroke-width="0.1" stroke-miterlimit="10" points="50.73,22.98 42.32,31.28 42,30.99 
			50.39,22.64 		"/>
	</g>
</g>
<g id="Windows">
	<polyline fill="none" stroke="#1D2132" stroke-width="0.1" stroke-miterlimit="10" points="38.45,78.55 15.35,78.55 15.35,79.51 
		38.45,79.51 38.45,78.55 	"/>
	<polyline fill="none" stroke="#1D2132" stroke-width="0.1" stroke-miterlimit="10" points="14,77.34 39.81,77.34 39.81,79.51 
		14,79.51 14,77.34 	"/>
	<polyline fill="none" stroke="#1D2132" stroke-width="0.1" stroke-miterlimit="10" points="13.76,78.55 15.35,78.55 15.35,79.51 
		13.76,79.51 13.76,78.55 13.76,79.51 13.37,79.51 13.37,78.55 13.76,78.55 	"/>
	<polyline fill="none" stroke="#1D2132" stroke-width="0.1" stroke-miterlimit="10" points="38.45,78.55 40.37,78.55 40.37,79.51 
		38.45,79.51 38.45,78.55 	"/>
	<polyline fill="none" stroke="#1D2132" stroke-width="0.1" stroke-miterlimit="10" points="39.14,79.51 14.68,79.51 14.68,81.68 
		39.14,81.68 39.14,79.51 	"/>
	<polyline fill="none" stroke="#1D2132" stroke-width="0.1" stroke-miterlimit="10" points="83.69,78.55 60.6,78.55 60.6,79.51 
		83.69,79.51 83.69,78.55 	"/>
	<polyline fill="none" stroke="#1D2132" stroke-width="0.1" stroke-miterlimit="10" points="59.23,77.34 85.06,77.34 85.06,79.51 
		59.23,79.51 59.23,77.34 	"/>
	<polyline fill="none" stroke="#1D2132" stroke-width="0.1" stroke-miterlimit="10" points="58.83,78.55 60.6,78.55 60.6,79.51 
		58.83,79.51 58.83,78.55 58.83,79.51 58.37,79.51 58.37,78.55 58.83,78.55 	"/>
	<polyline fill="none" stroke="#1D2132" stroke-width="0.1" stroke-miterlimit="10" points="83.69,78.55 85.37,78.55 85.37,79.51 
		83.69,79.51 83.69,78.55 	"/>
	<polyline fill="none" stroke="#1D2132" stroke-width="0.1" stroke-miterlimit="10" points="84.38,79.51 59.92,79.51 59.92,81.68 
		84.38,81.68 84.38,79.51 	"/>
</g>
<g id="Text">
	
		<text id="TXT--" transform="matrix(1 0 0 1 26.0794 36.0001)" opacity="0.7" fill="#1D2132" enable-background="new    " font-family="'Cannonade-Medium'" font-size="3px">17,81</text>
	
		<text id="TXT---" transform="matrix(1 0 0 1 65.0794 45.0001)" opacity="0.7" fill="#1D2132" enable-background="new    " font-family="'Cannonade-Medium'" font-size="3px">10,25</text>
	
		<text id="TXT--" transform="matrix(1 0 0 1 56.0332 24.5515)" opacity="0.7" fill="#1D2132" enable-background="new    " font-family="'Cannonade-Medium'" font-size="3px">4,41</text>
	
		<text id="TXT--" transform="matrix(1 0 0 1 81.0356 18.4801)" opacity="0.7" fill="#1D2132" enable-background="new    " font-family="'Cannonade-Medium'" font-size="3px">4,81</text>
</g>
<g id="Walls">
	<polyline fill="#1D2132" stroke="#1D2132" stroke-width="0.1" stroke-miterlimit="10" points="0,79.51 0,0.03 2.17,0.03 
		2.17,79.51 0,79.51 	"/>
	<polyline fill="#1D2132" stroke="#1D2132" stroke-width="0.1" stroke-miterlimit="10" points="97.83,79.51 97.83,0.03 100,0.03 
		100,79.51 97.83,79.51 	"/>
	<line fill="none" stroke="#1D2132" stroke-width="0.1" stroke-miterlimit="10" x1="0" y1="79.51" x2="0" y2="79.51"/>
	<polyline fill="#1D2132" stroke="#1D2132" stroke-width="0.1" stroke-miterlimit="10" points="2.17,79.51 2.17,77.34 14,77.34 
		14,79.51 2.17,79.51 	"/>
	<polyline fill="#1D2132" stroke="#1D2132" stroke-width="0.1" stroke-miterlimit="10" points="39.81,79.51 39.81,77.34 
		59.23,77.34 59.23,79.51 39.81,79.51 	"/>
	<polyline fill="#1D2132" stroke="#1D2132" stroke-width="0.1" stroke-miterlimit="10" points="85.06,79.51 85.06,77.34 
		97.83,77.34 97.83,79.51 85.06,79.51 	"/>
	<polyline fill="#1D2132" stroke="#1D2132" stroke-width="0.1" stroke-miterlimit="10" points="100,79.51 100,77.34 100,77.34 	"/>
	<line fill="none" stroke="#1D2132" stroke-width="0.1" stroke-miterlimit="10" x1="100" y1="79.51" x2="100" y2="79.51"/>
	
		<rect x="84.38" y="79.51" fill="#1D2132" stroke="#1D2132" stroke-width="0.1" stroke-miterlimit="10" width="15.62" height="2.04"/>
	<polyline fill="#1D2132" stroke="#1D2132" stroke-width="0.1" stroke-miterlimit="10" points="59.92,79.51 59.92,81.55 
		39.14,81.55 39.14,79.51 59.92,79.51 	"/>
	<polyline fill="#1D2132" stroke="#1D2132" stroke-width="0.1" stroke-miterlimit="10" points="14.68,79.51 0,79.51 0,81.55 
		14.68,81.55 14.68,79.51 	"/>
	<polyline fill="#1D2132" stroke="#1D2132" stroke-width="0.1" stroke-miterlimit="10" points="97.83,0.03 97.83,2.2 70.65,2.2 
		70.65,0.03 97.83,0.03 	"/>
	<polyline fill="#1D2132" stroke="#1D2132" stroke-width="0.1" stroke-miterlimit="10" points="55.03,2.2 2.17,2.2 2.17,0.03 
		55.03,0.03 55.03,2.2 	"/>
	<polyline fill="#1D2132" stroke="#1D2132" stroke-width="0.1" stroke-miterlimit="10" points="51.63,21.49 51.63,20.41 
		43.48,20.41 43.48,2.2 42.39,2.2 42.39,21.49 51.63,21.49 	"/>
	<polyline fill="#1D2132" stroke="#1D2132" stroke-width="0.1" stroke-miterlimit="10" points="51.63,35.07 50.54,35.07 
		50.54,77.34 51.63,77.34 51.63,35.07 50.54,35.07 	"/>
	<polyline fill="#1D2132" stroke="#1D2132" stroke-width="0.1" stroke-miterlimit="10" points="72.01,35.07 72.01,35.07 
		72.01,23.25 73.1,23.25 73.1,35.07 97.83,35.07 97.83,36.16 72.01,36.16 72.01,35.07 	"/>
	<polyline fill="#1D2132" stroke="#1D2132" stroke-width="0.1" stroke-miterlimit="10" points="73.1,2.2 72.01,2.2 72.01,11.7 
		73.1,11.7 73.1,2.2 	"/>
	<polyline fill="#1D2132" stroke="#1D2132" stroke-width="0.1" stroke-miterlimit="10" points="51.63,20.41 50.56,20.41 
		50.56,22.07 51.63,22.07 51.63,20.41 	"/>
</g>
<g id="Details">
	<g>
		
			<path fill="none" stroke="#1D2132" stroke-width="0.0978" stroke-linecap="round" stroke-linejoin="round" stroke-miterlimit="10" d="
			M45.7,3.53c0-0.5-0.4-0.91-0.91-0.91c-0.51,0-0.91,0.41-0.91,0.91c0,0.51,0.41,0.91,0.91,0.91C45.3,4.44,45.7,4.03,45.7,3.53"/>
		
			<path fill="none" stroke="#1D2132" stroke-width="0.0978" stroke-linecap="round" stroke-linejoin="round" stroke-miterlimit="10" d="
			M45.53,3.53c0-0.4-0.33-0.73-0.73-0.73s-0.73,0.33-0.73,0.73s0.33,0.73,0.73,0.73C45.21,4.26,45.53,3.93,45.53,3.53"/>
		
			<path fill="none" stroke="#1D2132" stroke-width="0.0978" stroke-linecap="round" stroke-linejoin="round" stroke-miterlimit="10" d="
			M45.48,3.53c0-0.38-0.31-0.68-0.68-0.68s-0.68,0.31-0.68,0.68s0.31,0.68,0.68,0.68S45.48,3.91,45.48,3.53"/>
		
			<line fill="none" stroke="#1D2132" stroke-width="0.0978" stroke-linecap="round" stroke-linejoin="round" stroke-miterlimit="10" x1="44.8" y1="2.89" x2="44.8" y2="2.58"/>
		<polygon fill="#1D2132" points="44.85,3.02 44.88,3 44.9,2.96 44.9,2.91 44.88,2.87 44.85,2.86 44.8,2.85 44.76,2.86 44.73,2.87 
			44.7,2.91 44.7,2.96 44.73,3 44.76,3.02 44.8,3.04 		"/>
		
			<polygon fill="none" stroke="#1D2132" stroke-width="0.0978" stroke-linecap="round" stroke-linejoin="round" stroke-miterlimit="10" points="
			44.85,3.02 44.88,3 44.9,2.96 44.9,2.91 44.88,2.87 44.85,2.86 44.8,2.85 44.76,2.86 44.73,2.87 44.7,2.91 44.7,2.96 44.73,3 
			44.76,3.02 44.8,3.04 		"/>
		
			<line fill="none" stroke="#1D2132" stroke-width="0.0978" stroke-linecap="round" stroke-linejoin="round" stroke-miterlimit="10" x1="44.8" y1="3.3" x2="44.8" y2="2.98"/>
		<polygon fill="#1D2132" points="44.85,3.42 44.88,3.4 44.9,3.36 44.9,3.31 44.88,3.28 44.85,3.26 44.8,3.25 44.76,3.26 
			44.73,3.28 44.7,3.31 44.7,3.36 44.73,3.4 44.76,3.42 44.8,3.44 		"/>
		
			<polygon fill="none" stroke="#1D2132" stroke-width="0.0978" stroke-linecap="round" stroke-linejoin="round" stroke-miterlimit="10" points="
			44.85,3.42 44.88,3.4 44.9,3.36 44.9,3.31 44.88,3.28 44.85,3.26 44.8,3.25 44.76,3.26 44.73,3.28 44.7,3.31 44.7,3.36 44.73,3.4 
			44.76,3.42 44.8,3.44 		"/>
		
			<line fill="none" stroke="#1D2132" stroke-width="0.0978" stroke-linecap="round" stroke-linejoin="round" stroke-miterlimit="10" x1="44.8" y1="3.7" x2="44.8" y2="3.38"/>
		<polygon fill="#1D2132" points="44.85,3.82 44.88,3.8 44.9,3.76 44.9,3.72 44.88,3.68 44.85,3.66 44.8,3.65 44.76,3.66 
			44.73,3.68 44.7,3.72 44.7,3.76 44.73,3.8 44.76,3.82 44.8,3.84 		"/>
		
			<polygon fill="none" stroke="#1D2132" stroke-width="0.0978" stroke-linecap="round" stroke-linejoin="round" stroke-miterlimit="10" points="
			44.85,3.82 44.88,3.8 44.9,3.76 44.9,3.72 44.88,3.68 44.85,3.66 44.8,3.65 44.76,3.66 44.73,3.68 44.7,3.72 44.7,3.76 44.73,3.8 
			44.76,3.82 44.8,3.84 		"/>
		
			<line fill="none" stroke="#1D2132" stroke-width="0.0978" stroke-linecap="round" stroke-linejoin="round" stroke-miterlimit="10" x1="44.8" y1="4.1" x2="44.8" y2="3.77"/>
		<polygon fill="#1D2132" points="44.85,4.21 44.88,4.2 44.9,4.16 44.9,4.11 44.88,4.07 44.85,4.05 44.8,4.04 44.76,4.05 
			44.73,4.07 44.7,4.11 44.7,4.16 44.73,4.2 44.76,4.21 44.8,4.23 		"/>
		
			<polygon fill="none" stroke="#1D2132" stroke-width="0.0978" stroke-linecap="round" stroke-linejoin="round" stroke-miterlimit="10" points="
			44.85,4.21 44.88,4.2 44.9,4.16 44.9,4.11 44.88,4.07 44.85,4.05 44.8,4.04 44.76,4.05 44.73,4.07 44.7,4.11 44.7,4.16 44.73,4.2 
			44.76,4.21 44.8,4.23 		"/>
		
			<line fill="none" stroke="#1D2132" stroke-width="0.0978" stroke-linecap="round" stroke-linejoin="round" stroke-miterlimit="10" x1="44.8" y1="4.5" x2="44.8" y2="4.18"/>
		<polygon fill="#1D2132" points="44.85,4.62 44.88,4.6 44.9,4.56 44.9,4.51 44.88,4.47 44.85,4.45 44.8,4.44 44.76,4.45 
			44.73,4.47 44.7,4.51 44.7,4.56 44.73,4.6 44.76,4.62 44.8,4.64 		"/>
		
			<polygon fill="none" stroke="#1D2132" stroke-width="0.0978" stroke-linecap="round" stroke-linejoin="round" stroke-miterlimit="10" points="
			44.85,4.62 44.88,4.6 44.9,4.56 44.9,4.51 44.88,4.47 44.85,4.45 44.8,4.44 44.76,4.45 44.73,4.47 44.7,4.51 44.7,4.56 44.73,4.6 
			44.76,4.62 44.8,4.64 		"/>
		
			<line fill="none" stroke="#1D2132" stroke-width="0.0978" stroke-linecap="round" stroke-linejoin="round" stroke-miterlimit="10" x1="44.8" y1="4.8" x2="44.8" y2="4.58"/>
		<polygon fill="#1D2132" points="44.25,3.61 44.28,3.59 44.3,3.55 44.3,3.5 44.28,3.46 44.25,3.44 44.2,3.42 44.16,3.44 
			44.14,3.46 44.11,3.5 44.11,3.55 44.14,3.59 44.16,3.61 44.2,3.62 		"/>
		
			<polygon fill="none" stroke="#1D2132" stroke-width="0.0978" stroke-linecap="round" stroke-linejoin="round" stroke-miterlimit="10" points="
			44.25,3.61 44.28,3.59 44.3,3.55 44.3,3.5 44.28,3.46 44.25,3.44 44.2,3.42 44.16,3.44 44.14,3.46 44.11,3.5 44.11,3.55 
			44.14,3.59 44.16,3.61 44.2,3.62 		"/>
		
			<line fill="none" stroke="#1D2132" stroke-width="0.0978" stroke-linecap="round" stroke-linejoin="round" stroke-miterlimit="10" x1="44.57" y1="3.52" x2="44.25" y2="3.52"/>
		<polygon fill="#1D2132" points="44.65,3.61 44.68,3.59 44.7,3.55 44.7,3.5 44.68,3.46 44.65,3.44 44.6,3.42 44.57,3.44 
			44.54,3.46 44.51,3.5 44.51,3.55 44.54,3.59 44.57,3.61 44.6,3.62 		"/>
		
			<polygon fill="none" stroke="#1D2132" stroke-width="0.0978" stroke-linecap="round" stroke-linejoin="round" stroke-miterlimit="10" points="
			44.65,3.61 44.68,3.59 44.7,3.55 44.7,3.5 44.68,3.46 44.65,3.44 44.6,3.42 44.57,3.44 44.54,3.46 44.51,3.5 44.51,3.55 
			44.54,3.59 44.57,3.61 44.6,3.62 		"/>
		
			<line fill="none" stroke="#1D2132" stroke-width="0.0978" stroke-linecap="round" stroke-linejoin="round" stroke-miterlimit="10" x1="44.97" y1="3.52" x2="44.65" y2="3.52"/>
		<polygon fill="#1D2132" points="45.05,3.61 45.08,3.59 45.1,3.55 45.1,3.5 45.08,3.46 45.05,3.44 45.01,3.42 44.97,3.44 
			44.94,3.46 44.91,3.5 44.91,3.55 44.94,3.59 44.97,3.61 45.01,3.62 		"/>
		
			<polygon fill="none" stroke="#1D2132" stroke-width="0.0978" stroke-linecap="round" stroke-linejoin="round" stroke-miterlimit="10" points="
			45.05,3.61 45.08,3.59 45.1,3.55 45.1,3.5 45.08,3.46 45.05,3.44 45.01,3.42 44.97,3.44 44.94,3.46 44.91,3.5 44.91,3.55 
			44.94,3.59 44.97,3.61 45.01,3.62 		"/>
		
			<line fill="none" stroke="#1D2132" stroke-width="0.0978" stroke-linecap="round" stroke-linejoin="round" stroke-miterlimit="10" x1="45.37" y1="3.52" x2="45.04" y2="3.52"/>
		<polygon fill="#1D2132" points="45.46,3.61 45.48,3.59 45.5,3.55 45.5,3.5 45.48,3.46 45.46,3.44 45.41,3.42 45.37,3.44 
			45.34,3.46 45.31,3.5 45.31,3.55 45.34,3.59 45.37,3.61 45.41,3.62 		"/>
		
			<polygon fill="none" stroke="#1D2132" stroke-width="0.0978" stroke-linecap="round" stroke-linejoin="round" stroke-miterlimit="10" points="
			45.46,3.61 45.48,3.59 45.5,3.55 45.5,3.5 45.48,3.46 45.46,3.44 45.41,3.42 45.37,3.44 45.34,3.46 45.31,3.5 45.31,3.55 
			45.34,3.59 45.37,3.61 45.41,3.62 		"/>
		
			<line fill="none" stroke="#1D2132" stroke-width="0.0978" stroke-linecap="round" stroke-linejoin="round" stroke-miterlimit="10" x1="45.77" y1="3.52" x2="45.45" y2="3.52"/>
		<polygon fill="#1D2132" points="45.85,3.61 45.88,3.59 45.9,3.55 45.9,3.5 45.88,3.46 45.85,3.44 45.8,3.42 45.76,3.44 
			45.73,3.46 45.7,3.5 45.7,3.55 45.73,3.59 45.76,3.61 45.8,3.62 		"/>
		
			<polygon fill="none" stroke="#1D2132" stroke-width="0.0978" stroke-linecap="round" stroke-linejoin="round" stroke-miterlimit="10" points="
			45.85,3.61 45.88,3.59 45.9,3.55 45.9,3.5 45.88,3.46 45.85,3.44 45.8,3.42 45.76,3.44 45.73,3.46 45.7,3.5 45.7,3.55 45.73,3.59 
			45.76,3.61 45.8,3.62 		"/>
		
			<line fill="none" stroke="#1D2132" stroke-width="0.0978" stroke-linecap="round" stroke-linejoin="round" stroke-miterlimit="10" x1="46.07" y1="3.52" x2="45.85" y2="3.52"/>
		
			<polyline fill="none" stroke="#1D2132" stroke-width="0.0978" stroke-linecap="round" stroke-linejoin="round" stroke-miterlimit="10" points="
			43.48,2.2 46.14,2.2 46.14,4.86 43.48,4.86 43.48,2.2 		"/>
		
			<path fill="none" stroke="#1D2132" stroke-width="0.0978" stroke-linecap="round" stroke-linejoin="round" stroke-miterlimit="10" d="
			M45.75,3.53c0-0.53-0.43-0.95-0.95-0.95c-0.53,0-0.95,0.42-0.95,0.95s0.42,0.95,0.95,0.95C45.33,4.48,45.75,4.06,45.75,3.53"/>
		
			<line fill="none" stroke="#1D2132" stroke-width="0.0978" stroke-linecap="round" stroke-linejoin="round" stroke-miterlimit="10" x1="44.8" y1="2.5" x2="44.8" y2="2.28"/>
		<polygon fill="#1D2132" points="44.85,2.62 44.88,2.6 44.9,2.56 44.9,2.51 44.88,2.47 44.85,2.45 44.8,2.44 44.76,2.45 
			44.73,2.47 44.7,2.51 44.7,2.56 44.73,2.6 44.76,2.62 44.8,2.64 		"/>
		
			<polygon fill="none" stroke="#1D2132" stroke-width="0.0978" stroke-linecap="round" stroke-linejoin="round" stroke-miterlimit="10" points="
			44.85,2.62 44.88,2.6 44.9,2.56 44.9,2.51 44.88,2.47 44.85,2.45 44.8,2.44 44.76,2.45 44.73,2.47 44.7,2.51 44.7,2.56 44.73,2.6 
			44.76,2.62 44.8,2.64 		"/>
		
			<line fill="none" stroke="#1D2132" stroke-width="0.0978" stroke-linecap="round" stroke-linejoin="round" stroke-miterlimit="10" x1="43.77" y1="3.52" x2="43.55" y2="3.52"/>
		<polygon fill="#1D2132" points="43.86,3.61 43.89,3.59 43.91,3.55 43.91,3.5 43.89,3.46 43.86,3.44 43.81,3.42 43.77,3.44 
			43.74,3.46 43.72,3.5 43.72,3.55 43.74,3.59 43.77,3.61 43.81,3.62 		"/>
		
			<polygon fill="none" stroke="#1D2132" stroke-width="0.0978" stroke-linecap="round" stroke-linejoin="round" stroke-miterlimit="10" points="
			43.86,3.61 43.89,3.59 43.91,3.55 43.91,3.5 43.89,3.46 43.86,3.44 43.81,3.42 43.77,3.44 43.74,3.46 43.72,3.5 43.72,3.55 
			43.74,3.59 43.77,3.61 43.81,3.62 		"/>
		
			<line fill="none" stroke="#1D2132" stroke-width="0.0978" stroke-linecap="round" stroke-linejoin="round" stroke-miterlimit="10" x1="44.17" y1="3.52" x2="43.85" y2="3.52"/>
	</g>
	<g>
		
			<path fill="none" stroke="#1D2132" stroke-width="0.1" stroke-linecap="round" stroke-linejoin="round" stroke-miterlimit="10" d="
			M93.9,3.56c0,0.51,0.42,0.93,0.93,0.93c0.52,0,0.93-0.42,0.93-0.93c0-0.52-0.42-0.93-0.93-0.93C94.31,2.63,93.9,3.05,93.9,3.56"/>
		
			<path fill="none" stroke="#1D2132" stroke-width="0.1" stroke-linecap="round" stroke-linejoin="round" stroke-miterlimit="10" d="
			M94.08,3.56c0,0.41,0.33,0.75,0.75,0.75s0.75-0.34,0.75-0.75c0-0.42-0.34-0.75-0.75-0.75S94.08,3.15,94.08,3.56"/>
		
			<path fill="none" stroke="#1D2132" stroke-width="0.1" stroke-linecap="round" stroke-linejoin="round" stroke-miterlimit="10" d="
			M94.12,3.56c0,0.39,0.32,0.7,0.7,0.7c0.38,0,0.7-0.32,0.7-0.7s-0.31-0.7-0.7-0.7C94.44,2.86,94.12,3.17,94.12,3.56"/>
		
			<line fill="none" stroke="#1D2132" stroke-width="0.1" stroke-linecap="round" stroke-linejoin="round" stroke-miterlimit="10" x1="94.83" y1="2.51" x2="94.83" y2="2.28"/>
		<polygon fill="#1D2132" points="94.88,2.63 94.91,2.61 94.93,2.57 94.93,2.52 94.91,2.48 94.88,2.46 94.83,2.45 94.79,2.46 
			94.76,2.48 94.73,2.52 94.73,2.57 94.76,2.61 94.79,2.63 94.83,2.65 		"/>
		
			<polygon fill="none" stroke="#1D2132" stroke-width="0.1" stroke-linecap="round" stroke-linejoin="round" stroke-miterlimit="10" points="
			94.88,2.63 94.91,2.61 94.93,2.57 94.93,2.52 94.91,2.48 94.88,2.46 94.83,2.45 94.79,2.46 94.76,2.48 94.73,2.52 94.73,2.57 
			94.76,2.61 94.79,2.63 94.83,2.65 		"/>
		
			<line fill="none" stroke="#1D2132" stroke-width="0.1" stroke-linecap="round" stroke-linejoin="round" stroke-miterlimit="10" x1="94.83" y1="2.91" x2="94.83" y2="2.59"/>
		<polygon fill="#1D2132" points="94.88,3.04 94.91,3.02 94.93,2.98 94.93,2.93 94.91,2.89 94.88,2.87 94.83,2.86 94.79,2.87 
			94.76,2.89 94.73,2.93 94.73,2.98 94.76,3.02 94.79,3.04 94.83,3.06 		"/>
		
			<polygon fill="none" stroke="#1D2132" stroke-width="0.1" stroke-linecap="round" stroke-linejoin="round" stroke-miterlimit="10" points="
			94.88,3.04 94.91,3.02 94.93,2.98 94.93,2.93 94.91,2.89 94.88,2.87 94.83,2.86 94.79,2.87 94.76,2.89 94.73,2.93 94.73,2.98 
			94.76,3.02 94.79,3.04 94.83,3.06 		"/>
		
			<line fill="none" stroke="#1D2132" stroke-width="0.1" stroke-linecap="round" stroke-linejoin="round" stroke-miterlimit="10" x1="94.83" y1="3.32" x2="94.83" y2="3"/>
		<polygon fill="#1D2132" points="94.88,3.45 94.91,3.43 94.93,3.39 94.93,3.34 94.91,3.3 94.88,3.28 94.83,3.27 94.79,3.28 
			94.76,3.3 94.73,3.34 94.73,3.39 94.76,3.43 94.79,3.45 94.83,3.47 		"/>
		
			<polygon fill="none" stroke="#1D2132" stroke-width="0.1" stroke-linecap="round" stroke-linejoin="round" stroke-miterlimit="10" points="
			94.88,3.45 94.91,3.43 94.93,3.39 94.93,3.34 94.91,3.3 94.88,3.28 94.83,3.27 94.79,3.28 94.76,3.3 94.73,3.34 94.73,3.39 
			94.76,3.43 94.79,3.45 94.83,3.47 		"/>
		
			<line fill="none" stroke="#1D2132" stroke-width="0.1" stroke-linecap="round" stroke-linejoin="round" stroke-miterlimit="10" x1="94.83" y1="3.73" x2="94.83" y2="3.41"/>
		<polygon fill="#1D2132" points="94.88,3.86 94.91,3.84 94.93,3.8 94.93,3.75 94.91,3.71 94.88,3.69 94.83,3.68 94.79,3.69 
			94.76,3.71 94.73,3.75 94.73,3.8 94.76,3.84 94.79,3.86 94.83,3.88 		"/>
		
			<polygon fill="none" stroke="#1D2132" stroke-width="0.1" stroke-linecap="round" stroke-linejoin="round" stroke-miterlimit="10" points="
			94.88,3.86 94.91,3.84 94.93,3.8 94.93,3.75 94.91,3.71 94.88,3.69 94.83,3.68 94.79,3.69 94.76,3.71 94.73,3.75 94.73,3.8 
			94.76,3.84 94.79,3.86 94.83,3.88 		"/>
		
			<line fill="none" stroke="#1D2132" stroke-width="0.1" stroke-linecap="round" stroke-linejoin="round" stroke-miterlimit="10" x1="94.83" y1="4.14" x2="94.83" y2="3.81"/>
		<polygon fill="#1D2132" points="94.88,4.26 94.91,4.24 94.93,4.2 94.93,4.15 94.91,4.11 94.88,4.09 94.83,4.08 94.79,4.09 
			94.76,4.11 94.73,4.15 94.73,4.2 94.76,4.24 94.79,4.26 94.83,4.28 		"/>
		
			<polygon fill="none" stroke="#1D2132" stroke-width="0.1" stroke-linecap="round" stroke-linejoin="round" stroke-miterlimit="10" points="
			94.88,4.26 94.91,4.24 94.93,4.2 94.93,4.15 94.91,4.11 94.88,4.09 94.83,4.08 94.79,4.09 94.76,4.11 94.73,4.15 94.73,4.2 
			94.76,4.24 94.79,4.26 94.83,4.28 		"/>
		
			<line fill="none" stroke="#1D2132" stroke-width="0.1" stroke-linecap="round" stroke-linejoin="round" stroke-miterlimit="10" x1="94.83" y1="4.55" x2="94.83" y2="4.22"/>
		<polygon fill="#1D2132" points="94.88,4.67 94.91,4.65 94.93,4.61 94.93,4.56 94.91,4.52 94.88,4.5 94.83,4.49 94.79,4.5 
			94.76,4.52 94.73,4.56 94.73,4.61 94.76,4.65 94.79,4.67 94.83,4.69 		"/>
		
			<polygon fill="none" stroke="#1D2132" stroke-width="0.1" stroke-linecap="round" stroke-linejoin="round" stroke-miterlimit="10" points="
			94.88,4.67 94.91,4.65 94.93,4.61 94.93,4.56 94.91,4.52 94.88,4.5 94.83,4.49 94.79,4.5 94.76,4.52 94.73,4.56 94.73,4.61 
			94.76,4.65 94.79,4.67 94.83,4.69 		"/>
		
			<line fill="none" stroke="#1D2132" stroke-width="0.1" stroke-linecap="round" stroke-linejoin="round" stroke-miterlimit="10" x1="94.83" y1="4.86" x2="94.83" y2="4.63"/>
		
			<line fill="none" stroke="#1D2132" stroke-width="0.1" stroke-linecap="round" stroke-linejoin="round" stroke-miterlimit="10" x1="95.9" y1="3.55" x2="96.13" y2="3.55"/>
		<polygon fill="#1D2132" points="95.9,3.64 95.93,3.62 95.95,3.58 95.95,3.53 95.93,3.49 95.9,3.47 95.85,3.45 95.81,3.47 
			95.78,3.49 95.75,3.53 95.75,3.58 95.78,3.62 95.81,3.64 95.85,3.65 		"/>
		
			<polygon fill="none" stroke="#1D2132" stroke-width="0.1" stroke-linecap="round" stroke-linejoin="round" stroke-miterlimit="10" points="
			95.9,3.64 95.93,3.62 95.95,3.58 95.95,3.53 95.93,3.49 95.9,3.47 95.85,3.45 95.81,3.47 95.78,3.49 95.75,3.53 95.75,3.58 
			95.78,3.62 95.81,3.64 95.85,3.65 		"/>
		
			<line fill="none" stroke="#1D2132" stroke-width="0.1" stroke-linecap="round" stroke-linejoin="round" stroke-miterlimit="10" x1="95.49" y1="3.55" x2="95.82" y2="3.55"/>
		<polygon fill="#1D2132" points="95.5,3.64 95.53,3.62 95.55,3.58 95.55,3.53 95.53,3.49 95.5,3.47 95.45,3.45 95.41,3.47 
			95.38,3.49 95.35,3.53 95.35,3.58 95.38,3.62 95.41,3.64 95.45,3.65 		"/>
		
			<polygon fill="none" stroke="#1D2132" stroke-width="0.1" stroke-linecap="round" stroke-linejoin="round" stroke-miterlimit="10" points="
			95.5,3.64 95.53,3.62 95.55,3.58 95.55,3.53 95.53,3.49 95.5,3.47 95.45,3.45 95.41,3.47 95.38,3.49 95.35,3.53 95.35,3.58 
			95.38,3.62 95.41,3.64 95.45,3.65 		"/>
		
			<line fill="none" stroke="#1D2132" stroke-width="0.1" stroke-linecap="round" stroke-linejoin="round" stroke-miterlimit="10" x1="95.08" y1="3.55" x2="95.41" y2="3.55"/>
		<polygon fill="#1D2132" points="95.09,3.64 95.12,3.62 95.14,3.58 95.14,3.53 95.12,3.49 95.09,3.47 95.04,3.45 95,3.47 
			94.97,3.49 94.94,3.53 94.94,3.58 94.97,3.62 95,3.64 95.04,3.65 		"/>
		
			<polygon fill="none" stroke="#1D2132" stroke-width="0.1" stroke-linecap="round" stroke-linejoin="round" stroke-miterlimit="10" points="
			95.09,3.64 95.12,3.62 95.14,3.58 95.14,3.53 95.12,3.49 95.09,3.47 95.04,3.45 95,3.47 94.97,3.49 94.94,3.53 94.94,3.58 
			94.97,3.62 95,3.64 95.04,3.65 		"/>
		
			<line fill="none" stroke="#1D2132" stroke-width="0.1" stroke-linecap="round" stroke-linejoin="round" stroke-miterlimit="10" x1="94.68" y1="3.55" x2="95" y2="3.55"/>
		<polygon fill="#1D2132" points="94.68,3.64 94.71,3.62 94.73,3.58 94.73,3.53 94.71,3.49 94.68,3.47 94.63,3.45 94.59,3.47 
			94.56,3.49 94.53,3.53 94.53,3.58 94.56,3.62 94.59,3.64 94.63,3.65 		"/>
		
			<polygon fill="none" stroke="#1D2132" stroke-width="0.1" stroke-linecap="round" stroke-linejoin="round" stroke-miterlimit="10" points="
			94.68,3.64 94.71,3.62 94.73,3.58 94.73,3.53 94.71,3.49 94.68,3.47 94.63,3.45 94.59,3.47 94.56,3.49 94.53,3.53 94.53,3.58 
			94.56,3.62 94.59,3.64 94.63,3.65 		"/>
		
			<line fill="none" stroke="#1D2132" stroke-width="0.1" stroke-linecap="round" stroke-linejoin="round" stroke-miterlimit="10" x1="94.27" y1="3.55" x2="94.59" y2="3.55"/>
		<polygon fill="#1D2132" points="94.27,3.64 94.3,3.62 94.32,3.58 94.32,3.53 94.3,3.49 94.27,3.47 94.22,3.45 94.18,3.47 
			94.15,3.49 94.12,3.53 94.12,3.58 94.15,3.62 94.18,3.64 94.22,3.65 		"/>
		
			<polygon fill="none" stroke="#1D2132" stroke-width="0.1" stroke-linecap="round" stroke-linejoin="round" stroke-miterlimit="10" points="
			94.27,3.64 94.3,3.62 94.32,3.58 94.32,3.53 94.3,3.49 94.27,3.47 94.22,3.45 94.18,3.47 94.15,3.49 94.12,3.53 94.12,3.58 
			94.15,3.62 94.18,3.64 94.22,3.65 		"/>
		
			<line fill="none" stroke="#1D2132" stroke-width="0.1" stroke-linecap="round" stroke-linejoin="round" stroke-miterlimit="10" x1="93.86" y1="3.55" x2="94.19" y2="3.55"/>
		<polygon fill="#1D2132" points="93.86,3.64 93.89,3.62 93.91,3.58 93.91,3.53 93.89,3.49 93.86,3.47 93.81,3.45 93.77,3.47 
			93.74,3.49 93.71,3.53 93.71,3.58 93.74,3.62 93.77,3.64 93.81,3.65 		"/>
		
			<polygon fill="none" stroke="#1D2132" stroke-width="0.1" stroke-linecap="round" stroke-linejoin="round" stroke-miterlimit="10" points="
			93.86,3.64 93.89,3.62 93.91,3.58 93.91,3.53 93.89,3.49 93.86,3.47 93.81,3.45 93.77,3.47 93.74,3.49 93.71,3.53 93.71,3.58 
			93.74,3.62 93.77,3.64 93.81,3.65 		"/>
		
			<line fill="none" stroke="#1D2132" stroke-width="0.1" stroke-linecap="round" stroke-linejoin="round" stroke-miterlimit="10" x1="93.55" y1="3.55" x2="93.78" y2="3.55"/>
		
			<polyline fill="none" stroke="#1D2132" stroke-width="0.1" stroke-linecap="round" stroke-linejoin="round" stroke-miterlimit="10" points="
			96.2,2.2 93.48,2.2 93.48,4.92 96.2,4.92 96.2,2.2 		"/>
		
			<path fill="none" stroke="#1D2132" stroke-width="0.1" stroke-linecap="round" stroke-linejoin="round" stroke-miterlimit="10" d="
			M93.86,3.56c0,0.54,0.43,0.97,0.97,0.97S95.8,4.1,95.8,3.56s-0.43-0.97-0.97-0.97S93.86,3.02,93.86,3.56"/>
	</g>
</g>
</svg>
