<?xml version="1.0" encoding="utf-8"?>
<!-- Generator: Adobe Illustrator 22.0.0, SVG Export Plug-In . SVG Version: 6.00 Build 0)  -->
<svg version="1.1" id="Layer_1" xmlns="http://www.w3.org/2000/svg" xmlns:xlink="http://www.w3.org/1999/xlink" x="0px" y="0px"
	 viewBox="0 0 100 82" enable-background="new 0 0 100 82" xml:space="preserve">
<g id="Background">
	<polyline opacity="0.1" fill="#1D2132" enable-background="new    " points="98.63,4.38 1.63,4.38 1.63,80 57.61,80 57.61,68.86 
		98.62,68.86 	"/>
</g>
<g id="Plumbing">
	<g>
		<polyline fill="#FFFFFF" points="5.5,60.02 2.31,60.02 2.31,67.18 5.5,67.18 5.73,67.18 5.96,67.14 6.17,67.09 6.38,67.02 
			6.59,66.91 6.76,66.8 6.93,66.65 7.08,66.5 7.26,66.27 7.41,66.02 7.54,65.76 7.65,65.5 7.74,65.24 7.84,64.95 7.9,64.68 
			7.96,64.41 8,64.12 8.02,63.84 8.04,63.59 8.02,63.35 8.01,63.06 7.96,62.78 7.9,62.5 7.84,62.23 7.75,61.98 7.65,61.69 
			7.54,61.43 7.41,61.17 7.26,60.92 7.08,60.69 6.93,60.54 6.76,60.39 6.59,60.28 6.38,60.18 6.17,60.09 5.96,60.04 5.73,60.02 
			5.62,60.02 5.5,60.02 		"/>
		
			<line fill="none" stroke="#1D2132" stroke-width="0.1" stroke-linecap="square" stroke-miterlimit="10" x1="2.31" y1="60.02" x2="2.31" y2="67.18"/>
		
			<line fill="none" stroke="#1D2132" stroke-width="0.1" stroke-linecap="square" stroke-miterlimit="10" x1="2.31" y1="67.18" x2="5.5" y2="67.18"/>
		
			<line fill="none" stroke="#1D2132" stroke-width="0.1" stroke-linecap="square" stroke-miterlimit="10" x1="2.31" y1="60.02" x2="5.5" y2="60.02"/>
		
			<line fill="none" stroke="#1D2132" stroke-width="0.1" stroke-linecap="square" stroke-miterlimit="10" x1="2.31" y1="64.72" x2="2.31" y2="62.47"/>
		
			<line fill="none" stroke="#1D2132" stroke-width="0.1" stroke-linecap="square" stroke-miterlimit="10" x1="4.87" y1="64.19" x2="4.87" y2="63.82"/>
		
			<line fill="none" stroke="#1D2132" stroke-width="0.1" stroke-linecap="square" stroke-miterlimit="10" x1="4.24" y1="63.59" x2="4.65" y2="63.59"/>
		
			<line fill="none" stroke="#1D2132" stroke-width="0.1" stroke-linecap="square" stroke-miterlimit="10" x1="4.87" y1="63.37" x2="4.87" y2="62.99"/>
		
			<line fill="none" stroke="#1D2132" stroke-width="0.1" stroke-linecap="square" stroke-miterlimit="10" x1="5.12" y1="63.59" x2="5.51" y2="63.59"/>
		<path fill="none" stroke="#1D2132" stroke-width="0.1" stroke-linecap="square" stroke-miterlimit="10" d="M4.11,61.69
			c0.38-0.56,0.94-0.99,1.6-1.24"/>
		<path fill="none" stroke="#1D2132" stroke-width="0.1" stroke-linecap="square" stroke-miterlimit="10" d="M3.64,63.59
			c-0.01-0.07-0.01-0.17-0.01-0.25c0-0.58,0.16-1.15,0.48-1.65"/>
		<path fill="none" stroke="#1D2132" stroke-width="0.1" stroke-linecap="square" stroke-miterlimit="10" d="M5.7,66.74
			c-0.66-0.24-1.2-0.68-1.6-1.24"/>
		<path fill="none" stroke="#1D2132" stroke-width="0.1" stroke-linecap="square" stroke-miterlimit="10" d="M4.11,65.5
			C3.8,65,3.63,64.43,3.63,63.85c0-0.07,0-0.17,0.01-0.25"/>
		<path fill="none" stroke="#1D2132" stroke-width="0.1" stroke-linecap="square" stroke-miterlimit="10" d="M7.41,61.17
			c0.36,0.68,0.56,1.42,0.62,2.17"/>
		<path fill="none" stroke="#1D2132" stroke-width="0.1" stroke-linecap="square" stroke-miterlimit="10" d="M7.08,66.5
			c-0.37,0.43-0.92,0.68-1.5,0.68c-0.02,0-0.06,0-0.07,0"/>
		<path fill="none" stroke="#1D2132" stroke-width="0.1" stroke-linecap="square" stroke-miterlimit="10" d="M8.02,63.35
			c0.01,0.07,0.01,0.17,0.01,0.25s0,0.17-0.01,0.25"/>
		<path fill="none" stroke="#1D2132" stroke-width="0.1" stroke-linecap="square" stroke-miterlimit="10" d="M4.23,65.58
			c-0.1-0.67-0.16-1.34-0.16-1.99c0-0.67,0.06-1.35,0.16-2"/>
		<path fill="none" stroke="#1D2132" stroke-width="0.1" stroke-linecap="square" stroke-miterlimit="10" d="M2.93,65.6
			c-0.1-0.67-0.15-1.35-0.15-2.02"/>
		<path fill="none" stroke="#1D2132" stroke-width="0.1" stroke-linecap="square" stroke-miterlimit="10" d="M5.99,67
			c-0.02,0-0.04,0-0.06,0c-1.04,0-2.04-0.36-2.82-1.01"/>
		<path fill="none" stroke="#1D2132" stroke-width="0.1" stroke-linecap="square" stroke-miterlimit="10" d="M3.12,65.98
			c-0.11-0.09-0.19-0.24-0.21-0.37"/>
		<path fill="none" stroke="#1D2132" stroke-width="0.1" stroke-linecap="square" stroke-miterlimit="10" d="M3.11,61.2
			c0.78-0.66,1.78-1.01,2.82-1.01c0.01,0,0.04,0,0.05,0"/>
		<path fill="none" stroke="#1D2132" stroke-width="0.1" stroke-linecap="square" stroke-miterlimit="10" d="M2.77,63.59
			c0-0.68,0.06-1.35,0.15-2.02"/>
		<path fill="none" stroke="#1D2132" stroke-width="0.1" stroke-linecap="square" stroke-miterlimit="10" d="M2.93,61.58
			c0.02-0.14,0.09-0.27,0.21-0.37"/>
		<path fill="none" stroke="#1D2132" stroke-width="0.1" stroke-linecap="square" stroke-miterlimit="10" d="M5.5,60.02
			c0.02,0,0.06,0,0.07,0c0.58,0,1.14,0.25,1.5,0.68"/>
		<path fill="none" stroke="#1D2132" stroke-width="0.1" stroke-linecap="square" stroke-miterlimit="10" d="M7.08,60.69
			C7.2,60.84,7.32,61,7.4,61.16"/>
		<path fill="none" stroke="#1D2132" stroke-width="0.1" stroke-linecap="square" stroke-miterlimit="10" d="M7.41,66.02
			c-0.09,0.17-0.2,0.33-0.32,0.47"/>
		<path fill="none" stroke="#1D2132" stroke-width="0.1" stroke-linecap="square" stroke-miterlimit="10" d="M8.02,63.84
			c-0.06,0.75-0.27,1.5-0.62,2.17"/>
		<path fill="none" stroke="#1D2132" stroke-width="0.1" stroke-linecap="square" stroke-miterlimit="10" d="M7.5,62.6
			c0.07,0.32,0.12,0.66,0.12,0.99s-0.05,0.67-0.12,0.99"/>
		<path fill="none" stroke="#1D2132" stroke-width="0.1" stroke-linecap="square" stroke-miterlimit="10" d="M5.7,60.44
			c0.02,0,0.05,0,0.07,0c0.33,0,0.64,0.14,0.87,0.37"/>
		<path fill="none" stroke="#1D2132" stroke-width="0.1" stroke-linecap="square" stroke-miterlimit="10" d="M6.64,60.82
			c0.43,0.52,0.73,1.13,0.87,1.78"/>
		<path fill="none" stroke="#1D2132" stroke-width="0.1" stroke-linecap="square" stroke-miterlimit="10" d="M6.64,66.36
			c-0.22,0.24-0.53,0.37-0.87,0.37c-0.02,0-0.05,0-0.07,0"/>
		<path fill="none" stroke="#1D2132" stroke-width="0.1" stroke-linecap="square" stroke-miterlimit="10" d="M7.5,64.58
			c-0.12,0.66-0.41,1.27-0.87,1.79"/>
		<path fill="none" stroke="#1D2132" stroke-width="0.1" stroke-linecap="square" stroke-miterlimit="10" d="M4.39,63.59
			c0,0.25,0.22,0.46,0.49,0.46c0.27,0,0.49-0.21,0.49-0.46s-0.22-0.46-0.49-0.46C4.61,63.12,4.39,63.35,4.39,63.59"/>
		<path fill="none" stroke="#1D2132" stroke-width="0.1" stroke-linecap="square" stroke-miterlimit="10" d="M4.61,63.59
			c0,0.14,0.11,0.25,0.26,0.25c0.15,0,0.26-0.11,0.26-0.25s-0.11-0.25-0.26-0.25C4.73,63.35,4.61,63.46,4.61,63.59"/>
	</g>
	<g>
		<polygon fill="#FFFFFF" points="16.26,79.51 13.68,79.51 13.68,77.71 13.68,77.69 13.7,77.66 13.7,77.64 13.71,77.62 13.71,77.59 
			13.72,77.57 13.73,77.55 13.74,77.53 13.76,77.52 13.77,77.49 13.79,77.48 13.82,77.47 13.82,77.46 13.84,77.44 13.87,77.43 
			13.89,77.42 13.89,72.65 13.9,72.52 13.9,72.41 13.92,72.29 13.94,72.18 13.98,72.07 13.99,71.96 14.05,71.85 14.09,71.74 
			14.15,71.64 14.2,71.55 14.26,71.45 14.33,71.36 14.4,71.27 14.48,71.19 14.56,71.11 14.65,71.03 14.73,70.95 14.82,70.89 
			14.89,70.83 15,70.78 15.1,70.72 15.2,70.67 15.3,70.62 15.39,70.58 15.5,70.55 15.6,70.52 15.71,70.49 15.82,70.46 15.93,70.45 
			16.04,70.44 16.15,70.44 16.26,70.44 16.37,70.44 16.48,70.44 16.59,70.45 16.7,70.46 16.81,70.49 16.91,70.52 17.02,70.55 
			17.13,70.58 17.22,70.62 17.33,70.67 17.43,70.72 17.52,70.78 17.61,70.83 17.7,70.89 17.8,70.95 17.88,71.03 17.96,71.11 
			18.04,71.19 18.12,71.27 18.2,71.36 18.26,71.45 18.32,71.55 18.37,71.64 18.43,71.74 18.47,71.85 18.52,71.96 18.54,72.07 
			18.58,72.18 18.6,72.29 18.63,72.41 18.63,72.52 18.63,72.65 18.63,77.42 18.65,77.43 18.68,77.44 18.7,77.46 18.71,77.47 
			18.73,77.48 18.75,77.49 18.76,77.52 18.79,77.53 18.8,77.55 18.8,77.57 18.8,77.59 18.8,77.62 18.82,77.64 18.82,77.66 
			18.84,77.69 18.84,77.71 18.84,79.51 		"/>
		
			<line fill="none" stroke="#1D2132" stroke-width="0.1" stroke-linecap="square" stroke-miterlimit="10" x1="13.89" y1="77.42" x2="13.89" y2="72.65"/>
		
			<line fill="none" stroke="#1D2132" stroke-width="0.1" stroke-linecap="square" stroke-miterlimit="10" x1="13.68" y1="79.51" x2="18.84" y2="79.51"/>
		
			<line fill="none" stroke="#1D2132" stroke-width="0.1" stroke-linecap="square" stroke-miterlimit="10" x1="13.68" y1="79.51" x2="13.68" y2="77.71"/>
		
			<line fill="none" stroke="#1D2132" stroke-width="0.1" stroke-linecap="square" stroke-miterlimit="10" x1="16.26" y1="76.58" x2="18.18" y2="76.58"/>
		
			<line fill="none" stroke="#1D2132" stroke-width="0.1" stroke-linecap="square" stroke-miterlimit="10" x1="13.89" y1="72.65" x2="14.35" y2="76.58"/>
		
			<line fill="none" stroke="#1D2132" stroke-width="0.1" stroke-linecap="square" stroke-miterlimit="10" x1="16.26" y1="76.58" x2="14.35" y2="76.58"/>
		
			<line fill="none" stroke="#1D2132" stroke-width="0.1" stroke-linecap="square" stroke-miterlimit="10" x1="18.63" y1="72.65" x2="18.18" y2="76.58"/>
		
			<line fill="none" stroke="#1D2132" stroke-width="0.1" stroke-linecap="square" stroke-miterlimit="10" x1="18.63" y1="77.42" x2="18.63" y2="72.65"/>
		
			<line fill="none" stroke="#1D2132" stroke-width="0.1" stroke-linecap="square" stroke-miterlimit="10" x1="18.84" y1="79.51" x2="18.84" y2="77.71"/>
		<path fill="none" stroke="#1D2132" stroke-width="0.1" stroke-linecap="square" stroke-miterlimit="10" d="M18.57,77.41
			c-0.77-0.09-1.54-0.12-2.31-0.12c-0.77,0-1.54,0.05-2.31,0.13"/>
		<path fill="none" stroke="#1D2132" stroke-width="0.1" stroke-linecap="square" stroke-miterlimit="10" d="M13.95,77.41
			c-0.15,0.02-0.27,0.16-0.27,0.31"/>
		<path fill="none" stroke="#1D2132" stroke-width="0.1" stroke-linecap="square" stroke-miterlimit="10" d="M18.63,72.65
			c0-1.22-1.06-2.21-2.37-2.21s-2.37,0.99-2.37,2.21"/>
		<path fill="none" stroke="#1D2132" stroke-width="0.1" stroke-linecap="square" stroke-miterlimit="10" d="M18.84,77.71
			c0-0.15-0.12-0.29-0.27-0.31"/>
		<path fill="none" stroke="#1D2132" stroke-width="0.1" stroke-linecap="square" stroke-miterlimit="10" d="M16.26,78.62
			c-0.13,0-0.24-0.12-0.24-0.26s0.11-0.26,0.24-0.26s0.24,0.12,0.24,0.26C16.49,78.51,16.39,78.62,16.26,78.62"/>
	</g>
	<g>
		<path fill="#FFFFFF" d="M14.4,59.03H2.34c-0.07,0-0.12-0.04-0.12-0.12V46.87c0-0.07,0.04-0.12,0.12-0.12h12.05
			c0.07,0,0.12,0.04,0.12,0.12v12.05C14.51,58.97,14.45,59.03,14.4,59.03z"/>
		
			<line fill="none" stroke="#1D2132" stroke-width="0.1" stroke-linecap="square" stroke-miterlimit="10" x1="4.16" y1="49.86" x2="4.95" y2="49.86"/>
		
			<line fill="none" stroke="#1D2132" stroke-width="0.1" stroke-linecap="square" stroke-miterlimit="10" x1="5.28" y1="49.52" x2="5.28" y2="48.73"/>
		
			<line fill="none" stroke="#1D2132" stroke-width="0.1" stroke-linecap="square" stroke-miterlimit="10" x1="5.63" y1="49.86" x2="6.4" y2="49.86"/>
		
			<line fill="none" stroke="#1D2132" stroke-width="0.1" stroke-linecap="square" stroke-miterlimit="10" x1="5.28" y1="50.98" x2="5.28" y2="50.19"/>
		
			<line fill="none" stroke="#1D2132" stroke-width="0.1" stroke-linecap="square" stroke-miterlimit="10" x1="2.95" y1="58.34" x2="6.24" y2="58.34"/>
		
			<line fill="none" stroke="#1D2132" stroke-width="0.1" stroke-linecap="square" stroke-miterlimit="10" x1="6.11" y1="47.4" x2="13.63" y2="47.4"/>
		<path fill="none" stroke="#1D2132" stroke-width="0.1" stroke-linecap="square" stroke-miterlimit="10" d="M2.95,58.34h10.62
			c0.1,0,0.19-0.09,0.19-0.19V47.53"/>
		
			<line fill="none" stroke="#1D2132" stroke-width="0.1" stroke-linecap="square" stroke-miterlimit="10" x1="2.82" y1="58.21" x2="2.82" y2="50.68"/>
		<g>
			<path fill="none" stroke="#1D2132" stroke-width="0.1" stroke-linecap="square" stroke-miterlimit="10" d="M2.85,50.48
				c-0.03,0.06-0.04,0.15-0.04,0.21"/>
		</g>
		<g>
			<path fill="none" stroke="#1D2132" stroke-width="0.1" stroke-linecap="square" stroke-miterlimit="10" d="M2.82,58.21
				c0,0.07,0.06,0.13,0.13,0.13"/>
		</g>
		<g>
			<path fill="none" stroke="#1D2132" stroke-width="0.1" stroke-linecap="square" stroke-miterlimit="10" d="M2.85,50.48
				c-0.03,0.06-0.04,0.15-0.04,0.21"/>
		</g>
		<g>
			<path fill="none" stroke="#1D2132" stroke-width="0.1" stroke-linecap="square" stroke-miterlimit="10" d="M13.76,47.53
				c0-0.07-0.06-0.13-0.13-0.13"/>
		</g>
		<g>
			<path fill="none" stroke="#1D2132" stroke-width="0.1" stroke-linecap="square" stroke-miterlimit="10" d="M5.97,47.41
				c-1.35,0.69-2.44,1.79-3.15,3.15"/>
		</g>
		<g>
			<path fill="none" stroke="#1D2132" stroke-width="0.1" stroke-linecap="square" stroke-miterlimit="10" d="M6.11,47.4
				c-0.07,0-0.15,0.01-0.22,0.03"/>
		</g>
		<g>
			<path fill="none" stroke="#1D2132" stroke-width="0.1" stroke-linecap="square" stroke-miterlimit="10" d="M5.9,47.43
				c-1.44,0.48-2.56,1.61-3.04,3.04"/>
		</g>
		<g>
			<path fill="none" stroke="#1D2132" stroke-width="0.1" stroke-linecap="square" stroke-miterlimit="10" d="M6.11,47.4
				c-0.07,0-0.15,0.01-0.22,0.03"/>
		</g>
		<g>
			<path fill="none" stroke="#1D2132" stroke-width="0.1" stroke-linecap="square" stroke-miterlimit="10" d="M4.65,49.86
				c0-0.33,0.28-0.61,0.61-0.61c0.34-0.01,0.61,0.27,0.61,0.61c0,0.33-0.28,0.61-0.61,0.61C4.95,50.48,4.65,50.19,4.65,49.86"/>
		</g>
		<g>
			<path fill="none" stroke="#1D2132" stroke-width="0.1" stroke-linecap="square" stroke-miterlimit="10" d="M4.42,49.86
				C4.42,49.38,4.8,49,5.28,49s0.87,0.39,0.87,0.87s-0.39,0.87-0.87,0.87C4.8,50.71,4.42,50.34,4.42,49.86"/>
		</g>
		<path fill="none" stroke="#1D2132" stroke-width="0.1" stroke-linecap="square" stroke-miterlimit="10" d="M14.13,59.03H2.5
			c-0.18,0-0.33-0.15-0.33-0.33V47.08c0-0.18,0.15-0.33,0.33-0.33h11.6c0.18,0,0.33,0.15,0.33,0.33V58.7
			C14.45,58.88,14.3,59.03,14.13,59.03z"/>
	</g>
	<g>
		<g>
			<path fill="#FFFFFF" stroke="#1D2132" stroke-width="0.1" stroke-linecap="square" stroke-miterlimit="10" d="M21.32,52.14
				c0,0.09-0.09,0.16-0.2,0.16s-0.2-0.07-0.2-0.16s0.09-0.16,0.2-0.16C21.23,51.99,21.32,52.06,21.32,52.14z"/>
			
				<ellipse fill="#FFFFFF" stroke="#1D2132" stroke-width="0.1" stroke-linecap="square" stroke-miterlimit="10" cx="21.96" cy="52.14" rx="0.2" ry="0.16"/>
			<path fill="#FFFFFF" stroke="#1D2132" stroke-width="0.1" stroke-linecap="square" stroke-miterlimit="10" d="M25.62,52.14
				c0,0.09-0.09,0.16-0.2,0.16s-0.2-0.07-0.2-0.16s0.09-0.16,0.2-0.16C25.54,51.99,25.62,52.06,25.62,52.14z"/>
			<path fill="#FFFFFF" stroke="#1D2132" stroke-width="0.1" stroke-linecap="square" stroke-miterlimit="10" d="M25.62,52.14
				c0.44,0,0.8-0.09,0.8-0.21V51.4c0-0.12-0.36-0.21-0.8-0.21h-4.7c-0.44,0-0.8,0.09-0.8,0.21v0.54c0,0.12,0.36,0.21,0.8,0.21
				L25.62,52.14z"/>
			
				<rect x="19.8" y="47.15" fill="#FFFFFF" stroke="#1D2132" stroke-width="0.1" stroke-linecap="square" stroke-miterlimit="10" width="7" height="4.71"/>
			<path fill="#FFFFFF" stroke="#1D2132" stroke-width="0.1" stroke-linecap="square" stroke-miterlimit="10" d="M25.62,51.61
				c0.44,0,0.8-0.77,0.8-1.72v-0.77c0-0.95-0.36-1.72-0.8-1.72h-4.7c-0.44,0-0.8,0.77-0.8,1.72v0.77c0,0.95,0.36,1.72,0.8,1.72
				H25.62z"/>
		</g>
		<g>
			<path fill="#FFFFFF" stroke="#1D2132" stroke-width="0.1" stroke-linecap="square" stroke-miterlimit="10" d="M25.48,47.98h-4.43
				c-0.09,0-0.16-0.07-0.16-0.16V47.8c0-0.09,0.07-0.16,0.16-0.16h4.43c0.09,0,0.16,0.07,0.16,0.16v0.02
				C25.64,47.91,25.57,47.98,25.48,47.98z"/>
			<g>
				
					<rect x="21.09" y="46.9" fill="#FFFFFF" stroke="#1D2132" stroke-width="0.1" stroke-linecap="square" stroke-miterlimit="10" width="0.28" height="0.75"/>
				
					<rect x="25.18" y="46.9" fill="#FFFFFF" stroke="#1D2132" stroke-width="0.1" stroke-linecap="square" stroke-miterlimit="10" width="0.28" height="0.75"/>
			</g>
			<g>
				
					<rect x="20.93" y="46.76" fill="#FFFFFF" stroke="#1D2132" stroke-width="0.1" stroke-linecap="square" stroke-miterlimit="10" width="0.59" height="0.14"/>
				
					<rect x="25.03" y="46.76" fill="#FFFFFF" stroke="#1D2132" stroke-width="0.1" stroke-linecap="square" stroke-miterlimit="10" width="0.59" height="0.14"/>
			</g>
		</g>
	</g>
</g>
<g id="Furniture">
	<g>
		
			<rect x="2.37" y="6.9" fill="#FFFFFF" stroke="#1D2132" stroke-width="0.1" stroke-linecap="square" stroke-miterlimit="22.9256" width="9.03" height="38.25"/>
		
			<rect x="2.38" y="23.01" fill="#FFFFFF" stroke="#1D2132" stroke-width="0.1" stroke-linecap="square" stroke-miterlimit="22.9256" width="9.03" height="7.03"/>
		
			<rect x="2.37" y="37.58" fill="#FFFFFF" stroke="#1D2132" stroke-width="0.1" stroke-linecap="square" stroke-miterlimit="22.9256" width="9.03" height="7.98"/>
		
			<rect x="2.37" y="6.9" fill="#FFFFFF" stroke="#1D2132" stroke-width="0.1" stroke-linecap="square" stroke-miterlimit="22.9256" width="9.03" height="7.76"/>
		<g>
			
				<line fill="none" stroke="#1D2132" stroke-width="0.1" stroke-linecap="square" stroke-miterlimit="22.9256" x1="8.01" y1="10.88" x2="5.76" y2="10.88"/>
			
				<line fill="none" stroke="#1D2132" stroke-width="0.1" stroke-linecap="square" stroke-miterlimit="22.9256" x1="7.69" y1="11.69" x2="6.09" y2="10.09"/>
			
				<line fill="none" stroke="#1D2132" stroke-width="0.1" stroke-linecap="square" stroke-miterlimit="22.9256" x1="6.88" y1="12.03" x2="6.88" y2="9.76"/>
			
				<line fill="none" stroke="#1D2132" stroke-width="0.1" stroke-linecap="square" stroke-miterlimit="22.9256" x1="6.09" y1="11.69" x2="7.69" y2="10.09"/>
		</g>
		<g>
			
				<rect x="2.75" y="23.85" fill="#FFFFFF" stroke="#1D2132" stroke-width="0.1" stroke-linecap="square" stroke-miterlimit="22.9256" width="8.29" height="5.27"/>
			<g>
				<path fill="#FFFFFF" stroke="#1D2132" stroke-width="0.1" stroke-linecap="square" stroke-miterlimit="22.9256" d="M8.78,27.92
					c0.8,0,1.45-0.65,1.44-1.44c0-0.8-0.64-1.44-1.44-1.44c-0.8,0-1.44,0.63-1.44,1.44C7.34,27.27,7.97,27.92,8.78,27.92"/>
				<path fill="#FFFFFF" stroke="#1D2132" stroke-width="0.1" stroke-linecap="square" stroke-miterlimit="22.9256" d="M4.7,27.92
					c0.79,0,1.44-0.65,1.44-1.44c0-0.8-0.63-1.44-1.44-1.44c-0.8,0-1.44,0.63-1.44,1.44C3.27,27.27,3.92,27.92,4.7,27.92"/>
				<path fill="#FFFFFF" stroke="#1D2132" stroke-width="0.1" stroke-linecap="square" stroke-miterlimit="22.9256" d="M8.78,27.64
					c0.64,0,1.16-0.52,1.15-1.15c0-0.62-0.51-1.15-1.15-1.15c-0.62,0-1.15,0.51-1.15,1.15C7.63,27.11,8.14,27.64,8.78,27.64"/>
				<path fill="#FFFFFF" stroke="#1D2132" stroke-width="0.1" stroke-linecap="square" stroke-miterlimit="22.9256" d="M4.7,27.64
					c0.64,0,1.15-0.52,1.15-1.15c0-0.62-0.51-1.15-1.15-1.15c-0.62,0-1.15,0.51-1.15,1.15C3.56,27.11,4.07,27.64,4.7,27.64"/>
			</g>
		</g>
		<g>
			<path fill="#FFFFFF" stroke="#1D2132" stroke-width="0.1" stroke-linecap="square" stroke-miterlimit="22.9256" d="M4.58,39.3
				h5.75c0.3,0,0.53,0.23,0.53,0.53v3.48c0,0.3-0.23,0.53-0.53,0.53H4.58c-0.3,0-0.53-0.23-0.53-0.53v-3.48
				C4.06,39.53,4.28,39.31,4.58,39.3z"/>
			<g>
				<path fill="#FFFFFF" stroke="#1D2132" stroke-width="0.1" stroke-linecap="square" stroke-miterlimit="22.9256" d="M4.93,41.56
					c0-0.2,0.19-0.37,0.41-0.37c0.23,0,0.41,0.17,0.41,0.37c0,0.2-0.19,0.37-0.41,0.37C5.11,41.94,4.93,41.76,4.93,41.56z"/>
				<g>
					<path fill="#FFFFFF" stroke="#1D2132" stroke-width="0.1" stroke-linecap="square" stroke-miterlimit="22.9256" d="M2.93,41.57
						c0-0.35,0.25-0.62,0.56-0.62s0.56,0.26,0.56,0.62c0,0.34-0.25,0.6-0.56,0.62C3.17,42.19,2.92,41.92,2.93,41.57z"/>
					<path fill="#FFFFFF" stroke="#1D2132" stroke-width="0.1" stroke-linecap="square" stroke-miterlimit="22.9256" d="M6.68,41.55
						c0,0.11-0.12,0.18-0.3,0.19l-2.94,0.02c-0.17,0-0.3-0.08-0.3-0.19l0,0c0-0.1,0.13-0.19,0.3-0.19l2.94-0.02
						C6.56,41.36,6.68,41.44,6.68,41.55L6.68,41.55z"/>
					<path fill="#FFFFFF" stroke="#1D2132" stroke-width="0.1" stroke-linecap="square" stroke-miterlimit="22.9256" d="M3.35,41.56
						c0-0.48,0.06-0.86,0.17-0.86c0.08,0,0.17,0.39,0.17,0.86c0,0.48-0.07,0.86-0.17,0.86C3.4,42.44,3.33,42.05,3.35,41.56z"/>
				</g>
			</g>
		</g>
	</g>
	<g>
		<path fill="#FFFFFF" stroke="#1D2132" stroke-width="0.1" stroke-linecap="square" stroke-miterlimit="10" d="M94.04,56
			c0.76-0.5,1.81-2.2,1.03-3.35c-0.39-0.56-0.25-1.06-1.03-2.73c-0.34-0.73-0.82-2.05-2.35-2.72s-3.63-0.38-5.64,2.68
			c-2.01,3.06-0.69,6.05,1.25,6.64c1.95,0.59,2.96-0.06,3.94-0.07C92.21,56.46,92.66,56.91,94.04,56z"/>
		<path fill="none" stroke="#1D2132" stroke-width="0.1" stroke-linecap="square" stroke-miterlimit="10" d="M91.68,47.2
			c0,0,1.14,0.82,1.42,1.52c0.55,1.41,0.7,1.07,1.22,2.88c0.16,0.55-0.2,0.75-0.13,0.84c0.07,0.1,0.41,0.79,0,1.55
			c-0.41,0.76-0.73,1.32-1.55,1.74c-0.5,0.26-1.02,0.23-1.16,0.11c-0.25-0.2-0.25,0.12-1.2,0.39c-1.34,0.39-1.73,0.26-2.56,0.06
			c-0.83-0.2-1.06-0.14-1.59-0.64c-0.53-0.5-0.79-1.07-0.79-1.07"/>
		<path fill="none" stroke="#1D2132" stroke-width="0.1" stroke-linecap="square" stroke-miterlimit="10" d="M91.82,49.46
			c0,0-0.63,0.49-0.5,0.92c0.13,0.43,0.15,0.73,0.18,0.87c0.02,0.14,0.02,0.14,0.02,0.14s0.64,0.45,1.13,0.65s0.62,0.19,0.62,0.19"
			/>
		<path fill="none" stroke="#1D2132" stroke-width="0.1" stroke-linecap="square" stroke-miterlimit="10" d="M91.52,51.39
			c0,0-0.36,0.42-0.84,1.03c-0.48,0.61-0.83,1.47-0.83,1.47s0.42,0.42,0.78,0.83c0.37,0.4,0.48,0.68,0.48,0.68"/>
		<path fill="none" stroke="#1D2132" stroke-width="0.1" stroke-linecap="square" stroke-miterlimit="10" d="M87.86,55.24
			c0,0-0.09-0.66,0.05-1.04c0.15-0.38,0.35-0.44,0.94-0.44s0.99,0.13,0.99,0.13"/>
		<path fill="none" stroke="#1D2132" stroke-width="0.1" stroke-linecap="square" stroke-miterlimit="10" d="M89.92,49.39
			c0,0-0.99,0.44-1.35,0.88c-0.36,0.44-0.36,0.44-0.36,0.44s-0.12,0-0.35-0.14s-0.34-0.3-0.34-0.3"/>
		<path fill="none" stroke="#1D2132" stroke-width="0.1" stroke-linecap="square" stroke-miterlimit="10" d="M88.21,50.71
			c0,0-0.17,0.56-0.45,0.93c-0.28,0.37-0.44,0.88-0.41,1.09c0.02,0.21,0.02,0.21,0.02,0.21s-0.19,0.19-0.43,0.17"/>
		<path fill="none" stroke="#1D2132" stroke-width="0.1" stroke-linecap="square" stroke-miterlimit="10" d="M89.92,49.39
			c0,0-0.01-0.37-0.15-0.51c-0.14-0.14-0.29-0.24-0.29-0.24"/>
		<path fill="#FFFFFF" stroke="#1D2132" stroke-width="0.1" stroke-linecap="square" stroke-miterlimit="10" d="M94.1,53.6
			c0,0-0.06,0.11,0.01,0.12c0.12,0.02,0.31,0.18,0.28,0.29c-0.05,0.19-0.25,0.34-0.39,0.62c-0.14,0.28-0.13,0.57-0.34,0.64
			c-0.13,0.04-0.3-0.24-0.36-0.25c-0.04-0.01-0.1,0.11-0.1,0.11l0.42,0.3c0,0,0.3,0.06,0.47-0.23c0.17-0.29,0.31-0.44,0.45-0.72
			c0.14-0.28,0.29-0.47,0.06-0.68C94.36,53.58,94.1,53.6,94.1,53.6z"/>
	</g>
	<g>
		<path fill="#FFFFFF" stroke="#1D2132" stroke-width="0.1" stroke-linecap="square" stroke-miterlimit="10" d="M30.8,47.03
			c0.75-0.12,1.56-0.11,2.42,0c0.69,0,1.25,0.56,1.25,1.25c0.26,1.49,0.41,3.07,0,5.1c0,0.69-0.56,1.25-1.25,1.25
			c-0.81,0.19-1.61,0.19-2.42,0c-0.69,0-1.25-0.56-1.25-1.25c-0.25-1.65-0.19-3.37,0-5.1C29.55,47.59,30.11,47.03,30.8,47.03z"/>
		<g>
			<path fill="#FFFFFF" stroke="#1D2132" stroke-width="0.1" stroke-linecap="square" stroke-miterlimit="10" d="M34.22,53.65
				c0,0.39-0.34,0.7-0.76,0.7"/>
			<path fill="#FFFFFF" stroke="#1D2132" stroke-width="0.1" stroke-linecap="square" stroke-miterlimit="10" d="M33.46,47.33
				c0.42,0,0.76,0.31,0.76,0.7"/>
			<path fill="#FFFFFF" stroke="#1D2132" stroke-width="0.1" stroke-linecap="square" stroke-miterlimit="10" d="M29.81,48.03
				c0-0.39,0.34-0.7,0.76-0.7"/>
			<path fill="#FFFFFF" stroke="#1D2132" stroke-width="0.1" stroke-linecap="square" stroke-miterlimit="10" d="M30.57,54.35
				c-0.42,0-0.76-0.31-0.76-0.7"/>
		</g>
	</g>
	<g>
		
			<rect x="27.96" y="46.92" transform="matrix(-1 3.267442e-07 -3.267442e-07 -1 56.5838 101.8002)" fill="#FFFFFF" stroke="#1D2132" stroke-width="0.1" stroke-linecap="square" stroke-miterlimit="10" width="0.66" height="7.97"/>
		
			<rect x="28.23" y="47.36" transform="matrix(-1 3.267639e-07 -3.267639e-07 -1 56.8524 101.8002)" fill="#FFFFFF" stroke="#1D2132" stroke-width="0.1" stroke-linecap="square" stroke-miterlimit="10" width="0.4" height="7.08"/>
	</g>
	<g>
		
			<rect x="28.1" y="71.11" transform="matrix(-1 3.267552e-07 -3.267552e-07 -1 56.8691 147.5373)" fill="#FFFFFF" stroke="#1D2132" stroke-width="0.1" stroke-linecap="square" stroke-miterlimit="10" width="0.66" height="5.31"/>
		<g>
			
				<rect x="28.77" y="71.49" fill="#FFFFFF" stroke="#1D2132" stroke-width="0.1" stroke-linecap="square" stroke-miterlimit="10" width="1.01" height="0.29"/>
			
				<rect x="28.77" y="71.49" fill="#FFFFFF" stroke="#1D2132" stroke-width="0.1" stroke-linecap="square" stroke-miterlimit="10" width="0.19" height="0.29"/>
		</g>
		<g>
			
				<rect x="28.77" y="72.91" fill="#FFFFFF" stroke="#1D2132" stroke-width="0.1" stroke-linecap="square" stroke-miterlimit="10" width="1.01" height="0.29"/>
			
				<rect x="28.77" y="72.91" fill="#FFFFFF" stroke="#1D2132" stroke-width="0.1" stroke-linecap="square" stroke-miterlimit="10" width="0.19" height="0.29"/>
		</g>
		<g>
			
				<rect x="28.77" y="74.33" fill="#FFFFFF" stroke="#1D2132" stroke-width="0.1" stroke-linecap="square" stroke-miterlimit="10" width="1.01" height="0.29"/>
			
				<rect x="28.77" y="74.33" fill="#FFFFFF" stroke="#1D2132" stroke-width="0.1" stroke-linecap="square" stroke-miterlimit="10" width="0.19" height="0.29"/>
		</g>
		<g>
			
				<rect x="28.77" y="75.75" fill="#FFFFFF" stroke="#1D2132" stroke-width="0.1" stroke-linecap="square" stroke-miterlimit="10" width="1.01" height="0.29"/>
			
				<rect x="28.77" y="75.75" fill="#FFFFFF" stroke="#1D2132" stroke-width="0.1" stroke-linecap="square" stroke-miterlimit="10" width="0.19" height="0.29"/>
		</g>
	</g>
	<g>
		<g>
			<g>
				
					<rect x="91.29" y="36.55" fill="#FFFFFF" stroke="#1D2132" stroke-width="0.1" stroke-linecap="square" stroke-miterlimit="10" width="4.91" height="4.91"/>
				<polygon fill="#FFFFFF" stroke="#1D2132" stroke-width="0.1" stroke-linecap="square" stroke-miterlimit="10" points="
					91.29,39.96 91.29,40.47 90.8,40.47 90.8,37.53 91.29,37.53 91.29,38.04 90.97,38.04 90.97,39.96 				"/>
			</g>
			<g>
				
					<rect x="91.29" y="6.7" fill="#FFFFFF" stroke="#1D2132" stroke-width="0.1" stroke-linecap="square" stroke-miterlimit="10" width="4.91" height="4.91"/>
				<polygon fill="#FFFFFF" stroke="#1D2132" stroke-width="0.1" stroke-linecap="square" stroke-miterlimit="10" points="
					91.29,10.11 91.29,10.63 90.8,10.63 90.8,7.68 91.29,7.68 91.29,8.19 90.97,8.19 90.97,10.11 				"/>
			</g>
		</g>
		<g>
			<g>
				
					<rect x="70.78" y="12.44" fill="#FFFFFF" stroke="#1D2132" stroke-width="0.1" stroke-linecap="square" stroke-miterlimit="22.9256" width="25.85" height="23.26"/>
				<path fill="#FFFFFF" stroke="#1D2132" stroke-width="0.1" stroke-linecap="square" stroke-miterlimit="22.9256" d="M94.84,12.71
					c0,0-0.64-0.05-1.25,0c-1.03,0.08-1.67,0.13-2.73,0.13c-1.05,0-1.15-0.15-1.32-0.02c-0.16,0.13-0.4,0.14-0.66,0
					c-0.26-0.14-1.74-0.03-2.76-0.03c-1.02,0-2.63-0.11-3.52-0.08c-0.89,0.04-0.55,0.17-0.62,0.31c-0.07,0.14-0.79-0.12-0.92-0.24
					c-0.13-0.13-0.7-0.07-2.64-0.09c-1.94-0.02-3.55,0.13-4.59,0.09c-0.64-0.02-1.01,0-1.18,0.03c-0.39,0.07-0.22-0.01-0.66-0.01
					c-0.5,0.01,0.63,0.29,0.01,0.17c-0.43-0.09-0.84-0.26-0.74-0.13c0.1,0.13,0.51,0.35,0.58,0.43c0.07,0.07,0.4,0.29,0.14,0.22
					c-0.26-0.07-0.84-0.85-0.88-0.65c-0.04,0.23-0.06,0.95-0.06,2.69c0,1.72,0,13.58,0.17,13.67c0.16,0.09,0.1,0.09,0,0.2
					c-0.1,0.11,0.03,2.2-0.1,2.62c-0.13,0.42-0.1,1.05,0.07,1.14c0.16,0.09,0.2,0.07,0.07,0.16c-0.13,0.09-0.16,0.83-0.16,1.21
					c0,0.56-0.21,0.76,0.22,0.51c0.43-0.25,0.76-0.23,0.49-0.06c-0.26,0.16-0.62,0.21-0.69,0.32c-0.07,0.11-0.31,0.08,0.38,0.1
					c0.69,0.02,4.69,0.12,6.01,0.08c1.32-0.04,2.34,0.01,2.53-0.03c0.51-0.12,1.22,0.07,2.36,0.03c1.43-0.05,3.64-0.04,5.25-0.06
					c1.61-0.02,2.07-0.02,3.25,0c1.18,0.02,1.63-0.24,2.01-0.12c0.74,0.25,1.06,0.03,1.61-0.01c0.56-0.04,1.39,0.1,1.68,0.07
					c0.22-0.02-0.63-0.4-0.5-0.56c0.13-0.16,0.53,0.68,0.61,0.37c0.08-0.31-0.08-4.28,0-4.58c0.08-0.31,0-0.22,0-0.22s0-0.92,0-1.58
					c0-0.67,0-14.94,0-15.3s-0.07-0.72-0.22-0.36s0.03-0.37-0.26-0.39S95.12,12.83,94.84,12.71z"/>
				<path fill="#FFFFFF" stroke="#1D2132" stroke-width="0.1" stroke-linecap="square" stroke-miterlimit="22.9256" d="M89.46,12.39
					c-0.76-0.1-4.43-0.04-4.43,0.05c0,0.09,1.26-0.24,1.98,0.4c0.73,0.64,1.26,1.34,1.03,1.15c-0.23-0.19-0.26-0.21-0.43-0.42
					c-0.17-0.21-0.23-0.42-0.3-0.3c-0.07,0.11,0.12,0.81,0.3,1.41c0.24,0.77,0,2.73-0.06,3.6c-0.15,2.22-0.55,14.69-1.54,16.07
					c-0.99,1.38-1.16,1.26-1.49,1.34c-0.33,0.08-1.35-0.07-0.83,0.05c0.51,0.12,1.56,0.02,2.57,0.11c1.03,0.09,1.36,0.21,1.42,0.06
					c0.07-0.15,0.99-1.85,0.83-1.6c-0.04,0.06-0.7,1.51-0.67,1.62c0.03,0.11,0.35,0.03,0.73,0c0.5-0.04,0.5-0.04,0.5-0.09
					c0-0.25,0.08-1.01,0.05-1.93c-0.03-0.93,0.2-0.11,0.07,0.4c-0.13,0.51,0.13,0.06,0.4-0.89c0.27-0.95-0.29-14.82-0.06-15.5
					c0.23-0.68,0.53-2.99,0.13-3.84C89.27,13.22,90.03,12.46,89.46,12.39z"/>
				<g>
					<path fill="#FFFFFF" stroke="#1D2132" stroke-width="0.1" stroke-linecap="square" stroke-miterlimit="22.9256" d="
						M96.48,25.25c0-0.36-0.06-0.27-0.17-0.18c-0.11,0.09-0.28,0.13-1.01,0c-0.74-0.13-1.29-0.18-1.98,0.04
						c-0.7,0.22-0.79,0.1-0.97,0.01c-0.18-0.09-0.33-0.05-0.18,0.22c0.15,0.27-0.07,1.05-0.09,1.68c-0.11,2.45-0.01,3.53,0.08,5.24
						c0.02,0.37,0.14,0.68,0.1,0.86c-0.04,0.18,0.04,0.4,0.15,0.27c0.11-0.13,1.32,0.18,2.2,0.09c0.88-0.09,1.38-0.04,1.49,0.01
						c0.11,0.04,0.44-0.09,0.29-0.27c-0.15-0.18,0.08-0.9,0.11-1.25c0.04-0.36,0.15-1.12,0.11-3.04c-0.04-1.91-0.02-2.76-0.13-3.07
						C96.37,25.56,96.48,25.34,96.48,25.25z"/>
					<path fill="none" stroke="#1D2132" stroke-width="0.1" stroke-linecap="square" stroke-miterlimit="22.9256" d="M92.65,25.59
						c0,0-0.5,1.46-0.5,3.65c0,2.19,0.68,3.77,0.68,3.77"/>
				</g>
				<g>
					<path fill="#FFFFFF" stroke="#1D2132" stroke-width="0.1" stroke-linecap="square" stroke-miterlimit="22.9256" d="
						M94.13,26.34c0-0.26-0.05-0.2-0.14-0.13c-0.09,0.06-0.22,0.1-0.82,0c-0.59-0.1-1.04-0.13-1.61,0.03
						c-0.56,0.16-0.64,0.07-0.79,0.01c-0.15-0.07-0.27-0.03-0.15,0.16c0.12,0.19-0.05,0.76-0.08,1.22c-0.09,1.78,0,2.56,0.07,3.81
						c0.02,0.27,0.11,0.49,0.08,0.62c-0.03,0.13,0.03,0.29,0.12,0.19c0.09-0.1,1.07,0.13,1.78,0.06c0.71-0.06,1.12-0.03,1.21,0.01
						c0.09,0.03,0.36-0.06,0.24-0.19c-0.12-0.13,0.06-0.65,0.09-0.91c0.03-0.26,0.12-0.82,0.09-2.21c-0.03-1.39-0.02-2-0.11-2.23
						C94.04,26.56,94.13,26.41,94.13,26.34z"/>
					<path fill="none" stroke="#1D2132" stroke-width="0.1" stroke-linecap="square" stroke-miterlimit="22.9256" d="M91.02,26.58
						c0,0-0.4,1.06-0.4,2.65c0,1.59,0.55,2.74,0.55,2.74"/>
				</g>
				<g>
					<path fill="#FFFFFF" stroke="#1D2132" stroke-width="0.1" stroke-linecap="square" stroke-miterlimit="22.9256" d="
						M96.48,15.06c0-0.36-0.06-0.27-0.17-0.18c-0.11,0.09-0.28,0.13-1.01,0c-0.74-0.13-1.29-0.18-1.98,0.04
						c-0.7,0.22-0.79,0.1-0.97,0.01c-0.18-0.09-0.33-0.05-0.18,0.22c0.15,0.27-0.07,1.05-0.09,1.68c-0.11,2.45-0.01,3.53,0.08,5.24
						c0.02,0.37,0.14,0.68,0.1,0.86c-0.04,0.18,0.04,0.4,0.15,0.27c0.11-0.13,1.32,0.18,2.2,0.09c0.88-0.09,1.38-0.04,1.49,0.01
						c0.11,0.04,0.44-0.09,0.29-0.27c-0.15-0.18,0.08-0.9,0.11-1.25c0.04-0.36,0.15-1.12,0.11-3.04c-0.04-1.91-0.02-2.76-0.13-3.07
						C96.37,15.37,96.48,15.15,96.48,15.06z"/>
					<path fill="none" stroke="#1D2132" stroke-width="0.1" stroke-linecap="square" stroke-miterlimit="22.9256" d="M92.65,15.4
						c0,0-0.5,1.46-0.5,3.65c0,2.19,0.68,3.77,0.68,3.77"/>
				</g>
				<g>
					<path fill="#FFFFFF" stroke="#1D2132" stroke-width="0.1" stroke-linecap="square" stroke-miterlimit="22.9256" d="
						M94.13,16.15c0-0.26-0.05-0.2-0.14-0.13c-0.09,0.06-0.22,0.1-0.82,0c-0.59-0.1-1.04-0.13-1.61,0.03
						c-0.56,0.16-0.64,0.07-0.79,0.01c-0.15-0.07-0.27-0.03-0.15,0.16c0.12,0.19-0.05,0.76-0.08,1.22c-0.09,1.78,0,2.56,0.07,3.81
						c0.02,0.27,0.11,0.49,0.08,0.62c-0.03,0.13,0.03,0.29,0.12,0.19c0.09-0.1,1.07,0.13,1.78,0.06c0.71-0.06,1.12-0.03,1.21,0.01
						c0.09,0.03,0.36-0.06,0.24-0.19c-0.12-0.13,0.06-0.65,0.09-0.91c0.03-0.26,0.12-0.82,0.09-2.21c-0.03-1.39-0.02-2-0.11-2.23
						C94.04,16.37,94.13,16.22,94.13,16.15z"/>
					<path fill="none" stroke="#1D2132" stroke-width="0.1" stroke-linecap="square" stroke-miterlimit="22.9256" d="M91.02,16.4
						c0,0-0.4,1.06-0.4,2.65c0,1.59,0.55,2.74,0.55,2.74"/>
				</g>
				<path fill="#FFFFFF" stroke="#1D2132" stroke-width="0.1" stroke-linecap="square" stroke-miterlimit="22.9256" d="M71.02,35.2
					V12.78c0-0.35,0.28-0.62,0.62-0.62h7.16c0.35,0,0.62,0.28,0.62,0.62V35.2c0,0.35-0.28,0.62-0.62,0.62h-7.16
					C71.3,35.82,71.02,35.54,71.02,35.2z"/>
			</g>
			<g>
				
					<rect x="81.93" y="23.75" transform="matrix(-9.007657e-11 1 -1 -9.007657e-11 121.517 -73.3627)" fill="#FFFFFF" stroke="#1D2132" stroke-width="0.1" stroke-linecap="square" stroke-miterlimit="22.9256" width="31.02" height="0.65"/>
				<path fill="#FFFFFF" stroke="#1D2132" stroke-width="0.1" stroke-linecap="square" stroke-miterlimit="22.9256" d="M96.62,38.82
					V9.33c0-0.27,0.22-0.49,0.49-0.49l0,0v30.47l0,0C96.85,39.31,96.62,39.09,96.62,38.82z"/>
				<g>
					<g>
						<g>
							<path fill="#FFFFFF" stroke="#1D2132" stroke-width="0.1" stroke-linecap="square" stroke-miterlimit="22.9256" d="
								M97.12,38.55v-0.98H97c-0.27,0-0.49,0.22-0.49,0.49l0,0c0,0.27,0.22,0.49,0.49,0.49H97.12z"/>
							<path fill="#FFFFFF" stroke="#1D2132" stroke-width="0.1" stroke-linecap="square" stroke-miterlimit="22.9256" d="
								M93.49,34.98l-0.17,0.73c-0.41,0.04-0.83,0.02-1.24-0.06l0,0c-0.11-0.03-0.13-0.31-0.05-0.64c0.08-0.33,0.23-0.57,0.33-0.54
								l0,0C92.76,34.57,93.13,34.74,93.49,34.98z"/>
							
								<ellipse transform="matrix(0.2315 -0.9728 0.9728 0.2315 37.3975 118.0328)" fill="#FFFFFF" stroke="#1D2132" stroke-width="0.1" stroke-linecap="square" stroke-miterlimit="22.9256" cx="93.41" cy="35.35" rx="0.38" ry="0.12"/>
							<path fill="#FFFFFF" stroke="#1D2132" stroke-width="0.1" stroke-linecap="square" stroke-miterlimit="22.9256" d="
								M93.45,35.44l0.08,0.03c0,0,0.41,0.17,0.71,0.77c0.06,0.12,0.11,0.24,0.17,0.37c0.16,0.39,0.35,0.82,0.72,1.12
								c0.49,0.39,1.27,0.39,1.3,0.39l0.08,0l0-0.16l-0.08,0c-0.01,0-0.75,0-1.2-0.35c-0.34-0.27-0.51-0.67-0.67-1.05
								c-0.06-0.13-0.11-0.26-0.17-0.38c-0.33-0.66-0.78-0.84-0.8-0.85l-0.08-0.03C93.47,35.29,93.44,35.39,93.45,35.44z"/>
						</g>
					</g>
					<g>
						<g>
							<path fill="#FFFFFF" stroke="#1D2132" stroke-width="0.1" stroke-linecap="square" stroke-miterlimit="22.9256" d="
								M97.12,9.61v0.98H97c-0.27,0-0.49-0.22-0.49-0.49v0c0-0.27,0.22-0.49,0.49-0.49H97.12z"/>
							<path fill="#FFFFFF" stroke="#1D2132" stroke-width="0.1" stroke-linecap="square" stroke-miterlimit="22.9256" d="
								M93.49,13.18l-0.17-0.73c-0.41-0.04-0.83-0.02-1.24,0.06l0,0c-0.11,0.03-0.13,0.31-0.05,0.64c0.08,0.33,0.23,0.57,0.33,0.54
								l0,0C92.76,13.58,93.13,13.41,93.49,13.18z"/>
							
								<ellipse transform="matrix(0.9728 -0.2315 0.2315 0.9728 -0.4277 21.9721)" fill="#FFFFFF" stroke="#1D2132" stroke-width="0.1" stroke-linecap="square" stroke-miterlimit="22.9256" cx="93.41" cy="12.81" rx="0.12" ry="0.38"/>
							<path fill="#FFFFFF" stroke="#1D2132" stroke-width="0.1" stroke-linecap="square" stroke-miterlimit="22.9256" d="
								M93.45,12.71l0.08-0.03c0,0,0.41-0.17,0.71-0.77c0.06-0.12,0.11-0.24,0.17-0.37c0.16-0.39,0.35-0.82,0.72-1.12
								c0.49-0.39,1.27-0.39,1.3-0.39l0.08,0l0,0.16l-0.08,0c-0.01,0-0.75,0-1.2,0.35c-0.34,0.27-0.51,0.67-0.67,1.05
								c-0.06,0.13-0.11,0.26-0.17,0.38c-0.33,0.66-0.78,0.84-0.8,0.85l-0.08,0.03C93.47,12.86,93.44,12.77,93.45,12.71z"/>
						</g>
					</g>
				</g>
			</g>
		</g>
	</g>
	<g>
		<g>
			
				<rect x="67.65" y="4.42" fill="#FFFFFF" stroke="#1D2132" stroke-width="0.1" stroke-linecap="square" stroke-miterlimit="10" width="10.62" height="0.8"/>
			
				<line fill="none" stroke="#1D2132" stroke-width="0.1" stroke-linecap="square" stroke-miterlimit="10" x1="68.48" y1="4.58" x2="68.48" y2="5.06"/>
			
				<line fill="none" stroke="#1D2132" stroke-width="0.1" stroke-linecap="square" stroke-miterlimit="10" x1="68.77" y1="4.58" x2="68.77" y2="5.06"/>
			
				<line fill="none" stroke="#1D2132" stroke-width="0.1" stroke-linecap="square" stroke-miterlimit="10" x1="67.91" y1="4.58" x2="67.91" y2="5.06"/>
			
				<line fill="none" stroke="#1D2132" stroke-width="0.1" stroke-linecap="square" stroke-miterlimit="10" x1="68.2" y1="4.58" x2="68.2" y2="5.06"/>
			
				<line fill="none" stroke="#1D2132" stroke-width="0.1" stroke-linecap="square" stroke-miterlimit="10" x1="69.06" y1="4.58" x2="69.06" y2="5.06"/>
			
				<line fill="none" stroke="#1D2132" stroke-width="0.1" stroke-linecap="square" stroke-miterlimit="10" x1="69.34" y1="4.58" x2="69.34" y2="5.06"/>
			
				<line fill="none" stroke="#1D2132" stroke-width="0.1" stroke-linecap="square" stroke-miterlimit="10" x1="69.63" y1="4.58" x2="69.63" y2="5.06"/>
			
				<line fill="none" stroke="#1D2132" stroke-width="0.1" stroke-linecap="square" stroke-miterlimit="10" x1="69.92" y1="4.58" x2="69.92" y2="5.06"/>
			
				<line fill="none" stroke="#1D2132" stroke-width="0.1" stroke-linecap="square" stroke-miterlimit="10" x1="70.2" y1="4.58" x2="70.2" y2="5.06"/>
			
				<line fill="none" stroke="#1D2132" stroke-width="0.1" stroke-linecap="square" stroke-miterlimit="10" x1="70.49" y1="4.58" x2="70.49" y2="5.06"/>
			
				<line fill="none" stroke="#1D2132" stroke-width="0.1" stroke-linecap="square" stroke-miterlimit="10" x1="71.35" y1="4.58" x2="71.35" y2="5.06"/>
			
				<line fill="none" stroke="#1D2132" stroke-width="0.1" stroke-linecap="square" stroke-miterlimit="10" x1="71.64" y1="4.58" x2="71.64" y2="5.06"/>
			
				<line fill="none" stroke="#1D2132" stroke-width="0.1" stroke-linecap="square" stroke-miterlimit="10" x1="70.78" y1="4.58" x2="70.78" y2="5.06"/>
			
				<line fill="none" stroke="#1D2132" stroke-width="0.1" stroke-linecap="square" stroke-miterlimit="10" x1="71.06" y1="4.58" x2="71.06" y2="5.06"/>
			
				<line fill="none" stroke="#1D2132" stroke-width="0.1" stroke-linecap="square" stroke-miterlimit="10" x1="71.92" y1="4.58" x2="71.92" y2="5.06"/>
			
				<line fill="none" stroke="#1D2132" stroke-width="0.1" stroke-linecap="square" stroke-miterlimit="10" x1="72.21" y1="4.58" x2="72.21" y2="5.06"/>
			
				<line fill="none" stroke="#1D2132" stroke-width="0.1" stroke-linecap="square" stroke-miterlimit="10" x1="72.5" y1="4.58" x2="72.5" y2="5.06"/>
			
				<line fill="none" stroke="#1D2132" stroke-width="0.1" stroke-linecap="square" stroke-miterlimit="10" x1="72.78" y1="4.58" x2="72.78" y2="5.06"/>
			
				<line fill="none" stroke="#1D2132" stroke-width="0.1" stroke-linecap="square" stroke-miterlimit="10" x1="73.07" y1="4.58" x2="73.07" y2="5.06"/>
			
				<line fill="none" stroke="#1D2132" stroke-width="0.1" stroke-linecap="square" stroke-miterlimit="10" x1="73.36" y1="4.58" x2="73.36" y2="5.06"/>
			
				<line fill="none" stroke="#1D2132" stroke-width="0.1" stroke-linecap="square" stroke-miterlimit="10" x1="74.22" y1="4.58" x2="74.22" y2="5.06"/>
			
				<line fill="none" stroke="#1D2132" stroke-width="0.1" stroke-linecap="square" stroke-miterlimit="10" x1="74.5" y1="4.58" x2="74.5" y2="5.06"/>
			
				<line fill="none" stroke="#1D2132" stroke-width="0.1" stroke-linecap="square" stroke-miterlimit="10" x1="73.64" y1="4.58" x2="73.64" y2="5.06"/>
			
				<line fill="none" stroke="#1D2132" stroke-width="0.1" stroke-linecap="square" stroke-miterlimit="10" x1="73.93" y1="4.58" x2="73.93" y2="5.06"/>
			
				<line fill="none" stroke="#1D2132" stroke-width="0.1" stroke-linecap="square" stroke-miterlimit="10" x1="74.79" y1="4.58" x2="74.79" y2="5.06"/>
			
				<line fill="none" stroke="#1D2132" stroke-width="0.1" stroke-linecap="square" stroke-miterlimit="10" x1="75.08" y1="4.58" x2="75.08" y2="5.06"/>
			
				<line fill="none" stroke="#1D2132" stroke-width="0.1" stroke-linecap="square" stroke-miterlimit="10" x1="75.36" y1="4.58" x2="75.36" y2="5.06"/>
			
				<line fill="none" stroke="#1D2132" stroke-width="0.1" stroke-linecap="square" stroke-miterlimit="10" x1="75.65" y1="4.58" x2="75.65" y2="5.06"/>
			
				<line fill="none" stroke="#1D2132" stroke-width="0.1" stroke-linecap="square" stroke-miterlimit="10" x1="75.94" y1="4.58" x2="75.94" y2="5.06"/>
			
				<line fill="none" stroke="#1D2132" stroke-width="0.1" stroke-linecap="square" stroke-miterlimit="10" x1="76.22" y1="4.58" x2="76.22" y2="5.06"/>
			
				<line fill="none" stroke="#1D2132" stroke-width="0.1" stroke-linecap="square" stroke-miterlimit="10" x1="77.08" y1="4.58" x2="77.08" y2="5.06"/>
			
				<line fill="none" stroke="#1D2132" stroke-width="0.1" stroke-linecap="square" stroke-miterlimit="10" x1="77.37" y1="4.58" x2="77.37" y2="5.06"/>
			
				<line fill="none" stroke="#1D2132" stroke-width="0.1" stroke-linecap="square" stroke-miterlimit="10" x1="76.51" y1="4.58" x2="76.51" y2="5.06"/>
			
				<line fill="none" stroke="#1D2132" stroke-width="0.1" stroke-linecap="square" stroke-miterlimit="10" x1="76.8" y1="4.58" x2="76.8" y2="5.06"/>
			
				<line fill="none" stroke="#1D2132" stroke-width="0.1" stroke-linecap="square" stroke-miterlimit="10" x1="77.66" y1="4.58" x2="77.66" y2="5.06"/>
			
				<line fill="none" stroke="#1D2132" stroke-width="0.1" stroke-linecap="square" stroke-miterlimit="10" x1="77.94" y1="4.58" x2="77.94" y2="5.06"/>
		</g>
		<path fill="none" stroke="#1D2132" stroke-width="0.1" stroke-linecap="square" stroke-miterlimit="10" d="M58.06,5.37
			c0.42,0,0,0.74,0.42,0.74c0.42,0,0-0.74,0.42-0.74c0.42,0,0,0.74,0.42,0.74c0.42,0,0-0.74,0.42-0.74c0.42,0,0,0.74,0.42,0.74
			c0.42,0,0-0.74,0.42-0.74c0.42,0,0,0.74,0.42,0.74c0.42,0,0-0.74,0.42-0.74c0.42,0,0,0.74,0.42,0.74c0.42,0,0-0.74,0.42-0.74
			s0,0.74,0.42,0.74c0.42,0,0-0.74,0.42-0.74c0.42,0,0,0.74,0.42,0.74c0.42,0,0-0.74,0.42-0.74s0,0.74,0.42,0.74
			c0.42,0,0-0.74,0.42-0.74s0,0.74,0.42,0.74s0-0.74,0.42-0.74c0.42,0,0,0.74,0.42,0.74c0.42,0,0-0.74,0.42-0.74s0,0.74,0.42,0.74
			s0-0.74,0.42-0.74s0,0.74,0.42,0.74c0.42,0,0-0.74,0.42-0.74c0.42,0,0,0.74,0.42,0.74s0-0.74,0.42-0.74s0,0.74,0.42,0.74
			c0.42,0,0-0.74,0.42-0.74c0.42,0,0,0.74,0.42,0.74s0-0.74,0.42-0.74s0,0.74,0.42,0.74c0.42,0,0-0.74,0.42-0.74
			c0.42,0,0,0.74,0.42,0.74"/>
		<path fill="none" stroke="#1D2132" stroke-width="0.1" stroke-linecap="square" stroke-miterlimit="10" d="M87.94,5.37
			c-0.42,0,0,0.74-0.42,0.74c-0.42,0,0-0.74-0.42-0.74c-0.42,0,0,0.74-0.42,0.74s0-0.74-0.42-0.74s0,0.74-0.42,0.74
			c-0.42,0,0-0.74-0.42-0.74c-0.42,0,0,0.74-0.42,0.74s0-0.74-0.42-0.74s0,0.74-0.42,0.74s0-0.74-0.42-0.74
			c-0.42,0,0,0.74-0.42,0.74c-0.42,0,0-0.74-0.42-0.74s0,0.74-0.42,0.74s0-0.74-0.42-0.74c-0.42,0,0,0.74-0.42,0.74
			c-0.42,0,0-0.74-0.42-0.74s0,0.74-0.42,0.74s0-0.74-0.42-0.74c-0.42,0,0,0.74-0.42,0.74c-0.42,0,0-0.74-0.42-0.74
			s0,0.74-0.42,0.74s0-0.74-0.42-0.74s0,0.74-0.42,0.74c-0.42,0,0-0.74-0.42-0.74c-0.42,0,0,0.74-0.42,0.74s0-0.74-0.42-0.74
			s0,0.74-0.42,0.74c-0.42,0,0-0.74-0.42-0.74c-0.42,0,0,0.74-0.42,0.74s0-0.74-0.42-0.74s0,0.74-0.42,0.74
			c-0.42,0,0-0.74-0.42-0.74c-0.42,0,0,0.74-0.42,0.74"/>
	</g>
	<g>
		<g>
			
				<rect x="21.65" y="4.37" fill="#FFFFFF" stroke="#1D2132" stroke-width="0.1" stroke-linecap="square" stroke-miterlimit="10" width="10.62" height="0.8"/>
			
				<line fill="none" stroke="#1D2132" stroke-width="0.1" stroke-linecap="square" stroke-miterlimit="10" x1="22.48" y1="4.53" x2="22.48" y2="5.01"/>
			
				<line fill="none" stroke="#1D2132" stroke-width="0.1" stroke-linecap="square" stroke-miterlimit="10" x1="22.77" y1="4.53" x2="22.77" y2="5.01"/>
			
				<line fill="none" stroke="#1D2132" stroke-width="0.1" stroke-linecap="square" stroke-miterlimit="10" x1="21.91" y1="4.53" x2="21.91" y2="5.01"/>
			
				<line fill="none" stroke="#1D2132" stroke-width="0.1" stroke-linecap="square" stroke-miterlimit="10" x1="22.2" y1="4.53" x2="22.2" y2="5.01"/>
			
				<line fill="none" stroke="#1D2132" stroke-width="0.1" stroke-linecap="square" stroke-miterlimit="10" x1="23.06" y1="4.53" x2="23.06" y2="5.01"/>
			
				<line fill="none" stroke="#1D2132" stroke-width="0.1" stroke-linecap="square" stroke-miterlimit="10" x1="23.34" y1="4.53" x2="23.34" y2="5.01"/>
			
				<line fill="none" stroke="#1D2132" stroke-width="0.1" stroke-linecap="square" stroke-miterlimit="10" x1="23.63" y1="4.53" x2="23.63" y2="5.01"/>
			
				<line fill="none" stroke="#1D2132" stroke-width="0.1" stroke-linecap="square" stroke-miterlimit="10" x1="23.92" y1="4.53" x2="23.92" y2="5.01"/>
			
				<line fill="none" stroke="#1D2132" stroke-width="0.1" stroke-linecap="square" stroke-miterlimit="10" x1="24.2" y1="4.53" x2="24.2" y2="5.01"/>
			
				<line fill="none" stroke="#1D2132" stroke-width="0.1" stroke-linecap="square" stroke-miterlimit="10" x1="24.49" y1="4.53" x2="24.49" y2="5.01"/>
			
				<line fill="none" stroke="#1D2132" stroke-width="0.1" stroke-linecap="square" stroke-miterlimit="10" x1="25.35" y1="4.53" x2="25.35" y2="5.01"/>
			
				<line fill="none" stroke="#1D2132" stroke-width="0.1" stroke-linecap="square" stroke-miterlimit="10" x1="25.64" y1="4.53" x2="25.64" y2="5.01"/>
			
				<line fill="none" stroke="#1D2132" stroke-width="0.1" stroke-linecap="square" stroke-miterlimit="10" x1="24.78" y1="4.53" x2="24.78" y2="5.01"/>
			
				<line fill="none" stroke="#1D2132" stroke-width="0.1" stroke-linecap="square" stroke-miterlimit="10" x1="25.06" y1="4.53" x2="25.06" y2="5.01"/>
			
				<line fill="none" stroke="#1D2132" stroke-width="0.1" stroke-linecap="square" stroke-miterlimit="10" x1="25.92" y1="4.53" x2="25.92" y2="5.01"/>
			
				<line fill="none" stroke="#1D2132" stroke-width="0.1" stroke-linecap="square" stroke-miterlimit="10" x1="26.21" y1="4.53" x2="26.21" y2="5.01"/>
			
				<line fill="none" stroke="#1D2132" stroke-width="0.1" stroke-linecap="square" stroke-miterlimit="10" x1="26.5" y1="4.53" x2="26.5" y2="5.01"/>
			
				<line fill="none" stroke="#1D2132" stroke-width="0.1" stroke-linecap="square" stroke-miterlimit="10" x1="26.78" y1="4.53" x2="26.78" y2="5.01"/>
			
				<line fill="none" stroke="#1D2132" stroke-width="0.1" stroke-linecap="square" stroke-miterlimit="10" x1="27.07" y1="4.53" x2="27.07" y2="5.01"/>
			
				<line fill="none" stroke="#1D2132" stroke-width="0.1" stroke-linecap="square" stroke-miterlimit="10" x1="27.36" y1="4.53" x2="27.36" y2="5.01"/>
			
				<line fill="none" stroke="#1D2132" stroke-width="0.1" stroke-linecap="square" stroke-miterlimit="10" x1="28.22" y1="4.53" x2="28.22" y2="5.01"/>
			
				<line fill="none" stroke="#1D2132" stroke-width="0.1" stroke-linecap="square" stroke-miterlimit="10" x1="28.5" y1="4.53" x2="28.5" y2="5.01"/>
			
				<line fill="none" stroke="#1D2132" stroke-width="0.1" stroke-linecap="square" stroke-miterlimit="10" x1="27.64" y1="4.53" x2="27.64" y2="5.01"/>
			
				<line fill="none" stroke="#1D2132" stroke-width="0.1" stroke-linecap="square" stroke-miterlimit="10" x1="27.93" y1="4.53" x2="27.93" y2="5.01"/>
			
				<line fill="none" stroke="#1D2132" stroke-width="0.1" stroke-linecap="square" stroke-miterlimit="10" x1="28.79" y1="4.53" x2="28.79" y2="5.01"/>
			
				<line fill="none" stroke="#1D2132" stroke-width="0.1" stroke-linecap="square" stroke-miterlimit="10" x1="29.08" y1="4.53" x2="29.08" y2="5.01"/>
			
				<line fill="none" stroke="#1D2132" stroke-width="0.1" stroke-linecap="square" stroke-miterlimit="10" x1="29.36" y1="4.53" x2="29.36" y2="5.01"/>
			
				<line fill="none" stroke="#1D2132" stroke-width="0.1" stroke-linecap="square" stroke-miterlimit="10" x1="29.65" y1="4.53" x2="29.65" y2="5.01"/>
			
				<line fill="none" stroke="#1D2132" stroke-width="0.1" stroke-linecap="square" stroke-miterlimit="10" x1="29.94" y1="4.53" x2="29.94" y2="5.01"/>
			
				<line fill="none" stroke="#1D2132" stroke-width="0.1" stroke-linecap="square" stroke-miterlimit="10" x1="30.22" y1="4.53" x2="30.22" y2="5.01"/>
			
				<line fill="none" stroke="#1D2132" stroke-width="0.1" stroke-linecap="square" stroke-miterlimit="10" x1="31.08" y1="4.53" x2="31.08" y2="5.01"/>
			
				<line fill="none" stroke="#1D2132" stroke-width="0.1" stroke-linecap="square" stroke-miterlimit="10" x1="31.37" y1="4.53" x2="31.37" y2="5.01"/>
			
				<line fill="none" stroke="#1D2132" stroke-width="0.1" stroke-linecap="square" stroke-miterlimit="10" x1="30.51" y1="4.53" x2="30.51" y2="5.01"/>
			
				<line fill="none" stroke="#1D2132" stroke-width="0.1" stroke-linecap="square" stroke-miterlimit="10" x1="30.8" y1="4.53" x2="30.8" y2="5.01"/>
			
				<line fill="none" stroke="#1D2132" stroke-width="0.1" stroke-linecap="square" stroke-miterlimit="10" x1="31.66" y1="4.53" x2="31.66" y2="5.01"/>
			
				<line fill="none" stroke="#1D2132" stroke-width="0.1" stroke-linecap="square" stroke-miterlimit="10" x1="31.94" y1="4.53" x2="31.94" y2="5.01"/>
		</g>
		<path fill="none" stroke="#1D2132" stroke-width="0.1" stroke-linecap="square" stroke-miterlimit="10" d="M12.06,5.32
			c0.42,0,0,0.74,0.42,0.74c0.42,0,0-0.74,0.42-0.74s0,0.74,0.42,0.74s0-0.74,0.42-0.74s0,0.74,0.42,0.74s0-0.74,0.42-0.74
			c0.42,0,0,0.74,0.42,0.74c0.42,0,0-0.74,0.42-0.74s0,0.74,0.42,0.74s0-0.74,0.42-0.74s0,0.74,0.42,0.74s0-0.74,0.42-0.74
			s0,0.74,0.42,0.74s0-0.74,0.42-0.74s0,0.74,0.42,0.74c0.42,0,0-0.74,0.42-0.74c0.42,0,0,0.74,0.42,0.74s0-0.74,0.42-0.74
			s0,0.74,0.42,0.74s0-0.74,0.42-0.74s0,0.74,0.42,0.74s0-0.74,0.42-0.74s0,0.74,0.42,0.74s0-0.74,0.42-0.74s0,0.74,0.42,0.74
			s0-0.74,0.42-0.74c0.42,0,0,0.74,0.42,0.74c0.42,0,0-0.74,0.42-0.74s0,0.74,0.42,0.74s0-0.74,0.42-0.74s0,0.74,0.42,0.74
			s0-0.74,0.42-0.74s0,0.74,0.42,0.74"/>
		<path fill="none" stroke="#1D2132" stroke-width="0.1" stroke-linecap="square" stroke-miterlimit="10" d="M41.94,5.32
			c-0.42,0,0,0.74-0.42,0.74c-0.42,0,0-0.74-0.42-0.74c-0.42,0,0,0.74-0.42,0.74c-0.42,0,0-0.74-0.42-0.74c-0.42,0,0,0.74-0.42,0.74
			c-0.42,0,0-0.74-0.42-0.74c-0.42,0,0,0.74-0.42,0.74c-0.42,0,0-0.74-0.42-0.74c-0.42,0,0,0.74-0.42,0.74c-0.42,0,0-0.74-0.42-0.74
			s0,0.74-0.42,0.74c-0.42,0,0-0.74-0.42-0.74c-0.42,0,0,0.74-0.42,0.74c-0.42,0,0-0.74-0.42-0.74c-0.42,0,0,0.74-0.42,0.74
			c-0.42,0,0-0.74-0.42-0.74c-0.42,0,0,0.74-0.42,0.74c-0.42,0,0-0.74-0.42-0.74c-0.42,0,0,0.74-0.42,0.74c-0.42,0,0-0.74-0.42-0.74
			c-0.42,0,0,0.74-0.42,0.74s0-0.74-0.42-0.74c-0.42,0,0,0.74-0.42,0.74c-0.42,0,0-0.74-0.42-0.74s0,0.74-0.42,0.74
			s0-0.74-0.42-0.74c-0.42,0,0,0.74-0.42,0.74c-0.42,0,0-0.74-0.42-0.74s0,0.74-0.42,0.74s0-0.74-0.42-0.74s0,0.74-0.42,0.74
			s0-0.74-0.42-0.74s0,0.74-0.42,0.74"/>
	</g>
	<g>
		
			<circle fill="#FFFFFF" stroke="#1D2132" stroke-width="0.1" stroke-linecap="square" stroke-miterlimit="22.9256" cx="94.57" cy="47.48" r="1.82"/>
		
			<circle fill="#FFFFFF" stroke="#1D2132" stroke-width="0.1" stroke-linecap="square" stroke-miterlimit="22.9256" cx="94.57" cy="47.48" r="0.39"/>
		<path fill="#FFFFFF" stroke="#1D2132" stroke-width="0.1" stroke-linecap="square" stroke-miterlimit="22.9256" d="M89.29,43.65
			c-0.4-0.18-0.98,0.23-1.28,0.92c-0.31,0.69-0.23,1.39,0.18,1.57l0,0c0.81,0.38,1.44,0.43,2.43,0.42l0.62-1.39
			C90.6,44.4,90.13,43.97,89.29,43.65z"/>
		<path fill="#FFFFFF" stroke="#1D2132" stroke-width="0.1" stroke-linecap="square" stroke-miterlimit="22.9256" d="M90.52,45.68
			c-0.17,0.38-0.13,0.78,0.1,0.88l0.5,0.22l0.62-1.39l-0.5-0.22C91.01,45.07,90.69,45.3,90.52,45.68z"/>
		
			<ellipse transform="matrix(0.4062 -0.9138 0.9138 0.4062 12.1804 110.9112)" fill="#FFFFFF" stroke="#1D2132" stroke-width="0.1" stroke-linecap="square" stroke-miterlimit="22.9256" cx="91.43" cy="46.08" rx="0.76" ry="0.45"/>
		<path fill="#FFFFFF" stroke="#1D2132" stroke-width="0.1" stroke-linecap="square" stroke-miterlimit="22.9256" d="M94.69,47.53
			L94.69,47.53c-0.03,0.07-0.11,0.1-0.18,0.07l-1.88-0.84c-0.07-0.03-0.1-0.11-0.07-0.18h0c0.03-0.07,0.11-0.1,0.18-0.07l1.88,0.84
			C94.69,47.38,94.72,47.46,94.69,47.53z"/>
		<path fill="#FFFFFF" stroke="#1D2132" stroke-width="0.1" stroke-linecap="square" stroke-miterlimit="22.9256" d="M93.62,47.06
			L93.62,47.06c-0.03,0.07-0.11,0.1-0.18,0.07l-1.88-0.84c-0.07-0.03-0.1-0.11-0.07-0.18l0,0c0.03-0.07,0.11-0.1,0.18-0.07
			l1.88,0.84C93.62,46.91,93.65,46.99,93.62,47.06z"/>
	</g>
	<g>
		<g>
			<path fill="#FFFFFF" stroke="#1D2132" stroke-width="0.1" stroke-linecap="square" stroke-miterlimit="10" d="M31.27,11.79
				c-0.96-0.81-2.14-2.04-2.75-2.31c-0.54-0.24-1.11,0.91-2.11,1.91c-1.01,1.01-2.16,1.57-1.92,2.11c0.27,0.61,1.5,1.8,2.31,2.76
				c0.81,0.96,1.3,1.01,1.94,0.62c0.63-0.38,1.25-1.05,1.67-1.47c0.42-0.42,1.09-1.04,1.47-1.67C32.28,13.09,32.23,12.6,31.27,11.79
				z"/>
			<path fill="#FFFFFF" stroke="#1D2132" stroke-width="0.1" stroke-linecap="square" stroke-miterlimit="10" d="M31.36,12.2
				c-0.79-0.66-1.76-1.67-2.28-1.88c-0.46-0.18-1.56,0.3-2.49,1.24c-0.93,0.93-1.42,2.03-1.24,2.49c0.2,0.52,1.22,1.49,1.87,2.29
				c0.66,0.79,1.08,0.81,1.66,0.44c0.57-0.37,1.15-0.99,1.54-1.37c0.39-0.39,1.01-0.97,1.38-1.54
				C32.17,13.29,32.15,12.86,31.36,12.2z"/>
			<g>
				<path fill="#FFFFFF" stroke="#1D2132" stroke-width="0.1" stroke-linecap="square" stroke-miterlimit="10" d="M24.46,11.94
					c-0.24,0.35-0.45,0.72-0.63,1.09c1.13,0.89,1.3-0.74,2.4-1.83c1.13-1.13,2.88-1.36,1.8-2.44C26.63,9.48,25.39,10.55,24.46,11.94
					z"/>
				<path fill="#FFFFFF" stroke="#1D2132" stroke-width="0.1" stroke-linecap="square" stroke-miterlimit="10" d="M27.96,8.46
					c-0.09,0.04-0.17,0.09-0.25,0.14c-1.36,0.74-2.57,1.81-3.49,3.18c-0.22,0.32-0.41,0.66-0.59,1c-0.04,0.07-0.07,0.14-0.1,0.2
					l0.26,0.13c0.01-0.03,0.03-0.05,0.04-0.08c0.19-0.37,0.4-0.73,0.63-1.09c0.94-1.39,2.17-2.46,3.57-3.19
					c0.02-0.01,0.04-0.02,0.07-0.04L27.96,8.46z"/>
			</g>
		</g>
		<g>
			<path fill="#FFFFFF" stroke="#1D2132" stroke-width="0.1" stroke-linecap="square" stroke-miterlimit="10" d="M43.49,24.01
				c0.81,0.96,2.04,2.14,2.31,2.75c0.24,0.54-0.91,1.11-1.91,2.11c-1.01,1.01-1.57,2.16-2.11,1.92c-0.61-0.27-1.8-1.5-2.76-2.31
				c-0.96-0.81-1.01-1.3-0.62-1.94c0.38-0.63,1.05-1.25,1.47-1.67c0.42-0.42,1.04-1.09,1.67-1.47C42.19,23,42.68,23.05,43.49,24.01z
				"/>
			<path fill="#FFFFFF" stroke="#1D2132" stroke-width="0.1" stroke-linecap="square" stroke-miterlimit="10" d="M43.08,23.93
				c0.66,0.79,1.67,1.76,1.88,2.28c0.18,0.46-0.3,1.56-1.24,2.49c-0.93,0.93-2.03,1.42-2.49,1.24c-0.52-0.2-1.49-1.22-2.29-1.87
				c-0.79-0.66-0.81-1.08-0.44-1.66c0.37-0.57,0.99-1.15,1.37-1.54c0.39-0.39,0.97-1.01,1.54-1.38C42,23.12,42.42,23.13,43.08,23.93
				z"/>
			<g>
				<path fill="#FFFFFF" stroke="#1D2132" stroke-width="0.1" stroke-linecap="square" stroke-miterlimit="10" d="M43.34,30.82
					c-0.35,0.24-0.72,0.45-1.09,0.63c-0.89-1.13,0.74-1.3,1.83-2.4c1.13-1.13,1.36-2.88,2.44-1.8
					C45.8,28.65,44.73,29.89,43.34,30.82z"/>
				<path fill="#FFFFFF" stroke="#1D2132" stroke-width="0.1" stroke-linecap="square" stroke-miterlimit="10" d="M46.82,27.33
					c-0.04,0.09-0.09,0.17-0.14,0.25c-0.74,1.36-1.81,2.57-3.18,3.49c-0.32,0.22-0.66,0.41-1,0.59c-0.07,0.04-0.14,0.07-0.2,0.1
					l-0.13-0.26c0.03-0.01,0.05-0.03,0.08-0.04c0.37-0.19,0.73-0.4,1.09-0.63c1.39-0.94,2.46-2.17,3.19-3.57
					c0.01-0.02,0.02-0.04,0.04-0.07L46.82,27.33z"/>
			</g>
		</g>
		<g>
			<path fill="#FFFFFF" stroke="#1D2132" stroke-width="0.1" stroke-linecap="square" stroke-miterlimit="10" d="M43.49,16.26
				c0.81-0.96,2.04-2.14,2.31-2.75c0.24-0.54-0.91-1.11-1.91-2.11c-1.01-1.01-1.57-2.16-2.11-1.92c-0.61,0.27-1.8,1.5-2.76,2.31
				c-0.96,0.81-1.01,1.3-0.62,1.94c0.38,0.63,1.05,1.25,1.47,1.67c0.42,0.42,1.04,1.09,1.67,1.47
				C42.19,17.27,42.68,17.22,43.49,16.26z"/>
			<path fill="#FFFFFF" stroke="#1D2132" stroke-width="0.1" stroke-linecap="square" stroke-miterlimit="10" d="M43.08,16.34
				c0.66-0.79,1.67-1.76,1.88-2.28c0.18-0.46-0.3-1.56-1.24-2.49c-0.93-0.93-2.03-1.42-2.49-1.24c-0.52,0.2-1.49,1.22-2.29,1.87
				c-0.79,0.66-0.81,1.08-0.44,1.66c0.37,0.57,0.99,1.15,1.37,1.54c0.39,0.39,0.97,1.01,1.54,1.38C42,17.15,42.42,17.13,43.08,16.34
				z"/>
			<g>
				<path fill="#FFFFFF" stroke="#1D2132" stroke-width="0.1" stroke-linecap="square" stroke-miterlimit="10" d="M43.34,9.44
					c-0.35-0.24-0.72-0.45-1.09-0.63c-0.89,1.13,0.74,1.3,1.83,2.4c1.13,1.13,1.36,2.88,2.44,1.8C45.8,11.62,44.73,10.38,43.34,9.44
					z"/>
				<path fill="#FFFFFF" stroke="#1D2132" stroke-width="0.1" stroke-linecap="square" stroke-miterlimit="10" d="M46.82,12.94
					c-0.04-0.09-0.09-0.17-0.14-0.25c-0.74-1.36-1.81-2.57-3.18-3.49c-0.32-0.22-0.66-0.41-1-0.59c-0.07-0.04-0.14-0.07-0.2-0.1
					l-0.13,0.26c0.03,0.01,0.05,0.03,0.08,0.04c0.37,0.19,0.73,0.4,1.09,0.63c1.39,0.94,2.46,2.17,3.19,3.57
					c0.01,0.02,0.02,0.04,0.04,0.07L46.82,12.94z"/>
			</g>
		</g>
		<g>
			<path fill="#FFFFFF" stroke="#1D2132" stroke-width="0.1" stroke-linecap="square" stroke-miterlimit="10" d="M31.27,28.48
				c-0.96,0.81-2.14,2.04-2.75,2.31c-0.54,0.24-1.11-0.91-2.11-1.91c-1.01-1.01-2.16-1.57-1.92-2.11c0.27-0.61,1.5-1.8,2.31-2.76
				c0.81-0.96,1.3-1.01,1.94-0.62c0.63,0.38,1.25,1.05,1.67,1.47c0.42,0.42,1.09,1.04,1.47,1.67
				C32.28,27.17,32.23,27.66,31.27,28.48z"/>
			<path fill="#FFFFFF" stroke="#1D2132" stroke-width="0.1" stroke-linecap="square" stroke-miterlimit="10" d="M31.36,28.07
				c-0.79,0.66-1.76,1.67-2.28,1.88c-0.46,0.18-1.56-0.3-2.49-1.24c-0.93-0.93-1.42-2.03-1.24-2.49c0.2-0.52,1.22-1.49,1.87-2.29
				c0.66-0.79,1.08-0.81,1.66-0.44c0.57,0.37,1.15,0.99,1.54,1.37c0.39,0.39,1.01,0.97,1.38,1.54
				C32.17,26.98,32.15,27.41,31.36,28.07z"/>
			<g>
				<path fill="#FFFFFF" stroke="#1D2132" stroke-width="0.1" stroke-linecap="square" stroke-miterlimit="10" d="M24.46,28.33
					c-0.24-0.35-0.45-0.72-0.63-1.09c1.13-0.89,1.3,0.74,2.4,1.83c1.13,1.13,2.88,1.36,1.8,2.44
					C26.63,30.79,25.39,29.72,24.46,28.33z"/>
				<path fill="#FFFFFF" stroke="#1D2132" stroke-width="0.1" stroke-linecap="square" stroke-miterlimit="10" d="M27.96,31.81
					c-0.09-0.04-0.17-0.09-0.25-0.14c-1.36-0.74-2.57-1.81-3.49-3.18c-0.22-0.32-0.41-0.66-0.59-1c-0.04-0.07-0.07-0.14-0.1-0.2
					l0.26-0.13c0.01,0.03,0.03,0.05,0.04,0.08c0.19,0.37,0.4,0.73,0.63,1.09c0.94,1.39,2.17,2.46,3.57,3.19
					c0.02,0.01,0.04,0.02,0.07,0.04L27.96,31.81z"/>
			</g>
		</g>
		
			<circle fill="#FFFFFF" stroke="#1D2132" stroke-width="0.1" stroke-linecap="square" stroke-miterlimit="10" cx="35.15" cy="20.13" r="6.36"/>
	</g>
	<g>
		
			<rect x="49.18" y="61.44" transform="matrix(-1 -5.239510e-11 5.239510e-11 -1 105.7841 140.848)" fill="#FFFFFF" stroke="#1D2132" stroke-width="0.1" stroke-linecap="square" stroke-miterlimit="10" width="7.43" height="17.97"/>
		<g>
			<path fill="#FFFFFF" stroke="#1D2132" stroke-width="0.1" stroke-linecap="square" stroke-miterlimit="10" d="M53.97,70.55h0.34
				c0.02,0.01,0.06,0.07,0.09,0.11c0.1,0.15,0.26,0.38,0.59,0.43c0.25,0.04,0.47-0.05,0.61-0.24c0.14-0.2,0.16-0.47,0.05-0.7
				c-0.18-0.36-0.56-0.4-0.73-0.38c-0.06,0.01-0.1,0.06-0.09,0.12c0.01,0.06,0.06,0.1,0.12,0.09c0,0,0.35-0.05,0.51,0.27
				c0.08,0.16,0.07,0.34-0.03,0.48c-0.09,0.12-0.24,0.18-0.41,0.15c-0.25-0.04-0.36-0.21-0.46-0.35c-0.07-0.11-0.14-0.21-0.26-0.2
				h-0.35c-0.06,0-0.11,0.05-0.11,0.11S53.91,70.55,53.97,70.55z M54.32,70.55L54.32,70.55L54.32,70.55z"/>
			<path fill="#FFFFFF" stroke="#1D2132" stroke-width="0.1" stroke-linecap="square" stroke-miterlimit="10" d="M51.74,74.64
				c0.26,0.06,0.52-0.05,0.64-0.29c0,0,0.01-0.01,0.01-0.02l1.55-3.26c0.01-0.03,0.02-0.06,0.02-0.08v-1.1
				c0-0.03-0.01-0.06-0.02-0.08l-1.55-3.26c0-0.01,0-0.01-0.01-0.02c-0.13-0.24-0.38-0.35-0.64-0.29c-0.26,0.06-0.19,0.36-0.19,0.63
				v7.14C51.55,74.28,51.48,74.57,51.74,74.64z M53,69.93v1.01l-0.99,3.45c-0.05,0.09-0.14,0.08-0.16,0.07
				c-0.03-0.01-0.11-0.04-0.11-0.15v-7.76c0-0.11,0.09-0.14,0.11-0.15c0.03-0.01,0.11-0.02,0.16,0.07L53,69.93z"/>
		</g>
	</g>
	<g>
		
			<rect x="73.8" y="44.68" transform="matrix(-2.384887e-06 1 -1 -2.384887e-06 142.5734 -12.9931)" fill="#FFFFFF" stroke="#1D2132" stroke-width="0.1" stroke-linecap="square" stroke-miterlimit="10" width="7.97" height="40.22"/>
		<g>
			<path fill="#FFFFFF" stroke="#1D2132" stroke-width="0.1" stroke-linecap="square" stroke-miterlimit="10" d="M77.7,64.12v-0.37
				c0.01-0.02,0.08-0.06,0.12-0.09c0.16-0.11,0.41-0.28,0.47-0.64c0.04-0.26-0.05-0.51-0.25-0.66c-0.21-0.16-0.51-0.17-0.75-0.05
				c-0.38,0.2-0.43,0.6-0.41,0.78c0.01,0.06,0.07,0.1,0.13,0.1c0.06-0.01,0.1-0.07,0.1-0.13c0,0-0.05-0.37,0.29-0.55
				c0.17-0.09,0.37-0.07,0.51,0.03c0.13,0.1,0.19,0.26,0.16,0.44c-0.04,0.26-0.23,0.39-0.37,0.49c-0.11,0.08-0.22,0.15-0.22,0.28
				v0.37c0,0.06,0.05,0.11,0.11,0.11C77.65,64.24,77.7,64.19,77.7,64.12z M77.7,63.75L77.7,63.75L77.7,63.75z"/>
			<path fill="#FFFFFF" stroke="#1D2132" stroke-width="0.1" stroke-linecap="square" stroke-miterlimit="10" d="M82.09,66.51
				c0.07-0.28-0.05-0.56-0.31-0.69c-0.01,0-0.01-0.01-0.02-0.01l-3.5-1.66c-0.03-0.01-0.06-0.02-0.09-0.02l-1.18,0
				c-0.03,0-0.06,0.01-0.09,0.02l-3.5,1.66c-0.01,0-0.01,0-0.02,0.01c-0.25,0.13-0.38,0.41-0.31,0.69c0.07,0.28,0.39,0.21,0.68,0.21
				l7.65,0C81.7,66.72,82.02,66.79,82.09,66.51z M77.04,65.16h1.09l3.7,1.06c0.1,0.06,0.08,0.15,0.07,0.18
				c-0.01,0.03-0.04,0.12-0.16,0.12l-8.32,0c-0.12,0-0.15-0.09-0.16-0.12c-0.01-0.03-0.02-0.12,0.07-0.18L77.04,65.16z"/>
		</g>
	</g>
	<g>
		<g>
			
				<rect x="49.48" y="9.36" transform="matrix(-1 -3.267941e-07 3.267941e-07 -1 103.8643 47.1569)" fill="#FFFFFF" stroke="#1D2132" stroke-width="0.1" stroke-linecap="square" stroke-miterlimit="10" width="4.91" height="28.43"/>
			<g>
				<polygon fill="#FFFFFF" stroke="#1D2132" stroke-width="0.1" stroke-linecap="square" stroke-miterlimit="10" points="
					54.39,34.95 54.39,35.46 54.88,35.46 54.88,32.52 54.39,32.52 54.39,33.03 54.71,33.03 54.71,34.95 				"/>
				<polygon fill="#FFFFFF" stroke="#1D2132" stroke-width="0.1" stroke-linecap="square" stroke-miterlimit="10" points="
					54.39,14.13 54.39,14.64 54.88,14.64 54.88,11.7 54.39,11.7 54.39,12.21 54.71,12.21 54.71,14.13 				"/>
			</g>
			<g>
				<polygon fill="#FFFFFF" stroke="#1D2132" stroke-width="0.1" stroke-linecap="square" stroke-miterlimit="10" points="
					54.39,29.48 54.39,29.99 54.88,29.99 54.88,27.04 54.39,27.04 54.39,27.55 54.71,27.55 54.71,29.48 				"/>
				<polygon fill="#FFFFFF" stroke="#1D2132" stroke-width="0.1" stroke-linecap="square" stroke-miterlimit="10" points="
					54.39,19.6 54.39,20.11 54.88,20.11 54.88,17.17 54.39,17.17 54.39,17.68 54.71,17.68 54.71,19.6 				"/>
			</g>
		</g>
		<g>
			<path fill="#FFFFFF" stroke="#1D2132" stroke-width="0.1" stroke-linecap="square" stroke-miterlimit="10" d="M51.36,21.75h0.16
				c0.5,0,0.91,0.41,0.91,0.91v1.84c0,0.5-0.41,0.91-0.91,0.91h-0.16c-0.5,0-0.91-0.41-0.91-0.91v-1.84
				C50.45,22.16,50.86,21.75,51.36,21.75z"/>
			<path fill="#FFFFFF" stroke="#1D2132" stroke-width="0.1" stroke-linecap="square" stroke-miterlimit="10" d="M51.66,22.43
				L51.66,22.43c0.23,0,0.41,0.18,0.41,0.41v1.49c0,0.23-0.18,0.41-0.41,0.41l0,0c-0.23,0-0.41-0.18-0.41-0.41v-1.49
				C51.25,22.61,51.44,22.43,51.66,22.43z"/>
			
				<rect x="51.91" y="17.12" transform="matrix(-1 -3.267797e-07 3.267797e-07 -1 103.9861 47.1569)" fill="#FFFFFF" stroke="#1D2132" stroke-width="0.1" stroke-linecap="square" stroke-miterlimit="10" width="0.17" height="12.92"/>
			<polygon fill="#FFFFFF" stroke="#1D2132" stroke-width="0.1" stroke-linecap="square" stroke-miterlimit="10" points="
				51.57,18.98 51.91,17.12 51.91,30.04 51.57,28.17 			"/>
		</g>
	</g>
</g>
<g id="Doors">
	<g>
		<polygon fill="none" stroke="#1D2132" stroke-width="0.1" stroke-miterlimit="10" points="29.9,81.21 29.9,80.03 29.31,80.03 
			29.31,81.21 		"/>
		<polygon fill="none" stroke="#1D2132" stroke-width="0.1" stroke-miterlimit="10" points="44.38,81.21 44.38,80.03 44.97,80.03 
			44.97,81.21 		"/>
		<polyline fill="none" stroke="#1D2132" stroke-width="0.1" stroke-miterlimit="10" points="40.13,69.86 40.31,70.06 40.49,70.25 
			40.66,70.45 40.84,70.65 41,70.85 41.17,71.07 41.33,71.27 41.49,71.48 41.64,71.7 41.79,71.91 41.94,72.14 42.08,72.36 
			42.22,72.59 42.35,72.81 42.48,73.05 42.61,73.27 42.73,73.51 42.84,73.74 42.96,73.98 43.07,74.23 43.17,74.46 43.28,74.71 
			43.37,74.96 43.47,75.2 43.55,75.45 43.63,75.7 43.72,75.95 43.79,76.21 43.86,76.45 43.93,76.71 43.99,76.97 44.05,77.23 
			44.09,77.49 44.15,77.75 44.19,78.01 44.24,78.27 44.26,78.53 44.29,78.79 44.32,79.06 44.34,79.32 44.35,79.58 44.37,79.85 
			44.38,80.11 		"/>
		<polygon fill="none" stroke="#1D2132" stroke-width="0.1" stroke-miterlimit="10" points="30,80.05 40.13,69.86 40.49,70.25 
			30.42,80.46 		"/>
	</g>
	<g>
		<polygon fill="none" stroke="#1D2132" stroke-width="0.1" stroke-miterlimit="10" points="26.9,67.58 27.99,67.58 27.99,68.01 
			26.9,68.01 		"/>
		<polygon fill="none" stroke="#1D2132" stroke-width="0.1" stroke-miterlimit="10" points="26.9,56.9 27.99,56.9 27.99,56.46 
			26.9,56.46 		"/>
		<polyline fill="none" stroke="#1D2132" stroke-width="0.1" stroke-miterlimit="10" points="35.52,60.03 35.37,59.9 35.23,59.77 
			35.09,59.64 34.94,59.51 34.79,59.38 34.63,59.26 34.49,59.14 34.33,59.03 34.16,58.91 34.01,58.8 33.84,58.7 33.68,58.59 
			33.51,58.49 33.35,58.39 33.17,58.3 33.01,58.2 32.83,58.11 32.66,58.03 32.48,57.94 32.3,57.86 32.13,57.78 31.95,57.71 
			31.76,57.64 31.58,57.57 31.4,57.51 31.21,57.44 31.03,57.38 30.84,57.33 30.66,57.28 30.47,57.23 30.27,57.18 30.08,57.14 
			29.89,57.11 29.7,57.06 29.51,57.04 29.32,57 29.13,56.98 28.94,56.96 28.74,56.94 28.54,56.92 28.35,56.91 28.15,56.91 
			27.96,56.9 		"/>
		<polygon fill="none" stroke="#1D2132" stroke-width="0.1" stroke-miterlimit="10" points="28,67.5 35.52,60.03 35.23,59.77 
			27.7,67.2 		"/>
	</g>
	<g>
		<polygon fill="none" stroke="#1D2132" stroke-width="0.1" stroke-miterlimit="10" points="48.37,59.15 49.44,59.15 49.44,59.64 
			48.37,59.64 		"/>
		<polygon fill="none" stroke="#1D2132" stroke-width="0.1" stroke-miterlimit="10" points="48.37,47.22 49.46,47.22 49.46,46.74 
			48.37,46.74 		"/>
		<polyline fill="none" stroke="#1D2132" stroke-width="0.1" stroke-miterlimit="10" points="58,50.72 57.84,50.57 57.68,50.43 
			57.52,50.28 57.35,50.14 57.19,50 57.01,49.87 56.85,49.73 56.67,49.6 56.49,49.48 56.31,49.35 56.13,49.23 55.94,49.12 55.76,49 
			55.57,48.89 55.38,48.79 55.19,48.68 55,48.58 54.81,48.49 54.61,48.39 54.41,48.3 54.21,48.21 54.01,48.13 53.81,48.05 
			53.6,47.97 53.4,47.9 53.19,47.83 52.99,47.77 52.78,47.71 52.57,47.65 52.36,47.59 52.14,47.54 51.93,47.49 51.72,47.46 
			51.5,47.41 51.29,47.38 51.08,47.34 50.86,47.32 50.65,47.29 50.42,47.27 50.21,47.25 50,47.24 49.77,47.23 49.56,47.22 		"/>
		<polygon fill="none" stroke="#1D2132" stroke-width="0.1" stroke-miterlimit="10" points="49.61,59.07 58,50.72 57.68,50.43 
			49.27,58.73 		"/>
	</g>
</g>
<g id="Windows">
	<polyline fill="none" stroke="#1D2132" stroke-width="0.1" stroke-miterlimit="10" points="61.55,3.16 61.55,2.2 84.65,2.2 
		84.65,3.16 61.55,3.16 	"/>
	<polyline fill="none" stroke="#1D2132" stroke-width="0.1" stroke-miterlimit="10" points="86,4.37 86,2.2 60.19,2.2 60.19,4.37 
		86,4.37 	"/>
	<polyline fill="none" stroke="#1D2132" stroke-width="0.1" stroke-miterlimit="10" points="86.24,3.16 86.63,3.16 86.63,2.2 
		86.24,2.2 86.24,3.16 86.24,2.2 84.65,2.2 84.65,3.16 86.24,3.16 	"/>
	<polyline fill="none" stroke="#1D2132" stroke-width="0.1" stroke-miterlimit="10" points="61.55,3.16 61.55,2.2 59.63,2.2 
		59.63,3.16 61.55,3.16 	"/>
	<polyline fill="none" stroke="#1D2132" stroke-width="0.1" stroke-miterlimit="10" points="60.86,2.2 60.86,0.03 85.32,0.03 
		85.32,2.2 60.86,2.2 	"/>
	<polyline fill="none" stroke="#1D2132" stroke-width="0.1" stroke-miterlimit="10" points="16.31,3.16 16.31,2.2 39.4,2.2 
		39.4,3.16 16.31,3.16 	"/>
	<polyline fill="none" stroke="#1D2132" stroke-width="0.1" stroke-miterlimit="10" points="40.77,4.37 40.77,2.2 14.94,2.2 
		14.94,4.37 40.77,4.37 	"/>
	<polyline fill="none" stroke="#1D2132" stroke-width="0.1" stroke-miterlimit="10" points="41.17,3.16 41.63,3.16 41.63,2.2 
		41.17,2.2 41.17,3.16 41.17,2.2 39.4,2.2 39.4,3.16 41.17,3.16 	"/>
	<polyline fill="none" stroke="#1D2132" stroke-width="0.1" stroke-miterlimit="10" points="16.31,3.16 16.31,2.2 14.63,2.2 
		14.63,3.16 16.31,3.16 	"/>
	<polyline fill="none" stroke="#1D2132" stroke-width="0.1" stroke-miterlimit="10" points="15.62,2.2 15.62,0.03 40.08,0.03 
		40.08,2.2 15.62,2.2 	"/>
</g>
<g id="Text">
	
		<text id="TXT--" transform="matrix(1 0 0 1 68.3404 47.123)" opacity="0.7" fill="#1D2132" enable-background="new    " font-family="'Cannonade-Medium'" font-size="3px">16,30</text>
	
		<text id="TXT---" transform="matrix(1 0 0 1 22.5211 41.2597)" opacity="0.7" fill="#1D2132" enable-background="new    " font-family="'Cannonade-Medium'" font-size="3px">10,73</text>
	
		<text id="TXT--" transform="matrix(1 0 0 1 36.5894 64.9276)" opacity="0.7" fill="#1D2132" enable-background="new    " font-family="'Cannonade-Medium'" font-size="3px">4,26</text>
	
		<text id="TXT--" transform="matrix(1 0 0 1 12.7379 65.6737)" opacity="0.7" fill="#1D2132" enable-background="new    " font-family="'Cannonade-Medium'" font-size="3px">4,81</text>
</g>
<g id="Walls">
	<polyline fill="#1D2132" stroke="#1D2132" stroke-width="0.1" stroke-miterlimit="10" points="100,2.2 97.83,2.2 97.83,69.96 
		100,69.96 100,2.2 	"/>
	<polyline fill="#1D2132" stroke="#1D2132" stroke-width="0.1" stroke-miterlimit="10" points="2.17,2.2 0,2.2 0,81.68 2.17,81.68 
		2.17,2.2 	"/>
	<line fill="none" stroke="#1D2132" stroke-width="0.1" stroke-miterlimit="10" x1="100" y1="2.2" x2="100" y2="2.2"/>
	<polyline fill="#1D2132" stroke="#1D2132" stroke-width="0.1" stroke-miterlimit="10" points="97.83,2.2 86,2.2 86,4.37 
		97.83,4.37 97.83,2.2 	"/>
	<polyline fill="#1D2132" stroke="#1D2132" stroke-width="0.1" stroke-miterlimit="10" points="60.19,2.2 40.77,2.2 40.77,4.37 
		60.19,4.37 60.19,2.2 	"/>
	<polyline fill="#1D2132" stroke="#1D2132" stroke-width="0.1" stroke-miterlimit="10" points="14.94,2.2 2.17,2.2 2.17,4.37 
		14.94,4.37 14.94,2.2 	"/>
	<polyline fill="#1D2132" stroke="#1D2132" stroke-width="0.1" stroke-miterlimit="10" points="0,4.37 0,4.37 0,2.2 	"/>
	<line fill="none" stroke="#1D2132" stroke-width="0.1" stroke-miterlimit="10" x1="0" y1="2.2" x2="0" y2="2.2"/>
	<rect y="0.16" fill="#1D2132" stroke="#1D2132" stroke-width="0.1" stroke-miterlimit="10" width="15.62" height="2.04"/>
	<polyline fill="#1D2132" stroke="#1D2132" stroke-width="0.1" stroke-miterlimit="10" points="40.08,2.2 60.86,2.2 60.86,0.16 
		40.08,0.16 40.08,2.2 	"/>
	<polyline fill="#1D2132" stroke="#1D2132" stroke-width="0.1" stroke-miterlimit="10" points="85.32,2.2 85.32,0.16 100,0.16 
		100,2.2 85.32,2.2 	"/>
	<polyline fill="#1D2132" stroke="#1D2132" stroke-width="0.1" stroke-miterlimit="10" points="2.17,81.68 29.35,81.68 29.35,79.51 
		2.17,79.51 2.17,81.68 	"/>
	<polyline fill="#1D2132" stroke="#1D2132" stroke-width="0.1" stroke-miterlimit="10" points="44.97,79.51 44.97,81.68 
		57.61,81.68 57.61,79.51 44.97,79.51 	"/>
	<polyline fill="#1D2132" stroke="#1D2132" stroke-width="0.1" stroke-miterlimit="10" points="48.37,60.22 57.61,60.22 
		57.61,79.51 56.52,79.51 56.52,61.3 48.37,61.3 48.37,60.22 	"/>
	<polyline fill="#1D2132" stroke="#1D2132" stroke-width="0.1" stroke-miterlimit="10" points="49.46,46.64 48.37,46.64 48.37,4.37 
		49.46,4.37 49.46,46.64 48.37,46.64 	"/>
	<polyline fill="#1D2132" stroke="#1D2132" stroke-width="0.1" stroke-miterlimit="10" points="27.99,46.64 27.99,45.55 2.17,45.55 
		2.17,46.64 26.9,46.64 26.9,56.46 27.99,56.46 27.99,46.64 27.99,46.64 	"/>
	<polyline fill="#1D2132" stroke="#1D2132" stroke-width="0.1" stroke-miterlimit="10" points="26.9,79.51 26.9,68.01 27.99,68.01 
		27.99,79.51 26.9,79.51 	"/>
	<polyline fill="#1D2132" stroke="#1D2132" stroke-width="0.1" stroke-miterlimit="10" points="56.76,68.86 100,68.86 100,69.96 
		56.76,69.96 56.76,68.86 	"/>
	<polyline fill="#1D2132" stroke="#1D2132" stroke-width="0.1" stroke-miterlimit="10" points="48.37,61.3 48.37,59.64 49.44,59.64 
		49.44,61.3 48.37,61.3 	"/>
</g>
<g id="Details">
	<g>
		
			<path fill="none" stroke="#1D2132" stroke-width="0.1" stroke-linecap="round" stroke-linejoin="round" stroke-miterlimit="10" d="
			M4.49,78.06c0,0.51-0.41,0.93-0.93,0.93c-0.51,0-0.93-0.41-0.93-0.93c0-0.51,0.41-0.93,0.93-0.93
			C4.07,77.13,4.49,77.54,4.49,78.06"/>
		
			<path fill="none" stroke="#1D2132" stroke-width="0.1" stroke-linecap="round" stroke-linejoin="round" stroke-miterlimit="10" d="
			M4.31,78.06c0,0.41-0.34,0.75-0.75,0.75s-0.75-0.33-0.75-0.75c0-0.41,0.33-0.75,0.75-0.75S4.31,77.64,4.31,78.06"/>
		
			<path fill="none" stroke="#1D2132" stroke-width="0.1" stroke-linecap="round" stroke-linejoin="round" stroke-miterlimit="10" d="
			M4.27,78.06c0,0.39-0.32,0.7-0.7,0.7s-0.7-0.32-0.7-0.7c0-0.39,0.32-0.7,0.7-0.7S4.27,77.67,4.27,78.06"/>
		
			<line fill="none" stroke="#1D2132" stroke-width="0.1" stroke-linecap="round" stroke-linejoin="round" stroke-miterlimit="10" x1="3.56" y1="79.34" x2="3.56" y2="79.1"/>
		<polygon fill="#1D2132" points="3.56,78.97 3.6,78.98 3.63,79 3.66,79.05 3.66,79.09 3.63,79.14 3.6,79.16 3.56,79.17 3.51,79.16 
			3.48,79.14 3.46,79.09 3.46,79.05 3.48,79 3.51,78.98 		"/>
		
			<polygon fill="none" stroke="#1D2132" stroke-width="0.1" stroke-linecap="round" stroke-linejoin="round" stroke-miterlimit="10" points="
			3.56,78.97 3.6,78.98 3.63,79 3.66,79.05 3.66,79.09 3.63,79.14 3.6,79.16 3.56,79.17 3.51,79.16 3.48,79.14 3.46,79.09 
			3.46,79.05 3.48,79 3.51,78.98 		"/>
		
			<line fill="none" stroke="#1D2132" stroke-width="0.1" stroke-linecap="round" stroke-linejoin="round" stroke-miterlimit="10" x1="3.56" y1="79.03" x2="3.56" y2="78.7"/>
		<polygon fill="#1D2132" points="3.56,78.56 3.6,78.57 3.63,78.59 3.66,78.64 3.66,78.68 3.63,78.73 3.6,78.75 3.56,78.76 
			3.51,78.75 3.48,78.73 3.46,78.68 3.46,78.64 3.48,78.59 3.51,78.57 		"/>
		
			<polygon fill="none" stroke="#1D2132" stroke-width="0.1" stroke-linecap="round" stroke-linejoin="round" stroke-miterlimit="10" points="
			3.56,78.56 3.6,78.57 3.63,78.59 3.66,78.64 3.66,78.68 3.63,78.73 3.6,78.75 3.56,78.76 3.51,78.75 3.48,78.73 3.46,78.68 
			3.46,78.64 3.48,78.59 3.51,78.57 		"/>
		
			<line fill="none" stroke="#1D2132" stroke-width="0.1" stroke-linecap="round" stroke-linejoin="round" stroke-miterlimit="10" x1="3.56" y1="78.62" x2="3.56" y2="78.29"/>
		<polygon fill="#1D2132" points="3.56,78.15 3.6,78.16 3.63,78.18 3.66,78.23 3.66,78.27 3.63,78.32 3.6,78.34 3.56,78.35 
			3.51,78.34 3.48,78.32 3.46,78.27 3.46,78.23 3.48,78.18 3.51,78.16 		"/>
		
			<polygon fill="none" stroke="#1D2132" stroke-width="0.1" stroke-linecap="round" stroke-linejoin="round" stroke-miterlimit="10" points="
			3.56,78.15 3.6,78.16 3.63,78.18 3.66,78.23 3.66,78.27 3.63,78.32 3.6,78.34 3.56,78.35 3.51,78.34 3.48,78.32 3.46,78.27 
			3.46,78.23 3.48,78.18 3.51,78.16 		"/>
		
			<line fill="none" stroke="#1D2132" stroke-width="0.1" stroke-linecap="round" stroke-linejoin="round" stroke-miterlimit="10" x1="3.56" y1="78.21" x2="3.56" y2="77.88"/>
		<polygon fill="#1D2132" points="3.56,77.74 3.6,77.75 3.63,77.77 3.66,77.82 3.66,77.86 3.63,77.91 3.6,77.93 3.56,77.94 
			3.51,77.93 3.48,77.91 3.46,77.86 3.46,77.82 3.48,77.77 3.51,77.75 		"/>
		
			<polygon fill="none" stroke="#1D2132" stroke-width="0.1" stroke-linecap="round" stroke-linejoin="round" stroke-miterlimit="10" points="
			3.56,77.74 3.6,77.75 3.63,77.77 3.66,77.82 3.66,77.86 3.63,77.91 3.6,77.93 3.56,77.94 3.51,77.93 3.48,77.91 3.46,77.86 
			3.46,77.82 3.48,77.77 3.51,77.75 		"/>
		
			<line fill="none" stroke="#1D2132" stroke-width="0.1" stroke-linecap="round" stroke-linejoin="round" stroke-miterlimit="10" x1="3.56" y1="77.81" x2="3.56" y2="77.47"/>
		<polygon fill="#1D2132" points="3.56,77.34 3.6,77.35 3.63,77.37 3.66,77.42 3.66,77.46 3.63,77.51 3.6,77.53 3.56,77.54 
			3.51,77.53 3.48,77.51 3.46,77.46 3.46,77.42 3.48,77.37 3.51,77.35 		"/>
		
			<polygon fill="none" stroke="#1D2132" stroke-width="0.1" stroke-linecap="round" stroke-linejoin="round" stroke-miterlimit="10" points="
			3.56,77.34 3.6,77.35 3.63,77.37 3.66,77.42 3.66,77.46 3.63,77.51 3.6,77.53 3.56,77.54 3.51,77.53 3.48,77.51 3.46,77.46 
			3.46,77.42 3.48,77.37 3.51,77.35 		"/>
		
			<line fill="none" stroke="#1D2132" stroke-width="0.1" stroke-linecap="round" stroke-linejoin="round" stroke-miterlimit="10" x1="3.56" y1="77.4" x2="3.56" y2="77.06"/>
		<polygon fill="#1D2132" points="3.56,76.93 3.6,76.94 3.63,76.96 3.66,77.01 3.66,77.05 3.63,77.1 3.6,77.12 3.56,77.13 
			3.51,77.12 3.48,77.1 3.46,77.05 3.46,77.01 3.48,76.96 3.51,76.94 		"/>
		
			<polygon fill="none" stroke="#1D2132" stroke-width="0.1" stroke-linecap="round" stroke-linejoin="round" stroke-miterlimit="10" points="
			3.56,76.93 3.6,76.94 3.63,76.96 3.66,77.01 3.66,77.05 3.63,77.1 3.6,77.12 3.56,77.13 3.51,77.12 3.48,77.1 3.46,77.05 
			3.46,77.01 3.48,76.96 3.51,76.94 		"/>
		
			<line fill="none" stroke="#1D2132" stroke-width="0.1" stroke-linecap="round" stroke-linejoin="round" stroke-miterlimit="10" x1="3.56" y1="76.99" x2="3.56" y2="76.75"/>
		
			<line fill="none" stroke="#1D2132" stroke-width="0.1" stroke-linecap="round" stroke-linejoin="round" stroke-miterlimit="10" x1="2.26" y1="78.06" x2="2.49" y2="78.06"/>
		<polygon fill="#1D2132" points="2.54,77.96 2.58,77.97 2.61,77.99 2.64,78.04 2.64,78.08 2.61,78.13 2.58,78.15 2.54,78.16 
			2.49,78.15 2.46,78.13 2.44,78.08 2.44,78.04 2.46,77.99 2.49,77.97 		"/>
		
			<polygon fill="none" stroke="#1D2132" stroke-width="0.1" stroke-linecap="round" stroke-linejoin="round" stroke-miterlimit="10" points="
			2.54,77.96 2.58,77.97 2.61,77.99 2.64,78.04 2.64,78.08 2.61,78.13 2.58,78.15 2.54,78.16 2.49,78.15 2.46,78.13 2.44,78.08 
			2.44,78.04 2.46,77.99 2.49,77.97 		"/>
		
			<line fill="none" stroke="#1D2132" stroke-width="0.1" stroke-linecap="round" stroke-linejoin="round" stroke-miterlimit="10" x1="2.57" y1="78.06" x2="2.9" y2="78.06"/>
		<polygon fill="#1D2132" points="2.93,77.96 2.98,77.97 3.01,77.99 3.03,78.04 3.03,78.08 3.01,78.13 2.98,78.15 2.93,78.16 
			2.89,78.15 2.86,78.13 2.84,78.08 2.84,78.04 2.86,77.99 2.89,77.97 		"/>
		
			<polygon fill="none" stroke="#1D2132" stroke-width="0.1" stroke-linecap="round" stroke-linejoin="round" stroke-miterlimit="10" points="
			2.93,77.96 2.98,77.97 3.01,77.99 3.03,78.04 3.03,78.08 3.01,78.13 2.98,78.15 2.93,78.16 2.89,78.15 2.86,78.13 2.84,78.08 
			2.84,78.04 2.86,77.99 2.89,77.97 		"/>
		
			<line fill="none" stroke="#1D2132" stroke-width="0.1" stroke-linecap="round" stroke-linejoin="round" stroke-miterlimit="10" x1="2.98" y1="78.06" x2="3.31" y2="78.06"/>
		<polygon fill="#1D2132" points="3.35,77.96 3.39,77.97 3.42,77.99 3.44,78.04 3.44,78.08 3.42,78.13 3.39,78.15 3.35,78.16 
			3.3,78.15 3.27,78.13 3.25,78.08 3.25,78.04 3.27,77.99 3.3,77.97 		"/>
		
			<polygon fill="none" stroke="#1D2132" stroke-width="0.1" stroke-linecap="round" stroke-linejoin="round" stroke-miterlimit="10" points="
			3.35,77.96 3.39,77.97 3.42,77.99 3.44,78.04 3.44,78.08 3.42,78.13 3.39,78.15 3.35,78.16 3.3,78.15 3.27,78.13 3.25,78.08 
			3.25,78.04 3.27,77.99 3.3,77.97 		"/>
		
			<line fill="none" stroke="#1D2132" stroke-width="0.1" stroke-linecap="round" stroke-linejoin="round" stroke-miterlimit="10" x1="3.39" y1="78.06" x2="3.71" y2="78.06"/>
		<polygon fill="#1D2132" points="3.76,77.96 3.8,77.97 3.83,77.99 3.86,78.04 3.86,78.08 3.83,78.13 3.8,78.15 3.76,78.16 
			3.71,78.15 3.68,78.13 3.66,78.08 3.66,78.04 3.68,77.99 3.71,77.97 		"/>
		
			<polygon fill="none" stroke="#1D2132" stroke-width="0.1" stroke-linecap="round" stroke-linejoin="round" stroke-miterlimit="10" points="
			3.76,77.96 3.8,77.97 3.83,77.99 3.86,78.04 3.86,78.08 3.83,78.13 3.8,78.15 3.76,78.16 3.71,78.15 3.68,78.13 3.66,78.08 
			3.66,78.04 3.68,77.99 3.71,77.97 		"/>
		
			<line fill="none" stroke="#1D2132" stroke-width="0.1" stroke-linecap="round" stroke-linejoin="round" stroke-miterlimit="10" x1="3.8" y1="78.06" x2="4.12" y2="78.06"/>
		<polygon fill="#1D2132" points="4.17,77.96 4.21,77.97 4.24,77.99 4.27,78.04 4.27,78.08 4.24,78.13 4.21,78.15 4.17,78.16 
			4.12,78.15 4.09,78.13 4.07,78.08 4.07,78.04 4.09,77.99 4.12,77.97 		"/>
		
			<polygon fill="none" stroke="#1D2132" stroke-width="0.1" stroke-linecap="round" stroke-linejoin="round" stroke-miterlimit="10" points="
			4.17,77.96 4.21,77.97 4.24,77.99 4.27,78.04 4.27,78.08 4.24,78.13 4.21,78.15 4.17,78.16 4.12,78.15 4.09,78.13 4.07,78.08 
			4.07,78.04 4.09,77.99 4.12,77.97 		"/>
		
			<line fill="none" stroke="#1D2132" stroke-width="0.1" stroke-linecap="round" stroke-linejoin="round" stroke-miterlimit="10" x1="4.2" y1="78.06" x2="4.53" y2="78.06"/>
		<polygon fill="#1D2132" points="4.58,77.96 4.62,77.97 4.65,77.99 4.68,78.04 4.68,78.08 4.65,78.13 4.62,78.15 4.58,78.16 
			4.53,78.15 4.5,78.13 4.48,78.08 4.48,78.04 4.5,77.99 4.53,77.97 		"/>
		
			<polygon fill="none" stroke="#1D2132" stroke-width="0.1" stroke-linecap="round" stroke-linejoin="round" stroke-miterlimit="10" points="
			4.58,77.96 4.62,77.97 4.65,77.99 4.68,78.04 4.68,78.08 4.65,78.13 4.62,78.15 4.58,78.16 4.53,78.15 4.5,78.13 4.48,78.08 
			4.48,78.04 4.5,77.99 4.53,77.97 		"/>
		
			<line fill="none" stroke="#1D2132" stroke-width="0.1" stroke-linecap="round" stroke-linejoin="round" stroke-miterlimit="10" x1="4.61" y1="78.06" x2="4.84" y2="78.06"/>
		
			<polyline fill="none" stroke="#1D2132" stroke-width="0.1" stroke-linecap="round" stroke-linejoin="round" stroke-miterlimit="10" points="
			2.19,79.41 2.19,76.7 4.91,76.7 4.91,79.41 2.19,79.41 		"/>
		
			<path fill="none" stroke="#1D2132" stroke-width="0.1" stroke-linecap="round" stroke-linejoin="round" stroke-miterlimit="10" d="
			M4.53,78.06c0,0.54-0.43,0.97-0.97,0.97s-0.97-0.43-0.97-0.97s0.43-0.97,0.97-0.97S4.53,77.52,4.53,78.06"/>
	</g>
</g>
</svg>
