<?xml version="1.0" encoding="utf-8"?>
<!-- Generator: Adobe Illustrator 22.0.0, SVG Export Plug-In . SVG Version: 6.00 Build 0)  -->
<svg version="1.1" id="Layer_1" xmlns="http://www.w3.org/2000/svg" xmlns:xlink="http://www.w3.org/1999/xlink" x="0px" y="0px"
	 viewBox="0 0 80 110" enable-background="new 0 0 80 110" xml:space="preserve">
<g id="Background">
	<rect x="2" y="12" opacity="0.1" fill="#1D2132" enable-background="new    " width="73.57" height="94"/>
</g>
<g id="Plumbing">
	<g>
		<polyline fill="#FFFFFF" points="27.12,37.18 27.12,37.08 27.12,36.98 27.1,36.78 27.06,36.6 26.98,36.42 26.9,36.24 26.8,36.1 
			26.67,35.95 26.55,35.82 26.35,35.67 26.13,35.54 25.91,35.42 25.68,35.33 25.44,35.24 25.22,35.17 24.99,35.12 24.75,35.06 
			24.51,35.02 24.26,35.01 24.05,34.99 23.83,35.01 23.59,35.03 23.34,35.06 23.11,35.12 22.88,35.17 22.63,35.25 22.41,35.33 
			22.18,35.42 21.96,35.54 21.74,35.67 21.55,35.82 21.42,35.95 21.29,36.1 21.19,36.24 21.1,36.42 21.04,36.6 21,36.78 
			20.96,36.98 20.96,37.18 20.96,39.93 27.12,39.93 27.12,37.18 		"/>
		
			<line fill="none" stroke="#1D2132" stroke-width="0.1" stroke-linecap="square" stroke-miterlimit="10" x1="20.96" y1="39.93" x2="27.12" y2="39.93"/>
		
			<line fill="none" stroke="#1D2132" stroke-width="0.1" stroke-linecap="square" stroke-miterlimit="10" x1="20.96" y1="37.18" x2="20.96" y2="39.93"/>
		
			<line fill="none" stroke="#1D2132" stroke-width="0.1" stroke-linecap="square" stroke-miterlimit="10" x1="27.12" y1="37.18" x2="27.12" y2="39.93"/>
		
			<line fill="none" stroke="#1D2132" stroke-width="0.1" stroke-linecap="square" stroke-miterlimit="10" x1="25.01" y1="39.93" x2="23.08" y2="39.93"/>
		
			<line fill="none" stroke="#1D2132" stroke-width="0.1" stroke-linecap="square" stroke-miterlimit="10" x1="23.85" y1="37.72" x2="23.53" y2="37.72"/>
		
			<line fill="none" stroke="#1D2132" stroke-width="0.1" stroke-linecap="square" stroke-miterlimit="10" x1="24.05" y1="37.91" x2="24.05" y2="38.26"/>
		
			<line fill="none" stroke="#1D2132" stroke-width="0.1" stroke-linecap="square" stroke-miterlimit="10" x1="24.57" y1="37.72" x2="24.24" y2="37.72"/>
		
			<line fill="none" stroke="#1D2132" stroke-width="0.1" stroke-linecap="square" stroke-miterlimit="10" x1="24.05" y1="37.17" x2="24.05" y2="37.51"/>
		<path fill="none" stroke="#1D2132" stroke-width="0.1" stroke-linecap="square" stroke-miterlimit="10" d="M26.75,37
			c-0.22,0.57-0.59,1.05-1.07,1.38"/>
		<path fill="none" stroke="#1D2132" stroke-width="0.1" stroke-linecap="square" stroke-miterlimit="10" d="M25.68,38.38
			c-0.43,0.28-0.92,0.41-1.42,0.41c-0.07,0-0.15,0-0.22-0.01"/>
		<path fill="none" stroke="#1D2132" stroke-width="0.1" stroke-linecap="square" stroke-miterlimit="10" d="M22.41,38.39
			c-0.48-0.34-0.86-0.81-1.07-1.38"/>
		<path fill="none" stroke="#1D2132" stroke-width="0.1" stroke-linecap="square" stroke-miterlimit="10" d="M24.04,38.78
			c-0.07,0.01-0.15,0.01-0.22,0.01c-0.51,0-1-0.15-1.42-0.41"/>
		<path fill="none" stroke="#1D2132" stroke-width="0.1" stroke-linecap="square" stroke-miterlimit="10" d="M24.27,35
			c0.65,0.05,1.28,0.22,1.87,0.53"/>
		<path fill="none" stroke="#1D2132" stroke-width="0.1" stroke-linecap="square" stroke-miterlimit="10" d="M20.96,37.17
			c0-0.01,0-0.04,0-0.06c0-0.5,0.22-0.97,0.59-1.29"/>
		<path fill="none" stroke="#1D2132" stroke-width="0.1" stroke-linecap="square" stroke-miterlimit="10" d="M23.83,35.01
			C23.9,35,23.98,35,24.04,35c0.07,0,0.15,0,0.22,0.01"/>
		<path fill="none" stroke="#1D2132" stroke-width="0.1" stroke-linecap="square" stroke-miterlimit="10" d="M25.76,38.27
			c-0.56,0.09-1.14,0.14-1.72,0.14c-0.56,0-1.14-0.05-1.71-0.14"/>
		<path fill="none" stroke="#1D2132" stroke-width="0.1" stroke-linecap="square" stroke-miterlimit="10" d="M24.06,39.52
			c-0.58,0-1.16-0.04-1.74-0.13"/>
		<path fill="none" stroke="#1D2132" stroke-width="0.1" stroke-linecap="square" stroke-miterlimit="10" d="M21.98,39.24
			c-0.56-0.67-0.87-1.53-0.87-2.43c0-0.02,0-0.03,0-0.05"/>
		<path fill="none" stroke="#1D2132" stroke-width="0.1" stroke-linecap="square" stroke-miterlimit="10" d="M22.31,39.41
			c-0.11-0.02-0.24-0.09-0.32-0.18"/>
		<path fill="none" stroke="#1D2132" stroke-width="0.1" stroke-linecap="square" stroke-miterlimit="10" d="M26.98,36.77
			c0,0.01,0,0.03,0,0.04c0,0.89-0.3,1.76-0.87,2.43"/>
		<path fill="none" stroke="#1D2132" stroke-width="0.1" stroke-linecap="square" stroke-miterlimit="10" d="M25.79,39.4
			c-0.58,0.08-1.15,0.13-1.74,0.13"/>
		<path fill="none" stroke="#1D2132" stroke-width="0.1" stroke-linecap="square" stroke-miterlimit="10" d="M26.1,39.21
			c-0.09,0.1-0.2,0.16-0.32,0.18"/>
		<path fill="none" stroke="#1D2132" stroke-width="0.1" stroke-linecap="square" stroke-miterlimit="10" d="M26.54,35.83
			c0.37,0.31,0.59,0.79,0.59,1.29c0,0.01,0,0.04,0,0.06"/>
		<path fill="none" stroke="#1D2132" stroke-width="0.1" stroke-linecap="square" stroke-miterlimit="10" d="M26.14,35.55
			c0.14,0.07,0.28,0.17,0.4,0.28"/>
		<path fill="none" stroke="#1D2132" stroke-width="0.1" stroke-linecap="square" stroke-miterlimit="10" d="M21.55,35.81
			c0.12-0.1,0.26-0.2,0.4-0.28"/>
		<path fill="none" stroke="#1D2132" stroke-width="0.1" stroke-linecap="square" stroke-miterlimit="10" d="M21.97,35.55
			c0.58-0.3,1.22-0.48,1.87-0.53"/>
		<path fill="none" stroke="#1D2132" stroke-width="0.1" stroke-linecap="square" stroke-miterlimit="10" d="M23.2,35.46
			c0.28-0.06,0.57-0.1,0.85-0.1s0.58,0.04,0.85,0.1"/>
		<path fill="none" stroke="#1D2132" stroke-width="0.1" stroke-linecap="square" stroke-miterlimit="10" d="M26.44,36.2
			c0.2,0.2,0.32,0.46,0.32,0.75c0,0.02,0,0.04,0,0.06"/>
		<path fill="none" stroke="#1D2132" stroke-width="0.1" stroke-linecap="square" stroke-miterlimit="10" d="M24.9,35.45
			c0.56,0.12,1.08,0.38,1.53,0.75"/>
		<path fill="none" stroke="#1D2132" stroke-width="0.1" stroke-linecap="square" stroke-miterlimit="10" d="M21.35,37.01
			c0-0.02,0-0.04,0-0.06c0-0.29,0.11-0.56,0.32-0.75"/>
		<path fill="none" stroke="#1D2132" stroke-width="0.1" stroke-linecap="square" stroke-miterlimit="10" d="M21.66,36.21
			c0.45-0.4,0.97-0.65,1.54-0.75"/>
		<path fill="none" stroke="#1D2132" stroke-width="0.1" stroke-linecap="square" stroke-miterlimit="10" d="M24.05,38.14
			c0.21,0,0.4-0.19,0.4-0.42s-0.18-0.42-0.4-0.42s-0.4,0.19-0.4,0.42S23.83,38.14,24.05,38.14"/>
		<path fill="none" stroke="#1D2132" stroke-width="0.1" stroke-linecap="square" stroke-miterlimit="10" d="M24.05,37.95
			c0.11,0,0.21-0.1,0.22-0.22c0-0.13-0.09-0.22-0.22-0.22c-0.12,0-0.22,0.09-0.22,0.22C23.83,37.85,23.93,37.95,24.05,37.95"/>
	</g>
	<g>
		<polygon fill="#FFFFFF" points="41.54,25.08 39.99,25.08 39.98,25.08 39.95,25.06 39.93,25.06 39.91,25.04 39.89,25.04 
			39.87,25.04 39.85,25.04 39.84,25.04 39.83,25.01 39.8,25 39.79,24.98 39.79,24.97 39.78,24.96 39.76,24.94 39.75,24.92 
			39.74,24.9 35.64,24.9 35.53,24.9 35.43,24.9 35.33,24.87 35.23,24.85 35.14,24.82 35.04,24.8 34.95,24.76 34.85,24.73 
			34.77,24.67 34.69,24.63 34.61,24.58 34.53,24.53 34.45,24.46 34.38,24.39 34.31,24.32 34.24,24.25 34.18,24.18 34.12,24.1 
			34.07,24.02 34.03,23.94 33.98,23.87 33.93,23.78 33.89,23.68 33.86,23.61 33.83,23.51 33.81,23.42 33.78,23.33 33.75,23.24 
			33.74,23.14 33.74,23.05 33.74,22.95 33.74,22.86 33.74,22.76 33.74,22.67 33.74,22.57 33.75,22.48 33.78,22.39 33.81,22.29 
			33.83,22.2 33.86,22.11 33.89,22.03 33.93,21.95 33.98,21.86 34.03,21.77 34.07,21.68 34.12,21.62 34.18,21.54 34.24,21.47 
			34.31,21.4 34.38,21.33 34.45,21.26 34.53,21.2 34.61,21.14 34.69,21.09 34.77,21.04 34.85,20.99 34.95,20.96 35.04,20.91 
			35.14,20.9 35.23,20.86 35.33,20.84 35.43,20.83 35.53,20.83 35.64,20.82 39.74,20.82 39.75,20.8 39.76,20.78 39.78,20.76 
			39.79,20.76 39.79,20.73 39.8,20.72 39.83,20.71 39.84,20.69 39.85,20.68 39.87,20.67 39.89,20.66 39.91,20.66 39.93,20.66 
			39.95,20.66 39.98,20.64 39.99,20.64 41.54,20.64 41.54,22.86 		"/>
		
			<line fill="none" stroke="#1D2132" stroke-width="0.1" stroke-linecap="square" stroke-miterlimit="10" x1="35.64" y1="20.82" x2="39.74" y2="20.82"/>
		
			<line fill="none" stroke="#1D2132" stroke-width="0.1" stroke-linecap="square" stroke-miterlimit="10" x1="41.54" y1="25.08" x2="41.54" y2="20.64"/>
		
			<line fill="none" stroke="#1D2132" stroke-width="0.1" stroke-linecap="square" stroke-miterlimit="10" x1="39.99" y1="20.64" x2="41.54" y2="20.64"/>
		
			<line fill="none" stroke="#1D2132" stroke-width="0.1" stroke-linecap="square" stroke-miterlimit="10" x1="39.02" y1="24.51" x2="39.02" y2="22.86"/>
		
			<line fill="none" stroke="#1D2132" stroke-width="0.1" stroke-linecap="square" stroke-miterlimit="10" x1="39.02" y1="21.21" x2="35.64" y2="20.82"/>
		
			<line fill="none" stroke="#1D2132" stroke-width="0.1" stroke-linecap="square" stroke-miterlimit="10" x1="39.02" y1="21.21" x2="39.02" y2="22.86"/>
		
			<line fill="none" stroke="#1D2132" stroke-width="0.1" stroke-linecap="square" stroke-miterlimit="10" x1="39.02" y1="24.51" x2="35.64" y2="24.9"/>
		
			<line fill="none" stroke="#1D2132" stroke-width="0.1" stroke-linecap="square" stroke-miterlimit="10" x1="35.64" y1="24.9" x2="39.74" y2="24.9"/>
		
			<line fill="none" stroke="#1D2132" stroke-width="0.1" stroke-linecap="square" stroke-miterlimit="10" x1="39.99" y1="25.08" x2="41.54" y2="25.08"/>
		<path fill="none" stroke="#1D2132" stroke-width="0.1" stroke-linecap="square" stroke-miterlimit="10" d="M39.74,20.87
			c-0.07,0.66-0.11,1.33-0.11,1.99s0.03,1.33,0.1,1.99"/>
		<path fill="none" stroke="#1D2132" stroke-width="0.1" stroke-linecap="square" stroke-miterlimit="10" d="M40,20.64
			c-0.13,0-0.25,0.1-0.27,0.23"/>
		<path fill="none" stroke="#1D2132" stroke-width="0.1" stroke-linecap="square" stroke-miterlimit="10" d="M35.64,20.82
			c-1.05,0-1.9,0.91-1.9,2.04c0,1.13,0.85,2.04,1.9,2.04"/>
		<path fill="none" stroke="#1D2132" stroke-width="0.1" stroke-linecap="square" stroke-miterlimit="10" d="M39.73,24.85
			c0.02,0.13,0.14,0.23,0.27,0.23"/>
		<path fill="none" stroke="#1D2132" stroke-width="0.1" stroke-linecap="square" stroke-miterlimit="10" d="M40.78,22.86
			c0,0.11-0.09,0.2-0.22,0.21c-0.11,0-0.22-0.09-0.22-0.21s0.11-0.21,0.22-0.21C40.67,22.65,40.78,22.75,40.78,22.86"/>
	</g>
	<g>
		<path fill="#FFFFFF" d="M31.07,29.43h10.37c0.07,0,0.1,0.04,0.1,0.1v10.38c0,0.07-0.04,0.1-0.1,0.1H31.08
			c-0.07,0-0.1-0.04-0.1-0.1V29.52C30.97,29.48,31.03,29.43,31.07,29.43z"/>
		
			<line fill="none" stroke="#1D2132" stroke-width="0.1" stroke-linecap="square" stroke-miterlimit="10" x1="38.86" y1="37.65" x2="38.86" y2="38.33"/>
		
			<line fill="none" stroke="#1D2132" stroke-width="0.1" stroke-linecap="square" stroke-miterlimit="10" x1="39.84" y1="37.37" x2="39.16" y2="37.37"/>
		
			<line fill="none" stroke="#1D2132" stroke-width="0.1" stroke-linecap="square" stroke-miterlimit="10" x1="38.86" y1="36.41" x2="38.86" y2="37.07"/>
		
			<line fill="none" stroke="#1D2132" stroke-width="0.1" stroke-linecap="square" stroke-miterlimit="10" x1="38.58" y1="37.37" x2="37.9" y2="37.37"/>
		
			<line fill="none" stroke="#1D2132" stroke-width="0.1" stroke-linecap="square" stroke-miterlimit="10" x1="31.57" y1="36.54" x2="31.57" y2="39.37"/>
		
			<line fill="none" stroke="#1D2132" stroke-width="0.1" stroke-linecap="square" stroke-miterlimit="10" x1="40.98" y1="30.18" x2="40.98" y2="36.66"/>
		<path fill="none" stroke="#1D2132" stroke-width="0.1" stroke-linecap="square" stroke-miterlimit="10" d="M40.87,30.07h-9.14
			c-0.09,0-0.16,0.08-0.16,0.16v9.14"/>
		
			<line fill="none" stroke="#1D2132" stroke-width="0.1" stroke-linecap="square" stroke-miterlimit="10" x1="38.16" y1="39.49" x2="31.68" y2="39.49"/>
		<g>
			<path fill="none" stroke="#1D2132" stroke-width="0.1" stroke-linecap="square" stroke-miterlimit="10" d="M38.15,39.5
				c0.05,0,0.13-0.01,0.18-0.03"/>
		</g>
		<g>
			<path fill="none" stroke="#1D2132" stroke-width="0.1" stroke-linecap="square" stroke-miterlimit="10" d="M31.57,39.37
				c0,0.06,0.05,0.11,0.11,0.11"/>
		</g>
		<g>
			<path fill="none" stroke="#1D2132" stroke-width="0.1" stroke-linecap="square" stroke-miterlimit="10" d="M38.15,39.5
				c0.05,0,0.13-0.01,0.18-0.03"/>
		</g>
		<g>
			<path fill="none" stroke="#1D2132" stroke-width="0.1" stroke-linecap="square" stroke-miterlimit="10" d="M40.98,30.18
				c0-0.06-0.05-0.11-0.11-0.11"/>
		</g>
		<g>
			<path fill="none" stroke="#1D2132" stroke-width="0.1" stroke-linecap="square" stroke-miterlimit="10" d="M38.26,39.49
				c1.17-0.61,2.12-1.55,2.71-2.71"/>
		</g>
		<g>
			<path fill="none" stroke="#1D2132" stroke-width="0.1" stroke-linecap="square" stroke-miterlimit="10" d="M40.96,36.84
				c0.02-0.06,0.03-0.13,0.03-0.19"/>
		</g>
		<g>
			<path fill="none" stroke="#1D2132" stroke-width="0.1" stroke-linecap="square" stroke-miterlimit="10" d="M38.34,39.45
				c1.23-0.41,2.2-1.38,2.62-2.62"/>
		</g>
		<g>
			<path fill="none" stroke="#1D2132" stroke-width="0.1" stroke-linecap="square" stroke-miterlimit="10" d="M40.96,36.84
				c0.02-0.06,0.03-0.13,0.03-0.19"/>
		</g>
		<g>
			<path fill="none" stroke="#1D2132" stroke-width="0.1" stroke-linecap="square" stroke-miterlimit="10" d="M38.86,37.91
				c-0.28,0-0.53-0.26-0.52-0.52c0-0.28,0.24-0.52,0.52-0.52c0.29,0,0.53,0.23,0.52,0.52C39.39,37.67,39.15,37.91,38.86,37.91"/>
		</g>
		<g>
			<path fill="none" stroke="#1D2132" stroke-width="0.1" stroke-linecap="square" stroke-miterlimit="10" d="M38.86,38.11
				c-0.41,0-0.73-0.33-0.75-0.75c0-0.41,0.34-0.75,0.75-0.75s0.75,0.34,0.75,0.75S39.28,38.11,38.86,38.11"/>
		</g>
		<path fill="none" stroke="#1D2132" stroke-width="0.1" stroke-linecap="square" stroke-miterlimit="10" d="M31.26,29.5h10
			c0.15,0,0.28,0.13,0.28,0.28v9.98c0,0.15-0.13,0.28-0.28,0.28h-10c-0.15,0-0.28-0.13-0.28-0.28V29.75
			C30.97,29.61,31.1,29.48,31.26,29.5z"/>
	</g>
	<g>
		<g>
			<path fill="#FFFFFF" stroke="#1D2132" stroke-width="0.1" stroke-linecap="square" stroke-miterlimit="10" d="M25.92,16.49
				c0.09,0,0.17,0.06,0.17,0.14s-0.08,0.14-0.17,0.14s-0.17-0.06-0.17-0.14C25.75,16.56,25.82,16.49,25.92,16.49z"/>
			
				<ellipse fill="#FFFFFF" stroke="#1D2132" stroke-width="0.1" stroke-linecap="square" stroke-miterlimit="10" cx="25.19" cy="16.63" rx="0.17" ry="0.14"/>
			<path fill="#FFFFFF" stroke="#1D2132" stroke-width="0.1" stroke-linecap="square" stroke-miterlimit="10" d="M22.22,16.49
				c0.09,0,0.17,0.06,0.17,0.14s-0.08,0.14-0.17,0.14s-0.17-0.06-0.17-0.14C22.04,16.56,22.11,16.5,22.22,16.49z"/>
			<path fill="#FFFFFF" stroke="#1D2132" stroke-width="0.1" stroke-linecap="square" stroke-miterlimit="10" d="M26.09,16.63
				c0.38,0,0.69-0.08,0.69-0.18v-0.46c0-0.1-0.31-0.18-0.69-0.18h-4.04c-0.38,0-0.69,0.08-0.69,0.18v0.46c0,0.1,0.31,0.18,0.69,0.18
				H26.09z"/>
			
				<rect x="21.03" y="12.34" fill="#FFFFFF" stroke="#1D2132" stroke-width="0.1" stroke-linecap="square" stroke-miterlimit="10" width="6.02" height="4.05"/>
			<path fill="#FFFFFF" stroke="#1D2132" stroke-width="0.1" stroke-linecap="square" stroke-miterlimit="10" d="M26.09,16.17
				c0.38,0,0.69-0.66,0.69-1.48v-0.66c0-0.82-0.31-1.48-0.69-1.48h-4.04c-0.38,0-0.69,0.66-0.69,1.48v0.66
				c0,0.82,0.31,1.48,0.69,1.48H26.09z"/>
		</g>
		<g>
			<path fill="#FFFFFF" stroke="#1D2132" stroke-width="0.1" stroke-linecap="square" stroke-miterlimit="10" d="M22.03,12.91v-0.02
				c0-0.08,0.06-0.14,0.14-0.14h3.81c0.08,0,0.14,0.06,0.14,0.14v0.02c0,0.08-0.06,0.14-0.14,0.14h-3.81
				C22.09,13.05,22.03,12.99,22.03,12.91z"/>
			<g>
				
					<rect x="25.71" y="12.12" fill="#FFFFFF" stroke="#1D2132" stroke-width="0.1" stroke-linecap="square" stroke-miterlimit="10" width="0.24" height="0.65"/>
				
					<rect x="22.18" y="12.12" fill="#FFFFFF" stroke="#1D2132" stroke-width="0.1" stroke-linecap="square" stroke-miterlimit="10" width="0.24" height="0.65"/>
			</g>
			<g>
				
					<rect x="25.57" y="12" fill="#FFFFFF" stroke="#1D2132" stroke-width="0.1" stroke-linecap="square" stroke-miterlimit="10" width="0.51" height="0.12"/>
				
					<rect x="22.05" y="12" fill="#FFFFFF" stroke="#1D2132" stroke-width="0.1" stroke-linecap="square" stroke-miterlimit="10" width="0.51" height="0.12"/>
			</g>
		</g>
	</g>
</g>
<g id="Furniture">
	<g>
		
			<rect x="43.02" y="12" fill="#FFFFFF" stroke="#1D2132" stroke-width="0.1" stroke-linecap="square" stroke-miterlimit="22.9256" width="28.87" height="6.82"/>
		
			<rect x="54.43" y="12.01" fill="#FFFFFF" stroke="#1D2132" stroke-width="0.1" stroke-linecap="square" stroke-miterlimit="22.9256" width="5.31" height="6.82"/>
		
			<rect x="42.72" y="12" fill="#FFFFFF" stroke="#1D2132" stroke-width="0.1" stroke-linecap="square" stroke-miterlimit="22.9256" width="6.02" height="6.82"/>
		
			<rect x="66.03" y="12" fill="#FFFFFF" stroke="#1D2132" stroke-width="0.1" stroke-linecap="square" stroke-miterlimit="22.9256" width="5.86" height="6.82"/>
		<g>
			
				<line fill="none" stroke="#1D2132" stroke-width="0.1" stroke-linecap="square" stroke-miterlimit="22.9256" x1="68.89" y1="14.56" x2="68.89" y2="16.26"/>
			
				<line fill="none" stroke="#1D2132" stroke-width="0.1" stroke-linecap="square" stroke-miterlimit="22.9256" x1="69.49" y1="14.81" x2="68.28" y2="16.02"/>
			
				<line fill="none" stroke="#1D2132" stroke-width="0.1" stroke-linecap="square" stroke-miterlimit="22.9256" x1="69.74" y1="15.41" x2="68.03" y2="15.41"/>
			
				<line fill="none" stroke="#1D2132" stroke-width="0.1" stroke-linecap="square" stroke-miterlimit="22.9256" x1="69.49" y1="16.02" x2="68.28" y2="14.81"/>
		</g>
		<g>
			
				<rect x="55.14" y="12.29" fill="#FFFFFF" stroke="#1D2132" stroke-width="0.1" stroke-linecap="square" stroke-miterlimit="22.9256" width="3.97" height="6.26"/>
			<g>
				<path fill="#FFFFFF" stroke="#1D2132" stroke-width="0.1" stroke-linecap="square" stroke-miterlimit="22.9256" d="M56.03,16.84
					c0-0.61,0.49-1.08,1.08-1.08c0.61,0,1.08,0.48,1.08,1.08c0,0.6-0.48,1.08-1.08,1.08C56.52,17.93,56.03,17.44,56.03,16.84"/>
				<path fill="#FFFFFF" stroke="#1D2132" stroke-width="0.1" stroke-linecap="square" stroke-miterlimit="22.9256" d="M56.03,13.76
					c0-0.6,0.49-1.08,1.08-1.08c0.61,0,1.08,0.48,1.08,1.08c0,0.61-0.48,1.08-1.08,1.08C56.52,14.85,56.03,14.36,56.03,13.76"/>
				<path fill="#FFFFFF" stroke="#1D2132" stroke-width="0.1" stroke-linecap="square" stroke-miterlimit="22.9256" d="M56.25,16.84
					c0-0.48,0.4-0.86,0.86-0.86c0.48,0,0.86,0.4,0.86,0.86c0,0.48-0.4,0.86-0.86,0.86C56.64,17.72,56.25,17.32,56.25,16.84"/>
				<path fill="#FFFFFF" stroke="#1D2132" stroke-width="0.1" stroke-linecap="square" stroke-miterlimit="22.9256" d="M56.25,13.76
					c0-0.48,0.4-0.86,0.86-0.86c0.48,0,0.86,0.4,0.86,0.86c0,0.48-0.4,0.86-0.86,0.86C56.64,14.63,56.25,14.25,56.25,13.76"/>
			</g>
		</g>
		<g>
			<path fill="#FFFFFF" stroke="#1D2132" stroke-width="0.1" stroke-linecap="square" stroke-miterlimit="22.9256" d="M47.05,13.28
				h-2.63c-0.23,0-0.4,0.17-0.4,0.4v4.34c0,0.23,0.17,0.4,0.4,0.4h2.63c0.23,0,0.4-0.17,0.4-0.4v-4.34
				C47.44,13.45,47.27,13.28,47.05,13.28z"/>
			<g>
				<path fill="#FFFFFF" stroke="#1D2132" stroke-width="0.1" stroke-linecap="square" stroke-miterlimit="22.9256" d="M45.46,14.25
					c0,0.17,0.13,0.31,0.28,0.31s0.28-0.14,0.28-0.31c0-0.17-0.13-0.31-0.28-0.31C45.59,13.93,45.45,14.07,45.46,14.25z"/>
				<g>
					<path fill="#FFFFFF" stroke="#1D2132" stroke-width="0.1" stroke-linecap="square" stroke-miterlimit="22.9256" d="
						M45.26,12.85c0.01,0.23,0.21,0.43,0.47,0.43c0.27,0,0.47-0.19,0.47-0.43s-0.21-0.43-0.47-0.43S45.26,12.61,45.26,12.85z"/>
					<path fill="#FFFFFF" stroke="#1D2132" stroke-width="0.1" stroke-linecap="square" stroke-miterlimit="22.9256" d="
						M45.75,15.25c0.09,0,0.14-0.09,0.14-0.23l-0.01-2.22c0-0.13-0.06-0.23-0.14-0.23l0,0c-0.09,0-0.14,0.1-0.14,0.23l0.01,2.22
						C45.61,15.16,45.66,15.25,45.75,15.25L45.75,15.25z"/>
					<path fill="#FFFFFF" stroke="#1D2132" stroke-width="0.1" stroke-linecap="square" stroke-miterlimit="22.9256" d="
						M45.09,12.87c0,0.08,0.29,0.13,0.65,0.13c0.35,0,0.65-0.06,0.65-0.13c0-0.09-0.29-0.13-0.65-0.13
						C45.37,12.73,45.07,12.78,45.09,12.87z"/>
				</g>
			</g>
		</g>
	</g>
	<g>
		<g>
			<g>
				
					<rect x="63.48" y="95.46" transform="matrix(-2.238584e-10 1 -1 -2.238584e-10 167.7744 36.1229)" fill="#FFFFFF" stroke="#1D1D1B" stroke-width="0.1" stroke-linecap="square" stroke-miterlimit="10" width="4.7" height="12.98"/>
				<g>
					<polygon fill="#FFFFFF" stroke="#1D1D1B" stroke-width="0.1" stroke-linecap="square" stroke-miterlimit="10" points="
						61.11,99.6 60.62,99.6 60.62,99.13 63.44,99.13 63.44,99.6 62.95,99.6 62.95,99.29 61.11,99.29 					"/>
					<polygon fill="#FFFFFF" stroke="#1D1D1B" stroke-width="0.1" stroke-linecap="square" stroke-miterlimit="10" points="
						68.7,99.6 68.21,99.6 68.21,99.13 71.03,99.13 71.03,99.6 70.54,99.6 70.54,99.29 68.7,99.29 					"/>
				</g>
			</g>
		</g>
		<g>
			<path fill="#FFFFFF" stroke="#1D1D1B" stroke-width="0.1" stroke-linecap="square" stroke-miterlimit="10" d="M64.1,102.88
				l-0.01-0.08c-0.08-0.5,0.26-0.97,0.76-1.05l1.66-0.27c0.5-0.08,0.97,0.26,1.05,0.76l0.01,0.08c0.08,0.5-0.26,0.97-0.76,1.05
				l-1.66,0.27C64.65,103.72,64.18,103.38,64.1,102.88z"/>
			<path fill="#FFFFFF" stroke="#1D1D1B" stroke-width="0.1" stroke-linecap="square" stroke-miterlimit="10" d="M64.71,102.53
				L64.71,102.53c-0.03-0.21,0.11-0.41,0.32-0.45l1.4-0.23c0.21-0.03,0.41,0.11,0.45,0.32v0c0.03,0.21-0.11,0.41-0.32,0.45
				l-1.4,0.23C64.94,102.89,64.74,102.74,64.71,102.53z"/>
			
				<rect x="65.66" y="95.86" transform="matrix(0.159 0.9873 -0.9873 0.159 156.032 20.9107)" fill="#FFFFFF" stroke="#1D1D1B" stroke-width="0.1" stroke-linecap="square" stroke-miterlimit="10" width="0.16" height="12.36"/>
			<polygon fill="#FFFFFF" stroke="#1D1D1B" stroke-width="0.1" stroke-linecap="square" stroke-miterlimit="10" points="
				61.47,103.14 59.65,103.1 71.86,101.14 70.14,101.74 			"/>
		</g>
	</g>
	<g>
		<path fill="#FFFFFF" stroke="#1D2132" stroke-width="0.1" stroke-linecap="square" stroke-miterlimit="10" d="M27.6,64.08
			c-0.85,0.17-2.39,1.31-2.1,2.6c0.14,0.64-0.16,1.02-0.05,2.79c0.05,0.77,0,2.11,1.12,3.25s3.09,1.63,5.96-0.37
			s2.77-5.12,1.25-6.34c-1.52-1.22-2.65-1-3.52-1.34C29.39,64.32,29.15,63.76,27.6,64.08z"/>
		<path fill="none" stroke="#1D2132" stroke-width="0.1" stroke-linecap="square" stroke-miterlimit="10" d="M26.57,72.73
			c0,0-0.72-1.13-0.72-1.86c0.02-1.45-0.24-1.19-0.06-2.99c0.06-0.54,0.44-0.59,0.42-0.7s-0.09-0.85,0.55-1.37
			c0.64-0.53,1.12-0.92,2-0.99c0.54-0.05,0.98,0.16,1.07,0.31c0.15,0.26,0.26-0.01,1.2,0.08c1.33,0.13,1.63,0.38,2.29,0.86
			c0.66,0.47,0.89,0.5,1.18,1.14c0.29,0.63,0.32,1.23,0.32,1.23"/>
		<path fill="none" stroke="#1D2132" stroke-width="0.1" stroke-linecap="square" stroke-miterlimit="10" d="M27.25,70.68
			c0,0,0.74-0.21,0.77-0.64c0.04-0.43,0.12-0.71,0.15-0.84c0.03-0.13,0.03-0.13,0.03-0.13s-0.41-0.63-0.77-0.98
			c-0.36-0.35-0.48-0.39-0.48-0.39"/>
		<path fill="none" stroke="#1D2132" stroke-width="0.1" stroke-linecap="square" stroke-miterlimit="10" d="M28.2,69.07
			c0,0,0.47-0.24,1.12-0.61s1.26-1.01,1.26-1.01s-0.22-0.52-0.4-1.01s-0.19-0.77-0.19-0.77"/>
		<path fill="none" stroke="#1D2132" stroke-width="0.1" stroke-linecap="square" stroke-miterlimit="10" d="M32.82,66.95
			c0,0-0.15,0.62-0.42,0.91c-0.27,0.29-0.47,0.27-0.99,0.06c-0.52-0.21-0.83-0.47-0.83-0.47"/>
		<path fill="none" stroke="#1D2132" stroke-width="0.1" stroke-linecap="square" stroke-miterlimit="10" d="M28.91,71.41
			c0,0,1.04-0.04,1.51-0.3c0.48-0.26,0.48-0.26,0.48-0.26s0.11,0.04,0.26,0.25s0.19,0.39,0.19,0.39"/>
		<path fill="none" stroke="#1D2132" stroke-width="0.1" stroke-linecap="square" stroke-miterlimit="10" d="M30.9,70.85
			c0,0,0.35-0.43,0.73-0.66s0.7-0.62,0.76-0.82c0.05-0.2,0.05-0.2,0.05-0.2s0.24-0.1,0.45,0"/>
		<path fill="none" stroke="#1D2132" stroke-width="0.1" stroke-linecap="square" stroke-miterlimit="10" d="M28.91,71.41
			c0,0-0.12,0.33-0.05,0.51s0.17,0.32,0.17,0.32"/>
		<path fill="#FFFFFF" stroke="#1D2132" stroke-width="0.1" stroke-linecap="square" stroke-miterlimit="10" d="M26.7,66.19
			c0,0,0.09-0.08,0.04-0.11c-0.1-0.06-0.21-0.26-0.14-0.35c0.12-0.15,0.34-0.21,0.57-0.41c0.23-0.2,0.32-0.46,0.53-0.45
			c0.13,0.01,0.18,0.32,0.23,0.35c0.04,0.02,0.13-0.06,0.13-0.06l-0.26-0.41c0,0-0.25-0.16-0.5,0.04s-0.43,0.28-0.66,0.48
			c-0.23,0.2-0.42,0.32-0.3,0.58S26.7,66.19,26.7,66.19z"/>
	</g>
	<g>
		<path fill="#FFFFFF" stroke="#1D2132" stroke-width="0.1" stroke-linecap="square" stroke-miterlimit="10" d="M15.87,43.56
			c-0.7,0.11-1.45,0.1-2.25,0c-0.65,0-1.17-0.52-1.17-1.17c-0.24-1.38-0.38-2.85,0-4.75c0-0.65,0.52-1.17,1.17-1.17
			c0.75-0.18,1.5-0.18,2.25,0c0.65,0,1.17,0.52,1.17,1.17c0.23,1.54,0.18,3.13,0,4.75C17.04,43.03,16.51,43.56,15.87,43.56z"/>
		<g>
			<path fill="#FFFFFF" stroke="#1D2132" stroke-width="0.1" stroke-linecap="square" stroke-miterlimit="10" d="M12.69,37.4
				c0-0.36,0.32-0.65,0.7-0.65"/>
			<path fill="#FFFFFF" stroke="#1D2132" stroke-width="0.1" stroke-linecap="square" stroke-miterlimit="10" d="M13.39,43.28
				c-0.39,0-0.7-0.29-0.7-0.65"/>
			<path fill="#FFFFFF" stroke="#1D2132" stroke-width="0.1" stroke-linecap="square" stroke-miterlimit="10" d="M16.79,42.63
				c0,0.36-0.32,0.65-0.7,0.65"/>
			<path fill="#FFFFFF" stroke="#1D2132" stroke-width="0.1" stroke-linecap="square" stroke-miterlimit="10" d="M16.09,36.75
				c0.39,0,0.7,0.29,0.7,0.65"/>
		</g>
	</g>
	<g>
		
			<rect x="18.09" y="36.14" fill="#FFFFFF" stroke="#1D2132" stroke-width="0.1" stroke-linecap="square" stroke-miterlimit="10" width="0.62" height="7.42"/>
		
			<rect x="18.09" y="36.55" fill="#FFFFFF" stroke="#1D2132" stroke-width="0.1" stroke-linecap="square" stroke-miterlimit="10" width="0.37" height="6.6"/>
	</g>
	<g>
		
			<rect x="18.05" y="14.16" fill="#FFFFFF" stroke="#1D2132" stroke-width="0.1" stroke-linecap="square" stroke-miterlimit="10" width="0.62" height="4.94"/>
		<g>
			
				<rect x="17.11" y="18.48" fill="#FFFFFF" stroke="#1D2132" stroke-width="0.1" stroke-linecap="square" stroke-miterlimit="10" width="0.94" height="0.27"/>
			
				<rect x="17.87" y="18.48" fill="#FFFFFF" stroke="#1D2132" stroke-width="0.1" stroke-linecap="square" stroke-miterlimit="10" width="0.17" height="0.27"/>
		</g>
		<g>
			
				<rect x="17.11" y="17.15" fill="#FFFFFF" stroke="#1D2132" stroke-width="0.1" stroke-linecap="square" stroke-miterlimit="10" width="0.94" height="0.27"/>
			
				<rect x="17.87" y="17.15" fill="#FFFFFF" stroke="#1D2132" stroke-width="0.1" stroke-linecap="square" stroke-miterlimit="10" width="0.17" height="0.27"/>
		</g>
		<g>
			
				<rect x="17.11" y="15.83" fill="#FFFFFF" stroke="#1D2132" stroke-width="0.1" stroke-linecap="square" stroke-miterlimit="10" width="0.94" height="0.27"/>
			
				<rect x="17.87" y="15.83" fill="#FFFFFF" stroke="#1D2132" stroke-width="0.1" stroke-linecap="square" stroke-miterlimit="10" width="0.17" height="0.27"/>
		</g>
		<g>
			
				<rect x="17.11" y="14.51" fill="#FFFFFF" stroke="#1D2132" stroke-width="0.1" stroke-linecap="square" stroke-miterlimit="10" width="0.94" height="0.27"/>
			
				<rect x="17.87" y="14.51" fill="#FFFFFF" stroke="#1D2132" stroke-width="0.1" stroke-linecap="square" stroke-miterlimit="10" width="0.17" height="0.27"/>
		</g>
	</g>
	<g>
		<g>
			<g>
				
					<rect x="65.42" y="63.18" transform="matrix(4.492679e-11 -1 1 4.492679e-11 2.2376 133.2944)" fill="#FFFFFF" stroke="#1D2132" stroke-width="0.1" stroke-linecap="square" stroke-miterlimit="10" width="4.7" height="4.7"/>
				<polygon fill="#FFFFFF" stroke="#1D2132" stroke-width="0.1" stroke-linecap="square" stroke-miterlimit="10" points="
					68.69,67.88 69.17,67.88 69.17,68.35 66.36,68.35 66.36,67.88 66.85,67.88 66.85,68.18 68.69,68.18 				"/>
			</g>
			<g>
				
					<rect x="36.87" y="63.18" transform="matrix(4.415230e-11 -1 1 4.415230e-11 -26.3068 104.75)" fill="#FFFFFF" stroke="#1D2132" stroke-width="0.1" stroke-linecap="square" stroke-miterlimit="10" width="4.7" height="4.7"/>
				<polygon fill="#FFFFFF" stroke="#1D2132" stroke-width="0.1" stroke-linecap="square" stroke-miterlimit="10" points="
					40.14,67.88 40.63,67.88 40.63,68.35 37.81,68.35 37.81,67.88 38.3,67.88 38.3,68.18 40.14,68.18 				"/>
			</g>
		</g>
		<g>
			<g>
				
					<rect x="42.37" y="62.78" fill="#FFFFFF" stroke="#1D2132" stroke-width="0.1" stroke-linecap="square" stroke-miterlimit="22.9256" width="22.25" height="24.72"/>
				<path fill="#FFFFFF" stroke="#1D2132" stroke-width="0.1" stroke-linecap="square" stroke-miterlimit="22.9256" d="M42.62,64.49
					c0,0-0.05,0.61,0,1.19c0.08,0.98,0.12,1.6,0.12,2.61c0,1.01-0.14,1.1-0.02,1.26c0.12,0.16,0.14,0.38,0,0.63
					c-0.14,0.25-0.03,1.67-0.03,2.64c0,0.98-0.11,2.51-0.07,3.36c0.03,0.85,0.16,0.53,0.3,0.59c0.14,0.06-0.11,0.76-0.23,0.88
					c-0.12,0.13-0.07,0.67-0.08,2.52c-0.02,1.86,0.13,3.39,0.09,4.39c-0.02,0.62,0,0.97,0.03,1.13c0.07,0.37-0.01,0.21-0.01,0.63
					c0.01,0.48,0.28-0.61,0.16-0.01c-0.08,0.41-0.24,0.8-0.12,0.71c0.12-0.09,0.34-0.49,0.41-0.55c0.07-0.06,0.28-0.39,0.21-0.13
					c-0.07,0.25-0.81,0.81-0.62,0.84c0.22,0.04,0.91,0.06,2.57,0.06c1.64,0,12.98,0,13.07-0.16c0.09-0.16,0.09-0.09,0.19,0
					c0.1,0.09,2.11-0.03,2.5,0.09c0.4,0.13,1,0.09,1.09-0.06c0.09-0.16,0.07-0.19,0.16-0.06c0.09,0.13,0.79,0.16,1.16,0.16
					c0.54,0,0.73,0.2,0.49-0.21c-0.24-0.41-0.22-0.72-0.06-0.47c0.16,0.25,0.2,0.59,0.3,0.66c0.1,0.06,0.08,0.3,0.1-0.36
					c0.02-0.66,0.11-4.49,0.08-5.75c-0.03-1.26,0.01-2.24-0.03-2.42c-0.11-0.49,0.07-1.17,0.03-2.26c-0.05-1.36-0.04-3.48-0.05-5.02
					c-0.02-1.54-0.02-1.98,0-3.11c0.02-1.13-0.23-1.56-0.11-1.92c0.24-0.71,0.03-1.01-0.01-1.54c-0.03-0.54,0.09-1.33,0.07-1.6
					c-0.02-0.21-0.38,0.6-0.53,0.47c-0.15-0.13,0.65-0.5,0.35-0.58c-0.3-0.08-4.09,0.08-4.38,0c-0.29-0.08-0.21,0-0.21,0
					s-0.88,0-1.52,0c-0.64,0-14.29,0-14.63,0c-0.35,0-0.69,0.07-0.35,0.21c0.34,0.14-0.35-0.03-0.38,0.25
					C42.6,63.81,42.73,64.22,42.62,64.49z"/>
				<path fill="#FFFFFF" stroke="#1D2132" stroke-width="0.1" stroke-linecap="square" stroke-miterlimit="22.9256" d="M42.31,69.63
					c-0.1,0.73-0.04,4.23,0.05,4.23c0.09,0-0.23-1.2,0.38-1.9c0.62-0.7,1.29-1.2,1.1-0.98c-0.18,0.22-0.2,0.25-0.4,0.41
					c-0.2,0.16-0.4,0.22-0.29,0.29c0.11,0.06,0.77-0.11,1.35-0.29c0.74-0.23,2.61,0,3.44,0.05c2.12,0.15,14.05,0.53,15.37,1.48
					c1.32,0.95,1.2,1.11,1.28,1.42c0.07,0.32-0.07,1.29,0.05,0.8c0.12-0.49,0.02-1.49,0.1-2.46c0.09-0.98,0.2-1.3,0.05-1.36
					c-0.14-0.06-1.77-0.94-1.53-0.8c0.06,0.04,1.44,0.67,1.55,0.64c0.11-0.03,0.03-0.34,0-0.7c-0.04-0.48-0.04-0.48-0.09-0.48
					c-0.24,0-0.96-0.08-1.85-0.05c-0.89,0.03-0.11-0.19,0.38-0.06c0.49,0.13,0.05-0.13-0.85-0.38c-0.91-0.25-14.17,0.28-14.82,0.06
					c-0.65-0.22-2.86-0.51-3.68-0.13C43.11,69.81,42.39,69.09,42.31,69.63z"/>
				<g>
					<path fill="#FFFFFF" stroke="#1D2132" stroke-width="0.1" stroke-linecap="square" stroke-miterlimit="22.9256" d="
						M54.62,62.91c-0.34,0-0.26,0.06-0.17,0.16c0.09,0.11,0.13,0.27,0,0.97c-0.13,0.7-0.17,1.23,0.04,1.9
						c0.21,0.67,0.1,0.75,0.01,0.93c-0.09,0.18-0.04,0.32,0.21,0.18c0.26-0.14,1,0.06,1.61,0.09c2.35,0.11,3.37,0.01,5.01-0.08
						c0.35-0.02,0.65-0.13,0.82-0.1c0.17,0.03,0.38-0.03,0.25-0.14c-0.13-0.11,0.17-1.26,0.09-2.11c-0.09-0.84-0.04-1.32,0.01-1.43
						c0.04-0.11-0.09-0.42-0.25-0.28c-0.17,0.14-0.86-0.07-1.2-0.11c-0.34-0.03-1.08-0.14-2.91-0.11c-1.83,0.03-2.63,0.02-2.93,0.13
						C54.91,63.02,54.7,62.91,54.62,62.91z"/>
					<path fill="none" stroke="#1D2132" stroke-width="0.1" stroke-linecap="square" stroke-miterlimit="22.9256" d="M54.94,66.58
						c0,0,1.4,0.47,3.49,0.47c2.09,0,3.6-0.65,3.6-0.65"/>
				</g>
				<g>
					<path fill="#FFFFFF" stroke="#1D2132" stroke-width="0.1" stroke-linecap="square" stroke-miterlimit="22.9256" d="
						M55.66,65.17c-0.25,0-0.19,0.04-0.13,0.13c0.06,0.09,0.09,0.21,0,0.78c-0.09,0.57-0.12,1,0.03,1.54
						c0.16,0.54,0.07,0.61,0.01,0.75c-0.06,0.14-0.03,0.26,0.15,0.14c0.19-0.11,0.73,0.05,1.17,0.07c1.71,0.09,2.45,0,3.64-0.06
						c0.25-0.01,0.47-0.11,0.6-0.08c0.12,0.03,0.28-0.03,0.19-0.11c-0.09-0.09,0.12-1.02,0.06-1.71c-0.06-0.68-0.03-1.07,0.01-1.15
						c0.03-0.09-0.06-0.34-0.19-0.23c-0.12,0.11-0.62-0.06-0.87-0.09c-0.25-0.03-0.78-0.11-2.11-0.09c-1.33,0.03-1.91,0.02-2.13,0.1
						C55.87,65.25,55.72,65.17,55.66,65.17z"/>
					<path fill="none" stroke="#1D2132" stroke-width="0.1" stroke-linecap="square" stroke-miterlimit="22.9256" d="M55.89,68.14
						c0,0,1.01,0.38,2.53,0.38c1.52,0,2.62-0.53,2.62-0.53"/>
				</g>
				<g>
					<path fill="#FFFFFF" stroke="#1D2132" stroke-width="0.1" stroke-linecap="square" stroke-miterlimit="22.9256" d="
						M44.87,62.91c-0.34,0-0.26,0.06-0.17,0.16c0.09,0.11,0.13,0.27,0,0.97c-0.13,0.7-0.17,1.23,0.04,1.9
						c0.21,0.67,0.1,0.75,0.01,0.93c-0.09,0.18-0.04,0.32,0.21,0.18c0.26-0.14,1,0.06,1.61,0.09c2.35,0.11,3.37,0.01,5.01-0.08
						c0.35-0.02,0.65-0.13,0.82-0.1c0.17,0.03,0.38-0.03,0.25-0.14c-0.13-0.11,0.17-1.26,0.09-2.11c-0.09-0.84-0.04-1.32,0.01-1.43
						c0.04-0.11-0.09-0.42-0.25-0.28c-0.17,0.14-0.86-0.07-1.2-0.11c-0.34-0.03-1.08-0.14-2.91-0.11c-1.83,0.03-2.63,0.02-2.93,0.13
						C45.16,63.02,44.96,62.91,44.87,62.91z"/>
					<path fill="none" stroke="#1D2132" stroke-width="0.1" stroke-linecap="square" stroke-miterlimit="22.9256" d="M45.2,66.58
						c0,0,1.4,0.47,3.49,0.47c2.09,0,3.6-0.65,3.6-0.65"/>
				</g>
				<g>
					<path fill="#FFFFFF" stroke="#1D2132" stroke-width="0.1" stroke-linecap="square" stroke-miterlimit="22.9256" d="
						M45.91,65.17c-0.25,0-0.19,0.04-0.13,0.13c0.06,0.09,0.09,0.21,0,0.78c-0.09,0.57-0.12,1,0.03,1.54
						c0.16,0.54,0.07,0.61,0.01,0.75c-0.06,0.14-0.03,0.26,0.15,0.14c0.19-0.11,0.73,0.05,1.17,0.07c1.71,0.09,2.45,0,3.64-0.06
						c0.25-0.01,0.47-0.11,0.6-0.08c0.12,0.03,0.28-0.03,0.19-0.11c-0.09-0.09,0.12-1.02,0.06-1.71c-0.06-0.68-0.03-1.07,0.01-1.15
						c0.03-0.09-0.06-0.34-0.19-0.23c-0.12,0.11-0.62-0.06-0.87-0.09c-0.25-0.03-0.78-0.11-2.11-0.09c-1.33,0.03-1.91,0.02-2.13,0.1
						C46.12,65.25,45.98,65.17,45.91,65.17z"/>
					<path fill="none" stroke="#1D2132" stroke-width="0.1" stroke-linecap="square" stroke-miterlimit="22.9256" d="M46.15,68.14
						c0,0,1.01,0.38,2.53,0.38c1.52,0,2.62-0.53,2.62-0.53"/>
				</g>
				<path fill="#FFFFFF" stroke="#1D2132" stroke-width="0.1" stroke-linecap="square" stroke-miterlimit="22.9256" d="M64.1,87.27
					H42.72c-0.35,0-0.62-0.28-0.62-0.62v-6.79c0-0.35,0.28-0.62,0.62-0.62H64.1c0.35,0,0.62,0.28,0.62,0.62v6.79
					C64.73,86.99,64.45,87.27,64.1,87.27z"/>
			</g>
			<g>
				
					<rect x="38.66" y="61.69" fill="#FFFFFF" stroke="#1D2132" stroke-width="0.1" stroke-linecap="square" stroke-miterlimit="22.9256" width="29.66" height="0.62"/>
				<path fill="#FFFFFF" stroke="#1D2132" stroke-width="0.1" stroke-linecap="square" stroke-miterlimit="22.9256" d="M67.59,62.78
					h-28.2c-0.26,0-0.47-0.21-0.47-0.47l0,0h29.14l0,0C68.06,62.57,67.85,62.78,67.59,62.78z"/>
				<g>
					<g>
						<g>
							<path fill="#FFFFFF" stroke="#1D2132" stroke-width="0.1" stroke-linecap="square" stroke-miterlimit="22.9256" d="
								M67.33,62.31H66.4v0.11c0,0.26,0.21,0.47,0.47,0.47h0c0.26,0,0.47-0.21,0.47-0.47V62.31z"/>
							<path fill="#FFFFFF" stroke="#1D2132" stroke-width="0.1" stroke-linecap="square" stroke-miterlimit="22.9256" d="
								M63.92,65.77l0.7,0.17c0.04,0.4,0.02,0.79-0.05,1.18l0,0c-0.02,0.1-0.3,0.12-0.61,0.05c-0.31-0.07-0.55-0.22-0.52-0.32l0,0
								C63.53,66.48,63.69,66.12,63.92,65.77z"/>
							
								<ellipse transform="matrix(0.2315 -0.9728 0.9728 0.2315 -14.675 113.1339)" fill="#FFFFFF" stroke="#1D2132" stroke-width="0.1" stroke-linecap="square" stroke-miterlimit="22.9256" cx="64.27" cy="65.86" rx="0.12" ry="0.36"/>
							<path fill="#FFFFFF" stroke="#1D2132" stroke-width="0.1" stroke-linecap="square" stroke-miterlimit="22.9256" d="
								M64.36,65.82l0.03-0.07c0,0,0.16-0.39,0.74-0.68c0.11-0.05,0.23-0.1,0.35-0.16c0.37-0.16,0.79-0.33,1.07-0.69
								c0.37-0.47,0.37-1.22,0.37-1.25l0-0.08l-0.16,0l0,0.08c0,0.01,0,0.72-0.34,1.15c-0.26,0.33-0.64,0.49-1.01,0.64
								c-0.13,0.05-0.25,0.1-0.36,0.16c-0.63,0.32-0.81,0.75-0.81,0.77l-0.03,0.07C64.22,65.8,64.31,65.83,64.36,65.82z"/>
						</g>
					</g>
					<g>
						<g>
							<path fill="#FFFFFF" stroke="#1D2132" stroke-width="0.1" stroke-linecap="square" stroke-miterlimit="22.9256" d="
								M39.66,62.31h0.93v0.11c0,0.26-0.21,0.47-0.47,0.47l0,0c-0.26,0-0.47-0.21-0.47-0.47V62.31z"/>
							<path fill="#FFFFFF" stroke="#1D2132" stroke-width="0.1" stroke-linecap="square" stroke-miterlimit="22.9256" d="
								M43.07,65.77l-0.7,0.17c-0.04,0.4-0.02,0.79,0.05,1.18l0,0c0.02,0.1,0.3,0.12,0.61,0.05c0.31-0.07,0.55-0.22,0.52-0.32l0,0
								C43.46,66.48,43.29,66.12,43.07,65.77z"/>
							
								<ellipse transform="matrix(0.9728 -0.2315 0.2315 0.9728 -14.0853 11.6783)" fill="#FFFFFF" stroke="#1D2132" stroke-width="0.1" stroke-linecap="square" stroke-miterlimit="22.9256" cx="42.72" cy="65.86" rx="0.36" ry="0.12"/>
							<path fill="#FFFFFF" stroke="#1D2132" stroke-width="0.1" stroke-linecap="square" stroke-miterlimit="22.9256" d="
								M42.62,65.82l-0.03-0.07c0,0-0.16-0.39-0.74-0.68c-0.11-0.05-0.23-0.1-0.35-0.16c-0.37-0.16-0.79-0.33-1.07-0.69
								c-0.37-0.47-0.37-1.22-0.37-1.25l0-0.08l0.16,0l0,0.08c0,0.01,0,0.72,0.34,1.15c0.26,0.33,0.64,0.49,1.01,0.64
								c0.13,0.05,0.25,0.1,0.36,0.16c0.63,0.32,0.81,0.75,0.81,0.77l0.03,0.07C42.77,65.8,42.68,65.83,42.62,65.82z"/>
						</g>
					</g>
				</g>
			</g>
		</g>
	</g>
	<g>
		<g>
			
				<rect x="34.9" y="105.25" transform="matrix(-1 -3.267945e-07 3.267945e-07 -1 79.6795 211.2352)" fill="#FFFFFF" stroke="#1D2132" stroke-width="0.1" stroke-linecap="square" stroke-miterlimit="10" width="9.89" height="0.74"/>
			
				<line fill="none" stroke="#1D2132" stroke-width="0.1" stroke-linecap="square" stroke-miterlimit="10" x1="44.01" y1="105.84" x2="44.01" y2="105.4"/>
			
				<line fill="none" stroke="#1D2132" stroke-width="0.1" stroke-linecap="square" stroke-miterlimit="10" x1="43.74" y1="105.84" x2="43.74" y2="105.4"/>
			
				<line fill="none" stroke="#1D2132" stroke-width="0.1" stroke-linecap="square" stroke-miterlimit="10" x1="44.54" y1="105.84" x2="44.54" y2="105.4"/>
			
				<line fill="none" stroke="#1D2132" stroke-width="0.1" stroke-linecap="square" stroke-miterlimit="10" x1="44.27" y1="105.84" x2="44.27" y2="105.4"/>
			
				<line fill="none" stroke="#1D2132" stroke-width="0.1" stroke-linecap="square" stroke-miterlimit="10" x1="43.47" y1="105.84" x2="43.47" y2="105.4"/>
			
				<line fill="none" stroke="#1D2132" stroke-width="0.1" stroke-linecap="square" stroke-miterlimit="10" x1="43.2" y1="105.84" x2="43.2" y2="105.4"/>
			
				<line fill="none" stroke="#1D2132" stroke-width="0.1" stroke-linecap="square" stroke-miterlimit="10" x1="42.94" y1="105.84" x2="42.94" y2="105.4"/>
			
				<line fill="none" stroke="#1D2132" stroke-width="0.1" stroke-linecap="square" stroke-miterlimit="10" x1="42.67" y1="105.84" x2="42.67" y2="105.4"/>
			
				<line fill="none" stroke="#1D2132" stroke-width="0.1" stroke-linecap="square" stroke-miterlimit="10" x1="42.4" y1="105.84" x2="42.4" y2="105.4"/>
			
				<line fill="none" stroke="#1D2132" stroke-width="0.1" stroke-linecap="square" stroke-miterlimit="10" x1="42.14" y1="105.84" x2="42.14" y2="105.4"/>
			
				<line fill="none" stroke="#1D2132" stroke-width="0.1" stroke-linecap="square" stroke-miterlimit="10" x1="41.34" y1="105.84" x2="41.34" y2="105.4"/>
			
				<line fill="none" stroke="#1D2132" stroke-width="0.1" stroke-linecap="square" stroke-miterlimit="10" x1="41.07" y1="105.84" x2="41.07" y2="105.4"/>
			
				<line fill="none" stroke="#1D2132" stroke-width="0.1" stroke-linecap="square" stroke-miterlimit="10" x1="41.87" y1="105.84" x2="41.87" y2="105.4"/>
			
				<line fill="none" stroke="#1D2132" stroke-width="0.1" stroke-linecap="square" stroke-miterlimit="10" x1="41.6" y1="105.84" x2="41.6" y2="105.4"/>
			
				<line fill="none" stroke="#1D2132" stroke-width="0.1" stroke-linecap="square" stroke-miterlimit="10" x1="40.8" y1="105.84" x2="40.8" y2="105.4"/>
			
				<line fill="none" stroke="#1D2132" stroke-width="0.1" stroke-linecap="square" stroke-miterlimit="10" x1="40.54" y1="105.84" x2="40.54" y2="105.4"/>
			
				<line fill="none" stroke="#1D2132" stroke-width="0.1" stroke-linecap="square" stroke-miterlimit="10" x1="40.27" y1="105.84" x2="40.27" y2="105.4"/>
			
				<line fill="none" stroke="#1D2132" stroke-width="0.1" stroke-linecap="square" stroke-miterlimit="10" x1="40" y1="105.84" x2="40" y2="105.4"/>
			
				<line fill="none" stroke="#1D2132" stroke-width="0.1" stroke-linecap="square" stroke-miterlimit="10" x1="39.74" y1="105.84" x2="39.74" y2="105.4"/>
			
				<line fill="none" stroke="#1D2132" stroke-width="0.1" stroke-linecap="square" stroke-miterlimit="10" x1="39.47" y1="105.84" x2="39.47" y2="105.4"/>
			
				<line fill="none" stroke="#1D2132" stroke-width="0.1" stroke-linecap="square" stroke-miterlimit="10" x1="38.67" y1="105.84" x2="38.67" y2="105.4"/>
			
				<line fill="none" stroke="#1D2132" stroke-width="0.1" stroke-linecap="square" stroke-miterlimit="10" x1="38.4" y1="105.84" x2="38.4" y2="105.4"/>
			
				<line fill="none" stroke="#1D2132" stroke-width="0.1" stroke-linecap="square" stroke-miterlimit="10" x1="39.2" y1="105.84" x2="39.2" y2="105.4"/>
			
				<line fill="none" stroke="#1D2132" stroke-width="0.1" stroke-linecap="square" stroke-miterlimit="10" x1="38.93" y1="105.84" x2="38.93" y2="105.4"/>
			
				<line fill="none" stroke="#1D2132" stroke-width="0.1" stroke-linecap="square" stroke-miterlimit="10" x1="38.13" y1="105.84" x2="38.13" y2="105.4"/>
			
				<line fill="none" stroke="#1D2132" stroke-width="0.1" stroke-linecap="square" stroke-miterlimit="10" x1="37.87" y1="105.84" x2="37.87" y2="105.4"/>
			
				<line fill="none" stroke="#1D2132" stroke-width="0.1" stroke-linecap="square" stroke-miterlimit="10" x1="37.6" y1="105.84" x2="37.6" y2="105.4"/>
			
				<line fill="none" stroke="#1D2132" stroke-width="0.1" stroke-linecap="square" stroke-miterlimit="10" x1="37.33" y1="105.84" x2="37.33" y2="105.4"/>
			
				<line fill="none" stroke="#1D2132" stroke-width="0.1" stroke-linecap="square" stroke-miterlimit="10" x1="37.07" y1="105.84" x2="37.07" y2="105.4"/>
			
				<line fill="none" stroke="#1D2132" stroke-width="0.1" stroke-linecap="square" stroke-miterlimit="10" x1="36.8" y1="105.84" x2="36.8" y2="105.4"/>
			
				<line fill="none" stroke="#1D2132" stroke-width="0.1" stroke-linecap="square" stroke-miterlimit="10" x1="36" y1="105.84" x2="36" y2="105.4"/>
			
				<line fill="none" stroke="#1D2132" stroke-width="0.1" stroke-linecap="square" stroke-miterlimit="10" x1="35.73" y1="105.84" x2="35.73" y2="105.4"/>
			
				<line fill="none" stroke="#1D2132" stroke-width="0.1" stroke-linecap="square" stroke-miterlimit="10" x1="36.53" y1="105.84" x2="36.53" y2="105.4"/>
			
				<line fill="none" stroke="#1D2132" stroke-width="0.1" stroke-linecap="square" stroke-miterlimit="10" x1="36.27" y1="105.84" x2="36.27" y2="105.4"/>
			
				<line fill="none" stroke="#1D2132" stroke-width="0.1" stroke-linecap="square" stroke-miterlimit="10" x1="35.47" y1="105.84" x2="35.47" y2="105.4"/>
			
				<line fill="none" stroke="#1D2132" stroke-width="0.1" stroke-linecap="square" stroke-miterlimit="10" x1="35.2" y1="105.84" x2="35.2" y2="105.4"/>
		</g>
		<path fill="none" stroke="#1D2132" stroke-width="0.1" stroke-linecap="square" stroke-miterlimit="10" d="M53.71,105.1
			c-0.39,0,0-0.69-0.39-0.69c-0.39,0,0,0.69-0.39,0.69c-0.39,0,0-0.69-0.39-0.69s0,0.69-0.39,0.69s0-0.69-0.39-0.69
			c-0.39,0,0,0.69-0.39,0.69c-0.39,0,0-0.69-0.39-0.69s0,0.69-0.39,0.69s0-0.69-0.39-0.69s0,0.69-0.39,0.69
			c-0.39,0,0-0.69-0.39-0.69c-0.39,0,0,0.69-0.39,0.69s0-0.69-0.39-0.69s0,0.69-0.39,0.69s0-0.69-0.39-0.69
			c-0.39,0,0,0.69-0.39,0.69c-0.39,0,0-0.69-0.39-0.69s0,0.69-0.39,0.69s0-0.69-0.39-0.69c-0.39,0,0,0.69-0.39,0.69
			c-0.39,0,0-0.69-0.39-0.69s0,0.69-0.39,0.69s0-0.69-0.39-0.69c-0.39,0,0,0.69-0.39,0.69c-0.39,0,0-0.69-0.39-0.69
			s0,0.69-0.39,0.69s0-0.69-0.39-0.69s0,0.69-0.39,0.69c-0.39,0,0-0.69-0.39-0.69c-0.39,0,0,0.69-0.39,0.69s0-0.69-0.39-0.69
			s0,0.69-0.39,0.69s0-0.69-0.39-0.69"/>
		<path fill="none" stroke="#1D2132" stroke-width="0.1" stroke-linecap="square" stroke-miterlimit="10" d="M25.9,105.1
			c0.39,0,0-0.69,0.39-0.69c0.39,0,0,0.69,0.39,0.69c0.39,0,0-0.69,0.39-0.69c0.39,0,0,0.69,0.39,0.69c0.39,0,0-0.69,0.39-0.69
			c0.39,0,0,0.69,0.39,0.69c0.39,0,0-0.69,0.39-0.69c0.39,0,0,0.69,0.39,0.69c0.39,0,0-0.69,0.39-0.69c0.39,0,0,0.69,0.39,0.69
			s0-0.69,0.39-0.69c0.39,0,0,0.69,0.39,0.69c0.39,0,0-0.69,0.39-0.69c0.39,0,0,0.69,0.39,0.69c0.39,0,0-0.69,0.39-0.69
			s0,0.69,0.39,0.69c0.39,0,0-0.69,0.39-0.69c0.39,0,0,0.69,0.39,0.69s0-0.69,0.39-0.69s0,0.69,0.39,0.69c0.39,0,0-0.69,0.39-0.69
			c0.39,0,0,0.69,0.39,0.69c0.39,0,0-0.69,0.39-0.69s0,0.69,0.39,0.69s0-0.69,0.39-0.69s0,0.69,0.39,0.69c0.39,0,0-0.69,0.39-0.69
			c0.39,0,0,0.69,0.39,0.69s0-0.69,0.39-0.69s0,0.69,0.39,0.69c0.39,0,0-0.69,0.39-0.69c0.39,0,0,0.69,0.39,0.69s0-0.69,0.39-0.69"
			/>
	</g>
	<g>
		<g>
			
				<rect x="70.26" y="38.79" transform="matrix(-3.267949e-07 1 -1 -3.267949e-07 114.3611 -36.0374)" fill="#FFFFFF" stroke="#1D2132" stroke-width="0.1" stroke-linecap="square" stroke-miterlimit="10" width="9.89" height="0.74"/>
			
				<line fill="none" stroke="#1D2132" stroke-width="0.1" stroke-linecap="square" stroke-miterlimit="10" x1="75.42" y1="35" x2="74.98" y2="35"/>
			
				<line fill="none" stroke="#1D2132" stroke-width="0.1" stroke-linecap="square" stroke-miterlimit="10" x1="75.42" y1="35.26" x2="74.98" y2="35.26"/>
			
				<line fill="none" stroke="#1D2132" stroke-width="0.1" stroke-linecap="square" stroke-miterlimit="10" x1="75.42" y1="34.46" x2="74.98" y2="34.46"/>
			
				<line fill="none" stroke="#1D2132" stroke-width="0.1" stroke-linecap="square" stroke-miterlimit="10" x1="75.42" y1="34.73" x2="74.98" y2="34.73"/>
			
				<line fill="none" stroke="#1D2132" stroke-width="0.1" stroke-linecap="square" stroke-miterlimit="10" x1="75.42" y1="35.53" x2="74.98" y2="35.53"/>
			
				<line fill="none" stroke="#1D2132" stroke-width="0.1" stroke-linecap="square" stroke-miterlimit="10" x1="75.42" y1="35.8" x2="74.98" y2="35.8"/>
			
				<line fill="none" stroke="#1D2132" stroke-width="0.1" stroke-linecap="square" stroke-miterlimit="10" x1="75.42" y1="36.06" x2="74.98" y2="36.06"/>
			
				<line fill="none" stroke="#1D2132" stroke-width="0.1" stroke-linecap="square" stroke-miterlimit="10" x1="75.42" y1="36.33" x2="74.98" y2="36.33"/>
			
				<line fill="none" stroke="#1D2132" stroke-width="0.1" stroke-linecap="square" stroke-miterlimit="10" x1="75.42" y1="36.6" x2="74.98" y2="36.6"/>
			
				<line fill="none" stroke="#1D2132" stroke-width="0.1" stroke-linecap="square" stroke-miterlimit="10" x1="75.42" y1="36.86" x2="74.98" y2="36.86"/>
			
				<line fill="none" stroke="#1D2132" stroke-width="0.1" stroke-linecap="square" stroke-miterlimit="10" x1="75.42" y1="37.67" x2="74.98" y2="37.67"/>
			
				<line fill="none" stroke="#1D2132" stroke-width="0.1" stroke-linecap="square" stroke-miterlimit="10" x1="75.42" y1="37.93" x2="74.98" y2="37.93"/>
			
				<line fill="none" stroke="#1D2132" stroke-width="0.1" stroke-linecap="square" stroke-miterlimit="10" x1="75.42" y1="37.13" x2="74.98" y2="37.13"/>
			
				<line fill="none" stroke="#1D2132" stroke-width="0.1" stroke-linecap="square" stroke-miterlimit="10" x1="75.42" y1="37.4" x2="74.98" y2="37.4"/>
			
				<line fill="none" stroke="#1D2132" stroke-width="0.1" stroke-linecap="square" stroke-miterlimit="10" x1="75.42" y1="38.2" x2="74.98" y2="38.2"/>
			
				<line fill="none" stroke="#1D2132" stroke-width="0.1" stroke-linecap="square" stroke-miterlimit="10" x1="75.42" y1="38.47" x2="74.98" y2="38.47"/>
			
				<line fill="none" stroke="#1D2132" stroke-width="0.1" stroke-linecap="square" stroke-miterlimit="10" x1="75.42" y1="38.73" x2="74.98" y2="38.73"/>
			
				<line fill="none" stroke="#1D2132" stroke-width="0.1" stroke-linecap="square" stroke-miterlimit="10" x1="75.42" y1="39" x2="74.98" y2="39"/>
			
				<line fill="none" stroke="#1D2132" stroke-width="0.1" stroke-linecap="square" stroke-miterlimit="10" x1="75.42" y1="39.27" x2="74.98" y2="39.27"/>
			
				<line fill="none" stroke="#1D2132" stroke-width="0.1" stroke-linecap="square" stroke-miterlimit="10" x1="75.42" y1="39.53" x2="74.98" y2="39.53"/>
			
				<line fill="none" stroke="#1D2132" stroke-width="0.1" stroke-linecap="square" stroke-miterlimit="10" x1="75.42" y1="40.33" x2="74.98" y2="40.33"/>
			
				<line fill="none" stroke="#1D2132" stroke-width="0.1" stroke-linecap="square" stroke-miterlimit="10" x1="75.42" y1="40.6" x2="74.98" y2="40.6"/>
			
				<line fill="none" stroke="#1D2132" stroke-width="0.1" stroke-linecap="square" stroke-miterlimit="10" x1="75.42" y1="39.8" x2="74.98" y2="39.8"/>
			
				<line fill="none" stroke="#1D2132" stroke-width="0.1" stroke-linecap="square" stroke-miterlimit="10" x1="75.42" y1="40.07" x2="74.98" y2="40.07"/>
			
				<line fill="none" stroke="#1D2132" stroke-width="0.1" stroke-linecap="square" stroke-miterlimit="10" x1="75.42" y1="40.87" x2="74.98" y2="40.87"/>
			
				<line fill="none" stroke="#1D2132" stroke-width="0.1" stroke-linecap="square" stroke-miterlimit="10" x1="75.42" y1="41.13" x2="74.98" y2="41.13"/>
			
				<line fill="none" stroke="#1D2132" stroke-width="0.1" stroke-linecap="square" stroke-miterlimit="10" x1="75.42" y1="41.4" x2="74.98" y2="41.4"/>
			
				<line fill="none" stroke="#1D2132" stroke-width="0.1" stroke-linecap="square" stroke-miterlimit="10" x1="75.42" y1="41.67" x2="74.98" y2="41.67"/>
			
				<line fill="none" stroke="#1D2132" stroke-width="0.1" stroke-linecap="square" stroke-miterlimit="10" x1="75.42" y1="41.94" x2="74.98" y2="41.94"/>
			
				<line fill="none" stroke="#1D2132" stroke-width="0.1" stroke-linecap="square" stroke-miterlimit="10" x1="75.42" y1="42.2" x2="74.98" y2="42.2"/>
			
				<line fill="none" stroke="#1D2132" stroke-width="0.1" stroke-linecap="square" stroke-miterlimit="10" x1="75.42" y1="43" x2="74.98" y2="43"/>
			
				<line fill="none" stroke="#1D2132" stroke-width="0.1" stroke-linecap="square" stroke-miterlimit="10" x1="75.42" y1="43.27" x2="74.98" y2="43.27"/>
			
				<line fill="none" stroke="#1D2132" stroke-width="0.1" stroke-linecap="square" stroke-miterlimit="10" x1="75.42" y1="42.47" x2="74.98" y2="42.47"/>
			
				<line fill="none" stroke="#1D2132" stroke-width="0.1" stroke-linecap="square" stroke-miterlimit="10" x1="75.42" y1="42.74" x2="74.98" y2="42.74"/>
			
				<line fill="none" stroke="#1D2132" stroke-width="0.1" stroke-linecap="square" stroke-miterlimit="10" x1="75.42" y1="43.54" x2="74.98" y2="43.54"/>
			
				<line fill="none" stroke="#1D2132" stroke-width="0.1" stroke-linecap="square" stroke-miterlimit="10" x1="75.42" y1="43.8" x2="74.98" y2="43.8"/>
		</g>
		<path fill="none" stroke="#1D2132" stroke-width="0.1" stroke-linecap="square" stroke-miterlimit="10" d="M74.69,25.3
			c0,0.39-0.69,0-0.69,0.39c0,0.39,0.69,0,0.69,0.39c0,0.39-0.69,0-0.69,0.39c0,0.39,0.69,0,0.69,0.39c0,0.39-0.69,0-0.69,0.39
			c0,0.39,0.69,0,0.69,0.39s-0.69,0-0.69,0.39c0,0.39,0.69,0,0.69,0.39c0,0.39-0.69,0-0.69,0.39c0,0.39,0.69,0,0.69,0.39
			c0,0.39-0.69,0-0.69,0.39c0,0.39,0.69,0,0.69,0.39c0,0.39-0.69,0-0.69,0.39c0,0.39,0.69,0,0.69,0.39c0,0.39-0.69,0-0.69,0.39
			c0,0.39,0.69,0,0.69,0.39c0,0.39-0.69,0-0.69,0.39s0.69,0,0.69,0.39s-0.69,0-0.69,0.39c0,0.39,0.69,0,0.69,0.39
			c0,0.39-0.69,0-0.69,0.39s0.69,0,0.69,0.39s-0.69,0-0.69,0.39c0,0.39,0.69,0,0.69,0.39c0,0.39-0.69,0-0.69,0.39s0.69,0,0.69,0.39
			s-0.69,0-0.69,0.39s0.69,0,0.69,0.39c0,0.39-0.69,0-0.69,0.39c0,0.39,0.69,0,0.69,0.39s-0.69,0-0.69,0.39s0.69,0,0.69,0.39
			c0,0.39-0.69,0-0.69,0.39"/>
		<path fill="none" stroke="#1D2132" stroke-width="0.1" stroke-linecap="square" stroke-miterlimit="10" d="M74.69,53.1
			c0-0.39-0.69,0-0.69-0.39s0.69,0,0.69-0.39s-0.69,0-0.69-0.39c0-0.39,0.69,0,0.69-0.39c0-0.39-0.69,0-0.69-0.39s0.69,0,0.69-0.39
			s-0.69,0-0.69-0.39s0.69,0,0.69-0.39c0-0.39-0.69,0-0.69-0.39c0-0.39,0.69,0,0.69-0.39s-0.69,0-0.69-0.39c0-0.39,0.69,0,0.69-0.39
			c0-0.39-0.69,0-0.69-0.39c0-0.39,0.69,0,0.69-0.39s-0.69,0-0.69-0.39s0.69,0,0.69-0.39c0-0.39-0.69,0-0.69-0.39
			c0-0.39,0.69,0,0.69-0.39s-0.69,0-0.69-0.39s0.69,0,0.69-0.39s-0.69,0-0.69-0.39c0-0.39,0.69,0,0.69-0.39c0-0.39-0.69,0-0.69-0.39
			s0.69,0,0.69-0.39s-0.69,0-0.69-0.39s0.69,0,0.69-0.39c0-0.39-0.69,0-0.69-0.39c0-0.39,0.69,0,0.69-0.39s-0.69,0-0.69-0.39
			s0.69,0,0.69-0.39c0-0.39-0.69,0-0.69-0.39c0-0.39,0.69,0,0.69-0.39s-0.69,0-0.69-0.39"/>
	</g>
	<g>
		<g>
			<path fill="#FFFFFF" stroke="#1D2132" stroke-width="0.1" stroke-linecap="square" stroke-miterlimit="10" d="M58.31,37.59
				c-0.93-0.79-2.08-1.99-2.67-2.25c-0.53-0.23-1.07,0.88-2.05,1.86c-0.98,0.98-2.09,1.52-1.86,2.05c0.26,0.6,1.46,1.75,2.24,2.68
				c0.79,0.93,1.27,0.98,1.89,0.6c0.61-0.37,1.22-1.02,1.62-1.43c0.41-0.41,1.06-1.01,1.43-1.62
				C59.29,38.85,59.24,38.38,58.31,37.59z"/>
			<path fill="#FFFFFF" stroke="#1D2132" stroke-width="0.1" stroke-linecap="square" stroke-miterlimit="10" d="M58.39,37.99
				c-0.77-0.64-1.71-1.63-2.22-1.83c-0.45-0.18-1.52,0.3-2.42,1.2c-0.91,0.91-1.38,1.97-1.21,2.42c0.2,0.51,1.18,1.45,1.82,2.22
				c0.64,0.77,1.05,0.79,1.62,0.42c0.55-0.36,1.12-0.96,1.49-1.33c0.38-0.38,0.98-0.94,1.34-1.49
				C59.18,39.04,59.16,38.63,58.39,37.99z"/>
			<g>
				<path fill="#FFFFFF" stroke="#1D2132" stroke-width="0.1" stroke-linecap="square" stroke-miterlimit="10" d="M51.68,37.73
					c-0.23,0.34-0.44,0.7-0.62,1.06c1.1,0.86,1.27-0.72,2.33-1.78c1.1-1.1,2.8-1.32,1.75-2.38C53.8,35.34,52.59,36.38,51.68,37.73z"
					/>
				<path fill="#FFFFFF" stroke="#1D2132" stroke-width="0.1" stroke-linecap="square" stroke-miterlimit="10" d="M55.08,34.35
					c-0.08,0.04-0.16,0.09-0.25,0.13c-1.32,0.72-2.49,1.76-3.39,3.09c-0.21,0.31-0.4,0.64-0.57,0.97c-0.03,0.07-0.07,0.13-0.1,0.2
					l0.26,0.13c0.01-0.02,0.03-0.05,0.04-0.07c0.18-0.36,0.38-0.71,0.62-1.06c0.91-1.35,2.11-2.39,3.47-3.1
					c0.02-0.01,0.04-0.02,0.07-0.03L55.08,34.35z"/>
			</g>
		</g>
		<g>
			<path fill="#FFFFFF" stroke="#1D2132" stroke-width="0.1" stroke-linecap="square" stroke-miterlimit="10" d="M70.18,49.46
				c0.79,0.93,1.99,2.08,2.25,2.67c0.23,0.53-0.88,1.07-1.86,2.05c-0.98,0.98-1.52,2.09-2.05,1.86c-0.6-0.26-1.75-1.46-2.68-2.24
				c-0.93-0.79-0.98-1.27-0.6-1.89c0.37-0.61,1.02-1.22,1.43-1.62c0.41-0.41,1.01-1.06,1.62-1.43
				C68.92,48.48,69.39,48.53,70.18,49.46z"/>
			<path fill="#FFFFFF" stroke="#1D2132" stroke-width="0.1" stroke-linecap="square" stroke-miterlimit="10" d="M69.78,49.38
				c0.64,0.77,1.63,1.71,1.83,2.22c0.18,0.45-0.3,1.52-1.2,2.42c-0.91,0.91-1.97,1.38-2.42,1.21c-0.51-0.2-1.45-1.18-2.22-1.82
				c-0.77-0.64-0.79-1.05-0.42-1.62c0.36-0.55,0.96-1.12,1.33-1.49c0.38-0.38,0.94-0.98,1.49-1.34
				C68.73,48.59,69.14,48.61,69.78,49.38z"/>
			<g>
				<path fill="#FFFFFF" stroke="#1D2132" stroke-width="0.1" stroke-linecap="square" stroke-miterlimit="10" d="M70.03,56.09
					c-0.34,0.23-0.7,0.44-1.06,0.62c-0.86-1.1,0.72-1.27,1.78-2.33c1.1-1.1,1.32-2.8,2.38-1.75C72.43,53.97,71.39,55.17,70.03,56.09
					z"/>
				<path fill="#FFFFFF" stroke="#1D2132" stroke-width="0.1" stroke-linecap="square" stroke-miterlimit="10" d="M73.42,52.68
					c-0.04,0.08-0.09,0.16-0.13,0.25c-0.72,1.32-1.76,2.49-3.09,3.39c-0.31,0.21-0.64,0.4-0.97,0.57c-0.07,0.03-0.13,0.07-0.2,0.1
					l-0.13-0.26c0.02-0.01,0.05-0.03,0.07-0.04c0.36-0.18,0.71-0.38,1.06-0.62c1.35-0.91,2.39-2.11,3.1-3.47
					c0.01-0.02,0.02-0.04,0.03-0.07L73.42,52.68z"/>
			</g>
		</g>
		<g>
			<path fill="#FFFFFF" stroke="#1D2132" stroke-width="0.1" stroke-linecap="square" stroke-miterlimit="10" d="M70.18,41.93
				c0.79-0.93,1.99-2.08,2.25-2.67c0.23-0.53-0.88-1.07-1.86-2.05c-0.98-0.98-1.52-2.09-2.05-1.86c-0.6,0.26-1.75,1.46-2.68,2.24
				c-0.93,0.79-0.98,1.27-0.6,1.89c0.37,0.61,1.02,1.22,1.43,1.62c0.41,0.41,1.01,1.06,1.62,1.43
				C68.92,42.91,69.39,42.86,70.18,41.93z"/>
			<path fill="#FFFFFF" stroke="#1D2132" stroke-width="0.1" stroke-linecap="square" stroke-miterlimit="10" d="M69.78,42.01
				c0.64-0.77,1.63-1.71,1.83-2.22c0.18-0.45-0.3-1.52-1.2-2.42c-0.91-0.91-1.97-1.38-2.42-1.21c-0.51,0.2-1.45,1.18-2.22,1.82
				c-0.77,0.64-0.79,1.05-0.42,1.62c0.36,0.55,0.96,1.12,1.33,1.49c0.38,0.38,0.94,0.98,1.49,1.34
				C68.73,42.8,69.14,42.78,69.78,42.01z"/>
			<g>
				<path fill="#FFFFFF" stroke="#1D2132" stroke-width="0.1" stroke-linecap="square" stroke-miterlimit="10" d="M70.03,35.3
					c-0.34-0.23-0.7-0.44-1.06-0.62c-0.86,1.1,0.72,1.27,1.78,2.33c1.1,1.1,1.32,2.8,2.38,1.75C72.43,37.42,71.39,36.22,70.03,35.3z
					"/>
				<path fill="#FFFFFF" stroke="#1D2132" stroke-width="0.1" stroke-linecap="square" stroke-miterlimit="10" d="M73.42,38.71
					c-0.04-0.08-0.09-0.16-0.13-0.25c-0.72-1.32-1.76-2.49-3.09-3.39c-0.31-0.21-0.64-0.4-0.97-0.57c-0.07-0.03-0.13-0.07-0.2-0.1
					l-0.13,0.26c0.02,0.01,0.05,0.03,0.07,0.04c0.36,0.18,0.71,0.38,1.06,0.62c1.35,0.91,2.39,2.11,3.1,3.47
					c0.01,0.02,0.02,0.04,0.03,0.07L73.42,38.71z"/>
			</g>
		</g>
		<g>
			<path fill="#FFFFFF" stroke="#1D2132" stroke-width="0.1" stroke-linecap="square" stroke-miterlimit="10" d="M58.31,53.8
				c-0.93,0.79-2.08,1.99-2.67,2.25c-0.53,0.23-1.07-0.88-2.05-1.86c-0.98-0.98-2.09-1.52-1.86-2.05c0.26-0.6,1.46-1.75,2.24-2.68
				c0.79-0.93,1.27-0.98,1.89-0.6c0.61,0.37,1.22,1.02,1.62,1.43c0.41,0.41,1.06,1.01,1.43,1.62C59.29,52.54,59.24,53.01,58.31,53.8
				z"/>
			<path fill="#FFFFFF" stroke="#1D2132" stroke-width="0.1" stroke-linecap="square" stroke-miterlimit="10" d="M58.39,53.4
				c-0.77,0.64-1.71,1.63-2.22,1.83c-0.45,0.18-1.52-0.3-2.42-1.2c-0.91-0.91-1.38-1.97-1.21-2.42c0.2-0.51,1.18-1.45,1.82-2.22
				c0.64-0.77,1.05-0.79,1.62-0.42c0.55,0.36,1.12,0.96,1.49,1.33c0.38,0.38,0.98,0.94,1.34,1.49
				C59.18,52.35,59.16,52.76,58.39,53.4z"/>
			<g>
				<path fill="#FFFFFF" stroke="#1D2132" stroke-width="0.1" stroke-linecap="square" stroke-miterlimit="10" d="M51.68,53.66
					c-0.23-0.34-0.44-0.7-0.62-1.06c1.1-0.86,1.27,0.72,2.33,1.78c1.1,1.1,2.8,1.32,1.75,2.38C53.8,56.05,52.59,55.01,51.68,53.66z"
					/>
				<path fill="#FFFFFF" stroke="#1D2132" stroke-width="0.1" stroke-linecap="square" stroke-miterlimit="10" d="M55.08,57.04
					C55,57,54.92,56.96,54.84,56.91c-1.32-0.72-2.49-1.76-3.39-3.09c-0.21-0.31-0.4-0.64-0.57-0.97c-0.03-0.07-0.07-0.13-0.1-0.2
					l0.26-0.13c0.01,0.02,0.03,0.05,0.04,0.07c0.18,0.36,0.38,0.71,0.62,1.06c0.91,1.35,2.11,2.39,3.47,3.1
					c0.02,0.01,0.04,0.02,0.07,0.03L55.08,57.04z"/>
			</g>
		</g>
		
			<circle fill="#FFFFFF" stroke="#1D2132" stroke-width="0.1" stroke-linecap="square" stroke-miterlimit="10" cx="62.07" cy="45.69" r="6.18"/>
	</g>
	<g>
		
			<rect x="2.62" y="61.78" fill="#FFFFFF" stroke="#1D2132" stroke-width="0.1" stroke-linecap="square" stroke-miterlimit="10" width="7.65" height="44.23"/>
		<g>
			<path fill="#FFFFFF" stroke="#1D2132" stroke-width="0.1" stroke-linecap="square" stroke-miterlimit="10" d="M5.31,85.22
				c0-0.06-0.05-0.11-0.11-0.11H4.85c-0.12,0-0.19,0.1-0.26,0.2c-0.09,0.14-0.21,0.3-0.45,0.34c-0.17,0.03-0.31-0.03-0.41-0.15
				c-0.1-0.13-0.11-0.32-0.03-0.48c0.16-0.31,0.51-0.27,0.51-0.27c0.06,0.01,0.11-0.03,0.12-0.09c0.01-0.06-0.03-0.11-0.09-0.12
				c-0.17-0.03-0.54,0.02-0.73,0.38c-0.12,0.23-0.1,0.5,0.05,0.7c0.14,0.19,0.37,0.28,0.61,0.24c0.33-0.06,0.49-0.28,0.59-0.43
				c0.03-0.04,0.07-0.1,0.09-0.11H5.2C5.26,85.32,5.31,85.28,5.31,85.22z M4.85,85.32L4.85,85.32L4.85,85.32z"/>
			<path fill="#FFFFFF" stroke="#1D2132" stroke-width="0.1" stroke-linecap="square" stroke-miterlimit="10" d="M7.62,88.77v-7.12
				c0-0.27,0.07-0.56-0.19-0.63c-0.26-0.06-0.52,0.05-0.64,0.29c0,0-0.01,0.01-0.01,0.02l-1.54,3.26c-0.01,0.03-0.02,0.05-0.02,0.08
				v1.1c0,0.03,0.01,0.06,0.02,0.08l1.54,3.26c0,0.01,0,0.01,0.01,0.02c0.13,0.24,0.38,0.35,0.64,0.29
				C7.68,89.34,7.62,89.04,7.62,88.77z M7.16,81.26c0.05-0.09,0.14-0.08,0.16-0.07c0.03,0.01,0.11,0.04,0.11,0.14v7.75
				c0,0.11-0.09,0.14-0.11,0.14c-0.03,0.01-0.11,0.02-0.16-0.07l-0.99-3.44v-1.01L7.16,81.26z"/>
		</g>
	</g>
	<g>
		<g>
			<g>
				<g>
					<g>
						
							<path fill-rule="evenodd" clip-rule="evenodd" fill="#FFFFFF" stroke="#1D2132" stroke-width="0.1" stroke-linejoin="bevel" stroke-miterlimit="22.9256" d="
							M30.17,89.84c-0.08-0.08-0.02-0.28,0.14-0.44c0.16-0.16,0.35-0.23,0.43-0.15c0.08,0.08,0.02,0.28-0.14,0.44
							C30.45,89.85,30.25,89.92,30.17,89.84z"/>
						
							<path fill-rule="evenodd" clip-rule="evenodd" fill="#FFFFFF" stroke="#1D2132" stroke-width="0.1" stroke-linejoin="bevel" stroke-miterlimit="22.9256" d="
							M29.52,89.22c-0.08-0.08-0.02-0.28,0.14-0.44c0.16-0.16,0.35-0.23,0.43-0.15c0.08,0.08,0.02,0.28-0.14,0.44
							C29.8,89.23,29.61,89.3,29.52,89.22z"/>
					</g>
					
						<rect x="29.67" y="88.78" transform="matrix(0.6968 -0.7173 0.7173 0.6968 -54.8751 48.6726)" fill-rule="evenodd" clip-rule="evenodd" fill="#FFFFFF" stroke="#1D2132" stroke-width="0.1" stroke-linejoin="bevel" stroke-miterlimit="22.9256" width="0.91" height="0.91"/>
				</g>
				<g>
					<g>
						
							<path fill-rule="evenodd" clip-rule="evenodd" fill="#FFFFFF" stroke="#1D2132" stroke-width="0.1" stroke-linejoin="bevel" stroke-miterlimit="22.9256" d="
							M26.71,96.89c-0.08-0.08-0.02-0.28,0.14-0.44c0.16-0.16,0.35-0.23,0.43-0.15c0.08,0.08,0.02,0.28-0.14,0.44
							C26.98,96.9,26.79,96.97,26.71,96.89z"/>
						
							<path fill-rule="evenodd" clip-rule="evenodd" fill="#FFFFFF" stroke="#1D2132" stroke-width="0.1" stroke-linejoin="bevel" stroke-miterlimit="22.9256" d="
							M26.06,96.26c-0.08-0.08-0.02-0.28,0.14-0.44c0.16-0.16,0.35-0.23,0.43-0.15c0.08,0.08,0.02,0.28-0.14,0.44
							C26.34,96.27,26.15,96.34,26.06,96.26z"/>
					</g>
					
						<rect x="26.21" y="95.83" transform="matrix(0.6968 -0.7173 0.7173 0.6968 -60.9767 48.3229)" fill-rule="evenodd" clip-rule="evenodd" fill="#FFFFFF" stroke="#1D2132" stroke-width="0.1" stroke-linejoin="bevel" stroke-miterlimit="22.9256" width="0.91" height="0.91"/>
				</g>
				<g>
					<g>
						
							<path fill-rule="evenodd" clip-rule="evenodd" fill="#FFFFFF" stroke="#1D2132" stroke-width="0.1" stroke-linejoin="bevel" stroke-miterlimit="22.9256" d="
							M30.73,94.58c-0.04-0.11,0.1-0.26,0.32-0.33c0.21-0.08,0.42-0.05,0.46,0.05c0.04,0.11-0.1,0.26-0.32,0.33
							C30.97,94.71,30.77,94.69,30.73,94.58z"/>
						
							<path fill-rule="evenodd" clip-rule="evenodd" fill="#FFFFFF" stroke="#1D2132" stroke-width="0.1" stroke-linejoin="bevel" stroke-miterlimit="22.9256" d="
							M30.43,93.73c-0.04-0.11,0.1-0.26,0.32-0.33c0.21-0.08,0.42-0.05,0.46,0.05c0.04,0.11-0.1,0.26-0.32,0.33
							C30.67,93.87,30.46,93.84,30.43,93.73z"/>
					</g>
					
						<rect x="30.5" y="93.56" transform="matrix(0.941 -0.3385 0.3385 0.941 -29.9949 16.0274)" fill-rule="evenodd" clip-rule="evenodd" fill="#FFFFFF" stroke="#1D2132" stroke-width="0.1" stroke-linejoin="bevel" stroke-miterlimit="22.9256" width="0.91" height="0.91"/>
				</g>
				<g>
					<g>
						
							<path fill-rule="evenodd" clip-rule="evenodd" fill="#FFFFFF" stroke="#1D2132" stroke-width="0.1" stroke-linejoin="bevel" stroke-miterlimit="22.9256" d="
							M24.72,88.5c0.09-0.07,0.28,0.02,0.41,0.2c0.14,0.18,0.18,0.38,0.08,0.45c-0.09,0.07-0.28-0.02-0.41-0.2
							C24.67,88.77,24.63,88.57,24.72,88.5z"/>
						
							<path fill-rule="evenodd" clip-rule="evenodd" fill="#FFFFFF" stroke="#1D2132" stroke-width="0.1" stroke-linejoin="bevel" stroke-miterlimit="22.9256" d="
							M25.44,87.96c0.09-0.07,0.28,0.02,0.41,0.2c0.14,0.18,0.18,0.38,0.09,0.45c-0.09,0.07-0.28-0.02-0.41-0.2
							C25.39,88.23,25.35,88.02,25.44,87.96z"/>
					</g>
					
						<rect x="24.87" y="88.09" transform="matrix(0.7948 -0.6069 0.6069 0.7948 -48.5421 33.5411)" fill-rule="evenodd" clip-rule="evenodd" fill="#FFFFFF" stroke="#1D2132" stroke-width="0.1" stroke-linejoin="bevel" stroke-miterlimit="22.9256" width="0.91" height="0.91"/>
				</g>
				<g>
					<g>
						
							<path fill-rule="evenodd" clip-rule="evenodd" fill="#FFFFFF" stroke="#1D2132" stroke-width="0.1" stroke-linejoin="bevel" stroke-miterlimit="22.9256" d="
							M22.69,93.24c0.03-0.11,0.23-0.16,0.45-0.1c0.22,0.05,0.38,0.19,0.35,0.3c-0.03,0.11-0.23,0.16-0.45,0.1
							C22.82,93.49,22.66,93.35,22.69,93.24z"/>
						
							<path fill-rule="evenodd" clip-rule="evenodd" fill="#FFFFFF" stroke="#1D2132" stroke-width="0.1" stroke-linejoin="bevel" stroke-miterlimit="22.9256" d="
							M22.9,92.37c0.03-0.11,0.23-0.16,0.45-0.1c0.22,0.05,0.38,0.19,0.35,0.3c-0.03,0.11-0.23,0.16-0.45,0.1
							C23.03,92.62,22.88,92.48,22.9,92.37z"/>
					</g>
					
						<rect x="22.73" y="92.45" transform="matrix(0.2401 -0.9708 0.9708 0.2401 -72.5673 93.1092)" fill-rule="evenodd" clip-rule="evenodd" fill="#FFFFFF" stroke="#1D2132" stroke-width="0.1" stroke-linejoin="bevel" stroke-miterlimit="22.9256" width="0.91" height="0.91"/>
				</g>
				<g>
					
						<path fill-rule="evenodd" clip-rule="evenodd" fill="#FFFFFF" stroke="#1D2132" stroke-width="0.1" stroke-linejoin="bevel" stroke-miterlimit="22.9256" d="
						M27.25,92.2c-0.15-0.14-0.15-0.38-0.01-0.53l2.35-2.43c0.14-0.15,0.38-0.15,0.53-0.01l0,0c0.15,0.14,0.15,0.38,0.01,0.53
						l-2.35,2.43C27.64,92.34,27.4,92.34,27.25,92.2L27.25,92.2z"/>
					
						<path fill-rule="evenodd" clip-rule="evenodd" fill="#FFFFFF" stroke="#1D2132" stroke-width="0.1" stroke-linejoin="bevel" stroke-miterlimit="22.9256" d="
						M27.25,92.2c-0.18,0.1-0.41,0.03-0.5-0.16l-1.58-2.99c-0.1-0.18-0.03-0.41,0.16-0.5l0,0c0.18-0.1,0.41-0.03,0.5,0.16l1.58,2.99
						C27.51,91.88,27.44,92.1,27.25,92.2L27.25,92.2z"/>
					
						<path fill-rule="evenodd" clip-rule="evenodd" fill="#FFFFFF" stroke="#1D2132" stroke-width="0.1" stroke-linejoin="bevel" stroke-miterlimit="22.9256" d="
						M27.25,92.2c0.04,0.2-0.1,0.4-0.3,0.43l-3.33,0.58c-0.2,0.04-0.4-0.1-0.43-0.3l0,0c-0.04-0.2,0.1-0.4,0.3-0.43l3.33-0.58
						C27.03,91.86,27.22,92,27.25,92.2L27.25,92.2z"/>
					
						<path fill-rule="evenodd" clip-rule="evenodd" fill="#FFFFFF" stroke="#1D2132" stroke-width="0.1" stroke-linejoin="bevel" stroke-miterlimit="22.9256" d="
						M27.25,92.2c0.21,0.03,0.35,0.22,0.32,0.42l-0.48,3.35c-0.03,0.2-0.22,0.35-0.42,0.32l0,0c-0.2-0.03-0.35-0.22-0.32-0.42
						l0.48-3.35C26.86,92.31,27.05,92.17,27.25,92.2L27.25,92.2z"/>
					
						<path fill-rule="evenodd" clip-rule="evenodd" fill="#FFFFFF" stroke="#1D2132" stroke-width="0.1" stroke-linejoin="bevel" stroke-miterlimit="22.9256" d="
						M27.25,92.2c0.09-0.19,0.31-0.26,0.5-0.17l3.03,1.49c0.19,0.09,0.26,0.31,0.17,0.5l0,0c-0.09,0.18-0.31,0.26-0.5,0.17
						l-3.03-1.49C27.24,92.61,27.16,92.38,27.25,92.2L27.25,92.2z"/>
				</g>
			</g>
			<g>
				<g>
					
						<path fill-rule="evenodd" clip-rule="evenodd" fill="#FFFFFF" stroke="#1D2132" stroke-width="0.1" stroke-linejoin="bevel" stroke-miterlimit="22.9256" d="
						M30.6,92.56c0.11,0.21,0.02,0.48-0.21,0.6c0,0-0.46,0.83-1.82,1.55c-1.36,0.72-2.3,0.63-2.3,0.63
						c-0.22,0.12-0.5,0.04-0.61-0.17l-1.71-4.03c-0.11-0.21-0.02-0.48,0.2-0.6l3.47-1.83c0.22-0.12,0.5-0.05,0.61,0.17L30.6,92.56z"
						/>
					
						<rect x="25.07" y="89" transform="matrix(0.8842 -0.4671 0.4671 0.8842 -38.7443 22.3613)" fill-rule="evenodd" clip-rule="evenodd" fill="#FFFFFF" stroke="#1D2132" stroke-width="0.1" stroke-linejoin="bevel" stroke-miterlimit="22.9256" width="1.32" height="0.66"/>
					
						<rect x="24.64" y="87.69" transform="matrix(0.8842 -0.4671 0.4671 0.8842 -38.1736 21.8518)" fill-rule="evenodd" clip-rule="evenodd" fill="#FFFFFF" stroke="#1D2132" stroke-width="0.1" stroke-linejoin="bevel" stroke-miterlimit="22.9256" width="0.71" height="0.47"/>
					
						<path fill-rule="evenodd" clip-rule="evenodd" fill="#FFFFFF" stroke="#1D2132" stroke-width="0.1" stroke-linejoin="bevel" stroke-miterlimit="22.9256" d="
						M27.85,87.37c0.16,0.3,0.1,0.64-0.12,0.76c0,0-0.95,0.27-2.16,0.91c-1.2,0.64-1.97,1.27-1.97,1.27
						c-0.23,0.12-0.54-0.03-0.69-0.33l0.02,0.04c-0.16-0.3-0.1-0.64,0.12-0.76c0,0,0.56-0.53,1.97-1.27
						c1.4-0.74,2.16-0.91,2.16-0.91c0.22-0.12,0.54,0.03,0.69,0.33L27.85,87.37z"/>
				</g>
				
					<path fill-rule="evenodd" clip-rule="evenodd" fill="#FFFFFF" stroke="#1D2132" stroke-width="0.1" stroke-linejoin="bevel" stroke-miterlimit="22.9256" d="
					M23.18,90.7c0.28-0.12,0.6,0.01,0.71,0.29l1.29,3.05c0.12,0.28-0.01,0.6-0.29,0.71l0,0c-0.28,0.12-0.6-0.01-0.71-0.29
					l-1.29-3.05C22.77,91.14,22.9,90.82,23.18,90.7L23.18,90.7z"/>
				
					<path fill-rule="evenodd" clip-rule="evenodd" fill="#FFFFFF" stroke="#1D2132" stroke-width="0.1" stroke-linejoin="bevel" stroke-miterlimit="22.9256" d="
					M28.3,87.99c0.25-0.16,0.59-0.09,0.75,0.16l1.8,2.78c0.16,0.25,0.09,0.59-0.16,0.75l0,0c-0.25,0.16-0.59,0.09-0.75-0.16
					l-1.8-2.78C27.97,88.49,28.05,88.15,28.3,87.99L28.3,87.99z"/>
			</g>
		</g>
		<g>
			<g>
				<g>
					
						<rect x="17.52" y="96.21" transform="matrix(7.297345e-11 1 -1 7.297345e-11 120.2199 77.765)" fill="#FFFFFF" stroke="#1D2132" stroke-width="0.1" stroke-linecap="square" stroke-miterlimit="10" width="7.42" height="5.56"/>
					
						<rect x="23.02" y="90.65" transform="matrix(2.273824e-10 1 -1 2.273824e-10 126.0323 72.5774)" fill="#FFFFFF" stroke="#1D2132" stroke-width="0.1" stroke-linecap="square" stroke-miterlimit="10" width="7.42" height="17.3"/>
					<polygon fill="#FFFFFF" stroke="#1D2132" stroke-width="0.1" stroke-linecap="square" stroke-miterlimit="10" points="
						22.18,95.28 22.67,95.28 22.67,94.81 19.86,94.81 19.86,95.28 20.34,95.28 20.34,94.98 22.18,94.98 					"/>
				</g>
			</g>
			<g>
				
					<path fill-rule="evenodd" clip-rule="evenodd" fill="#FFFFFF" stroke="#1D2132" stroke-width="0.1" stroke-linejoin="bevel" stroke-miterlimit="22.9256" d="
					M30.13,98.16c-0.1-0.4-0.41-0.68-0.7-0.61c-0.29,0.07-0.44,0.45-0.35,0.86c0.1,0.4,0.41,0.68,0.7,0.61
					C30.07,98.95,30.23,98.57,30.13,98.16z"/>
				
					<line fill-rule="evenodd" clip-rule="evenodd" fill="#FFFFFF" stroke="#1D2132" stroke-width="0.1" stroke-linejoin="bevel" stroke-miterlimit="22.9256" x1="29.14" y1="98.59" x2="30.16" y2="98.34"/>
				
					<line fill-rule="evenodd" clip-rule="evenodd" fill="#FFFFFF" stroke="#1D2132" stroke-width="0.1" stroke-linejoin="bevel" stroke-miterlimit="22.9256" x1="29.65" y1="98.47" x2="29.79" y2="99.02"/>
			</g>
			<g>
				
					<rect x="24" y="95.07" transform="matrix(0.1597 -0.9872 0.9872 0.1597 -75.7941 107.1901)" fill-rule="evenodd" clip-rule="evenodd" fill="#FFFFFF" stroke="#1D2132" stroke-width="0.1" stroke-linejoin="bevel" stroke-miterlimit="22.9256" width="2.13" height="6.09"/>
				
					<rect x="23.85" y="96.77" transform="matrix(0.1596 -0.9872 0.9872 0.1596 -77.2439 106.6064)" fill-rule="evenodd" clip-rule="evenodd" fill="#FFFFFF" stroke="#1D2132" stroke-width="0.1" stroke-linejoin="bevel" stroke-miterlimit="22.9256" width="0.27" height="3.8"/>
				
					<rect x="23.5" y="95.85" transform="matrix(0.1596 -0.9872 0.9872 0.1596 -76.2082 105.9697)" fill-rule="evenodd" clip-rule="evenodd" fill="#FFFFFF" stroke="#1D2132" stroke-width="0.1" stroke-linejoin="bevel" stroke-miterlimit="22.9256" width="1.28" height="3.8"/>
				
					<rect x="26.79" y="97.79" transform="matrix(0.1598 -0.9871 0.9871 0.1598 -73.9704 109.6481)" fill-rule="evenodd" clip-rule="evenodd" fill="#FFFFFF" stroke="#1D2132" stroke-width="0.1" stroke-linejoin="bevel" stroke-miterlimit="22.9256" width="1.28" height="0.97"/>
				
					<rect x="26.18" y="98.76" transform="matrix(0.1608 -0.987 0.987 0.1608 -75.6712 109.095)" fill-rule="evenodd" clip-rule="evenodd" fill="#FFFFFF" stroke="#1D2132" stroke-width="0.1" stroke-linejoin="bevel" stroke-miterlimit="22.9256" width="0.27" height="0.58"/>
				
					<rect x="25.83" y="97.83" transform="matrix(0.1601 -0.9871 0.9871 0.1601 -74.6285 108.5348)" fill-rule="evenodd" clip-rule="evenodd" fill="#FFFFFF" stroke="#1D2132" stroke-width="0.1" stroke-linejoin="bevel" stroke-miterlimit="22.9256" width="1.28" height="0.58"/>
			</g>
			<g>
				<g>
					
						<path fill-rule="evenodd" clip-rule="evenodd" fill="#FFFFFF" stroke="#1D2132" stroke-width="0.1" stroke-linejoin="bevel" stroke-miterlimit="22.9256" d="
						M25,101.82c-0.56-0.07-0.96-0.58-0.89-1.14c0.07-0.56,0.58-0.96,1.14-0.89c0.56,0.07,0.96,0.58,0.89,1.14
						C26.07,101.49,25.56,101.89,25,101.82z"/>
					
						<path fill-rule="evenodd" clip-rule="evenodd" fill="#FFFFFF" stroke="#1D2132" stroke-width="0.1" stroke-linejoin="bevel" stroke-miterlimit="22.9256" d="
						M20.92,100.27l0.04-0.34l8.42,0.99l-0.04,0.34c-0.03,0.23-0.24,0.4-0.47,0.37l-7.58-0.89
						C21.06,100.71,20.89,100.5,20.92,100.27z"/>
				</g>
				
					<line fill="#FFFFFF" stroke="#1D2132" stroke-width="0.1" stroke-linejoin="bevel" stroke-miterlimit="22.9256" x1="29.34" y1="101.3" x2="20.92" y2="100.31"/>
			</g>
		</g>
	</g>
	<g>
		
			<circle fill="#FFFFFF" stroke="#1D2132" stroke-width="0.1" stroke-linecap="square" stroke-miterlimit="22.9256" cx="15.26" cy="102.89" r="1.74"/>
		
			<circle fill="#FFFFFF" stroke="#1D2132" stroke-width="0.1" stroke-linecap="square" stroke-miterlimit="22.9256" cx="15.26" cy="102.89" r="0.37"/>
		<path fill="#FFFFFF" stroke="#1D2132" stroke-width="0.1" stroke-linecap="square" stroke-miterlimit="22.9256" d="M19.7,98.5
			c0.23-0.35-0.07-0.96-0.67-1.35c-0.6-0.39-1.28-0.43-1.51-0.08l0,0c-0.48,0.71-0.63,1.3-0.77,2.23l1.22,0.8
			C18.79,99.61,19.26,99.24,19.7,98.5z"/>
		<path fill="#FFFFFF" stroke="#1D2132" stroke-width="0.1" stroke-linecap="square" stroke-miterlimit="22.9256" d="M17.59,99.34
			c-0.34-0.22-0.71-0.24-0.84-0.04l-0.29,0.44l1.22,0.8l0.29-0.44C18.09,99.9,17.93,99.56,17.59,99.34z"/>
		
			<ellipse transform="matrix(0.5486 -0.8361 0.8361 0.5486 -76.0196 59.4785)" fill="#FFFFFF" stroke="#1D2132" stroke-width="0.1" stroke-linecap="square" stroke-miterlimit="22.9256" cx="17.07" cy="100.14" rx="0.43" ry="0.73"/>
		<path fill="#FFFFFF" stroke="#1D2132" stroke-width="0.1" stroke-linecap="square" stroke-miterlimit="22.9256" d="M15.2,102.99
			L15.2,102.99c-0.06-0.04-0.08-0.12-0.04-0.18l1.08-1.65c0.04-0.06,0.12-0.08,0.18-0.04l0,0c0.06,0.04,0.08,0.12,0.04,0.18
			l-1.08,1.65C15.34,103.01,15.26,103.03,15.2,102.99z"/>
		<path fill="#FFFFFF" stroke="#1D2132" stroke-width="0.1" stroke-linecap="square" stroke-miterlimit="22.9256" d="M15.81,102.06
			L15.81,102.06c-0.06-0.04-0.08-0.12-0.04-0.18l1.08-1.65c0.04-0.06,0.12-0.08,0.18-0.04l0,0c0.06,0.04,0.08,0.12,0.04,0.18
			l-1.08,1.65C15.95,102.08,15.87,102.1,15.81,102.06z"/>
	</g>
	<g>
		
			<rect x="26.92" y="33.9" transform="matrix(-1.366343e-06 1 -1 -1.366343e-06 75.4965 14.1228)" fill="#FFFFFF" stroke="#1D2132" stroke-width="0.1" stroke-linecap="square" stroke-miterlimit="10" width="7.54" height="21.81"/>
		<g>
			<path fill="#FFFFFF" stroke="#1D2132" stroke-width="0.1" stroke-linecap="square" stroke-miterlimit="10" d="M31.07,44.02
				c-0.06,0-0.11-0.05-0.11-0.11v-0.35c0-0.12,0.1-0.19,0.21-0.26c0.14-0.09,0.31-0.21,0.35-0.46c0.03-0.17-0.03-0.32-0.15-0.41
				c-0.14-0.1-0.33-0.11-0.49-0.03c-0.32,0.16-0.27,0.52-0.27,0.52c0.01,0.06-0.03,0.11-0.09,0.12c-0.06,0.01-0.11-0.03-0.12-0.09
				c-0.03-0.17,0.02-0.55,0.38-0.74c0.23-0.12,0.51-0.1,0.71,0.05c0.19,0.14,0.28,0.37,0.24,0.62c-0.06,0.34-0.29,0.5-0.44,0.6
				c-0.04,0.03-0.1,0.07-0.11,0.09v0.35C31.17,43.97,31.12,44.02,31.07,44.02z M31.17,43.56L31.17,43.56L31.17,43.56z"/>
			<path fill="#FFFFFF" stroke="#1D2132" stroke-width="0.1" stroke-linecap="square" stroke-miterlimit="10" d="M34.68,46.37
				l-7.24,0c-0.27,0-0.57,0.07-0.64-0.2c-0.07-0.26,0.05-0.53,0.29-0.65c0.01,0,0.01-0.01,0.02-0.01l3.31-1.57
				c0.03-0.01,0.06-0.02,0.09-0.02h1.12c0.03,0,0.06,0.01,0.09,0.02l3.31,1.57c0.01,0,0.01,0,0.02,0.01
				c0.24,0.13,0.36,0.39,0.29,0.65C35.25,46.43,34.95,46.37,34.68,46.37z M27.04,45.9c-0.09,0.05-0.08,0.14-0.07,0.17
				c0.01,0.03,0.04,0.12,0.15,0.12l7.88,0c0.11,0,0.14-0.09,0.15-0.12c0.01-0.03,0.02-0.12-0.07-0.17l-3.5-1l-1.03,0L27.04,45.9z"/>
		</g>
	</g>
</g>
<g id="Windows">
	<polyline fill="none" stroke="#1D2132" stroke-width="0.1" stroke-miterlimit="10" points="50.36,107.13 50.36,108 29.14,108 
		29.14,107.13 50.36,107.13 	"/>
	<polyline fill="none" stroke="#1D2132" stroke-width="0.1" stroke-miterlimit="10" points="27.89,106.01 27.89,108 51.61,108 
		51.61,106.01 27.89,106.01 	"/>
	<polyline fill="none" stroke="#1D2132" stroke-width="0.1" stroke-miterlimit="10" points="27.51,107.13 27.12,107.13 27.12,108 
		27.51,108 27.51,107.13 27.51,108 29.14,108 29.14,107.13 27.51,107.13 	"/>
	<polyline fill="none" stroke="#1D2132" stroke-width="0.1" stroke-miterlimit="10" points="50.36,107.13 50.36,108 52.12,108 
		52.12,107.13 50.36,107.13 	"/>
	<polyline fill="none" stroke="#1D2132" stroke-width="0.1" stroke-miterlimit="10" points="50.99,108 50.99,110 28.52,110 
		28.52,108 50.99,108 	"/>
	<polyline fill="none" stroke="#1D2132" stroke-width="0.1" stroke-miterlimit="10" points="76.71,49.58 77.57,49.58 77.57,28.36 
		76.71,28.36 76.71,49.58 	"/>
	<polyline fill="none" stroke="#1D2132" stroke-width="0.1" stroke-miterlimit="10" points="75.57,27.11 77.57,27.11 77.57,50.83 
		75.57,50.83 75.57,27.11 	"/>
	<polyline fill="none" stroke="#1D2132" stroke-width="0.1" stroke-miterlimit="10" points="76.71,26.67 76.71,26.24 77.57,26.24 
		77.57,26.67 76.71,26.67 77.57,26.67 77.57,28.36 76.71,28.36 76.71,26.67 	"/>
	<polyline fill="none" stroke="#1D2132" stroke-width="0.1" stroke-miterlimit="10" points="76.71,49.58 77.57,49.58 77.57,51.24 
		76.71,51.24 76.71,49.58 	"/>
	<polyline fill="none" stroke="#1D2132" stroke-width="0.1" stroke-miterlimit="10" points="77.57,50.21 79.57,50.21 79.57,27.74 
		77.57,27.74 77.57,50.21 	"/>
</g>
<g id="Doors">
	<g>
		<polygon fill="none" stroke="#1D2132" stroke-width="0.1" stroke-miterlimit="10" points="11.02,60.69 11.02,61.69 10.54,61.69 
			10.54,60.69 		"/>
		<polygon fill="none" stroke="#1D2132" stroke-width="0.1" stroke-miterlimit="10" points="21.93,60.69 21.93,61.69 22.37,61.69 
			22.37,60.69 		"/>
		<polyline fill="none" stroke="#1D2132" stroke-width="0.1" stroke-miterlimit="10" points="18.73,69.5 18.87,69.35 19,69.21 
			19.13,69.06 19.26,68.91 19.39,68.76 19.51,68.59 19.64,68.45 19.76,68.28 19.86,68.12 19.98,67.95 20.09,67.79 20.19,67.62 
			20.3,67.45 20.4,67.28 20.5,67.1 20.6,66.93 20.69,66.76 20.77,66.58 20.86,66.4 20.94,66.22 21.03,66.03 21.1,65.85 21.17,65.67 
			21.25,65.47 21.31,65.29 21.37,65.1 21.43,64.92 21.48,64.72 21.54,64.53 21.59,64.34 21.64,64.14 21.69,63.95 21.71,63.75 
			21.76,63.55 21.79,63.36 21.82,63.17 21.84,62.97 21.87,62.78 21.89,62.56 21.91,62.37 21.91,62.18 21.92,61.97 21.93,61.78 		"/>
		<polygon fill="none" stroke="#1D2132" stroke-width="0.1" stroke-miterlimit="10" points="11.09,61.82 18.73,69.5 19,69.21 
			11.4,61.51 		"/>
	</g>
	<g>
		<polygon fill="none" stroke="#1D2132" stroke-width="0.1" stroke-miterlimit="10" points="19.78,23.54 18.79,23.54 18.79,23.11 
			19.78,23.11 		"/>
		<polygon fill="none" stroke="#1D2132" stroke-width="0.1" stroke-miterlimit="10" points="19.78,33.33 18.79,33.33 18.79,33.73 
			19.78,33.73 		"/>
		<polyline fill="none" stroke="#1D2132" stroke-width="0.1" stroke-miterlimit="10" points="11.79,30.46 11.92,30.58 12.05,30.7 
			12.18,30.82 12.32,30.94 12.45,31.05 12.6,31.16 12.73,31.27 12.88,31.38 13.03,31.48 13.18,31.59 13.32,31.68 13.48,31.77 
			13.63,31.87 13.78,31.96 13.94,32.04 14.09,32.13 14.25,32.22 14.41,32.29 14.57,32.37 14.73,32.45 14.9,32.52 15.06,32.59 
			15.23,32.65 15.4,32.72 15.56,32.77 15.74,32.82 15.9,32.88 16.07,32.93 16.24,32.98 16.42,33.03 16.6,33.07 16.77,33.11 
			16.94,33.14 17.12,33.18 17.29,33.2 17.47,33.23 17.65,33.25 17.82,33.28 18.01,33.29 18.18,33.31 18.35,33.32 18.54,33.32 
			18.71,33.33 		"/>
		<polygon fill="none" stroke="#1D2132" stroke-width="0.1" stroke-miterlimit="10" points="18.67,23.61 11.79,30.46 12.05,30.7 
			18.95,23.89 		"/>
	</g>
	<g>
		<polygon fill="none" stroke="#1D2132" stroke-width="0.1" stroke-miterlimit="10" points="16.15,11.67 16.15,10.35 16.73,10.35 
			16.73,11.67 		"/>
		<polygon fill="none" stroke="#1D2132" stroke-width="0.1" stroke-miterlimit="10" points="2.96,11.67 2.96,10.35 2.43,10.35 
			2.43,11.67 		"/>
		<polyline fill="none" stroke="#1D2132" stroke-width="0.1" stroke-miterlimit="10" points="6.83,0.91 6.66,1.09 6.51,1.27 
			6.34,1.44 6.19,1.63 6.03,1.81 5.89,2.01 5.73,2.19 5.59,2.38 5.46,2.58 5.31,2.78 5.18,2.98 5.06,3.19 4.93,3.39 4.81,3.6 
			4.69,3.81 4.57,4.02 4.46,4.23 4.36,4.44 4.25,4.66 4.15,4.88 4.05,5.1 3.97,5.32 3.88,5.55 3.79,5.78 3.71,6 3.64,6.23 
			3.57,6.45 3.5,6.68 3.43,6.92 3.37,7.15 3.31,7.39 3.26,7.62 3.22,7.86 3.17,8.1 3.14,8.33 3.09,8.56 3.07,8.81 3.04,9.04 
			3.01,9.29 2.99,9.52 2.98,9.76 2.97,10.01 2.96,10.24 		"/>
		<polygon fill="none" stroke="#1D2132" stroke-width="0.1" stroke-miterlimit="10" points="16.06,10.19 6.83,0.91 6.51,1.27 
			15.68,10.56 		"/>
	</g>
</g>
<g id="Walls">
	<polyline fill="#1D2132" stroke="#1D2132" stroke-width="0.1" stroke-miterlimit="10" points="0.43,108 28.52,108 28.52,109.87 
		0.43,109.87 0.43,108.13 	"/>
	<polyline fill="#1D2132" stroke="#1D2132" stroke-width="0.1" stroke-miterlimit="10" points="50.99,108 77.57,108 77.57,50.21 
		79.45,50.21 79.45,108 79.45,109.87 50.99,109.87 50.99,108 	"/>
	<polyline fill="#1D2132" stroke="#1D2132" stroke-width="0.1" stroke-miterlimit="10" points="77.57,10 77.57,27.11 75.57,27.11 
		75.57,10 	"/>
	<polyline fill="#1D2132" stroke="#1D2132" stroke-width="0.1" stroke-miterlimit="10" points="77.57,50.83 77.57,108 75.57,108 
		75.57,105.45 75.57,50.83 77.57,50.83 	"/>
	<polyline fill="#1D2132" stroke="#1D2132" stroke-width="0.1" stroke-miterlimit="10" points="51.61,108 75.57,108 75.57,106.01 
		51.61,106.01 51.61,108 	"/>
	<polyline fill="#1D2132" stroke="#1D2132" stroke-width="0.1" stroke-miterlimit="10" points="0.43,106.01 0.43,106.01 0.43,108 	
		"/>
	<line fill="none" stroke="#1D2132" stroke-width="0.1" stroke-miterlimit="10" x1="0.43" y1="108" x2="0.43" y2="108"/>
	<polyline fill="#1D2132" stroke="#1D2132" stroke-width="0.1" stroke-miterlimit="10" points="77.57,27.74 77.57,10 79.45,10 
		79.45,27.74 77.57,27.74 	"/>
	<polyline fill="#1D2132" stroke="#1D2132" stroke-width="0.1" stroke-miterlimit="10" points="18.78,19.87 18.78,23.11 
		19.78,23.11 19.78,19.87 18.78,19.87 	"/>
	<polyline fill="#1D2132" stroke="#1D2132" stroke-width="0.1" stroke-miterlimit="10" points="19.78,33.73 18.78,33.73 
		18.78,48.58 19.78,48.58 19.78,41.09 41.62,41.09 41.62,48.58 42.62,48.58 42.62,12 41.62,12 41.62,40.09 19.78,40.09 19.78,33.73 
			"/>
	<polyline fill="#1D2132" stroke="#1D2132" stroke-width="0.1" stroke-miterlimit="10" points="2.43,61.69 10.54,61.69 10.54,60.69 
		2.43,60.69 2.43,61.69 	"/>
	<polyline fill="#1D2132" stroke="#1D2132" stroke-width="0.1" stroke-miterlimit="10" points="22.37,60.69 22.37,61.69 
		75.57,61.69 75.57,60.69 22.37,60.69 	"/>
	<polyline fill="#1D2132" stroke="#1D2132" stroke-width="0.1" stroke-miterlimit="10" points="2.43,108 27.89,108 27.89,106.01 
		2.43,106.01 2.43,108 	"/>
	<polyline fill="#1D2132" stroke="#1D2132" stroke-width="0.1" stroke-miterlimit="10" points="2.43,108 1.43,108 0.43,108 0.43,10 
		2.43,10 2.43,108 	"/>
	<polyline fill="#1D2132" stroke="#1D2132" stroke-width="0.1" stroke-miterlimit="10" points="75.57,11.13 75.57,10 18.37,10 
		18.37,12 75.57,12 75.57,11.13 	"/>
	<polyline fill="#1D2132" stroke="#1D2132" stroke-width="0.1" stroke-miterlimit="10" points="16.78,12 18.4,12 18.4,10 16.78,10 
		16.78,12 	"/>
	<polyline fill="#1D2132" stroke="#1D2132" stroke-width="0.1" stroke-miterlimit="10" points="20.77,19.87 18.78,19.87 18.78,12 
		20.77,12 20.77,19.87 	"/>
	<line fill="none" stroke="#1D2132" stroke-width="0.1" stroke-miterlimit="10" x1="75.52" y1="10" x2="77.56" y2="10"/>
</g>
<g id="Text">
	
		<text id="TXT--" transform="matrix(1 0 0 1 47.1662 95.2233)" opacity="0.7" fill="#1D2132" enable-background="new    " font-family="'Cannonade-Medium'" font-size="3px">20,80</text>
	
		<text id="TXT---" transform="matrix(1 0 0 1 57.085 29.43)" opacity="0.7" fill="#1D2132" enable-background="new    " font-family="'Cannonade-Medium'" font-size="3px">10,30</text>
	
		<text id="TXT--" transform="matrix(1 0 0 1 7.4827 52.0299)" opacity="0.7" fill="#1D2132" enable-background="new    " font-family="'Cannonade-Medium'" font-size="3px">8,01</text>
	
		<text id="TXT--" transform="matrix(1 0 0 1 24.9009 27.2992)" opacity="0.7" fill="#1D2132" enable-background="new    " font-family="'Cannonade-Medium'" font-size="3px">3,88</text>
</g>
<g id="Details">
	<path fill="none" stroke="#1D2132" stroke-width="0.1" stroke-linecap="round" stroke-linejoin="round" stroke-miterlimit="10" d="
		M40.37,19.59c0.47,0,0.85-0.38,0.85-0.85s-0.38-0.85-0.85-0.85c-0.47,0-0.85,0.38-0.85,0.85S39.9,19.59,40.37,19.59"/>
	<path fill="none" stroke="#1D2132" stroke-width="0.1" stroke-linecap="round" stroke-linejoin="round" stroke-miterlimit="10" d="
		M40.37,19.43c0.38,0,0.69-0.31,0.69-0.69s-0.31-0.69-0.69-0.69c-0.38,0-0.69,0.31-0.69,0.69S39.99,19.43,40.37,19.43"/>
	<path fill="none" stroke="#1D2132" stroke-width="0.1" stroke-linecap="round" stroke-linejoin="round" stroke-miterlimit="10" d="
		M40.37,19.38c0.36,0,0.65-0.29,0.65-0.65c0-0.36-0.29-0.65-0.65-0.65s-0.65,0.29-0.65,0.65C39.72,19.1,40.01,19.38,40.37,19.38"/>
	
		<line fill="none" stroke="#1D2132" stroke-width="0.1" stroke-linecap="round" stroke-linejoin="round" stroke-miterlimit="10" x1="41.26" y1="18.74" x2="40.96" y2="18.74"/>
	<polygon fill="#1D2132" points="40.92,18.65 40.88,18.66 40.85,18.68 40.83,18.72 40.83,18.76 40.85,18.8 40.88,18.82 40.92,18.83 
		40.96,18.82 40.99,18.8 41.01,18.76 41.01,18.72 40.99,18.68 40.96,18.66 	"/>
	
		<polygon fill="none" stroke="#1D2132" stroke-width="0.1" stroke-linecap="round" stroke-linejoin="round" stroke-miterlimit="10" points="
		40.92,18.65 40.88,18.66 40.85,18.68 40.83,18.72 40.83,18.76 40.85,18.8 40.88,18.82 40.92,18.83 40.96,18.82 40.99,18.8 
		41.01,18.76 41.01,18.72 40.99,18.68 40.96,18.66 	"/>
	
		<line fill="none" stroke="#1D2132" stroke-width="0.1" stroke-linecap="round" stroke-linejoin="round" stroke-miterlimit="10" x1="40.89" y1="18.74" x2="40.59" y2="18.74"/>
	<polygon fill="#1D2132" points="40.56,18.65 40.51,18.66 40.48,18.68 40.46,18.72 40.46,18.76 40.48,18.8 40.51,18.82 40.56,18.83 
		40.6,18.82 40.63,18.8 40.65,18.76 40.65,18.72 40.63,18.68 40.6,18.66 	"/>
	
		<polygon fill="none" stroke="#1D2132" stroke-width="0.1" stroke-linecap="round" stroke-linejoin="round" stroke-miterlimit="10" points="
		40.56,18.65 40.51,18.66 40.48,18.68 40.46,18.72 40.46,18.76 40.48,18.8 40.51,18.82 40.56,18.83 40.6,18.82 40.63,18.8 
		40.65,18.76 40.65,18.72 40.63,18.68 40.6,18.66 	"/>
	
		<line fill="none" stroke="#1D2132" stroke-width="0.1" stroke-linecap="round" stroke-linejoin="round" stroke-miterlimit="10" x1="40.51" y1="18.74" x2="40.21" y2="18.74"/>
	<polygon fill="#1D2132" points="40.18,18.65 40.14,18.66 40.11,18.68 40.09,18.72 40.09,18.76 40.11,18.8 40.14,18.82 40.18,18.83 
		40.22,18.82 40.25,18.8 40.27,18.76 40.27,18.72 40.25,18.68 40.22,18.66 	"/>
	
		<polygon fill="none" stroke="#1D2132" stroke-width="0.1" stroke-linecap="round" stroke-linejoin="round" stroke-miterlimit="10" points="
		40.18,18.65 40.14,18.66 40.11,18.68 40.09,18.72 40.09,18.76 40.11,18.8 40.14,18.82 40.18,18.83 40.22,18.82 40.25,18.8 
		40.27,18.76 40.27,18.72 40.25,18.68 40.22,18.66 	"/>
	
		<line fill="none" stroke="#1D2132" stroke-width="0.1" stroke-linecap="round" stroke-linejoin="round" stroke-miterlimit="10" x1="40.14" y1="18.74" x2="39.84" y2="18.74"/>
	<polygon fill="#1D2132" points="39.8,18.65 39.76,18.66 39.73,18.68 39.71,18.72 39.71,18.76 39.73,18.8 39.76,18.82 39.8,18.83 
		39.84,18.82 39.87,18.8 39.89,18.76 39.89,18.72 39.87,18.68 39.84,18.66 	"/>
	
		<polygon fill="none" stroke="#1D2132" stroke-width="0.1" stroke-linecap="round" stroke-linejoin="round" stroke-miterlimit="10" points="
		39.8,18.65 39.76,18.66 39.73,18.68 39.71,18.72 39.71,18.76 39.73,18.8 39.76,18.82 39.8,18.83 39.84,18.82 39.87,18.8 
		39.89,18.76 39.89,18.72 39.87,18.68 39.84,18.66 	"/>
	
		<line fill="none" stroke="#1D2132" stroke-width="0.1" stroke-linecap="round" stroke-linejoin="round" stroke-miterlimit="10" x1="39.76" y1="18.74" x2="39.47" y2="18.74"/>
	<polygon fill="#1D2132" points="39.42,18.65 39.38,18.66 39.35,18.68 39.33,18.72 39.33,18.76 39.35,18.8 39.38,18.82 39.42,18.83 
		39.47,18.82 39.5,18.8 39.52,18.76 39.52,18.72 39.5,18.68 39.47,18.66 	"/>
	
		<polygon fill="none" stroke="#1D2132" stroke-width="0.1" stroke-linecap="round" stroke-linejoin="round" stroke-miterlimit="10" points="
		39.42,18.65 39.38,18.66 39.35,18.68 39.33,18.72 39.33,18.76 39.35,18.8 39.38,18.82 39.42,18.83 39.47,18.82 39.5,18.8 
		39.52,18.76 39.52,18.72 39.5,18.68 39.47,18.66 	"/>
	
		<line fill="none" stroke="#1D2132" stroke-width="0.1" stroke-linecap="round" stroke-linejoin="round" stroke-miterlimit="10" x1="39.39" y1="18.74" x2="39.18" y2="18.74"/>
	
		<line fill="none" stroke="#1D2132" stroke-width="0.1" stroke-linecap="round" stroke-linejoin="round" stroke-miterlimit="10" x1="40.37" y1="17.56" x2="40.37" y2="17.78"/>
	<polygon fill="#1D2132" points="40.37,17.71 40.33,17.72 40.3,17.74 40.28,17.79 40.28,17.83 40.3,17.87 40.33,17.89 40.37,17.9 
		40.41,17.89 40.44,17.87 40.46,17.83 40.46,17.79 40.44,17.74 40.41,17.72 	"/>
	
		<polygon fill="none" stroke="#1D2132" stroke-width="0.1" stroke-linecap="round" stroke-linejoin="round" stroke-miterlimit="10" points="
		40.37,17.71 40.33,17.72 40.3,17.74 40.28,17.79 40.28,17.83 40.3,17.87 40.33,17.89 40.37,17.9 40.41,17.89 40.44,17.87 
		40.46,17.83 40.46,17.79 40.44,17.74 40.41,17.72 	"/>
	
		<line fill="none" stroke="#1D2132" stroke-width="0.1" stroke-linecap="round" stroke-linejoin="round" stroke-miterlimit="10" x1="40.37" y1="17.85" x2="40.37" y2="18.14"/>
	<polygon fill="#1D2132" points="40.37,18.09 40.33,18.1 40.3,18.12 40.28,18.16 40.28,18.2 40.3,18.24 40.33,18.26 40.37,18.27 
		40.41,18.26 40.44,18.24 40.46,18.2 40.46,18.16 40.44,18.12 40.41,18.1 	"/>
	
		<polygon fill="none" stroke="#1D2132" stroke-width="0.1" stroke-linecap="round" stroke-linejoin="round" stroke-miterlimit="10" points="
		40.37,18.09 40.33,18.1 40.3,18.12 40.28,18.16 40.28,18.2 40.3,18.24 40.33,18.26 40.37,18.27 40.41,18.26 40.44,18.24 
		40.46,18.2 40.46,18.16 40.44,18.12 40.41,18.1 	"/>
	
		<line fill="none" stroke="#1D2132" stroke-width="0.1" stroke-linecap="round" stroke-linejoin="round" stroke-miterlimit="10" x1="40.37" y1="18.22" x2="40.37" y2="18.52"/>
	<polygon fill="#1D2132" points="40.37,18.47 40.33,18.48 40.3,18.5 40.28,18.54 40.28,18.58 40.3,18.62 40.33,18.64 40.37,18.65 
		40.41,18.64 40.44,18.62 40.46,18.58 40.46,18.54 40.44,18.5 40.41,18.48 	"/>
	
		<polygon fill="none" stroke="#1D2132" stroke-width="0.1" stroke-linecap="round" stroke-linejoin="round" stroke-miterlimit="10" points="
		40.37,18.47 40.33,18.48 40.3,18.5 40.28,18.54 40.28,18.58 40.3,18.62 40.33,18.64 40.37,18.65 40.41,18.64 40.44,18.62 
		40.46,18.58 40.46,18.54 40.44,18.5 40.41,18.48 	"/>
	
		<line fill="none" stroke="#1D2132" stroke-width="0.1" stroke-linecap="round" stroke-linejoin="round" stroke-miterlimit="10" x1="40.37" y1="18.6" x2="40.37" y2="18.9"/>
	<polygon fill="#1D2132" points="40.37,18.84 40.33,18.86 40.3,18.88 40.28,18.92 40.28,18.96 40.3,19 40.33,19.02 40.37,19.03 
		40.41,19.02 40.44,19 40.46,18.96 40.46,18.92 40.44,18.88 40.41,18.86 	"/>
	
		<polygon fill="none" stroke="#1D2132" stroke-width="0.1" stroke-linecap="round" stroke-linejoin="round" stroke-miterlimit="10" points="
		40.37,18.84 40.33,18.86 40.3,18.88 40.28,18.92 40.28,18.96 40.3,19 40.33,19.02 40.37,19.03 40.41,19.02 40.44,19 40.46,18.96 
		40.46,18.92 40.44,18.88 40.41,18.86 	"/>
	
		<line fill="none" stroke="#1D2132" stroke-width="0.1" stroke-linecap="round" stroke-linejoin="round" stroke-miterlimit="10" x1="40.37" y1="18.97" x2="40.37" y2="19.27"/>
	<polygon fill="#1D2132" points="40.37,19.21 40.33,19.22 40.3,19.24 40.28,19.28 40.28,19.32 40.3,19.36 40.33,19.38 40.37,19.39 
		40.41,19.38 40.44,19.36 40.46,19.32 40.46,19.28 40.44,19.24 40.41,19.22 	"/>
	
		<polygon fill="none" stroke="#1D2132" stroke-width="0.1" stroke-linecap="round" stroke-linejoin="round" stroke-miterlimit="10" points="
		40.37,19.21 40.33,19.22 40.3,19.24 40.28,19.28 40.28,19.32 40.3,19.36 40.33,19.38 40.37,19.39 40.41,19.38 40.44,19.36 
		40.46,19.32 40.46,19.28 40.44,19.24 40.41,19.22 	"/>
	
		<line fill="none" stroke="#1D2132" stroke-width="0.1" stroke-linecap="round" stroke-linejoin="round" stroke-miterlimit="10" x1="40.37" y1="19.34" x2="40.37" y2="19.64"/>
	<polygon fill="#1D2132" points="40.37,19.59 40.33,19.6 40.3,19.62 40.28,19.66 40.28,19.7 40.3,19.74 40.33,19.76 40.37,19.77 
		40.41,19.76 40.44,19.74 40.46,19.7 40.46,19.66 40.44,19.62 40.41,19.6 	"/>
	
		<polygon fill="none" stroke="#1D2132" stroke-width="0.1" stroke-linecap="round" stroke-linejoin="round" stroke-miterlimit="10" points="
		40.37,19.59 40.33,19.6 40.3,19.62 40.28,19.66 40.28,19.7 40.3,19.74 40.33,19.76 40.37,19.77 40.41,19.76 40.44,19.74 
		40.46,19.7 40.46,19.66 40.44,19.62 40.41,19.6 	"/>
	
		<line fill="none" stroke="#1D2132" stroke-width="0.1" stroke-linecap="round" stroke-linejoin="round" stroke-miterlimit="10" x1="40.37" y1="19.72" x2="40.37" y2="19.93"/>
	
		<polyline fill="none" stroke="#1D2132" stroke-width="0.1" stroke-linecap="round" stroke-linejoin="round" stroke-miterlimit="10" points="
		41.62,17.5 39.13,17.5 39.13,20 41.62,20 41.62,17.5 	"/>
	<path fill="none" stroke="#1D2132" stroke-width="0.1" stroke-linecap="round" stroke-linejoin="round" stroke-miterlimit="10" d="
		M40.37,19.63c0.49,0,0.89-0.4,0.89-0.89s-0.4-0.89-0.89-0.89c-0.49,0-0.89,0.4-0.89,0.89S39.87,19.63,40.37,19.63"/>
	
		<line fill="none" stroke="#1D2132" stroke-width="0.1" stroke-linecap="round" stroke-linejoin="round" stroke-miterlimit="10" x1="41.55" y1="18.74" x2="41.34" y2="18.74"/>
	<polygon fill="#1D2132" points="41.3,18.65 41.26,18.66 41.23,18.68 41.21,18.72 41.21,18.76 41.23,18.8 41.26,18.82 41.3,18.83 
		41.34,18.82 41.37,18.8 41.39,18.76 41.39,18.72 41.37,18.68 41.34,18.66 	"/>
	
		<polygon fill="none" stroke="#1D2132" stroke-width="0.1" stroke-linecap="round" stroke-linejoin="round" stroke-miterlimit="10" points="
		41.3,18.65 41.26,18.66 41.23,18.68 41.21,18.72 41.21,18.76 41.23,18.8 41.26,18.82 41.3,18.83 41.34,18.82 41.37,18.8 
		41.39,18.76 41.39,18.72 41.37,18.68 41.34,18.66 	"/>
</g>
</svg>
