<?xml version="1.0" encoding="utf-8"?>
<!-- Generator: Adobe Illustrator 22.0.0, SVG Export Plug-In . SVG Version: 6.00 Build 0)  -->
<svg version="1.1" id="Layer_1" xmlns="http://www.w3.org/2000/svg" xmlns:xlink="http://www.w3.org/1999/xlink" x="0px" y="0px"
	 viewBox="0 0 82 100" enable-background="new 0 0 82 100" xml:space="preserve">
<g id="Background">
	<rect x="1.85" y="1.48" opacity="0.1" fill="#1D2132" enable-background="new    " width="75.63" height="97"/>
</g>
<g id="Plumbing">
	<g>
		<polyline fill="#FFFFFF" points="21.84,5.36 21.84,2.16 14.67,2.16 14.67,5.36 14.67,5.59 14.71,5.81 14.76,6.02 14.83,6.23 
			14.94,6.44 15.05,6.62 15.2,6.79 15.35,6.94 15.58,7.12 15.83,7.27 16.09,7.4 16.35,7.51 16.61,7.59 16.91,7.69 17.18,7.76 
			17.44,7.81 17.73,7.86 18.02,7.87 18.27,7.9 18.51,7.87 18.8,7.87 19.08,7.81 19.35,7.76 19.62,7.69 19.88,7.61 20.17,7.51 
			20.43,7.4 20.69,7.27 20.94,7.12 21.17,6.94 21.32,6.79 21.47,6.62 21.58,6.44 21.68,6.23 21.77,6.02 21.82,5.81 21.84,5.59 
			21.84,5.48 21.84,5.36 		"/>
		
			<line fill="none" stroke="#1D2132" stroke-width="0.1" stroke-linecap="square" stroke-miterlimit="10" x1="21.84" y1="2.16" x2="14.67" y2="2.16"/>
		
			<line fill="none" stroke="#1D2132" stroke-width="0.1" stroke-linecap="square" stroke-miterlimit="10" x1="14.67" y1="2.16" x2="14.67" y2="5.36"/>
		
			<line fill="none" stroke="#1D2132" stroke-width="0.1" stroke-linecap="square" stroke-miterlimit="10" x1="21.84" y1="2.16" x2="21.84" y2="5.36"/>
		
			<line fill="none" stroke="#1D2132" stroke-width="0.1" stroke-linecap="square" stroke-miterlimit="10" x1="17.14" y1="2.16" x2="19.39" y2="2.16"/>
		
			<line fill="none" stroke="#1D2132" stroke-width="0.1" stroke-linecap="square" stroke-miterlimit="10" x1="17.67" y1="4.73" x2="18.03" y2="4.73"/>
		
			<line fill="none" stroke="#1D2132" stroke-width="0.1" stroke-linecap="square" stroke-miterlimit="10" x1="18.27" y1="4.09" x2="18.27" y2="4.51"/>
		
			<line fill="none" stroke="#1D2132" stroke-width="0.1" stroke-linecap="square" stroke-miterlimit="10" x1="18.49" y1="4.73" x2="18.86" y2="4.73"/>
		
			<line fill="none" stroke="#1D2132" stroke-width="0.1" stroke-linecap="square" stroke-miterlimit="10" x1="18.27" y1="4.98" x2="18.27" y2="5.37"/>
		<path fill="none" stroke="#1D2132" stroke-width="0.1" stroke-linecap="square" stroke-miterlimit="10" d="M20.17,3.97
			c0.56,0.38,0.99,0.94,1.24,1.6"/>
		<path fill="none" stroke="#1D2132" stroke-width="0.1" stroke-linecap="square" stroke-miterlimit="10" d="M18.27,3.49
			c0.07-0.01,0.17-0.01,0.25-0.01c0.58,0,1.15,0.16,1.65,0.48"/>
		<path fill="none" stroke="#1D2132" stroke-width="0.1" stroke-linecap="square" stroke-miterlimit="10" d="M15.11,5.55
			c0.24-0.66,0.68-1.2,1.24-1.6"/>
		<path fill="none" stroke="#1D2132" stroke-width="0.1" stroke-linecap="square" stroke-miterlimit="10" d="M16.35,3.97
			c0.49-0.31,1.06-0.48,1.65-0.48c0.07,0,0.17,0,0.25,0.01"/>
		<path fill="none" stroke="#1D2132" stroke-width="0.1" stroke-linecap="square" stroke-miterlimit="10" d="M20.69,7.27
			c-0.68,0.36-1.42,0.56-2.17,0.62"/>
		<path fill="none" stroke="#1D2132" stroke-width="0.1" stroke-linecap="square" stroke-miterlimit="10" d="M15.35,6.94
			c-0.43-0.37-0.68-0.92-0.68-1.5c0-0.02,0-0.06,0-0.07"/>
		<path fill="none" stroke="#1D2132" stroke-width="0.1" stroke-linecap="square" stroke-miterlimit="10" d="M18.51,7.87
			c-0.07,0.01-0.17,0.01-0.25,0.01c-0.07,0-0.17,0-0.25-0.01"/>
		<path fill="none" stroke="#1D2132" stroke-width="0.1" stroke-linecap="square" stroke-miterlimit="10" d="M16.27,4.09
			c0.67-0.1,1.34-0.16,1.99-0.16c0.67,0,1.35,0.06,2,0.16"/>
		<path fill="none" stroke="#1D2132" stroke-width="0.1" stroke-linecap="square" stroke-miterlimit="10" d="M16.26,2.79
			c0.67-0.1,1.35-0.15,2.02-0.15"/>
		<path fill="none" stroke="#1D2132" stroke-width="0.1" stroke-linecap="square" stroke-miterlimit="10" d="M14.85,5.84
			c0-0.02,0-0.04,0-0.06c0-1.04,0.36-2.04,1.01-2.82"/>
		<path fill="none" stroke="#1D2132" stroke-width="0.1" stroke-linecap="square" stroke-miterlimit="10" d="M15.87,2.98
			c0.09-0.11,0.24-0.19,0.37-0.21"/>
		<path fill="none" stroke="#1D2132" stroke-width="0.1" stroke-linecap="square" stroke-miterlimit="10" d="M20.66,2.97
			c0.66,0.78,1.01,1.78,1.01,2.82c0,0.01,0,0.04,0,0.05"/>
		<path fill="none" stroke="#1D2132" stroke-width="0.1" stroke-linecap="square" stroke-miterlimit="10" d="M18.27,2.62
			c0.68,0,1.35,0.06,2.02,0.15"/>
		<path fill="none" stroke="#1D2132" stroke-width="0.1" stroke-linecap="square" stroke-miterlimit="10" d="M20.27,2.79
			c0.14,0.02,0.27,0.09,0.37,0.21"/>
		<path fill="none" stroke="#1D2132" stroke-width="0.1" stroke-linecap="square" stroke-miterlimit="10" d="M21.84,5.36
			c0,0.02,0,0.06,0,0.07c0,0.58-0.25,1.14-0.68,1.5"/>
		<path fill="none" stroke="#1D2132" stroke-width="0.1" stroke-linecap="square" stroke-miterlimit="10" d="M21.17,6.94
			c-0.15,0.12-0.31,0.24-0.47,0.32"/>
		<path fill="none" stroke="#1D2132" stroke-width="0.1" stroke-linecap="square" stroke-miterlimit="10" d="M15.83,7.27
			c-0.17-0.09-0.33-0.2-0.47-0.32"/>
		<path fill="none" stroke="#1D2132" stroke-width="0.1" stroke-linecap="square" stroke-miterlimit="10" d="M18.02,7.87
			c-0.75-0.06-1.5-0.27-2.17-0.62"/>
		<path fill="none" stroke="#1D2132" stroke-width="0.1" stroke-linecap="square" stroke-miterlimit="10" d="M19.26,7.36
			c-0.32,0.07-0.66,0.12-0.99,0.12s-0.67-0.05-0.99-0.12"/>
		<path fill="none" stroke="#1D2132" stroke-width="0.1" stroke-linecap="square" stroke-miterlimit="10" d="M21.42,5.55
			c0,0.02,0,0.05,0,0.07c0,0.33-0.14,0.64-0.37,0.87"/>
		<path fill="none" stroke="#1D2132" stroke-width="0.1" stroke-linecap="square" stroke-miterlimit="10" d="M21.03,6.49
			c-0.52,0.43-1.13,0.73-1.78,0.87"/>
		<path fill="none" stroke="#1D2132" stroke-width="0.1" stroke-linecap="square" stroke-miterlimit="10" d="M15.49,6.49
			c-0.24-0.22-0.37-0.53-0.37-0.87c0-0.02,0-0.05,0-0.07"/>
		<path fill="none" stroke="#1D2132" stroke-width="0.1" stroke-linecap="square" stroke-miterlimit="10" d="M17.27,7.36
			C16.61,7.23,16,6.94,15.48,6.48"/>
		<path fill="none" stroke="#1D2132" stroke-width="0.1" stroke-linecap="square" stroke-miterlimit="10" d="M18.27,4.24
			c-0.25,0-0.46,0.22-0.46,0.49s0.21,0.49,0.46,0.49S18.73,5,18.73,4.73C18.74,4.47,18.51,4.24,18.27,4.24"/>
		<path fill="none" stroke="#1D2132" stroke-width="0.1" stroke-linecap="square" stroke-miterlimit="10" d="M18.27,4.47
			c-0.14,0-0.25,0.11-0.25,0.26s0.11,0.26,0.25,0.26s0.25-0.11,0.25-0.26C18.51,4.59,18.4,4.47,18.27,4.47"/>
	</g>
	<g>
		<polygon fill="#FFFFFF" points="2.34,16.12 2.34,13.54 4.14,13.54 4.16,13.54 4.2,13.55 4.22,13.55 4.24,13.56 4.26,13.56 
			4.28,13.58 4.3,13.59 4.32,13.59 4.34,13.62 4.36,13.62 4.38,13.65 4.38,13.68 4.39,13.68 4.41,13.69 4.43,13.73 4.43,13.74 
			9.2,13.74 9.33,13.76 9.44,13.76 9.56,13.77 9.67,13.8 9.78,13.84 9.89,13.84 10,13.91 10.11,13.94 10.21,14.01 10.3,14.05 
			10.4,14.12 10.49,14.19 10.58,14.26 10.66,14.34 10.74,14.41 10.82,14.51 10.9,14.59 10.96,14.68 11.02,14.74 11.07,14.86 
			11.13,14.95 11.18,15.05 11.23,15.16 11.27,15.24 11.3,15.36 11.33,15.45 11.36,15.56 11.39,15.68 11.4,15.79 11.41,15.9 
			11.41,16.01 11.41,16.12 11.41,16.23 11.41,16.34 11.4,16.44 11.39,16.55 11.36,16.66 11.33,16.77 11.3,16.87 11.27,16.98 
			11.23,17.08 11.18,17.19 11.13,17.28 11.07,17.37 11.02,17.47 10.96,17.55 10.9,17.66 10.82,17.73 10.74,17.81 10.66,17.9 
			10.58,17.98 10.49,18.05 10.4,18.12 10.3,18.17 10.21,18.23 10.11,18.28 10,18.33 9.89,18.37 9.78,18.4 9.67,18.44 9.56,18.45 
			9.44,18.48 9.33,18.48 9.2,18.48 4.43,18.48 4.43,18.51 4.41,18.53 4.39,18.55 4.38,18.56 4.38,18.59 4.36,18.6 4.34,18.62 
			4.32,18.65 4.3,18.66 4.28,18.66 4.26,18.66 4.24,18.66 4.22,18.67 4.2,18.67 4.16,18.69 4.14,18.69 2.34,18.69 		"/>
		
			<line fill="none" stroke="#1D2132" stroke-width="0.1" stroke-linecap="square" stroke-miterlimit="10" x1="4.43" y1="13.74" x2="9.2" y2="13.74"/>
		
			<line fill="none" stroke="#1D2132" stroke-width="0.1" stroke-linecap="square" stroke-miterlimit="10" x1="2.34" y1="13.54" x2="2.34" y2="18.69"/>
		
			<line fill="none" stroke="#1D2132" stroke-width="0.1" stroke-linecap="square" stroke-miterlimit="10" x1="2.34" y1="13.54" x2="4.14" y2="13.54"/>
		
			<line fill="none" stroke="#1D2132" stroke-width="0.1" stroke-linecap="square" stroke-miterlimit="10" x1="5.28" y1="16.12" x2="5.28" y2="18.03"/>
		
			<line fill="none" stroke="#1D2132" stroke-width="0.1" stroke-linecap="square" stroke-miterlimit="10" x1="9.2" y1="13.74" x2="5.28" y2="14.2"/>
		
			<line fill="none" stroke="#1D2132" stroke-width="0.1" stroke-linecap="square" stroke-miterlimit="10" x1="5.28" y1="16.12" x2="5.28" y2="14.2"/>
		
			<line fill="none" stroke="#1D2132" stroke-width="0.1" stroke-linecap="square" stroke-miterlimit="10" x1="9.2" y1="18.48" x2="5.28" y2="18.03"/>
		
			<line fill="none" stroke="#1D2132" stroke-width="0.1" stroke-linecap="square" stroke-miterlimit="10" x1="4.43" y1="18.48" x2="9.2" y2="18.48"/>
		
			<line fill="none" stroke="#1D2132" stroke-width="0.1" stroke-linecap="square" stroke-miterlimit="10" x1="2.34" y1="18.69" x2="4.14" y2="18.69"/>
		<path fill="none" stroke="#1D2132" stroke-width="0.1" stroke-linecap="square" stroke-miterlimit="10" d="M4.45,18.42
			c0.09-0.77,0.12-1.54,0.12-2.31s-0.05-1.54-0.13-2.31"/>
		<path fill="none" stroke="#1D2132" stroke-width="0.1" stroke-linecap="square" stroke-miterlimit="10" d="M4.45,13.8
			c-0.02-0.15-0.16-0.27-0.31-0.27"/>
		<path fill="none" stroke="#1D2132" stroke-width="0.1" stroke-linecap="square" stroke-miterlimit="10" d="M9.2,18.48
			c1.22,0,2.21-1.06,2.21-2.37s-0.99-2.37-2.21-2.37"/>
		<path fill="none" stroke="#1D2132" stroke-width="0.1" stroke-linecap="square" stroke-miterlimit="10" d="M4.14,18.69
			c0.15,0,0.29-0.12,0.31-0.27"/>
		<path fill="none" stroke="#1D2132" stroke-width="0.1" stroke-linecap="square" stroke-miterlimit="10" d="M3.23,16.12
			c0-0.13,0.12-0.24,0.26-0.24c0.13,0,0.26,0.11,0.26,0.24c0,0.13-0.13,0.24-0.26,0.24C3.34,16.34,3.23,16.24,3.23,16.12"/>
	</g>
	<g>
		<path fill="#FFFFFF" d="M22.83,14.26V2.19c0-0.07,0.04-0.12,0.12-0.12h12.04c0.07,0,0.12,0.04,0.12,0.12v12.06
			c0,0.07-0.04,0.12-0.12,0.12H22.94C22.89,14.37,22.83,14.3,22.83,14.26z"/>
		
			<line fill="none" stroke="#1D2132" stroke-width="0.1" stroke-linecap="square" stroke-miterlimit="10" x1="32" y1="4.02" x2="32" y2="4.8"/>
		
			<line fill="none" stroke="#1D2132" stroke-width="0.1" stroke-linecap="square" stroke-miterlimit="10" x1="32.33" y1="5.13" x2="33.12" y2="5.13"/>
		
			<line fill="none" stroke="#1D2132" stroke-width="0.1" stroke-linecap="square" stroke-miterlimit="10" x1="32" y1="5.48" x2="32" y2="6.26"/>
		
			<line fill="none" stroke="#1D2132" stroke-width="0.1" stroke-linecap="square" stroke-miterlimit="10" x1="30.88" y1="5.13" x2="31.67" y2="5.13"/>
		
			<line fill="none" stroke="#1D2132" stroke-width="0.1" stroke-linecap="square" stroke-miterlimit="10" x1="23.52" y1="2.8" x2="23.52" y2="6.09"/>
		
			<line fill="none" stroke="#1D2132" stroke-width="0.1" stroke-linecap="square" stroke-miterlimit="10" x1="34.46" y1="5.97" x2="34.46" y2="13.48"/>
		<path fill="none" stroke="#1D2132" stroke-width="0.1" stroke-linecap="square" stroke-miterlimit="10" d="M23.52,2.8v10.62
			c0,0.1,0.09,0.19,0.19,0.19h10.62"/>
		
			<line fill="none" stroke="#1D2132" stroke-width="0.1" stroke-linecap="square" stroke-miterlimit="10" x1="23.65" y1="2.67" x2="31.18" y2="2.67"/>
		<g>
			<path fill="none" stroke="#1D2132" stroke-width="0.1" stroke-linecap="square" stroke-miterlimit="10" d="M31.38,2.7
				c-0.06-0.03-0.15-0.04-0.21-0.04"/>
		</g>
		<g>
			<path fill="none" stroke="#1D2132" stroke-width="0.1" stroke-linecap="square" stroke-miterlimit="10" d="M23.65,2.67
				c-0.07,0-0.13,0.06-0.13,0.13"/>
		</g>
		<g>
			<path fill="none" stroke="#1D2132" stroke-width="0.1" stroke-linecap="square" stroke-miterlimit="10" d="M31.38,2.7
				c-0.06-0.03-0.15-0.04-0.21-0.04"/>
		</g>
		<g>
			<path fill="none" stroke="#1D2132" stroke-width="0.1" stroke-linecap="square" stroke-miterlimit="10" d="M34.33,13.62
				c0.07,0,0.13-0.06,0.13-0.13"/>
		</g>
		<g>
			<path fill="none" stroke="#1D2132" stroke-width="0.1" stroke-linecap="square" stroke-miterlimit="10" d="M34.44,5.83
				c-0.69-1.35-1.79-2.44-3.15-3.15"/>
		</g>
		<g>
			<path fill="none" stroke="#1D2132" stroke-width="0.1" stroke-linecap="square" stroke-miterlimit="10" d="M34.46,5.97
				c0-0.07-0.01-0.15-0.03-0.22"/>
		</g>
		<g>
			<path fill="none" stroke="#1D2132" stroke-width="0.1" stroke-linecap="square" stroke-miterlimit="10" d="M34.42,5.76
				c-0.48-1.44-1.61-2.56-3.04-3.04"/>
		</g>
		<g>
			<path fill="none" stroke="#1D2132" stroke-width="0.1" stroke-linecap="square" stroke-miterlimit="10" d="M34.46,5.97
				c0-0.07-0.01-0.15-0.03-0.22"/>
		</g>
		<g>
			<path fill="none" stroke="#1D2132" stroke-width="0.1" stroke-linecap="square" stroke-miterlimit="10" d="M32,4.51
				c0.33,0,0.61,0.28,0.61,0.61c0.01,0.34-0.27,0.61-0.61,0.61c-0.33,0-0.61-0.28-0.61-0.61C31.38,4.8,31.67,4.51,32,4.51"/>
		</g>
		<g>
			<path fill="none" stroke="#1D2132" stroke-width="0.1" stroke-linecap="square" stroke-miterlimit="10" d="M32,4.27
				c0.48,0,0.87,0.39,0.87,0.87S32.48,6.02,32,6.02s-0.87-0.39-0.87-0.87C31.15,4.66,31.52,4.27,32,4.27"/>
		</g>
		<path fill="none" stroke="#1D2132" stroke-width="0.1" stroke-linecap="square" stroke-miterlimit="10" d="M22.83,13.98V2.36
			c0-0.18,0.15-0.33,0.33-0.33h11.62c0.18,0,0.33,0.15,0.33,0.33v11.6c0,0.18-0.15,0.33-0.33,0.33H23.16
			C22.98,14.3,22.83,14.16,22.83,13.98z"/>
	</g>
	<g>
		<g>
			<path fill="#FFFFFF" stroke="#1D2132" stroke-width="0.1" stroke-linecap="square" stroke-miterlimit="10" d="M29.72,21.17
				c-0.09,0-0.16-0.09-0.16-0.2s0.07-0.2,0.16-0.2s0.16,0.09,0.16,0.2S29.8,21.17,29.72,21.17z"/>
			
				<ellipse fill="#FFFFFF" stroke="#1D2132" stroke-width="0.1" stroke-linecap="square" stroke-miterlimit="10" cx="29.72" cy="21.81" rx="0.16" ry="0.2"/>
			<path fill="#FFFFFF" stroke="#1D2132" stroke-width="0.1" stroke-linecap="square" stroke-miterlimit="10" d="M29.72,25.48
				c-0.09,0-0.16-0.09-0.16-0.2s0.07-0.2,0.16-0.2s0.16,0.09,0.16,0.2C29.86,25.4,29.8,25.48,29.72,25.48z"/>
			<path fill="#FFFFFF" stroke="#1D2132" stroke-width="0.1" stroke-linecap="square" stroke-miterlimit="10" d="M29.72,25.48
				c0,0.44,0.09,0.8,0.21,0.8h0.54c0.12,0,0.21-0.36,0.21-0.8v-4.7c0-0.44-0.09-0.8-0.21-0.8h-0.54c-0.12,0-0.21,0.36-0.21,0.8
				V25.48z"/>
			
				<rect x="29.99" y="19.66" fill="#FFFFFF" stroke="#1D2132" stroke-width="0.1" stroke-linecap="square" stroke-miterlimit="10" width="4.71" height="7"/>
			<path fill="#FFFFFF" stroke="#1D2132" stroke-width="0.1" stroke-linecap="square" stroke-miterlimit="10" d="M30.25,25.48
				c0,0.44,0.77,0.8,1.72,0.8h0.77c0.95,0,1.72-0.36,1.72-0.8v-4.7c0-0.44-0.77-0.8-1.72-0.8h-0.77c-0.95,0-1.72,0.36-1.72,0.8
				L30.25,25.48z"/>
		</g>
		<g>
			<path fill="#FFFFFF" stroke="#1D2132" stroke-width="0.1" stroke-linecap="square" stroke-miterlimit="10" d="M33.88,25.34v-4.43
				c0-0.09,0.07-0.16,0.16-0.16h0.02c0.09,0,0.16,0.07,0.16,0.16v4.43c0,0.09-0.07,0.16-0.16,0.16h-0.02
				C33.94,25.49,33.88,25.42,33.88,25.34z"/>
			<g>
				
					<rect x="34.2" y="20.94" fill="#FFFFFF" stroke="#1D2132" stroke-width="0.1" stroke-linecap="square" stroke-miterlimit="10" width="0.75" height="0.28"/>
				
					<rect x="34.2" y="25.04" fill="#FFFFFF" stroke="#1D2132" stroke-width="0.1" stroke-linecap="square" stroke-miterlimit="10" width="0.75" height="0.28"/>
			</g>
			<g>
				
					<rect x="34.95" y="20.79" fill="#FFFFFF" stroke="#1D2132" stroke-width="0.1" stroke-linecap="square" stroke-miterlimit="10" width="0.14" height="0.59"/>
				
					<rect x="34.95" y="24.88" fill="#FFFFFF" stroke="#1D2132" stroke-width="0.1" stroke-linecap="square" stroke-miterlimit="10" width="0.14" height="0.59"/>
			</g>
		</g>
	</g>
</g>
<g id="Furniture">
	<g>
		
			<rect x="36.7" y="2.13" fill="#FFFFFF" stroke="#1D2132" stroke-width="0.092" stroke-linecap="square" stroke-miterlimit="22.9256" width="37.5" height="8.85"/>
		
			<rect x="51.51" y="2.15" fill="#FFFFFF" stroke="#1D2132" stroke-width="0.092" stroke-linecap="square" stroke-miterlimit="22.9256" width="6.89" height="8.85"/>
		
			<rect x="36.31" y="2.13" fill="#FFFFFF" stroke="#1D2132" stroke-width="0.092" stroke-linecap="square" stroke-miterlimit="22.9256" width="7.82" height="8.85"/>
		
			<rect x="66.57" y="2.13" fill="#FFFFFF" stroke="#1D2132" stroke-width="0.092" stroke-linecap="square" stroke-miterlimit="22.9256" width="7.61" height="8.85"/>
		<g>
			
				<line fill="none" stroke="#1D2132" stroke-width="0.092" stroke-linecap="square" stroke-miterlimit="22.9256" x1="70.29" y1="5.47" x2="70.29" y2="7.67"/>
			
				<line fill="none" stroke="#1D2132" stroke-width="0.092" stroke-linecap="square" stroke-miterlimit="22.9256" x1="71.06" y1="5.79" x2="69.5" y2="7.35"/>
			
				<line fill="none" stroke="#1D2132" stroke-width="0.092" stroke-linecap="square" stroke-miterlimit="22.9256" x1="71.39" y1="6.56" x2="69.17" y2="6.56"/>
			
				<line fill="none" stroke="#1D2132" stroke-width="0.092" stroke-linecap="square" stroke-miterlimit="22.9256" x1="71.06" y1="7.35" x2="69.5" y2="5.79"/>
		</g>
		<g>
			
				<rect x="52.43" y="2.51" fill="#FFFFFF" stroke="#1D2132" stroke-width="0.092" stroke-linecap="square" stroke-miterlimit="22.9256" width="5.16" height="8.12"/>
			<g>
				<path fill="#FFFFFF" stroke="#1D2132" stroke-width="0.092" stroke-linecap="square" stroke-miterlimit="22.9256" d="M53.6,8.42
					c0-0.79,0.63-1.41,1.41-1.41c0.79,0,1.41,0.63,1.41,1.41c0,0.78-0.63,1.41-1.41,1.41C54.22,9.84,53.6,9.2,53.6,8.42"/>
				<path fill="#FFFFFF" stroke="#1D2132" stroke-width="0.092" stroke-linecap="square" stroke-miterlimit="22.9256" d="M53.6,4.42
					c0-0.77,0.63-1.41,1.41-1.41c0.79,0,1.41,0.63,1.41,1.41c0,0.79-0.63,1.41-1.41,1.41C54.22,5.84,53.6,5.2,53.6,4.42"/>
				<path fill="#FFFFFF" stroke="#1D2132" stroke-width="0.092" stroke-linecap="square" stroke-miterlimit="22.9256" d="
					M53.88,8.42c0-0.63,0.52-1.12,1.12-1.12c0.63,0,1.12,0.52,1.12,1.12c0,0.63-0.52,1.12-1.12,1.12
					C54.37,9.56,53.88,9.05,53.88,8.42"/>
				<path fill="#FFFFFF" stroke="#1D2132" stroke-width="0.092" stroke-linecap="square" stroke-miterlimit="22.9256" d="
					M53.88,4.42c0-0.63,0.52-1.12,1.12-1.12c0.63,0,1.12,0.52,1.12,1.12c0,0.63-0.52,1.12-1.12,1.12S53.88,5.05,53.88,4.42"/>
			</g>
		</g>
		<g>
			<path fill="#FFFFFF" stroke="#1D2132" stroke-width="0.092" stroke-linecap="square" stroke-miterlimit="22.9256" d="M41.93,3.8
				h-3.41C38.22,3.8,38,4.02,38,4.31v5.63c0,0.29,0.22,0.52,0.52,0.52h3.41c0.29,0,0.52-0.22,0.52-0.52V4.3
				C42.44,4.01,42.22,3.8,41.93,3.8z"/>
			<g>
				<path fill="#FFFFFF" stroke="#1D2132" stroke-width="0.092" stroke-linecap="square" stroke-miterlimit="22.9256" d="
					M39.86,5.05c0,0.22,0.17,0.4,0.36,0.4s0.36-0.18,0.36-0.4c0-0.22-0.17-0.4-0.36-0.4C40.03,4.65,39.84,4.82,39.86,5.05z"/>
				<g>
					<path fill="#FFFFFF" stroke="#1D2132" stroke-width="0.092" stroke-linecap="square" stroke-miterlimit="22.9256" d="
						M39.61,3.24c0.02,0.3,0.28,0.55,0.61,0.55c0.35,0,0.61-0.25,0.61-0.55s-0.27-0.55-0.61-0.55C39.88,2.68,39.61,2.92,39.61,3.24z
						"/>
					<path fill="#FFFFFF" stroke="#1D2132" stroke-width="0.092" stroke-linecap="square" stroke-miterlimit="22.9256" d="
						M40.24,6.36c0.11,0,0.18-0.11,0.18-0.29L40.4,3.19c0-0.17-0.08-0.29-0.18-0.29l0,0c-0.11,0-0.18,0.13-0.18,0.29l0.02,2.88
						C40.06,6.23,40.13,6.36,40.24,6.36L40.24,6.36z"/>
					<path fill="#FFFFFF" stroke="#1D2132" stroke-width="0.092" stroke-linecap="square" stroke-miterlimit="22.9256" d="
						M39.38,3.27c0,0.1,0.38,0.17,0.85,0.17c0.46,0,0.85-0.08,0.85-0.17c0-0.11-0.38-0.17-0.85-0.17
						C39.75,3.08,39.36,3.14,39.38,3.27z"/>
				</g>
			</g>
		</g>
	</g>
	<g>
		<g>
			
				<rect x="53.89" y="37.1" transform="matrix(3.267497e-07 -1 1 3.267497e-07 4.6985 108.1309)" fill="#FFFFFF" stroke="#1D2132" stroke-width="0.1" stroke-linecap="square" stroke-miterlimit="10" width="5.05" height="29.24"/>
			<g>
				<polygon fill="#FFFFFF" stroke="#1D2132" stroke-width="0.1" stroke-linecap="square" stroke-miterlimit="10" points="
					44.72,54.24 44.2,54.24 44.2,54.75 47.22,54.75 47.22,54.24 46.7,54.24 46.7,54.57 44.72,54.57 				"/>
				<polygon fill="#FFFFFF" stroke="#1D2132" stroke-width="0.1" stroke-linecap="square" stroke-miterlimit="10" points="
					66.13,54.24 65.61,54.24 65.61,54.75 68.63,54.75 68.63,54.24 68.11,54.24 68.11,54.57 66.13,54.57 				"/>
			</g>
			<g>
				<polygon fill="#FFFFFF" stroke="#1D2132" stroke-width="0.1" stroke-linecap="square" stroke-miterlimit="10" points="
					50.35,54.24 49.82,54.24 49.82,54.75 52.85,54.75 52.85,54.24 52.33,54.24 52.33,54.57 50.35,54.57 				"/>
				<polygon fill="#FFFFFF" stroke="#1D2132" stroke-width="0.1" stroke-linecap="square" stroke-miterlimit="10" points="
					60.5,54.24 59.98,54.24 59.98,54.75 63.01,54.75 63.01,54.24 62.48,54.24 62.48,54.57 60.5,54.57 				"/>
			</g>
		</g>
		<g>
			<path fill="#FFFFFF" stroke="#1D2132" stroke-width="0.1" stroke-linecap="square" stroke-miterlimit="10" d="M58.3,51.1v0.22
				c0,0.5-0.41,0.91-0.91,0.91h-1.94c-0.5,0-0.91-0.41-0.91-0.91V51.1c0-0.5,0.41-0.91,0.91-0.91h1.94
				C57.89,50.19,58.3,50.6,58.3,51.1z"/>
			<path fill="#FFFFFF" stroke="#1D2132" stroke-width="0.1" stroke-linecap="square" stroke-miterlimit="10" d="M57.6,51.43v0.02
				c0,0.23-0.18,0.41-0.41,0.41h-1.55c-0.23,0-0.41-0.18-0.41-0.41v-0.02c0-0.23,0.18-0.41,0.41-0.41l1.55,0
				C57.42,51.02,57.6,51.2,57.6,51.43z"/>
			
				<rect x="56.33" y="45.13" transform="matrix(3.267257e-07 -1 1 3.267257e-07 4.6359 108.1935)" fill="#FFFFFF" stroke="#1D2132" stroke-width="0.1" stroke-linecap="square" stroke-miterlimit="10" width="0.17" height="13.29"/>
			<polygon fill="#FFFFFF" stroke="#1D2132" stroke-width="0.1" stroke-linecap="square" stroke-miterlimit="10" points="
				61.14,51.35 63.06,51.69 49.77,51.69 51.69,51.35 			"/>
		</g>
	</g>
	<g>
		<path fill="#FFFFFF" stroke="#1D2132" stroke-width="0.1" stroke-linecap="square" stroke-miterlimit="10" d="M15.87,93.89
			c0.51,0.78,2.26,1.86,3.44,1.05c0.58-0.4,1.09-0.25,2.81-1.06c0.75-0.35,2.11-0.85,2.79-2.42c0.69-1.57,0.39-3.73-2.76-5.8
			c-3.15-2.07-6.22-0.71-6.83,1.29S15.4,90,15.4,91C15.4,92,14.94,92.47,15.87,93.89z"/>
		<path fill="none" stroke="#1D2132" stroke-width="0.1" stroke-linecap="square" stroke-miterlimit="10" d="M24.92,91.46
			c0,0-0.84,1.18-1.57,1.46c-1.45,0.56-1.1,0.72-2.96,1.25c-0.56,0.16-0.77-0.21-0.86-0.14s-0.81,0.42-1.59,0
			c-0.78-0.43-1.36-0.75-1.79-1.59c-0.26-0.52-0.23-1.04-0.11-1.2c0.2-0.26-0.12-0.26-0.4-1.23c-0.4-1.38-0.27-1.78-0.06-2.63
			c0.21-0.85,0.15-1.09,0.66-1.63s1.1-0.81,1.1-0.81"/>
		<path fill="none" stroke="#1D2132" stroke-width="0.1" stroke-linecap="square" stroke-miterlimit="10" d="M22.6,91.6
			c0,0-0.5-0.65-0.94-0.52c-0.44,0.14-0.75,0.16-0.9,0.18c-0.14,0.02-0.14,0.02-0.14,0.02s-0.46,0.66-0.67,1.16
			c-0.2,0.5-0.19,0.64-0.19,0.64"/>
		<path fill="none" stroke="#1D2132" stroke-width="0.1" stroke-linecap="square" stroke-miterlimit="10" d="M20.61,91.3
			c0,0-0.43-0.37-1.06-0.87c-0.63-0.5-1.51-0.85-1.51-0.85s-0.43,0.43-0.85,0.8c-0.41,0.38-0.7,0.49-0.7,0.49"/>
		<path fill="none" stroke="#1D2132" stroke-width="0.1" stroke-linecap="square" stroke-miterlimit="10" d="M16.65,87.53
			c0,0,0.68-0.1,1.07,0.06s0.45,0.36,0.45,0.96c0,0.61-0.13,1.02-0.13,1.02"/>
		<path fill="none" stroke="#1D2132" stroke-width="0.1" stroke-linecap="square" stroke-miterlimit="10" d="M22.67,89.65
			c0,0-0.45-1.02-0.9-1.39c-0.45-0.37-0.45-0.37-0.45-0.37s0-0.12,0.15-0.36c0.15-0.24,0.31-0.35,0.31-0.35"/>
		<path fill="none" stroke="#1D2132" stroke-width="0.1" stroke-linecap="square" stroke-miterlimit="10" d="M21.32,87.89
			c0,0-0.57-0.18-0.95-0.46c-0.38-0.29-0.9-0.45-1.12-0.42c-0.22,0.03-0.22,0.03-0.22,0.03s-0.19-0.2-0.17-0.45"/>
		<path fill="none" stroke="#1D2132" stroke-width="0.1" stroke-linecap="square" stroke-miterlimit="10" d="M22.67,89.65
			c0,0,0.38-0.01,0.53-0.15s0.25-0.3,0.25-0.3"/>
		<path fill="#FFFFFF" stroke="#1D2132" stroke-width="0.1" stroke-linecap="square" stroke-miterlimit="10" d="M18.34,93.95
			c0,0-0.11-0.06-0.12,0.01c-0.02,0.12-0.18,0.31-0.29,0.28c-0.2-0.05-0.35-0.26-0.63-0.41c-0.29-0.15-0.59-0.13-0.66-0.35
			c-0.04-0.13,0.25-0.31,0.26-0.37C16.9,93.06,16.77,93,16.77,93l-0.31,0.43c0,0-0.06,0.31,0.24,0.49c0.3,0.18,0.46,0.32,0.74,0.46
			c0.29,0.15,0.48,0.29,0.7,0.07C18.36,94.22,18.34,93.95,18.34,93.95z"/>
	</g>
	<g>
		<path fill="#FFFFFF" stroke="#1D2132" stroke-width="0.1" stroke-linecap="square" stroke-miterlimit="10" d="M35.59,95.9
			c0.88-0.31,2.35-1.75,1.85-3.09c-0.25-0.66,0.01-1.11-0.36-2.98c-0.16-0.81-0.32-2.25-1.68-3.29s-3.53-1.27-6.29,1.29
			s-2.18,5.87-0.38,6.94c1.8,1.07,2.97,0.66,3.95,0.9S33.98,96.47,35.59,95.9z"/>
		<path fill="none" stroke="#1D2132" stroke-width="0.1" stroke-linecap="square" stroke-miterlimit="10" d="M35.39,86.54
			c0,0,0.94,1.1,1.04,1.87c0.2,1.55,0.44,1.24,0.51,3.18c0.02,0.59-0.38,0.7-0.34,0.81c0.04,0.11,0.22,0.89-0.38,1.55
			s-1.05,1.14-1.98,1.36c-0.56,0.13-1.07-0.02-1.19-0.17c-0.2-0.26-0.28,0.05-1.29,0.09c-1.43,0.06-1.8-0.16-2.57-0.57
			c-0.78-0.41-1.02-0.4-1.43-1.03s-0.53-1.26-0.53-1.26"/>
		<path fill="none" stroke="#1D2132" stroke-width="0.1" stroke-linecap="square" stroke-miterlimit="10" d="M34.97,88.82
			c0,0-0.75,0.33-0.73,0.79s-0.03,0.77-0.04,0.92c-0.01,0.15-0.01,0.15-0.01,0.15s0.53,0.61,0.97,0.92
			c0.44,0.32,0.57,0.34,0.57,0.34"/>
		<path fill="none" stroke="#1D2132" stroke-width="0.1" stroke-linecap="square" stroke-miterlimit="10" d="M34.2,90.68
			c0,0-0.46,0.33-1.1,0.82s-1.19,1.26-1.19,1.26s0.31,0.52,0.58,1.02c0.27,0.49,0.31,0.79,0.31,0.79"/>
		<path fill="none" stroke="#1D2132" stroke-width="0.1" stroke-linecap="square" stroke-miterlimit="10" d="M29.6,93.62
			c0,0,0.07-0.68,0.31-1.03s0.46-0.35,1.04-0.21s0.96,0.37,0.96,0.37"/>
		<path fill="none" stroke="#1D2132" stroke-width="0.1" stroke-linecap="square" stroke-miterlimit="10" d="M33.1,88.29
			c0,0-1.1,0.2-1.57,0.54c-0.47,0.35-0.47,0.35-0.47,0.35s-0.12-0.02-0.32-0.23c-0.2-0.21-0.26-0.38-0.26-0.38"/>
		<path fill="none" stroke="#1D2132" stroke-width="0.1" stroke-linecap="square" stroke-miterlimit="10" d="M31.06,89.18
			c0,0-0.31,0.51-0.68,0.82c-0.37,0.3-0.65,0.77-0.68,0.99c-0.03,0.22-0.03,0.22-0.03,0.22s-0.24,0.14-0.48,0.06"/>
		<path fill="none" stroke="#1D2132" stroke-width="0.1" stroke-linecap="square" stroke-miterlimit="10" d="M33.1,88.29
			c0,0,0.08-0.37-0.02-0.55c-0.1-0.18-0.23-0.31-0.23-0.31"/>
		<path fill="#FFFFFF" stroke="#1D2132" stroke-width="0.1" stroke-linecap="square" stroke-miterlimit="10" d="M36.23,93.52
			c0,0-0.09,0.09-0.02,0.12c0.12,0.05,0.26,0.25,0.2,0.35c-0.1,0.18-0.33,0.28-0.55,0.52s-0.27,0.54-0.5,0.56
			c-0.14,0.01-0.24-0.31-0.3-0.34c-0.04-0.02-0.13,0.09-0.13,0.09l0.34,0.4c0,0,0.29,0.13,0.53-0.11c0.24-0.24,0.42-0.37,0.63-0.61
			c0.21-0.24,0.4-0.4,0.23-0.66C36.5,93.57,36.23,93.52,36.23,93.52z"/>
	</g>
	<g>
		
			<rect x="30.54" y="24.85" transform="matrix(-3.267932e-07 -1 1 -3.267932e-07 2.648 58.9893)" fill="#FFFFFF" stroke="#1D2132" stroke-width="0.1" stroke-linecap="square" stroke-miterlimit="10" width="0.55" height="6.63"/>
		
			<rect x="30.65" y="25.33" transform="matrix(-3.267959e-07 -1 1 -3.267959e-07 2.5362 59.1012)" fill="#FFFFFF" stroke="#1D2132" stroke-width="0.1" stroke-linecap="square" stroke-miterlimit="10" width="0.33" height="5.9"/>
	</g>
	<g>
		
			<rect x="7.74" y="25.57" transform="matrix(-3.267969e-07 -1 1 -3.267969e-07 -20.1521 36.301)" fill="#FFFFFF" stroke="#1D2132" stroke-width="0.1" stroke-linecap="square" stroke-miterlimit="10" width="0.66" height="5.32"/>
		<g>
			
				<rect x="10.06" y="28.56" fill="#FFFFFF" stroke="#1D2132" stroke-width="0.1" stroke-linecap="square" stroke-miterlimit="10" width="0.29" height="1.01"/>
			
				<rect x="10.06" y="28.56" fill="#FFFFFF" stroke="#1D2132" stroke-width="0.1" stroke-linecap="square" stroke-miterlimit="10" width="0.29" height="0.19"/>
		</g>
		<g>
			
				<rect x="8.64" y="28.56" fill="#FFFFFF" stroke="#1D2132" stroke-width="0.1" stroke-linecap="square" stroke-miterlimit="10" width="0.29" height="1.01"/>
			
				<rect x="8.64" y="28.56" fill="#FFFFFF" stroke="#1D2132" stroke-width="0.1" stroke-linecap="square" stroke-miterlimit="10" width="0.29" height="0.19"/>
		</g>
		<g>
			
				<rect x="7.22" y="28.56" fill="#FFFFFF" stroke="#1D2132" stroke-width="0.1" stroke-linecap="square" stroke-miterlimit="10" width="0.29" height="1.01"/>
			
				<rect x="7.22" y="28.56" fill="#FFFFFF" stroke="#1D2132" stroke-width="0.1" stroke-linecap="square" stroke-miterlimit="10" width="0.29" height="0.19"/>
		</g>
		<g>
			
				<rect x="5.79" y="28.56" fill="#FFFFFF" stroke="#1D2132" stroke-width="0.1" stroke-linecap="square" stroke-miterlimit="10" width="0.29" height="1.01"/>
			
				<rect x="5.79" y="28.56" fill="#FFFFFF" stroke="#1D2132" stroke-width="0.1" stroke-linecap="square" stroke-miterlimit="10" width="0.29" height="0.19"/>
		</g>
	</g>
	<g>
		<g>
			<g>
				
					<rect x="39.37" y="90.97" transform="matrix(-4.537900e-11 1 -1 -4.537900e-11 135.3883 51.6068)" fill="#FFFFFF" stroke="#1D2132" stroke-width="0.1" stroke-linecap="square" stroke-miterlimit="10" width="5.05" height="5.05"/>
				<polygon fill="#FFFFFF" stroke="#1D2132" stroke-width="0.1" stroke-linecap="square" stroke-miterlimit="10" points="
					40.9,90.97 40.38,90.97 40.38,90.47 43.4,90.47 43.4,90.97 42.88,90.97 42.88,90.64 40.9,90.64 				"/>
			</g>
			<g>
				
					<rect x="70.06" y="90.97" transform="matrix(-4.501928e-11 1 -1 -4.501928e-11 166.0841 20.911)" fill="#FFFFFF" stroke="#1D2132" stroke-width="0.1" stroke-linecap="square" stroke-miterlimit="10" width="5.05" height="5.05"/>
				<polygon fill="#FFFFFF" stroke="#1D2132" stroke-width="0.1" stroke-linecap="square" stroke-miterlimit="10" points="
					71.6,90.97 71.07,90.97 71.07,90.47 74.1,90.47 74.1,90.97 73.58,90.97 73.58,90.64 71.6,90.64 				"/>
			</g>
		</g>
		<g>
			<g>
				
					<rect x="45.28" y="69.87" fill="#FFFFFF" stroke="#1D2132" stroke-width="0.1" stroke-linecap="square" stroke-miterlimit="22.9256" width="23.92" height="26.58"/>
				<path fill="#FFFFFF" stroke="#1D2132" stroke-width="0.1" stroke-linecap="square" stroke-miterlimit="22.9256" d="M68.93,94.62
					c0,0,0.05-0.65,0-1.28c-0.08-1.06-0.13-1.72-0.13-2.8c0-1.08,0.15-1.18,0.02-1.35c-0.13-0.17-0.15-0.41,0-0.68
					c0.15-0.27,0.03-1.79,0.03-2.84c0-1.05,0.12-2.7,0.08-3.62c-0.04-0.91-0.17-0.57-0.32-0.64c-0.15-0.07,0.12-0.81,0.25-0.95
					c0.13-0.14,0.07-0.72,0.09-2.71c0.02-2-0.14-3.65-0.1-4.72c0.03-0.66,0-1.04-0.03-1.21c-0.08-0.4,0.01-0.23,0.01-0.68
					c-0.01-0.51-0.3,0.65-0.17,0.01c0.09-0.44,0.26-0.86,0.13-0.76c-0.13,0.1-0.36,0.53-0.44,0.59c-0.07,0.07-0.3,0.41-0.23,0.14
					c0.07-0.27,0.87-0.87,0.67-0.9c-0.23-0.04-0.98-0.06-2.77-0.06c-1.76,0-13.96,0-14.05,0.17c-0.09,0.17-0.09,0.1-0.2,0
					c-0.11-0.1-2.27,0.03-2.69-0.1c-0.43-0.14-1.08-0.1-1.17,0.07c-0.09,0.17-0.07,0.2-0.17,0.07c-0.09-0.13-0.85-0.17-1.24-0.17
					c-0.58,0-0.78-0.22-0.52,0.22c0.26,0.44,0.23,0.78,0.06,0.51c-0.17-0.27-0.21-0.64-0.32-0.7c-0.11-0.07-0.09-0.32-0.1,0.39
					c-0.02,0.71-0.12,4.83-0.08,6.18c0.04,1.35-0.01,2.41,0.03,2.6c0.12,0.53-0.07,1.26-0.03,2.43c0.05,1.47,0.04,3.74,0.06,5.4
					c0.02,1.66,0.02,2.13,0,3.35c-0.02,1.22,0.25,1.68,0.12,2.07c-0.26,0.76-0.03,1.09,0.01,1.66c0.04,0.58-0.1,1.43-0.07,1.72
					c0.02,0.23,0.41-0.65,0.57-0.51c0.16,0.14-0.7,0.54-0.38,0.63s4.4-0.09,4.71,0c0.31,0.09,0.23,0,0.23,0s0.94,0,1.63,0
					c0.69,0,15.37,0,15.74,0c0.37,0,0.74-0.08,0.37-0.23c-0.37-0.15,0.38,0.03,0.4-0.26S68.81,94.9,68.93,94.62z"/>
				<path fill="#FFFFFF" stroke="#1D2132" stroke-width="0.1" stroke-linecap="square" stroke-miterlimit="22.9256" d="M69.26,89.09
					c0.11-0.78,0.04-4.55-0.06-4.55c-0.1,0,0.25,1.29-0.41,2.04c-0.66,0.75-1.38,1.29-1.19,1.06c0.19-0.24,0.21-0.27,0.43-0.44
					c0.21-0.17,0.43-0.24,0.31-0.31c-0.12-0.07-0.83,0.12-1.45,0.31c-0.79,0.24-2.8,0-3.7-0.06c-2.28-0.16-15.11-0.56-16.53-1.59
					c-1.42-1.02-1.3-1.19-1.37-1.53c-0.08-0.34,0.07-1.39-0.06-0.86c-0.13,0.52-0.02,1.6-0.11,2.64c-0.1,1.06-0.21,1.4-0.06,1.46
					c0.16,0.07,1.9,1.02,1.65,0.86c-0.06-0.04-1.55-0.72-1.67-0.68c-0.12,0.03-0.03,0.36,0,0.75c0.04,0.51,0.04,0.51,0.1,0.51
					c0.25,0,1.04,0.09,1.99,0.05c0.95-0.03,0.12,0.2-0.41,0.07c-0.53-0.14-0.06,0.14,0.92,0.41c0.97,0.27,15.24-0.3,15.94-0.06
					c0.7,0.24,3.08,0.55,3.95,0.14C68.4,88.9,69.18,89.67,69.26,89.09z"/>
				<g>
					<path fill="#FFFFFF" stroke="#1D2132" stroke-width="0.1" stroke-linecap="square" stroke-miterlimit="22.9256" d="
						M56.03,96.31c0.37,0,0.28-0.06,0.19-0.17c-0.09-0.11-0.14-0.29,0-1.04c0.14-0.76,0.18-1.32-0.05-2.04
						c-0.23-0.72-0.11-0.81-0.01-1c0.09-0.19,0.05-0.34-0.23-0.19c-0.27,0.15-1.08-0.07-1.73-0.1c-2.52-0.11-3.63-0.01-5.39,0.08
						c-0.38,0.02-0.7,0.14-0.88,0.1c-0.18-0.04-0.41,0.04-0.27,0.15c0.14,0.11-0.18,1.36-0.09,2.27c0.09,0.91,0.04,1.42-0.01,1.53
						c-0.05,0.11,0.09,0.45,0.27,0.3c0.18-0.15,0.92,0.08,1.29,0.12c0.37,0.04,1.16,0.15,3.12,0.11c1.97-0.04,2.83-0.02,3.15-0.14
						C55.72,96.2,55.94,96.31,56.03,96.31z"/>
					<path fill="none" stroke="#1D2132" stroke-width="0.1" stroke-linecap="square" stroke-miterlimit="22.9256" d="M55.68,92.37
						c0,0-1.5-0.51-3.75-0.51c-2.25,0-3.87,0.7-3.87,0.7"/>
				</g>
				<g>
					<path fill="#FFFFFF" stroke="#1D2132" stroke-width="0.1" stroke-linecap="square" stroke-miterlimit="22.9256" d="
						M54.91,93.89c0.27,0,0.2-0.05,0.14-0.14c-0.07-0.09-0.1-0.23,0-0.84c0.1-0.61,0.13-1.07-0.03-1.65
						c-0.17-0.58-0.08-0.66-0.01-0.81c0.07-0.15,0.03-0.27-0.17-0.15c-0.2,0.12-0.78-0.05-1.26-0.08c-1.83-0.09-2.64,0-3.92,0.07
						c-0.27,0.02-0.51,0.11-0.64,0.08c-0.13-0.03-0.3,0.03-0.2,0.12c0.1,0.09-0.13,1.1-0.07,1.83c0.07,0.73,0.03,1.15-0.01,1.24
						c-0.03,0.09,0.07,0.37,0.2,0.24c0.13-0.12,0.67,0.07,0.94,0.1c0.27,0.03,0.84,0.12,2.27,0.09c1.43-0.03,2.06-0.02,2.29-0.11
						C54.69,93.79,54.84,93.89,54.91,93.89z"/>
					<path fill="none" stroke="#1D2132" stroke-width="0.1" stroke-linecap="square" stroke-miterlimit="22.9256" d="M54.66,90.69
						c0,0-1.09-0.41-2.72-0.41c-1.63,0-2.82,0.57-2.82,0.57"/>
				</g>
				<g>
					<path fill="#FFFFFF" stroke="#1D2132" stroke-width="0.1" stroke-linecap="square" stroke-miterlimit="22.9256" d="
						M66.51,96.31c0.37,0,0.28-0.06,0.19-0.17c-0.09-0.11-0.14-0.29,0-1.04c0.14-0.76,0.18-1.32-0.05-2.04
						c-0.23-0.72-0.11-0.81-0.01-1c0.09-0.19,0.05-0.34-0.23-0.19c-0.27,0.15-1.08-0.07-1.73-0.1c-2.52-0.11-3.63-0.01-5.39,0.08
						c-0.38,0.02-0.7,0.14-0.88,0.1C58.23,91.92,58,92,58.13,92.11c0.14,0.11-0.18,1.36-0.09,2.27c0.09,0.91,0.04,1.42-0.01,1.53
						c-0.05,0.11,0.09,0.45,0.27,0.3c0.18-0.15,0.92,0.08,1.29,0.12c0.37,0.04,1.16,0.15,3.12,0.11c1.97-0.04,2.83-0.02,3.15-0.14
						C66.2,96.2,66.42,96.31,66.51,96.31z"/>
					<path fill="none" stroke="#1D2132" stroke-width="0.1" stroke-linecap="square" stroke-miterlimit="22.9256" d="M66.16,92.37
						c0,0-1.5-0.51-3.75-0.51c-2.25,0-3.87,0.7-3.87,0.7"/>
				</g>
				<g>
					<path fill="#FFFFFF" stroke="#1D2132" stroke-width="0.1" stroke-linecap="square" stroke-miterlimit="22.9256" d="
						M65.39,93.89c0.27,0,0.2-0.05,0.14-0.14c-0.07-0.09-0.1-0.23,0-0.84c0.1-0.61,0.13-1.07-0.03-1.65
						c-0.17-0.58-0.08-0.66-0.01-0.81c0.07-0.15,0.03-0.27-0.17-0.15c-0.2,0.12-0.78-0.05-1.26-0.08c-1.83-0.09-2.64,0-3.92,0.07
						c-0.27,0.02-0.51,0.11-0.64,0.08c-0.13-0.03-0.3,0.03-0.2,0.12c0.1,0.09-0.13,1.1-0.07,1.83c0.07,0.73,0.03,1.15-0.01,1.24
						c-0.03,0.09,0.07,0.37,0.2,0.24c0.13-0.12,0.67,0.07,0.94,0.1c0.27,0.03,0.84,0.12,2.27,0.09c1.43-0.03,2.06-0.02,2.29-0.11
						C65.16,93.79,65.32,93.89,65.39,93.89z"/>
					<path fill="none" stroke="#1D2132" stroke-width="0.1" stroke-linecap="square" stroke-miterlimit="22.9256" d="M65.14,90.69
						c0,0-1.09-0.41-2.72-0.41c-1.63,0-2.82,0.57-2.82,0.57"/>
				</g>
				<path fill="#FFFFFF" stroke="#1D2132" stroke-width="0.1" stroke-linecap="square" stroke-miterlimit="22.9256" d="M45.79,70.12
					h23.09c0.35,0,0.62,0.28,0.62,0.62v7.4c0,0.35-0.28,0.62-0.62,0.62H45.79c-0.35,0-0.62-0.28-0.62-0.62v-7.4
					C45.16,70.4,45.44,70.12,45.79,70.12z"/>
			</g>
			<g>
				
					<rect x="41.29" y="96.96" transform="matrix(-1 -4.516355e-11 4.516355e-11 -1 114.4773 194.5859)" fill="#FFFFFF" stroke="#1D2132" stroke-width="0.1" stroke-linecap="square" stroke-miterlimit="22.9256" width="31.9" height="0.66"/>
				<path fill="#FFFFFF" stroke="#1D2132" stroke-width="0.1" stroke-linecap="square" stroke-miterlimit="22.9256" d="M42.06,96.45
					h30.35c0.27,0,0.49,0.22,0.49,0.49v0.01H41.57v-0.01C41.57,96.68,41.79,96.45,42.06,96.45z"/>
				<g>
					<g>
						<g>
							<path fill="#FFFFFF" stroke="#1D2132" stroke-width="0.1" stroke-linecap="square" stroke-miterlimit="22.9256" d="
								M42.36,96.96h1v-0.14c0-0.27-0.22-0.49-0.49-0.49h-0.02c-0.27,0-0.49,0.22-0.49,0.49V96.96z"/>
							<path fill="#FFFFFF" stroke="#1D2132" stroke-width="0.1" stroke-linecap="square" stroke-miterlimit="22.9256" d="
								M46.03,93.24l-0.75-0.18c-0.04-0.43-0.02-0.85,0.06-1.27l0,0c0.03-0.11,0.32-0.13,0.66-0.05c0.34,0.08,0.59,0.23,0.56,0.34
								l0,0C46.44,92.48,46.27,92.87,46.03,93.24z"/>
							
								<ellipse transform="matrix(0.2315 -0.9728 0.9728 0.2315 -55.5336 115.992)" fill="#FFFFFF" stroke="#1D2132" stroke-width="0.1" stroke-linecap="square" stroke-miterlimit="22.9256" cx="45.65" cy="93.15" rx="0.13" ry="0.39"/>
							<path fill="#FFFFFF" stroke="#1D2132" stroke-width="0.1" stroke-linecap="square" stroke-miterlimit="22.9256" d="
								M45.55,93.19l-0.03,0.08c0,0-0.17,0.42-0.79,0.73c-0.12,0.06-0.25,0.11-0.38,0.17c-0.4,0.17-0.85,0.36-1.15,0.74
								c-0.4,0.51-0.4,1.31-0.4,1.34l0,0.08l0.17,0l0-0.08c0-0.01,0-0.77,0.36-1.24c0.28-0.35,0.69-0.52,1.08-0.69
								c0.14-0.06,0.27-0.11,0.39-0.17c0.68-0.34,0.87-0.8,0.87-0.82l0.03-0.08C45.71,93.21,45.61,93.17,45.55,93.19z"/>
						</g>
					</g>
					<g>
						<g>
							<path fill="#FFFFFF" stroke="#1D2132" stroke-width="0.1" stroke-linecap="square" stroke-miterlimit="22.9256" d="
								M72.12,96.96h-1v-0.14c0-0.27,0.22-0.49,0.49-0.49h0.02c0.27,0,0.49,0.22,0.49,0.49V96.96z"/>
							<path fill="#FFFFFF" stroke="#1D2132" stroke-width="0.1" stroke-linecap="square" stroke-miterlimit="22.9256" d="
								M68.45,93.24l0.75-0.18c0.04-0.43,0.02-0.85-0.06-1.27l0,0c-0.03-0.11-0.32-0.13-0.66-0.05c-0.34,0.08-0.59,0.23-0.56,0.34
								l0,0C68.03,92.48,68.21,92.87,68.45,93.24z"/>
							
								<ellipse transform="matrix(0.9728 -0.2315 0.2315 0.9728 -19.6939 18.4642)" fill="#FFFFFF" stroke="#1D2132" stroke-width="0.1" stroke-linecap="square" stroke-miterlimit="22.9256" cx="68.83" cy="93.15" rx="0.39" ry="0.13"/>
							<path fill="#FFFFFF" stroke="#1D2132" stroke-width="0.1" stroke-linecap="square" stroke-miterlimit="22.9256" d="
								M68.93,93.19l0.03,0.08c0,0,0.17,0.42,0.79,0.73c0.12,0.06,0.25,0.11,0.38,0.17c0.4,0.17,0.85,0.36,1.15,0.74
								c0.4,0.51,0.4,1.31,0.4,1.34l0,0.08l-0.17,0l0-0.08c0-0.01,0-0.77-0.36-1.24c-0.28-0.35-0.69-0.52-1.08-0.69
								c-0.14-0.06-0.27-0.11-0.39-0.17c-0.68-0.34-0.87-0.8-0.87-0.82l-0.03-0.08C68.77,93.21,68.87,93.17,68.93,93.19z"/>
						</g>
					</g>
				</g>
			</g>
		</g>
	</g>
	<g>
		
			<circle fill="#FFFFFF" stroke="#1D2132" stroke-width="0.1" stroke-linecap="square" stroke-miterlimit="22.9256" cx="24.63" cy="94.44" r="1.87"/>
		
			<circle fill="#FFFFFF" stroke="#1D2132" stroke-width="0.1" stroke-linecap="square" stroke-miterlimit="22.9256" cx="24.63" cy="94.44" r="0.4"/>
		<path fill="#FFFFFF" stroke="#1D2132" stroke-width="0.1" stroke-linecap="square" stroke-miterlimit="22.9256" d="M28.58,89.01
			c0.18-0.42-0.24-1.01-0.95-1.32c-0.71-0.31-1.43-0.23-1.61,0.18l0,0c-0.39,0.84-0.44,1.48-0.43,2.5L27.01,91
			C27.8,90.35,28.24,89.87,28.58,89.01z"/>
		<path fill="#FFFFFF" stroke="#1D2132" stroke-width="0.1" stroke-linecap="square" stroke-miterlimit="22.9256" d="M26.48,90.27
			c-0.39-0.18-0.8-0.13-0.9,0.1l-0.23,0.51l1.43,0.63l0.23-0.51C27.12,90.77,26.88,90.44,26.48,90.27z"/>
		
			<ellipse transform="matrix(0.4062 -0.9138 0.9138 0.4062 -67.8581 77.9803)" fill="#FFFFFF" stroke="#1D2132" stroke-width="0.1" stroke-linecap="square" stroke-miterlimit="22.9256" cx="26.07" cy="91.2" rx="0.46" ry="0.78"/>
		<path fill="#FFFFFF" stroke="#1D2132" stroke-width="0.1" stroke-linecap="square" stroke-miterlimit="22.9256" d="M24.58,94.56
			L24.58,94.56c-0.08-0.03-0.11-0.11-0.08-0.18l0.86-1.94c0.03-0.07,0.11-0.1,0.18-0.07l0.01,0c0.07,0.03,0.1,0.11,0.07,0.18
			l-0.86,1.94C24.73,94.56,24.65,94.59,24.58,94.56z"/>
		<path fill="#FFFFFF" stroke="#1D2132" stroke-width="0.1" stroke-linecap="square" stroke-miterlimit="22.9256" d="M25.07,93.46
			L25.07,93.46c-0.08-0.03-0.11-0.11-0.08-0.18l0.86-1.94c0.03-0.07,0.11-0.1,0.18-0.07l0.01,0c0.07,0.03,0.1,0.11,0.07,0.18
			l-0.86,1.94C25.22,93.46,25.14,93.49,25.07,93.46z"/>
	</g>
	<g>
		<g>
			<path fill="#FFFFFF" stroke="#1D2132" stroke-width="0.1" stroke-linecap="square" stroke-miterlimit="10" d="M70.67,31.35
				c0.78-0.92,1.96-2.05,2.22-2.64c0.23-0.52-0.87-1.06-1.84-2.03c-0.97-0.97-1.5-2.07-2.03-1.84c-0.59,0.26-1.73,1.44-2.65,2.22
				c-0.92,0.78-0.97,1.25-0.59,1.87c0.37,0.6,1.01,1.2,1.41,1.61c0.4,0.4,1,1.05,1.6,1.42C69.42,32.32,69.89,32.27,70.67,31.35z"/>
			<path fill="#FFFFFF" stroke="#1D2132" stroke-width="0.1" stroke-linecap="square" stroke-miterlimit="10" d="M70.28,31.43
				c0.63-0.76,1.61-1.69,1.8-2.19c0.17-0.44-0.29-1.5-1.19-2.39c-0.9-0.9-1.95-1.37-2.39-1.19c-0.5,0.2-1.43,1.17-2.2,1.8
				c-0.76,0.63-0.78,1.04-0.42,1.6c0.35,0.55,0.95,1.11,1.32,1.48c0.37,0.37,0.93,0.97,1.48,1.32
				C69.23,32.21,69.64,32.2,70.28,31.43z"/>
			<g>
				<path fill="#FFFFFF" stroke="#1D2132" stroke-width="0.1" stroke-linecap="square" stroke-miterlimit="10" d="M70.53,24.81
					c-0.34-0.23-0.69-0.43-1.05-0.61c-0.85,1.09,0.71,1.25,1.76,2.3c1.09,1.09,1.31,2.77,2.35,1.73
					C72.89,26.89,71.86,25.71,70.53,24.81z"/>
				<path fill="#FFFFFF" stroke="#1D2132" stroke-width="0.1" stroke-linecap="square" stroke-miterlimit="10" d="M73.87,28.17
					c-0.04-0.08-0.08-0.16-0.13-0.24c-0.71-1.31-1.74-2.46-3.06-3.35c-0.31-0.21-0.63-0.4-0.96-0.57c-0.06-0.03-0.13-0.07-0.2-0.1
					l-0.12,0.25c0.02,0.01,0.05,0.03,0.07,0.04c0.36,0.18,0.71,0.38,1.05,0.61c1.34,0.9,2.37,2.09,3.06,3.43
					c0.01,0.02,0.02,0.04,0.03,0.06L73.87,28.17z"/>
			</g>
		</g>
		<g>
			<path fill="#FFFFFF" stroke="#1D2132" stroke-width="0.1" stroke-linecap="square" stroke-miterlimit="10" d="M58.93,43.09
				c-0.92,0.78-2.05,1.96-2.64,2.22c-0.52,0.23-1.06-0.87-2.03-1.84c-0.97-0.97-2.07-1.5-1.84-2.03c0.26-0.59,1.44-1.73,2.22-2.65
				c0.78-0.92,1.25-0.97,1.87-0.59c0.6,0.37,1.2,1.01,1.61,1.41c0.4,0.4,1.05,1,1.42,1.6C59.9,41.84,59.85,42.31,58.93,43.09z"/>
			<path fill="#FFFFFF" stroke="#1D2132" stroke-width="0.1" stroke-linecap="square" stroke-miterlimit="10" d="M59.01,42.7
				c-0.76,0.63-1.69,1.61-2.19,1.8c-0.44,0.17-1.5-0.29-2.39-1.19c-0.9-0.9-1.37-1.95-1.19-2.39c0.2-0.5,1.17-1.43,1.8-2.2
				c0.63-0.76,1.04-0.78,1.6-0.42c0.55,0.35,1.11,0.95,1.48,1.32c0.37,0.37,0.97,0.93,1.32,1.48C59.79,41.66,59.77,42.06,59.01,42.7
				z"/>
			<g>
				<path fill="#FFFFFF" stroke="#1D2132" stroke-width="0.1" stroke-linecap="square" stroke-miterlimit="10" d="M52.38,42.95
					c-0.23-0.34-0.43-0.69-0.61-1.05c1.09-0.85,1.25,0.71,2.3,1.76c1.09,1.09,2.77,1.31,1.73,2.35
					C54.47,45.31,53.28,44.28,52.38,42.95z"/>
				<path fill="#FFFFFF" stroke="#1D2132" stroke-width="0.1" stroke-linecap="square" stroke-miterlimit="10" d="M55.75,46.29
					c-0.08-0.04-0.16-0.08-0.24-0.13c-1.31-0.71-2.46-1.74-3.35-3.06c-0.21-0.31-0.4-0.63-0.57-0.96c-0.03-0.06-0.07-0.13-0.1-0.2
					l0.25-0.12c0.01,0.02,0.03,0.05,0.04,0.07c0.18,0.36,0.38,0.71,0.61,1.05c0.9,1.34,2.09,2.37,3.43,3.06
					c0.02,0.01,0.04,0.02,0.06,0.03L55.75,46.29z"/>
			</g>
		</g>
		<g>
			<path fill="#FFFFFF" stroke="#1D2132" stroke-width="0.1" stroke-linecap="square" stroke-miterlimit="10" d="M66.38,43.09
				c0.92,0.78,2.05,1.96,2.64,2.22c0.52,0.23,1.06-0.87,2.03-1.84c0.97-0.97,2.07-1.5,1.84-2.03c-0.26-0.59-1.44-1.73-2.22-2.65
				c-0.78-0.92-1.25-0.97-1.87-0.59c-0.6,0.37-1.2,1.01-1.61,1.41c-0.4,0.4-1.05,1-1.42,1.6C65.41,41.84,65.46,42.31,66.38,43.09z"
				/>
			<path fill="#FFFFFF" stroke="#1D2132" stroke-width="0.1" stroke-linecap="square" stroke-miterlimit="10" d="M66.3,42.7
				c0.76,0.63,1.69,1.61,2.19,1.8c0.44,0.17,1.5-0.29,2.39-1.19c0.9-0.9,1.37-1.95,1.19-2.39c-0.2-0.5-1.17-1.43-1.8-2.2
				c-0.63-0.76-1.04-0.78-1.6-0.42c-0.55,0.35-1.11,0.95-1.48,1.32c-0.37,0.37-0.97,0.93-1.32,1.48
				C65.52,41.66,65.54,42.06,66.3,42.7z"/>
			<g>
				<path fill="#FFFFFF" stroke="#1D2132" stroke-width="0.1" stroke-linecap="square" stroke-miterlimit="10" d="M72.93,42.95
					c0.23-0.34,0.43-0.69,0.61-1.05c-1.09-0.85-1.25,0.71-2.3,1.76c-1.09,1.09-2.77,1.31-1.73,2.35
					C70.84,45.31,72.03,44.28,72.93,42.95z"/>
				<path fill="#FFFFFF" stroke="#1D2132" stroke-width="0.1" stroke-linecap="square" stroke-miterlimit="10" d="M69.56,46.29
					c0.08-0.04,0.16-0.08,0.24-0.13c1.31-0.71,2.46-1.74,3.35-3.06c0.21-0.31,0.4-0.63,0.57-0.96c0.03-0.06,0.07-0.13,0.1-0.2
					l-0.25-0.12c-0.01,0.02-0.03,0.05-0.04,0.07c-0.18,0.36-0.38,0.71-0.61,1.05c-0.9,1.34-2.09,2.37-3.43,3.06
					c-0.02,0.01-0.04,0.02-0.06,0.03L69.56,46.29z"/>
			</g>
		</g>
		<g>
			<path fill="#FFFFFF" stroke="#1D2132" stroke-width="0.1" stroke-linecap="square" stroke-miterlimit="10" d="M54.64,31.35
				c-0.78-0.92-1.96-2.05-2.22-2.64c-0.23-0.52,0.87-1.06,1.84-2.03c0.97-0.97,1.5-2.07,2.03-1.84c0.59,0.26,1.73,1.44,2.65,2.22
				c0.92,0.78,0.97,1.25,0.59,1.87c-0.37,0.6-1.01,1.2-1.41,1.61c-0.4,0.4-1,1.05-1.6,1.42C55.89,32.32,55.42,32.27,54.64,31.35z"/>
			<path fill="#FFFFFF" stroke="#1D2132" stroke-width="0.1" stroke-linecap="square" stroke-miterlimit="10" d="M55.03,31.43
				c-0.63-0.76-1.61-1.69-1.8-2.19c-0.17-0.44,0.29-1.5,1.19-2.39c0.9-0.9,1.95-1.37,2.39-1.19c0.5,0.2,1.43,1.17,2.2,1.8
				c0.76,0.63,0.78,1.04,0.42,1.6c-0.35,0.55-0.95,1.11-1.32,1.48c-0.37,0.37-0.93,0.97-1.48,1.32
				C56.08,32.21,55.67,32.2,55.03,31.43z"/>
			<g>
				<path fill="#FFFFFF" stroke="#1D2132" stroke-width="0.1" stroke-linecap="square" stroke-miterlimit="10" d="M54.78,24.81
					c0.34-0.23,0.69-0.43,1.05-0.61c0.85,1.09-0.71,1.25-1.76,2.3c-1.09,1.09-1.31,2.77-2.35,1.73
					C52.42,26.89,53.45,25.71,54.78,24.81z"/>
				<path fill="#FFFFFF" stroke="#1D2132" stroke-width="0.1" stroke-linecap="square" stroke-miterlimit="10" d="M51.44,28.17
					c0.04-0.08,0.08-0.16,0.13-0.24c0.71-1.31,1.74-2.46,3.06-3.35c0.31-0.21,0.63-0.4,0.96-0.57c0.06-0.03,0.13-0.07,0.2-0.1
					l0.12,0.25c-0.02,0.01-0.05,0.03-0.07,0.04c-0.36,0.18-0.71,0.38-1.05,0.61c-1.34,0.9-2.37,2.09-3.06,3.43
					c-0.01,0.02-0.02,0.04-0.03,0.06L51.44,28.17z"/>
			</g>
		</g>
		
			<circle fill="#FFFFFF" stroke="#1D2132" stroke-width="0.1" stroke-linecap="square" stroke-miterlimit="10" cx="62.66" cy="35.08" r="6.11"/>
	</g>
	<g>
		
			<rect x="6.91" y="42.73" transform="matrix(6.123234e-17 -1 1 6.123234e-17 -40.3088 63.2912)" fill="#FFFFFF" stroke="#1D2132" stroke-width="0.1" stroke-linecap="square" stroke-miterlimit="10" width="9.16" height="18.14"/>
		<g>
			<path fill="#FFFFFF" stroke="#1D2132" stroke-width="0.1" stroke-linecap="square" stroke-miterlimit="10" d="M11.98,51.97
				c0.07,0,0.13-0.06,0.13-0.13v-0.42c0-0.14-0.12-0.22-0.25-0.31c-0.17-0.11-0.37-0.25-0.42-0.55c-0.03-0.2,0.03-0.38,0.19-0.49
				c0.16-0.12,0.4-0.13,0.59-0.03c0.39,0.2,0.33,0.61,0.33,0.62c-0.01,0.07,0.04,0.13,0.11,0.14c0.07,0.01,0.14-0.04,0.15-0.11
				c0.03-0.21-0.03-0.66-0.47-0.88c-0.28-0.14-0.62-0.12-0.86,0.05c-0.23,0.17-0.34,0.44-0.29,0.74c0.07,0.4,0.35,0.59,0.53,0.71
				c0.05,0.03,0.12,0.08,0.14,0.11v0.41C11.85,51.91,11.91,51.97,11.98,51.97z M11.85,51.42L11.85,51.42L11.85,51.42z"/>
			<path fill="#FFFFFF" stroke="#1D2132" stroke-width="0.1" stroke-linecap="square" stroke-miterlimit="10" d="M7.61,54.75h8.76
				c0.33,0,0.69,0.08,0.77-0.23c0.08-0.31-0.06-0.62-0.35-0.77c-0.01,0-0.01-0.01-0.02-0.01l-4-1.86c-0.03-0.01-0.07-0.02-0.1-0.02
				h-1.35c-0.04,0-0.07,0.01-0.1,0.02l-4,1.86c-0.01,0-0.01,0.01-0.02,0.01c-0.29,0.15-0.43,0.46-0.35,0.77
				C6.92,54.83,7.28,54.75,7.61,54.75z M16.85,54.2c0.11,0.06,0.09,0.17,0.08,0.2c-0.01,0.03-0.04,0.14-0.18,0.14H7.23
				c-0.13,0-0.17-0.1-0.18-0.14c-0.01-0.03-0.02-0.14,0.08-0.2l4.23-1.19h1.24L16.85,54.2z"/>
		</g>
	</g>
	<g>
		
			<rect x="2.41" y="57.49" transform="matrix(-1 -2.380443e-06 2.380443e-06 -1 12.7898 155.17)" fill="#FFFFFF" stroke="#1D2132" stroke-width="0.1" stroke-linecap="square" stroke-miterlimit="10" width="7.97" height="40.19"/>
		<g>
			<path fill="#FFFFFF" stroke="#1D2132" stroke-width="0.1" stroke-linecap="square" stroke-miterlimit="10" d="M6.1,77.29
				c0-0.06-0.05-0.11-0.11-0.11H5.62c-0.13,0-0.2,0.11-0.28,0.22c-0.1,0.15-0.22,0.33-0.49,0.37c-0.18,0.03-0.34-0.03-0.44-0.16
				c-0.11-0.14-0.12-0.35-0.03-0.51c0.17-0.34,0.55-0.29,0.55-0.29c0.06,0.01,0.12-0.03,0.13-0.1c0.01-0.06-0.03-0.12-0.1-0.13
				c-0.18-0.03-0.59,0.02-0.78,0.41c-0.13,0.24-0.11,0.54,0.05,0.75c0.15,0.2,0.39,0.3,0.66,0.25c0.36-0.06,0.53-0.3,0.64-0.47
				c0.03-0.05,0.07-0.11,0.09-0.12h0.37C6.05,77.4,6.1,77.35,6.1,77.29z M5.61,77.4L5.61,77.4L5.61,77.4z"/>
			<path fill="#FFFFFF" stroke="#1D2132" stroke-width="0.1" stroke-linecap="square" stroke-miterlimit="10" d="M8.58,81.11l0-7.66
				c0-0.29,0.07-0.61-0.21-0.68c-0.28-0.07-0.56,0.05-0.69,0.31c0,0.01-0.01,0.01-0.01,0.02l-1.66,3.5C6.01,76.63,6,76.66,6,76.69
				l0,1.18c0,0.03,0.01,0.06,0.02,0.09l1.66,3.5c0,0.01,0.01,0.01,0.01,0.02c0.13,0.25,0.41,0.38,0.69,0.31
				C8.66,81.72,8.58,81.4,8.58,81.11z M8.09,73.04c0.06-0.1,0.15-0.08,0.18-0.07C8.3,72.97,8.39,73,8.39,73.12l0,8.33
				c0,0.12-0.09,0.15-0.12,0.16c-0.03,0.01-0.12,0.02-0.18-0.07l-1.06-3.7l0-1.09L8.09,73.04z"/>
		</g>
	</g>
	<g>
		<g>
			
				<rect x="71.11" y="25.51" transform="matrix(-1.836970e-16 1 -1 -1.836970e-16 102.9516 -51.0424)" fill="#FFFFFF" stroke="#1D2132" stroke-width="0.1" stroke-linecap="square" stroke-miterlimit="10" width="11.77" height="0.88"/>
			
				<line fill="none" stroke="#1D2132" stroke-width="0.1" stroke-linecap="square" stroke-miterlimit="10" x1="77.26" y1="21" x2="76.73" y2="21"/>
			
				<line fill="none" stroke="#1D2132" stroke-width="0.1" stroke-linecap="square" stroke-miterlimit="10" x1="77.26" y1="21.32" x2="76.73" y2="21.32"/>
			
				<line fill="none" stroke="#1D2132" stroke-width="0.1" stroke-linecap="square" stroke-miterlimit="10" x1="77.26" y1="20.36" x2="76.73" y2="20.36"/>
			
				<line fill="none" stroke="#1D2132" stroke-width="0.1" stroke-linecap="square" stroke-miterlimit="10" x1="77.26" y1="20.68" x2="76.73" y2="20.68"/>
			
				<line fill="none" stroke="#1D2132" stroke-width="0.1" stroke-linecap="square" stroke-miterlimit="10" x1="77.26" y1="21.63" x2="76.73" y2="21.63"/>
			
				<line fill="none" stroke="#1D2132" stroke-width="0.1" stroke-linecap="square" stroke-miterlimit="10" x1="77.26" y1="21.95" x2="76.73" y2="21.95"/>
			
				<line fill="none" stroke="#1D2132" stroke-width="0.1" stroke-linecap="square" stroke-miterlimit="10" x1="77.26" y1="22.27" x2="76.73" y2="22.27"/>
			
				<line fill="none" stroke="#1D2132" stroke-width="0.1" stroke-linecap="square" stroke-miterlimit="10" x1="77.26" y1="22.59" x2="76.73" y2="22.59"/>
			
				<line fill="none" stroke="#1D2132" stroke-width="0.1" stroke-linecap="square" stroke-miterlimit="10" x1="77.26" y1="22.9" x2="76.73" y2="22.9"/>
			
				<line fill="none" stroke="#1D2132" stroke-width="0.1" stroke-linecap="square" stroke-miterlimit="10" x1="77.26" y1="23.22" x2="76.73" y2="23.22"/>
			
				<line fill="none" stroke="#1D2132" stroke-width="0.1" stroke-linecap="square" stroke-miterlimit="10" x1="77.26" y1="24.17" x2="76.73" y2="24.17"/>
			
				<line fill="none" stroke="#1D2132" stroke-width="0.1" stroke-linecap="square" stroke-miterlimit="10" x1="77.26" y1="24.49" x2="76.73" y2="24.49"/>
			
				<line fill="none" stroke="#1D2132" stroke-width="0.1" stroke-linecap="square" stroke-miterlimit="10" x1="77.26" y1="23.54" x2="76.73" y2="23.54"/>
			
				<line fill="none" stroke="#1D2132" stroke-width="0.1" stroke-linecap="square" stroke-miterlimit="10" x1="77.26" y1="23.86" x2="76.73" y2="23.86"/>
			
				<line fill="none" stroke="#1D2132" stroke-width="0.1" stroke-linecap="square" stroke-miterlimit="10" x1="77.26" y1="24.81" x2="76.73" y2="24.81"/>
			
				<line fill="none" stroke="#1D2132" stroke-width="0.1" stroke-linecap="square" stroke-miterlimit="10" x1="77.26" y1="25.13" x2="76.73" y2="25.13"/>
			
				<line fill="none" stroke="#1D2132" stroke-width="0.1" stroke-linecap="square" stroke-miterlimit="10" x1="77.26" y1="25.44" x2="76.73" y2="25.44"/>
			
				<line fill="none" stroke="#1D2132" stroke-width="0.1" stroke-linecap="square" stroke-miterlimit="10" x1="77.26" y1="25.76" x2="76.73" y2="25.76"/>
			
				<line fill="none" stroke="#1D2132" stroke-width="0.1" stroke-linecap="square" stroke-miterlimit="10" x1="77.26" y1="26.08" x2="76.73" y2="26.08"/>
			
				<line fill="none" stroke="#1D2132" stroke-width="0.1" stroke-linecap="square" stroke-miterlimit="10" x1="77.26" y1="26.4" x2="76.73" y2="26.4"/>
			
				<line fill="none" stroke="#1D2132" stroke-width="0.1" stroke-linecap="square" stroke-miterlimit="10" x1="77.26" y1="27.35" x2="76.73" y2="27.35"/>
			
				<line fill="none" stroke="#1D2132" stroke-width="0.1" stroke-linecap="square" stroke-miterlimit="10" x1="77.26" y1="27.67" x2="76.73" y2="27.67"/>
			
				<line fill="none" stroke="#1D2132" stroke-width="0.1" stroke-linecap="square" stroke-miterlimit="10" x1="77.26" y1="26.71" x2="76.73" y2="26.71"/>
			
				<line fill="none" stroke="#1D2132" stroke-width="0.1" stroke-linecap="square" stroke-miterlimit="10" x1="77.26" y1="27.03" x2="76.73" y2="27.03"/>
			
				<line fill="none" stroke="#1D2132" stroke-width="0.1" stroke-linecap="square" stroke-miterlimit="10" x1="77.26" y1="27.98" x2="76.73" y2="27.98"/>
			
				<line fill="none" stroke="#1D2132" stroke-width="0.1" stroke-linecap="square" stroke-miterlimit="10" x1="77.26" y1="28.3" x2="76.73" y2="28.3"/>
			
				<line fill="none" stroke="#1D2132" stroke-width="0.1" stroke-linecap="square" stroke-miterlimit="10" x1="77.26" y1="28.62" x2="76.73" y2="28.62"/>
			
				<line fill="none" stroke="#1D2132" stroke-width="0.1" stroke-linecap="square" stroke-miterlimit="10" x1="77.26" y1="28.94" x2="76.73" y2="28.94"/>
			
				<line fill="none" stroke="#1D2132" stroke-width="0.1" stroke-linecap="square" stroke-miterlimit="10" x1="77.26" y1="29.26" x2="76.73" y2="29.26"/>
			
				<line fill="none" stroke="#1D2132" stroke-width="0.1" stroke-linecap="square" stroke-miterlimit="10" x1="77.26" y1="29.57" x2="76.73" y2="29.57"/>
			
				<line fill="none" stroke="#1D2132" stroke-width="0.1" stroke-linecap="square" stroke-miterlimit="10" x1="77.26" y1="30.53" x2="76.73" y2="30.53"/>
			
				<line fill="none" stroke="#1D2132" stroke-width="0.1" stroke-linecap="square" stroke-miterlimit="10" x1="77.26" y1="30.84" x2="76.73" y2="30.84"/>
			
				<line fill="none" stroke="#1D2132" stroke-width="0.1" stroke-linecap="square" stroke-miterlimit="10" x1="77.26" y1="29.89" x2="76.73" y2="29.89"/>
			
				<line fill="none" stroke="#1D2132" stroke-width="0.1" stroke-linecap="square" stroke-miterlimit="10" x1="77.26" y1="30.21" x2="76.73" y2="30.21"/>
			
				<line fill="none" stroke="#1D2132" stroke-width="0.1" stroke-linecap="square" stroke-miterlimit="10" x1="77.26" y1="31.16" x2="76.73" y2="31.16"/>
			
				<line fill="none" stroke="#1D2132" stroke-width="0.1" stroke-linecap="square" stroke-miterlimit="10" x1="77.26" y1="31.48" x2="76.73" y2="31.48"/>
		</g>
		<path fill="none" stroke="#1D2132" stroke-width="0.1" stroke-linecap="square" stroke-miterlimit="10" d="M76.39,9.45
			c0,0.46-0.82,0-0.82,0.46c0,0.46,0.82,0,0.82,0.46c0,0.46-0.82,0-0.82,0.46s0.82,0,0.82,0.46c0,0.46-0.82,0-0.82,0.46
			c0,0.46,0.82,0,0.82,0.46s-0.82,0-0.82,0.46c0,0.46,0.82,0,0.82,0.46c0,0.46-0.82,0-0.82,0.46c0,0.46,0.82,0,0.82,0.46
			c0,0.46-0.82,0-0.82,0.46s0.82,0,0.82,0.46c0,0.46-0.82,0-0.82,0.46c0,0.46,0.82,0,0.82,0.46c0,0.46-0.82,0-0.82,0.46
			c0,0.46,0.82,0,0.82,0.46c0,0.46-0.82,0-0.82,0.46s0.82,0,0.82,0.46c0,0.46-0.82,0-0.82,0.46c0,0.46,0.82,0,0.82,0.46
			s-0.82,0-0.82,0.46c0,0.46,0.82,0,0.82,0.46c0,0.46-0.82,0-0.82,0.46s0.82,0,0.82,0.46s-0.82,0-0.82,0.46c0,0.46,0.82,0,0.82,0.46
			c0,0.46-0.82,0-0.82,0.46s0.82,0,0.82,0.46c0,0.46-0.82,0-0.82,0.46c0,0.46,0.82,0,0.82,0.46s-0.82,0-0.82,0.46
			c0,0.46,0.82,0,0.82,0.46c0,0.46-0.82,0-0.82,0.46"/>
		<path fill="none" stroke="#1D2132" stroke-width="0.1" stroke-linecap="square" stroke-miterlimit="10" d="M76.39,42.55
			c0-0.46-0.82,0-0.82-0.46s0.82,0,0.82-0.46s-0.82,0-0.82-0.46s0.82,0,0.82-0.46c0-0.46-0.82,0-0.82-0.46c0-0.46,0.82,0,0.82-0.46
			s-0.82,0-0.82-0.46s0.82,0,0.82-0.46s-0.82,0-0.82-0.46s0.82,0,0.82-0.46c0-0.46-0.82,0-0.82-0.46c0-0.46,0.82,0,0.82-0.46
			s-0.82,0-0.82-0.46s0.82,0,0.82-0.46s-0.82,0-0.82-0.46s0.82,0,0.82-0.46s-0.82,0-0.82-0.46c0-0.46,0.82,0,0.82-0.46
			c0-0.46-0.82,0-0.82-0.46s0.82,0,0.82-0.46s-0.82,0-0.82-0.46s0.82,0,0.82-0.46c0-0.46-0.82,0-0.82-0.46c0-0.46,0.82,0,0.82-0.46
			s-0.82,0-0.82-0.46c0-0.46,0.82,0,0.82-0.46c0-0.46-0.82,0-0.82-0.46s0.82,0,0.82-0.46c0-0.46-0.82,0-0.82-0.46
			c0-0.46,0.82,0,0.82-0.46s-0.82,0-0.82-0.46c0-0.46,0.82,0,0.82-0.46c0-0.46-0.82,0-0.82-0.46"/>
	</g>
	<g>
		<g>
			
				<rect x="71.11" y="71.73" transform="matrix(-1.836970e-16 1 -1 -1.836970e-16 149.1639 -4.8301)" fill="#FFFFFF" stroke="#1D2132" stroke-width="0.1" stroke-linecap="square" stroke-miterlimit="10" width="11.77" height="0.88"/>
			
				<line fill="none" stroke="#1D2132" stroke-width="0.1" stroke-linecap="square" stroke-miterlimit="10" x1="77.26" y1="67.21" x2="76.73" y2="67.21"/>
			
				<line fill="none" stroke="#1D2132" stroke-width="0.1" stroke-linecap="square" stroke-miterlimit="10" x1="77.26" y1="67.53" x2="76.73" y2="67.53"/>
			
				<line fill="none" stroke="#1D2132" stroke-width="0.1" stroke-linecap="square" stroke-miterlimit="10" x1="77.26" y1="66.57" x2="76.73" y2="66.57"/>
			
				<line fill="none" stroke="#1D2132" stroke-width="0.1" stroke-linecap="square" stroke-miterlimit="10" x1="77.26" y1="66.89" x2="76.73" y2="66.89"/>
			
				<line fill="none" stroke="#1D2132" stroke-width="0.1" stroke-linecap="square" stroke-miterlimit="10" x1="77.26" y1="67.84" x2="76.73" y2="67.84"/>
			
				<line fill="none" stroke="#1D2132" stroke-width="0.1" stroke-linecap="square" stroke-miterlimit="10" x1="77.26" y1="68.16" x2="76.73" y2="68.16"/>
			
				<line fill="none" stroke="#1D2132" stroke-width="0.1" stroke-linecap="square" stroke-miterlimit="10" x1="77.26" y1="68.48" x2="76.73" y2="68.48"/>
			
				<line fill="none" stroke="#1D2132" stroke-width="0.1" stroke-linecap="square" stroke-miterlimit="10" x1="77.26" y1="68.8" x2="76.73" y2="68.8"/>
			
				<line fill="none" stroke="#1D2132" stroke-width="0.1" stroke-linecap="square" stroke-miterlimit="10" x1="77.26" y1="69.12" x2="76.73" y2="69.12"/>
			
				<line fill="none" stroke="#1D2132" stroke-width="0.1" stroke-linecap="square" stroke-miterlimit="10" x1="77.26" y1="69.43" x2="76.73" y2="69.43"/>
			
				<line fill="none" stroke="#1D2132" stroke-width="0.1" stroke-linecap="square" stroke-miterlimit="10" x1="77.26" y1="70.39" x2="76.73" y2="70.39"/>
			
				<line fill="none" stroke="#1D2132" stroke-width="0.1" stroke-linecap="square" stroke-miterlimit="10" x1="77.26" y1="70.7" x2="76.73" y2="70.7"/>
			
				<line fill="none" stroke="#1D2132" stroke-width="0.1" stroke-linecap="square" stroke-miterlimit="10" x1="77.26" y1="69.75" x2="76.73" y2="69.75"/>
			
				<line fill="none" stroke="#1D2132" stroke-width="0.1" stroke-linecap="square" stroke-miterlimit="10" x1="77.26" y1="70.07" x2="76.73" y2="70.07"/>
			
				<line fill="none" stroke="#1D2132" stroke-width="0.1" stroke-linecap="square" stroke-miterlimit="10" x1="77.26" y1="71.02" x2="76.73" y2="71.02"/>
			
				<line fill="none" stroke="#1D2132" stroke-width="0.1" stroke-linecap="square" stroke-miterlimit="10" x1="77.26" y1="71.34" x2="76.73" y2="71.34"/>
			
				<line fill="none" stroke="#1D2132" stroke-width="0.1" stroke-linecap="square" stroke-miterlimit="10" x1="77.26" y1="71.66" x2="76.73" y2="71.66"/>
			
				<line fill="none" stroke="#1D2132" stroke-width="0.1" stroke-linecap="square" stroke-miterlimit="10" x1="77.26" y1="71.97" x2="76.73" y2="71.97"/>
			
				<line fill="none" stroke="#1D2132" stroke-width="0.1" stroke-linecap="square" stroke-miterlimit="10" x1="77.26" y1="72.29" x2="76.73" y2="72.29"/>
			
				<line fill="none" stroke="#1D2132" stroke-width="0.1" stroke-linecap="square" stroke-miterlimit="10" x1="77.26" y1="72.61" x2="76.73" y2="72.61"/>
			
				<line fill="none" stroke="#1D2132" stroke-width="0.1" stroke-linecap="square" stroke-miterlimit="10" x1="77.26" y1="73.56" x2="76.73" y2="73.56"/>
			
				<line fill="none" stroke="#1D2132" stroke-width="0.1" stroke-linecap="square" stroke-miterlimit="10" x1="77.26" y1="73.88" x2="76.73" y2="73.88"/>
			
				<line fill="none" stroke="#1D2132" stroke-width="0.1" stroke-linecap="square" stroke-miterlimit="10" x1="77.26" y1="72.93" x2="76.73" y2="72.93"/>
			
				<line fill="none" stroke="#1D2132" stroke-width="0.1" stroke-linecap="square" stroke-miterlimit="10" x1="77.26" y1="73.24" x2="76.73" y2="73.24"/>
			
				<line fill="none" stroke="#1D2132" stroke-width="0.1" stroke-linecap="square" stroke-miterlimit="10" x1="77.26" y1="74.2" x2="76.73" y2="74.2"/>
			
				<line fill="none" stroke="#1D2132" stroke-width="0.1" stroke-linecap="square" stroke-miterlimit="10" x1="77.26" y1="74.51" x2="76.73" y2="74.51"/>
			
				<line fill="none" stroke="#1D2132" stroke-width="0.1" stroke-linecap="square" stroke-miterlimit="10" x1="77.26" y1="74.83" x2="76.73" y2="74.83"/>
			
				<line fill="none" stroke="#1D2132" stroke-width="0.1" stroke-linecap="square" stroke-miterlimit="10" x1="77.26" y1="75.15" x2="76.73" y2="75.15"/>
			
				<line fill="none" stroke="#1D2132" stroke-width="0.1" stroke-linecap="square" stroke-miterlimit="10" x1="77.26" y1="75.47" x2="76.73" y2="75.47"/>
			
				<line fill="none" stroke="#1D2132" stroke-width="0.1" stroke-linecap="square" stroke-miterlimit="10" x1="77.26" y1="75.79" x2="76.73" y2="75.79"/>
			
				<line fill="none" stroke="#1D2132" stroke-width="0.1" stroke-linecap="square" stroke-miterlimit="10" x1="77.26" y1="76.74" x2="76.73" y2="76.74"/>
			
				<line fill="none" stroke="#1D2132" stroke-width="0.1" stroke-linecap="square" stroke-miterlimit="10" x1="77.26" y1="77.06" x2="76.73" y2="77.06"/>
			
				<line fill="none" stroke="#1D2132" stroke-width="0.1" stroke-linecap="square" stroke-miterlimit="10" x1="77.26" y1="76.1" x2="76.73" y2="76.1"/>
			
				<line fill="none" stroke="#1D2132" stroke-width="0.1" stroke-linecap="square" stroke-miterlimit="10" x1="77.26" y1="76.42" x2="76.73" y2="76.42"/>
			
				<line fill="none" stroke="#1D2132" stroke-width="0.1" stroke-linecap="square" stroke-miterlimit="10" x1="77.26" y1="77.37" x2="76.73" y2="77.37"/>
			
				<line fill="none" stroke="#1D2132" stroke-width="0.1" stroke-linecap="square" stroke-miterlimit="10" x1="77.26" y1="77.69" x2="76.73" y2="77.69"/>
		</g>
		<path fill="none" stroke="#1D2132" stroke-width="0.1" stroke-linecap="square" stroke-miterlimit="10" d="M76.39,55.66
			c0,0.46-0.82,0-0.82,0.46s0.82,0,0.82,0.46s-0.82,0-0.82,0.46s0.82,0,0.82,0.46s-0.82,0-0.82,0.46c0,0.46,0.82,0,0.82,0.46
			c0,0.46-0.82,0-0.82,0.46s0.82,0,0.82,0.46s-0.82,0-0.82,0.46s0.82,0,0.82,0.46s-0.82,0-0.82,0.46c0,0.46,0.82,0,0.82,0.46
			c0,0.46-0.82,0-0.82,0.46s0.82,0,0.82,0.46s-0.82,0-0.82,0.46s0.82,0,0.82,0.46s-0.82,0-0.82,0.46c0,0.46,0.82,0,0.82,0.46
			c0,0.46-0.82,0-0.82,0.46s0.82,0,0.82,0.46s-0.82,0-0.82,0.46s0.82,0,0.82,0.46s-0.82,0-0.82,0.46s0.82,0,0.82,0.46
			s-0.82,0-0.82,0.46s0.82,0,0.82,0.46s-0.82,0-0.82,0.46c0,0.46,0.82,0,0.82,0.46c0,0.46-0.82,0-0.82,0.46s0.82,0,0.82,0.46
			s-0.82,0-0.82,0.46s0.82,0,0.82,0.46s-0.82,0-0.82,0.46"/>
		<path fill="none" stroke="#1D2132" stroke-width="0.1" stroke-linecap="square" stroke-miterlimit="10" d="M76.39,88.76
			c0-0.46-0.82,0-0.82-0.46c0-0.46,0.82,0,0.82-0.46s-0.82,0-0.82-0.46s0.82,0,0.82-0.46s-0.82,0-0.82-0.46s0.82,0,0.82-0.46
			s-0.82,0-0.82-0.46s0.82,0,0.82-0.46s-0.82,0-0.82-0.46s0.82,0,0.82-0.46s-0.82,0-0.82-0.46s0.82,0,0.82-0.46s-0.82,0-0.82-0.46
			c0-0.46,0.82,0,0.82-0.46c0-0.46-0.82,0-0.82-0.46s0.82,0,0.82-0.46s-0.82,0-0.82-0.46s0.82,0,0.82-0.46s-0.82,0-0.82-0.46
			s0.82,0,0.82-0.46s-0.82,0-0.82-0.46s0.82,0,0.82-0.46s-0.82,0-0.82-0.46s0.82,0,0.82-0.46s-0.82,0-0.82-0.46
			c0-0.46,0.82,0,0.82-0.46c0-0.46-0.82,0-0.82-0.46s0.82,0,0.82-0.46s-0.82,0-0.82-0.46s0.82,0,0.82-0.46s-0.82,0-0.82-0.46
			s0.82,0,0.82-0.46s-0.82,0-0.82-0.46"/>
	</g>
</g>
<g id="Doors">
	<g>
		<polygon fill="none" stroke="#1D2132" stroke-width="0.1" stroke-miterlimit="10" points="0.64,29.76 1.82,29.76 1.82,29.16 
			0.64,29.16 		"/>
		<polygon fill="none" stroke="#1D2132" stroke-width="0.1" stroke-miterlimit="10" points="0.64,44.24 1.82,44.24 1.82,44.83 
			0.64,44.83 		"/>
		<polyline fill="none" stroke="#1D2132" stroke-width="0.1" stroke-miterlimit="10" points="11.99,39.99 11.79,40.17 11.6,40.35 
			11.4,40.51 11.2,40.69 11,40.85 10.78,41.02 10.58,41.19 10.37,41.35 10.15,41.49 9.94,41.65 9.71,41.79 9.49,41.94 9.26,42.08 
			9.04,42.2 8.8,42.33 8.58,42.47 8.34,42.58 8.11,42.69 7.88,42.81 7.62,42.92 7.39,43.02 7.14,43.13 6.89,43.22 6.66,43.33 
			6.41,43.4 6.16,43.49 5.91,43.58 5.64,43.65 5.41,43.72 5.14,43.78 4.88,43.85 4.62,43.9 4.36,43.94 4.11,44.01 3.84,44.04 
			3.58,44.1 3.32,44.11 3.06,44.15 2.79,44.17 2.53,44.19 2.27,44.2 2,44.22 1.74,44.24 		"/>
		<polygon fill="none" stroke="#1D2132" stroke-width="0.1" stroke-miterlimit="10" points="1.8,29.85 11.99,39.99 11.6,40.35 
			1.39,30.27 		"/>
	</g>
	<g>
		<polygon fill="none" stroke="#1D2132" stroke-width="0.1" stroke-miterlimit="10" points="15.27,26.76 15.27,27.84 14.84,27.84 
			14.84,26.76 		"/>
		<polygon fill="none" stroke="#1D2132" stroke-width="0.1" stroke-miterlimit="10" points="25.95,26.76 25.95,27.84 26.4,27.84 
			26.4,26.76 		"/>
		<polyline fill="none" stroke="#1D2132" stroke-width="0.1" stroke-miterlimit="10" points="22.83,35.37 22.95,35.23 23.09,35.09 
			23.22,34.94 23.35,34.8 23.48,34.65 23.6,34.48 23.72,34.34 23.83,34.19 23.94,34.02 24.06,33.87 24.16,33.69 24.27,33.53 
			24.36,33.37 24.47,33.2 24.56,33.02 24.66,32.87 24.75,32.69 24.83,32.52 24.92,32.34 25,32.16 25.08,31.98 25.15,31.8 
			25.22,31.62 25.28,31.44 25.35,31.26 25.42,31.06 25.48,30.88 25.52,30.69 25.58,30.52 25.62,30.33 25.68,30.12 25.72,29.94 
			25.75,29.74 25.8,29.55 25.82,29.37 25.85,29.17 25.88,28.98 25.9,28.8 25.92,28.59 25.94,28.4 25.94,28.2 25.94,28.01 
			25.95,27.81 		"/>
		<polygon fill="none" stroke="#1D2132" stroke-width="0.1" stroke-miterlimit="10" points="15.35,27.85 22.83,35.37 23.09,35.09 
			15.65,27.55 		"/>
	</g>
	<g>
		<polygon fill="none" stroke="#1D2132" stroke-width="0.1" stroke-miterlimit="10" points="35.22,40.79 36.31,40.79 36.31,41.25 
			35.22,41.25 		"/>
		<polygon fill="none" stroke="#1D2132" stroke-width="0.1" stroke-miterlimit="10" points="35.22,29.65 36.31,29.65 36.31,29.2 
			35.22,29.2 		"/>
		<polyline fill="none" stroke="#1D2132" stroke-width="0.1" stroke-miterlimit="10" points="44.21,32.92 44.06,32.78 43.91,32.65 
			43.76,32.51 43.6,32.38 43.45,32.25 43.28,32.13 43.13,32 42.96,31.88 42.8,31.76 42.63,31.64 42.46,31.53 42.28,31.43 
			42.12,31.32 41.94,31.21 41.76,31.12 41.58,31.02 41.41,30.92 41.23,30.84 41.04,30.75 40.85,30.66 40.67,30.58 40.48,30.5 
			40.29,30.43 40.1,30.35 39.91,30.29 39.72,30.23 39.53,30.17 39.33,30.11 39.14,30.05 38.94,30 38.74,29.95 38.54,29.91 
			38.34,29.88 38.14,29.83 37.94,29.8 37.75,29.77 37.54,29.75 37.34,29.72 37.13,29.7 36.93,29.68 36.74,29.67 36.52,29.66 
			36.33,29.65 		"/>
		<polygon fill="none" stroke="#1D2132" stroke-width="0.1" stroke-miterlimit="10" points="36.37,40.72 44.21,32.92 43.91,32.65 
			36.06,40.4 		"/>
	</g>
</g>
<g id="Windows">
	<polyline fill="none" stroke="#1D2132" stroke-width="0.1" stroke-miterlimit="10" points="78.69,59.4 79.65,59.4 79.65,82.5 
		78.69,82.5 78.69,59.4 	"/>
	<polyline fill="none" stroke="#1D2132" stroke-width="0.1" stroke-miterlimit="10" points="77.48,83.86 79.65,83.86 79.65,58.04 
		77.48,58.04 77.48,83.86 	"/>
	<polyline fill="none" stroke="#1D2132" stroke-width="0.1" stroke-miterlimit="10" points="78.69,84.1 78.69,84.49 79.65,84.49 
		79.65,84.1 78.69,84.1 79.65,84.1 79.65,82.5 78.69,82.5 78.69,84.1 	"/>
	<polyline fill="none" stroke="#1D2132" stroke-width="0.1" stroke-miterlimit="10" points="78.69,59.4 79.65,59.4 79.65,57.49 
		78.69,57.49 78.69,59.4 	"/>
	<polyline fill="none" stroke="#1D2132" stroke-width="0.1" stroke-miterlimit="10" points="79.65,58.72 81.82,58.72 81.82,83.18 
		79.65,83.18 79.65,58.72 	"/>
	<polyline fill="none" stroke="#1D2132" stroke-width="0.1" stroke-miterlimit="10" points="78.69,14.16 79.65,14.16 79.65,37.26 
		78.69,37.26 78.69,14.16 	"/>
	<polyline fill="none" stroke="#1D2132" stroke-width="0.1" stroke-miterlimit="10" points="77.48,38.62 79.65,38.62 79.65,12.8 
		77.48,12.8 77.48,38.62 	"/>
	<polyline fill="none" stroke="#1D2132" stroke-width="0.1" stroke-miterlimit="10" points="78.69,39.02 78.69,39.49 79.65,39.49 
		79.65,39.02 78.69,39.02 79.65,39.02 79.65,37.26 78.69,37.26 78.69,39.02 	"/>
	<polyline fill="none" stroke="#1D2132" stroke-width="0.1" stroke-miterlimit="10" points="78.69,14.16 79.65,14.16 79.65,12.48 
		78.69,12.48 78.69,14.16 	"/>
	<polyline fill="none" stroke="#1D2132" stroke-width="0.1" stroke-miterlimit="10" points="79.65,13.48 81.82,13.48 81.82,37.94 
		79.65,37.94 79.65,13.48 	"/>
</g>
<g id="Text">
	
		<text id="TXT--" transform="matrix(1 0 0 1 29.5602 66.7281)" opacity="0.7" fill="#1D2132" enable-background="new    " font-family="'Cannonade-Medium'" font-size="3px">18,37</text>
	
		<text id="TXT---" transform="matrix(1 0 0 1 57.1472 18.2552)" opacity="0.7" fill="#1D2132" enable-background="new    " font-family="'Cannonade-Medium'" font-size="3px">10,08</text>
	
		<text id="TXT--" transform="matrix(1 0 0 1 17.3002 19.655)" opacity="0.7" fill="#1D2132" enable-background="new    " font-family="'Cannonade-Medium'" font-size="3px">3,96</text>
	
		<text id="TXT--" transform="matrix(1 0 0 1 18.04 40.7583)" opacity="0.7" fill="#1D2132" enable-background="new    " font-family="'Cannonade-Medium'" font-size="3px">4,43</text>
</g>
<g id="Walls">
	<polyline fill="#1D2132" stroke="#1D2132" stroke-width="0.1" stroke-miterlimit="10" points="79.65,99.86 79.65,97.68 0.17,97.68 
		0.17,99.86 79.65,99.86 	"/>
	<polyline fill="#1D2132" stroke="#1D2132" stroke-width="0.1" stroke-miterlimit="10" points="79.65,2.02 79.65,-0.14 0.17,-0.14 
		0.17,2.02 79.65,2.02 	"/>
	<line fill="none" stroke="#1D2132" stroke-width="0.1" stroke-miterlimit="10" x1="79.65" y1="99.86" x2="79.65" y2="99.86"/>
	<polyline fill="#1D2132" stroke="#1D2132" stroke-width="0.1" stroke-miterlimit="10" points="79.65,97.68 79.65,83.86 
		77.48,83.86 77.48,97.68 79.65,97.68 	"/>
	<polyline fill="#1D2132" stroke="#1D2132" stroke-width="0.1" stroke-miterlimit="10" points="79.65,58.04 79.65,38.62 
		77.48,38.62 77.48,58.04 79.65,58.04 	"/>
	<polyline fill="#1D2132" stroke="#1D2132" stroke-width="0.1" stroke-miterlimit="10" points="79.65,12.8 79.65,2.02 77.48,2.02 
		77.48,12.8 79.65,12.8 	"/>
	<polyline fill="#1D2132" stroke="#1D2132" stroke-width="0.1" stroke-miterlimit="10" points="77.48,-0.14 77.48,-0.14 
		79.65,-0.14 	"/>
	<line fill="none" stroke="#1D2132" stroke-width="0.1" stroke-miterlimit="10" x1="79.65" y1="-0.14" x2="79.65" y2="-0.14"/>
	
		<rect x="79.65" y="-0.14" fill="#1D2132" stroke="#1D2132" stroke-width="0.1" stroke-miterlimit="10" width="2.04" height="13.62"/>
	<polyline fill="#1D2132" stroke="#1D2132" stroke-width="0.1" stroke-miterlimit="10" points="79.65,37.94 79.65,58.72 
		81.69,58.72 81.69,37.94 79.65,37.94 	"/>
	<polyline fill="#1D2132" stroke="#1D2132" stroke-width="0.1" stroke-miterlimit="10" points="79.65,83.18 81.69,83.18 
		81.69,99.86 79.65,99.86 79.65,83.18 	"/>
	<polyline fill="#1D2132" stroke="#1D2132" stroke-width="0.1" stroke-miterlimit="10" points="0.17,2.02 0.17,29.2 2.34,29.2 
		2.34,2.02 0.17,2.02 	"/>
	<polyline fill="#1D2132" stroke="#1D2132" stroke-width="0.1" stroke-miterlimit="10" points="2.34,44.83 0.17,44.83 0.17,97.68 
		2.34,97.68 2.34,44.83 	"/>
	<polyline fill="#1D2132" stroke="#1D2132" stroke-width="0.1" stroke-miterlimit="10" points="21.64,47.22 21.64,57.47 2.34,57.47 
		2.34,56.38 20.56,56.38 20.56,47.22 21.64,47.22 	"/>
	<polyline fill="#1D2132" stroke="#1D2132" stroke-width="0.1" stroke-miterlimit="10" points="35.22,49.31 35.22,48.22 
		77.48,48.22 77.48,49.31 35.22,49.31 35.22,48.22 	"/>
	<polyline fill="#1D2132" stroke="#1D2132" stroke-width="0.1" stroke-miterlimit="10" points="35.22,41.25 36.31,41.25 36.31,49.3 
		35.22,49.3 35.22,41.25 36.31,41.25 	"/>
	<polyline fill="#1D2132" stroke="#1D2132" stroke-width="0.1" stroke-miterlimit="10" points="35.22,21.16 36.31,21.16 36.31,29.2 
		35.22,29.2 35.22,21.16 36.31,21.16 	"/>
	<polygon fill="#1D2132" stroke="#1D2132" stroke-width="0.1" stroke-miterlimit="10" points="36.31,27.84 36.31,2.02 35.22,2.02 
		35.22,26.76 26.4,26.76 26.4,27.84 	"/>
	<polyline fill="#1D2132" stroke="#1D2132" stroke-width="0.1" stroke-miterlimit="10" points="2.34,26.76 14.84,26.76 14.84,27.84 
		2.34,27.84 2.34,26.76 	"/>
</g>
<g id="Details">
	<g>
		
			<path fill="none" stroke="#1D2132" stroke-width="0.1" stroke-linecap="round" stroke-linejoin="round" stroke-miterlimit="10" d="
			M3.79,4.34c-0.51,0-0.93-0.41-0.93-0.93c0-0.51,0.41-0.93,0.93-0.93c0.51,0,0.93,0.41,0.93,0.93C4.72,3.92,4.32,4.34,3.79,4.34"/>
		
			<path fill="none" stroke="#1D2132" stroke-width="0.1" stroke-linecap="round" stroke-linejoin="round" stroke-miterlimit="10" d="
			M3.79,4.16c-0.41,0-0.75-0.34-0.75-0.75s0.33-0.75,0.75-0.75c0.41,0,0.75,0.33,0.75,0.75S4.22,4.16,3.79,4.16"/>
		
			<path fill="none" stroke="#1D2132" stroke-width="0.1" stroke-linecap="round" stroke-linejoin="round" stroke-miterlimit="10" d="
			M3.79,4.12c-0.39,0-0.7-0.32-0.7-0.7c0-0.39,0.32-0.7,0.7-0.7s0.7,0.32,0.7,0.7C4.51,3.8,4.18,4.12,3.79,4.12"/>
		
			<line fill="none" stroke="#1D2132" stroke-width="0.1" stroke-linecap="round" stroke-linejoin="round" stroke-miterlimit="10" x1="2.51" y1="3.41" x2="2.75" y2="3.41"/>
		<polygon fill="#1D2132" points="2.88,3.41 2.87,3.45 2.85,3.48 2.8,3.52 2.76,3.52 2.71,3.48 2.69,3.45 2.68,3.41 2.69,3.37 
			2.71,3.34 2.76,3.31 2.8,3.31 2.85,3.34 2.87,3.37 		"/>
		
			<polygon fill="none" stroke="#1D2132" stroke-width="0.1" stroke-linecap="round" stroke-linejoin="round" stroke-miterlimit="10" points="
			2.88,3.41 2.87,3.45 2.85,3.48 2.8,3.52 2.76,3.52 2.71,3.48 2.69,3.45 2.68,3.41 2.69,3.37 2.71,3.34 2.76,3.31 2.8,3.31 
			2.85,3.34 2.87,3.37 		"/>
		
			<line fill="none" stroke="#1D2132" stroke-width="0.1" stroke-linecap="round" stroke-linejoin="round" stroke-miterlimit="10" x1="2.82" y1="3.41" x2="3.15" y2="3.41"/>
		<polygon fill="#1D2132" points="3.29,3.41 3.28,3.45 3.26,3.48 3.21,3.52 3.17,3.52 3.12,3.48 3.1,3.45 3.09,3.41 3.1,3.37 
			3.12,3.34 3.17,3.31 3.21,3.31 3.26,3.34 3.28,3.37 		"/>
		
			<polygon fill="none" stroke="#1D2132" stroke-width="0.1" stroke-linecap="round" stroke-linejoin="round" stroke-miterlimit="10" points="
			3.29,3.41 3.28,3.45 3.26,3.48 3.21,3.52 3.17,3.52 3.12,3.48 3.1,3.45 3.09,3.41 3.1,3.37 3.12,3.34 3.17,3.31 3.21,3.31 
			3.26,3.34 3.28,3.37 		"/>
		
			<line fill="none" stroke="#1D2132" stroke-width="0.1" stroke-linecap="round" stroke-linejoin="round" stroke-miterlimit="10" x1="3.23" y1="3.41" x2="3.56" y2="3.41"/>
		<polygon fill="#1D2132" points="3.7,3.41 3.69,3.45 3.67,3.48 3.62,3.52 3.58,3.52 3.53,3.48 3.51,3.45 3.5,3.41 3.51,3.37 
			3.53,3.34 3.58,3.31 3.62,3.31 3.67,3.34 3.69,3.37 		"/>
		
			<polygon fill="none" stroke="#1D2132" stroke-width="0.1" stroke-linecap="round" stroke-linejoin="round" stroke-miterlimit="10" points="
			3.7,3.41 3.69,3.45 3.67,3.48 3.62,3.52 3.58,3.52 3.53,3.48 3.51,3.45 3.5,3.41 3.51,3.37 3.53,3.34 3.58,3.31 3.62,3.31 
			3.67,3.34 3.69,3.37 		"/>
		
			<line fill="none" stroke="#1D2132" stroke-width="0.1" stroke-linecap="round" stroke-linejoin="round" stroke-miterlimit="10" x1="3.64" y1="3.41" x2="3.97" y2="3.41"/>
		<polygon fill="#1D2132" points="4.11,3.41 4.11,3.45 4.09,3.48 4.03,3.52 3.99,3.52 3.94,3.48 3.92,3.45 3.91,3.41 3.92,3.37 
			3.94,3.34 3.99,3.31 4.03,3.31 4.09,3.34 4.11,3.37 		"/>
		
			<polygon fill="none" stroke="#1D2132" stroke-width="0.1" stroke-linecap="round" stroke-linejoin="round" stroke-miterlimit="10" points="
			4.11,3.41 4.11,3.45 4.09,3.48 4.03,3.52 3.99,3.52 3.94,3.48 3.92,3.45 3.91,3.41 3.92,3.37 3.94,3.34 3.99,3.31 4.03,3.31 
			4.09,3.34 4.11,3.37 		"/>
		
			<line fill="none" stroke="#1D2132" stroke-width="0.1" stroke-linecap="round" stroke-linejoin="round" stroke-miterlimit="10" x1="4.05" y1="3.41" x2="4.38" y2="3.41"/>
		<polygon fill="#1D2132" points="4.51,3.41 4.51,3.45 4.49,3.48 4.43,3.52 4.39,3.52 4.34,3.48 4.32,3.45 4.32,3.41 4.32,3.37 
			4.34,3.34 4.39,3.31 4.43,3.31 4.49,3.34 4.51,3.37 		"/>
		
			<polygon fill="none" stroke="#1D2132" stroke-width="0.1" stroke-linecap="round" stroke-linejoin="round" stroke-miterlimit="10" points="
			4.51,3.41 4.51,3.45 4.49,3.48 4.43,3.52 4.39,3.52 4.34,3.48 4.32,3.45 4.32,3.41 4.32,3.37 4.34,3.34 4.39,3.31 4.43,3.31 
			4.49,3.34 4.51,3.37 		"/>
		
			<line fill="none" stroke="#1D2132" stroke-width="0.1" stroke-linecap="round" stroke-linejoin="round" stroke-miterlimit="10" x1="4.45" y1="3.41" x2="4.8" y2="3.41"/>
		<polygon fill="#1D2132" points="4.93,3.41 4.91,3.45 4.89,3.48 4.84,3.52 4.8,3.52 4.76,3.48 4.74,3.45 4.72,3.41 4.74,3.37 
			4.76,3.34 4.8,3.31 4.84,3.31 4.89,3.34 4.91,3.37 		"/>
		
			<polygon fill="none" stroke="#1D2132" stroke-width="0.1" stroke-linecap="round" stroke-linejoin="round" stroke-miterlimit="10" points="
			4.93,3.41 4.91,3.45 4.89,3.48 4.84,3.52 4.8,3.52 4.76,3.48 4.74,3.45 4.72,3.41 4.74,3.37 4.76,3.34 4.8,3.31 4.84,3.31 
			4.89,3.34 4.91,3.37 		"/>
		
			<line fill="none" stroke="#1D2132" stroke-width="0.1" stroke-linecap="round" stroke-linejoin="round" stroke-miterlimit="10" x1="4.86" y1="3.41" x2="5.11" y2="3.41"/>
		
			<line fill="none" stroke="#1D2132" stroke-width="0.1" stroke-linecap="round" stroke-linejoin="round" stroke-miterlimit="10" x1="3.79" y1="2.12" x2="3.79" y2="2.34"/>
		<polygon fill="#1D2132" points="3.89,2.4 3.88,2.44 3.86,2.47 3.81,2.49 3.77,2.49 3.72,2.47 3.7,2.44 3.69,2.4 3.7,2.34 
			3.72,2.31 3.77,2.3 3.81,2.3 3.86,2.31 3.88,2.34 		"/>
		
			<polygon fill="none" stroke="#1D2132" stroke-width="0.1" stroke-linecap="round" stroke-linejoin="round" stroke-miterlimit="10" points="
			3.89,2.4 3.88,2.44 3.86,2.47 3.81,2.49 3.77,2.49 3.72,2.47 3.7,2.44 3.69,2.4 3.7,2.34 3.72,2.31 3.77,2.3 3.81,2.3 3.86,2.31 
			3.88,2.34 		"/>
		
			<line fill="none" stroke="#1D2132" stroke-width="0.1" stroke-linecap="round" stroke-linejoin="round" stroke-miterlimit="10" x1="3.79" y1="2.42" x2="3.79" y2="2.76"/>
		<polygon fill="#1D2132" points="3.89,2.79 3.88,2.84 3.86,2.87 3.81,2.88 3.77,2.88 3.72,2.87 3.7,2.84 3.69,2.79 3.7,2.74 
			3.72,2.72 3.77,2.69 3.81,2.69 3.86,2.72 3.88,2.74 		"/>
		
			<polygon fill="none" stroke="#1D2132" stroke-width="0.1" stroke-linecap="round" stroke-linejoin="round" stroke-miterlimit="10" points="
			3.89,2.79 3.88,2.84 3.86,2.87 3.81,2.88 3.77,2.88 3.72,2.87 3.7,2.84 3.69,2.79 3.7,2.74 3.72,2.72 3.77,2.69 3.81,2.69 
			3.86,2.72 3.88,2.74 		"/>
		
			<line fill="none" stroke="#1D2132" stroke-width="0.1" stroke-linecap="round" stroke-linejoin="round" stroke-miterlimit="10" x1="3.79" y1="2.84" x2="3.79" y2="3.16"/>
		<polygon fill="#1D2132" points="3.89,3.2 3.88,3.24 3.86,3.27 3.81,3.3 3.77,3.3 3.72,3.27 3.7,3.24 3.69,3.2 3.7,3.16 3.72,3.12 
			3.77,3.11 3.81,3.11 3.86,3.12 3.88,3.16 		"/>
		
			<polygon fill="none" stroke="#1D2132" stroke-width="0.1" stroke-linecap="round" stroke-linejoin="round" stroke-miterlimit="10" points="
			3.89,3.2 3.88,3.24 3.86,3.27 3.81,3.3 3.77,3.3 3.72,3.27 3.7,3.24 3.69,3.2 3.7,3.16 3.72,3.12 3.77,3.11 3.81,3.11 3.86,3.12 
			3.88,3.16 		"/>
		
			<line fill="none" stroke="#1D2132" stroke-width="0.1" stroke-linecap="round" stroke-linejoin="round" stroke-miterlimit="10" x1="3.79" y1="3.24" x2="3.79" y2="3.56"/>
		<polygon fill="#1D2132" points="3.89,3.62 3.88,3.66 3.86,3.69 3.81,3.72 3.77,3.72 3.72,3.69 3.7,3.66 3.69,3.62 3.7,3.56 
			3.72,3.54 3.77,3.52 3.81,3.52 3.86,3.54 3.88,3.56 		"/>
		
			<polygon fill="none" stroke="#1D2132" stroke-width="0.1" stroke-linecap="round" stroke-linejoin="round" stroke-miterlimit="10" points="
			3.89,3.62 3.88,3.66 3.86,3.69 3.81,3.72 3.77,3.72 3.72,3.69 3.7,3.66 3.69,3.62 3.7,3.56 3.72,3.54 3.77,3.52 3.81,3.52 
			3.86,3.54 3.88,3.56 		"/>
		
			<line fill="none" stroke="#1D2132" stroke-width="0.1" stroke-linecap="round" stroke-linejoin="round" stroke-miterlimit="10" x1="3.79" y1="3.66" x2="3.79" y2="3.98"/>
		<polygon fill="#1D2132" points="3.89,4.02 3.88,4.06 3.86,4.09 3.81,4.12 3.77,4.12 3.72,4.09 3.7,4.06 3.69,4.02 3.7,3.98 
			3.72,3.94 3.77,3.92 3.81,3.92 3.86,3.94 3.88,3.98 		"/>
		
			<polygon fill="none" stroke="#1D2132" stroke-width="0.1" stroke-linecap="round" stroke-linejoin="round" stroke-miterlimit="10" points="
			3.89,4.02 3.88,4.06 3.86,4.09 3.81,4.12 3.77,4.12 3.72,4.09 3.7,4.06 3.69,4.02 3.7,3.98 3.72,3.94 3.77,3.92 3.81,3.92 
			3.86,3.94 3.88,3.98 		"/>
		
			<line fill="none" stroke="#1D2132" stroke-width="0.1" stroke-linecap="round" stroke-linejoin="round" stroke-miterlimit="10" x1="3.79" y1="4.05" x2="3.79" y2="4.38"/>
		<polygon fill="#1D2132" points="3.89,4.44 3.88,4.48 3.86,4.51 3.81,4.54 3.77,4.54 3.72,4.51 3.7,4.48 3.69,4.44 3.7,4.38 
			3.72,4.36 3.77,4.34 3.81,4.34 3.86,4.36 3.88,4.38 		"/>
		
			<polygon fill="none" stroke="#1D2132" stroke-width="0.1" stroke-linecap="round" stroke-linejoin="round" stroke-miterlimit="10" points="
			3.89,4.44 3.88,4.48 3.86,4.51 3.81,4.54 3.77,4.54 3.72,4.51 3.7,4.48 3.69,4.44 3.7,4.38 3.72,4.36 3.77,4.34 3.81,4.34 
			3.86,4.36 3.88,4.38 		"/>
		
			<line fill="none" stroke="#1D2132" stroke-width="0.1" stroke-linecap="round" stroke-linejoin="round" stroke-miterlimit="10" x1="3.79" y1="4.47" x2="3.79" y2="4.69"/>
		
			<polyline fill="none" stroke="#1D2132" stroke-width="0.1" stroke-linecap="round" stroke-linejoin="round" stroke-miterlimit="10" points="
			2.44,2.05 5.16,2.05 5.16,4.77 2.44,4.77 2.44,2.05 		"/>
		
			<path fill="none" stroke="#1D2132" stroke-width="0.1" stroke-linecap="round" stroke-linejoin="round" stroke-miterlimit="10" d="
			M3.79,4.38c-0.54,0-0.97-0.43-0.97-0.97s0.43-0.97,0.97-0.97s0.97,0.43,0.97,0.97S4.34,4.38,3.79,4.38"/>
	</g>
	<g>
		
			<rect x="2.34" y="21.38" fill="#FFFFFF" stroke="#1D2132" stroke-width="0.5" stroke-miterlimit="10" width="10.22" height="5.3"/>
		<g>
			
				<rect x="10.58" y="21.97" fill="#FFFFFF" stroke="#1D2132" stroke-width="0.1" stroke-linecap="square" stroke-miterlimit="22.9256" width="1.3" height="4.01"/>
			<polygon fill="#1D2132" points="11.87,21.97 11.07,22.38 10.58,25.97 10.58,21.97 			"/>
		</g>
		<g>
			
				<rect x="2.95" y="21.97" fill="#FFFFFF" stroke="#1D2132" stroke-width="0.1" stroke-linecap="square" stroke-miterlimit="22.9256" width="1.3" height="4.01"/>
			<polygon fill="#1D2132" points="4.15,21.97 3.34,22.38 2.95,25.97 2.95,21.97 			"/>
		</g>
		<g>
			
				<rect x="4.87" y="21.97" fill="#FFFFFF" stroke="#1D2132" stroke-width="0.1" stroke-linecap="square" stroke-miterlimit="22.9256" width="5.12" height="4.01"/>
			<polygon fill="#1D2132" points="9.86,21.97 5.56,22.38 4.87,25.97 4.87,21.97 			"/>
		</g>
	</g>
</g>
</svg>
