<?xml version="1.0" encoding="utf-8"?>
<!-- Generator: Adobe Illustrator 22.0.0, SVG Export Plug-In . SVG Version: 6.00 Build 0)  -->
<svg version="1.1" id="Layer_1" xmlns="http://www.w3.org/2000/svg" xmlns:xlink="http://www.w3.org/1999/xlink" x="0px" y="0px"
	 viewBox="0 0 82 100" enable-background="new 0 0 82 100" xml:space="preserve">
<g id="Background">
	<rect x="4.51" y="1.48" opacity="0.1" fill="#1D2132" enable-background="new    " width="75.63" height="97"/>
</g>
<g id="Plumbing">
	<g>
		<polyline fill="#FFFFFF" points="60.15,5.36 60.15,5.48 60.15,5.59 60.17,5.81 60.22,6.02 60.31,6.23 60.41,6.44 60.52,6.62 
			60.67,6.79 60.82,6.94 61.05,7.12 61.3,7.27 61.56,7.4 61.82,7.51 62.11,7.61 62.37,7.69 62.64,7.76 62.91,7.81 63.19,7.87 
			63.48,7.87 63.72,7.9 63.97,7.87 64.26,7.86 64.55,7.81 64.81,7.76 65.08,7.69 65.38,7.59 65.64,7.51 65.9,7.4 66.16,7.27 
			66.41,7.12 66.64,6.94 66.79,6.79 66.94,6.62 67.05,6.44 67.16,6.23 67.23,6.02 67.28,5.81 67.32,5.59 67.32,5.36 67.32,2.16 
			60.15,2.16 60.15,5.36 		"/>
		
			<line fill="none" stroke="#1D2132" stroke-width="0.1" stroke-linecap="square" stroke-miterlimit="10" x1="67.32" y1="2.16" x2="60.15" y2="2.16"/>
		
			<line fill="none" stroke="#1D2132" stroke-width="0.1" stroke-linecap="square" stroke-miterlimit="10" x1="67.32" y1="5.36" x2="67.32" y2="2.16"/>
		
			<line fill="none" stroke="#1D2132" stroke-width="0.1" stroke-linecap="square" stroke-miterlimit="10" x1="60.15" y1="5.36" x2="60.15" y2="2.16"/>
		
			<line fill="none" stroke="#1D2132" stroke-width="0.1" stroke-linecap="square" stroke-miterlimit="10" x1="62.6" y1="2.16" x2="64.85" y2="2.16"/>
		
			<line fill="none" stroke="#1D2132" stroke-width="0.1" stroke-linecap="square" stroke-miterlimit="10" x1="63.96" y1="4.73" x2="64.32" y2="4.73"/>
		
			<line fill="none" stroke="#1D2132" stroke-width="0.1" stroke-linecap="square" stroke-miterlimit="10" x1="63.72" y1="4.51" x2="63.72" y2="4.09"/>
		
			<line fill="none" stroke="#1D2132" stroke-width="0.1" stroke-linecap="square" stroke-miterlimit="10" x1="63.13" y1="4.73" x2="63.5" y2="4.73"/>
		
			<line fill="none" stroke="#1D2132" stroke-width="0.1" stroke-linecap="square" stroke-miterlimit="10" x1="63.72" y1="5.37" x2="63.72" y2="4.98"/>
		<path fill="none" stroke="#1D2132" stroke-width="0.1" stroke-linecap="square" stroke-miterlimit="10" d="M60.58,5.57
			c0.25-0.66,0.68-1.22,1.24-1.6"/>
		<path fill="none" stroke="#1D2132" stroke-width="0.1" stroke-linecap="square" stroke-miterlimit="10" d="M61.82,3.96
			c0.5-0.32,1.07-0.48,1.65-0.48c0.08,0,0.18,0,0.25,0.01"/>
		<path fill="none" stroke="#1D2132" stroke-width="0.1" stroke-linecap="square" stroke-miterlimit="10" d="M65.64,3.95
			c0.56,0.4,1,0.94,1.24,1.6"/>
		<path fill="none" stroke="#1D2132" stroke-width="0.1" stroke-linecap="square" stroke-miterlimit="10" d="M63.74,3.5
			c0.08-0.01,0.18-0.01,0.25-0.01c0.59,0,1.16,0.17,1.65,0.48"/>
		<path fill="none" stroke="#1D2132" stroke-width="0.1" stroke-linecap="square" stroke-miterlimit="10" d="M63.47,7.89
			c-0.75-0.06-1.49-0.26-2.17-0.62"/>
		<path fill="none" stroke="#1D2132" stroke-width="0.1" stroke-linecap="square" stroke-miterlimit="10" d="M67.32,5.37
			c0,0.01,0,0.05,0,0.07c0,0.58-0.25,1.13-0.68,1.5"/>
		<path fill="none" stroke="#1D2132" stroke-width="0.1" stroke-linecap="square" stroke-miterlimit="10" d="M63.98,7.87
			c-0.08,0.01-0.18,0.01-0.25,0.01c-0.08,0-0.18,0-0.25-0.01"/>
		<path fill="none" stroke="#1D2132" stroke-width="0.1" stroke-linecap="square" stroke-miterlimit="10" d="M61.73,4.09
			c0.65-0.1,1.33-0.16,2-0.16c0.65,0,1.32,0.06,1.99,0.16"/>
		<path fill="none" stroke="#1D2132" stroke-width="0.1" stroke-linecap="square" stroke-miterlimit="10" d="M63.71,2.64
			c0.67,0,1.35,0.05,2.02,0.15"/>
		<path fill="none" stroke="#1D2132" stroke-width="0.1" stroke-linecap="square" stroke-miterlimit="10" d="M66.13,2.96
			c0.65,0.78,1.01,1.78,1.01,2.82c0,0.02,0,0.04,0,0.06"/>
		<path fill="none" stroke="#1D2132" stroke-width="0.1" stroke-linecap="square" stroke-miterlimit="10" d="M65.75,2.77
			c0.13,0.02,0.28,0.1,0.37,0.21"/>
		<path fill="none" stroke="#1D2132" stroke-width="0.1" stroke-linecap="square" stroke-miterlimit="10" d="M60.32,5.84
			c0-0.01,0-0.04,0-0.05c0-1.04,0.35-2.04,1.01-2.82"/>
		<path fill="none" stroke="#1D2132" stroke-width="0.1" stroke-linecap="square" stroke-miterlimit="10" d="M61.7,2.77
			c0.67-0.09,1.34-0.15,2.02-0.15"/>
		<path fill="none" stroke="#1D2132" stroke-width="0.1" stroke-linecap="square" stroke-miterlimit="10" d="M61.35,3
			c0.1-0.12,0.23-0.19,0.37-0.21"/>
		<path fill="none" stroke="#1D2132" stroke-width="0.1" stroke-linecap="square" stroke-miterlimit="10" d="M60.83,6.93
			c-0.43-0.36-0.68-0.92-0.68-1.5c0-0.01,0-0.05,0-0.07"/>
		<path fill="none" stroke="#1D2132" stroke-width="0.1" stroke-linecap="square" stroke-miterlimit="10" d="M61.29,7.26
			c-0.16-0.08-0.32-0.2-0.47-0.32"/>
		<path fill="none" stroke="#1D2132" stroke-width="0.1" stroke-linecap="square" stroke-miterlimit="10" d="M66.63,6.95
			c-0.14,0.12-0.3,0.23-0.47,0.32"/>
		<path fill="none" stroke="#1D2132" stroke-width="0.1" stroke-linecap="square" stroke-miterlimit="10" d="M66.14,7.25
			c-0.67,0.35-1.42,0.56-2.17,0.62"/>
		<path fill="none" stroke="#1D2132" stroke-width="0.1" stroke-linecap="square" stroke-miterlimit="10" d="M64.71,7.36
			c-0.32,0.07-0.66,0.12-0.99,0.12s-0.67-0.05-0.99-0.12"/>
		<path fill="none" stroke="#1D2132" stroke-width="0.1" stroke-linecap="square" stroke-miterlimit="10" d="M60.94,6.49
			c-0.23-0.23-0.37-0.54-0.37-0.87c0-0.02,0-0.05,0-0.07"/>
		<path fill="none" stroke="#1D2132" stroke-width="0.1" stroke-linecap="square" stroke-miterlimit="10" d="M62.74,7.36
			c-0.65-0.14-1.26-0.44-1.78-0.87"/>
		<path fill="none" stroke="#1D2132" stroke-width="0.1" stroke-linecap="square" stroke-miterlimit="10" d="M66.87,5.55
			c0,0.02,0,0.05,0,0.07c0,0.34-0.13,0.65-0.37,0.87"/>
		<path fill="none" stroke="#1D2132" stroke-width="0.1" stroke-linecap="square" stroke-miterlimit="10" d="M66.51,6.48
			c-0.52,0.46-1.13,0.75-1.79,0.88"/>
		<path fill="none" stroke="#1D2132" stroke-width="0.1" stroke-linecap="square" stroke-miterlimit="10" d="M63.72,4.24
			c-0.24,0-0.47,0.23-0.46,0.49c0,0.27,0.21,0.49,0.46,0.49S64.18,5,64.18,4.73S63.97,4.24,63.72,4.24"/>
		<path fill="none" stroke="#1D2132" stroke-width="0.1" stroke-linecap="square" stroke-miterlimit="10" d="M63.72,4.47
			c-0.13,0-0.24,0.12-0.25,0.26c0,0.15,0.11,0.26,0.25,0.26s0.25-0.11,0.25-0.26S63.86,4.47,63.72,4.47"/>
	</g>
	<g>
		<polygon fill="#FFFFFF" points="79.65,18.69 77.85,18.69 77.83,18.69 77.79,18.67 77.77,18.67 77.75,18.66 77.73,18.66 
			77.71,18.66 77.69,18.66 77.67,18.65 77.65,18.62 77.63,18.6 77.61,18.59 77.61,18.56 77.6,18.55 77.58,18.53 77.56,18.51 
			77.56,18.48 72.79,18.48 72.66,18.48 72.55,18.48 72.43,18.45 72.32,18.44 72.21,18.4 72.1,18.37 71.99,18.33 71.88,18.28 
			71.78,18.23 71.69,18.17 71.59,18.12 71.5,18.05 71.41,17.98 71.33,17.9 71.25,17.81 71.17,17.73 71.09,17.66 71.03,17.55 
			70.97,17.47 70.92,17.37 70.86,17.28 70.81,17.19 70.76,17.08 70.72,16.98 70.69,16.87 70.66,16.77 70.63,16.66 70.6,16.55 
			70.59,16.44 70.58,16.34 70.58,16.23 70.58,16.12 70.58,16.01 70.58,15.9 70.59,15.79 70.6,15.68 70.63,15.56 70.66,15.45 
			70.69,15.36 70.72,15.24 70.76,15.16 70.81,15.05 70.86,14.95 70.92,14.86 70.97,14.74 71.03,14.68 71.09,14.59 71.17,14.51 
			71.25,14.41 71.33,14.34 71.41,14.26 71.5,14.19 71.59,14.12 71.69,14.05 71.78,14.01 71.88,13.94 71.99,13.91 72.1,13.84 
			72.21,13.84 72.32,13.8 72.43,13.77 72.55,13.76 72.66,13.76 72.79,13.74 77.56,13.74 77.56,13.73 77.58,13.69 77.6,13.68 
			77.61,13.68 77.61,13.65 77.63,13.62 77.65,13.62 77.67,13.59 77.69,13.59 77.71,13.58 77.73,13.56 77.75,13.56 77.77,13.55 
			77.79,13.55 77.83,13.54 77.85,13.54 79.65,13.54 79.65,16.12 		"/>
		
			<line fill="none" stroke="#1D2132" stroke-width="0.1" stroke-linecap="square" stroke-miterlimit="10" x1="72.79" y1="13.74" x2="77.56" y2="13.74"/>
		
			<line fill="none" stroke="#1D2132" stroke-width="0.1" stroke-linecap="square" stroke-miterlimit="10" x1="79.65" y1="18.69" x2="79.65" y2="13.54"/>
		
			<line fill="none" stroke="#1D2132" stroke-width="0.1" stroke-linecap="square" stroke-miterlimit="10" x1="77.85" y1="13.54" x2="79.65" y2="13.54"/>
		
			<line fill="none" stroke="#1D2132" stroke-width="0.1" stroke-linecap="square" stroke-miterlimit="10" x1="76.71" y1="18.03" x2="76.71" y2="16.12"/>
		
			<line fill="none" stroke="#1D2132" stroke-width="0.1" stroke-linecap="square" stroke-miterlimit="10" x1="76.71" y1="14.2" x2="72.79" y2="13.74"/>
		
			<line fill="none" stroke="#1D2132" stroke-width="0.1" stroke-linecap="square" stroke-miterlimit="10" x1="76.71" y1="14.2" x2="76.71" y2="16.12"/>
		
			<line fill="none" stroke="#1D2132" stroke-width="0.1" stroke-linecap="square" stroke-miterlimit="10" x1="76.71" y1="18.03" x2="72.79" y2="18.48"/>
		
			<line fill="none" stroke="#1D2132" stroke-width="0.1" stroke-linecap="square" stroke-miterlimit="10" x1="72.79" y1="18.48" x2="77.56" y2="18.48"/>
		
			<line fill="none" stroke="#1D2132" stroke-width="0.1" stroke-linecap="square" stroke-miterlimit="10" x1="77.85" y1="18.69" x2="79.65" y2="18.69"/>
		<path fill="none" stroke="#1D2132" stroke-width="0.1" stroke-linecap="square" stroke-miterlimit="10" d="M77.55,13.8
			c-0.08,0.77-0.13,1.54-0.13,2.31s0.03,1.54,0.12,2.31"/>
		<path fill="none" stroke="#1D2132" stroke-width="0.1" stroke-linecap="square" stroke-miterlimit="10" d="M77.85,13.53
			c-0.15,0-0.29,0.12-0.31,0.27"/>
		<path fill="none" stroke="#1D2132" stroke-width="0.1" stroke-linecap="square" stroke-miterlimit="10" d="M72.79,13.74
			c-1.22,0-2.21,1.06-2.21,2.37s0.99,2.37,2.21,2.37"/>
		<path fill="none" stroke="#1D2132" stroke-width="0.1" stroke-linecap="square" stroke-miterlimit="10" d="M77.54,18.42
			c0.02,0.15,0.16,0.27,0.31,0.27"/>
		<path fill="none" stroke="#1D2132" stroke-width="0.1" stroke-linecap="square" stroke-miterlimit="10" d="M78.76,16.12
			c0,0.12-0.11,0.22-0.26,0.24c-0.13,0-0.26-0.11-0.26-0.24c0-0.13,0.13-0.24,0.26-0.24C78.64,15.88,78.76,15.99,78.76,16.12"/>
	</g>
	<g>
		<path fill="#FFFFFF" d="M59.05,14.37H47c-0.08,0-0.12-0.05-0.12-0.12V2.19c0-0.08,0.05-0.12,0.12-0.12h12.04
			c0.08,0,0.12,0.05,0.12,0.12v12.07C59.16,14.3,59.1,14.37,59.05,14.37z"/>
		
			<line fill="none" stroke="#1D2132" stroke-width="0.1" stroke-linecap="square" stroke-miterlimit="10" x1="49.99" y1="4.8" x2="49.99" y2="4.02"/>
		
			<line fill="none" stroke="#1D2132" stroke-width="0.1" stroke-linecap="square" stroke-miterlimit="10" x1="48.87" y1="5.13" x2="49.66" y2="5.13"/>
		
			<line fill="none" stroke="#1D2132" stroke-width="0.1" stroke-linecap="square" stroke-miterlimit="10" x1="49.99" y1="6.26" x2="49.99" y2="5.48"/>
		
			<line fill="none" stroke="#1D2132" stroke-width="0.1" stroke-linecap="square" stroke-miterlimit="10" x1="50.32" y1="5.13" x2="51.11" y2="5.13"/>
		
			<line fill="none" stroke="#1D2132" stroke-width="0.1" stroke-linecap="square" stroke-miterlimit="10" x1="58.47" y1="6.09" x2="58.47" y2="2.8"/>
		
			<line fill="none" stroke="#1D2132" stroke-width="0.1" stroke-linecap="square" stroke-miterlimit="10" x1="47.53" y1="13.48" x2="47.53" y2="5.97"/>
		<path fill="none" stroke="#1D2132" stroke-width="0.1" stroke-linecap="square" stroke-miterlimit="10" d="M47.66,13.61h10.62
			c0.1,0,0.19-0.09,0.19-0.19V2.8"/>
		
			<line fill="none" stroke="#1D2132" stroke-width="0.1" stroke-linecap="square" stroke-miterlimit="10" x1="50.81" y1="2.67" x2="58.34" y2="2.67"/>
		<g>
			<path fill="none" stroke="#1D2132" stroke-width="0.1" stroke-linecap="square" stroke-miterlimit="10" d="M50.82,2.66
				c-0.06,0-0.15,0.01-0.21,0.04"/>
		</g>
		<g>
			<path fill="none" stroke="#1D2132" stroke-width="0.1" stroke-linecap="square" stroke-miterlimit="10" d="M58.47,2.8
				c0-0.07-0.06-0.13-0.13-0.13"/>
		</g>
		<g>
			<path fill="none" stroke="#1D2132" stroke-width="0.1" stroke-linecap="square" stroke-miterlimit="10" d="M50.82,2.66
				c-0.06,0-0.15,0.01-0.21,0.04"/>
		</g>
		<g>
			<path fill="none" stroke="#1D2132" stroke-width="0.1" stroke-linecap="square" stroke-miterlimit="10" d="M47.53,13.49
				c0,0.07,0.06,0.13,0.13,0.13"/>
		</g>
		<g>
			<path fill="none" stroke="#1D2132" stroke-width="0.1" stroke-linecap="square" stroke-miterlimit="10" d="M50.7,2.68
				c-1.36,0.71-2.46,1.8-3.15,3.15"/>
		</g>
		<g>
			<path fill="none" stroke="#1D2132" stroke-width="0.1" stroke-linecap="square" stroke-miterlimit="10" d="M47.56,5.75
				c-0.02,0.07-0.03,0.15-0.03,0.22"/>
		</g>
		<g>
			<path fill="none" stroke="#1D2132" stroke-width="0.1" stroke-linecap="square" stroke-miterlimit="10" d="M50.61,2.72
				c-1.43,0.48-2.56,1.6-3.04,3.04"/>
		</g>
		<g>
			<path fill="none" stroke="#1D2132" stroke-width="0.1" stroke-linecap="square" stroke-miterlimit="10" d="M47.56,5.75
				c-0.02,0.07-0.03,0.15-0.03,0.22"/>
		</g>
		<g>
			<path fill="none" stroke="#1D2132" stroke-width="0.1" stroke-linecap="square" stroke-miterlimit="10" d="M49.99,4.51
				c0.33,0,0.62,0.29,0.61,0.61c0,0.33-0.28,0.61-0.61,0.61c-0.34,0-0.62-0.27-0.61-0.61C49.38,4.79,49.66,4.51,49.99,4.51"/>
		</g>
		<g>
			<path fill="none" stroke="#1D2132" stroke-width="0.1" stroke-linecap="square" stroke-miterlimit="10" d="M49.99,4.27
				c0.48,0,0.85,0.39,0.87,0.88c0,0.48-0.39,0.87-0.87,0.87s-0.87-0.4-0.87-0.88S49.51,4.27,49.99,4.27"/>
		</g>
		<path fill="none" stroke="#1D2132" stroke-width="0.1" stroke-linecap="square" stroke-miterlimit="10" d="M58.83,14.29H47.21
			c-0.18,0-0.33-0.15-0.33-0.33V2.36c0-0.18,0.15-0.33,0.33-0.33h11.62c0.18,0,0.33,0.15,0.33,0.33v11.62
			C59.16,14.16,59.01,14.3,58.83,14.29z"/>
	</g>
	<g>
		<g>
			<path fill="#FFFFFF" stroke="#1D2132" stroke-width="0.1" stroke-linecap="square" stroke-miterlimit="10" d="M52.11,20.97
				c0-0.11,0.07-0.2,0.16-0.2s0.16,0.09,0.16,0.2s-0.07,0.2-0.16,0.2C52.19,21.17,52.11,21.08,52.11,20.97z"/>
			
				<ellipse fill="#FFFFFF" stroke="#1D2132" stroke-width="0.1" stroke-linecap="square" stroke-miterlimit="10" cx="52.27" cy="21.81" rx="0.16" ry="0.2"/>
			<path fill="#FFFFFF" stroke="#1D2132" stroke-width="0.1" stroke-linecap="square" stroke-miterlimit="10" d="M52.11,25.28
				c0-0.11,0.07-0.2,0.16-0.2s0.16,0.09,0.16,0.2s-0.07,0.2-0.16,0.2C52.19,25.48,52.13,25.4,52.11,25.28z"/>
			<path fill="#FFFFFF" stroke="#1D2132" stroke-width="0.1" stroke-linecap="square" stroke-miterlimit="10" d="M52.27,20.78
				c0-0.44-0.09-0.8-0.21-0.8h-0.54c-0.12,0-0.21,0.36-0.21,0.8v4.7c0,0.44,0.09,0.8,0.21,0.8h0.54c0.12,0,0.21-0.36,0.21-0.8V20.78
				z"/>
			
				<rect x="47.29" y="19.66" fill="#FFFFFF" stroke="#1D2132" stroke-width="0.1" stroke-linecap="square" stroke-miterlimit="10" width="4.71" height="7"/>
			<path fill="#FFFFFF" stroke="#1D2132" stroke-width="0.1" stroke-linecap="square" stroke-miterlimit="10" d="M51.74,20.78
				c0-0.44-0.77-0.8-1.72-0.8h-0.77c-0.95,0-1.72,0.36-1.72,0.8v4.7c0,0.44,0.77,0.8,1.72,0.8h0.77c0.95,0,1.72-0.36,1.72-0.8
				L51.74,20.78z"/>
		</g>
		<g>
			<path fill="#FFFFFF" stroke="#1D2132" stroke-width="0.1" stroke-linecap="square" stroke-miterlimit="10" d="M47.95,25.5h-0.02
				c-0.09,0-0.16-0.07-0.16-0.16v-4.43c0-0.09,0.07-0.16,0.16-0.16h0.02c0.09,0,0.16,0.07,0.16,0.16v4.43
				C48.11,25.42,48.05,25.49,47.95,25.5z"/>
			<g>
				
					<rect x="47.04" y="20.94" fill="#FFFFFF" stroke="#1D2132" stroke-width="0.1" stroke-linecap="square" stroke-miterlimit="10" width="0.75" height="0.28"/>
				
					<rect x="47.04" y="25.04" fill="#FFFFFF" stroke="#1D2132" stroke-width="0.1" stroke-linecap="square" stroke-miterlimit="10" width="0.75" height="0.28"/>
			</g>
			<g>
				
					<rect x="46.9" y="20.79" fill="#FFFFFF" stroke="#1D2132" stroke-width="0.1" stroke-linecap="square" stroke-miterlimit="10" width="0.14" height="0.59"/>
				
					<rect x="46.9" y="24.88" fill="#FFFFFF" stroke="#1D2132" stroke-width="0.1" stroke-linecap="square" stroke-miterlimit="10" width="0.14" height="0.59"/>
			</g>
		</g>
	</g>
</g>
<g id="Furniture">
	<g>
		
			<rect x="7.8" y="2.13" fill="#FFFFFF" stroke="#1D2132" stroke-width="0.092" stroke-linecap="square" stroke-miterlimit="22.9256" width="37.5" height="8.85"/>
		
			<rect x="23.59" y="2.15" fill="#FFFFFF" stroke="#1D2132" stroke-width="0.092" stroke-linecap="square" stroke-miterlimit="22.9256" width="6.89" height="8.85"/>
		
			<rect x="37.86" y="2.13" fill="#FFFFFF" stroke="#1D2132" stroke-width="0.092" stroke-linecap="square" stroke-miterlimit="22.9256" width="7.82" height="8.85"/>
		
			<rect x="7.81" y="2.13" fill="#FFFFFF" stroke="#1D2132" stroke-width="0.092" stroke-linecap="square" stroke-miterlimit="22.9256" width="7.61" height="8.85"/>
		<g>
			
				<line fill="none" stroke="#1D2132" stroke-width="0.092" stroke-linecap="square" stroke-miterlimit="22.9256" x1="11.7" y1="7.67" x2="11.7" y2="5.47"/>
			
				<line fill="none" stroke="#1D2132" stroke-width="0.092" stroke-linecap="square" stroke-miterlimit="22.9256" x1="12.49" y1="7.35" x2="10.93" y2="5.79"/>
			
				<line fill="none" stroke="#1D2132" stroke-width="0.092" stroke-linecap="square" stroke-miterlimit="22.9256" x1="12.82" y1="6.56" x2="10.6" y2="6.56"/>
			
				<line fill="none" stroke="#1D2132" stroke-width="0.092" stroke-linecap="square" stroke-miterlimit="22.9256" x1="12.49" y1="5.79" x2="10.93" y2="7.35"/>
		</g>
		<g>
			
				<rect x="24.4" y="2.51" fill="#FFFFFF" stroke="#1D2132" stroke-width="0.092" stroke-linecap="square" stroke-miterlimit="22.9256" width="5.16" height="8.12"/>
			<g>
				<path fill="#FFFFFF" stroke="#1D2132" stroke-width="0.092" stroke-linecap="square" stroke-miterlimit="22.9256" d="
					M28.39,8.42c0,0.77-0.63,1.42-1.41,1.41c-0.78,0-1.41-0.63-1.41-1.41c0-0.78,0.62-1.41,1.41-1.41
					C27.76,7.02,28.39,7.63,28.39,8.42"/>
				<path fill="#FFFFFF" stroke="#1D2132" stroke-width="0.092" stroke-linecap="square" stroke-miterlimit="22.9256" d="
					M28.39,4.42c0,0.78-0.63,1.42-1.41,1.41c-0.78,0-1.41-0.62-1.41-1.41c0-0.78,0.62-1.41,1.41-1.41
					C27.76,3.01,28.39,3.65,28.39,4.42"/>
				<path fill="#FFFFFF" stroke="#1D2132" stroke-width="0.092" stroke-linecap="square" stroke-miterlimit="22.9256" d="
					M28.11,8.42c0,0.63-0.5,1.13-1.12,1.12c-0.61,0-1.12-0.5-1.12-1.12c0-0.61,0.5-1.12,1.12-1.12C27.6,7.3,28.11,7.8,28.11,8.42"/>
				<path fill="#FFFFFF" stroke="#1D2132" stroke-width="0.092" stroke-linecap="square" stroke-miterlimit="22.9256" d="
					M28.11,4.42c0,0.63-0.52,1.12-1.12,1.12s-1.12-0.5-1.12-1.12c0-0.61,0.5-1.12,1.12-1.12C27.6,3.3,28.11,3.8,28.11,4.42"/>
			</g>
		</g>
		<g>
			<path fill="#FFFFFF" stroke="#1D2132" stroke-width="0.092" stroke-linecap="square" stroke-miterlimit="22.9256" d="M39.54,4.3
				v5.64c0,0.29,0.22,0.52,0.52,0.52h3.41c0.29,0,0.52-0.22,0.52-0.52V4.31c0-0.29-0.22-0.52-0.52-0.52h-3.41
				C39.77,3.8,39.55,4.01,39.54,4.3z"/>
			<g>
				<path fill="#FFFFFF" stroke="#1D2132" stroke-width="0.092" stroke-linecap="square" stroke-miterlimit="22.9256" d="
					M41.77,4.64c-0.19,0-0.36,0.18-0.36,0.4c0,0.22,0.17,0.4,0.36,0.4s0.36-0.18,0.36-0.4C42.15,4.82,41.96,4.65,41.77,4.64z"/>
				<g>
					<path fill="#FFFFFF" stroke="#1D2132" stroke-width="0.092" stroke-linecap="square" stroke-miterlimit="22.9256" d="
						M41.77,2.69c-0.34,0-0.61,0.25-0.61,0.55s0.26,0.55,0.61,0.55c0.33,0,0.59-0.25,0.61-0.55C42.38,2.92,42.11,2.68,41.77,2.69z"
						/>
					<path fill="#FFFFFF" stroke="#1D2132" stroke-width="0.092" stroke-linecap="square" stroke-miterlimit="22.9256" d="
						M41.75,6.36c0.11,0,0.17-0.13,0.18-0.29l0.02-2.88c0-0.17-0.07-0.29-0.18-0.29l0,0c-0.1,0-0.18,0.13-0.18,0.29l-0.02,2.88
						C41.57,6.25,41.64,6.36,41.75,6.36L41.75,6.36z"/>
					<path fill="#FFFFFF" stroke="#1D2132" stroke-width="0.092" stroke-linecap="square" stroke-miterlimit="22.9256" d="
						M41.76,3.11c-0.47,0-0.85,0.06-0.85,0.17c0,0.08,0.39,0.17,0.85,0.17c0.47,0,0.85-0.06,0.85-0.17
						C42.63,3.14,42.24,3.08,41.76,3.11z"/>
				</g>
			</g>
		</g>
	</g>
	<g>
		<g>
			
				<rect x="23.05" y="37.1" transform="matrix(-3.267050e-07 -1 1 -3.267050e-07 -26.1409 77.2915)" fill="#FFFFFF" stroke="#1D2132" stroke-width="0.1" stroke-linecap="square" stroke-miterlimit="10" width="5.05" height="29.24"/>
			<g>
				<polygon fill="#FFFFFF" stroke="#1D2132" stroke-width="0.1" stroke-linecap="square" stroke-miterlimit="10" points="
					37.27,54.24 37.79,54.24 37.79,54.75 34.77,54.75 34.77,54.24 35.29,54.24 35.29,54.57 37.27,54.57 				"/>
				<polygon fill="#FFFFFF" stroke="#1D2132" stroke-width="0.1" stroke-linecap="square" stroke-miterlimit="10" points="
					15.86,54.24 16.38,54.24 16.38,54.75 13.36,54.75 13.36,54.24 13.88,54.24 13.88,54.57 15.86,54.57 				"/>
			</g>
			<g>
				<polygon fill="#FFFFFF" stroke="#1D2132" stroke-width="0.1" stroke-linecap="square" stroke-miterlimit="10" points="
					31.64,54.24 32.17,54.24 32.17,54.75 29.14,54.75 29.14,54.24 29.66,54.24 29.66,54.57 31.64,54.57 				"/>
				<polygon fill="#FFFFFF" stroke="#1D2132" stroke-width="0.1" stroke-linecap="square" stroke-miterlimit="10" points="
					21.49,54.24 22.01,54.24 22.01,54.75 18.98,54.75 18.98,54.24 19.51,54.24 19.51,54.57 21.49,54.57 				"/>
			</g>
		</g>
		<g>
			<path fill="#FFFFFF" stroke="#1D2132" stroke-width="0.1" stroke-linecap="square" stroke-miterlimit="10" d="M23.69,51.1v0.22
				c0,0.5,0.41,0.91,0.91,0.91h1.94c0.5,0,0.91-0.41,0.91-0.91l0-0.22c0-0.5-0.41-0.91-0.91-0.91H24.6
				C24.1,50.19,23.69,50.6,23.69,51.1z"/>
			<path fill="#FFFFFF" stroke="#1D2132" stroke-width="0.1" stroke-linecap="square" stroke-miterlimit="10" d="M24.39,51.43v0.02
				c0,0.23,0.18,0.41,0.41,0.41h1.55c0.23,0,0.41-0.18,0.41-0.41v-0.02c0-0.23-0.18-0.41-0.41-0.41l-1.55,0
				C24.57,51.02,24.39,51.2,24.39,51.43z"/>
			
				<rect x="25.49" y="45.13" transform="matrix(-3.266729e-07 -1 1 -3.266729e-07 -26.2035 77.3541)" fill="#FFFFFF" stroke="#1D2132" stroke-width="0.1" stroke-linecap="square" stroke-miterlimit="10" width="0.17" height="13.29"/>
			<polygon fill="#FFFFFF" stroke="#1D2132" stroke-width="0.1" stroke-linecap="square" stroke-miterlimit="10" points="
				20.85,51.35 18.93,51.69 32.22,51.69 30.3,51.35 			"/>
		</g>
	</g>
	<g>
		<path fill="#FFFFFF" stroke="#1D2132" stroke-width="0.1" stroke-linecap="square" stroke-miterlimit="10" d="M66.12,93.89
			c-0.51,0.78-2.26,1.86-3.44,1.05c-0.58-0.4-1.09-0.25-2.81-1.06c-0.75-0.35-2.11-0.85-2.79-2.42c-0.69-1.57-0.39-3.73,2.76-5.8
			c3.15-2.07,6.22-0.71,6.83,1.29S66.59,90,66.59,91C66.59,92,67.05,92.47,66.12,93.89z"/>
		<path fill="none" stroke="#1D2132" stroke-width="0.1" stroke-linecap="square" stroke-miterlimit="10" d="M57.07,91.46
			c0,0,0.84,1.18,1.57,1.46c1.45,0.56,1.1,0.72,2.96,1.25c0.56,0.16,0.77-0.21,0.86-0.14s0.81,0.42,1.59,0
			c0.78-0.43,1.36-0.75,1.79-1.59c0.26-0.52,0.23-1.04,0.11-1.2c-0.2-0.26,0.12-0.26,0.4-1.23c0.4-1.38,0.27-1.78,0.06-2.63
			c-0.21-0.85-0.15-1.09-0.66-1.63s-1.1-0.81-1.1-0.81"/>
		<path fill="none" stroke="#1D2132" stroke-width="0.1" stroke-linecap="square" stroke-miterlimit="10" d="M59.39,91.6
			c0,0,0.5-0.65,0.94-0.52c0.44,0.14,0.75,0.16,0.9,0.18c0.14,0.02,0.14,0.02,0.14,0.02s0.46,0.66,0.67,1.16
			c0.2,0.5,0.19,0.64,0.19,0.64"/>
		<path fill="none" stroke="#1D2132" stroke-width="0.1" stroke-linecap="square" stroke-miterlimit="10" d="M61.38,91.3
			c0,0,0.43-0.37,1.06-0.87s1.51-0.85,1.51-0.85s0.43,0.43,0.85,0.8c0.41,0.38,0.7,0.49,0.7,0.49"/>
		<path fill="none" stroke="#1D2132" stroke-width="0.1" stroke-linecap="square" stroke-miterlimit="10" d="M65.34,87.53
			c0,0-0.68-0.1-1.07,0.06c-0.39,0.15-0.45,0.36-0.45,0.96s0.13,1.02,0.13,1.02"/>
		<path fill="none" stroke="#1D2132" stroke-width="0.1" stroke-linecap="square" stroke-miterlimit="10" d="M59.32,89.65
			c0,0,0.45-1.02,0.9-1.39c0.45-0.37,0.45-0.37,0.45-0.37s0-0.12-0.15-0.36c-0.15-0.24-0.31-0.35-0.31-0.35"/>
		<path fill="none" stroke="#1D2132" stroke-width="0.1" stroke-linecap="square" stroke-miterlimit="10" d="M60.67,87.89
			c0,0,0.57-0.18,0.95-0.46c0.38-0.29,0.9-0.45,1.12-0.42c0.22,0.03,0.22,0.03,0.22,0.03s0.19-0.2,0.17-0.45"/>
		<path fill="none" stroke="#1D2132" stroke-width="0.1" stroke-linecap="square" stroke-miterlimit="10" d="M59.32,89.65
			c0,0-0.38-0.01-0.53-0.15c-0.15-0.14-0.25-0.3-0.25-0.3"/>
		<path fill="#FFFFFF" stroke="#1D2132" stroke-width="0.1" stroke-linecap="square" stroke-miterlimit="10" d="M63.65,93.95
			c0,0,0.11-0.06,0.12,0.01c0.02,0.12,0.18,0.31,0.29,0.28c0.2-0.05,0.35-0.26,0.63-0.41c0.29-0.15,0.59-0.13,0.66-0.35
			c0.04-0.13-0.25-0.31-0.26-0.37C65.09,93.06,65.22,93,65.22,93l0.31,0.43c0,0,0.06,0.31-0.24,0.49c-0.3,0.18-0.46,0.32-0.74,0.46
			c-0.29,0.15-0.48,0.29-0.7,0.07C63.63,94.22,63.65,93.95,63.65,93.95z"/>
	</g>
	<g>
		<path fill="#FFFFFF" stroke="#1D2132" stroke-width="0.1" stroke-linecap="square" stroke-miterlimit="10" d="M46.4,95.9
			c-0.88-0.31-2.35-1.75-1.85-3.09c0.25-0.66-0.01-1.11,0.36-2.98c0.16-0.81,0.32-2.25,1.68-3.29c1.36-1.04,3.53-1.27,6.29,1.29
			s2.18,5.87,0.38,6.94s-2.97,0.66-3.95,0.9S48.01,96.47,46.4,95.9z"/>
		<path fill="none" stroke="#1D2132" stroke-width="0.1" stroke-linecap="square" stroke-miterlimit="10" d="M46.6,86.54
			c0,0-0.94,1.1-1.04,1.87c-0.2,1.55-0.44,1.24-0.51,3.18c-0.02,0.59,0.38,0.7,0.34,0.81c-0.04,0.11-0.22,0.89,0.38,1.55
			c0.6,0.66,1.05,1.14,1.98,1.36c0.56,0.13,1.07-0.02,1.19-0.17c0.2-0.26,0.28,0.05,1.29,0.09c1.43,0.06,1.8-0.16,2.57-0.57
			c0.78-0.41,1.02-0.4,1.43-1.03s0.53-1.26,0.53-1.26"/>
		<path fill="none" stroke="#1D2132" stroke-width="0.1" stroke-linecap="square" stroke-miterlimit="10" d="M47.02,88.82
			c0,0,0.75,0.33,0.73,0.79c-0.03,0.46,0.03,0.77,0.04,0.92c0.01,0.15,0.01,0.15,0.01,0.15s-0.53,0.61-0.97,0.92
			c-0.44,0.32-0.57,0.34-0.57,0.34"/>
		<path fill="none" stroke="#1D2132" stroke-width="0.1" stroke-linecap="square" stroke-miterlimit="10" d="M47.79,90.68
			c0,0,0.46,0.33,1.1,0.82s1.19,1.26,1.19,1.26s-0.31,0.52-0.58,1.02c-0.27,0.49-0.31,0.79-0.31,0.79"/>
		<path fill="none" stroke="#1D2132" stroke-width="0.1" stroke-linecap="square" stroke-miterlimit="10" d="M52.39,93.62
			c0,0-0.07-0.68-0.31-1.03c-0.24-0.35-0.46-0.35-1.04-0.21c-0.59,0.15-0.96,0.37-0.96,0.37"/>
		<path fill="none" stroke="#1D2132" stroke-width="0.1" stroke-linecap="square" stroke-miterlimit="10" d="M48.89,88.29
			c0,0,1.1,0.2,1.57,0.54s0.47,0.35,0.47,0.35s0.12-0.02,0.32-0.23c0.2-0.21,0.26-0.38,0.26-0.38"/>
		<path fill="none" stroke="#1D2132" stroke-width="0.1" stroke-linecap="square" stroke-miterlimit="10" d="M50.93,89.18
			c0,0,0.31,0.51,0.68,0.82c0.37,0.3,0.65,0.77,0.68,0.99c0.03,0.22,0.03,0.22,0.03,0.22s0.24,0.14,0.48,0.06"/>
		<path fill="none" stroke="#1D2132" stroke-width="0.1" stroke-linecap="square" stroke-miterlimit="10" d="M48.89,88.29
			c0,0-0.08-0.37,0.02-0.55c0.1-0.18,0.23-0.31,0.23-0.31"/>
		<path fill="#FFFFFF" stroke="#1D2132" stroke-width="0.1" stroke-linecap="square" stroke-miterlimit="10" d="M45.76,93.52
			c0,0,0.09,0.09,0.02,0.12c-0.12,0.05-0.26,0.25-0.2,0.35c0.1,0.18,0.33,0.28,0.55,0.52s0.27,0.54,0.5,0.56
			c0.14,0.01,0.24-0.31,0.3-0.34c0.04-0.02,0.13,0.09,0.13,0.09l-0.34,0.4c0,0-0.29,0.13-0.53-0.11c-0.24-0.24-0.42-0.37-0.63-0.61
			s-0.4-0.4-0.23-0.66S45.76,93.52,45.76,93.52z"/>
	</g>
	<g>
		
			<rect x="50.89" y="24.85" transform="matrix(3.268393e-07 -1 1 3.268393e-07 23.0007 79.342)" fill="#FFFFFF" stroke="#1D2132" stroke-width="0.1" stroke-linecap="square" stroke-miterlimit="10" width="0.55" height="6.63"/>
		
			<rect x="51.01" y="25.33" transform="matrix(3.268373e-07 -1 1 3.268373e-07 22.8888 79.4538)" fill="#FFFFFF" stroke="#1D2132" stroke-width="0.1" stroke-linecap="square" stroke-miterlimit="10" width="0.33" height="5.9"/>
	</g>
	<g>
		
			<rect x="73.58" y="25.57" transform="matrix(3.268393e-07 -1 1 3.268393e-07 45.689 102.1421)" fill="#FFFFFF" stroke="#1D2132" stroke-width="0.1" stroke-linecap="square" stroke-miterlimit="10" width="0.66" height="5.32"/>
		<g>
			
				<rect x="71.64" y="28.56" fill="#FFFFFF" stroke="#1D2132" stroke-width="0.1" stroke-linecap="square" stroke-miterlimit="10" width="0.29" height="1.01"/>
			
				<rect x="71.64" y="28.56" fill="#FFFFFF" stroke="#1D2132" stroke-width="0.1" stroke-linecap="square" stroke-miterlimit="10" width="0.29" height="0.19"/>
		</g>
		<g>
			
				<rect x="73.06" y="28.56" fill="#FFFFFF" stroke="#1D2132" stroke-width="0.1" stroke-linecap="square" stroke-miterlimit="10" width="0.29" height="1.01"/>
			
				<rect x="73.06" y="28.56" fill="#FFFFFF" stroke="#1D2132" stroke-width="0.1" stroke-linecap="square" stroke-miterlimit="10" width="0.29" height="0.19"/>
		</g>
		<g>
			
				<rect x="74.48" y="28.56" fill="#FFFFFF" stroke="#1D2132" stroke-width="0.1" stroke-linecap="square" stroke-miterlimit="10" width="0.29" height="1.01"/>
			
				<rect x="74.48" y="28.56" fill="#FFFFFF" stroke="#1D2132" stroke-width="0.1" stroke-linecap="square" stroke-miterlimit="10" width="0.29" height="0.19"/>
		</g>
		<g>
			
				<rect x="75.9" y="28.56" fill="#FFFFFF" stroke="#1D2132" stroke-width="0.1" stroke-linecap="square" stroke-miterlimit="10" width="0.29" height="1.01"/>
			
				<rect x="75.9" y="28.56" fill="#FFFFFF" stroke="#1D2132" stroke-width="0.1" stroke-linecap="square" stroke-miterlimit="10" width="0.29" height="0.19"/>
		</g>
	</g>
	<g>
		<g>
			<g>
				
					<rect x="37.57" y="90.97" transform="matrix(3.604167e-13 1 -1 3.604167e-13 133.5968 53.3983)" fill="#FFFFFF" stroke="#1D2132" stroke-width="0.1" stroke-linecap="square" stroke-miterlimit="10" width="5.05" height="5.05"/>
				<polygon fill="#FFFFFF" stroke="#1D2132" stroke-width="0.1" stroke-linecap="square" stroke-miterlimit="10" points="
					41.09,90.97 41.61,90.97 41.61,90.47 38.59,90.47 38.59,90.97 39.11,90.97 39.11,90.64 41.09,90.64 				"/>
			</g>
			<g>
				
					<rect x="6.88" y="90.97" transform="matrix(-1.836970e-16 1 -1 -1.836970e-16 102.901 84.0941)" fill="#FFFFFF" stroke="#1D2132" stroke-width="0.1" stroke-linecap="square" stroke-miterlimit="10" width="5.05" height="5.05"/>
				<polygon fill="#FFFFFF" stroke="#1D2132" stroke-width="0.1" stroke-linecap="square" stroke-miterlimit="10" points="
					10.39,90.97 10.92,90.97 10.92,90.47 7.89,90.47 7.89,90.97 8.41,90.97 8.41,90.64 10.39,90.64 				"/>
			</g>
		</g>
		<g>
			<g>
				
					<rect x="12.79" y="69.87" fill="#FFFFFF" stroke="#1D2132" stroke-width="0.1" stroke-linecap="square" stroke-miterlimit="22.9256" width="23.92" height="26.58"/>
				<path fill="#FFFFFF" stroke="#1D2132" stroke-width="0.1" stroke-linecap="square" stroke-miterlimit="22.9256" d="M13.06,94.62
					c0,0-0.05-0.65,0-1.28c0.08-1.06,0.13-1.72,0.13-2.8c0-1.08-0.15-1.18-0.02-1.35c0.13-0.17,0.15-0.41,0-0.68
					c-0.15-0.27-0.03-1.79-0.03-2.84c0-1.05-0.12-2.7-0.08-3.62c0.04-0.91,0.17-0.57,0.32-0.64c0.15-0.07-0.12-0.81-0.25-0.95
					c-0.13-0.14-0.07-0.72-0.09-2.71c-0.02-2,0.14-3.65,0.1-4.72c-0.03-0.66,0-1.04,0.03-1.21c0.08-0.4-0.01-0.23-0.01-0.68
					c0.01-0.51,0.3,0.65,0.17,0.01c-0.09-0.44-0.26-0.86-0.13-0.76c0.13,0.1,0.36,0.53,0.44,0.59c0.07,0.07,0.3,0.41,0.23,0.14
					c-0.07-0.27-0.87-0.87-0.67-0.9c0.23-0.04,0.98-0.06,2.77-0.06c1.76,0,13.96,0,14.05,0.17c0.09,0.17,0.09,0.1,0.2,0
					c0.11-0.1,2.27,0.03,2.69-0.1c0.43-0.14,1.08-0.1,1.17,0.07c0.09,0.17,0.07,0.2,0.17,0.07c0.09-0.13,0.85-0.17,1.24-0.17
					c0.58,0,0.78-0.22,0.52,0.22c-0.26,0.44-0.23,0.78-0.06,0.51c0.17-0.27,0.21-0.64,0.32-0.7c0.11-0.07,0.09-0.32,0.1,0.39
					c0.02,0.71,0.12,4.83,0.08,6.18c-0.04,1.35,0.01,2.41-0.03,2.6c-0.12,0.53,0.07,1.26,0.03,2.43c-0.05,1.47-0.04,3.74-0.06,5.4
					c-0.02,1.66-0.02,2.13,0,3.35c0.02,1.22-0.25,1.68-0.12,2.07c0.26,0.76,0.03,1.09-0.01,1.66c-0.04,0.58,0.1,1.43,0.07,1.72
					c-0.02,0.23-0.41-0.65-0.57-0.51c-0.16,0.14,0.7,0.54,0.38,0.63s-4.4-0.09-4.71,0c-0.31,0.09-0.23,0-0.23,0s-0.94,0-1.63,0
					s-15.37,0-15.74,0c-0.37,0-0.74-0.08-0.37-0.23c0.37-0.15-0.38,0.03-0.4-0.26C13.03,95.35,13.18,94.9,13.06,94.62z"/>
				<path fill="#FFFFFF" stroke="#1D2132" stroke-width="0.1" stroke-linecap="square" stroke-miterlimit="22.9256" d="M12.73,89.09
					c-0.11-0.78-0.04-4.55,0.06-4.55s-0.25,1.29,0.41,2.04c0.66,0.75,1.38,1.29,1.19,1.06c-0.19-0.24-0.21-0.27-0.43-0.44
					c-0.21-0.17-0.43-0.24-0.31-0.31c0.12-0.07,0.83,0.12,1.45,0.31c0.79,0.24,2.8,0,3.7-0.06c2.28-0.16,15.11-0.56,16.53-1.59
					c1.42-1.02,1.3-1.19,1.37-1.53c0.08-0.34-0.07-1.39,0.06-0.86c0.13,0.52,0.02,1.6,0.11,2.64c0.1,1.06,0.21,1.4,0.06,1.46
					c-0.16,0.07-1.9,1.02-1.65,0.86c0.06-0.04,1.55-0.72,1.67-0.68c0.12,0.03,0.03,0.36,0,0.75c-0.04,0.51-0.04,0.51-0.1,0.51
					c-0.25,0-1.04,0.09-1.99,0.05c-0.95-0.03-0.12,0.2,0.41,0.07c0.53-0.14,0.06,0.14-0.92,0.41c-0.97,0.27-15.24-0.3-15.94-0.06
					c-0.7,0.24-3.08,0.55-3.95,0.14C13.59,88.9,12.81,89.67,12.73,89.09z"/>
				<g>
					<path fill="#FFFFFF" stroke="#1D2132" stroke-width="0.1" stroke-linecap="square" stroke-miterlimit="22.9256" d="
						M25.96,96.31c-0.37,0-0.28-0.06-0.19-0.17c0.09-0.11,0.14-0.29,0-1.04c-0.14-0.76-0.18-1.32,0.05-2.04
						c0.23-0.72,0.11-0.81,0.01-1c-0.09-0.19-0.05-0.34,0.23-0.19c0.27,0.15,1.08-0.07,1.73-0.1c2.52-0.11,3.63-0.01,5.39,0.08
						c0.38,0.02,0.7,0.14,0.88,0.1c0.18-0.04,0.41,0.04,0.27,0.15c-0.14,0.11,0.18,1.36,0.09,2.27c-0.09,0.91-0.04,1.42,0.01,1.53
						c0.05,0.11-0.09,0.45-0.27,0.3c-0.18-0.15-0.92,0.08-1.29,0.12c-0.37,0.04-1.16,0.15-3.12,0.11c-1.97-0.04-2.83-0.02-3.15-0.14
						C26.27,96.2,26.05,96.31,25.96,96.31z"/>
					<path fill="none" stroke="#1D2132" stroke-width="0.1" stroke-linecap="square" stroke-miterlimit="22.9256" d="M26.31,92.37
						c0,0,1.5-0.51,3.75-0.51c2.25,0,3.87,0.7,3.87,0.7"/>
				</g>
				<g>
					<path fill="#FFFFFF" stroke="#1D2132" stroke-width="0.1" stroke-linecap="square" stroke-miterlimit="22.9256" d="
						M27.08,93.89c-0.27,0-0.2-0.05-0.14-0.14c0.07-0.09,0.1-0.23,0-0.84c-0.1-0.61-0.13-1.07,0.03-1.65
						c0.17-0.58,0.08-0.66,0.01-0.81c-0.07-0.15-0.03-0.27,0.17-0.15c0.2,0.12,0.78-0.05,1.26-0.08c1.83-0.09,2.64,0,3.92,0.07
						c0.27,0.02,0.51,0.11,0.64,0.08c0.13-0.03,0.3,0.03,0.2,0.12c-0.1,0.09,0.13,1.1,0.07,1.83c-0.07,0.73-0.03,1.15,0.01,1.24
						c0.03,0.09-0.07,0.37-0.2,0.24c-0.13-0.12-0.67,0.07-0.94,0.1c-0.27,0.03-0.84,0.12-2.27,0.09c-1.43-0.03-2.06-0.02-2.29-0.11
						C27.3,93.79,27.15,93.89,27.08,93.89z"/>
					<path fill="none" stroke="#1D2132" stroke-width="0.1" stroke-linecap="square" stroke-miterlimit="22.9256" d="M27.33,90.69
						c0,0,1.09-0.41,2.72-0.41c1.63,0,2.82,0.57,2.82,0.57"/>
				</g>
				<g>
					<path fill="#FFFFFF" stroke="#1D2132" stroke-width="0.1" stroke-linecap="square" stroke-miterlimit="22.9256" d="
						M15.48,96.31c-0.37,0-0.28-0.06-0.19-0.17c0.09-0.11,0.14-0.29,0-1.04c-0.14-0.76-0.18-1.32,0.05-2.04
						c0.23-0.72,0.11-0.81,0.01-1c-0.09-0.19-0.05-0.34,0.23-0.19c0.27,0.15,1.08-0.07,1.73-0.1c2.52-0.11,3.63-0.01,5.39,0.08
						c0.38,0.02,0.7,0.14,0.88,0.1c0.18-0.04,0.41,0.04,0.27,0.15c-0.14,0.11,0.18,1.36,0.09,2.27c-0.09,0.91-0.04,1.42,0.01,1.53
						c0.05,0.11-0.09,0.45-0.27,0.3c-0.18-0.15-0.92,0.08-1.29,0.12c-0.37,0.04-1.16,0.15-3.12,0.11c-1.97-0.04-2.83-0.02-3.15-0.14
						C15.79,96.2,15.57,96.31,15.48,96.31z"/>
					<path fill="none" stroke="#1D2132" stroke-width="0.1" stroke-linecap="square" stroke-miterlimit="22.9256" d="M15.83,92.37
						c0,0,1.5-0.51,3.75-0.51c2.25,0,3.87,0.7,3.87,0.7"/>
				</g>
				<g>
					<path fill="#FFFFFF" stroke="#1D2132" stroke-width="0.1" stroke-linecap="square" stroke-miterlimit="22.9256" d="M16.6,93.89
						c-0.27,0-0.2-0.05-0.14-0.14c0.07-0.09,0.1-0.23,0-0.84c-0.1-0.61-0.13-1.07,0.03-1.65c0.17-0.58,0.08-0.66,0.01-0.81
						c-0.07-0.15-0.03-0.27,0.17-0.15c0.2,0.12,0.78-0.05,1.26-0.08c1.83-0.09,2.64,0,3.92,0.07c0.27,0.02,0.51,0.11,0.64,0.08
						c0.13-0.03,0.3,0.03,0.2,0.12c-0.1,0.09,0.13,1.1,0.07,1.83c-0.07,0.73-0.03,1.15,0.01,1.24c0.03,0.09-0.07,0.37-0.2,0.24
						c-0.13-0.12-0.67,0.07-0.94,0.1c-0.27,0.03-0.84,0.12-2.27,0.09c-1.43-0.03-2.06-0.02-2.29-0.11
						C16.83,93.79,16.67,93.89,16.6,93.89z"/>
					<path fill="none" stroke="#1D2132" stroke-width="0.1" stroke-linecap="square" stroke-miterlimit="22.9256" d="M16.85,90.69
						c0,0,1.09-0.41,2.72-0.41c1.63,0,2.82,0.57,2.82,0.57"/>
				</g>
				<path fill="#FFFFFF" stroke="#1D2132" stroke-width="0.1" stroke-linecap="square" stroke-miterlimit="22.9256" d="M36.2,70.12
					H13.12c-0.35,0-0.62,0.28-0.62,0.62v7.4c0,0.35,0.28,0.62,0.62,0.62H36.2c0.35,0,0.62-0.28,0.62-0.62v-7.4
					C36.83,70.4,36.55,70.12,36.2,70.12z"/>
			</g>
			<g>
				
					<rect x="8.8" y="96.96" fill="#FFFFFF" stroke="#1D2132" stroke-width="0.1" stroke-linecap="square" stroke-miterlimit="22.9256" width="31.9" height="0.66"/>
				<path fill="#FFFFFF" stroke="#1D2132" stroke-width="0.1" stroke-linecap="square" stroke-miterlimit="22.9256" d="M39.93,96.45
					H9.58c-0.27,0-0.49,0.22-0.49,0.49v0.01h31.34v-0.01C40.42,96.68,40.2,96.45,39.93,96.45z"/>
				<g>
					<g>
						<g>
							<path fill="#FFFFFF" stroke="#1D2132" stroke-width="0.1" stroke-linecap="square" stroke-miterlimit="22.9256" d="
								M39.63,96.96h-1v-0.14c0-0.27,0.22-0.49,0.49-0.49h0.02c0.27,0,0.49,0.22,0.49,0.49V96.96z"/>
							<path fill="#FFFFFF" stroke="#1D2132" stroke-width="0.1" stroke-linecap="square" stroke-miterlimit="22.9256" d="
								M35.96,93.24l0.75-0.18c0.04-0.43,0.02-0.85-0.06-1.27l0,0c-0.03-0.11-0.32-0.13-0.66-0.05c-0.34,0.08-0.59,0.23-0.56,0.34
								l0,0C35.55,92.48,35.72,92.87,35.96,93.24z"/>
							
								<ellipse transform="matrix(0.9728 -0.2315 0.2315 0.9728 -20.5764 10.9433)" fill="#FFFFFF" stroke="#1D2132" stroke-width="0.1" stroke-linecap="square" stroke-miterlimit="22.9256" cx="36.34" cy="93.15" rx="0.39" ry="0.13"/>
							<path fill="#FFFFFF" stroke="#1D2132" stroke-width="0.1" stroke-linecap="square" stroke-miterlimit="22.9256" d="
								M36.44,93.19l0.03,0.08c0,0,0.17,0.42,0.79,0.73c0.12,0.06,0.25,0.11,0.38,0.17c0.4,0.17,0.85,0.36,1.15,0.74
								c0.4,0.51,0.4,1.31,0.4,1.34l0,0.08l-0.17,0l0-0.08c0-0.01,0-0.77-0.36-1.24c-0.28-0.35-0.69-0.52-1.08-0.69
								c-0.14-0.06-0.27-0.11-0.39-0.17c-0.68-0.34-0.87-0.8-0.87-0.82l-0.03-0.08C36.28,93.21,36.38,93.17,36.44,93.19z"/>
						</g>
					</g>
					<g>
						<g>
							<path fill="#FFFFFF" stroke="#1D2132" stroke-width="0.1" stroke-linecap="square" stroke-miterlimit="22.9256" d="
								M9.87,96.96h1v-0.14c0-0.27-0.22-0.49-0.49-0.49h-0.02c-0.27,0-0.49,0.22-0.49,0.49V96.96z"/>
							<path fill="#FFFFFF" stroke="#1D2132" stroke-width="0.1" stroke-linecap="square" stroke-miterlimit="22.9256" d="
								M13.54,93.24l-0.75-0.18c-0.04-0.43-0.02-0.85,0.06-1.27l0,0c0.03-0.11,0.32-0.13,0.66-0.05c0.34,0.08,0.59,0.23,0.56,0.34
								l0,0C13.96,92.48,13.78,92.87,13.54,93.24z"/>
							
								<ellipse transform="matrix(0.2315 -0.9728 0.9728 0.2315 -80.4999 84.3873)" fill="#FFFFFF" stroke="#1D2132" stroke-width="0.1" stroke-linecap="square" stroke-miterlimit="22.9256" cx="13.16" cy="93.15" rx="0.13" ry="0.39"/>
							<path fill="#FFFFFF" stroke="#1D2132" stroke-width="0.1" stroke-linecap="square" stroke-miterlimit="22.9256" d="
								M13.06,93.19l-0.03,0.08c0,0-0.17,0.42-0.79,0.73c-0.12,0.06-0.25,0.11-0.38,0.17c-0.4,0.17-0.85,0.36-1.15,0.74
								c-0.4,0.51-0.4,1.31-0.4,1.34l0,0.08l0.17,0l0-0.08c0-0.01,0-0.77,0.36-1.24c0.28-0.35,0.69-0.52,1.08-0.69
								c0.14-0.06,0.27-0.11,0.39-0.17c0.68-0.34,0.87-0.8,0.87-0.82l0.03-0.08C13.22,93.21,13.12,93.17,13.06,93.19z"/>
						</g>
					</g>
				</g>
			</g>
		</g>
	</g>
	<g>
		
			<circle fill="#FFFFFF" stroke="#1D2132" stroke-width="0.1" stroke-linecap="square" stroke-miterlimit="22.9256" cx="57.36" cy="94.44" r="1.87"/>
		
			<circle fill="#FFFFFF" stroke="#1D2132" stroke-width="0.1" stroke-linecap="square" stroke-miterlimit="22.9256" cx="57.36" cy="94.44" r="0.4"/>
		<path fill="#FFFFFF" stroke="#1D2132" stroke-width="0.1" stroke-linecap="square" stroke-miterlimit="22.9256" d="M53.41,89.01
			c-0.18-0.42,0.24-1.01,0.95-1.32c0.71-0.31,1.43-0.23,1.61,0.18l0,0c0.39,0.84,0.44,1.48,0.43,2.5L54.98,91
			C54.19,90.35,53.75,89.87,53.41,89.01z"/>
		<path fill="#FFFFFF" stroke="#1D2132" stroke-width="0.1" stroke-linecap="square" stroke-miterlimit="22.9256" d="M55.51,90.27
			c0.39-0.18,0.8-0.13,0.9,0.1l0.23,0.51l-1.43,0.63l-0.23-0.51C54.87,90.77,55.11,90.44,55.51,90.27z"/>
		
			<ellipse transform="matrix(0.9138 -0.4062 0.4062 0.9138 -32.2235 30.5755)" fill="#FFFFFF" stroke="#1D2132" stroke-width="0.1" stroke-linecap="square" stroke-miterlimit="22.9256" cx="55.92" cy="91.2" rx="0.78" ry="0.46"/>
		<path fill="#FFFFFF" stroke="#1D2132" stroke-width="0.1" stroke-linecap="square" stroke-miterlimit="22.9256" d="M57.41,94.56
			L57.41,94.56c0.08-0.03,0.11-0.11,0.08-0.18l-0.86-1.94c-0.03-0.07-0.11-0.1-0.18-0.07l-0.01,0c-0.07,0.03-0.1,0.11-0.07,0.18
			l0.86,1.94C57.26,94.56,57.34,94.59,57.41,94.56z"/>
		<path fill="#FFFFFF" stroke="#1D2132" stroke-width="0.1" stroke-linecap="square" stroke-miterlimit="22.9256" d="M56.92,93.46
			L56.92,93.46c0.08-0.03,0.11-0.11,0.08-0.18l-0.86-1.94c-0.03-0.07-0.11-0.1-0.18-0.07l-0.01,0c-0.07,0.03-0.1,0.11-0.07,0.18
			l0.86,1.94C56.77,93.46,56.85,93.49,56.92,93.46z"/>
	</g>
	<g>
		<g>
			<path fill="#FFFFFF" stroke="#1D2132" stroke-width="0.1" stroke-linecap="square" stroke-miterlimit="10" d="M11.32,31.35
				c-0.78-0.92-1.96-2.05-2.22-2.64c-0.23-0.52,0.87-1.06,1.84-2.03c0.97-0.97,1.5-2.07,2.03-1.84c0.59,0.26,1.73,1.44,2.65,2.22
				c0.92,0.78,0.97,1.25,0.59,1.87c-0.37,0.6-1.01,1.2-1.41,1.61c-0.4,0.4-1,1.05-1.6,1.42C12.57,32.32,12.1,32.27,11.32,31.35z"/>
			<path fill="#FFFFFF" stroke="#1D2132" stroke-width="0.1" stroke-linecap="square" stroke-miterlimit="10" d="M11.71,31.43
				c-0.63-0.76-1.61-1.69-1.8-2.19c-0.17-0.44,0.29-1.5,1.19-2.39c0.9-0.9,1.95-1.37,2.39-1.19c0.5,0.2,1.43,1.17,2.2,1.8
				c0.76,0.63,0.78,1.04,0.42,1.6c-0.35,0.55-0.95,1.11-1.32,1.48c-0.37,0.37-0.93,0.97-1.48,1.32
				C12.76,32.21,12.35,32.2,11.71,31.43z"/>
			<g>
				<path fill="#FFFFFF" stroke="#1D2132" stroke-width="0.1" stroke-linecap="square" stroke-miterlimit="10" d="M11.46,24.81
					c0.34-0.23,0.69-0.43,1.05-0.61c0.85,1.09-0.71,1.25-1.76,2.3c-1.09,1.09-1.31,2.77-2.35,1.73
					C9.1,26.89,10.13,25.71,11.46,24.81z"/>
				<path fill="#FFFFFF" stroke="#1D2132" stroke-width="0.1" stroke-linecap="square" stroke-miterlimit="10" d="M8.12,28.17
					C8.16,28.09,8.2,28,8.25,27.92c0.71-1.31,1.74-2.46,3.06-3.35c0.31-0.21,0.63-0.4,0.96-0.57c0.06-0.03,0.13-0.07,0.2-0.1
					l0.12,0.25c-0.02,0.01-0.05,0.03-0.07,0.04c-0.36,0.18-0.71,0.38-1.05,0.61c-1.34,0.9-2.37,2.09-3.06,3.43
					c-0.01,0.02-0.02,0.04-0.03,0.06L8.12,28.17z"/>
			</g>
		</g>
		<g>
			<path fill="#FFFFFF" stroke="#1D2132" stroke-width="0.1" stroke-linecap="square" stroke-miterlimit="10" d="M23.06,43.09
				c0.92,0.78,2.05,1.96,2.64,2.22c0.52,0.23,1.06-0.87,2.03-1.84c0.97-0.97,2.07-1.5,1.84-2.03c-0.26-0.59-1.44-1.73-2.22-2.65
				c-0.78-0.92-1.25-0.97-1.87-0.59c-0.6,0.37-1.2,1.01-1.61,1.41c-0.4,0.4-1.05,1-1.42,1.6C22.09,41.84,22.14,42.31,23.06,43.09z"
				/>
			<path fill="#FFFFFF" stroke="#1D2132" stroke-width="0.1" stroke-linecap="square" stroke-miterlimit="10" d="M22.98,42.7
				c0.76,0.63,1.69,1.61,2.19,1.8c0.44,0.17,1.5-0.29,2.39-1.19c0.9-0.9,1.37-1.95,1.19-2.39c-0.2-0.5-1.17-1.43-1.8-2.2
				c-0.63-0.76-1.04-0.78-1.6-0.42c-0.55,0.35-1.11,0.95-1.48,1.32c-0.37,0.37-0.97,0.93-1.32,1.48
				C22.2,41.66,22.22,42.06,22.98,42.7z"/>
			<g>
				<path fill="#FFFFFF" stroke="#1D2132" stroke-width="0.1" stroke-linecap="square" stroke-miterlimit="10" d="M29.61,42.95
					c0.23-0.34,0.43-0.69,0.61-1.05c-1.09-0.85-1.25,0.71-2.3,1.76c-1.09,1.09-2.77,1.31-1.73,2.35
					C27.52,45.31,28.71,44.28,29.61,42.95z"/>
				<path fill="#FFFFFF" stroke="#1D2132" stroke-width="0.1" stroke-linecap="square" stroke-miterlimit="10" d="M26.24,46.29
					c0.08-0.04,0.16-0.08,0.24-0.13c1.31-0.71,2.46-1.74,3.35-3.06c0.21-0.31,0.4-0.63,0.57-0.96c0.03-0.06,0.07-0.13,0.1-0.2
					l-0.25-0.12c-0.01,0.02-0.03,0.05-0.04,0.07c-0.18,0.36-0.38,0.71-0.61,1.05c-0.9,1.34-2.09,2.37-3.43,3.06
					c-0.02,0.01-0.04,0.02-0.06,0.03L26.24,46.29z"/>
			</g>
		</g>
		<g>
			<path fill="#FFFFFF" stroke="#1D2132" stroke-width="0.1" stroke-linecap="square" stroke-miterlimit="10" d="M15.61,43.09
				c-0.92,0.78-2.05,1.96-2.64,2.22c-0.52,0.23-1.06-0.87-2.03-1.84c-0.97-0.97-2.07-1.5-1.84-2.03c0.26-0.59,1.44-1.73,2.22-2.65
				c0.78-0.92,1.25-0.97,1.87-0.59c0.6,0.37,1.2,1.01,1.61,1.41c0.4,0.4,1.05,1,1.42,1.6C16.58,41.84,16.53,42.31,15.61,43.09z"/>
			<path fill="#FFFFFF" stroke="#1D2132" stroke-width="0.1" stroke-linecap="square" stroke-miterlimit="10" d="M15.69,42.7
				c-0.76,0.63-1.69,1.61-2.19,1.8c-0.44,0.17-1.5-0.29-2.39-1.19c-0.9-0.9-1.37-1.95-1.19-2.39c0.2-0.5,1.17-1.43,1.8-2.2
				c0.63-0.76,1.04-0.78,1.6-0.42c0.55,0.35,1.11,0.95,1.48,1.32c0.37,0.37,0.97,0.93,1.32,1.48C16.47,41.66,16.45,42.06,15.69,42.7
				z"/>
			<g>
				<path fill="#FFFFFF" stroke="#1D2132" stroke-width="0.1" stroke-linecap="square" stroke-miterlimit="10" d="M9.06,42.95
					c-0.23-0.34-0.43-0.69-0.61-1.05c1.09-0.85,1.25,0.71,2.3,1.76c1.09,1.09,2.77,1.31,1.73,2.35
					C11.15,45.31,9.96,44.28,9.06,42.95z"/>
				<path fill="#FFFFFF" stroke="#1D2132" stroke-width="0.1" stroke-linecap="square" stroke-miterlimit="10" d="M12.43,46.29
					c-0.08-0.04-0.16-0.08-0.24-0.13c-1.31-0.71-2.46-1.74-3.35-3.06c-0.21-0.31-0.4-0.63-0.57-0.96c-0.03-0.06-0.07-0.13-0.1-0.2
					l0.25-0.12c0.01,0.02,0.03,0.05,0.04,0.07c0.18,0.36,0.38,0.71,0.61,1.05c0.9,1.34,2.09,2.37,3.43,3.06
					c0.02,0.01,0.04,0.02,0.06,0.03L12.43,46.29z"/>
			</g>
		</g>
		<g>
			<path fill="#FFFFFF" stroke="#1D2132" stroke-width="0.1" stroke-linecap="square" stroke-miterlimit="10" d="M27.35,31.35
				c0.78-0.92,1.96-2.05,2.22-2.64c0.23-0.52-0.87-1.06-1.84-2.03c-0.97-0.97-1.5-2.07-2.03-1.84c-0.59,0.26-1.73,1.44-2.65,2.22
				c-0.92,0.78-0.97,1.25-0.59,1.87c0.37,0.6,1.01,1.2,1.41,1.61c0.4,0.4,1,1.05,1.6,1.42C26.1,32.32,26.57,32.27,27.35,31.35z"/>
			<path fill="#FFFFFF" stroke="#1D2132" stroke-width="0.1" stroke-linecap="square" stroke-miterlimit="10" d="M26.96,31.43
				c0.63-0.76,1.61-1.69,1.8-2.19c0.17-0.44-0.29-1.5-1.19-2.39c-0.9-0.9-1.95-1.37-2.39-1.19c-0.5,0.2-1.43,1.17-2.2,1.8
				c-0.76,0.63-0.78,1.04-0.42,1.6c0.35,0.55,0.95,1.11,1.32,1.48c0.37,0.37,0.93,0.97,1.48,1.32
				C25.91,32.21,26.32,32.2,26.96,31.43z"/>
			<g>
				<path fill="#FFFFFF" stroke="#1D2132" stroke-width="0.1" stroke-linecap="square" stroke-miterlimit="10" d="M27.21,24.81
					c-0.34-0.23-0.69-0.43-1.05-0.61c-0.85,1.09,0.71,1.25,1.76,2.3c1.09,1.09,1.31,2.77,2.35,1.73
					C29.57,26.89,28.54,25.71,27.21,24.81z"/>
				<path fill="#FFFFFF" stroke="#1D2132" stroke-width="0.1" stroke-linecap="square" stroke-miterlimit="10" d="M30.55,28.17
					c-0.04-0.08-0.08-0.16-0.13-0.24c-0.71-1.31-1.74-2.46-3.06-3.35c-0.31-0.21-0.63-0.4-0.96-0.57c-0.06-0.03-0.13-0.07-0.2-0.1
					l-0.12,0.25c0.02,0.01,0.05,0.03,0.07,0.04c0.36,0.18,0.71,0.38,1.05,0.61c1.34,0.9,2.37,2.09,3.06,3.43
					c0.01,0.02,0.02,0.04,0.03,0.06L30.55,28.17z"/>
			</g>
		</g>
		
			<circle fill="#FFFFFF" stroke="#1D2132" stroke-width="0.1" stroke-linecap="square" stroke-miterlimit="10" cx="19.33" cy="35.08" r="6.11"/>
	</g>
	<g>
		
			<rect x="65.92" y="42.73" transform="matrix(4.487883e-11 -1 1 4.487883e-11 18.6988 122.2988)" fill="#FFFFFF" stroke="#1D2132" stroke-width="0.1" stroke-linecap="square" stroke-miterlimit="10" width="9.16" height="18.14"/>
		<g>
			<path fill="#FFFFFF" stroke="#1D2132" stroke-width="0.1" stroke-linecap="square" stroke-miterlimit="10" d="M70.14,51.84v-0.41
				c0.02-0.02,0.09-0.07,0.14-0.11c0.18-0.12,0.46-0.31,0.53-0.71c0.05-0.3-0.06-0.57-0.29-0.74c-0.24-0.17-0.58-0.2-0.86-0.05
				c-0.44,0.22-0.5,0.67-0.47,0.88c0.01,0.07,0.08,0.12,0.15,0.11c0.07-0.01,0.12-0.07,0.11-0.14c0,0-0.06-0.42,0.33-0.62
				c0.19-0.1,0.42-0.08,0.59,0.03c0.15,0.11,0.22,0.29,0.19,0.49c-0.05,0.3-0.26,0.44-0.42,0.55c-0.13,0.09-0.25,0.17-0.25,0.31
				v0.42c0,0.07,0.06,0.13,0.13,0.13S70.14,51.91,70.14,51.84z M70.14,51.42L70.14,51.42L70.14,51.42z"/>
			<path fill="#FFFFFF" stroke="#1D2132" stroke-width="0.1" stroke-linecap="square" stroke-miterlimit="10" d="M75.15,54.52
				c0.08-0.31-0.06-0.62-0.35-0.77c-0.01,0-0.01-0.01-0.02-0.01l-4-1.86c-0.03-0.01-0.07-0.02-0.1-0.02h-1.35
				c-0.04,0-0.07,0.01-0.1,0.02l-4,1.86c-0.01,0-0.01,0.01-0.02,0.01c-0.29,0.15-0.43,0.46-0.35,0.77c0.08,0.31,0.44,0.23,0.77,0.23
				h8.76C74.71,54.75,75.07,54.83,75.15,54.52z M69.38,53.01h1.24l4.23,1.19c0.11,0.06,0.09,0.17,0.08,0.2
				c-0.01,0.03-0.04,0.14-0.18,0.14h-9.52c-0.13,0-0.17-0.1-0.18-0.14c-0.01-0.03-0.02-0.14,0.08-0.2L69.38,53.01z"/>
		</g>
	</g>
	<g>
		
			<rect x="71.61" y="57.49" fill="#FFFFFF" stroke="#1D2132" stroke-width="0.1" stroke-linecap="square" stroke-miterlimit="10" width="7.97" height="40.19"/>
		<g>
			<path fill="#FFFFFF" stroke="#1D2132" stroke-width="0.1" stroke-linecap="square" stroke-miterlimit="10" d="M76,77.4h0.37
				c0.02,0.01,0.06,0.08,0.09,0.12c0.11,0.16,0.28,0.41,0.64,0.47c0.26,0.04,0.51-0.05,0.66-0.25c0.16-0.21,0.17-0.51,0.05-0.75
				c-0.2-0.38-0.6-0.43-0.78-0.41c-0.06,0.01-0.1,0.07-0.1,0.13c0.01,0.06,0.07,0.1,0.13,0.1c0,0,0.38-0.05,0.55,0.29
				c0.09,0.17,0.07,0.37-0.03,0.51c-0.1,0.13-0.26,0.19-0.44,0.16c-0.26-0.04-0.39-0.23-0.49-0.37c-0.08-0.11-0.15-0.22-0.28-0.22
				H76c-0.06,0-0.11,0.05-0.11,0.11C75.89,77.35,75.94,77.4,76,77.4z M76.38,77.4L76.38,77.4L76.38,77.4z"/>
			<path fill="#FFFFFF" stroke="#1D2132" stroke-width="0.1" stroke-linecap="square" stroke-miterlimit="10" d="M73.61,81.79
				c0.28,0.07,0.56-0.05,0.69-0.31c0-0.01,0.01-0.01,0.01-0.02l1.66-3.5c0.01-0.03,0.02-0.06,0.02-0.09l0-1.18
				c0-0.03-0.01-0.06-0.02-0.09l-1.66-3.5c0-0.01,0-0.01-0.01-0.02c-0.13-0.25-0.41-0.38-0.69-0.31c-0.28,0.07-0.21,0.39-0.21,0.68
				l0,7.66C73.41,81.4,73.33,81.72,73.61,81.79z M74.96,76.74v1.09l-1.06,3.7c-0.06,0.1-0.15,0.08-0.18,0.07
				c-0.03-0.01-0.12-0.04-0.12-0.16l0-8.33c0-0.12,0.09-0.15,0.12-0.16c0.03-0.01,0.12-0.02,0.18,0.07L74.96,76.74z"/>
		</g>
	</g>
	<g>
		<g>
			
				<rect x="-0.94" y="25.11" transform="matrix(-4.498376e-11 1 -1 -4.498376e-11 30.4976 20.6116)" fill="#FFFFFF" stroke="#1D2132" stroke-width="0.1" stroke-linecap="square" stroke-miterlimit="10" width="11.77" height="0.88"/>
			
				<line fill="none" stroke="#1D2132" stroke-width="0.1" stroke-linecap="square" stroke-miterlimit="10" x1="4.68" y1="20.6" x2="5.21" y2="20.6"/>
			
				<line fill="none" stroke="#1D2132" stroke-width="0.1" stroke-linecap="square" stroke-miterlimit="10" x1="4.68" y1="20.92" x2="5.21" y2="20.92"/>
			
				<line fill="none" stroke="#1D2132" stroke-width="0.1" stroke-linecap="square" stroke-miterlimit="10" x1="4.68" y1="19.96" x2="5.21" y2="19.96"/>
			
				<line fill="none" stroke="#1D2132" stroke-width="0.1" stroke-linecap="square" stroke-miterlimit="10" x1="4.68" y1="20.28" x2="5.21" y2="20.28"/>
			
				<line fill="none" stroke="#1D2132" stroke-width="0.1" stroke-linecap="square" stroke-miterlimit="10" x1="4.68" y1="21.23" x2="5.21" y2="21.23"/>
			
				<line fill="none" stroke="#1D2132" stroke-width="0.1" stroke-linecap="square" stroke-miterlimit="10" x1="4.68" y1="21.55" x2="5.21" y2="21.55"/>
			
				<line fill="none" stroke="#1D2132" stroke-width="0.1" stroke-linecap="square" stroke-miterlimit="10" x1="4.68" y1="21.87" x2="5.21" y2="21.87"/>
			
				<line fill="none" stroke="#1D2132" stroke-width="0.1" stroke-linecap="square" stroke-miterlimit="10" x1="4.68" y1="22.19" x2="5.21" y2="22.19"/>
			
				<line fill="none" stroke="#1D2132" stroke-width="0.1" stroke-linecap="square" stroke-miterlimit="10" x1="4.68" y1="22.5" x2="5.21" y2="22.5"/>
			
				<line fill="none" stroke="#1D2132" stroke-width="0.1" stroke-linecap="square" stroke-miterlimit="10" x1="4.68" y1="22.82" x2="5.21" y2="22.82"/>
			
				<line fill="none" stroke="#1D2132" stroke-width="0.1" stroke-linecap="square" stroke-miterlimit="10" x1="4.68" y1="23.77" x2="5.21" y2="23.77"/>
			
				<line fill="none" stroke="#1D2132" stroke-width="0.1" stroke-linecap="square" stroke-miterlimit="10" x1="4.68" y1="24.09" x2="5.21" y2="24.09"/>
			
				<line fill="none" stroke="#1D2132" stroke-width="0.1" stroke-linecap="square" stroke-miterlimit="10" x1="4.68" y1="23.14" x2="5.21" y2="23.14"/>
			
				<line fill="none" stroke="#1D2132" stroke-width="0.1" stroke-linecap="square" stroke-miterlimit="10" x1="4.68" y1="23.46" x2="5.21" y2="23.46"/>
			
				<line fill="none" stroke="#1D2132" stroke-width="0.1" stroke-linecap="square" stroke-miterlimit="10" x1="4.68" y1="24.41" x2="5.21" y2="24.41"/>
			
				<line fill="none" stroke="#1D2132" stroke-width="0.1" stroke-linecap="square" stroke-miterlimit="10" x1="4.68" y1="24.73" x2="5.21" y2="24.73"/>
			
				<line fill="none" stroke="#1D2132" stroke-width="0.1" stroke-linecap="square" stroke-miterlimit="10" x1="4.68" y1="25.04" x2="5.21" y2="25.04"/>
			
				<line fill="none" stroke="#1D2132" stroke-width="0.1" stroke-linecap="square" stroke-miterlimit="10" x1="4.68" y1="25.36" x2="5.21" y2="25.36"/>
			
				<line fill="none" stroke="#1D2132" stroke-width="0.1" stroke-linecap="square" stroke-miterlimit="10" x1="4.68" y1="25.68" x2="5.21" y2="25.68"/>
			
				<line fill="none" stroke="#1D2132" stroke-width="0.1" stroke-linecap="square" stroke-miterlimit="10" x1="4.68" y1="26" x2="5.21" y2="26"/>
			
				<line fill="none" stroke="#1D2132" stroke-width="0.1" stroke-linecap="square" stroke-miterlimit="10" x1="4.68" y1="26.95" x2="5.21" y2="26.95"/>
			
				<line fill="none" stroke="#1D2132" stroke-width="0.1" stroke-linecap="square" stroke-miterlimit="10" x1="4.68" y1="27.27" x2="5.21" y2="27.27"/>
			
				<line fill="none" stroke="#1D2132" stroke-width="0.1" stroke-linecap="square" stroke-miterlimit="10" x1="4.68" y1="26.31" x2="5.21" y2="26.31"/>
			
				<line fill="none" stroke="#1D2132" stroke-width="0.1" stroke-linecap="square" stroke-miterlimit="10" x1="4.68" y1="26.63" x2="5.21" y2="26.63"/>
			
				<line fill="none" stroke="#1D2132" stroke-width="0.1" stroke-linecap="square" stroke-miterlimit="10" x1="4.68" y1="27.58" x2="5.21" y2="27.58"/>
			
				<line fill="none" stroke="#1D2132" stroke-width="0.1" stroke-linecap="square" stroke-miterlimit="10" x1="4.68" y1="27.9" x2="5.21" y2="27.9"/>
			
				<line fill="none" stroke="#1D2132" stroke-width="0.1" stroke-linecap="square" stroke-miterlimit="10" x1="4.68" y1="28.22" x2="5.21" y2="28.22"/>
			
				<line fill="none" stroke="#1D2132" stroke-width="0.1" stroke-linecap="square" stroke-miterlimit="10" x1="4.68" y1="28.54" x2="5.21" y2="28.54"/>
			
				<line fill="none" stroke="#1D2132" stroke-width="0.1" stroke-linecap="square" stroke-miterlimit="10" x1="4.68" y1="28.86" x2="5.21" y2="28.86"/>
			
				<line fill="none" stroke="#1D2132" stroke-width="0.1" stroke-linecap="square" stroke-miterlimit="10" x1="4.68" y1="29.17" x2="5.21" y2="29.17"/>
			
				<line fill="none" stroke="#1D2132" stroke-width="0.1" stroke-linecap="square" stroke-miterlimit="10" x1="4.68" y1="30.13" x2="5.21" y2="30.13"/>
			
				<line fill="none" stroke="#1D2132" stroke-width="0.1" stroke-linecap="square" stroke-miterlimit="10" x1="4.68" y1="30.44" x2="5.21" y2="30.44"/>
			
				<line fill="none" stroke="#1D2132" stroke-width="0.1" stroke-linecap="square" stroke-miterlimit="10" x1="4.68" y1="29.49" x2="5.21" y2="29.49"/>
			
				<line fill="none" stroke="#1D2132" stroke-width="0.1" stroke-linecap="square" stroke-miterlimit="10" x1="4.68" y1="29.81" x2="5.21" y2="29.81"/>
			
				<line fill="none" stroke="#1D2132" stroke-width="0.1" stroke-linecap="square" stroke-miterlimit="10" x1="4.68" y1="30.76" x2="5.21" y2="30.76"/>
			
				<line fill="none" stroke="#1D2132" stroke-width="0.1" stroke-linecap="square" stroke-miterlimit="10" x1="4.68" y1="31.08" x2="5.21" y2="31.08"/>
		</g>
		<path fill="none" stroke="#1D2132" stroke-width="0.1" stroke-linecap="square" stroke-miterlimit="10" d="M5.55,9.05
			c0,0.46,0.82,0,0.82,0.46c0,0.46-0.82,0-0.82,0.46s0.82,0,0.82,0.46c0,0.46-0.82,0-0.82,0.46c0,0.46,0.82,0,0.82,0.46
			s-0.82,0-0.82,0.46c0,0.46,0.82,0,0.82,0.46c0,0.46-0.82,0-0.82,0.46c0,0.46,0.82,0,0.82,0.46c0,0.46-0.82,0-0.82,0.46
			s0.82,0,0.82,0.46c0,0.46-0.82,0-0.82,0.46c0,0.46,0.82,0,0.82,0.46s-0.82,0-0.82,0.46c0,0.46,0.82,0,0.82,0.46s-0.82,0-0.82,0.46
			c0,0.46,0.82,0,0.82,0.46c0,0.46-0.82,0-0.82,0.46s0.82,0,0.82,0.46c0,0.46-0.82,0-0.82,0.46c0,0.46,0.82,0,0.82,0.46
			s-0.82,0-0.82,0.46c0,0.46,0.82,0,0.82,0.46c0,0.46-0.82,0-0.82,0.46s0.82,0,0.82,0.46c0,0.46-0.82,0-0.82,0.46
			c0,0.46,0.82,0,0.82,0.46s-0.82,0-0.82,0.46c0,0.46,0.82,0,0.82,0.46c0,0.46-0.82,0-0.82,0.46s0.82,0,0.82,0.46s-0.82,0-0.82,0.46
			c0,0.46,0.82,0,0.82,0.46"/>
		<path fill="none" stroke="#1D2132" stroke-width="0.1" stroke-linecap="square" stroke-miterlimit="10" d="M5.55,42.15
			c0-0.46,0.82,0,0.82-0.46c0-0.46-0.82,0-0.82-0.46s0.82,0,0.82-0.46s-0.82,0-0.82-0.46s0.82,0,0.82-0.46s-0.82,0-0.82-0.46
			c0-0.46,0.82,0,0.82-0.46c0-0.46-0.82,0-0.82-0.46s0.82,0,0.82-0.46s-0.82,0-0.82-0.46s0.82,0,0.82-0.46s-0.82,0-0.82-0.46
			s0.82,0,0.82-0.46c0-0.46-0.82,0-0.82-0.46c0-0.46,0.82,0,0.82-0.46s-0.82,0-0.82-0.46s0.82,0,0.82-0.46s-0.82,0-0.82-0.46
			s0.82,0,0.82-0.46c0-0.46-0.82,0-0.82-0.46c0-0.46,0.82,0,0.82-0.46s-0.82,0-0.82-0.46s0.82,0,0.82-0.46s-0.82,0-0.82-0.46
			c0-0.46,0.82,0,0.82-0.46c0-0.46-0.82,0-0.82-0.46s0.82,0,0.82-0.46c0-0.46-0.82,0-0.82-0.46c0-0.46,0.82,0,0.82-0.46
			s-0.82,0-0.82-0.46c0-0.46,0.82,0,0.82-0.46c0-0.46-0.82,0-0.82-0.46s0.82,0,0.82-0.46"/>
	</g>
	<g>
		<g>
			
				<rect x="-0.94" y="70.71" transform="matrix(-4.482921e-11 1 -1 -4.482921e-11 76.0976 66.2116)" fill="#FFFFFF" stroke="#1D2132" stroke-width="0.1" stroke-linecap="square" stroke-miterlimit="10" width="11.77" height="0.88"/>
			
				<line fill="none" stroke="#1D2132" stroke-width="0.1" stroke-linecap="square" stroke-miterlimit="10" x1="4.68" y1="66.2" x2="5.21" y2="66.2"/>
			
				<line fill="none" stroke="#1D2132" stroke-width="0.1" stroke-linecap="square" stroke-miterlimit="10" x1="4.68" y1="66.52" x2="5.21" y2="66.52"/>
			
				<line fill="none" stroke="#1D2132" stroke-width="0.1" stroke-linecap="square" stroke-miterlimit="10" x1="4.68" y1="65.56" x2="5.21" y2="65.56"/>
			
				<line fill="none" stroke="#1D2132" stroke-width="0.1" stroke-linecap="square" stroke-miterlimit="10" x1="4.68" y1="65.88" x2="5.21" y2="65.88"/>
			
				<line fill="none" stroke="#1D2132" stroke-width="0.1" stroke-linecap="square" stroke-miterlimit="10" x1="4.68" y1="66.83" x2="5.21" y2="66.83"/>
			
				<line fill="none" stroke="#1D2132" stroke-width="0.1" stroke-linecap="square" stroke-miterlimit="10" x1="4.68" y1="67.15" x2="5.21" y2="67.15"/>
			
				<line fill="none" stroke="#1D2132" stroke-width="0.1" stroke-linecap="square" stroke-miterlimit="10" x1="4.68" y1="67.47" x2="5.21" y2="67.47"/>
			
				<line fill="none" stroke="#1D2132" stroke-width="0.1" stroke-linecap="square" stroke-miterlimit="10" x1="4.68" y1="67.79" x2="5.21" y2="67.79"/>
			
				<line fill="none" stroke="#1D2132" stroke-width="0.1" stroke-linecap="square" stroke-miterlimit="10" x1="4.68" y1="68.1" x2="5.21" y2="68.1"/>
			
				<line fill="none" stroke="#1D2132" stroke-width="0.1" stroke-linecap="square" stroke-miterlimit="10" x1="4.68" y1="68.42" x2="5.21" y2="68.42"/>
			
				<line fill="none" stroke="#1D2132" stroke-width="0.1" stroke-linecap="square" stroke-miterlimit="10" x1="4.68" y1="69.37" x2="5.21" y2="69.37"/>
			
				<line fill="none" stroke="#1D2132" stroke-width="0.1" stroke-linecap="square" stroke-miterlimit="10" x1="4.68" y1="69.69" x2="5.21" y2="69.69"/>
			
				<line fill="none" stroke="#1D2132" stroke-width="0.1" stroke-linecap="square" stroke-miterlimit="10" x1="4.68" y1="68.74" x2="5.21" y2="68.74"/>
			
				<line fill="none" stroke="#1D2132" stroke-width="0.1" stroke-linecap="square" stroke-miterlimit="10" x1="4.68" y1="69.06" x2="5.21" y2="69.06"/>
			
				<line fill="none" stroke="#1D2132" stroke-width="0.1" stroke-linecap="square" stroke-miterlimit="10" x1="4.68" y1="70.01" x2="5.21" y2="70.01"/>
			
				<line fill="none" stroke="#1D2132" stroke-width="0.1" stroke-linecap="square" stroke-miterlimit="10" x1="4.68" y1="70.33" x2="5.21" y2="70.33"/>
			
				<line fill="none" stroke="#1D2132" stroke-width="0.1" stroke-linecap="square" stroke-miterlimit="10" x1="4.68" y1="70.64" x2="5.21" y2="70.64"/>
			
				<line fill="none" stroke="#1D2132" stroke-width="0.1" stroke-linecap="square" stroke-miterlimit="10" x1="4.68" y1="70.96" x2="5.21" y2="70.96"/>
			
				<line fill="none" stroke="#1D2132" stroke-width="0.1" stroke-linecap="square" stroke-miterlimit="10" x1="4.68" y1="71.28" x2="5.21" y2="71.28"/>
			
				<line fill="none" stroke="#1D2132" stroke-width="0.1" stroke-linecap="square" stroke-miterlimit="10" x1="4.68" y1="71.6" x2="5.21" y2="71.6"/>
			
				<line fill="none" stroke="#1D2132" stroke-width="0.1" stroke-linecap="square" stroke-miterlimit="10" x1="4.68" y1="72.55" x2="5.21" y2="72.55"/>
			
				<line fill="none" stroke="#1D2132" stroke-width="0.1" stroke-linecap="square" stroke-miterlimit="10" x1="4.68" y1="72.87" x2="5.21" y2="72.87"/>
			
				<line fill="none" stroke="#1D2132" stroke-width="0.1" stroke-linecap="square" stroke-miterlimit="10" x1="4.68" y1="71.91" x2="5.21" y2="71.91"/>
			
				<line fill="none" stroke="#1D2132" stroke-width="0.1" stroke-linecap="square" stroke-miterlimit="10" x1="4.68" y1="72.23" x2="5.21" y2="72.23"/>
			
				<line fill="none" stroke="#1D2132" stroke-width="0.1" stroke-linecap="square" stroke-miterlimit="10" x1="4.68" y1="73.18" x2="5.21" y2="73.18"/>
			
				<line fill="none" stroke="#1D2132" stroke-width="0.1" stroke-linecap="square" stroke-miterlimit="10" x1="4.68" y1="73.5" x2="5.21" y2="73.5"/>
			
				<line fill="none" stroke="#1D2132" stroke-width="0.1" stroke-linecap="square" stroke-miterlimit="10" x1="4.68" y1="73.82" x2="5.21" y2="73.82"/>
			
				<line fill="none" stroke="#1D2132" stroke-width="0.1" stroke-linecap="square" stroke-miterlimit="10" x1="4.68" y1="74.14" x2="5.21" y2="74.14"/>
			
				<line fill="none" stroke="#1D2132" stroke-width="0.1" stroke-linecap="square" stroke-miterlimit="10" x1="4.68" y1="74.46" x2="5.21" y2="74.46"/>
			
				<line fill="none" stroke="#1D2132" stroke-width="0.1" stroke-linecap="square" stroke-miterlimit="10" x1="4.68" y1="74.77" x2="5.21" y2="74.77"/>
			
				<line fill="none" stroke="#1D2132" stroke-width="0.1" stroke-linecap="square" stroke-miterlimit="10" x1="4.68" y1="75.73" x2="5.21" y2="75.73"/>
			
				<line fill="none" stroke="#1D2132" stroke-width="0.1" stroke-linecap="square" stroke-miterlimit="10" x1="4.68" y1="76.04" x2="5.21" y2="76.04"/>
			
				<line fill="none" stroke="#1D2132" stroke-width="0.1" stroke-linecap="square" stroke-miterlimit="10" x1="4.68" y1="75.09" x2="5.21" y2="75.09"/>
			
				<line fill="none" stroke="#1D2132" stroke-width="0.1" stroke-linecap="square" stroke-miterlimit="10" x1="4.68" y1="75.41" x2="5.21" y2="75.41"/>
			
				<line fill="none" stroke="#1D2132" stroke-width="0.1" stroke-linecap="square" stroke-miterlimit="10" x1="4.68" y1="76.36" x2="5.21" y2="76.36"/>
			
				<line fill="none" stroke="#1D2132" stroke-width="0.1" stroke-linecap="square" stroke-miterlimit="10" x1="4.68" y1="76.68" x2="5.21" y2="76.68"/>
		</g>
		<path fill="none" stroke="#1D2132" stroke-width="0.1" stroke-linecap="square" stroke-miterlimit="10" d="M5.55,54.65
			c0,0.46,0.82,0,0.82,0.46s-0.82,0-0.82,0.46s0.82,0,0.82,0.46s-0.82,0-0.82,0.46s0.82,0,0.82,0.46c0,0.46-0.82,0-0.82,0.46
			c0,0.46,0.82,0,0.82,0.46s-0.82,0-0.82,0.46s0.82,0,0.82,0.46s-0.82,0-0.82,0.46s0.82,0,0.82,0.46s-0.82,0-0.82,0.46
			c0,0.46,0.82,0,0.82,0.46c0,0.46-0.82,0-0.82,0.46s0.82,0,0.82,0.46s-0.82,0-0.82,0.46s0.82,0,0.82,0.46s-0.82,0-0.82,0.46
			c0,0.46,0.82,0,0.82,0.46c0,0.46-0.82,0-0.82,0.46s0.82,0,0.82,0.46s-0.82,0-0.82,0.46s0.82,0,0.82,0.46s-0.82,0-0.82,0.46
			s0.82,0,0.82,0.46s-0.82,0-0.82,0.46s0.82,0,0.82,0.46s-0.82,0-0.82,0.46c0,0.46,0.82,0,0.82,0.46c0,0.46-0.82,0-0.82,0.46
			s0.82,0,0.82,0.46s-0.82,0-0.82,0.46s0.82,0,0.82,0.46"/>
		<path fill="none" stroke="#1D2132" stroke-width="0.1" stroke-linecap="square" stroke-miterlimit="10" d="M5.55,87.75
			c0-0.46,0.82,0,0.82-0.46s-0.82,0-0.82-0.46s0.82,0,0.82-0.46s-0.82,0-0.82-0.46s0.82,0,0.82-0.46s-0.82,0-0.82-0.46
			s0.82,0,0.82-0.46s-0.82,0-0.82-0.46s0.82,0,0.82-0.46s-0.82,0-0.82-0.46s0.82,0,0.82-0.46s-0.82,0-0.82-0.46
			c0-0.46,0.82,0,0.82-0.46c0-0.46-0.82,0-0.82-0.46s0.82,0,0.82-0.46s-0.82,0-0.82-0.46s0.82,0,0.82-0.46s-0.82,0-0.82-0.46
			s0.82,0,0.82-0.46s-0.82,0-0.82-0.46s0.82,0,0.82-0.46s-0.82,0-0.82-0.46s0.82,0,0.82-0.46s-0.82,0-0.82-0.46s0.82,0,0.82-0.46
			c0-0.46-0.82,0-0.82-0.46c0-0.46,0.82,0,0.82-0.46s-0.82,0-0.82-0.46s0.82,0,0.82-0.46s-0.82,0-0.82-0.46s0.82,0,0.82-0.46
			s-0.82,0-0.82-0.46s0.82,0,0.82-0.46"/>
	</g>
</g>
<g id="Doors">
	<g>
		<polygon fill="none" stroke="#1D2132" stroke-width="0.1" stroke-miterlimit="10" points="81.35,29.16 80.17,29.16 80.17,29.76 
			81.35,29.76 		"/>
		<polygon fill="none" stroke="#1D2132" stroke-width="0.1" stroke-miterlimit="10" points="81.35,44.83 80.17,44.83 80.17,44.24 
			81.35,44.24 		"/>
		<polyline fill="none" stroke="#1D2132" stroke-width="0.1" stroke-miterlimit="10" points="80.25,44.24 79.99,44.22 79.72,44.2 
			79.46,44.19 79.2,44.17 78.93,44.15 78.67,44.11 78.41,44.1 78.15,44.04 77.88,44.01 77.63,43.94 77.37,43.9 77.11,43.85 
			76.85,43.78 76.58,43.72 76.35,43.65 76.08,43.58 75.83,43.49 75.58,43.4 75.33,43.33 75.1,43.22 74.85,43.13 74.6,43.02 
			74.37,42.92 74.11,42.81 73.88,42.69 73.65,42.58 73.41,42.47 73.19,42.33 72.95,42.2 72.73,42.08 72.5,41.94 72.28,41.79 
			72.05,41.65 71.84,41.49 71.62,41.35 71.41,41.19 71.21,41.02 70.99,40.85 70.79,40.69 70.59,40.51 70.39,40.35 70.2,40.17 
			70,39.99 		"/>
		<polygon fill="none" stroke="#1D2132" stroke-width="0.1" stroke-miterlimit="10" points="80.6,30.27 70.39,40.35 70,39.99 
			80.19,29.85 		"/>
	</g>
	<g>
		<polygon fill="none" stroke="#1D2132" stroke-width="0.1" stroke-miterlimit="10" points="67.15,26.76 67.15,27.84 66.72,27.84 
			66.72,26.76 		"/>
		<polygon fill="none" stroke="#1D2132" stroke-width="0.1" stroke-miterlimit="10" points="55.59,26.76 55.59,27.84 56.04,27.84 
			56.04,26.76 		"/>
		<polyline fill="none" stroke="#1D2132" stroke-width="0.1" stroke-miterlimit="10" points="56.04,27.81 56.05,28.01 56.05,28.2 
			56.05,28.4 56.07,28.59 56.09,28.8 56.11,28.98 56.14,29.17 56.17,29.37 56.19,29.55 56.24,29.74 56.27,29.94 56.31,30.12 
			56.37,30.33 56.41,30.52 56.47,30.69 56.51,30.88 56.57,31.06 56.64,31.26 56.71,31.44 56.77,31.62 56.84,31.8 56.91,31.98 
			56.99,32.16 57.07,32.34 57.16,32.52 57.24,32.69 57.33,32.87 57.43,33.02 57.52,33.2 57.63,33.37 57.72,33.53 57.83,33.69 
			57.93,33.87 58.05,34.02 58.16,34.19 58.27,34.34 58.39,34.48 58.51,34.65 58.64,34.8 58.77,34.94 58.9,35.09 59.04,35.23 
			59.16,35.37 		"/>
		<polygon fill="none" stroke="#1D2132" stroke-width="0.1" stroke-miterlimit="10" points="66.34,27.55 58.9,35.09 59.16,35.37 
			66.64,27.85 		"/>
	</g>
	<g>
		<polygon fill="none" stroke="#1D2132" stroke-width="0.1" stroke-miterlimit="10" points="46.77,41.25 45.68,41.25 45.68,40.79 
			46.77,40.79 		"/>
		<polygon fill="none" stroke="#1D2132" stroke-width="0.1" stroke-miterlimit="10" points="46.77,29.2 45.68,29.2 45.68,29.65 
			46.77,29.65 		"/>
		<polyline fill="none" stroke="#1D2132" stroke-width="0.1" stroke-miterlimit="10" points="45.66,29.65 45.47,29.66 45.25,29.67 
			45.06,29.68 44.86,29.7 44.65,29.72 44.45,29.75 44.24,29.77 44.05,29.8 43.85,29.83 43.65,29.88 43.45,29.91 43.25,29.95 
			43.05,30 42.85,30.05 42.66,30.11 42.46,30.17 42.27,30.23 42.08,30.29 41.89,30.35 41.7,30.43 41.51,30.5 41.32,30.58 
			41.14,30.66 40.95,30.75 40.76,30.84 40.58,30.92 40.41,31.02 40.23,31.12 40.05,31.21 39.87,31.32 39.71,31.43 39.53,31.53 
			39.36,31.64 39.19,31.76 39.03,31.88 38.86,32 38.71,32.13 38.54,32.25 38.39,32.38 38.23,32.51 38.08,32.65 37.93,32.78 
			37.78,32.92 		"/>
		<polygon fill="none" stroke="#1D2132" stroke-width="0.1" stroke-miterlimit="10" points="45.93,40.4 38.08,32.65 37.78,32.92 
			45.62,40.72 		"/>
	</g>
</g>
<g id="Windows">
	<polyline fill="none" stroke="#1D2132" stroke-width="0.1" stroke-miterlimit="10" points="3.3,59.4 3.3,82.5 2.34,82.5 2.34,59.4 
		3.3,59.4 	"/>
	<polyline fill="none" stroke="#1D2132" stroke-width="0.1" stroke-miterlimit="10" points="4.51,83.86 4.51,58.04 2.34,58.04 
		2.34,83.86 4.51,83.86 	"/>
	<polyline fill="none" stroke="#1D2132" stroke-width="0.1" stroke-miterlimit="10" points="3.3,84.1 3.3,82.5 2.34,82.5 2.34,84.1 
		3.3,84.1 2.34,84.1 2.34,84.49 3.3,84.49 3.3,84.1 	"/>
	<polyline fill="none" stroke="#1D2132" stroke-width="0.1" stroke-miterlimit="10" points="3.3,59.4 3.3,57.49 2.34,57.49 
		2.34,59.4 3.3,59.4 	"/>
	<polyline fill="none" stroke="#1D2132" stroke-width="0.1" stroke-miterlimit="10" points="2.34,58.72 2.34,83.18 0.17,83.18 
		0.17,58.72 2.34,58.72 	"/>
	<polyline fill="none" stroke="#1D2132" stroke-width="0.1" stroke-miterlimit="10" points="3.3,14.16 3.3,37.26 2.34,37.26 
		2.34,14.16 3.3,14.16 	"/>
	<polyline fill="none" stroke="#1D2132" stroke-width="0.1" stroke-miterlimit="10" points="4.51,38.62 4.51,12.8 2.34,12.8 
		2.34,38.62 4.51,38.62 	"/>
	<polyline fill="none" stroke="#1D2132" stroke-width="0.1" stroke-miterlimit="10" points="3.3,39.02 3.3,37.26 2.34,37.26 
		2.34,39.02 3.3,39.02 2.34,39.02 2.34,39.49 3.3,39.49 3.3,39.02 	"/>
	<polyline fill="none" stroke="#1D2132" stroke-width="0.1" stroke-miterlimit="10" points="3.3,14.16 3.3,12.48 2.34,12.48 
		2.34,14.16 3.3,14.16 	"/>
	<polyline fill="none" stroke="#1D2132" stroke-width="0.1" stroke-miterlimit="10" points="2.34,13.48 2.34,37.94 0.17,37.94 
		0.17,13.48 2.34,13.48 	"/>
</g>
<g id="Text">
	
		<text id="TXT--" transform="matrix(1 0 0 1 47.5602 69.7281)" opacity="0.7" fill="#1D2132" enable-background="new    " font-family="'Cannonade-Medium'" font-size="3px">18,37</text>
	
		<text id="TXT---" transform="matrix(1 0 0 1 25.1472 18.2552)" opacity="0.7" fill="#1D2132" enable-background="new    " font-family="'Cannonade-Medium'" font-size="3px">10,08</text>
	
		<text id="TXT--" transform="matrix(1 0 0 1 56.3002 40.655)" opacity="0.7" fill="#1D2132" enable-background="new    " font-family="'Cannonade-Medium'" font-size="3px">4,43</text>
	
		<text id="TXT--" transform="matrix(1 0 0 1 59.04 20.7583)" opacity="0.7" fill="#1D2132" enable-background="new    " font-family="'Cannonade-Medium'" font-size="3px">4,23</text>
</g>
<g id="Walls">
	<polyline fill="#1D2132" stroke="#1D2132" stroke-width="0.1" stroke-miterlimit="10" points="2.34,99.86 81.82,99.86 81.82,97.68 
		2.34,97.68 2.34,99.86 	"/>
	<polyline fill="#1D2132" stroke="#1D2132" stroke-width="0.1" stroke-miterlimit="10" points="2.34,2.02 81.82,2.02 81.82,-0.14 
		2.34,-0.14 2.34,2.02 	"/>
	<line fill="none" stroke="#1D2132" stroke-width="0.1" stroke-miterlimit="10" x1="2.34" y1="99.86" x2="2.34" y2="99.86"/>
	<polyline fill="#1D2132" stroke="#1D2132" stroke-width="0.1" stroke-miterlimit="10" points="2.34,97.68 4.51,97.68 4.51,83.86 
		2.34,83.86 2.34,97.68 	"/>
	<polyline fill="#1D2132" stroke="#1D2132" stroke-width="0.1" stroke-miterlimit="10" points="2.34,58.04 4.51,58.04 4.51,38.62 
		2.34,38.62 2.34,58.04 	"/>
	<polyline fill="#1D2132" stroke="#1D2132" stroke-width="0.1" stroke-miterlimit="10" points="2.34,12.8 4.51,12.8 4.51,2.02 
		2.34,2.02 2.34,12.8 	"/>
	<polyline fill="#1D2132" stroke="#1D2132" stroke-width="0.1" stroke-miterlimit="10" points="2.34,-0.14 4.51,-0.14 4.51,-0.14 	
		"/>
	<line fill="none" stroke="#1D2132" stroke-width="0.1" stroke-miterlimit="10" x1="2.34" y1="-0.14" x2="2.34" y2="-0.14"/>
	<rect x="0.3" y="-0.14" fill="#1D2132" stroke="#1D2132" stroke-width="0.1" stroke-miterlimit="10" width="2.04" height="13.62"/>
	<polyline fill="#1D2132" stroke="#1D2132" stroke-width="0.1" stroke-miterlimit="10" points="2.34,37.94 0.3,37.94 0.3,58.72 
		2.34,58.72 2.34,37.94 	"/>
	<polyline fill="#1D2132" stroke="#1D2132" stroke-width="0.1" stroke-miterlimit="10" points="2.34,83.18 2.34,99.86 0.3,99.86 
		0.3,83.18 2.34,83.18 	"/>
	<polyline fill="#1D2132" stroke="#1D2132" stroke-width="0.1" stroke-miterlimit="10" points="81.82,2.02 79.65,2.02 79.65,29.2 
		81.82,29.2 81.82,2.02 	"/>
	<polyline fill="#1D2132" stroke="#1D2132" stroke-width="0.1" stroke-miterlimit="10" points="79.65,44.83 79.65,97.68 
		81.82,97.68 81.82,44.83 79.65,44.83 	"/>
	<polyline fill="#1D2132" stroke="#1D2132" stroke-width="0.1" stroke-miterlimit="10" points="60.35,47.22 61.43,47.22 
		61.43,56.38 79.65,56.38 79.65,57.47 60.35,57.47 60.35,47.22 	"/>
	<polyline fill="#1D2132" stroke="#1D2132" stroke-width="0.1" stroke-miterlimit="10" points="46.77,48.22 46.77,49.31 4.51,49.31 
		4.51,48.22 46.77,48.22 46.77,49.31 	"/>
	<polyline fill="#1D2132" stroke="#1D2132" stroke-width="0.1" stroke-miterlimit="10" points="45.68,41.25 46.77,41.25 46.77,49.3 
		45.68,49.3 45.68,41.25 46.77,41.25 	"/>
	<polyline fill="#1D2132" stroke="#1D2132" stroke-width="0.1" stroke-miterlimit="10" points="45.68,21.16 46.77,21.16 46.77,29.2 
		45.68,29.2 45.68,21.16 46.77,21.16 	"/>
	<polygon fill="#1D2132" stroke="#1D2132" stroke-width="0.1" stroke-miterlimit="10" points="55.59,27.84 55.59,26.76 46.77,26.76 
		46.77,2.02 45.68,2.02 45.68,27.84 	"/>
	<polyline fill="#1D2132" stroke="#1D2132" stroke-width="0.1" stroke-miterlimit="10" points="79.65,26.76 79.65,27.84 
		67.15,27.84 67.15,26.76 79.65,26.76 	"/>
</g>
<g id="Details">
	<g>
		
			<path fill="none" stroke="#1D2132" stroke-width="0.1" stroke-linecap="round" stroke-linejoin="round" stroke-miterlimit="10" d="
			M78.2,4.34c-0.53,0-0.93-0.42-0.93-0.93c0-0.52,0.42-0.93,0.93-0.93c0.52,0,0.93,0.42,0.93,0.93C79.13,3.93,78.71,4.34,78.2,4.34"
			/>
		
			<path fill="none" stroke="#1D2132" stroke-width="0.1" stroke-linecap="round" stroke-linejoin="round" stroke-miterlimit="10" d="
			M78.2,4.16c-0.43,0-0.75-0.33-0.75-0.75s0.34-0.75,0.75-0.75c0.42,0,0.75,0.34,0.75,0.75S78.61,4.16,78.2,4.16"/>
		
			<path fill="none" stroke="#1D2132" stroke-width="0.1" stroke-linecap="round" stroke-linejoin="round" stroke-miterlimit="10" d="
			M78.2,4.12c-0.39,0-0.72-0.32-0.7-0.7c0-0.38,0.32-0.7,0.7-0.7c0.38,0,0.7,0.31,0.7,0.7C78.9,3.8,78.59,4.12,78.2,4.12"/>
		
			<line fill="none" stroke="#1D2132" stroke-width="0.1" stroke-linecap="round" stroke-linejoin="round" stroke-miterlimit="10" x1="79.24" y1="3.41" x2="79.48" y2="3.41"/>
		<polygon fill="#1D2132" points="79.12,3.37 79.14,3.34 79.19,3.31 79.23,3.31 79.28,3.34 79.3,3.37 79.31,3.41 79.3,3.45 
			79.28,3.48 79.23,3.52 79.19,3.52 79.14,3.48 79.12,3.45 79.11,3.41 		"/>
		
			<polygon fill="none" stroke="#1D2132" stroke-width="0.1" stroke-linecap="round" stroke-linejoin="round" stroke-miterlimit="10" points="
			79.12,3.37 79.14,3.34 79.19,3.31 79.23,3.31 79.28,3.34 79.3,3.37 79.31,3.41 79.3,3.45 79.28,3.48 79.23,3.52 79.19,3.52 
			79.14,3.48 79.12,3.45 79.11,3.41 		"/>
		
			<line fill="none" stroke="#1D2132" stroke-width="0.1" stroke-linecap="round" stroke-linejoin="round" stroke-miterlimit="10" x1="78.84" y1="3.41" x2="79.17" y2="3.41"/>
		<polygon fill="#1D2132" points="78.71,3.37 78.73,3.34 78.78,3.31 78.82,3.31 78.87,3.34 78.89,3.37 78.9,3.41 78.89,3.45 
			78.87,3.48 78.82,3.52 78.78,3.52 78.73,3.48 78.71,3.45 78.7,3.41 		"/>
		
			<polygon fill="none" stroke="#1D2132" stroke-width="0.1" stroke-linecap="round" stroke-linejoin="round" stroke-miterlimit="10" points="
			78.71,3.37 78.73,3.34 78.78,3.31 78.82,3.31 78.87,3.34 78.89,3.37 78.9,3.41 78.89,3.45 78.87,3.48 78.82,3.52 78.78,3.52 
			78.73,3.48 78.71,3.45 78.7,3.41 		"/>
		
			<line fill="none" stroke="#1D2132" stroke-width="0.1" stroke-linecap="round" stroke-linejoin="round" stroke-miterlimit="10" x1="78.43" y1="3.41" x2="78.76" y2="3.41"/>
		<polygon fill="#1D2132" points="78.3,3.37 78.32,3.34 78.37,3.31 78.41,3.31 78.46,3.34 78.48,3.37 78.49,3.41 78.48,3.45 
			78.46,3.48 78.41,3.52 78.37,3.52 78.32,3.48 78.3,3.45 78.29,3.41 		"/>
		
			<polygon fill="none" stroke="#1D2132" stroke-width="0.1" stroke-linecap="round" stroke-linejoin="round" stroke-miterlimit="10" points="
			78.3,3.37 78.32,3.34 78.37,3.31 78.41,3.31 78.46,3.34 78.48,3.37 78.49,3.41 78.48,3.45 78.46,3.48 78.41,3.52 78.37,3.52 
			78.32,3.48 78.3,3.45 78.29,3.41 		"/>
		
			<line fill="none" stroke="#1D2132" stroke-width="0.1" stroke-linecap="round" stroke-linejoin="round" stroke-miterlimit="10" x1="78.02" y1="3.41" x2="78.35" y2="3.41"/>
		<polygon fill="#1D2132" points="77.88,3.37 77.9,3.34 77.96,3.31 78,3.31 78.05,3.34 78.07,3.37 78.08,3.41 78.07,3.45 
			78.05,3.48 78,3.52 77.96,3.52 77.9,3.48 77.88,3.45 77.88,3.41 		"/>
		
			<polygon fill="none" stroke="#1D2132" stroke-width="0.1" stroke-linecap="round" stroke-linejoin="round" stroke-miterlimit="10" points="
			77.88,3.37 77.9,3.34 77.96,3.31 78,3.31 78.05,3.34 78.07,3.37 78.08,3.41 78.07,3.45 78.05,3.48 78,3.52 77.96,3.52 77.9,3.48 
			77.88,3.45 77.88,3.41 		"/>
		
			<line fill="none" stroke="#1D2132" stroke-width="0.1" stroke-linecap="round" stroke-linejoin="round" stroke-miterlimit="10" x1="77.61" y1="3.41" x2="77.94" y2="3.41"/>
		<polygon fill="#1D2132" points="77.48,3.37 77.5,3.34 77.56,3.31 77.6,3.31 77.65,3.34 77.67,3.37 77.67,3.41 77.67,3.45 
			77.65,3.48 77.6,3.52 77.56,3.52 77.5,3.48 77.48,3.45 77.48,3.41 		"/>
		
			<polygon fill="none" stroke="#1D2132" stroke-width="0.1" stroke-linecap="round" stroke-linejoin="round" stroke-miterlimit="10" points="
			77.48,3.37 77.5,3.34 77.56,3.31 77.6,3.31 77.65,3.34 77.67,3.37 77.67,3.41 77.67,3.45 77.65,3.48 77.6,3.52 77.56,3.52 
			77.5,3.48 77.48,3.45 77.48,3.41 		"/>
		
			<line fill="none" stroke="#1D2132" stroke-width="0.1" stroke-linecap="round" stroke-linejoin="round" stroke-miterlimit="10" x1="77.19" y1="3.41" x2="77.54" y2="3.41"/>
		<polygon fill="#1D2132" points="77.08,3.37 77.1,3.34 77.15,3.31 77.19,3.31 77.23,3.34 77.25,3.37 77.27,3.41 77.25,3.45 
			77.23,3.48 77.19,3.52 77.15,3.52 77.1,3.48 77.08,3.45 77.06,3.41 		"/>
		
			<polygon fill="none" stroke="#1D2132" stroke-width="0.1" stroke-linecap="round" stroke-linejoin="round" stroke-miterlimit="10" points="
			77.08,3.37 77.1,3.34 77.15,3.31 77.19,3.31 77.23,3.34 77.25,3.37 77.27,3.41 77.25,3.45 77.23,3.48 77.19,3.52 77.15,3.52 
			77.1,3.48 77.08,3.45 77.06,3.41 		"/>
		
			<line fill="none" stroke="#1D2132" stroke-width="0.1" stroke-linecap="round" stroke-linejoin="round" stroke-miterlimit="10" x1="76.88" y1="3.41" x2="77.13" y2="3.41"/>
		
			<line fill="none" stroke="#1D2132" stroke-width="0.1" stroke-linecap="round" stroke-linejoin="round" stroke-miterlimit="10" x1="78.2" y1="2.34" x2="78.2" y2="2.12"/>
		<polygon fill="#1D2132" points="78.11,2.34 78.13,2.31 78.18,2.3 78.22,2.3 78.27,2.31 78.29,2.34 78.3,2.4 78.29,2.44 
			78.27,2.47 78.22,2.49 78.18,2.49 78.13,2.47 78.11,2.44 78.1,2.4 		"/>
		
			<polygon fill="none" stroke="#1D2132" stroke-width="0.1" stroke-linecap="round" stroke-linejoin="round" stroke-miterlimit="10" points="
			78.11,2.34 78.13,2.31 78.18,2.3 78.22,2.3 78.27,2.31 78.29,2.34 78.3,2.4 78.29,2.44 78.27,2.47 78.22,2.49 78.18,2.49 
			78.13,2.47 78.11,2.44 78.1,2.4 		"/>
		
			<line fill="none" stroke="#1D2132" stroke-width="0.1" stroke-linecap="round" stroke-linejoin="round" stroke-miterlimit="10" x1="78.2" y1="2.76" x2="78.2" y2="2.42"/>
		<polygon fill="#1D2132" points="78.11,2.74 78.13,2.72 78.18,2.69 78.22,2.69 78.27,2.72 78.29,2.74 78.3,2.79 78.29,2.84 
			78.27,2.87 78.22,2.88 78.18,2.88 78.13,2.87 78.11,2.84 78.1,2.79 		"/>
		
			<polygon fill="none" stroke="#1D2132" stroke-width="0.1" stroke-linecap="round" stroke-linejoin="round" stroke-miterlimit="10" points="
			78.11,2.74 78.13,2.72 78.18,2.69 78.22,2.69 78.27,2.72 78.29,2.74 78.3,2.79 78.29,2.84 78.27,2.87 78.22,2.88 78.18,2.88 
			78.13,2.87 78.11,2.84 78.1,2.79 		"/>
		
			<line fill="none" stroke="#1D2132" stroke-width="0.1" stroke-linecap="round" stroke-linejoin="round" stroke-miterlimit="10" x1="78.2" y1="3.16" x2="78.2" y2="2.84"/>
		<polygon fill="#1D2132" points="78.11,3.16 78.13,3.12 78.18,3.11 78.22,3.11 78.27,3.12 78.29,3.16 78.3,3.2 78.29,3.24 
			78.27,3.27 78.22,3.3 78.18,3.3 78.13,3.27 78.11,3.24 78.1,3.2 		"/>
		
			<polygon fill="none" stroke="#1D2132" stroke-width="0.1" stroke-linecap="round" stroke-linejoin="round" stroke-miterlimit="10" points="
			78.11,3.16 78.13,3.12 78.18,3.11 78.22,3.11 78.27,3.12 78.29,3.16 78.3,3.2 78.29,3.24 78.27,3.27 78.22,3.3 78.18,3.3 
			78.13,3.27 78.11,3.24 78.1,3.2 		"/>
		
			<line fill="none" stroke="#1D2132" stroke-width="0.1" stroke-linecap="round" stroke-linejoin="round" stroke-miterlimit="10" x1="78.2" y1="3.56" x2="78.2" y2="3.24"/>
		<polygon fill="#1D2132" points="78.11,3.56 78.13,3.54 78.18,3.52 78.22,3.52 78.27,3.54 78.29,3.56 78.3,3.62 78.29,3.66 
			78.27,3.69 78.22,3.72 78.18,3.72 78.13,3.69 78.11,3.66 78.1,3.62 		"/>
		
			<polygon fill="none" stroke="#1D2132" stroke-width="0.1" stroke-linecap="round" stroke-linejoin="round" stroke-miterlimit="10" points="
			78.11,3.56 78.13,3.54 78.18,3.52 78.22,3.52 78.27,3.54 78.29,3.56 78.3,3.62 78.29,3.66 78.27,3.69 78.22,3.72 78.18,3.72 
			78.13,3.69 78.11,3.66 78.1,3.62 		"/>
		
			<line fill="none" stroke="#1D2132" stroke-width="0.1" stroke-linecap="round" stroke-linejoin="round" stroke-miterlimit="10" x1="78.2" y1="3.98" x2="78.2" y2="3.66"/>
		<polygon fill="#1D2132" points="78.11,3.98 78.13,3.94 78.18,3.92 78.22,3.92 78.27,3.94 78.29,3.98 78.3,4.02 78.29,4.06 
			78.27,4.09 78.22,4.12 78.18,4.12 78.13,4.09 78.11,4.06 78.1,4.02 		"/>
		
			<polygon fill="none" stroke="#1D2132" stroke-width="0.1" stroke-linecap="round" stroke-linejoin="round" stroke-miterlimit="10" points="
			78.11,3.98 78.13,3.94 78.18,3.92 78.22,3.92 78.27,3.94 78.29,3.98 78.3,4.02 78.29,4.06 78.27,4.09 78.22,4.12 78.18,4.12 
			78.13,4.09 78.11,4.06 78.1,4.02 		"/>
		
			<line fill="none" stroke="#1D2132" stroke-width="0.1" stroke-linecap="round" stroke-linejoin="round" stroke-miterlimit="10" x1="78.2" y1="4.38" x2="78.2" y2="4.05"/>
		<polygon fill="#1D2132" points="78.11,4.38 78.13,4.36 78.18,4.34 78.22,4.34 78.27,4.36 78.29,4.38 78.3,4.44 78.29,4.48 
			78.27,4.51 78.22,4.54 78.18,4.54 78.13,4.51 78.11,4.48 78.1,4.44 		"/>
		
			<polygon fill="none" stroke="#1D2132" stroke-width="0.1" stroke-linecap="round" stroke-linejoin="round" stroke-miterlimit="10" points="
			78.11,4.38 78.13,4.36 78.18,4.34 78.22,4.34 78.27,4.36 78.29,4.38 78.3,4.44 78.29,4.48 78.27,4.51 78.22,4.54 78.18,4.54 
			78.13,4.51 78.11,4.48 78.1,4.44 		"/>
		
			<line fill="none" stroke="#1D2132" stroke-width="0.1" stroke-linecap="round" stroke-linejoin="round" stroke-miterlimit="10" x1="78.2" y1="4.69" x2="78.2" y2="4.47"/>
		
			<polyline fill="none" stroke="#1D2132" stroke-width="0.1" stroke-linecap="round" stroke-linejoin="round" stroke-miterlimit="10" points="
			79.55,2.05 79.55,4.77 76.83,4.77 76.83,2.05 79.55,2.05 		"/>
		
			<path fill="none" stroke="#1D2132" stroke-width="0.1" stroke-linecap="round" stroke-linejoin="round" stroke-miterlimit="10" d="
			M78.2,4.38c-0.55,0-0.97-0.43-0.97-0.97s0.43-0.97,0.97-0.97s0.97,0.43,0.97,0.97S78.74,4.38,78.2,4.38"/>
	</g>
</g>
</svg>
