<?xml version="1.0" encoding="utf-8"?>
<!-- Generator: Adobe Illustrator 22.0.0, SVG Export Plug-In . SVG Version: 6.00 Build 0)  -->
<svg version="1.1" id="Layer_1" xmlns="http://www.w3.org/2000/svg" xmlns:xlink="http://www.w3.org/1999/xlink" x="0px" y="0px"
	 viewBox="0 0 100 81" enable-background="new 0 0 100 81" xml:space="preserve">
<g id="Background">
	
		<polygon opacity="0.1" fill="#1D2132" stroke="#1D2132" stroke-width="0.1" stroke-linecap="round" stroke-linejoin="round" stroke-miterlimit="10" enable-background="new    " points="
		2.7,5.01 97.29,5.01 97.29,78.65 7.84,78.65 7.84,73.79 2.7,73.79 	"/>
</g>
<g id="Plumbing">
	<g>
		<polyline fill="#FFFFFF" points="94.07,57.87 93.94,57.87 93.83,57.87 93.61,57.9 93.4,57.95 93.19,58.03 92.98,58.13 92.8,58.24 
			92.63,58.39 92.48,58.54 92.31,58.78 92.16,59.02 92.02,59.28 91.91,59.54 91.81,59.84 91.73,60.09 91.67,60.36 91.6,60.63 
			91.55,60.92 91.54,61.2 91.53,61.45 91.54,61.7 91.57,61.98 91.6,62.26 91.67,62.54 91.73,62.81 91.83,63.09 91.91,63.35 
			92.02,63.61 92.16,63.87 92.31,64.12 92.48,64.36 92.63,64.5 92.8,64.65 92.98,64.76 93.19,64.88 93.4,64.95 93.61,65 
			93.83,65.04 94.07,65.04 97.26,65.04 97.26,57.87 94.07,57.87 		"/>
		
			<line fill="none" stroke="#1D2132" stroke-width="0.1" stroke-linecap="square" stroke-miterlimit="10" x1="97.26" y1="65.04" x2="97.26" y2="57.87"/>
		
			<line fill="none" stroke="#1D2132" stroke-width="0.1" stroke-linecap="square" stroke-miterlimit="10" x1="94.07" y1="65.04" x2="97.26" y2="65.04"/>
		
			<line fill="none" stroke="#1D2132" stroke-width="0.1" stroke-linecap="square" stroke-miterlimit="10" x1="94.07" y1="57.87" x2="97.26" y2="57.87"/>
		
			<line fill="none" stroke="#1D2132" stroke-width="0.1" stroke-linecap="square" stroke-miterlimit="10" x1="97.26" y1="60.32" x2="97.26" y2="62.57"/>
		
			<line fill="none" stroke="#1D2132" stroke-width="0.1" stroke-linecap="square" stroke-miterlimit="10" x1="94.7" y1="61.67" x2="94.7" y2="62.04"/>
		
			<line fill="none" stroke="#1D2132" stroke-width="0.1" stroke-linecap="square" stroke-miterlimit="10" x1="94.92" y1="61.45" x2="95.33" y2="61.45"/>
		
			<line fill="none" stroke="#1D2132" stroke-width="0.1" stroke-linecap="square" stroke-miterlimit="10" x1="94.7" y1="60.84" x2="94.7" y2="61.23"/>
		
			<line fill="none" stroke="#1D2132" stroke-width="0.1" stroke-linecap="square" stroke-miterlimit="10" x1="94.05" y1="61.45" x2="94.45" y2="61.45"/>
		<path fill="none" stroke="#1D2132" stroke-width="0.1" stroke-linecap="square" stroke-miterlimit="10" d="M93.86,58.31
			c0.66,0.25,1.21,0.68,1.6,1.24"/>
		<path fill="none" stroke="#1D2132" stroke-width="0.1" stroke-linecap="square" stroke-miterlimit="10" d="M95.45,59.56
			c0.32,0.49,0.48,1.06,0.48,1.65c0,0.07,0,0.17-0.01,0.25"/>
		<path fill="none" stroke="#1D2132" stroke-width="0.1" stroke-linecap="square" stroke-miterlimit="10" d="M95.46,63.35
			c-0.4,0.56-0.94,1-1.6,1.24"/>
		<path fill="none" stroke="#1D2132" stroke-width="0.1" stroke-linecap="square" stroke-miterlimit="10" d="M95.92,61.46
			c0.01,0.07,0.01,0.17,0.01,0.25c0,0.58-0.17,1.15-0.48,1.65"/>
		<path fill="none" stroke="#1D2132" stroke-width="0.1" stroke-linecap="square" stroke-miterlimit="10" d="M91.54,61.19
			c0.06-0.74,0.26-1.48,0.62-2.17"/>
		<path fill="none" stroke="#1D2132" stroke-width="0.1" stroke-linecap="square" stroke-miterlimit="10" d="M94.05,65.04
			c-0.01,0-0.05,0-0.07,0c-0.58,0-1.13-0.25-1.5-0.68"/>
		<path fill="none" stroke="#1D2132" stroke-width="0.1" stroke-linecap="square" stroke-miterlimit="10" d="M91.54,61.7
			c-0.01-0.07-0.01-0.17-0.01-0.25s0-0.17,0.01-0.25"/>
		<path fill="none" stroke="#1D2132" stroke-width="0.1" stroke-linecap="square" stroke-miterlimit="10" d="M95.34,59.44
			c0.1,0.66,0.16,1.34,0.16,2s-0.06,1.32-0.16,1.99"/>
		<path fill="none" stroke="#1D2132" stroke-width="0.1" stroke-linecap="square" stroke-miterlimit="10" d="M96.79,61.44
			c0,0.67-0.05,1.35-0.15,2.02"/>
		<path fill="none" stroke="#1D2132" stroke-width="0.1" stroke-linecap="square" stroke-miterlimit="10" d="M96.45,63.84
			c-0.78,0.66-1.78,1.01-2.82,1.01c-0.02,0-0.04,0-0.06,0"/>
		<path fill="none" stroke="#1D2132" stroke-width="0.1" stroke-linecap="square" stroke-miterlimit="10" d="M96.65,63.47
			c-0.02,0.14-0.1,0.28-0.21,0.37"/>
		<path fill="none" stroke="#1D2132" stroke-width="0.1" stroke-linecap="square" stroke-miterlimit="10" d="M93.58,58.05
			c0.01,0,0.04,0,0.05,0c1.04,0,2.04,0.36,2.82,1.01"/>
		<path fill="none" stroke="#1D2132" stroke-width="0.1" stroke-linecap="square" stroke-miterlimit="10" d="M96.65,59.43
			c0.09,0.67,0.15,1.34,0.15,2.02"/>
		<path fill="none" stroke="#1D2132" stroke-width="0.1" stroke-linecap="square" stroke-miterlimit="10" d="M96.43,59.06
			c0.12,0.1,0.19,0.24,0.21,0.37"/>
		<path fill="none" stroke="#1D2132" stroke-width="0.1" stroke-linecap="square" stroke-miterlimit="10" d="M92.49,58.55
			c0.36-0.43,0.92-0.68,1.5-0.68c0.01,0,0.05,0,0.07,0"/>
		<path fill="none" stroke="#1D2132" stroke-width="0.1" stroke-linecap="square" stroke-miterlimit="10" d="M92.16,59.01
			c0.09-0.16,0.2-0.32,0.32-0.47"/>
		<path fill="none" stroke="#1D2132" stroke-width="0.1" stroke-linecap="square" stroke-miterlimit="10" d="M92.48,64.34
			c-0.12-0.14-0.24-0.3-0.32-0.47"/>
		<path fill="none" stroke="#1D2132" stroke-width="0.1" stroke-linecap="square" stroke-miterlimit="10" d="M92.16,63.86
			c-0.35-0.67-0.56-1.41-0.62-2.17"/>
		<path fill="none" stroke="#1D2132" stroke-width="0.1" stroke-linecap="square" stroke-miterlimit="10" d="M92.06,62.44
			c-0.07-0.32-0.12-0.66-0.12-0.99s0.05-0.67,0.12-0.99"/>
		<path fill="none" stroke="#1D2132" stroke-width="0.1" stroke-linecap="square" stroke-miterlimit="10" d="M92.93,58.66
			c0.22-0.24,0.53-0.37,0.87-0.37c0.02,0,0.05,0,0.07,0"/>
		<path fill="none" stroke="#1D2132" stroke-width="0.1" stroke-linecap="square" stroke-miterlimit="10" d="M92.06,60.46
			c0.14-0.66,0.43-1.26,0.87-1.78"/>
		<path fill="none" stroke="#1D2132" stroke-width="0.1" stroke-linecap="square" stroke-miterlimit="10" d="M93.87,64.59
			c-0.02,0-0.05,0-0.07,0c-0.33,0-0.64-0.14-0.87-0.37"/>
		<path fill="none" stroke="#1D2132" stroke-width="0.1" stroke-linecap="square" stroke-miterlimit="10" d="M92.93,64.23
			c-0.46-0.52-0.74-1.14-0.87-1.79"/>
		<path fill="none" stroke="#1D2132" stroke-width="0.1" stroke-linecap="square" stroke-miterlimit="10" d="M95.18,61.45
			c0-0.25-0.22-0.47-0.49-0.46c-0.27,0-0.49,0.21-0.49,0.46s0.22,0.46,0.49,0.46S95.18,61.7,95.18,61.45"/>
		<path fill="none" stroke="#1D2132" stroke-width="0.1" stroke-linecap="square" stroke-miterlimit="10" d="M94.96,61.45
			c0-0.14-0.12-0.25-0.26-0.25c-0.15,0-0.26,0.11-0.26,0.25s0.11,0.25,0.26,0.25S94.96,61.58,94.96,61.45"/>
	</g>
	<g>
		<polygon fill="#FFFFFF" points="80.51,78.65 80.51,76.86 80.51,76.83 80.52,76.81 80.52,76.78 80.55,76.76 80.55,76.73 
			80.55,76.71 80.55,76.7 80.56,76.67 80.58,76.66 80.6,76.64 80.62,76.63 80.63,76.61 80.65,76.6 80.67,76.59 80.69,76.58 
			80.72,76.56 80.72,71.79 80.72,71.67 80.72,71.56 80.74,71.44 80.77,71.33 80.8,71.22 80.83,71.11 80.88,71 80.91,70.89 
			80.98,70.79 81.02,70.69 81.09,70.59 81.15,70.51 81.23,70.41 81.31,70.34 81.39,70.25 81.46,70.18 81.55,70.09 81.65,70.03 
			81.73,69.97 81.83,69.92 81.92,69.86 82.01,69.81 82.12,69.76 82.22,69.73 82.33,69.69 82.44,69.67 82.54,69.63 82.65,69.6 
			82.76,69.59 82.87,69.58 82.98,69.58 83.09,69.58 83.2,69.58 83.31,69.58 83.42,69.59 83.53,69.6 83.64,69.63 83.75,69.67 
			83.84,69.69 83.95,69.73 84.05,69.76 84.15,69.81 84.25,69.86 84.35,69.92 84.46,69.97 84.53,70.03 84.61,70.09 84.7,70.18 
			84.78,70.25 84.87,70.34 84.94,70.41 85.02,70.51 85.09,70.59 85.15,70.69 85.2,70.79 85.26,70.89 85.3,71 85.36,71.11 
			85.37,71.22 85.41,71.33 85.43,71.44 85.44,71.56 85.44,71.67 85.46,71.79 85.46,76.56 85.48,76.58 85.51,76.59 85.53,76.6 
			85.53,76.61 85.55,76.63 85.58,76.64 85.59,76.66 85.6,76.67 85.62,76.7 85.63,76.71 85.64,76.73 85.64,76.76 85.65,76.78 
			85.65,76.81 85.66,76.83 85.66,76.86 85.66,78.65 83.09,78.65 		"/>
		
			<line fill="none" stroke="#1D2132" stroke-width="0.1" stroke-linecap="square" stroke-miterlimit="10" x1="85.46" y1="71.79" x2="85.46" y2="76.56"/>
		
			<line fill="none" stroke="#1D2132" stroke-width="0.1" stroke-linecap="square" stroke-miterlimit="10" x1="80.51" y1="78.65" x2="85.66" y2="78.65"/>
		
			<line fill="none" stroke="#1D2132" stroke-width="0.1" stroke-linecap="square" stroke-miterlimit="10" x1="85.66" y1="76.86" x2="85.66" y2="78.65"/>
		
			<line fill="none" stroke="#1D2132" stroke-width="0.1" stroke-linecap="square" stroke-miterlimit="10" x1="81.17" y1="75.72" x2="83.09" y2="75.72"/>
		
			<line fill="none" stroke="#1D2132" stroke-width="0.1" stroke-linecap="square" stroke-miterlimit="10" x1="84.99" y1="75.72" x2="85.46" y2="71.79"/>
		
			<line fill="none" stroke="#1D2132" stroke-width="0.1" stroke-linecap="square" stroke-miterlimit="10" x1="84.99" y1="75.72" x2="83.09" y2="75.72"/>
		
			<line fill="none" stroke="#1D2132" stroke-width="0.1" stroke-linecap="square" stroke-miterlimit="10" x1="81.17" y1="75.72" x2="80.72" y2="71.79"/>
		
			<line fill="none" stroke="#1D2132" stroke-width="0.1" stroke-linecap="square" stroke-miterlimit="10" x1="80.72" y1="71.79" x2="80.72" y2="76.56"/>
		
			<line fill="none" stroke="#1D2132" stroke-width="0.1" stroke-linecap="square" stroke-miterlimit="10" x1="80.51" y1="76.86" x2="80.51" y2="78.65"/>
		<path fill="none" stroke="#1D2132" stroke-width="0.1" stroke-linecap="square" stroke-miterlimit="10" d="M85.4,76.56
			c-0.77-0.09-1.54-0.13-2.31-0.13s-1.54,0.04-2.31,0.12"/>
		<path fill="none" stroke="#1D2132" stroke-width="0.1" stroke-linecap="square" stroke-miterlimit="10" d="M85.66,76.86
			c0-0.15-0.12-0.28-0.27-0.31"/>
		<path fill="none" stroke="#1D2132" stroke-width="0.1" stroke-linecap="square" stroke-miterlimit="10" d="M85.46,71.79
			c0-1.22-1.06-2.21-2.37-2.21s-2.37,0.99-2.37,2.21"/>
		<path fill="none" stroke="#1D2132" stroke-width="0.1" stroke-linecap="square" stroke-miterlimit="10" d="M80.78,76.55
			c-0.15,0.01-0.27,0.16-0.27,0.31"/>
		<path fill="none" stroke="#1D2132" stroke-width="0.1" stroke-linecap="square" stroke-miterlimit="10" d="M83.09,77.76
			c-0.13,0-0.23-0.11-0.24-0.26c0-0.13,0.11-0.26,0.24-0.26s0.24,0.12,0.24,0.26S83.22,77.76,83.09,77.76"/>
	</g>
	<g>
		<path fill="#FFFFFF" d="M84.84,56.77V44.72c0-0.07,0.04-0.12,0.12-0.12h12.05c0.07,0,0.12,0.04,0.12,0.12v12.04
			c0,0.07-0.04,0.12-0.12,0.12H84.94C84.9,56.88,84.84,56.82,84.84,56.77z"/>
		
			<line fill="none" stroke="#1D2132" stroke-width="0.1" stroke-linecap="square" stroke-miterlimit="10" x1="94.39" y1="47.71" x2="95.19" y2="47.71"/>
		
			<line fill="none" stroke="#1D2132" stroke-width="0.1" stroke-linecap="square" stroke-miterlimit="10" x1="94.06" y1="46.58" x2="94.06" y2="47.37"/>
		
			<line fill="none" stroke="#1D2132" stroke-width="0.1" stroke-linecap="square" stroke-miterlimit="10" x1="92.94" y1="47.71" x2="93.72" y2="47.71"/>
		
			<line fill="none" stroke="#1D2132" stroke-width="0.1" stroke-linecap="square" stroke-miterlimit="10" x1="94.06" y1="48.04" x2="94.06" y2="48.83"/>
		
			<line fill="none" stroke="#1D2132" stroke-width="0.1" stroke-linecap="square" stroke-miterlimit="10" x1="93.11" y1="56.19" x2="96.4" y2="56.19"/>
		
			<line fill="none" stroke="#1D2132" stroke-width="0.1" stroke-linecap="square" stroke-miterlimit="10" x1="85.72" y1="45.24" x2="93.24" y2="45.24"/>
		<path fill="none" stroke="#1D2132" stroke-width="0.1" stroke-linecap="square" stroke-miterlimit="10" d="M85.59,45.38V56
			c0,0.1,0.09,0.19,0.19,0.19H96.4"/>
		
			<line fill="none" stroke="#1D2132" stroke-width="0.1" stroke-linecap="square" stroke-miterlimit="10" x1="96.53" y1="48.53" x2="96.53" y2="56.05"/>
		<g>
			<path fill="none" stroke="#1D2132" stroke-width="0.1" stroke-linecap="square" stroke-miterlimit="10" d="M96.55,48.53
				c0-0.06-0.01-0.15-0.04-0.21"/>
		</g>
		<g>
			<path fill="none" stroke="#1D2132" stroke-width="0.1" stroke-linecap="square" stroke-miterlimit="10" d="M96.4,56.19
				c0.07,0,0.13-0.06,0.13-0.13"/>
		</g>
		<g>
			<path fill="none" stroke="#1D2132" stroke-width="0.1" stroke-linecap="square" stroke-miterlimit="10" d="M96.55,48.53
				c0-0.06-0.01-0.15-0.04-0.21"/>
		</g>
		<g>
			<path fill="none" stroke="#1D2132" stroke-width="0.1" stroke-linecap="square" stroke-miterlimit="10" d="M85.72,45.24
				c-0.07,0-0.13,0.06-0.13,0.13"/>
		</g>
		<g>
			<path fill="none" stroke="#1D2132" stroke-width="0.1" stroke-linecap="square" stroke-miterlimit="10" d="M96.53,48.41
				c-0.72-1.36-1.81-2.47-3.15-3.15"/>
		</g>
		<g>
			<path fill="none" stroke="#1D2132" stroke-width="0.1" stroke-linecap="square" stroke-miterlimit="10" d="M93.47,45.27
				c-0.07-0.01-0.15-0.03-0.22-0.03"/>
		</g>
		<g>
			<path fill="none" stroke="#1D2132" stroke-width="0.1" stroke-linecap="square" stroke-miterlimit="10" d="M96.49,48.31
				c-0.48-1.42-1.6-2.56-3.04-3.04"/>
		</g>
		<g>
			<path fill="none" stroke="#1D2132" stroke-width="0.1" stroke-linecap="square" stroke-miterlimit="10" d="M93.47,45.27
				c-0.07-0.01-0.15-0.03-0.22-0.03"/>
		</g>
		<g>
			<path fill="none" stroke="#1D2132" stroke-width="0.1" stroke-linecap="square" stroke-miterlimit="10" d="M94.69,47.71
				c0,0.33-0.3,0.61-0.61,0.61c-0.33,0-0.61-0.28-0.61-0.61c0-0.34,0.27-0.63,0.61-0.61C94.41,47.1,94.69,47.38,94.69,47.71"/>
		</g>
		<g>
			<path fill="none" stroke="#1D2132" stroke-width="0.1" stroke-linecap="square" stroke-miterlimit="10" d="M94.93,47.71
				c0,0.48-0.39,0.85-0.87,0.87c-0.48,0-0.87-0.39-0.87-0.87s0.39-0.87,0.87-0.87S94.93,47.23,94.93,47.71"/>
		</g>
		<path fill="none" stroke="#1D2132" stroke-width="0.1" stroke-linecap="square" stroke-miterlimit="10" d="M84.91,56.55V44.93
			c0-0.18,0.15-0.33,0.33-0.33h11.6c0.18,0,0.33,0.15,0.33,0.33v11.62c0,0.18-0.15,0.33-0.33,0.33H85.21
			C85.05,56.88,84.9,56.73,84.91,56.55z"/>
	</g>
	<g>
		<g>
			<path fill="#FFFFFF" stroke="#1D2132" stroke-width="0.1" stroke-linecap="square" stroke-miterlimit="10" d="M78.39,49.98
				c0,0.09,0.09,0.16,0.2,0.16s0.2-0.07,0.2-0.16s-0.09-0.16-0.2-0.16S78.39,49.89,78.39,49.98z"/>
			
				<ellipse fill="#FFFFFF" stroke="#1D2132" stroke-width="0.1" stroke-linecap="square" stroke-miterlimit="10" cx="77.74" cy="49.98" rx="0.2" ry="0.16"/>
			<path fill="#FFFFFF" stroke="#1D2132" stroke-width="0.1" stroke-linecap="square" stroke-miterlimit="10" d="M74.08,49.98
				c0,0.09,0.09,0.16,0.2,0.16s0.2-0.07,0.2-0.16s-0.09-0.16-0.2-0.16S74.08,49.89,74.08,49.98z"/>
			<path fill="#FFFFFF" stroke="#1D2132" stroke-width="0.1" stroke-linecap="square" stroke-miterlimit="10" d="M74.09,49.98
				c-0.44,0-0.8-0.09-0.8-0.21v-0.54c0-0.12,0.36-0.21,0.8-0.21h4.7c0.44,0,0.8,0.09,0.8,0.21v0.54c0,0.12-0.36,0.21-0.8,0.21H74.09
				z"/>
			
				<rect x="72.91" y="44.99" fill="#FFFFFF" stroke="#1D2132" stroke-width="0.1" stroke-linecap="square" stroke-miterlimit="10" width="7" height="4.71"/>
			<path fill="#FFFFFF" stroke="#1D2132" stroke-width="0.1" stroke-linecap="square" stroke-miterlimit="10" d="M74.09,49.45
				c-0.44,0-0.8-0.77-0.8-1.72v-0.77c0-0.95,0.36-1.72,0.8-1.72h4.7c0.44,0,0.8,0.77,0.8,1.72v0.77c0,0.95-0.36,1.72-0.8,1.72H74.09
				z"/>
		</g>
		<g>
			<path fill="#FFFFFF" stroke="#1D2132" stroke-width="0.1" stroke-linecap="square" stroke-miterlimit="10" d="M74.23,45.82h4.43
				c0.09,0,0.16-0.07,0.16-0.16v-0.02c0-0.09-0.07-0.16-0.16-0.16h-4.43c-0.09,0-0.16,0.07-0.16,0.16v0.02
				C74.07,45.75,74.14,45.82,74.23,45.82z"/>
			<g>
				
					<rect x="78.34" y="44.74" fill="#FFFFFF" stroke="#1D2132" stroke-width="0.1" stroke-linecap="square" stroke-miterlimit="10" width="0.28" height="0.75"/>
				
					<rect x="74.24" y="44.74" fill="#FFFFFF" stroke="#1D2132" stroke-width="0.1" stroke-linecap="square" stroke-miterlimit="10" width="0.28" height="0.75"/>
			</g>
			<g>
				
					<rect x="78.18" y="44.6" fill="#FFFFFF" stroke="#1D2132" stroke-width="0.1" stroke-linecap="square" stroke-miterlimit="10" width="0.59" height="0.14"/>
				
					<rect x="74.09" y="44.6" fill="#FFFFFF" stroke="#1D2132" stroke-width="0.1" stroke-linecap="square" stroke-miterlimit="10" width="0.59" height="0.14"/>
			</g>
		</g>
	</g>
</g>
<g id="Furniture">
	<g>
		
			<rect x="7.88" y="70.63" fill="#FFFFFF" stroke="#1D2132" stroke-width="0.1" stroke-linecap="square" stroke-miterlimit="22.9256" width="33.81" height="7.98"/>
		
			<rect x="22.1" y="70.63" fill="#FFFFFF" stroke="#1D2132" stroke-width="0.1" stroke-linecap="square" stroke-miterlimit="22.9256" width="6.21" height="7.98"/>
		
			<rect x="34.98" y="70.63" fill="#FFFFFF" stroke="#1D2132" stroke-width="0.1" stroke-linecap="square" stroke-miterlimit="22.9256" width="7.05" height="7.98"/>
		
			<rect x="7.88" y="70.63" fill="#FFFFFF" stroke="#1D2132" stroke-width="0.1" stroke-linecap="square" stroke-miterlimit="22.9256" width="6.86" height="7.98"/>
		<g>
			
				<line fill="none" stroke="#1D2132" stroke-width="0.1" stroke-linecap="square" stroke-miterlimit="22.9256" x1="11.39" y1="75.61" x2="11.39" y2="73.63"/>
			
				<line fill="none" stroke="#1D2132" stroke-width="0.1" stroke-linecap="square" stroke-miterlimit="22.9256" x1="10.69" y1="75.32" x2="12.1" y2="73.91"/>
			
				<line fill="none" stroke="#1D2132" stroke-width="0.1" stroke-linecap="square" stroke-miterlimit="22.9256" x1="10.39" y1="74.63" x2="12.4" y2="74.63"/>
			
				<line fill="none" stroke="#1D2132" stroke-width="0.1" stroke-linecap="square" stroke-miterlimit="22.9256" x1="10.69" y1="73.91" x2="12.1" y2="75.32"/>
		</g>
		<g>
			
				<rect x="22.84" y="70.95" fill="#FFFFFF" stroke="#1D2132" stroke-width="0.1" stroke-linecap="square" stroke-miterlimit="22.9256" width="4.65" height="7.32"/>
			<g>
				<path fill="#FFFFFF" stroke="#1D2132" stroke-width="0.1" stroke-linecap="square" stroke-miterlimit="22.9256" d="M26.45,72.95
					c0,0.71-0.57,1.27-1.27,1.27c-0.71,0-1.27-0.56-1.27-1.27s0.56-1.27,1.27-1.27C25.87,71.67,26.45,72.25,26.45,72.95"/>
				<path fill="#FFFFFF" stroke="#1D2132" stroke-width="0.1" stroke-linecap="square" stroke-miterlimit="22.9256" d="M26.45,76.55
					c0,0.7-0.57,1.27-1.27,1.27c-0.71,0-1.27-0.56-1.27-1.27s0.56-1.27,1.27-1.27C25.87,75.28,26.45,75.85,26.45,76.55"/>
				<path fill="#FFFFFF" stroke="#1D2132" stroke-width="0.1" stroke-linecap="square" stroke-miterlimit="22.9256" d="M26.2,72.95
					c0,0.56-0.46,1.01-1.01,1.01c-0.56,0-1.01-0.46-1.01-1.01c0-0.56,0.46-1.01,1.01-1.01C25.74,71.92,26.2,72.39,26.2,72.95"/>
				<path fill="#FFFFFF" stroke="#1D2132" stroke-width="0.1" stroke-linecap="square" stroke-miterlimit="22.9256" d="M26.2,76.55
					c0,0.56-0.46,1.01-1.01,1.01c-0.56,0-1.01-0.46-1.01-1.01c0-0.56,0.46-1.01,1.01-1.01S26.2,75.99,26.2,76.55"/>
			</g>
		</g>
		<g>
			<path fill="#FFFFFF" stroke="#1D2132" stroke-width="0.1" stroke-linecap="square" stroke-miterlimit="22.9256" d="M36.97,77.13
				h3.08c0.26,0,0.46-0.2,0.46-0.46v-5.08c0-0.26-0.2-0.46-0.46-0.46h-3.08c-0.26,0-0.46,0.2-0.46,0.46v5.08
				C36.5,76.93,36.7,77.13,36.97,77.13z"/>
			<g>
				<path fill="#FFFFFF" stroke="#1D2132" stroke-width="0.1" stroke-linecap="square" stroke-miterlimit="22.9256" d="M38.82,75.99
					c0-0.2-0.15-0.36-0.32-0.36s-0.32,0.16-0.32,0.36s0.15,0.36,0.32,0.36S38.84,76.19,38.82,75.99z"/>
				<g>
					<path fill="#FFFFFF" stroke="#1D2132" stroke-width="0.1" stroke-linecap="square" stroke-miterlimit="22.9256" d="
						M39.05,77.63c-0.01-0.27-0.25-0.5-0.55-0.5c-0.31,0-0.55,0.22-0.55,0.5s0.24,0.5,0.55,0.5S39.05,77.9,39.05,77.63z"/>
					<path fill="#FFFFFF" stroke="#1D2132" stroke-width="0.1" stroke-linecap="square" stroke-miterlimit="22.9256" d="
						M38.49,74.81c-0.1,0-0.16,0.1-0.16,0.26l0.01,2.59c0,0.15,0.07,0.26,0.16,0.26l0,0c0.1,0,0.16-0.11,0.16-0.26l-0.01-2.59
						C38.65,74.92,38.59,74.81,38.49,74.81L38.49,74.81z"/>
					<path fill="#FFFFFF" stroke="#1D2132" stroke-width="0.1" stroke-linecap="square" stroke-miterlimit="22.9256" d="M39.26,77.6
						c0-0.09-0.34-0.15-0.76-0.15c-0.41,0-0.76,0.07-0.76,0.15c0,0.1,0.34,0.15,0.76,0.15C38.92,77.76,39.27,77.7,39.26,77.6z"/>
				</g>
			</g>
		</g>
	</g>
	<g>
		<g>
			
				<rect x="2.79" y="6.53" fill="#FFFFFF" stroke="#1D2132" stroke-width="0.1" stroke-linecap="square" stroke-miterlimit="10" width="4.78" height="27.66"/>
			<g>
				<polygon fill="#FFFFFF" stroke="#1D2132" stroke-width="0.1" stroke-linecap="square" stroke-miterlimit="10" points="
					7.87,31.42 7.87,29.55 7.56,29.55 7.56,29.06 8.05,29.06 8.05,31.91 7.56,31.91 7.56,31.42 				"/>
				<polygon fill="#FFFFFF" stroke="#1D2132" stroke-width="0.1" stroke-linecap="square" stroke-miterlimit="10" points="
					7.87,11.17 7.87,9.3 7.56,9.3 7.56,8.8 8.05,8.8 8.05,11.66 7.56,11.66 7.56,11.17 				"/>
			</g>
			<g>
				<polygon fill="#FFFFFF" stroke="#1D2132" stroke-width="0.1" stroke-linecap="square" stroke-miterlimit="10" points="
					7.87,26.1 7.87,24.23 7.56,24.23 7.56,23.73 8.05,23.73 8.05,26.6 7.56,26.6 7.56,26.1 				"/>
				<polygon fill="#FFFFFF" stroke="#1D2132" stroke-width="0.1" stroke-linecap="square" stroke-miterlimit="10" points="
					7.87,16.49 7.87,14.62 7.56,14.62 7.56,14.13 8.05,14.13 8.05,16.98 7.56,16.98 7.56,16.49 				"/>
			</g>
		</g>
		<g>
			<path fill="#FFFFFF" stroke="#1D2132" stroke-width="0.1" stroke-linecap="square" stroke-miterlimit="10" d="M3.74,19.41v1.9
				c0,0.46,0.37,0.83,0.83,0.83h0.26c0.46,0,0.83-0.37,0.83-0.83v-1.9c0-0.46-0.37-0.83-0.83-0.83H4.57
				C4.1,18.58,3.73,18.95,3.74,19.41z"/>
			<path fill="#FFFFFF" stroke="#1D2132" stroke-width="0.1" stroke-linecap="square" stroke-miterlimit="10" d="M4.51,19.6v1.53
				c0,0.2,0.16,0.36,0.36,0.36h0.08c0.2,0,0.36-0.16,0.36-0.36V19.6c0-0.2-0.16-0.36-0.36-0.36H4.87C4.68,19.24,4.51,19.4,4.51,19.6
				z"/>
			
				<rect x="5.15" y="14.07" fill="#FFFFFF" stroke="#1D2132" stroke-width="0.1" stroke-linecap="square" stroke-miterlimit="10" width="0.16" height="12.57"/>
			<polygon fill="#FFFFFF" stroke="#1D2132" stroke-width="0.1" stroke-linecap="square" stroke-miterlimit="10" points="
				4.82,24.83 5.15,26.65 5.15,14.07 4.82,15.89 			"/>
		</g>
	</g>
	<g>
		<path fill="#FFFFFF" stroke="#1D2132" stroke-width="0.1" stroke-linecap="square" stroke-miterlimit="10" d="M44.89,47.07
			c-1,0.31-1.82,1.3-3.99,1.31c-2.17,0.01-4.46-2.61-3.37-6.36s3.13-4.7,4.9-4.51s2.67,1.38,3.25,2.02c1.34,1.45,1.35,2,1.92,2.45
			c1.16,0.92,0.62,2.98,0.01,3.73C46.49,47.07,45.89,46.75,44.89,47.07z"/>
		<path fill="none" stroke="#1D2132" stroke-width="0.1" stroke-linecap="square" stroke-miterlimit="10" d="M38.29,47.02
			c0,0,0.44,0.5,1.14,0.84s0.91,0.21,1.82,0.15c0.91-0.06,1.35-0.06,2.59-0.87c0.88-0.57,0.78-0.89,1.1-0.77
			c0.19,0.07,0.72-0.06,1.15-0.48c0.71-0.69,0.85-1.36,1.03-2.26c0.18-0.91-0.39-1.5-0.49-1.58c-0.1-0.08,0.2-0.39-0.13-0.9
			c-1.1-1.69-1.15-1.28-2.15-2.55c-0.5-0.63-1.92-1.1-1.92-1.1"/>
		<path fill="none" stroke="#1D2132" stroke-width="0.1" stroke-linecap="square" stroke-miterlimit="10" d="M45.63,42.11
			c0,0-0.13,0.05-0.69,0c-0.55-0.05-1.35-0.3-1.35-0.3s0,0-0.07-0.14c-0.07-0.13-0.19-0.44-0.46-0.83s0.22-1.09,0.22-1.09"/>
		<path fill="none" stroke="#1D2132" stroke-width="0.1" stroke-linecap="square" stroke-miterlimit="10" d="M44.44,46.01
			c0,0-0.2-0.25-0.7-0.54s-1.06-0.59-1.06-0.59s0.09-0.98,0.38-1.75s0.53-1.31,0.53-1.31"/>
		<path fill="none" stroke="#1D2132" stroke-width="0.1" stroke-linecap="square" stroke-miterlimit="10" d="M42.68,44.89
			c0,0-0.45,0-1.05,0.18s-0.79,0.3-0.82,0.74c-0.03,0.44,0.27,1.08,0.27,1.08"/>
		<path fill="none" stroke="#1D2132" stroke-width="0.1" stroke-linecap="square" stroke-miterlimit="10" d="M39.15,41.93
			c0,0,0.15,0.12,0.44,0.2C39.88,42.2,40,42.16,40,42.16s0,0,0.23-0.56s1.1-1.32,1.1-1.32"/>
		<path fill="none" stroke="#1D2132" stroke-width="0.1" stroke-linecap="square" stroke-miterlimit="10" d="M39.46,45.01
			c0.25-0.06,0.39-0.31,0.39-0.31s0,0-0.09-0.21s-0.09-0.77,0.08-1.24C40,42.78,40,42.16,40,42.16"/>
		<path fill="none" stroke="#1D2132" stroke-width="0.1" stroke-linecap="square" stroke-miterlimit="10" d="M40.65,39.65
			c0,0,0.19,0.05,0.37,0.15c0.18,0.11,0.31,0.48,0.31,0.48"/>
		<path fill="#FFFFFF" stroke="#1D2132" stroke-width="0.1" stroke-linecap="square" stroke-miterlimit="10" d="M47.46,43.3
			c0.29,0.14,0.21,0.38,0.15,0.71s-0.15,0.53-0.23,0.88c-0.08,0.34-0.41,0.38-0.41,0.38l-0.52-0.18c0,0,0.02-0.15,0.07-0.15
			c0.07-0.01,0.33,0.22,0.45,0.14c0.2-0.14,0.09-0.43,0.15-0.76c0.06-0.33,0.22-0.54,0.21-0.75c0-0.12-0.24-0.22-0.37-0.2
			c-0.08,0.01-0.05-0.12-0.05-0.12S47.17,43.15,47.46,43.3z"/>
	</g>
	<g>
		<g>
			<path fill="#FFFFFF" stroke="#1D2132" stroke-width="0.1" stroke-linecap="square" stroke-miterlimit="10" d="M6.04,59.1
				c0.78-0.19,1.77-0.15,2.41-0.15s1.63-0.04,2.4,0.15c0.79,0.19,1.12,0.6,1.01,1.96c-0.11,1.36-0.08,3.2-0.34,3.88
				c-0.23,0.6-1.54,0.15-3.08,0.15s-2.85,0.45-3.08-0.15c-0.26-0.68-0.22-2.52-0.33-3.88C4.92,59.7,5.26,59.29,6.04,59.1z"/>
			<path fill="#FFFFFF" stroke="#1D2132" stroke-width="0.1" stroke-linecap="square" stroke-miterlimit="10" d="M6.22,59.07
				c0.72-0.15,1.64-0.12,2.23-0.12c0.59,0,1.51-0.02,2.23,0.13c0.73,0.16,1.04,0.5,0.94,1.61c-0.11,1.11-0.08,2.62-0.32,3.18
				c-0.22,0.5-1.43,0.96-2.86,0.96c-1.42,0-2.63-0.47-2.85-0.96c-0.24-0.56-0.21-2.08-0.31-3.19S5.49,59.23,6.22,59.07z"/>
			<g>
				<path fill="#FFFFFF" stroke="#1D2132" stroke-width="0.1" stroke-linecap="square" stroke-miterlimit="10" d="M5.19,65.87
					c0-1.65,1.51-0.49,3.25-0.49c1.68,0,3.06-1.12,3.24,0.43c-0.43,0.14-0.87,0.26-1.32,0.35C8.58,66.5,6.81,66.38,5.19,65.87z"/>
				<path fill="#FFFFFF" stroke="#1D2132" stroke-width="0.1" stroke-linecap="square" stroke-miterlimit="10" d="M5.12,65.85
					c0.03,0,0.05,0.01,0.08,0.02c1.62,0.51,3.39,0.64,5.17,0.29c0.45-0.09,0.89-0.21,1.32-0.35c0.03-0.01,0.06-0.02,0.09-0.03
					l0.1,0.3c-0.08,0.03-0.16,0.06-0.24,0.08c-0.39,0.12-0.79,0.23-1.21,0.31c-1.76,0.35-3.5,0.24-5.11-0.23
					c-0.1-0.03-0.2-0.06-0.3-0.09L5.12,65.85z"/>
			</g>
		</g>
		<g>
			<path fill="#FFFFFF" stroke="#1D2132" stroke-width="0.1" stroke-linecap="square" stroke-miterlimit="10" d="M6.04,47.29
				c0.78,0.19,1.77,0.15,2.41,0.15s1.63,0.04,2.4-0.15c0.79-0.19,1.12-0.6,1.01-1.96c-0.11-1.36-0.08-3.2-0.34-3.88
				c-0.23-0.6-1.54-0.15-3.08-0.15s-2.85-0.45-3.08,0.15c-0.26,0.68-0.22,2.52-0.33,3.88C4.92,46.68,5.26,47.1,6.04,47.29z"/>
			<path fill="#FFFFFF" stroke="#1D2132" stroke-width="0.1" stroke-linecap="square" stroke-miterlimit="10" d="M6.22,47.31
				c0.72,0.15,1.64,0.12,2.23,0.12c0.59,0,1.51,0.02,2.23-0.13c0.73-0.16,1.04-0.5,0.94-1.61c-0.11-1.11-0.08-2.62-0.32-3.18
				c-0.22-0.5-1.43-0.96-2.86-0.96c-1.42,0-2.63,0.47-2.85,0.96c-0.24,0.56-0.21,2.08-0.31,3.19C5.18,46.82,5.49,47.16,6.22,47.31z"
				/>
			<g>
				<path fill="#FFFFFF" stroke="#1D2132" stroke-width="0.1" stroke-linecap="square" stroke-miterlimit="10" d="M5.19,40.52
					c0,1.65,1.51,0.49,3.25,0.49c1.68,0,3.06,1.12,3.24-0.43c-0.43-0.14-0.87-0.26-1.32-0.35C8.58,39.88,6.81,40,5.19,40.52z"/>
				<path fill="#FFFFFF" stroke="#1D2132" stroke-width="0.1" stroke-linecap="square" stroke-miterlimit="10" d="M5.12,40.54
					c0.03,0,0.05-0.01,0.08-0.02c1.62-0.51,3.39-0.64,5.17-0.29c0.45,0.09,0.89,0.21,1.32,0.35c0.03,0.01,0.06,0.02,0.09,0.03
					l0.1-0.3c-0.08-0.03-0.16-0.06-0.24-0.08c-0.39-0.12-0.79-0.23-1.21-0.31c-1.76-0.35-3.5-0.24-5.11,0.23
					c-0.1,0.03-0.2,0.06-0.3,0.09L5.12,40.54z"/>
			</g>
		</g>
		<g>
			<path fill="#FFFFFF" stroke="#1D2132" stroke-width="0.1" stroke-linecap="square" stroke-miterlimit="10" d="M14.13,50.48
				c-0.19,0.78-0.15,1.77-0.15,2.41c0,0.64-0.04,1.63,0.15,2.4c0.19,0.79,0.6,1.12,1.96,1.01s3.2-0.08,3.88-0.34
				c0.6-0.23,0.15-1.54,0.15-3.08c0-1.54,0.45-2.85-0.15-3.08c-0.68-0.26-2.52-0.22-3.88-0.33C14.74,49.36,14.32,49.7,14.13,50.48z"
				/>
			<path fill="#FFFFFF" stroke="#1D2132" stroke-width="0.1" stroke-linecap="square" stroke-miterlimit="10" d="M14.11,50.67
				c-0.15,0.72-0.12,1.64-0.12,2.23s-0.02,1.51,0.13,2.23c0.16,0.73,0.5,1.04,1.61,0.94c1.11-0.11,2.62-0.08,3.18-0.32
				c0.5-0.22,0.96-1.43,0.96-2.86c0-1.42-0.47-2.63-0.96-2.85c-0.56-0.24-2.08-0.21-3.19-0.31C14.6,49.62,14.26,49.93,14.11,50.67z"
				/>
			<g>
				<path fill="#FFFFFF" stroke="#1D2132" stroke-width="0.1" stroke-linecap="square" stroke-miterlimit="10" d="M20.91,49.64
					c-1.65,0-0.49,1.51-0.49,3.25c0,1.68-1.12,3.06,0.43,3.24c0.14-0.43,0.26-0.87,0.35-1.32C21.54,53.02,21.42,51.26,20.91,49.64z"
					/>
				<path fill="#FFFFFF" stroke="#1D2132" stroke-width="0.1" stroke-linecap="square" stroke-miterlimit="10" d="M20.88,49.56
					c0,0.03,0.01,0.05,0.02,0.08c0.51,1.62,0.64,3.39,0.29,5.17c-0.09,0.45-0.21,0.89-0.35,1.32c-0.01,0.03-0.02,0.06-0.03,0.09
					l0.3,0.1c0.03-0.08,0.06-0.16,0.08-0.24c0.12-0.39,0.23-0.79,0.31-1.21c0.35-1.76,0.24-3.5-0.23-5.11
					c-0.03-0.1-0.06-0.2-0.09-0.3L20.88,49.56z"/>
			</g>
		</g>
		
			<rect x="2.79" y="47.66" fill="#FFFFFF" stroke="#1D2132" stroke-width="0.1" stroke-linecap="square" stroke-miterlimit="10" width="11.01" height="11.01"/>
	</g>
	<g>
		
			<rect x="70.84" y="45.42" fill="#FFFFFF" stroke="#1D2132" stroke-width="0.1" stroke-linecap="square" stroke-miterlimit="10" width="0.69" height="8.26"/>
		
			<rect x="70.84" y="45.87" fill="#FFFFFF" stroke="#1D2132" stroke-width="0.1" stroke-linecap="square" stroke-miterlimit="10" width="0.41" height="7.35"/>
	</g>
	<g>
		
			<rect x="71.07" y="69.9" fill="#FFFFFF" stroke="#1D2132" stroke-width="0.1" stroke-linecap="square" stroke-miterlimit="10" width="0.69" height="5.51"/>
		<g>
			
				<rect x="70.01" y="70.29" fill="#FFFFFF" stroke="#1D2132" stroke-width="0.1" stroke-linecap="square" stroke-miterlimit="10" width="1.05" height="0.31"/>
			
				<rect x="70.87" y="70.29" fill="#FFFFFF" stroke="#1D2132" stroke-width="0.1" stroke-linecap="square" stroke-miterlimit="10" width="0.19" height="0.31"/>
		</g>
		<g>
			
				<rect x="70.01" y="71.77" fill="#FFFFFF" stroke="#1D2132" stroke-width="0.1" stroke-linecap="square" stroke-miterlimit="10" width="1.05" height="0.31"/>
			
				<rect x="70.87" y="71.77" fill="#FFFFFF" stroke="#1D2132" stroke-width="0.1" stroke-linecap="square" stroke-miterlimit="10" width="0.19" height="0.31"/>
		</g>
		<g>
			
				<rect x="70.01" y="73.24" fill="#FFFFFF" stroke="#1D2132" stroke-width="0.1" stroke-linecap="square" stroke-miterlimit="10" width="1.05" height="0.31"/>
			
				<rect x="70.87" y="73.24" fill="#FFFFFF" stroke="#1D2132" stroke-width="0.1" stroke-linecap="square" stroke-miterlimit="10" width="0.19" height="0.31"/>
		</g>
		<g>
			
				<rect x="70.01" y="74.71" fill="#FFFFFF" stroke="#1D2132" stroke-width="0.1" stroke-linecap="square" stroke-miterlimit="10" width="1.05" height="0.31"/>
			
				<rect x="70.87" y="74.71" fill="#FFFFFF" stroke="#1D2132" stroke-width="0.1" stroke-linecap="square" stroke-miterlimit="10" width="0.19" height="0.31"/>
		</g>
	</g>
	<g>
		<g>
			<g>
				
					<rect x="90.85" y="36.85" fill="#FFFFFF" stroke="#1D2132" stroke-width="0.1" stroke-linecap="square" stroke-miterlimit="10" width="4.91" height="4.91"/>
				<polygon fill="#FFFFFF" stroke="#1D2132" stroke-width="0.1" stroke-linecap="square" stroke-miterlimit="10" points="
					90.52,40.27 90.52,38.35 90.84,38.35 90.84,37.84 90.35,37.84 90.35,40.78 90.84,40.78 90.84,40.27 				"/>
			</g>
			<g>
				
					<rect x="90.85" y="6.98" fill="#FFFFFF" stroke="#1D2132" stroke-width="0.1" stroke-linecap="square" stroke-miterlimit="10" width="4.91" height="4.91"/>
				<polygon fill="#FFFFFF" stroke="#1D2132" stroke-width="0.1" stroke-linecap="square" stroke-miterlimit="10" points="
					90.52,10.4 90.52,8.48 90.84,8.48 90.84,7.97 90.35,7.97 90.35,10.91 90.84,10.91 90.84,10.4 				"/>
			</g>
		</g>
		<g>
			<g>
				
					<rect x="70.31" y="12.73" fill="#FFFFFF" stroke="#1D2132" stroke-width="0.1" stroke-linecap="square" stroke-miterlimit="22.9256" width="25.86" height="23.27"/>
				<path fill="#FFFFFF" stroke="#1D2132" stroke-width="0.1" stroke-linecap="square" stroke-miterlimit="22.9256" d="M95.38,13.02
					c0.28,0.03,0.11,0.75,0.25,0.39c0.15-0.36,0.22,0,0.22,0.36c0,0.36,0,14.65,0,15.31c0,0.66,0,1.58,0,1.58s0.09-0.08,0,0.22
					c-0.09,0.31,0.09,4.28,0,4.59c-0.09,0.31-0.48-0.53-0.62-0.37c-0.13,0.16,0.72,0.54,0.5,0.56c-0.28,0.03-1.12-0.11-1.68-0.07
					c-0.56,0.04-0.87,0.25-1.61,0.01c-0.38-0.13-0.83,0.14-2.01,0.12c-1.18-0.02-1.64-0.02-3.25,0c-1.61,0.02-3.83,0.01-5.25,0.06
					c-1.14,0.04-1.86-0.15-2.36-0.03c-0.19,0.04-1.21-0.01-2.53,0.03c-1.32,0.04-5.32-0.06-6.02-0.08c-0.69-0.01-0.45,0.01-0.38-0.1
					c0.07-0.11,0.42-0.15,0.68-0.31c0.26-0.17-0.06-0.2-0.49,0.06c-0.43,0.25-0.21,0.06-0.21-0.51c0-0.38,0.04-1.12,0.17-1.21
					c0.13-0.1,0.1-0.08-0.07-0.17c-0.17-0.1-0.21-0.72-0.07-1.14c0.13-0.41,0-2.51,0.1-2.62s0.17-0.11,0-0.2
					c-0.17-0.09-0.17-11.95-0.17-13.67c0-1.75,0.02-2.47,0.06-2.7c0.03-0.21,0.62,0.58,0.88,0.64c0.26,0.07-0.07-0.16-0.14-0.22
					c-0.07-0.08-0.48-0.3-0.58-0.43c-0.1-0.13,0.31,0.04,0.74,0.13c0.63,0.13-0.51-0.16-0.01-0.17c0.44,0,0.27,0.09,0.66,0.01
					c0.17-0.03,0.54-0.06,1.18-0.03c1.04,0.04,2.65-0.12,4.59-0.1c1.94,0.02,2.5-0.04,2.64,0.09c0.13,0.13,0.85,0.39,0.92,0.24
					c0.06-0.15-0.27-0.27,0.62-0.31c0.89-0.04,2.49,0.08,3.52,0.08c1.03,0,2.5-0.12,2.76,0.03c0.26,0.15,0.5,0.13,0.66,0
					c0.17-0.13,0.26,0.02,1.32,0.02s1.7-0.05,2.72-0.13c0.62-0.05,1.25,0,1.25,0C94.67,13.12,95.1,12.97,95.38,13.02z"/>
				<path fill="#FFFFFF" stroke="#1D2132" stroke-width="0.1" stroke-linecap="square" stroke-miterlimit="22.9256" d="M89.23,14.37
					c0.39,0.85,0.1,3.16-0.14,3.85c-0.23,0.68,0.32,14.56,0.06,15.51s-0.54,1.4-0.4,0.89c0.13-0.52-0.1-1.33-0.07-0.4
					c0.04,0.93-0.05,1.69-0.05,1.93c0,0.06,0,0.06-0.5,0.1c-0.38,0.03-0.7,0.12-0.73,0c-0.04-0.11,0.63-1.56,0.66-1.62
					c0.16-0.24-0.76,1.45-0.83,1.6c-0.07,0.15-0.4,0.04-1.43-0.06c-1.01-0.1-2.05,0.02-2.56-0.1c-0.53-0.13,0.5,0.02,0.83-0.06
					c0.33-0.08,0.49,0.05,1.48-1.34s1.39-13.86,1.54-16.09c0.06-0.88,0.29-2.83,0.06-3.6c-0.19-0.61-0.37-1.3-0.3-1.42
					c0.07-0.12,0.14,0.1,0.3,0.3c0.17,0.21,0.2,0.23,0.43,0.42c0.23,0.2-0.29-0.51-1.03-1.15c-0.72-0.64-1.98-0.3-1.98-0.4
					c0-0.1,3.66-0.17,4.42-0.06C89.57,12.76,88.82,13.51,89.23,14.37z"/>
				<g>
					<path fill="#FFFFFF" stroke="#1D2132" stroke-width="0.1" stroke-linecap="square" stroke-miterlimit="22.9256" d="
						M96.02,26.18c0.12,0.31,0.1,1.15,0.14,3.07c0.04,1.91-0.07,2.68-0.11,3.04c-0.04,0.35-0.26,1.07-0.12,1.25
						c0.15,0.18-0.19,0.31-0.29,0.26c-0.11-0.05-0.62-0.1-1.49-0.01c-0.89,0.09-2.1-0.22-2.21-0.09c-0.11,0.14-0.19-0.09-0.15-0.26
						c0.04-0.18-0.08-0.49-0.1-0.86c-0.09-1.71-0.19-2.79-0.08-5.24c0.03-0.63,0.24-1.42,0.1-1.68c-0.15-0.27,0-0.31,0.19-0.22
						c0.19,0.09,0.27,0.21,0.98-0.01c0.69-0.22,1.25-0.19,1.98-0.05c0.74,0.14,0.91,0.09,1.02,0c0.11-0.09,0.17-0.18,0.17,0.19
						C96.04,25.64,95.93,25.85,96.02,26.18z"/>
					<path fill="none" stroke="#1D2132" stroke-width="0.1" stroke-linecap="square" stroke-miterlimit="22.9256" d="M92.38,33.3
						c0,0-0.68-1.58-0.68-3.77c0-2.19,0.5-3.64,0.5-3.64"/>
				</g>
				<g>
					<path fill="#FFFFFF" stroke="#1D2132" stroke-width="0.1" stroke-linecap="square" stroke-miterlimit="22.9256" d="M93.66,27.1
						c0.09,0.22,0.08,0.84,0.11,2.23c0.03,1.39-0.06,1.94-0.09,2.21c-0.03,0.25-0.21,0.78-0.09,0.91c0.13,0.13-0.15,0.22-0.23,0.2
						c-0.09-0.04-0.5-0.08-1.21-0.01c-0.71,0.06-1.7-0.17-1.79-0.07c-0.09,0.1-0.15-0.07-0.12-0.2s-0.06-0.36-0.08-0.63
						c-0.07-1.24-0.16-2.02-0.07-3.81c0.03-0.46,0.2-1.03,0.08-1.22s0-0.23,0.15-0.17c0.16,0.07,0.22,0.16,0.79-0.01
						c0.56-0.16,1.01-0.13,1.6-0.03c0.6,0.1,0.73,0.07,0.82,0c0.09-0.07,0.14-0.14,0.14,0.13C93.67,26.7,93.58,26.86,93.66,27.1z"/>
					<path fill="none" stroke="#1D2132" stroke-width="0.1" stroke-linecap="square" stroke-miterlimit="22.9256" d="M90.72,32.27
						c0,0-0.56-1.15-0.56-2.74c0-1.58,0.4-2.65,0.4-2.65"/>
				</g>
				<g>
					<path fill="#FFFFFF" stroke="#1D2132" stroke-width="0.1" stroke-linecap="square" stroke-miterlimit="22.9256" d="
						M96.02,15.98c0.12,0.31,0.1,1.15,0.14,3.07c0.04,1.91-0.07,2.68-0.11,3.04c-0.04,0.35-0.26,1.07-0.12,1.25
						c0.15,0.18-0.19,0.31-0.29,0.26c-0.11-0.05-0.62-0.1-1.49-0.01c-0.89,0.09-2.1-0.22-2.21-0.09c-0.11,0.14-0.19-0.09-0.15-0.26
						c0.04-0.18-0.08-0.49-0.1-0.86c-0.09-1.71-0.19-2.79-0.08-5.24c0.03-0.63,0.24-1.42,0.1-1.68c-0.15-0.27,0-0.31,0.19-0.22
						s0.27,0.21,0.98-0.01c0.69-0.22,1.25-0.19,1.98-0.05c0.74,0.14,0.91,0.09,1.02,0c0.11-0.09,0.17-0.18,0.17,0.19
						C96.04,15.44,95.93,15.66,96.02,15.98z"/>
					<path fill="none" stroke="#1D2132" stroke-width="0.1" stroke-linecap="square" stroke-miterlimit="22.9256" d="M92.38,23.11
						c0,0-0.68-1.58-0.68-3.77s0.5-3.64,0.5-3.64"/>
				</g>
				<g>
					<path fill="#FFFFFF" stroke="#1D2132" stroke-width="0.1" stroke-linecap="square" stroke-miterlimit="22.9256" d="
						M93.66,16.91c0.09,0.22,0.08,0.84,0.11,2.23c0.03,1.39-0.06,1.94-0.09,2.21c-0.03,0.25-0.21,0.78-0.09,0.91
						c0.13,0.13-0.15,0.22-0.23,0.2c-0.09-0.04-0.5-0.08-1.21-0.01c-0.71,0.06-1.7-0.17-1.79-0.07c-0.09,0.1-0.15-0.07-0.12-0.2
						c0.03-0.13-0.06-0.36-0.08-0.63c-0.07-1.24-0.16-2.02-0.07-3.81c0.03-0.46,0.2-1.03,0.08-1.22c-0.12-0.2,0-0.23,0.15-0.17
						c0.16,0.07,0.22,0.16,0.79-0.01c0.56-0.16,1.01-0.13,1.6-0.03c0.6,0.1,0.73,0.07,0.82,0c0.09-0.07,0.14-0.14,0.14,0.13
						C93.67,16.51,93.58,16.66,93.66,16.91z"/>
					<path fill="none" stroke="#1D2132" stroke-width="0.1" stroke-linecap="square" stroke-miterlimit="22.9256" d="M90.72,22.07
						c0,0-0.56-1.15-0.56-2.74c0-1.58,0.4-2.65,0.4-2.65"/>
				</g>
				<path fill="#FFFFFF" stroke="#1D2132" stroke-width="0.1" stroke-linecap="square" stroke-miterlimit="22.9256" d="M71.16,36.12
					h7.2c0.33,0,0.61-0.26,0.61-0.61V13.06c0-0.33-0.26-0.61-0.61-0.61h-7.2c-0.33,0-0.61,0.26-0.61,0.61v22.45
					C70.55,35.85,70.83,36.13,71.16,36.12z"/>
			</g>
			<g>
				
					<rect x="96.67" y="8.85" fill="#FFFFFF" stroke="#1D2132" stroke-width="0.1" stroke-linecap="square" stroke-miterlimit="22.9256" width="0.64" height="31.04"/>
				<path fill="#FFFFFF" stroke="#1D2132" stroke-width="0.1" stroke-linecap="square" stroke-miterlimit="22.9256" d="M96.64,39.61
					h0.03V9.12h-0.04c-0.25,0-0.46,0.21-0.46,0.46v29.57C96.17,39.41,96.38,39.61,96.64,39.61z"/>
				<g>
					<g>
						<g>
							<path fill="#FFFFFF" stroke="#1D2132" stroke-width="0.1" stroke-linecap="square" stroke-miterlimit="22.9256" d="
								M96.67,38.86h-0.16c-0.25,0-0.46-0.21-0.46-0.46v-0.07c0-0.25,0.21-0.46,0.46-0.46h0.16V38.86L96.67,38.86z"/>
							<path fill="#FFFFFF" stroke="#1D2132" stroke-width="0.1" stroke-linecap="square" stroke-miterlimit="22.9256" d="
								M91.91,34.77L91.91,34.77c-0.11-0.02-0.25,0.22-0.33,0.55c-0.08,0.32-0.06,0.61,0.05,0.63l0,0c0.41,0.08,0.83,0.1,1.24,0.06
								l0.18-0.73C92.69,35.04,92.3,34.88,91.91,34.77z"/>
							
								<ellipse transform="matrix(0.2315 -0.9728 0.9728 0.2315 36.758 117.8296)" fill="#FFFFFF" stroke="#1D2132" stroke-width="0.1" stroke-linecap="square" stroke-miterlimit="22.9256" cx="92.96" cy="35.65" rx="0.38" ry="0.13"/>
							<path fill="#FFFFFF" stroke="#1D2132" stroke-width="0.1" stroke-linecap="square" stroke-miterlimit="22.9256" d="
								M93.07,35.6l0.08,0.03c0.02,0.01,0.47,0.19,0.8,0.85c0.06,0.12,0.11,0.24,0.17,0.38c0.17,0.39,0.33,0.79,0.67,1.05
								c0.45,0.35,1.19,0.35,1.2,0.35h0.08v0.17h-0.08c-0.04,0-0.81,0-1.31-0.39c-0.37-0.3-0.56-0.73-0.72-1.12
								c-0.06-0.13-0.11-0.25-0.17-0.37c-0.3-0.61-0.71-0.77-0.71-0.77L93,35.75C92.99,35.69,93.02,35.59,93.07,35.6z"/>
						</g>
					</g>
					<g>
						<g>
							<path fill="#FFFFFF" stroke="#1D2132" stroke-width="0.1" stroke-linecap="square" stroke-miterlimit="22.9256" d="
								M96.67,9.88h-0.16c-0.25,0-0.46,0.21-0.46,0.46v0.07c0,0.25,0.21,0.46,0.46,0.46h0.16V9.88L96.67,9.88z"/>
							<path fill="#FFFFFF" stroke="#1D2132" stroke-width="0.1" stroke-linecap="square" stroke-miterlimit="22.9256" d="
								M91.91,13.98L91.91,13.98c-0.11,0.02-0.25-0.22-0.33-0.55s-0.06-0.61,0.05-0.63l0,0c0.41-0.08,0.83-0.1,1.24-0.06l0.18,0.73
								C92.69,13.7,92.3,13.87,91.91,13.98z"/>
							
								<ellipse transform="matrix(0.9728 -0.2315 0.2315 0.9728 -0.5074 21.8763)" fill="#FFFFFF" stroke="#1D2132" stroke-width="0.1" stroke-linecap="square" stroke-miterlimit="22.9256" cx="92.96" cy="13.1" rx="0.13" ry="0.38"/>
							<path fill="#FFFFFF" stroke="#1D2132" stroke-width="0.1" stroke-linecap="square" stroke-miterlimit="22.9256" d="
								M93.07,13.15l0.08-0.03c0.02-0.01,0.47-0.19,0.8-0.85c0.06-0.12,0.11-0.24,0.17-0.38c0.17-0.39,0.33-0.79,0.67-1.05
								c0.45-0.35,1.19-0.35,1.2-0.35h0.08v-0.17h-0.08c-0.04,0-0.81,0-1.31,0.39c-0.37,0.3-0.56,0.73-0.72,1.12
								c-0.06,0.13-0.11,0.25-0.17,0.37c-0.3,0.61-0.71,0.77-0.71,0.77L93,13C92.99,13.06,93.02,13.15,93.07,13.15z"/>
						</g>
					</g>
				</g>
			</g>
		</g>
	</g>
	<g>
		<g>
			
				<rect x="68.85" y="5" fill="#FFFFFF" stroke="#1D2132" stroke-width="0.1" stroke-linecap="square" stroke-miterlimit="10" width="11.01" height="0.83"/>
			
				<line fill="none" stroke="#1D2132" stroke-width="0.1" stroke-linecap="square" stroke-miterlimit="10" x1="69.71" y1="5.67" x2="69.71" y2="5.17"/>
			
				<line fill="none" stroke="#1D2132" stroke-width="0.1" stroke-linecap="square" stroke-miterlimit="10" x1="70.01" y1="5.67" x2="70.01" y2="5.17"/>
			
				<line fill="none" stroke="#1D2132" stroke-width="0.1" stroke-linecap="square" stroke-miterlimit="10" x1="69.12" y1="5.67" x2="69.12" y2="5.17"/>
			
				<line fill="none" stroke="#1D2132" stroke-width="0.1" stroke-linecap="square" stroke-miterlimit="10" x1="69.42" y1="5.67" x2="69.42" y2="5.17"/>
			
				<line fill="none" stroke="#1D2132" stroke-width="0.1" stroke-linecap="square" stroke-miterlimit="10" x1="70.32" y1="5.67" x2="70.32" y2="5.17"/>
			
				<line fill="none" stroke="#1D2132" stroke-width="0.1" stroke-linecap="square" stroke-miterlimit="10" x1="70.6" y1="5.67" x2="70.6" y2="5.17"/>
			
				<line fill="none" stroke="#1D2132" stroke-width="0.1" stroke-linecap="square" stroke-miterlimit="10" x1="70.9" y1="5.67" x2="70.9" y2="5.17"/>
			
				<line fill="none" stroke="#1D2132" stroke-width="0.1" stroke-linecap="square" stroke-miterlimit="10" x1="71.21" y1="5.67" x2="71.21" y2="5.17"/>
			
				<line fill="none" stroke="#1D2132" stroke-width="0.1" stroke-linecap="square" stroke-miterlimit="10" x1="71.5" y1="5.67" x2="71.5" y2="5.17"/>
			
				<line fill="none" stroke="#1D2132" stroke-width="0.1" stroke-linecap="square" stroke-miterlimit="10" x1="71.79" y1="5.67" x2="71.79" y2="5.17"/>
			
				<line fill="none" stroke="#1D2132" stroke-width="0.1" stroke-linecap="square" stroke-miterlimit="10" x1="72.69" y1="5.67" x2="72.69" y2="5.17"/>
			
				<line fill="none" stroke="#1D2132" stroke-width="0.1" stroke-linecap="square" stroke-miterlimit="10" x1="72.99" y1="5.67" x2="72.99" y2="5.17"/>
			
				<line fill="none" stroke="#1D2132" stroke-width="0.1" stroke-linecap="square" stroke-miterlimit="10" x1="72.1" y1="5.67" x2="72.1" y2="5.17"/>
			
				<line fill="none" stroke="#1D2132" stroke-width="0.1" stroke-linecap="square" stroke-miterlimit="10" x1="72.39" y1="5.67" x2="72.39" y2="5.17"/>
			
				<line fill="none" stroke="#1D2132" stroke-width="0.1" stroke-linecap="square" stroke-miterlimit="10" x1="73.28" y1="5.67" x2="73.28" y2="5.17"/>
			
				<line fill="none" stroke="#1D2132" stroke-width="0.1" stroke-linecap="square" stroke-miterlimit="10" x1="73.58" y1="5.67" x2="73.58" y2="5.17"/>
			
				<line fill="none" stroke="#1D2132" stroke-width="0.1" stroke-linecap="square" stroke-miterlimit="10" x1="73.88" y1="5.67" x2="73.88" y2="5.17"/>
			
				<line fill="none" stroke="#1D2132" stroke-width="0.1" stroke-linecap="square" stroke-miterlimit="10" x1="74.17" y1="5.67" x2="74.17" y2="5.17"/>
			
				<line fill="none" stroke="#1D2132" stroke-width="0.1" stroke-linecap="square" stroke-miterlimit="10" x1="74.47" y1="5.67" x2="74.47" y2="5.17"/>
			
				<line fill="none" stroke="#1D2132" stroke-width="0.1" stroke-linecap="square" stroke-miterlimit="10" x1="74.78" y1="5.67" x2="74.78" y2="5.17"/>
			
				<line fill="none" stroke="#1D2132" stroke-width="0.1" stroke-linecap="square" stroke-miterlimit="10" x1="75.67" y1="5.67" x2="75.67" y2="5.17"/>
			
				<line fill="none" stroke="#1D2132" stroke-width="0.1" stroke-linecap="square" stroke-miterlimit="10" x1="75.96" y1="5.67" x2="75.96" y2="5.17"/>
			
				<line fill="none" stroke="#1D2132" stroke-width="0.1" stroke-linecap="square" stroke-miterlimit="10" x1="75.07" y1="5.67" x2="75.07" y2="5.17"/>
			
				<line fill="none" stroke="#1D2132" stroke-width="0.1" stroke-linecap="square" stroke-miterlimit="10" x1="75.36" y1="5.67" x2="75.36" y2="5.17"/>
			
				<line fill="none" stroke="#1D2132" stroke-width="0.1" stroke-linecap="square" stroke-miterlimit="10" x1="76.25" y1="5.67" x2="76.25" y2="5.17"/>
			
				<line fill="none" stroke="#1D2132" stroke-width="0.1" stroke-linecap="square" stroke-miterlimit="10" x1="76.56" y1="5.67" x2="76.56" y2="5.17"/>
			
				<line fill="none" stroke="#1D2132" stroke-width="0.1" stroke-linecap="square" stroke-miterlimit="10" x1="76.85" y1="5.67" x2="76.85" y2="5.17"/>
			
				<line fill="none" stroke="#1D2132" stroke-width="0.1" stroke-linecap="square" stroke-miterlimit="10" x1="77.14" y1="5.67" x2="77.14" y2="5.17"/>
			
				<line fill="none" stroke="#1D2132" stroke-width="0.1" stroke-linecap="square" stroke-miterlimit="10" x1="77.44" y1="5.67" x2="77.44" y2="5.17"/>
			
				<line fill="none" stroke="#1D2132" stroke-width="0.1" stroke-linecap="square" stroke-miterlimit="10" x1="77.75" y1="5.67" x2="77.75" y2="5.17"/>
			
				<line fill="none" stroke="#1D2132" stroke-width="0.1" stroke-linecap="square" stroke-miterlimit="10" x1="78.64" y1="5.67" x2="78.64" y2="5.17"/>
			
				<line fill="none" stroke="#1D2132" stroke-width="0.1" stroke-linecap="square" stroke-miterlimit="10" x1="78.93" y1="5.67" x2="78.93" y2="5.17"/>
			
				<line fill="none" stroke="#1D2132" stroke-width="0.1" stroke-linecap="square" stroke-miterlimit="10" x1="78.04" y1="5.67" x2="78.04" y2="5.17"/>
			
				<line fill="none" stroke="#1D2132" stroke-width="0.1" stroke-linecap="square" stroke-miterlimit="10" x1="78.33" y1="5.67" x2="78.33" y2="5.17"/>
			
				<line fill="none" stroke="#1D2132" stroke-width="0.1" stroke-linecap="square" stroke-miterlimit="10" x1="79.24" y1="5.67" x2="79.24" y2="5.17"/>
			
				<line fill="none" stroke="#1D2132" stroke-width="0.1" stroke-linecap="square" stroke-miterlimit="10" x1="79.53" y1="5.67" x2="79.53" y2="5.17"/>
		</g>
		<path fill="none" stroke="#1D2132" stroke-width="0.1" stroke-linecap="square" stroke-miterlimit="10" d="M73.11,6.76
			c-0.43,0,0-0.77-0.43-0.77s0,0.77-0.43,0.77s0-0.77-0.43-0.77s0,0.77-0.43,0.77s0-0.77-0.43-0.77s0,0.77-0.43,0.77
			s0-0.77-0.43-0.77s0,0.77-0.43,0.77s0-0.77-0.43-0.77s0,0.77-0.43,0.77s0-0.77-0.43-0.77s0,0.77-0.43,0.77s0-0.77-0.43-0.77
			s0,0.77-0.43,0.77s0-0.77-0.43-0.77s0,0.77-0.43,0.77s0-0.77-0.43-0.77s0,0.77-0.43,0.77s0-0.77-0.43-0.77s0,0.77-0.43,0.77
			s0-0.77-0.43-0.77s0,0.77-0.43,0.77s0-0.77-0.43-0.77s0,0.77-0.43,0.77s0-0.77-0.43-0.77s0,0.77-0.43,0.77s0-0.77-0.43-0.77
			s0,0.77-0.43,0.77s0-0.77-0.43-0.77s0,0.77-0.43,0.77s0-0.77-0.43-0.77s0,0.77-0.43,0.77s0-0.77-0.43-0.77"/>
		<path fill="none" stroke="#1D2132" stroke-width="0.1" stroke-linecap="square" stroke-miterlimit="10" d="M75.69,6.76
			c0.43,0,0-0.77,0.43-0.77s0,0.77,0.43,0.77s0-0.77,0.43-0.77s0,0.77,0.43,0.77s0-0.77,0.43-0.77s0,0.77,0.43,0.77
			s0-0.77,0.43-0.77s0,0.77,0.43,0.77s0-0.77,0.43-0.77s0,0.77,0.43,0.77s0-0.77,0.43-0.77s0,0.77,0.43,0.77s0-0.77,0.43-0.77
			s0,0.77,0.43,0.77s0-0.77,0.43-0.77s0,0.77,0.43,0.77s0-0.77,0.43-0.77s0,0.77,0.43,0.77s0-0.77,0.43-0.77s0,0.77,0.43,0.77
			s0-0.77,0.43-0.77s0,0.77,0.43,0.77s0-0.77,0.43-0.77s0,0.77,0.43,0.77s0-0.77,0.43-0.77s0,0.77,0.43,0.77s0-0.77,0.43-0.77
			s0,0.77,0.43,0.77s0-0.77,0.43-0.77s0,0.77,0.43,0.77s0-0.77,0.43-0.77s0,0.77,0.43,0.77s0-0.77,0.43-0.77"/>
	</g>
	<g>
		<g>
			
				<rect x="24.45" y="5" fill="#FFFFFF" stroke="#1D2132" stroke-width="0.1" stroke-linecap="square" stroke-miterlimit="10" width="11.01" height="0.83"/>
			
				<line fill="none" stroke="#1D2132" stroke-width="0.1" stroke-linecap="square" stroke-miterlimit="10" x1="25.32" y1="5.66" x2="25.32" y2="5.17"/>
			
				<line fill="none" stroke="#1D2132" stroke-width="0.1" stroke-linecap="square" stroke-miterlimit="10" x1="25.61" y1="5.66" x2="25.61" y2="5.17"/>
			
				<line fill="none" stroke="#1D2132" stroke-width="0.1" stroke-linecap="square" stroke-miterlimit="10" x1="24.72" y1="5.66" x2="24.72" y2="5.17"/>
			
				<line fill="none" stroke="#1D2132" stroke-width="0.1" stroke-linecap="square" stroke-miterlimit="10" x1="25.02" y1="5.66" x2="25.02" y2="5.17"/>
			
				<line fill="none" stroke="#1D2132" stroke-width="0.1" stroke-linecap="square" stroke-miterlimit="10" x1="25.91" y1="5.66" x2="25.91" y2="5.17"/>
			
				<line fill="none" stroke="#1D2132" stroke-width="0.1" stroke-linecap="square" stroke-miterlimit="10" x1="26.21" y1="5.66" x2="26.21" y2="5.17"/>
			
				<line fill="none" stroke="#1D2132" stroke-width="0.1" stroke-linecap="square" stroke-miterlimit="10" x1="26.5" y1="5.66" x2="26.5" y2="5.17"/>
			
				<line fill="none" stroke="#1D2132" stroke-width="0.1" stroke-linecap="square" stroke-miterlimit="10" x1="26.8" y1="5.66" x2="26.8" y2="5.17"/>
			
				<line fill="none" stroke="#1D2132" stroke-width="0.1" stroke-linecap="square" stroke-miterlimit="10" x1="27.1" y1="5.66" x2="27.1" y2="5.17"/>
			
				<line fill="none" stroke="#1D2132" stroke-width="0.1" stroke-linecap="square" stroke-miterlimit="10" x1="27.4" y1="5.66" x2="27.4" y2="5.17"/>
			
				<line fill="none" stroke="#1D2132" stroke-width="0.1" stroke-linecap="square" stroke-miterlimit="10" x1="28.29" y1="5.66" x2="28.29" y2="5.17"/>
			
				<line fill="none" stroke="#1D2132" stroke-width="0.1" stroke-linecap="square" stroke-miterlimit="10" x1="28.59" y1="5.66" x2="28.59" y2="5.17"/>
			
				<line fill="none" stroke="#1D2132" stroke-width="0.1" stroke-linecap="square" stroke-miterlimit="10" x1="27.69" y1="5.66" x2="27.69" y2="5.17"/>
			
				<line fill="none" stroke="#1D2132" stroke-width="0.1" stroke-linecap="square" stroke-miterlimit="10" x1="27.99" y1="5.66" x2="27.99" y2="5.17"/>
			
				<line fill="none" stroke="#1D2132" stroke-width="0.1" stroke-linecap="square" stroke-miterlimit="10" x1="28.88" y1="5.66" x2="28.88" y2="5.17"/>
			
				<line fill="none" stroke="#1D2132" stroke-width="0.1" stroke-linecap="square" stroke-miterlimit="10" x1="29.18" y1="5.66" x2="29.18" y2="5.17"/>
			
				<line fill="none" stroke="#1D2132" stroke-width="0.1" stroke-linecap="square" stroke-miterlimit="10" x1="29.48" y1="5.66" x2="29.48" y2="5.17"/>
			
				<line fill="none" stroke="#1D2132" stroke-width="0.1" stroke-linecap="square" stroke-miterlimit="10" x1="29.77" y1="5.66" x2="29.77" y2="5.17"/>
			
				<line fill="none" stroke="#1D2132" stroke-width="0.1" stroke-linecap="square" stroke-miterlimit="10" x1="30.07" y1="5.66" x2="30.07" y2="5.17"/>
			
				<line fill="none" stroke="#1D2132" stroke-width="0.1" stroke-linecap="square" stroke-miterlimit="10" x1="30.37" y1="5.66" x2="30.37" y2="5.17"/>
			
				<line fill="none" stroke="#1D2132" stroke-width="0.1" stroke-linecap="square" stroke-miterlimit="10" x1="31.26" y1="5.66" x2="31.26" y2="5.17"/>
			
				<line fill="none" stroke="#1D2132" stroke-width="0.1" stroke-linecap="square" stroke-miterlimit="10" x1="31.56" y1="5.66" x2="31.56" y2="5.17"/>
			
				<line fill="none" stroke="#1D2132" stroke-width="0.1" stroke-linecap="square" stroke-miterlimit="10" x1="30.67" y1="5.66" x2="30.67" y2="5.17"/>
			
				<line fill="none" stroke="#1D2132" stroke-width="0.1" stroke-linecap="square" stroke-miterlimit="10" x1="30.96" y1="5.66" x2="30.96" y2="5.17"/>
			
				<line fill="none" stroke="#1D2132" stroke-width="0.1" stroke-linecap="square" stroke-miterlimit="10" x1="31.86" y1="5.66" x2="31.86" y2="5.17"/>
			
				<line fill="none" stroke="#1D2132" stroke-width="0.1" stroke-linecap="square" stroke-miterlimit="10" x1="32.15" y1="5.66" x2="32.15" y2="5.17"/>
			
				<line fill="none" stroke="#1D2132" stroke-width="0.1" stroke-linecap="square" stroke-miterlimit="10" x1="32.45" y1="5.66" x2="32.45" y2="5.17"/>
			
				<line fill="none" stroke="#1D2132" stroke-width="0.1" stroke-linecap="square" stroke-miterlimit="10" x1="32.75" y1="5.66" x2="32.75" y2="5.17"/>
			
				<line fill="none" stroke="#1D2132" stroke-width="0.1" stroke-linecap="square" stroke-miterlimit="10" x1="33.05" y1="5.66" x2="33.05" y2="5.17"/>
			
				<line fill="none" stroke="#1D2132" stroke-width="0.1" stroke-linecap="square" stroke-miterlimit="10" x1="33.34" y1="5.66" x2="33.34" y2="5.17"/>
			
				<line fill="none" stroke="#1D2132" stroke-width="0.1" stroke-linecap="square" stroke-miterlimit="10" x1="34.23" y1="5.66" x2="34.23" y2="5.17"/>
			
				<line fill="none" stroke="#1D2132" stroke-width="0.1" stroke-linecap="square" stroke-miterlimit="10" x1="34.53" y1="5.66" x2="34.53" y2="5.17"/>
			
				<line fill="none" stroke="#1D2132" stroke-width="0.1" stroke-linecap="square" stroke-miterlimit="10" x1="33.64" y1="5.66" x2="33.64" y2="5.17"/>
			
				<line fill="none" stroke="#1D2132" stroke-width="0.1" stroke-linecap="square" stroke-miterlimit="10" x1="33.94" y1="5.66" x2="33.94" y2="5.17"/>
			
				<line fill="none" stroke="#1D2132" stroke-width="0.1" stroke-linecap="square" stroke-miterlimit="10" x1="34.83" y1="5.66" x2="34.83" y2="5.17"/>
			
				<line fill="none" stroke="#1D2132" stroke-width="0.1" stroke-linecap="square" stroke-miterlimit="10" x1="35.13" y1="5.66" x2="35.13" y2="5.17"/>
		</g>
		<path fill="none" stroke="#1D2132" stroke-width="0.1" stroke-linecap="square" stroke-miterlimit="10" d="M28.7,6.76
			c-0.43,0,0-0.77-0.43-0.77s0,0.77-0.43,0.77s0-0.77-0.43-0.77s0,0.77-0.43,0.77s0-0.77-0.43-0.77s0,0.77-0.43,0.77
			s0-0.77-0.43-0.77s0,0.77-0.43,0.77s0-0.77-0.43-0.77s0,0.77-0.43,0.77s0-0.77-0.43-0.77s0,0.77-0.43,0.77s0-0.77-0.43-0.77
			s0,0.77-0.43,0.77s0-0.77-0.43-0.77s0,0.77-0.43,0.77s0-0.77-0.43-0.77s0,0.77-0.43,0.77s0-0.77-0.43-0.77s0,0.77-0.43,0.77
			s0-0.77-0.43-0.77s0,0.77-0.43,0.77s0-0.77-0.43-0.77s0,0.77-0.43,0.77s0-0.77-0.43-0.77s0,0.77-0.43,0.77s0-0.77-0.43-0.77
			s0,0.77-0.43,0.77s0-0.77-0.43-0.77s0,0.77-0.43,0.77s0-0.77-0.43-0.77s0,0.77-0.43,0.77s0-0.77-0.43-0.77"/>
		<path fill="none" stroke="#1D2132" stroke-width="0.1" stroke-linecap="square" stroke-miterlimit="10" d="M31.3,6.76
			c0.43,0,0-0.77,0.43-0.77c0.43,0,0,0.77,0.43,0.77c0.43,0,0-0.77,0.43-0.77s0,0.77,0.43,0.77c0.43,0,0-0.77,0.43-0.77
			c0.43,0,0,0.77,0.43,0.77s0-0.77,0.43-0.77s0,0.77,0.43,0.77s0-0.77,0.43-0.77s0,0.77,0.43,0.77s0-0.77,0.43-0.77
			s0,0.77,0.43,0.77s0-0.77,0.43-0.77s0,0.77,0.43,0.77s0-0.77,0.43-0.77s0,0.77,0.43,0.77s0-0.77,0.43-0.77s0,0.77,0.43,0.77
			s0-0.77,0.43-0.77s0,0.77,0.43,0.77s0-0.77,0.43-0.77s0,0.77,0.43,0.77s0-0.77,0.43-0.77s0,0.77,0.43,0.77s0-0.77,0.43-0.77
			s0,0.77,0.43,0.77s0-0.77,0.43-0.77s0,0.77,0.43,0.77s0-0.77,0.43-0.77s0,0.77,0.43,0.77s0-0.77,0.43-0.77s0,0.77,0.43,0.77
			s0-0.77,0.43-0.77"/>
	</g>
	<g>
		<g>
			<path fill="none" stroke="#1D2132" stroke-width="0.1" stroke-linejoin="bevel" stroke-dasharray="0.492,0.492" d="M23.85,10.71
				h23.47c0.74,0,1.34,0.6,1.34,1.34v16.59c0,0.74-0.6,1.34-1.34,1.34H23.84c-0.74,0-1.34-0.6-1.34-1.34V12.05
				C22.5,11.31,23.1,10.71,23.85,10.71z"/>
		</g>
		<g>
			<path fill="#FFFFFF" stroke="#1D2132" stroke-width="0.1" stroke-linejoin="bevel" stroke-miterlimit="22.9256" d="M40.59,10.09
				V9.23c0-0.35,0.28-0.63,0.63-0.63h8.93v23.51h-8.93c-0.35,0-0.63-0.28-0.63-0.63v-0.86c0-0.35,0.28-0.63,0.63-0.63h6.32
				c0.35,0,0.63-0.28,0.63-0.63V11.34c0-0.35-0.28-0.63-0.63-0.63h-6.32C40.87,10.71,40.59,10.43,40.59,10.09z"/>
			<path fill="none" stroke="#1D2132" stroke-width="0.1" stroke-linejoin="bevel" stroke-miterlimit="22.9256" d="M50.15,32.1
				c0,0-0.99-0.48-1.53-1.36c-0.54-0.87-0.45-1.38-0.45-1.38"/>
			<path fill="none" stroke="#1D2132" stroke-width="0.1" stroke-linejoin="bevel" stroke-miterlimit="22.9256" d="M48.16,32.1
				c0,0-0.53-0.27-0.64-1.06c-0.1-0.79,0.13-1.06,0.13-1.06"/>
			<path fill="none" stroke="#1D2132" stroke-width="0.1" stroke-linejoin="bevel" stroke-miterlimit="22.9256" d="M50.15,8.6
				c0,0-1,0.48-1.53,1.36c-0.54,0.87-0.45,1.38-0.45,1.38"/>
			<path fill="none" stroke="#1D2132" stroke-width="0.1" stroke-linejoin="bevel" stroke-miterlimit="22.9256" d="M48.16,8.6
				c0,0-0.53,0.26-0.64,1.05c-0.1,0.79,0.13,1.06,0.13,1.06"/>
			<path fill="#FFFFFF" stroke="#1D2132" stroke-width="0.1" stroke-linejoin="bevel" stroke-miterlimit="22.9256" d="M47.03,20.35
				h-5.98c-0.63,0-1.14,0.51-1.14,1.14v7.36c0,0.63,0.51,1.14,1.14,1.14h5.98c0.63,0,1.14-0.51,1.14-1.14v-7.36
				C48.17,20.86,47.66,20.35,47.03,20.35z"/>
			<path fill="#FFFFFF" stroke="#1D2132" stroke-width="0.1" stroke-linejoin="bevel" stroke-miterlimit="22.9256" d="M47.03,10.71
				h-5.98c-0.63,0-1.14,0.51-1.14,1.14v7.36c0,0.63,0.51,1.14,1.14,1.14h5.98c0.63,0,1.14-0.51,1.14-1.14v-7.36
				C48.17,11.22,47.66,10.71,47.03,10.71z"/>
			<path fill="#FFFFFF" stroke="#1D2132" stroke-width="0.1" stroke-linejoin="bevel" stroke-miterlimit="22.9256" d="M47.86,20.34
				h-0.43c-0.44,0-0.8,0.36-0.8,0.8v8.05c0,0.44,0.36,0.8,0.8,0.8h0.43c0.44,0,0.8-0.36,0.8-0.8v-8.05
				C48.66,20.7,48.31,20.35,47.86,20.34z"/>
			<path fill="#FFFFFF" stroke="#1D2132" stroke-width="0.1" stroke-linejoin="bevel" stroke-miterlimit="22.9256" d="M47.86,10.7
				h-0.43c-0.44,0-0.8,0.36-0.8,0.8v8.05c0,0.44,0.36,0.8,0.8,0.8h0.43c0.44,0,0.8-0.36,0.8-0.8V11.5
				C48.66,11.06,48.31,10.71,47.86,10.7z"/>
		</g>
		<g>
			<path fill="#FFFFFF" stroke="#1D2132" stroke-width="0.1" stroke-linejoin="bevel" stroke-miterlimit="22.9256" d="M43.27,15.32
				c-0.03-0.66-0.16-1.31-0.34-2.49s0.19-1.33,0.12-1.5s0.09-0.2,0.23-0.22c0.14-0.03,0.14-0.21,1.13-0.33s1.3,0.07,1.45-0.04
				c0.15-0.12,0.15,0.07,0.27,0.38c0.11,0.31,0.32,1.04,0.54,2.76c0.21,1.72-0.07,2.46-0.11,2.68c-0.04,0.22-0.25,0.1-0.85,0.31
				c-0.6,0.22-1.07,0.08-1.27-0.01c-0.2-0.09-0.56,0-0.67-0.23C43.77,16.63,43.3,15.98,43.27,15.32z"/>
			<path fill="#FFFFFF" stroke="#1D2132" stroke-width="0.1" stroke-linejoin="bevel" stroke-miterlimit="22.9256" d="M43.2,11.11
				c0,0,0.15,0.06,0.69-0.08s1.8-0.09,1.98,0.03s0.18,1.18,0.25,2.38s0.32,1.92,0.36,2.46s-0.26,0.56-0.71,0.72
				c-0.44,0.16-1.04,0.13-1.28,0.08c-0.24-0.05-0.58,0.06-0.58,0.06"/>
		</g>
		<g>
			<path fill="#FFFFFF" stroke="#1D2132" stroke-width="0.1" stroke-linejoin="bevel" stroke-miterlimit="22.9256" d="M43.09,26.81
				c0.05-0.72,0.01-1.43-0.01-2.72c-0.02-1.29,0.37-1.4,0.32-1.59s0.11-0.2,0.25-0.2s0.16-0.19,1.16-0.18
				c1,0.02,1.29,0.27,1.45,0.17c0.16-0.1,0.14,0.1,0.22,0.45c0.07,0.36,0.18,1.16,0.17,3.04c-0.01,1.88-0.39,2.63-0.46,2.86
				c-0.06,0.23-0.25,0.07-0.88,0.21c-0.62,0.14-1.07-0.08-1.26-0.2s-0.56-0.08-0.64-0.34C43.41,28.31,43.02,27.54,43.09,26.81z"/>
			<path fill="#FFFFFF" stroke="#1D2132" stroke-width="0.1" stroke-linejoin="bevel" stroke-miterlimit="22.9256" d="M43.57,22.32
				c0,0,0.14,0.1,0.7,0.02c0.56-0.07,1.79,0.16,1.96,0.32c0.16,0.16,0.02,1.29-0.07,2.59c-0.09,1.29,0.07,2.1,0.03,2.68
				c-0.03,0.58-0.34,0.55-0.8,0.66c-0.46,0.11-1.04-0.01-1.28-0.1c-0.23-0.09-0.58-0.02-0.58-0.02"/>
		</g>
	</g>
	<g>
		<g>
			
				<rect x="51.39" y="5.27" fill="#FFFFFF" stroke="#1D2132" stroke-width="0.1" stroke-linejoin="bevel" stroke-miterlimit="22.9256" width="6.31" height="38.02"/>
			
				<rect x="51.39" y="17.78" fill="#FFFFFF" stroke="#1D2132" stroke-width="0.1" stroke-linejoin="bevel" stroke-miterlimit="22.9256" width="6.31" height="13"/>
		</g>
		<g>
			<path fill="#FFFFFF" stroke="#1D2132" stroke-width="0.1" stroke-linecap="square" stroke-miterlimit="10" d="M53.82,37.17h-0.37
				c-0.03,0.01-0.07,0.07-0.1,0.12c-0.11,0.16-0.28,0.41-0.65,0.47c-0.27,0.04-0.52-0.05-0.67-0.26c-0.16-0.21-0.18-0.51-0.05-0.76
				c0.2-0.39,0.61-0.44,0.8-0.41c0.07,0.01,0.11,0.07,0.1,0.13c-0.01,0.07-0.07,0.11-0.13,0.1c-0.01,0-0.38-0.05-0.56,0.29
				c-0.09,0.17-0.08,0.37,0.03,0.52c0.1,0.14,0.26,0.2,0.44,0.17c0.27-0.05,0.4-0.23,0.5-0.38c0.08-0.11,0.15-0.22,0.28-0.22h0.38
				c0.07,0,0.12,0.06,0.12,0.12S53.89,37.17,53.82,37.17z M53.44,37.17L53.44,37.17L53.44,37.17z"/>
			<path fill="#FFFFFF" stroke="#1D2132" stroke-width="0.1" stroke-linecap="square" stroke-miterlimit="10" d="M56.25,41.63
				c-0.28,0.07-0.56-0.05-0.7-0.31c0-0.01-0.01-0.01-0.01-0.02l-1.69-3.56c-0.01-0.03-0.02-0.06-0.02-0.09v-1.2
				c0-0.03,0.01-0.06,0.02-0.09l1.69-3.56c0-0.01,0.01-0.01,0.01-0.02c0.13-0.25,0.42-0.38,0.7-0.31s0.21,0.4,0.21,0.69v7.79
				C56.46,41.24,56.54,41.56,56.25,41.63z M54.88,36.48v1.11l1.08,3.77c0.06,0.1,0.15,0.09,0.18,0.08s0.12-0.04,0.12-0.16v-8.47
				c0-0.12-0.09-0.15-0.12-0.16c-0.03,0-0.12-0.02-0.18,0.08L54.88,36.48z"/>
		</g>
		<g>
			<path fill="#FFFFFF" stroke="#1D2132" stroke-width="0.1" stroke-linecap="square" stroke-miterlimit="10" d="M53.82,11.97h-0.37
				c-0.03,0.01-0.07,0.07-0.1,0.12c-0.11,0.16-0.28,0.41-0.65,0.47c-0.27,0.04-0.52-0.05-0.67-0.26c-0.16-0.21-0.18-0.51-0.05-0.76
				c0.2-0.39,0.61-0.44,0.8-0.41c0.07,0.01,0.11,0.07,0.1,0.13c-0.01,0.07-0.07,0.11-0.13,0.1c-0.01,0-0.38-0.05-0.56,0.29
				c-0.09,0.17-0.08,0.37,0.03,0.52c0.1,0.14,0.26,0.2,0.44,0.17c0.27-0.05,0.4-0.23,0.5-0.38c0.08-0.11,0.15-0.22,0.28-0.22h0.38
				c0.07,0,0.12,0.06,0.12,0.12S53.89,11.97,53.82,11.97z M53.44,11.97L53.44,11.97L53.44,11.97z"/>
			<path fill="#FFFFFF" stroke="#1D2132" stroke-width="0.1" stroke-linecap="square" stroke-miterlimit="10" d="M56.25,16.43
				c-0.28,0.07-0.56-0.05-0.7-0.31c0-0.01-0.01-0.01-0.01-0.02l-1.69-3.56c-0.01-0.03-0.02-0.06-0.02-0.09v-1.2
				c0-0.03,0.01-0.06,0.02-0.09l1.69-3.56c0-0.01,0.01-0.01,0.01-0.02c0.13-0.25,0.42-0.38,0.7-0.31s0.21,0.4,0.21,0.69v7.79
				C56.46,16.04,56.54,16.36,56.25,16.43z M54.88,11.28v1.11l1.08,3.77c0.06,0.1,0.15,0.09,0.18,0.08s0.12-0.04,0.12-0.16V7.61
				c0-0.12-0.09-0.15-0.12-0.16c-0.03,0-0.12-0.02-0.18,0.08L54.88,11.28z"/>
		</g>
		<g>
			<path fill="#FFFFFF" stroke="#1D2132" stroke-width="0.1" stroke-linecap="square" stroke-miterlimit="10" d="M53.17,23.45v2.01
				c0,0.5,0.41,0.91,0.91,0.91h0.26c0.5,0,0.91-0.41,0.91-0.91v-2.01c0-0.5-0.41-0.91-0.91-0.91h-0.26
				C53.58,22.54,53.17,22.94,53.17,23.45z"/>
			<path fill="#FFFFFF" stroke="#1D2132" stroke-width="0.1" stroke-linecap="square" stroke-miterlimit="10" d="M54.01,23.64v1.63
				c0,0.22,0.17,0.39,0.39,0.39h0.08c0.22,0,0.39-0.17,0.39-0.39v-1.63c0-0.22-0.17-0.39-0.39-0.39H54.4
				C54.18,23.25,54.01,23.42,54.01,23.64z"/>
			
				<rect x="54.69" y="17.69" fill="#FFFFFF" stroke="#1D2132" stroke-width="0.1" stroke-linecap="square" stroke-miterlimit="10" width="0.18" height="13.51"/>
			<polygon fill="#FFFFFF" stroke="#1D2132" stroke-width="0.1" stroke-linecap="square" stroke-miterlimit="10" points="
				54.35,29.26 54.7,31.21 54.7,17.69 54.35,19.65 			"/>
		</g>
	</g>
	<g>
		
			<rect x="43.33" y="60.7" fill="#FFFFFF" stroke="#1D2132" stroke-width="0.1" stroke-linecap="square" stroke-miterlimit="10" width="8.03" height="17.91"/>
		<g>
			<path fill="#FFFFFF" stroke="#1D2132" stroke-width="0.1" stroke-linecap="square" stroke-miterlimit="10" d="M46.38,69.54h-0.37
				c-0.03,0.01-0.07,0.07-0.1,0.12c-0.11,0.16-0.28,0.41-0.64,0.47c-0.26,0.05-0.51-0.05-0.66-0.25c-0.16-0.22-0.18-0.52-0.05-0.76
				c0.2-0.39,0.6-0.44,0.79-0.41c0.07,0.01,0.11,0.07,0.1,0.13c-0.01,0.07-0.07,0.11-0.13,0.1c0,0-0.37-0.05-0.55,0.29
				c-0.09,0.17-0.08,0.37,0.03,0.52c0.1,0.13,0.26,0.19,0.44,0.16c0.26-0.04,0.39-0.22,0.49-0.37c0.08-0.11,0.15-0.22,0.28-0.22
				h0.38c0.06,0,0.11,0.05,0.11,0.11C46.5,69.49,46.45,69.54,46.38,69.54z M46.01,69.54L46.01,69.54L46.01,69.54z"/>
			<path fill="#FFFFFF" stroke="#1D2132" stroke-width="0.1" stroke-linecap="square" stroke-miterlimit="10" d="M48.79,73.97
				c-0.28,0.07-0.56-0.05-0.7-0.31c0-0.01-0.01-0.01-0.01-0.02l-1.67-3.53c-0.01-0.03-0.02-0.06-0.02-0.09v-1.19
				c0-0.03,0.01-0.06,0.02-0.09l1.67-3.53c0-0.01,0.01-0.01,0.01-0.02c0.14-0.26,0.42-0.38,0.7-0.31S49,65.27,49,65.56v7.72
				C49,73.57,49.08,73.89,48.79,73.97z M47.44,68.88v1.1l1.07,3.73c0.06,0.09,0.15,0.08,0.18,0.07s0.12-0.04,0.12-0.16v-8.39
				c0-0.12-0.09-0.15-0.12-0.16s-0.12-0.03-0.18,0.07L47.44,68.88z"/>
		</g>
	</g>
	<g>
		
			<circle fill="#FFFFFF" stroke="#1D2132" stroke-width="0.1" stroke-linecap="square" stroke-miterlimit="22.9256" cx="46.98" cy="37.19" r="1.94"/>
		
			<circle fill="#FFFFFF" stroke="#1D2132" stroke-width="0.1" stroke-linecap="square" stroke-miterlimit="22.9256" cx="46.98" cy="37.19" r="0.41"/>
		<path fill="#FFFFFF" stroke="#1D2132" stroke-width="0.1" stroke-linecap="square" stroke-miterlimit="22.9256" d="M43.43,34.72
			l-0.66,1.48c-1.05,0-1.72-0.05-2.59-0.45l0,0c-0.43-0.19-0.52-0.94-0.19-1.67c0.33-0.73,0.94-1.17,1.37-0.98
			C42.25,33.45,42.74,33.91,43.43,34.72z"/>
		<path fill="#FFFFFF" stroke="#1D2132" stroke-width="0.1" stroke-linecap="square" stroke-miterlimit="22.9256" d="M43.43,34.72
			l0.53,0.24l-0.66,1.48l-0.53-0.24c-0.24-0.1-0.29-0.52-0.11-0.93S43.18,34.62,43.43,34.72z"/>
		
			<ellipse transform="matrix(0.4062 -0.9138 0.9138 0.4062 -6.7204 61.0657)" fill="#FFFFFF" stroke="#1D2132" stroke-width="0.1" stroke-linecap="square" stroke-miterlimit="22.9256" cx="43.63" cy="35.7" rx="0.81" ry="0.47"/>
		<path fill="#FFFFFF" stroke="#1D2132" stroke-width="0.1" stroke-linecap="square" stroke-miterlimit="22.9256" d="M47.04,37.06
			L45,36.16c-0.06-0.03-0.14,0-0.17,0.07l-0.01,0.03c-0.03,0.06,0,0.14,0.07,0.17l2.04,0.9c0.06,0.03,0.14,0,0.17-0.07l0.01-0.03
			C47.14,37.16,47.11,37.09,47.04,37.06z"/>
		<path fill="#FFFFFF" stroke="#1D2132" stroke-width="0.1" stroke-linecap="square" stroke-miterlimit="22.9256" d="M45.9,36.55
			l-2.04-0.9c-0.06-0.03-0.14,0-0.17,0.07l-0.01,0.03c-0.03,0.06,0,0.14,0.07,0.17l2.04,0.9c0.06,0.03,0.14,0,0.17-0.07l0.01-0.03
			C46,36.66,45.97,36.58,45.9,36.55z"/>
	</g>
</g>
<g id="Windows">
	<polyline fill="none" stroke="#1D2132" stroke-width="0.1" stroke-miterlimit="10" points="92.5,3.25 92.5,2.3 53.54,2.3 
		53.54,3.25 92.5,3.25 	"/>
	<polyline fill="none" stroke="#1D2132" stroke-width="0.1" stroke-miterlimit="10" points="52.18,5.01 52.18,2.3 93.86,2.3 
		93.86,5.01 52.18,5.01 	"/>
	<polygon fill="none" stroke="#1D2132" stroke-width="0.1" stroke-miterlimit="10" points="53.54,3.25 53.54,2.3 51.7,2.3 
		51.7,3.25 51.7,2.3 52.18,2.3 52.18,3.25 52.46,3.25 	"/>
	<polyline fill="none" stroke="#1D2132" stroke-width="0.1" stroke-miterlimit="10" points="92.5,3.25 92.5,2.3 94.53,2.3 
		94.53,3.25 92.5,3.25 	"/>
	<polyline fill="none" stroke="#1D2132" stroke-width="0.1" stroke-miterlimit="10" points="93.19,2.3 93.19,0.82 52.86,0.82 
		52.86,2.3 93.19,2.3 	"/>
	<polyline fill="none" stroke="#1D2132" stroke-width="0.1" stroke-miterlimit="10" points="40.49,0.82 18.86,0.82 18.86,2.3 
		40.49,2.3 40.49,0.82 	"/>
	<polyline fill="none" stroke="#1D2132" stroke-width="0.1" stroke-miterlimit="10" points="18.18,5.01 41.16,5.01 41.16,2.3 
		18.18,2.3 18.18,5.01 	"/>
	<polyline fill="none" stroke="#1D2132" stroke-width="0.1" stroke-miterlimit="10" points="39.8,3.25 20.06,3.25 20.06,2.3 
		39.8,2.3 39.8,3.25 	"/>
	<polyline fill="none" stroke="#1D2132" stroke-width="0.1" stroke-miterlimit="10" points="20.06,3.25 17.86,3.25 17.86,2.3 
		20.06,2.3 20.06,3.25 	"/>
	<polyline fill="none" stroke="#1D2132" stroke-width="0.1" stroke-miterlimit="10" points="41.16,3.25 41.75,3.25 41.75,2.3 
		41.16,2.3 41.16,3.25 	"/>
	<polyline fill="none" stroke="#1D2132" stroke-width="0.1" stroke-miterlimit="10" points="40.88,2.3 39.8,2.3 39.8,3.25 
		41.75,3.25 41.75,2.3 	"/>
</g>
<g id="Doors">
	<g>
		<polygon fill="none" stroke="#1D2132" stroke-width="0.1" stroke-miterlimit="10" points="69.48,80.4 69.48,79.22 70.07,79.22 
			70.07,80.4 		"/>
		<polygon fill="none" stroke="#1D2132" stroke-width="0.1" stroke-miterlimit="10" points="55,80.4 55,79.22 54.41,79.22 
			54.41,80.4 		"/>
		<polyline fill="none" stroke="#1D2132" stroke-width="0.1" stroke-miterlimit="10" points="59.24,69.06 59.06,69.26 58.89,69.45 
			58.71,69.65 58.53,69.85 58.37,70.05 58.2,70.26 58.04,70.46 57.88,70.67 57.73,70.9 57.58,71.11 57.44,71.33 57.3,71.56 
			57.15,71.78 57.02,72.01 56.89,72.24 56.76,72.47 56.65,72.7 56.53,72.94 56.41,73.17 56.3,73.42 56.2,73.66 56.09,73.91 
			56,74.15 55.9,74.4 55.82,74.65 55.74,74.9 55.66,75.14 55.59,75.4 55.51,75.65 55.44,75.91 55.39,76.17 55.33,76.43 55.28,76.69 
			55.22,76.95 55.18,77.21 55.14,77.47 55.11,77.73 55.08,77.99 55.05,78.26 55.03,78.52 55.02,78.78 55.01,79.05 55,79.31 		"/>
		<polygon fill="none" stroke="#1D2132" stroke-width="0.1" stroke-miterlimit="10" points="69.37,79.25 59.24,69.06 58.89,69.45 
			68.96,79.66 		"/>
	</g>
	<g>
		<polygon fill="none" stroke="#1D2132" stroke-width="0.1" stroke-miterlimit="10" points="72.7,65.9 71.6,65.9 71.6,66.33 
			72.7,66.33 		"/>
		<polygon fill="none" stroke="#1D2132" stroke-width="0.1" stroke-miterlimit="10" points="72.7,55.22 71.6,55.22 71.6,54.78 
			72.7,54.78 		"/>
		<polyline fill="none" stroke="#1D2132" stroke-width="0.1" stroke-miterlimit="10" points="64.07,58.35 64.22,58.22 64.36,58.09 
			64.51,57.96 64.66,57.83 64.8,57.7 64.96,57.58 65.11,57.46 65.27,57.35 65.43,57.23 65.59,57.12 65.75,57.02 65.92,56.91 
			66.08,56.81 66.25,56.71 66.42,56.62 66.59,56.52 66.76,56.43 66.94,56.35 67.11,56.26 67.29,56.18 67.47,56.1 67.65,56.03 
			67.83,55.96 68.01,55.89 68.2,55.83 68.38,55.76 68.56,55.7 68.75,55.65 68.94,55.6 69.13,55.55 69.32,55.5 69.51,55.46 
			69.7,55.43 69.89,55.38 70.08,55.36 70.28,55.32 70.47,55.3 70.66,55.28 70.86,55.26 71.05,55.24 71.24,55.23 71.44,55.23 
			71.63,55.22 		"/>
		<polygon fill="none" stroke="#1D2132" stroke-width="0.1" stroke-miterlimit="10" points="71.59,65.82 64.07,58.35 64.36,58.09 
			71.89,65.52 		"/>
	</g>
	<g>
		<polygon fill="none" stroke="#1D2132" stroke-width="0.1" stroke-miterlimit="10" points="57.91,44.6 57.91,43.53 57.43,43.53 
			57.43,44.6 		"/>
		<polygon fill="none" stroke="#1D2132" stroke-width="0.1" stroke-miterlimit="10" points="69.84,44.6 69.84,43.52 70.33,43.52 
			70.33,44.6 		"/>
		<polyline fill="none" stroke="#1D2132" stroke-width="0.1" stroke-miterlimit="10" points="66.34,34.97 66.49,35.14 66.64,35.29 
			66.78,35.46 66.93,35.62 67.06,35.79 67.2,35.96 67.34,36.13 67.46,36.3 67.59,36.49 67.71,36.66 67.83,36.84 67.95,37.03 
			68.06,37.21 68.17,37.4 68.28,37.59 68.38,37.78 68.48,37.97 68.58,38.17 68.68,38.36 68.76,38.56 68.85,38.76 68.94,38.96 
			69.02,39.17 69.09,39.37 69.16,39.57 69.23,39.78 69.3,39.98 69.36,40.2 69.41,40.4 69.47,40.61 69.52,40.83 69.57,41.04 
			69.61,41.26 69.66,41.47 69.69,41.68 69.73,41.9 69.74,42.11 69.77,42.32 69.79,42.55 69.81,42.76 69.82,42.98 69.83,43.2 
			69.84,43.41 		"/>
		<polygon fill="none" stroke="#1D2132" stroke-width="0.1" stroke-miterlimit="10" points="58,43.36 66.34,34.97 66.64,35.29 
			58.34,43.7 		"/>
	</g>
</g>
<g id="Text">
	
		<text id="TXT--" transform="matrix(1 0 0 1 60.89 25.5109)" opacity="0.7" fill="#1D2132" enable-background="new    " font-family="'Cannonade-Medium'" font-size="3px">9,69</text>
	
		<text id="TXT---" transform="matrix(1 0 0 1 21.0791 43.0001)" opacity="0.7" fill="#1D2132" enable-background="new    " font-family="'Cannonade-Medium'" font-size="3px">18,20</text>
	
		<text id="TXT--" transform="matrix(1 0 0 1 51.6582 54.5498)" opacity="0.7" fill="#1D2132" enable-background="new    " font-family="'Cannonade-Medium'" font-size="3px">4,58</text>
	
		<text id="TXT--" transform="matrix(1 0 0 1 77.4102 62.7185)" opacity="0.7" fill="#1D2132" enable-background="new    " font-family="'Cannonade-Medium'" font-size="3px">4,51</text>
</g>
<g id="Walls">
	<polyline fill="#1D2132" stroke="#1D2132" stroke-width="0.1" stroke-miterlimit="10" points="100,78.65 70.13,78.65 70.13,80.81 
		100,80.81 100,78.48 	"/>
	<polyline fill="#1D2132" stroke="#1D2132" stroke-width="0.1" stroke-miterlimit="10" points="51.35,59.47 42.15,59.47 
		42.15,78.65 43.24,78.65 43.24,60.55 51.35,60.55 51.35,59.47 	"/>
	<polyline fill="#1D2132" stroke="#1D2132" stroke-width="0.1" stroke-miterlimit="10" points="72.7,78.65 72.7,66.33 71.62,66.33 
		71.62,78.65 72.7,78.65 	"/>
	<polyline fill="#1D2132" stroke="#1D2132" stroke-width="0.1" stroke-miterlimit="10" points="71.62,54.74 71.62,44.6 70.33,44.6 
		70.33,43.52 97.29,43.52 97.29,44.6 72.7,44.6 72.7,54.74 71.62,54.74 	"/>
	<polyline fill="#1D2132" stroke="#1D2132" stroke-width="0.1" stroke-miterlimit="10" points="18.44,2.3 18.44,5.01 2.7,5.01 
		2.7,75.95 0,75.95 0,4.64 0,0.19 19.13,0.28 19.13,2.3 	"/>
	<polyline fill="#1D2132" stroke="#1D2132" stroke-width="0.1" stroke-miterlimit="10" points="93.86,2.3 100,2.3 100,5.01 
		100,5.01 100,78.65 97.29,78.65 97.29,5.01 93.86,5.01 93.86,2.3 	"/>
	<polyline fill="#1D2132" stroke="#1D2132" stroke-width="0.1" stroke-miterlimit="10" points="57.43,43.52 57.43,44.6 50.27,44.6 
		50.27,5.01 51.35,5.01 51.35,43.52 57.43,43.52 	"/>
	<polyline fill="#1D2132" stroke="#1D2132" stroke-width="0.1" stroke-miterlimit="10" points="41.16,2.3 52.18,2.3 52.18,5.01 
		41.16,5.01 41.16,2.3 	"/>
	<polyline fill="#1D2132" stroke="#1D2132" stroke-width="0.1" stroke-miterlimit="10" points="100,2.3 93.19,2.3 93.19,0.28 
		100,0.28 100,2.3 	"/>
	<polyline fill="#1D2132" stroke="#1D2132" stroke-width="0.1" stroke-miterlimit="10" points="52.86,2.3 40.49,2.3 40.49,0.28 
		52.86,0.28 52.86,2.3 	"/>
	<path fill="#1D2132" stroke="#1D2132" stroke-width="0.1" stroke-miterlimit="10" d="M19.13,2.3"/>
	<polyline fill="#1D2132" stroke="#1D2132" stroke-width="0.1" stroke-miterlimit="10" points="7.84,78.65 54.41,78.65 54.41,80.81 
		5.67,80.81 5.67,78.65 5.67,75.95 2.7,75.95 2.7,73.79 7.84,73.79 7.84,78.65 	"/>
</g>
<g id="Details">
	<g>
		
			<rect x="95.12" y="76.36" fill="#FFFFFF" stroke="#1D2132" stroke-width="0.5" stroke-linecap="square" stroke-miterlimit="10" width="2" height="2"/>
		<polygon fill="#1D2132" stroke="#1D2132" stroke-width="0.1" stroke-miterlimit="10" points="97,78.36 96.33,77.14 95.12,76.47 
			97,76.47 		"/>
	</g>
</g>
</svg>
