<?xml version="1.0" encoding="utf-8"?>
<!-- Generator: Adobe Illustrator 22.0.0, SVG Export Plug-In . SVG Version: 6.00 Build 0)  -->
<svg version="1.1" id="Layer_1" xmlns="http://www.w3.org/2000/svg" xmlns:xlink="http://www.w3.org/1999/xlink" x="0px" y="0px"
	 viewBox="0 0 100 81" enable-background="new 0 0 100 81" xml:space="preserve">
<g id="Background">
	
		<polygon opacity="0.1" fill="#1D2132" stroke="#1D2132" stroke-width="0.1" stroke-linecap="round" stroke-linejoin="round" stroke-miterlimit="10" enable-background="new    " points="
		2.7,5.01 97.29,5.01 97.29,78.65 7.84,78.65 7.84,73.79 2.7,73.79 	"/>
</g>
<g id="Plumbing">
	<g>
		<polyline fill="#FFFFFF" points="94.07,57.87 93.94,57.87 93.83,57.87 93.61,57.9 93.4,57.95 93.19,58.03 92.98,58.13 92.8,58.24 
			92.63,58.39 92.48,58.54 92.31,58.78 92.16,59.02 92.02,59.28 91.91,59.54 91.81,59.84 91.73,60.09 91.67,60.36 91.6,60.63 
			91.55,60.92 91.54,61.2 91.53,61.45 91.54,61.7 91.57,61.98 91.6,62.26 91.67,62.54 91.73,62.81 91.83,63.09 91.91,63.35 
			92.02,63.61 92.16,63.87 92.31,64.12 92.48,64.36 92.63,64.5 92.8,64.65 92.98,64.76 93.19,64.88 93.4,64.95 93.61,65 
			93.83,65.04 94.07,65.04 97.26,65.04 97.26,57.87 94.07,57.87 		"/>
		
			<line fill="none" stroke="#1D2132" stroke-width="0.1" stroke-linecap="square" stroke-miterlimit="10" x1="97.26" y1="65.04" x2="97.26" y2="57.87"/>
		
			<line fill="none" stroke="#1D2132" stroke-width="0.1" stroke-linecap="square" stroke-miterlimit="10" x1="94.07" y1="65.04" x2="97.26" y2="65.04"/>
		
			<line fill="none" stroke="#1D2132" stroke-width="0.1" stroke-linecap="square" stroke-miterlimit="10" x1="94.07" y1="57.87" x2="97.26" y2="57.87"/>
		
			<line fill="none" stroke="#1D2132" stroke-width="0.1" stroke-linecap="square" stroke-miterlimit="10" x1="97.26" y1="60.32" x2="97.26" y2="62.57"/>
		
			<line fill="none" stroke="#1D2132" stroke-width="0.1" stroke-linecap="square" stroke-miterlimit="10" x1="94.7" y1="61.67" x2="94.7" y2="62.04"/>
		
			<line fill="none" stroke="#1D2132" stroke-width="0.1" stroke-linecap="square" stroke-miterlimit="10" x1="94.92" y1="61.45" x2="95.33" y2="61.45"/>
		
			<line fill="none" stroke="#1D2132" stroke-width="0.1" stroke-linecap="square" stroke-miterlimit="10" x1="94.7" y1="60.84" x2="94.7" y2="61.23"/>
		
			<line fill="none" stroke="#1D2132" stroke-width="0.1" stroke-linecap="square" stroke-miterlimit="10" x1="94.05" y1="61.45" x2="94.45" y2="61.45"/>
		<path fill="none" stroke="#1D2132" stroke-width="0.1" stroke-linecap="square" stroke-miterlimit="10" d="M93.86,58.31
			c0.66,0.25,1.21,0.68,1.6,1.24"/>
		<path fill="none" stroke="#1D2132" stroke-width="0.1" stroke-linecap="square" stroke-miterlimit="10" d="M95.45,59.56
			c0.32,0.49,0.48,1.06,0.48,1.65c0,0.07,0,0.17-0.01,0.25"/>
		<path fill="none" stroke="#1D2132" stroke-width="0.1" stroke-linecap="square" stroke-miterlimit="10" d="M95.46,63.35
			c-0.4,0.56-0.94,1-1.6,1.24"/>
		<path fill="none" stroke="#1D2132" stroke-width="0.1" stroke-linecap="square" stroke-miterlimit="10" d="M95.92,61.46
			c0.01,0.07,0.01,0.17,0.01,0.25c0,0.58-0.17,1.15-0.48,1.65"/>
		<path fill="none" stroke="#1D2132" stroke-width="0.1" stroke-linecap="square" stroke-miterlimit="10" d="M91.54,61.19
			c0.06-0.74,0.26-1.48,0.62-2.17"/>
		<path fill="none" stroke="#1D2132" stroke-width="0.1" stroke-linecap="square" stroke-miterlimit="10" d="M94.05,65.04
			c-0.01,0-0.05,0-0.07,0c-0.58,0-1.13-0.25-1.5-0.68"/>
		<path fill="none" stroke="#1D2132" stroke-width="0.1" stroke-linecap="square" stroke-miterlimit="10" d="M91.54,61.7
			c-0.01-0.07-0.01-0.17-0.01-0.25s0-0.17,0.01-0.25"/>
		<path fill="none" stroke="#1D2132" stroke-width="0.1" stroke-linecap="square" stroke-miterlimit="10" d="M95.34,59.44
			c0.1,0.66,0.16,1.34,0.16,2s-0.06,1.32-0.16,1.99"/>
		<path fill="none" stroke="#1D2132" stroke-width="0.1" stroke-linecap="square" stroke-miterlimit="10" d="M96.79,61.44
			c0,0.67-0.05,1.35-0.15,2.02"/>
		<path fill="none" stroke="#1D2132" stroke-width="0.1" stroke-linecap="square" stroke-miterlimit="10" d="M96.45,63.84
			c-0.78,0.66-1.78,1.01-2.82,1.01c-0.02,0-0.04,0-0.06,0"/>
		<path fill="none" stroke="#1D2132" stroke-width="0.1" stroke-linecap="square" stroke-miterlimit="10" d="M96.65,63.47
			c-0.02,0.14-0.1,0.28-0.21,0.37"/>
		<path fill="none" stroke="#1D2132" stroke-width="0.1" stroke-linecap="square" stroke-miterlimit="10" d="M93.58,58.05
			c0.01,0,0.04,0,0.05,0c1.04,0,2.04,0.36,2.82,1.01"/>
		<path fill="none" stroke="#1D2132" stroke-width="0.1" stroke-linecap="square" stroke-miterlimit="10" d="M96.65,59.43
			c0.09,0.67,0.15,1.34,0.15,2.02"/>
		<path fill="none" stroke="#1D2132" stroke-width="0.1" stroke-linecap="square" stroke-miterlimit="10" d="M96.43,59.06
			c0.12,0.1,0.19,0.24,0.21,0.37"/>
		<path fill="none" stroke="#1D2132" stroke-width="0.1" stroke-linecap="square" stroke-miterlimit="10" d="M92.49,58.55
			c0.36-0.43,0.92-0.68,1.5-0.68c0.01,0,0.05,0,0.07,0"/>
		<path fill="none" stroke="#1D2132" stroke-width="0.1" stroke-linecap="square" stroke-miterlimit="10" d="M92.16,59.01
			c0.09-0.16,0.2-0.32,0.32-0.47"/>
		<path fill="none" stroke="#1D2132" stroke-width="0.1" stroke-linecap="square" stroke-miterlimit="10" d="M92.48,64.34
			c-0.12-0.14-0.24-0.3-0.32-0.47"/>
		<path fill="none" stroke="#1D2132" stroke-width="0.1" stroke-linecap="square" stroke-miterlimit="10" d="M92.16,63.86
			c-0.35-0.67-0.56-1.41-0.62-2.17"/>
		<path fill="none" stroke="#1D2132" stroke-width="0.1" stroke-linecap="square" stroke-miterlimit="10" d="M92.06,62.44
			c-0.07-0.32-0.12-0.66-0.12-0.99s0.05-0.67,0.12-0.99"/>
		<path fill="none" stroke="#1D2132" stroke-width="0.1" stroke-linecap="square" stroke-miterlimit="10" d="M92.93,58.66
			c0.22-0.24,0.53-0.37,0.87-0.37c0.02,0,0.05,0,0.07,0"/>
		<path fill="none" stroke="#1D2132" stroke-width="0.1" stroke-linecap="square" stroke-miterlimit="10" d="M92.06,60.46
			c0.14-0.66,0.43-1.26,0.87-1.78"/>
		<path fill="none" stroke="#1D2132" stroke-width="0.1" stroke-linecap="square" stroke-miterlimit="10" d="M93.87,64.59
			c-0.02,0-0.05,0-0.07,0c-0.33,0-0.64-0.14-0.87-0.37"/>
		<path fill="none" stroke="#1D2132" stroke-width="0.1" stroke-linecap="square" stroke-miterlimit="10" d="M92.93,64.23
			c-0.46-0.52-0.74-1.14-0.87-1.79"/>
		<path fill="none" stroke="#1D2132" stroke-width="0.1" stroke-linecap="square" stroke-miterlimit="10" d="M95.18,61.45
			c0-0.25-0.22-0.47-0.49-0.46c-0.27,0-0.49,0.21-0.49,0.46s0.22,0.46,0.49,0.46S95.18,61.7,95.18,61.45"/>
		<path fill="none" stroke="#1D2132" stroke-width="0.1" stroke-linecap="square" stroke-miterlimit="10" d="M94.96,61.45
			c0-0.14-0.12-0.25-0.26-0.25c-0.15,0-0.26,0.11-0.26,0.25s0.11,0.25,0.26,0.25S94.96,61.58,94.96,61.45"/>
	</g>
	<g>
		<polygon fill="#FFFFFF" points="80.51,78.65 80.51,76.86 80.51,76.83 80.52,76.81 80.52,76.78 80.55,76.76 80.55,76.73 
			80.55,76.71 80.55,76.7 80.56,76.67 80.58,76.66 80.6,76.64 80.62,76.63 80.63,76.61 80.65,76.6 80.67,76.59 80.69,76.58 
			80.72,76.56 80.72,71.79 80.72,71.67 80.72,71.56 80.74,71.44 80.77,71.33 80.8,71.22 80.83,71.11 80.88,71 80.91,70.89 
			80.98,70.79 81.02,70.69 81.09,70.59 81.15,70.51 81.23,70.41 81.31,70.34 81.39,70.25 81.46,70.18 81.55,70.09 81.65,70.03 
			81.73,69.97 81.83,69.92 81.92,69.86 82.01,69.81 82.12,69.76 82.22,69.73 82.33,69.69 82.44,69.67 82.54,69.63 82.65,69.6 
			82.76,69.59 82.87,69.58 82.98,69.58 83.09,69.58 83.2,69.58 83.31,69.58 83.42,69.59 83.53,69.6 83.64,69.63 83.75,69.67 
			83.84,69.69 83.95,69.73 84.05,69.76 84.15,69.81 84.25,69.86 84.35,69.92 84.46,69.97 84.53,70.03 84.61,70.09 84.7,70.18 
			84.78,70.25 84.87,70.34 84.94,70.41 85.02,70.51 85.09,70.59 85.15,70.69 85.2,70.79 85.26,70.89 85.3,71 85.36,71.11 
			85.37,71.22 85.41,71.33 85.43,71.44 85.44,71.56 85.44,71.67 85.46,71.79 85.46,76.56 85.48,76.58 85.51,76.59 85.53,76.6 
			85.53,76.61 85.55,76.63 85.58,76.64 85.59,76.66 85.6,76.67 85.62,76.7 85.63,76.71 85.64,76.73 85.64,76.76 85.65,76.78 
			85.65,76.81 85.66,76.83 85.66,76.86 85.66,78.65 83.09,78.65 		"/>
		
			<line fill="none" stroke="#1D2132" stroke-width="0.1" stroke-linecap="square" stroke-miterlimit="10" x1="85.46" y1="71.79" x2="85.46" y2="76.56"/>
		
			<line fill="none" stroke="#1D2132" stroke-width="0.1" stroke-linecap="square" stroke-miterlimit="10" x1="80.51" y1="78.65" x2="85.66" y2="78.65"/>
		
			<line fill="none" stroke="#1D2132" stroke-width="0.1" stroke-linecap="square" stroke-miterlimit="10" x1="85.66" y1="76.86" x2="85.66" y2="78.65"/>
		
			<line fill="none" stroke="#1D2132" stroke-width="0.1" stroke-linecap="square" stroke-miterlimit="10" x1="81.17" y1="75.72" x2="83.09" y2="75.72"/>
		
			<line fill="none" stroke="#1D2132" stroke-width="0.1" stroke-linecap="square" stroke-miterlimit="10" x1="84.99" y1="75.72" x2="85.46" y2="71.79"/>
		
			<line fill="none" stroke="#1D2132" stroke-width="0.1" stroke-linecap="square" stroke-miterlimit="10" x1="84.99" y1="75.72" x2="83.09" y2="75.72"/>
		
			<line fill="none" stroke="#1D2132" stroke-width="0.1" stroke-linecap="square" stroke-miterlimit="10" x1="81.17" y1="75.72" x2="80.72" y2="71.79"/>
		
			<line fill="none" stroke="#1D2132" stroke-width="0.1" stroke-linecap="square" stroke-miterlimit="10" x1="80.72" y1="71.79" x2="80.72" y2="76.56"/>
		
			<line fill="none" stroke="#1D2132" stroke-width="0.1" stroke-linecap="square" stroke-miterlimit="10" x1="80.51" y1="76.86" x2="80.51" y2="78.65"/>
		<path fill="none" stroke="#1D2132" stroke-width="0.1" stroke-linecap="square" stroke-miterlimit="10" d="M85.4,76.56
			c-0.77-0.09-1.54-0.13-2.31-0.13s-1.54,0.04-2.31,0.12"/>
		<path fill="none" stroke="#1D2132" stroke-width="0.1" stroke-linecap="square" stroke-miterlimit="10" d="M85.66,76.86
			c0-0.15-0.12-0.28-0.27-0.31"/>
		<path fill="none" stroke="#1D2132" stroke-width="0.1" stroke-linecap="square" stroke-miterlimit="10" d="M85.46,71.79
			c0-1.22-1.06-2.21-2.37-2.21s-2.37,0.99-2.37,2.21"/>
		<path fill="none" stroke="#1D2132" stroke-width="0.1" stroke-linecap="square" stroke-miterlimit="10" d="M80.78,76.55
			c-0.15,0.01-0.27,0.16-0.27,0.31"/>
		<path fill="none" stroke="#1D2132" stroke-width="0.1" stroke-linecap="square" stroke-miterlimit="10" d="M83.09,77.76
			c-0.13,0-0.23-0.11-0.24-0.26c0-0.13,0.11-0.26,0.24-0.26s0.24,0.12,0.24,0.26S83.22,77.76,83.09,77.76"/>
	</g>
	<g>
		<path fill="#FFFFFF" d="M84.84,56.77V44.72c0-0.07,0.04-0.12,0.12-0.12h12.05c0.07,0,0.12,0.04,0.12,0.12v12.04
			c0,0.07-0.04,0.12-0.12,0.12H84.94C84.9,56.88,84.84,56.82,84.84,56.77z"/>
		
			<line fill="none" stroke="#1D2132" stroke-width="0.1" stroke-linecap="square" stroke-miterlimit="10" x1="94.39" y1="47.71" x2="95.19" y2="47.71"/>
		
			<line fill="none" stroke="#1D2132" stroke-width="0.1" stroke-linecap="square" stroke-miterlimit="10" x1="94.06" y1="46.58" x2="94.06" y2="47.37"/>
		
			<line fill="none" stroke="#1D2132" stroke-width="0.1" stroke-linecap="square" stroke-miterlimit="10" x1="92.94" y1="47.71" x2="93.72" y2="47.71"/>
		
			<line fill="none" stroke="#1D2132" stroke-width="0.1" stroke-linecap="square" stroke-miterlimit="10" x1="94.06" y1="48.04" x2="94.06" y2="48.83"/>
		
			<line fill="none" stroke="#1D2132" stroke-width="0.1" stroke-linecap="square" stroke-miterlimit="10" x1="93.11" y1="56.19" x2="96.4" y2="56.19"/>
		
			<line fill="none" stroke="#1D2132" stroke-width="0.1" stroke-linecap="square" stroke-miterlimit="10" x1="85.72" y1="45.24" x2="93.24" y2="45.24"/>
		<path fill="none" stroke="#1D2132" stroke-width="0.1" stroke-linecap="square" stroke-miterlimit="10" d="M85.59,45.38V56
			c0,0.1,0.09,0.19,0.19,0.19H96.4"/>
		
			<line fill="none" stroke="#1D2132" stroke-width="0.1" stroke-linecap="square" stroke-miterlimit="10" x1="96.53" y1="48.53" x2="96.53" y2="56.05"/>
		<g>
			<path fill="none" stroke="#1D2132" stroke-width="0.1" stroke-linecap="square" stroke-miterlimit="10" d="M96.55,48.53
				c0-0.06-0.01-0.15-0.04-0.21"/>
		</g>
		<g>
			<path fill="none" stroke="#1D2132" stroke-width="0.1" stroke-linecap="square" stroke-miterlimit="10" d="M96.4,56.19
				c0.07,0,0.13-0.06,0.13-0.13"/>
		</g>
		<g>
			<path fill="none" stroke="#1D2132" stroke-width="0.1" stroke-linecap="square" stroke-miterlimit="10" d="M96.55,48.53
				c0-0.06-0.01-0.15-0.04-0.21"/>
		</g>
		<g>
			<path fill="none" stroke="#1D2132" stroke-width="0.1" stroke-linecap="square" stroke-miterlimit="10" d="M85.72,45.24
				c-0.07,0-0.13,0.06-0.13,0.13"/>
		</g>
		<g>
			<path fill="none" stroke="#1D2132" stroke-width="0.1" stroke-linecap="square" stroke-miterlimit="10" d="M96.53,48.41
				c-0.72-1.36-1.81-2.47-3.15-3.15"/>
		</g>
		<g>
			<path fill="none" stroke="#1D2132" stroke-width="0.1" stroke-linecap="square" stroke-miterlimit="10" d="M93.47,45.27
				c-0.07-0.01-0.15-0.03-0.22-0.03"/>
		</g>
		<g>
			<path fill="none" stroke="#1D2132" stroke-width="0.1" stroke-linecap="square" stroke-miterlimit="10" d="M96.49,48.31
				c-0.48-1.42-1.6-2.56-3.04-3.04"/>
		</g>
		<g>
			<path fill="none" stroke="#1D2132" stroke-width="0.1" stroke-linecap="square" stroke-miterlimit="10" d="M93.47,45.27
				c-0.07-0.01-0.15-0.03-0.22-0.03"/>
		</g>
		<g>
			<path fill="none" stroke="#1D2132" stroke-width="0.1" stroke-linecap="square" stroke-miterlimit="10" d="M94.69,47.71
				c0,0.33-0.3,0.61-0.61,0.61c-0.33,0-0.61-0.28-0.61-0.61c0-0.34,0.27-0.63,0.61-0.61C94.41,47.1,94.69,47.38,94.69,47.71"/>
		</g>
		<g>
			<path fill="none" stroke="#1D2132" stroke-width="0.1" stroke-linecap="square" stroke-miterlimit="10" d="M94.93,47.71
				c0,0.48-0.39,0.85-0.87,0.87c-0.48,0-0.87-0.39-0.87-0.87s0.39-0.87,0.87-0.87S94.93,47.23,94.93,47.71"/>
		</g>
		<path fill="none" stroke="#1D2132" stroke-width="0.1" stroke-linecap="square" stroke-miterlimit="10" d="M84.91,56.55V44.93
			c0-0.18,0.15-0.33,0.33-0.33h11.6c0.18,0,0.33,0.15,0.33,0.33v11.62c0,0.18-0.15,0.33-0.33,0.33H85.21
			C85.05,56.88,84.9,56.73,84.91,56.55z"/>
	</g>
	<g>
		<g>
			<path fill="#FFFFFF" stroke="#1D2132" stroke-width="0.1" stroke-linecap="square" stroke-miterlimit="10" d="M78.18,49.98
				c0,0.09,0.09,0.16,0.2,0.16s0.2-0.07,0.2-0.16s-0.09-0.16-0.2-0.16S78.18,49.89,78.18,49.98z"/>
			
				<ellipse fill="#FFFFFF" stroke="#1D2132" stroke-width="0.1" stroke-linecap="square" stroke-miterlimit="10" cx="77.53" cy="49.98" rx="0.2" ry="0.16"/>
			<path fill="#FFFFFF" stroke="#1D2132" stroke-width="0.1" stroke-linecap="square" stroke-miterlimit="10" d="M73.87,49.98
				c0,0.09,0.09,0.16,0.2,0.16s0.2-0.07,0.2-0.16s-0.09-0.16-0.2-0.16S73.87,49.89,73.87,49.98z"/>
			<path fill="#FFFFFF" stroke="#1D2132" stroke-width="0.1" stroke-linecap="square" stroke-miterlimit="10" d="M73.88,49.98
				c-0.44,0-0.8-0.09-0.8-0.21v-0.54c0-0.12,0.36-0.21,0.8-0.21h4.7c0.44,0,0.8,0.09,0.8,0.21v0.54c0,0.12-0.36,0.21-0.8,0.21H73.88
				z"/>
			
				<rect x="72.7" y="44.99" fill="#FFFFFF" stroke="#1D2132" stroke-width="0.1" stroke-linecap="square" stroke-miterlimit="10" width="7" height="4.71"/>
			<path fill="#FFFFFF" stroke="#1D2132" stroke-width="0.1" stroke-linecap="square" stroke-miterlimit="10" d="M73.88,49.45
				c-0.44,0-0.8-0.77-0.8-1.72v-0.77c0-0.95,0.36-1.72,0.8-1.72h4.7c0.44,0,0.8,0.77,0.8,1.72v0.77c0,0.95-0.36,1.72-0.8,1.72H73.88
				z"/>
		</g>
		<g>
			<path fill="#FFFFFF" stroke="#1D2132" stroke-width="0.1" stroke-linecap="square" stroke-miterlimit="10" d="M74.02,45.82h4.43
				c0.09,0,0.16-0.07,0.16-0.16v-0.02c0-0.09-0.07-0.16-0.16-0.16h-4.43c-0.09,0-0.16,0.07-0.16,0.16v0.02
				C73.86,45.75,73.93,45.82,74.02,45.82z"/>
			<g>
				
					<rect x="78.13" y="44.73" fill="#FFFFFF" stroke="#1D2132" stroke-width="0.1" stroke-linecap="square" stroke-miterlimit="10" width="0.28" height="0.75"/>
				
					<rect x="74.03" y="44.73" fill="#FFFFFF" stroke="#1D2132" stroke-width="0.1" stroke-linecap="square" stroke-miterlimit="10" width="0.28" height="0.75"/>
			</g>
			<g>
				
					<rect x="77.97" y="44.59" fill="#FFFFFF" stroke="#1D2132" stroke-width="0.1" stroke-linecap="square" stroke-miterlimit="10" width="0.59" height="0.14"/>
				
					<rect x="73.88" y="44.59" fill="#FFFFFF" stroke="#1D2132" stroke-width="0.1" stroke-linecap="square" stroke-miterlimit="10" width="0.59" height="0.14"/>
			</g>
		</g>
	</g>
</g>
<g id="Furniture">
	<g>
		
			<rect x="7.88" y="70.63" fill="#FFFFFF" stroke="#1D2132" stroke-width="0.1" stroke-linecap="square" stroke-miterlimit="22.9256" width="33.81" height="7.98"/>
		
			<rect x="22.1" y="70.63" fill="#FFFFFF" stroke="#1D2132" stroke-width="0.1" stroke-linecap="square" stroke-miterlimit="22.9256" width="6.21" height="7.98"/>
		
			<rect x="34.98" y="70.63" fill="#FFFFFF" stroke="#1D2132" stroke-width="0.1" stroke-linecap="square" stroke-miterlimit="22.9256" width="7.05" height="7.98"/>
		
			<rect x="7.88" y="70.63" fill="#FFFFFF" stroke="#1D2132" stroke-width="0.1" stroke-linecap="square" stroke-miterlimit="22.9256" width="6.86" height="7.98"/>
		<g>
			
				<line fill="none" stroke="#1D2132" stroke-width="0.1" stroke-linecap="square" stroke-miterlimit="22.9256" x1="11.39" y1="75.61" x2="11.39" y2="73.63"/>
			
				<line fill="none" stroke="#1D2132" stroke-width="0.1" stroke-linecap="square" stroke-miterlimit="22.9256" x1="10.69" y1="75.32" x2="12.1" y2="73.91"/>
			
				<line fill="none" stroke="#1D2132" stroke-width="0.1" stroke-linecap="square" stroke-miterlimit="22.9256" x1="10.39" y1="74.63" x2="12.4" y2="74.63"/>
			
				<line fill="none" stroke="#1D2132" stroke-width="0.1" stroke-linecap="square" stroke-miterlimit="22.9256" x1="10.69" y1="73.91" x2="12.1" y2="75.32"/>
		</g>
		<g>
			
				<rect x="22.84" y="70.95" fill="#FFFFFF" stroke="#1D2132" stroke-width="0.1" stroke-linecap="square" stroke-miterlimit="22.9256" width="4.65" height="7.32"/>
			<g>
				<path fill="#FFFFFF" stroke="#1D2132" stroke-width="0.1" stroke-linecap="square" stroke-miterlimit="22.9256" d="M26.45,72.95
					c0,0.71-0.57,1.27-1.27,1.27c-0.71,0-1.27-0.56-1.27-1.27s0.56-1.27,1.27-1.27C25.87,71.67,26.45,72.25,26.45,72.95"/>
				<path fill="#FFFFFF" stroke="#1D2132" stroke-width="0.1" stroke-linecap="square" stroke-miterlimit="22.9256" d="M26.45,76.55
					c0,0.7-0.57,1.27-1.27,1.27c-0.71,0-1.27-0.56-1.27-1.27s0.56-1.27,1.27-1.27C25.87,75.28,26.45,75.85,26.45,76.55"/>
				<path fill="#FFFFFF" stroke="#1D2132" stroke-width="0.1" stroke-linecap="square" stroke-miterlimit="22.9256" d="M26.2,72.95
					c0,0.56-0.46,1.01-1.01,1.01c-0.56,0-1.01-0.46-1.01-1.01c0-0.56,0.46-1.01,1.01-1.01C25.74,71.92,26.2,72.39,26.2,72.95"/>
				<path fill="#FFFFFF" stroke="#1D2132" stroke-width="0.1" stroke-linecap="square" stroke-miterlimit="22.9256" d="M26.2,76.55
					c0,0.56-0.46,1.01-1.01,1.01c-0.56,0-1.01-0.46-1.01-1.01c0-0.56,0.46-1.01,1.01-1.01S26.2,75.99,26.2,76.55"/>
			</g>
		</g>
		<g>
			<path fill="#FFFFFF" stroke="#1D2132" stroke-width="0.1" stroke-linecap="square" stroke-miterlimit="22.9256" d="M36.97,77.13
				h3.08c0.26,0,0.46-0.2,0.46-0.46v-5.08c0-0.26-0.2-0.46-0.46-0.46h-3.08c-0.26,0-0.46,0.2-0.46,0.46v5.08
				C36.5,76.93,36.7,77.13,36.97,77.13z"/>
			<g>
				<path fill="#FFFFFF" stroke="#1D2132" stroke-width="0.1" stroke-linecap="square" stroke-miterlimit="22.9256" d="M38.82,75.99
					c0-0.2-0.15-0.36-0.32-0.36s-0.32,0.16-0.32,0.36s0.15,0.36,0.32,0.36S38.84,76.19,38.82,75.99z"/>
				<g>
					<path fill="#FFFFFF" stroke="#1D2132" stroke-width="0.1" stroke-linecap="square" stroke-miterlimit="22.9256" d="
						M39.05,77.63c-0.01-0.27-0.25-0.5-0.55-0.5c-0.31,0-0.55,0.22-0.55,0.5s0.24,0.5,0.55,0.5S39.05,77.9,39.05,77.63z"/>
					<path fill="#FFFFFF" stroke="#1D2132" stroke-width="0.1" stroke-linecap="square" stroke-miterlimit="22.9256" d="
						M38.49,74.81c-0.1,0-0.16,0.1-0.16,0.26l0.01,2.59c0,0.15,0.07,0.26,0.16,0.26l0,0c0.1,0,0.16-0.11,0.16-0.26l-0.01-2.59
						C38.65,74.92,38.59,74.81,38.49,74.81L38.49,74.81z"/>
					<path fill="#FFFFFF" stroke="#1D2132" stroke-width="0.1" stroke-linecap="square" stroke-miterlimit="22.9256" d="M39.26,77.6
						c0-0.09-0.34-0.15-0.76-0.15c-0.41,0-0.76,0.07-0.76,0.15c0,0.1,0.34,0.15,0.76,0.15C38.92,77.76,39.27,77.7,39.26,77.6z"/>
				</g>
			</g>
		</g>
	</g>
	<g>
		<g>
			
				<rect x="2.73" y="6.5" fill="#FFFFFF" stroke="#1D2132" stroke-width="0.1" stroke-linecap="square" stroke-miterlimit="10" width="5.23" height="30.29"/>
			<g>
				<polygon fill="#FFFFFF" stroke="#1D2132" stroke-width="0.1" stroke-linecap="square" stroke-miterlimit="10" points="
					8.3,33.76 8.3,31.71 7.96,31.71 7.96,31.17 8.49,31.17 8.49,34.3 7.96,34.3 7.96,33.76 				"/>
				<polygon fill="#FFFFFF" stroke="#1D2132" stroke-width="0.1" stroke-linecap="square" stroke-miterlimit="10" points="
					8.3,11.58 8.3,9.53 7.96,9.53 7.96,8.99 8.49,8.99 8.49,12.12 7.96,12.12 7.96,11.58 				"/>
			</g>
			<g>
				<polygon fill="#FFFFFF" stroke="#1D2132" stroke-width="0.1" stroke-linecap="square" stroke-miterlimit="10" points="
					8.3,27.93 8.3,25.88 7.96,25.88 7.96,25.34 8.49,25.34 8.49,28.48 7.96,28.48 7.96,27.93 				"/>
				<polygon fill="#FFFFFF" stroke="#1D2132" stroke-width="0.1" stroke-linecap="square" stroke-miterlimit="10" points="
					8.3,17.41 8.3,15.36 7.96,15.36 7.96,14.82 8.49,14.82 8.49,17.95 7.96,17.95 7.96,17.41 				"/>
			</g>
		</g>
		<g>
			<path fill="#FFFFFF" stroke="#1D2132" stroke-width="0.1" stroke-linecap="square" stroke-miterlimit="10" d="M3.77,20.61v2.08
				c0,0.5,0.41,0.91,0.91,0.91h0.29c0.5,0,0.91-0.41,0.91-0.91v-2.08c0-0.5-0.41-0.91-0.91-0.91H4.68
				C4.17,19.7,3.76,20.1,3.77,20.61z"/>
			<path fill="#FFFFFF" stroke="#1D2132" stroke-width="0.1" stroke-linecap="square" stroke-miterlimit="10" d="M4.62,20.81v1.67
				c0,0.22,0.17,0.39,0.39,0.39H5.1c0.22,0,0.39-0.17,0.39-0.39v-1.67c0-0.22-0.17-0.39-0.39-0.39H5.01
				C4.8,20.42,4.62,20.59,4.62,20.81z"/>
			
				<rect x="5.32" y="14.76" fill="#FFFFFF" stroke="#1D2132" stroke-width="0.1" stroke-linecap="square" stroke-miterlimit="10" width="0.18" height="13.77"/>
			<polygon fill="#FFFFFF" stroke="#1D2132" stroke-width="0.1" stroke-linecap="square" stroke-miterlimit="10" points="
				4.96,26.54 5.32,28.53 5.32,14.76 4.96,16.75 			"/>
		</g>
	</g>
	<g>
		<path fill="#FFFFFF" stroke="#1D2132" stroke-width="0.1" stroke-linecap="square" stroke-miterlimit="10" d="M45.68,48
			c-1,0.31-1.82,1.3-3.99,1.31c-2.17,0.01-4.46-2.61-3.37-6.36s3.13-4.7,4.9-4.51s2.67,1.38,3.25,2.02c1.34,1.45,1.35,2,1.92,2.45
			c1.16,0.92,0.62,2.98,0.01,3.73C47.28,48,46.68,47.68,45.68,48z"/>
		<path fill="none" stroke="#1D2132" stroke-width="0.1" stroke-linecap="square" stroke-miterlimit="10" d="M39.08,47.95
			c0,0,0.44,0.5,1.14,0.84s0.91,0.21,1.82,0.15c0.91-0.06,1.35-0.06,2.59-0.87c0.88-0.57,0.78-0.89,1.1-0.77
			c0.19,0.07,0.72-0.06,1.15-0.48c0.71-0.69,0.85-1.36,1.03-2.26c0.18-0.91-0.39-1.5-0.49-1.58c-0.1-0.08,0.2-0.39-0.13-0.9
			c-1.1-1.69-1.15-1.28-2.15-2.55c-0.5-0.63-1.92-1.1-1.92-1.1"/>
		<path fill="none" stroke="#1D2132" stroke-width="0.1" stroke-linecap="square" stroke-miterlimit="10" d="M46.42,43.04
			c0,0-0.13,0.05-0.69,0c-0.55-0.05-1.35-0.3-1.35-0.3s0,0-0.07-0.14c-0.07-0.13-0.19-0.44-0.46-0.83s0.22-1.09,0.22-1.09"/>
		<path fill="none" stroke="#1D2132" stroke-width="0.1" stroke-linecap="square" stroke-miterlimit="10" d="M45.23,46.94
			c0,0-0.2-0.25-0.7-0.54s-1.06-0.59-1.06-0.59s0.09-0.98,0.38-1.75s0.53-1.31,0.53-1.31"/>
		<path fill="none" stroke="#1D2132" stroke-width="0.1" stroke-linecap="square" stroke-miterlimit="10" d="M43.47,45.82
			c0,0-0.45,0-1.05,0.18s-0.79,0.3-0.82,0.74c-0.03,0.44,0.27,1.08,0.27,1.08"/>
		<path fill="none" stroke="#1D2132" stroke-width="0.1" stroke-linecap="square" stroke-miterlimit="10" d="M39.94,42.86
			c0,0,0.15,0.12,0.44,0.2c0.29,0.07,0.41,0.03,0.41,0.03s0,0,0.23-0.56s1.1-1.32,1.1-1.32"/>
		<path fill="none" stroke="#1D2132" stroke-width="0.1" stroke-linecap="square" stroke-miterlimit="10" d="M40.25,45.94
			c0.25-0.06,0.39-0.31,0.39-0.31s0,0-0.09-0.21s-0.09-0.77,0.08-1.24c0.16-0.47,0.16-1.09,0.16-1.09"/>
		<path fill="none" stroke="#1D2132" stroke-width="0.1" stroke-linecap="square" stroke-miterlimit="10" d="M41.44,40.58
			c0,0,0.19,0.05,0.37,0.15c0.18,0.11,0.31,0.48,0.31,0.48"/>
		<path fill="#FFFFFF" stroke="#1D2132" stroke-width="0.1" stroke-linecap="square" stroke-miterlimit="10" d="M48.25,44.23
			c0.29,0.14,0.21,0.38,0.15,0.71s-0.15,0.53-0.23,0.88c-0.08,0.34-0.41,0.38-0.41,0.38l-0.52-0.18c0,0,0.02-0.15,0.07-0.15
			c0.07-0.01,0.33,0.22,0.45,0.14c0.2-0.14,0.09-0.43,0.15-0.76c0.06-0.33,0.22-0.54,0.21-0.75c0-0.12-0.24-0.22-0.37-0.2
			c-0.08,0.01-0.05-0.12-0.05-0.12S47.96,44.08,48.25,44.23z"/>
	</g>
	<g>
		<g>
			<path fill="#FFFFFF" stroke="#1D2132" stroke-width="0.1" stroke-linecap="square" stroke-miterlimit="10" d="M5.98,59.87
				c0.78-0.19,1.77-0.15,2.41-0.15s1.63-0.04,2.4,0.15c0.79,0.19,1.12,0.6,1.01,1.96c-0.11,1.36-0.08,3.2-0.34,3.88
				c-0.23,0.6-1.54,0.15-3.08,0.15s-2.85,0.45-3.08-0.15c-0.26-0.68-0.22-2.52-0.33-3.88C4.86,60.47,5.2,60.06,5.98,59.87z"/>
			<path fill="#FFFFFF" stroke="#1D2132" stroke-width="0.1" stroke-linecap="square" stroke-miterlimit="10" d="M6.16,59.84
				c0.72-0.15,1.64-0.12,2.23-0.12c0.59,0,1.51-0.02,2.23,0.13c0.73,0.16,1.04,0.5,0.94,1.61c-0.11,1.11-0.08,2.62-0.32,3.18
				c-0.22,0.5-1.43,0.96-2.86,0.96c-1.42,0-2.63-0.47-2.85-0.96c-0.24-0.56-0.21-2.08-0.31-3.19S5.43,60,6.16,59.84z"/>
			<g>
				<path fill="#FFFFFF" stroke="#1D2132" stroke-width="0.1" stroke-linecap="square" stroke-miterlimit="10" d="M5.13,66.64
					c0-1.65,1.51-0.49,3.25-0.49c1.68,0,3.06-1.12,3.24,0.43c-0.43,0.14-0.87,0.26-1.32,0.35C8.52,67.27,6.75,67.15,5.13,66.64z"/>
				<path fill="#FFFFFF" stroke="#1D2132" stroke-width="0.1" stroke-linecap="square" stroke-miterlimit="10" d="M5.06,66.62
					c0.03,0,0.05,0.01,0.08,0.02c1.62,0.51,3.39,0.64,5.17,0.29c0.45-0.09,0.89-0.21,1.32-0.35c0.03-0.01,0.06-0.02,0.09-0.03
					l0.1,0.3c-0.08,0.03-0.16,0.06-0.24,0.08c-0.39,0.12-0.79,0.23-1.21,0.31c-1.76,0.35-3.5,0.24-5.11-0.23
					c-0.1-0.03-0.2-0.06-0.3-0.09L5.06,66.62z"/>
			</g>
		</g>
		<g>
			<path fill="#FFFFFF" stroke="#1D2132" stroke-width="0.1" stroke-linecap="square" stroke-miterlimit="10" d="M5.98,48.06
				c0.78,0.19,1.77,0.15,2.41,0.15s1.63,0.04,2.4-0.15c0.79-0.19,1.12-0.6,1.01-1.96c-0.11-1.36-0.08-3.2-0.34-3.88
				c-0.23-0.6-1.54-0.15-3.08-0.15s-2.85-0.45-3.08,0.15c-0.26,0.68-0.22,2.52-0.33,3.88C4.86,47.45,5.2,47.87,5.98,48.06z"/>
			<path fill="#FFFFFF" stroke="#1D2132" stroke-width="0.1" stroke-linecap="square" stroke-miterlimit="10" d="M6.16,48.08
				c0.72,0.15,1.64,0.12,2.23,0.12c0.59,0,1.51,0.02,2.23-0.13c0.73-0.16,1.04-0.5,0.94-1.61c-0.11-1.11-0.08-2.62-0.32-3.18
				c-0.22-0.5-1.43-0.96-2.86-0.96c-1.42,0-2.63,0.47-2.85,0.96c-0.24,0.56-0.21,2.08-0.31,3.19C5.12,47.59,5.43,47.93,6.16,48.08z"
				/>
			<g>
				<path fill="#FFFFFF" stroke="#1D2132" stroke-width="0.1" stroke-linecap="square" stroke-miterlimit="10" d="M5.13,41.29
					c0,1.65,1.51,0.49,3.25,0.49c1.68,0,3.06,1.12,3.24-0.43c-0.43-0.14-0.87-0.26-1.32-0.35C8.52,40.65,6.75,40.77,5.13,41.29z"/>
				<path fill="#FFFFFF" stroke="#1D2132" stroke-width="0.1" stroke-linecap="square" stroke-miterlimit="10" d="M5.06,41.31
					c0.03,0,0.05-0.01,0.08-0.02c1.62-0.51,3.39-0.64,5.17-0.29c0.45,0.09,0.89,0.21,1.32,0.35c0.03,0.01,0.06,0.02,0.09,0.03
					l0.1-0.3c-0.08-0.03-0.16-0.06-0.24-0.08c-0.39-0.12-0.79-0.23-1.21-0.31c-1.76-0.35-3.5-0.24-5.11,0.23
					c-0.1,0.03-0.2,0.06-0.3,0.09L5.06,41.31z"/>
			</g>
		</g>
		<g>
			<path fill="#FFFFFF" stroke="#1D2132" stroke-width="0.1" stroke-linecap="square" stroke-miterlimit="10" d="M14.07,51.25
				c-0.19,0.78-0.15,1.77-0.15,2.41c0,0.64-0.04,1.63,0.15,2.4c0.19,0.79,0.6,1.12,1.96,1.01s3.2-0.08,3.88-0.34
				c0.6-0.23,0.15-1.54,0.15-3.08c0-1.54,0.45-2.85-0.15-3.08c-0.68-0.26-2.52-0.22-3.88-0.33C14.68,50.13,14.26,50.47,14.07,51.25z
				"/>
			<path fill="#FFFFFF" stroke="#1D2132" stroke-width="0.1" stroke-linecap="square" stroke-miterlimit="10" d="M14.05,51.44
				c-0.15,0.72-0.12,1.64-0.12,2.23s-0.02,1.51,0.13,2.23c0.16,0.73,0.5,1.04,1.61,0.94c1.11-0.11,2.62-0.08,3.18-0.32
				c0.5-0.22,0.96-1.43,0.96-2.86c0-1.42-0.47-2.63-0.96-2.85c-0.56-0.24-2.08-0.21-3.19-0.31C14.54,50.39,14.2,50.7,14.05,51.44z"
				/>
			<g>
				<path fill="#FFFFFF" stroke="#1D2132" stroke-width="0.1" stroke-linecap="square" stroke-miterlimit="10" d="M20.85,50.41
					c-1.65,0-0.49,1.51-0.49,3.25c0,1.68-1.12,3.06,0.43,3.24c0.14-0.43,0.26-0.87,0.35-1.32C21.48,53.79,21.36,52.03,20.85,50.41z"
					/>
				<path fill="#FFFFFF" stroke="#1D2132" stroke-width="0.1" stroke-linecap="square" stroke-miterlimit="10" d="M20.82,50.33
					c0,0.03,0.01,0.05,0.02,0.08c0.51,1.62,0.64,3.39,0.29,5.17c-0.09,0.45-0.21,0.89-0.35,1.32c-0.01,0.03-0.02,0.06-0.03,0.09
					l0.3,0.1c0.03-0.08,0.06-0.16,0.08-0.24c0.12-0.39,0.23-0.79,0.31-1.21c0.35-1.76,0.24-3.5-0.23-5.11
					c-0.03-0.1-0.06-0.2-0.09-0.3L20.82,50.33z"/>
			</g>
		</g>
		
			<rect x="2.73" y="48.42" fill="#FFFFFF" stroke="#1D2132" stroke-width="0.1" stroke-linecap="square" stroke-miterlimit="10" width="11.01" height="11.01"/>
	</g>
	<g>
		
			<rect x="70.88" y="45.85" fill="#FFFFFF" stroke="#1D2132" stroke-width="0.1" stroke-linecap="square" stroke-miterlimit="10" width="0.69" height="8.26"/>
		
			<rect x="70.87" y="46.3" fill="#FFFFFF" stroke="#1D2132" stroke-width="0.1" stroke-linecap="square" stroke-miterlimit="10" width="0.41" height="7.35"/>
	</g>
	<g>
		
			<rect x="70.83" y="70.46" fill="#FFFFFF" stroke="#1D2132" stroke-width="0.1" stroke-linecap="square" stroke-miterlimit="10" width="0.69" height="5.51"/>
		<g>
			
				<rect x="69.78" y="70.85" fill="#FFFFFF" stroke="#1D2132" stroke-width="0.1" stroke-linecap="square" stroke-miterlimit="10" width="1.05" height="0.31"/>
			
				<rect x="70.64" y="70.85" fill="#FFFFFF" stroke="#1D2132" stroke-width="0.1" stroke-linecap="square" stroke-miterlimit="10" width="0.19" height="0.31"/>
		</g>
		<g>
			
				<rect x="69.78" y="72.33" fill="#FFFFFF" stroke="#1D2132" stroke-width="0.1" stroke-linecap="square" stroke-miterlimit="10" width="1.05" height="0.31"/>
			
				<rect x="70.64" y="72.33" fill="#FFFFFF" stroke="#1D2132" stroke-width="0.1" stroke-linecap="square" stroke-miterlimit="10" width="0.19" height="0.31"/>
		</g>
		<g>
			
				<rect x="69.78" y="73.8" fill="#FFFFFF" stroke="#1D2132" stroke-width="0.1" stroke-linecap="square" stroke-miterlimit="10" width="1.05" height="0.31"/>
			
				<rect x="70.64" y="73.8" fill="#FFFFFF" stroke="#1D2132" stroke-width="0.1" stroke-linecap="square" stroke-miterlimit="10" width="0.19" height="0.31"/>
		</g>
		<g>
			
				<rect x="69.78" y="75.27" fill="#FFFFFF" stroke="#1D2132" stroke-width="0.1" stroke-linecap="square" stroke-miterlimit="10" width="1.05" height="0.31"/>
			
				<rect x="70.64" y="75.27" fill="#FFFFFF" stroke="#1D2132" stroke-width="0.1" stroke-linecap="square" stroke-miterlimit="10" width="0.19" height="0.31"/>
		</g>
	</g>
	<g>
		<g>
			<g>
				
					<rect x="91.01" y="36.51" fill="#FFFFFF" stroke="#1D2132" stroke-width="0.1" stroke-linecap="square" stroke-miterlimit="10" width="4.87" height="4.87"/>
				<polygon fill="#FFFFFF" stroke="#1D2132" stroke-width="0.1" stroke-linecap="square" stroke-miterlimit="10" points="
					90.68,39.9 90.68,37.99 91,37.99 91,37.49 90.52,37.49 90.52,40.4 91,40.4 91,39.9 				"/>
			</g>
			<g>
				
					<rect x="91.01" y="6.9" fill="#FFFFFF" stroke="#1D2132" stroke-width="0.1" stroke-linecap="square" stroke-miterlimit="10" width="4.87" height="4.87"/>
				<polygon fill="#FFFFFF" stroke="#1D2132" stroke-width="0.1" stroke-linecap="square" stroke-miterlimit="10" points="
					90.68,10.29 90.68,8.39 91,8.39 91,7.88 90.52,7.88 90.52,10.8 91,10.8 91,10.29 				"/>
			</g>
		</g>
		<g>
			<g>
				
					<rect x="70.65" y="12.6" fill="#FFFFFF" stroke="#1D2132" stroke-width="0.1" stroke-linecap="square" stroke-miterlimit="22.9256" width="25.64" height="23.07"/>
				<path fill="#FFFFFF" stroke="#1D2132" stroke-width="0.1" stroke-linecap="square" stroke-miterlimit="22.9256" d="M95.5,12.89
					c0.28,0.03,0.11,0.75,0.25,0.39s0.22,0,0.22,0.36c0,0.36,0,14.52,0,15.18c0,0.66,0,1.57,0,1.57s0.09-0.08,0,0.22
					c-0.09,0.31,0.09,4.24,0,4.55c-0.09,0.31-0.47-0.52-0.61-0.37c-0.13,0.15,0.72,0.53,0.49,0.55c-0.28,0.03-1.11-0.11-1.67-0.07
					c-0.55,0.04-0.86,0.25-1.6,0.01c-0.38-0.13-0.82,0.14-1.99,0.12s-1.63-0.02-3.22,0c-1.6,0.02-3.8,0.01-5.21,0.06
					c-1.13,0.04-1.84-0.15-2.34-0.03c-0.18,0.04-1.2-0.01-2.51,0.03c-1.31,0.04-5.28-0.06-5.96-0.08c-0.69-0.01-0.45,0.01-0.38-0.1
					c0.07-0.11,0.42-0.15,0.68-0.31c0.26-0.16-0.06-0.19-0.48,0.06s-0.21,0.06-0.21-0.5c0-0.38,0.04-1.11,0.16-1.2
					c0.13-0.1,0.1-0.08-0.07-0.16c-0.16-0.1-0.2-0.72-0.07-1.13c0.13-0.41,0-2.49,0.1-2.59c0.1-0.11,0.16-0.11,0-0.19
					s-0.16-11.85-0.16-13.55c0-1.73,0.02-2.45,0.06-2.67c0.03-0.2,0.61,0.57,0.87,0.64c0.26,0.07-0.07-0.15-0.14-0.22
					c-0.07-0.08-0.47-0.3-0.57-0.43c-0.1-0.13,0.31,0.04,0.74,0.13c0.62,0.13-0.5-0.15-0.01-0.16c0.44,0,0.27,0.09,0.66,0.01
					c0.16-0.03,0.53-0.06,1.17-0.03c1.03,0.04,2.62-0.12,4.55-0.1c1.93,0.02,2.48-0.04,2.61,0.09c0.13,0.13,0.84,0.39,0.91,0.24
					c0.06-0.15-0.27-0.27,0.61-0.31s2.47,0.08,3.49,0.08c1.02,0,2.48-0.12,2.74,0.03c0.26,0.15,0.49,0.13,0.66,0
					c0.16-0.13,0.26,0.02,1.31,0.02c1.05,0,1.68-0.05,2.7-0.13c0.61-0.05,1.24,0,1.24,0C94.8,12.99,95.22,12.84,95.5,12.89z"/>
				<path fill="#FFFFFF" stroke="#1D2132" stroke-width="0.1" stroke-linecap="square" stroke-miterlimit="22.9256" d="M89.4,14.22
					c0.39,0.84,0.1,3.14-0.14,3.81c-0.23,0.68,0.32,14.43,0.06,15.37s-0.53,1.38-0.4,0.88c0.13-0.51-0.1-1.32-0.07-0.4
					c0.04,0.92-0.05,1.67-0.05,1.92c0,0.06,0,0.06-0.49,0.1c-0.38,0.03-0.7,0.12-0.73,0c-0.04-0.11,0.62-1.55,0.66-1.61
					c0.15-0.24-0.76,1.43-0.82,1.59c-0.07,0.15-0.4,0.04-1.41-0.06c-1-0.1-2.03,0.02-2.54-0.1c-0.52-0.13,0.49,0.02,0.82-0.06
					c0.33-0.08,0.48,0.05,1.47-1.33s1.37-13.74,1.53-15.94c0.06-0.87,0.29-2.81,0.06-3.57c-0.18-0.6-0.37-1.29-0.3-1.4
					c0.07-0.12,0.14,0.1,0.3,0.3c0.16,0.21,0.19,0.23,0.43,0.42c0.23,0.19-0.29-0.5-1.02-1.14c-0.72-0.64-1.97-0.3-1.97-0.4
					s3.63-0.16,4.39-0.06C89.74,12.63,89,13.37,89.4,14.22z"/>
				<g>
					<path fill="#FFFFFF" stroke="#1D2132" stroke-width="0.1" stroke-linecap="square" stroke-miterlimit="22.9256" d="
						M96.13,25.93c0.12,0.31,0.1,1.14,0.14,3.04c0.04,1.9-0.07,2.65-0.11,3.01c-0.04,0.35-0.26,1.06-0.12,1.24
						c0.15,0.17-0.18,0.31-0.29,0.26s-0.61-0.1-1.48-0.01c-0.88,0.09-2.08-0.22-2.19-0.09s-0.18-0.09-0.15-0.26
						c0.04-0.17-0.08-0.48-0.1-0.85c-0.09-1.69-0.18-2.77-0.08-5.2c0.03-0.63,0.24-1.4,0.1-1.67c-0.15-0.27,0-0.31,0.18-0.22
						s0.27,0.21,0.97-0.01c0.69-0.22,1.24-0.18,1.97-0.05c0.74,0.14,0.9,0.09,1.01,0c0.11-0.09,0.16-0.17,0.16,0.18
						C96.15,25.4,96.05,25.61,96.13,25.93z"/>
					<path fill="none" stroke="#1D2132" stroke-width="0.1" stroke-linecap="square" stroke-miterlimit="22.9256" d="M92.53,32.99
						c0,0-0.68-1.57-0.68-3.74s0.49-3.61,0.49-3.61"/>
				</g>
				<g>
					<path fill="#FFFFFF" stroke="#1D2132" stroke-width="0.1" stroke-linecap="square" stroke-miterlimit="22.9256" d="M93.8,26.85
						c0.09,0.22,0.08,0.83,0.11,2.21s-0.06,1.93-0.09,2.19c-0.03,0.25-0.2,0.77-0.09,0.9c0.13,0.13-0.15,0.22-0.23,0.19
						c-0.09-0.04-0.49-0.08-1.2-0.01c-0.71,0.06-1.68-0.16-1.77-0.07c-0.09,0.1-0.15-0.07-0.12-0.19c0.03-0.13-0.06-0.36-0.08-0.62
						c-0.07-1.23-0.15-2-0.07-3.78c0.03-0.46,0.19-1.02,0.08-1.21s0-0.23,0.15-0.16c0.15,0.07,0.22,0.15,0.78-0.01
						c0.55-0.15,1-0.13,1.59-0.03c0.59,0.1,0.73,0.07,0.81,0c0.09-0.07,0.14-0.14,0.14,0.13C93.81,26.45,93.72,26.61,93.8,26.85z"/>
					<path fill="none" stroke="#1D2132" stroke-width="0.1" stroke-linecap="square" stroke-miterlimit="22.9256" d="M90.89,31.97
						c0,0-0.55-1.14-0.55-2.72c0-1.57,0.4-2.62,0.4-2.62"/>
				</g>
				<g>
					<path fill="#FFFFFF" stroke="#1D2132" stroke-width="0.1" stroke-linecap="square" stroke-miterlimit="22.9256" d="
						M96.13,15.82c0.12,0.31,0.1,1.14,0.14,3.04c0.04,1.9-0.07,2.65-0.11,3.01c-0.04,0.35-0.26,1.06-0.12,1.24s-0.18,0.31-0.29,0.26
						c-0.11-0.05-0.61-0.1-1.48-0.01c-0.88,0.09-2.08-0.22-2.19-0.09s-0.18-0.09-0.15-0.26c0.04-0.17-0.08-0.48-0.1-0.85
						c-0.09-1.69-0.18-2.77-0.08-5.2c0.03-0.63,0.24-1.4,0.1-1.67c-0.15-0.27,0-0.31,0.18-0.22s0.27,0.21,0.97-0.01
						c0.69-0.22,1.24-0.18,1.97-0.05c0.74,0.14,0.9,0.09,1.01,0c0.11-0.09,0.16-0.17,0.16,0.18C96.15,15.29,96.05,15.5,96.13,15.82z
						"/>
					<path fill="none" stroke="#1D2132" stroke-width="0.1" stroke-linecap="square" stroke-miterlimit="22.9256" d="M92.53,22.89
						c0,0-0.68-1.57-0.68-3.74s0.49-3.61,0.49-3.61"/>
				</g>
				<g>
					<path fill="#FFFFFF" stroke="#1D2132" stroke-width="0.1" stroke-linecap="square" stroke-miterlimit="22.9256" d="M93.8,16.74
						c0.09,0.22,0.08,0.83,0.11,2.21c0.03,1.37-0.06,1.93-0.09,2.19c-0.03,0.25-0.2,0.77-0.09,0.9c0.13,0.13-0.15,0.22-0.23,0.19
						c-0.09-0.04-0.49-0.08-1.2-0.01c-0.71,0.06-1.68-0.16-1.77-0.07c-0.09,0.1-0.15-0.07-0.12-0.19c0.03-0.13-0.06-0.36-0.08-0.62
						c-0.07-1.23-0.15-2-0.07-3.78c0.03-0.46,0.19-1.02,0.08-1.21s0-0.23,0.15-0.16c0.15,0.07,0.22,0.15,0.78-0.01
						c0.55-0.15,1-0.13,1.59-0.03c0.59,0.1,0.73,0.07,0.81,0c0.09-0.07,0.14-0.14,0.14,0.13C93.81,16.34,93.72,16.5,93.8,16.74z"/>
					<path fill="none" stroke="#1D2132" stroke-width="0.1" stroke-linecap="square" stroke-miterlimit="22.9256" d="M90.89,21.86
						c0,0-0.55-1.14-0.55-2.72c0-1.57,0.4-2.62,0.4-2.62"/>
				</g>
				<path fill="#FFFFFF" stroke="#1D2132" stroke-width="0.1" stroke-linecap="square" stroke-miterlimit="22.9256" d="M71.49,35.78
					h7.14c0.33,0,0.6-0.26,0.6-0.6V12.93c0-0.33-0.26-0.6-0.6-0.6h-7.14c-0.33,0-0.6,0.26-0.6,0.6v22.26
					C70.89,35.52,71.17,35.79,71.49,35.78z"/>
			</g>
			<g>
				
					<rect x="96.78" y="8.76" fill="#FFFFFF" stroke="#1D2132" stroke-width="0.1" stroke-linecap="square" stroke-miterlimit="22.9256" width="0.64" height="30.77"/>
				<path fill="#FFFFFF" stroke="#1D2132" stroke-width="0.1" stroke-linecap="square" stroke-miterlimit="22.9256" d="M96.75,39.25
					h0.03V9.03h-0.04c-0.25,0-0.46,0.2-0.46,0.46V38.8C96.29,39.05,96.49,39.25,96.75,39.25z"/>
				<g>
					<g>
						<g>
							<path fill="#FFFFFF" stroke="#1D2132" stroke-width="0.1" stroke-linecap="square" stroke-miterlimit="22.9256" d="
								M96.78,38.51h-0.15c-0.25,0-0.46-0.2-0.46-0.46v-0.07c0-0.25,0.2-0.46,0.46-0.46h0.15V38.51L96.78,38.51z"/>
							<path fill="#FFFFFF" stroke="#1D2132" stroke-width="0.1" stroke-linecap="square" stroke-miterlimit="22.9256" d="
								M92.07,34.45L92.07,34.45c-0.11-0.02-0.25,0.22-0.33,0.54c-0.08,0.32-0.06,0.6,0.05,0.63l0,0c0.41,0.08,0.82,0.1,1.23,0.06
								l0.17-0.73C92.83,34.72,92.45,34.56,92.07,34.45z"/>
							
								<ellipse transform="matrix(0.2315 -0.9728 0.9728 0.2315 37.189 117.716)" fill="#FFFFFF" stroke="#1D2132" stroke-width="0.1" stroke-linecap="square" stroke-miterlimit="22.9256" cx="93.1" cy="35.32" rx="0.38" ry="0.13"/>
							<path fill="#FFFFFF" stroke="#1D2132" stroke-width="0.1" stroke-linecap="square" stroke-miterlimit="22.9256" d="
								M93.21,35.27l0.08,0.03c0.02,0.01,0.46,0.18,0.79,0.84c0.06,0.12,0.11,0.24,0.16,0.38c0.16,0.39,0.33,0.78,0.67,1.05
								c0.45,0.35,1.18,0.35,1.19,0.35h0.08v0.16H96.1c-0.04,0-0.8,0-1.3-0.39c-0.37-0.3-0.55-0.73-0.72-1.11
								c-0.06-0.13-0.11-0.25-0.16-0.37c-0.3-0.6-0.71-0.76-0.71-0.76l-0.08-0.03C93.13,35.36,93.16,35.26,93.21,35.27z"/>
						</g>
					</g>
					<g>
						<g>
							<path fill="#FFFFFF" stroke="#1D2132" stroke-width="0.1" stroke-linecap="square" stroke-miterlimit="22.9256" d="
								M96.78,9.78h-0.15c-0.25,0-0.46,0.2-0.46,0.46v0.07c0,0.25,0.2,0.46,0.46,0.46h0.15V9.78L96.78,9.78z"/>
							<path fill="#FFFFFF" stroke="#1D2132" stroke-width="0.1" stroke-linecap="square" stroke-miterlimit="22.9256" d="
								M92.07,13.84L92.07,13.84c-0.11,0.02-0.25-0.22-0.33-0.54c-0.08-0.32-0.06-0.6,0.05-0.63l0,0c0.41-0.08,0.82-0.1,1.23-0.06
								l0.17,0.73C92.83,13.57,92.45,13.73,92.07,13.84z"/>
							
								<ellipse transform="matrix(0.9728 -0.2315 0.2315 0.9728 -0.4729 21.9059)" fill="#FFFFFF" stroke="#1D2132" stroke-width="0.1" stroke-linecap="square" stroke-miterlimit="22.9256" cx="93.1" cy="12.97" rx="0.13" ry="0.38"/>
							<path fill="#FFFFFF" stroke="#1D2132" stroke-width="0.1" stroke-linecap="square" stroke-miterlimit="22.9256" d="
								M93.21,13.01l0.08-0.03c0.02-0.01,0.46-0.18,0.79-0.84c0.06-0.12,0.11-0.24,0.16-0.38c0.16-0.39,0.33-0.78,0.67-1.05
								c0.45-0.35,1.18-0.35,1.19-0.35h0.08v-0.16H96.1c-0.04,0-0.8,0-1.3,0.39c-0.37,0.3-0.55,0.73-0.72,1.11
								c-0.06,0.13-0.11,0.25-0.16,0.37c-0.3,0.6-0.71,0.76-0.71,0.76l-0.08,0.03C93.13,12.93,93.16,13.01,93.21,13.01z"/>
						</g>
					</g>
				</g>
			</g>
		</g>
	</g>
	<g>
		<g>
			
				<rect x="66.55" y="5.06" fill="#FFFFFF" stroke="#1D2132" stroke-width="0.1" stroke-linecap="square" stroke-miterlimit="10" width="11.01" height="0.83"/>
			
				<line fill="none" stroke="#1D2132" stroke-width="0.1" stroke-linecap="square" stroke-miterlimit="10" x1="67.41" y1="5.72" x2="67.41" y2="5.22"/>
			
				<line fill="none" stroke="#1D2132" stroke-width="0.1" stroke-linecap="square" stroke-miterlimit="10" x1="67.71" y1="5.72" x2="67.71" y2="5.22"/>
			
				<line fill="none" stroke="#1D2132" stroke-width="0.1" stroke-linecap="square" stroke-miterlimit="10" x1="66.82" y1="5.72" x2="66.82" y2="5.22"/>
			
				<line fill="none" stroke="#1D2132" stroke-width="0.1" stroke-linecap="square" stroke-miterlimit="10" x1="67.12" y1="5.72" x2="67.12" y2="5.22"/>
			
				<line fill="none" stroke="#1D2132" stroke-width="0.1" stroke-linecap="square" stroke-miterlimit="10" x1="68.01" y1="5.72" x2="68.01" y2="5.22"/>
			
				<line fill="none" stroke="#1D2132" stroke-width="0.1" stroke-linecap="square" stroke-miterlimit="10" x1="68.3" y1="5.72" x2="68.3" y2="5.22"/>
			
				<line fill="none" stroke="#1D2132" stroke-width="0.1" stroke-linecap="square" stroke-miterlimit="10" x1="68.6" y1="5.72" x2="68.6" y2="5.22"/>
			
				<line fill="none" stroke="#1D2132" stroke-width="0.1" stroke-linecap="square" stroke-miterlimit="10" x1="68.9" y1="5.72" x2="68.9" y2="5.22"/>
			
				<line fill="none" stroke="#1D2132" stroke-width="0.1" stroke-linecap="square" stroke-miterlimit="10" x1="69.2" y1="5.72" x2="69.2" y2="5.22"/>
			
				<line fill="none" stroke="#1D2132" stroke-width="0.1" stroke-linecap="square" stroke-miterlimit="10" x1="69.49" y1="5.72" x2="69.49" y2="5.22"/>
			
				<line fill="none" stroke="#1D2132" stroke-width="0.1" stroke-linecap="square" stroke-miterlimit="10" x1="70.39" y1="5.72" x2="70.39" y2="5.22"/>
			
				<line fill="none" stroke="#1D2132" stroke-width="0.1" stroke-linecap="square" stroke-miterlimit="10" x1="70.68" y1="5.72" x2="70.68" y2="5.22"/>
			
				<line fill="none" stroke="#1D2132" stroke-width="0.1" stroke-linecap="square" stroke-miterlimit="10" x1="69.79" y1="5.72" x2="69.79" y2="5.22"/>
			
				<line fill="none" stroke="#1D2132" stroke-width="0.1" stroke-linecap="square" stroke-miterlimit="10" x1="70.09" y1="5.72" x2="70.09" y2="5.22"/>
			
				<line fill="none" stroke="#1D2132" stroke-width="0.1" stroke-linecap="square" stroke-miterlimit="10" x1="70.98" y1="5.72" x2="70.98" y2="5.22"/>
			
				<line fill="none" stroke="#1D2132" stroke-width="0.1" stroke-linecap="square" stroke-miterlimit="10" x1="71.28" y1="5.72" x2="71.28" y2="5.22"/>
			
				<line fill="none" stroke="#1D2132" stroke-width="0.1" stroke-linecap="square" stroke-miterlimit="10" x1="71.57" y1="5.72" x2="71.57" y2="5.22"/>
			
				<line fill="none" stroke="#1D2132" stroke-width="0.1" stroke-linecap="square" stroke-miterlimit="10" x1="71.87" y1="5.72" x2="71.87" y2="5.22"/>
			
				<line fill="none" stroke="#1D2132" stroke-width="0.1" stroke-linecap="square" stroke-miterlimit="10" x1="72.17" y1="5.72" x2="72.17" y2="5.22"/>
			
				<line fill="none" stroke="#1D2132" stroke-width="0.1" stroke-linecap="square" stroke-miterlimit="10" x1="72.47" y1="5.72" x2="72.47" y2="5.22"/>
			
				<line fill="none" stroke="#1D2132" stroke-width="0.1" stroke-linecap="square" stroke-miterlimit="10" x1="73.36" y1="5.72" x2="73.36" y2="5.22"/>
			
				<line fill="none" stroke="#1D2132" stroke-width="0.1" stroke-linecap="square" stroke-miterlimit="10" x1="73.66" y1="5.72" x2="73.66" y2="5.22"/>
			
				<line fill="none" stroke="#1D2132" stroke-width="0.1" stroke-linecap="square" stroke-miterlimit="10" x1="72.76" y1="5.72" x2="72.76" y2="5.22"/>
			
				<line fill="none" stroke="#1D2132" stroke-width="0.1" stroke-linecap="square" stroke-miterlimit="10" x1="73.06" y1="5.72" x2="73.06" y2="5.22"/>
			
				<line fill="none" stroke="#1D2132" stroke-width="0.1" stroke-linecap="square" stroke-miterlimit="10" x1="73.95" y1="5.72" x2="73.95" y2="5.22"/>
			
				<line fill="none" stroke="#1D2132" stroke-width="0.1" stroke-linecap="square" stroke-miterlimit="10" x1="74.25" y1="5.72" x2="74.25" y2="5.22"/>
			
				<line fill="none" stroke="#1D2132" stroke-width="0.1" stroke-linecap="square" stroke-miterlimit="10" x1="74.55" y1="5.72" x2="74.55" y2="5.22"/>
			
				<line fill="none" stroke="#1D2132" stroke-width="0.1" stroke-linecap="square" stroke-miterlimit="10" x1="74.84" y1="5.72" x2="74.84" y2="5.22"/>
			
				<line fill="none" stroke="#1D2132" stroke-width="0.1" stroke-linecap="square" stroke-miterlimit="10" x1="75.14" y1="5.72" x2="75.14" y2="5.22"/>
			
				<line fill="none" stroke="#1D2132" stroke-width="0.1" stroke-linecap="square" stroke-miterlimit="10" x1="75.44" y1="5.72" x2="75.44" y2="5.22"/>
			
				<line fill="none" stroke="#1D2132" stroke-width="0.1" stroke-linecap="square" stroke-miterlimit="10" x1="76.33" y1="5.72" x2="76.33" y2="5.22"/>
			
				<line fill="none" stroke="#1D2132" stroke-width="0.1" stroke-linecap="square" stroke-miterlimit="10" x1="76.63" y1="5.72" x2="76.63" y2="5.22"/>
			
				<line fill="none" stroke="#1D2132" stroke-width="0.1" stroke-linecap="square" stroke-miterlimit="10" x1="75.74" y1="5.72" x2="75.74" y2="5.22"/>
			
				<line fill="none" stroke="#1D2132" stroke-width="0.1" stroke-linecap="square" stroke-miterlimit="10" x1="76.03" y1="5.72" x2="76.03" y2="5.22"/>
			
				<line fill="none" stroke="#1D2132" stroke-width="0.1" stroke-linecap="square" stroke-miterlimit="10" x1="76.93" y1="5.72" x2="76.93" y2="5.22"/>
			
				<line fill="none" stroke="#1D2132" stroke-width="0.1" stroke-linecap="square" stroke-miterlimit="10" x1="77.22" y1="5.72" x2="77.22" y2="5.22"/>
		</g>
		<path fill="none" stroke="#1D2132" stroke-width="0.1" stroke-linecap="square" stroke-miterlimit="10" d="M70.8,6.81
			c-0.43,0,0-0.77-0.43-0.77s0,0.77-0.43,0.77s0-0.77-0.43-0.77s0,0.77-0.43,0.77s0-0.77-0.43-0.77s0,0.77-0.43,0.77
			s0-0.77-0.43-0.77s0,0.77-0.43,0.77s0-0.77-0.43-0.77s0,0.77-0.43,0.77s0-0.77-0.43-0.77s0,0.77-0.43,0.77s0-0.77-0.43-0.77
			s0,0.77-0.43,0.77s0-0.77-0.43-0.77s0,0.77-0.43,0.77s0-0.77-0.43-0.77s0,0.77-0.43,0.77s0-0.77-0.43-0.77s0,0.77-0.43,0.77
			s0-0.77-0.43-0.77s0,0.77-0.43,0.77s0-0.77-0.43-0.77s0,0.77-0.43,0.77s0-0.77-0.43-0.77s0,0.77-0.43,0.77s0-0.77-0.43-0.77
			s0,0.77-0.43,0.77s0-0.77-0.43-0.77s0,0.77-0.43,0.77s0-0.77-0.43-0.77s0,0.77-0.43,0.77s0-0.77-0.43-0.77"/>
		<path fill="none" stroke="#1D2132" stroke-width="0.1" stroke-linecap="square" stroke-miterlimit="10" d="M73.39,6.81
			c0.43,0,0-0.77,0.43-0.77s0,0.77,0.43,0.77s0-0.77,0.43-0.77s0,0.77,0.43,0.77s0-0.77,0.43-0.77s0,0.77,0.43,0.77
			s0-0.77,0.43-0.77s0,0.77,0.43,0.77s0-0.77,0.43-0.77s0,0.77,0.43,0.77s0-0.77,0.43-0.77s0,0.77,0.43,0.77s0-0.77,0.43-0.77
			s0,0.77,0.43,0.77s0-0.77,0.43-0.77s0,0.77,0.43,0.77s0-0.77,0.43-0.77s0,0.77,0.43,0.77s0-0.77,0.43-0.77s0,0.77,0.43,0.77
			s0-0.77,0.43-0.77s0,0.77,0.43,0.77s0-0.77,0.43-0.77s0,0.77,0.43,0.77s0-0.77,0.43-0.77s0,0.77,0.43,0.77s0-0.77,0.43-0.77
			s0,0.77,0.43,0.77s0-0.77,0.43-0.77s0,0.77,0.43,0.77s0-0.77,0.43-0.77s0,0.77,0.43,0.77s0-0.77,0.43-0.77"/>
	</g>
	<g>
		<g>
			
				<rect x="19.92" y="5.06" fill="#FFFFFF" stroke="#1D2132" stroke-width="0.1" stroke-linecap="square" stroke-miterlimit="10" width="11.01" height="0.83"/>
			
				<line fill="none" stroke="#1D2132" stroke-width="0.1" stroke-linecap="square" stroke-miterlimit="10" x1="20.79" y1="5.72" x2="20.79" y2="5.23"/>
			
				<line fill="none" stroke="#1D2132" stroke-width="0.1" stroke-linecap="square" stroke-miterlimit="10" x1="21.08" y1="5.72" x2="21.08" y2="5.23"/>
			
				<line fill="none" stroke="#1D2132" stroke-width="0.1" stroke-linecap="square" stroke-miterlimit="10" x1="20.19" y1="5.72" x2="20.19" y2="5.23"/>
			
				<line fill="none" stroke="#1D2132" stroke-width="0.1" stroke-linecap="square" stroke-miterlimit="10" x1="20.49" y1="5.72" x2="20.49" y2="5.23"/>
			
				<line fill="none" stroke="#1D2132" stroke-width="0.1" stroke-linecap="square" stroke-miterlimit="10" x1="21.38" y1="5.72" x2="21.38" y2="5.23"/>
			
				<line fill="none" stroke="#1D2132" stroke-width="0.1" stroke-linecap="square" stroke-miterlimit="10" x1="21.68" y1="5.72" x2="21.68" y2="5.23"/>
			
				<line fill="none" stroke="#1D2132" stroke-width="0.1" stroke-linecap="square" stroke-miterlimit="10" x1="21.97" y1="5.72" x2="21.97" y2="5.23"/>
			
				<line fill="none" stroke="#1D2132" stroke-width="0.1" stroke-linecap="square" stroke-miterlimit="10" x1="22.27" y1="5.72" x2="22.27" y2="5.23"/>
			
				<line fill="none" stroke="#1D2132" stroke-width="0.1" stroke-linecap="square" stroke-miterlimit="10" x1="22.57" y1="5.72" x2="22.57" y2="5.23"/>
			
				<line fill="none" stroke="#1D2132" stroke-width="0.1" stroke-linecap="square" stroke-miterlimit="10" x1="22.87" y1="5.72" x2="22.87" y2="5.23"/>
			
				<line fill="none" stroke="#1D2132" stroke-width="0.1" stroke-linecap="square" stroke-miterlimit="10" x1="23.76" y1="5.72" x2="23.76" y2="5.23"/>
			
				<line fill="none" stroke="#1D2132" stroke-width="0.1" stroke-linecap="square" stroke-miterlimit="10" x1="24.06" y1="5.72" x2="24.06" y2="5.23"/>
			
				<line fill="none" stroke="#1D2132" stroke-width="0.1" stroke-linecap="square" stroke-miterlimit="10" x1="23.16" y1="5.72" x2="23.16" y2="5.23"/>
			
				<line fill="none" stroke="#1D2132" stroke-width="0.1" stroke-linecap="square" stroke-miterlimit="10" x1="23.46" y1="5.72" x2="23.46" y2="5.23"/>
			
				<line fill="none" stroke="#1D2132" stroke-width="0.1" stroke-linecap="square" stroke-miterlimit="10" x1="24.35" y1="5.72" x2="24.35" y2="5.23"/>
			
				<line fill="none" stroke="#1D2132" stroke-width="0.1" stroke-linecap="square" stroke-miterlimit="10" x1="24.65" y1="5.72" x2="24.65" y2="5.23"/>
			
				<line fill="none" stroke="#1D2132" stroke-width="0.1" stroke-linecap="square" stroke-miterlimit="10" x1="24.95" y1="5.72" x2="24.95" y2="5.23"/>
			
				<line fill="none" stroke="#1D2132" stroke-width="0.1" stroke-linecap="square" stroke-miterlimit="10" x1="25.24" y1="5.72" x2="25.24" y2="5.23"/>
			
				<line fill="none" stroke="#1D2132" stroke-width="0.1" stroke-linecap="square" stroke-miterlimit="10" x1="25.54" y1="5.72" x2="25.54" y2="5.23"/>
			
				<line fill="none" stroke="#1D2132" stroke-width="0.1" stroke-linecap="square" stroke-miterlimit="10" x1="25.84" y1="5.72" x2="25.84" y2="5.23"/>
			
				<line fill="none" stroke="#1D2132" stroke-width="0.1" stroke-linecap="square" stroke-miterlimit="10" x1="26.73" y1="5.72" x2="26.73" y2="5.23"/>
			
				<line fill="none" stroke="#1D2132" stroke-width="0.1" stroke-linecap="square" stroke-miterlimit="10" x1="27.03" y1="5.72" x2="27.03" y2="5.23"/>
			
				<line fill="none" stroke="#1D2132" stroke-width="0.1" stroke-linecap="square" stroke-miterlimit="10" x1="26.14" y1="5.72" x2="26.14" y2="5.23"/>
			
				<line fill="none" stroke="#1D2132" stroke-width="0.1" stroke-linecap="square" stroke-miterlimit="10" x1="26.43" y1="5.72" x2="26.43" y2="5.23"/>
			
				<line fill="none" stroke="#1D2132" stroke-width="0.1" stroke-linecap="square" stroke-miterlimit="10" x1="27.33" y1="5.72" x2="27.33" y2="5.23"/>
			
				<line fill="none" stroke="#1D2132" stroke-width="0.1" stroke-linecap="square" stroke-miterlimit="10" x1="27.62" y1="5.72" x2="27.62" y2="5.23"/>
			
				<line fill="none" stroke="#1D2132" stroke-width="0.1" stroke-linecap="square" stroke-miterlimit="10" x1="27.92" y1="5.72" x2="27.92" y2="5.23"/>
			
				<line fill="none" stroke="#1D2132" stroke-width="0.1" stroke-linecap="square" stroke-miterlimit="10" x1="28.22" y1="5.72" x2="28.22" y2="5.23"/>
			
				<line fill="none" stroke="#1D2132" stroke-width="0.1" stroke-linecap="square" stroke-miterlimit="10" x1="28.52" y1="5.72" x2="28.52" y2="5.23"/>
			
				<line fill="none" stroke="#1D2132" stroke-width="0.1" stroke-linecap="square" stroke-miterlimit="10" x1="28.81" y1="5.72" x2="28.81" y2="5.23"/>
			
				<line fill="none" stroke="#1D2132" stroke-width="0.1" stroke-linecap="square" stroke-miterlimit="10" x1="29.7" y1="5.72" x2="29.7" y2="5.23"/>
			
				<line fill="none" stroke="#1D2132" stroke-width="0.1" stroke-linecap="square" stroke-miterlimit="10" x1="30" y1="5.72" x2="30" y2="5.23"/>
			
				<line fill="none" stroke="#1D2132" stroke-width="0.1" stroke-linecap="square" stroke-miterlimit="10" x1="29.11" y1="5.72" x2="29.11" y2="5.23"/>
			
				<line fill="none" stroke="#1D2132" stroke-width="0.1" stroke-linecap="square" stroke-miterlimit="10" x1="29.41" y1="5.72" x2="29.41" y2="5.23"/>
			
				<line fill="none" stroke="#1D2132" stroke-width="0.1" stroke-linecap="square" stroke-miterlimit="10" x1="30.3" y1="5.72" x2="30.3" y2="5.23"/>
			
				<line fill="none" stroke="#1D2132" stroke-width="0.1" stroke-linecap="square" stroke-miterlimit="10" x1="30.6" y1="5.72" x2="30.6" y2="5.23"/>
		</g>
		<path fill="none" stroke="#1D2132" stroke-width="0.1" stroke-linecap="square" stroke-miterlimit="10" d="M24.17,6.82
			c-0.43,0,0-0.77-0.43-0.77s0,0.77-0.43,0.77s0-0.77-0.43-0.77s0,0.77-0.43,0.77s0-0.77-0.43-0.77s0,0.77-0.43,0.77
			s0-0.77-0.43-0.77s0,0.77-0.43,0.77s0-0.77-0.43-0.77s0,0.77-0.43,0.77s0-0.77-0.43-0.77s0,0.77-0.43,0.77s0-0.77-0.43-0.77
			s0,0.77-0.43,0.77s0-0.77-0.43-0.77s0,0.77-0.43,0.77s0-0.77-0.43-0.77s0,0.77-0.43,0.77s0-0.77-0.43-0.77s0,0.77-0.43,0.77
			s0-0.77-0.43-0.77s0,0.77-0.43,0.77s0-0.77-0.43-0.77s0,0.77-0.43,0.77s0-0.77-0.43-0.77s0,0.77-0.43,0.77s0-0.77-0.43-0.77
			s0,0.77-0.43,0.77s0-0.77-0.43-0.77s0,0.77-0.43,0.77s0-0.77-0.43-0.77s0,0.77-0.43,0.77s0-0.77-0.43-0.77"/>
		<path fill="none" stroke="#1D2132" stroke-width="0.1" stroke-linecap="square" stroke-miterlimit="10" d="M26.77,6.82
			c0.43,0,0-0.77,0.43-0.77s0,0.77,0.43,0.77s0-0.77,0.43-0.77s0,0.77,0.43,0.77c0.43,0,0-0.77,0.43-0.77c0.43,0,0,0.77,0.43,0.77
			s0-0.77,0.43-0.77s0,0.77,0.43,0.77s0-0.77,0.43-0.77s0,0.77,0.43,0.77s0-0.77,0.43-0.77s0,0.77,0.43,0.77s0-0.77,0.43-0.77
			s0,0.77,0.43,0.77s0-0.77,0.43-0.77s0,0.77,0.43,0.77s0-0.77,0.43-0.77s0,0.77,0.43,0.77s0-0.77,0.43-0.77s0,0.77,0.43,0.77
			s0-0.77,0.43-0.77s0,0.77,0.43,0.77s0-0.77,0.43-0.77s0,0.77,0.43,0.77s0-0.77,0.43-0.77s0,0.77,0.43,0.77s0-0.77,0.43-0.77
			s0,0.77,0.43,0.77s0-0.77,0.43-0.77s0,0.77,0.43,0.77s0-0.77,0.43-0.77s0,0.77,0.43,0.77s0-0.77,0.43-0.77"/>
	</g>
	<g>
		<g>
			<path fill="none" stroke="#1D2132" stroke-width="0.1" stroke-linejoin="bevel" stroke-dasharray="0.492,0.492" d="M23.93,10.21
				H47.4c0.74,0,1.34,0.6,1.34,1.34l0,16.59c0,0.74-0.6,1.34-1.34,1.34H23.92c-0.74,0-1.34-0.6-1.34-1.34V11.55
				C22.58,10.81,23.18,10.21,23.93,10.21z"/>
		</g>
		<g>
			<path fill="#FFFFFF" stroke="#1D2132" stroke-width="0.1" stroke-linejoin="bevel" stroke-miterlimit="22.9256" d="M40.67,9.59
				V8.73c0-0.35,0.28-0.63,0.63-0.63h8.93l0,23.51H41.3c-0.35,0-0.63-0.28-0.63-0.63v-0.86c0-0.35,0.28-0.63,0.63-0.63h6.32
				c0.35,0,0.63-0.28,0.63-0.63l0-18.02c0-0.35-0.28-0.63-0.63-0.63H41.3C40.95,10.21,40.67,9.93,40.67,9.59z"/>
			<path fill="none" stroke="#1D2132" stroke-width="0.1" stroke-linejoin="bevel" stroke-miterlimit="22.9256" d="M50.23,31.6
				c0,0-0.99-0.48-1.53-1.36c-0.54-0.87-0.45-1.38-0.45-1.38"/>
			<path fill="none" stroke="#1D2132" stroke-width="0.1" stroke-linejoin="bevel" stroke-miterlimit="22.9256" d="M48.24,31.6
				c0,0-0.53-0.27-0.64-1.06c-0.1-0.79,0.13-1.06,0.13-1.06"/>
			<path fill="none" stroke="#1D2132" stroke-width="0.1" stroke-linejoin="bevel" stroke-miterlimit="22.9256" d="M50.23,8.1
				c0,0-1,0.48-1.53,1.36c-0.54,0.87-0.45,1.38-0.45,1.38"/>
			<path fill="none" stroke="#1D2132" stroke-width="0.1" stroke-linejoin="bevel" stroke-miterlimit="22.9256" d="M48.24,8.1
				c0,0-0.53,0.26-0.64,1.05c-0.1,0.79,0.13,1.06,0.13,1.06"/>
			<path fill="#FFFFFF" stroke="#1D2132" stroke-width="0.1" stroke-linejoin="bevel" stroke-miterlimit="22.9256" d="M47.11,19.85
				h-5.98c-0.63,0-1.14,0.51-1.14,1.14v7.36c0,0.63,0.51,1.14,1.14,1.14h5.98c0.63,0,1.14-0.51,1.14-1.14v-7.36
				C48.25,20.36,47.74,19.85,47.11,19.85z"/>
			<path fill="#FFFFFF" stroke="#1D2132" stroke-width="0.1" stroke-linejoin="bevel" stroke-miterlimit="22.9256" d="M47.11,10.21
				h-5.98c-0.63,0-1.14,0.51-1.14,1.14l0,7.36c0,0.63,0.51,1.14,1.14,1.14h5.98c0.63,0,1.14-0.51,1.14-1.14l0-7.36
				C48.25,10.72,47.74,10.21,47.11,10.21z"/>
			<path fill="#FFFFFF" stroke="#1D2132" stroke-width="0.1" stroke-linejoin="bevel" stroke-miterlimit="22.9256" d="M47.94,19.84
				h-0.43c-0.44,0-0.8,0.36-0.8,0.8v8.05c0,0.44,0.36,0.8,0.8,0.8h0.43c0.44,0,0.8-0.36,0.8-0.8v-8.05
				C48.74,20.2,48.39,19.85,47.94,19.84z"/>
			<path fill="#FFFFFF" stroke="#1D2132" stroke-width="0.1" stroke-linejoin="bevel" stroke-miterlimit="22.9256" d="M47.94,10.2
				h-0.43c-0.44,0-0.8,0.36-0.8,0.8l0,8.05c0,0.44,0.36,0.8,0.8,0.8h0.43c0.44,0,0.8-0.36,0.8-0.8l0-8.05
				C48.74,10.56,48.39,10.21,47.94,10.2z"/>
		</g>
		<g>
			<path fill="#FFFFFF" stroke="#1D2132" stroke-width="0.1" stroke-linejoin="bevel" stroke-miterlimit="22.9256" d="M43.35,14.82
				c-0.03-0.66-0.16-1.31-0.34-2.49s0.19-1.33,0.12-1.5s0.09-0.2,0.23-0.22c0.14-0.03,0.14-0.21,1.13-0.33s1.3,0.07,1.45-0.04
				c0.15-0.12,0.15,0.07,0.27,0.38c0.11,0.31,0.32,1.04,0.54,2.76c0.21,1.72-0.07,2.46-0.11,2.68c-0.04,0.22-0.25,0.1-0.85,0.31
				c-0.6,0.22-1.07,0.08-1.27-0.01c-0.2-0.09-0.56,0-0.67-0.23C43.85,16.13,43.38,15.48,43.35,14.82z"/>
			<path fill="#FFFFFF" stroke="#1D2132" stroke-width="0.1" stroke-linejoin="bevel" stroke-miterlimit="22.9256" d="M43.28,10.61
				c0,0,0.15,0.06,0.69-0.08s1.8-0.09,1.98,0.03s0.18,1.18,0.25,2.38s0.32,1.92,0.36,2.46s-0.26,0.56-0.71,0.72
				c-0.44,0.16-1.04,0.13-1.28,0.08c-0.24-0.05-0.58,0.06-0.58,0.06"/>
		</g>
		<g>
			<path fill="#FFFFFF" stroke="#1D2132" stroke-width="0.1" stroke-linejoin="bevel" stroke-miterlimit="22.9256" d="M43.17,26.31
				c0.05-0.72,0.01-1.43-0.01-2.72c-0.02-1.29,0.37-1.4,0.32-1.59s0.11-0.2,0.25-0.2s0.16-0.19,1.16-0.18
				c1,0.02,1.29,0.27,1.45,0.17c0.16-0.1,0.14,0.1,0.22,0.45c0.07,0.36,0.18,1.16,0.17,3.04c-0.01,1.88-0.39,2.63-0.46,2.86
				c-0.06,0.23-0.25,0.07-0.88,0.21c-0.62,0.14-1.07-0.08-1.26-0.2s-0.56-0.08-0.64-0.34C43.49,27.81,43.1,27.04,43.17,26.31z"/>
			<path fill="#FFFFFF" stroke="#1D2132" stroke-width="0.1" stroke-linejoin="bevel" stroke-miterlimit="22.9256" d="M43.65,21.82
				c0,0,0.14,0.1,0.7,0.02c0.56-0.07,1.79,0.16,1.96,0.32c0.16,0.16,0.02,1.29-0.07,2.59c-0.09,1.29,0.07,2.1,0.03,2.68
				c-0.03,0.58-0.34,0.55-0.8,0.66c-0.46,0.11-1.04-0.01-1.28-0.1c-0.23-0.09-0.58-0.02-0.58-0.02"/>
		</g>
	</g>
	<g>
		<g>
			
				<rect x="51.43" y="6.87" fill="#FFFFFF" stroke="#1D2132" stroke-width="0.1" stroke-linejoin="bevel" stroke-miterlimit="22.9256" width="5.82" height="36.66"/>
			
				<rect x="51.43" y="18.93" fill="#FFFFFF" stroke="#1D2132" stroke-width="0.1" stroke-linejoin="bevel" stroke-miterlimit="22.9256" width="5.82" height="12.54"/>
		</g>
		<g>
			<path fill="#FFFFFF" stroke="#1D2132" stroke-width="0.1" stroke-linecap="square" stroke-miterlimit="10" d="M53.67,37.63h-0.34
				c-0.03,0.01-0.06,0.07-0.09,0.12c-0.1,0.15-0.26,0.4-0.6,0.45c-0.25,0.04-0.48-0.05-0.62-0.25c-0.15-0.2-0.17-0.49-0.05-0.73
				c0.18-0.38,0.56-0.42,0.74-0.4c0.06,0.01,0.1,0.07,0.09,0.13c-0.01,0.07-0.06,0.11-0.12,0.1c-0.01,0-0.35-0.05-0.52,0.28
				c-0.08,0.16-0.07,0.36,0.03,0.5c0.09,0.13,0.24,0.19,0.41,0.16c0.25-0.05,0.37-0.22,0.46-0.37c0.07-0.11,0.14-0.21,0.26-0.21
				h0.35c0.06,0,0.11,0.06,0.11,0.12S53.73,37.63,53.67,37.63z M53.32,37.63L53.32,37.63L53.32,37.63z"/>
			<path fill="#FFFFFF" stroke="#1D2132" stroke-width="0.1" stroke-linecap="square" stroke-miterlimit="10" d="M55.91,41.93
				c-0.26,0.07-0.52-0.05-0.65-0.3c0-0.01-0.01-0.01-0.01-0.02l-1.56-3.43c-0.01-0.03-0.02-0.06-0.02-0.09v-1.16
				c0-0.03,0.01-0.06,0.02-0.09l1.56-3.43c0-0.01,0.01-0.01,0.01-0.02c0.12-0.24,0.39-0.37,0.65-0.3c0.26,0.07,0.19,0.39,0.19,0.67
				v7.51C56.1,41.55,56.17,41.86,55.91,41.93z M54.64,36.96v1.07l1,3.64c0.06,0.1,0.14,0.09,0.17,0.08s0.11-0.04,0.11-0.15v-8.17
				c0-0.12-0.08-0.14-0.11-0.15c-0.03,0-0.11-0.02-0.17,0.08L54.64,36.96z"/>
		</g>
		<g>
			<path fill="#FFFFFF" stroke="#1D2132" stroke-width="0.1" stroke-linecap="square" stroke-miterlimit="10" d="M53.67,13.33h-0.34
				c-0.03,0.01-0.06,0.07-0.09,0.12c-0.1,0.15-0.26,0.4-0.6,0.45c-0.25,0.04-0.48-0.05-0.62-0.25c-0.15-0.2-0.17-0.49-0.05-0.73
				c0.18-0.38,0.56-0.42,0.74-0.4c0.06,0.01,0.1,0.07,0.09,0.13c-0.01,0.07-0.06,0.11-0.12,0.1c-0.01,0-0.35-0.05-0.52,0.28
				c-0.08,0.16-0.07,0.36,0.03,0.5c0.09,0.13,0.24,0.19,0.41,0.16c0.25-0.05,0.37-0.22,0.46-0.37c0.07-0.11,0.14-0.21,0.26-0.21
				h0.35c0.06,0,0.11,0.06,0.11,0.12S53.73,13.33,53.67,13.33z M53.32,13.33L53.32,13.33L53.32,13.33z"/>
			<path fill="#FFFFFF" stroke="#1D2132" stroke-width="0.1" stroke-linecap="square" stroke-miterlimit="10" d="M55.91,17.63
				c-0.26,0.07-0.52-0.05-0.65-0.3c0-0.01-0.01-0.01-0.01-0.02l-1.56-3.43c-0.01-0.03-0.02-0.06-0.02-0.09v-1.16
				c0-0.03,0.01-0.06,0.02-0.09l1.56-3.43c0-0.01,0.01-0.01,0.01-0.02c0.12-0.24,0.39-0.37,0.65-0.3s0.19,0.39,0.19,0.67v7.51
				C56.1,17.25,56.17,17.56,55.91,17.63z M54.64,12.66v1.07l1,3.64c0.06,0.1,0.14,0.09,0.17,0.08c0.03-0.01,0.11-0.04,0.11-0.15
				V9.12c0-0.12-0.08-0.14-0.11-0.15c-0.03,0-0.11-0.02-0.17,0.08L54.64,12.66z"/>
		</g>
		<g>
			<path fill="#FFFFFF" stroke="#1D2132" stroke-width="0.1" stroke-linecap="square" stroke-miterlimit="10" d="M53.07,24.4v1.94
				c0,0.48,0.38,0.88,0.84,0.88h0.24c0.46,0,0.84-0.4,0.84-0.88V24.4c0-0.48-0.38-0.88-0.84-0.88h-0.24
				C53.44,23.52,53.07,23.91,53.07,24.4z"/>
			<path fill="#FFFFFF" stroke="#1D2132" stroke-width="0.1" stroke-linecap="square" stroke-miterlimit="10" d="M53.84,24.58v1.57
				c0,0.21,0.16,0.38,0.36,0.38h0.07c0.2,0,0.36-0.16,0.36-0.38v-1.57c0-0.21-0.16-0.38-0.36-0.38H54.2
				C54,24.2,53.84,24.37,53.84,24.58z"/>
			
				<rect x="54.47" y="18.84" fill="#FFFFFF" stroke="#1D2132" stroke-width="0.1" stroke-linecap="square" stroke-miterlimit="10" width="0.17" height="13.03"/>
			<polygon fill="#FFFFFF" stroke="#1D2132" stroke-width="0.1" stroke-linecap="square" stroke-miterlimit="10" points="54.15,30 
				54.48,31.88 54.48,18.84 54.15,20.73 			"/>
		</g>
	</g>
	<g>
		
			<rect x="43.25" y="60.3" fill="#FFFFFF" stroke="#1D2132" stroke-width="0.1" stroke-linecap="square" stroke-miterlimit="10" width="8.03" height="18.31"/>
		<g>
			<path fill="#FFFFFF" stroke="#1D2132" stroke-width="0.1" stroke-linecap="square" stroke-miterlimit="10" d="M46.3,69.66h-0.37
				c-0.03,0.01-0.07,0.07-0.1,0.12c-0.11,0.16-0.28,0.41-0.64,0.47c-0.26,0.05-0.51-0.05-0.66-0.25c-0.16-0.22-0.18-0.52-0.05-0.76
				c0.2-0.39,0.6-0.44,0.79-0.41c0.07,0.01,0.11,0.07,0.1,0.13c-0.01,0.07-0.07,0.11-0.13,0.1c0,0-0.37-0.05-0.55,0.29
				c-0.09,0.17-0.08,0.37,0.03,0.52c0.1,0.13,0.26,0.19,0.44,0.16c0.26-0.04,0.39-0.22,0.49-0.37c0.08-0.11,0.15-0.22,0.28-0.22
				h0.38c0.06,0,0.11,0.05,0.11,0.11C46.42,69.61,46.37,69.66,46.3,69.66z M45.93,69.66L45.93,69.66L45.93,69.66z"/>
			<path fill="#FFFFFF" stroke="#1D2132" stroke-width="0.1" stroke-linecap="square" stroke-miterlimit="10" d="M48.71,74.09
				c-0.28,0.07-0.56-0.05-0.7-0.31c0-0.01-0.01-0.01-0.01-0.02l-1.67-3.53c-0.01-0.03-0.02-0.06-0.02-0.09v-1.19
				c0-0.03,0.01-0.06,0.02-0.09L48,65.33c0-0.01,0.01-0.01,0.01-0.02c0.14-0.26,0.42-0.38,0.7-0.31s0.21,0.39,0.21,0.68v7.72
				C48.92,73.69,49,74.01,48.71,74.09z M47.36,69v1.1l1.07,3.73c0.06,0.09,0.15,0.08,0.18,0.07s0.12-0.04,0.12-0.16v-8.39
				c0-0.12-0.09-0.15-0.12-0.16s-0.12-0.03-0.18,0.07L47.36,69z"/>
		</g>
	</g>
	<g>
		
			<circle fill="#FFFFFF" stroke="#1D2132" stroke-width="0.1" stroke-linecap="square" stroke-miterlimit="22.9256" cx="47.77" cy="38.12" r="1.94"/>
		
			<circle fill="#FFFFFF" stroke="#1D2132" stroke-width="0.1" stroke-linecap="square" stroke-miterlimit="22.9256" cx="47.77" cy="38.12" r="0.41"/>
		<path fill="#FFFFFF" stroke="#1D2132" stroke-width="0.1" stroke-linecap="square" stroke-miterlimit="22.9256" d="M44.22,35.65
			l-0.66,1.48c-1.05,0-1.72-0.05-2.59-0.45l0,0c-0.43-0.19-0.52-0.94-0.19-1.67c0.33-0.73,0.94-1.17,1.37-0.98
			C43.04,34.38,43.53,34.84,44.22,35.65z"/>
		<path fill="#FFFFFF" stroke="#1D2132" stroke-width="0.1" stroke-linecap="square" stroke-miterlimit="22.9256" d="M44.22,35.65
			l0.53,0.24l-0.66,1.48l-0.53-0.24c-0.24-0.1-0.29-0.52-0.11-0.93S43.97,35.55,44.22,35.65z"/>
		
			<ellipse transform="matrix(0.4062 -0.9138 0.9138 0.4062 -7.101 62.3384)" fill="#FFFFFF" stroke="#1D2132" stroke-width="0.1" stroke-linecap="square" stroke-miterlimit="22.9256" cx="44.41" cy="36.63" rx="0.81" ry="0.47"/>
		<path fill="#FFFFFF" stroke="#1D2132" stroke-width="0.1" stroke-linecap="square" stroke-miterlimit="22.9256" d="M47.83,37.99
			l-2.04-0.9c-0.06-0.03-0.14,0-0.17,0.07l-0.01,0.03c-0.03,0.06,0,0.14,0.07,0.17l2.04,0.9c0.06,0.03,0.14,0,0.17-0.07l0.01-0.03
			C47.93,38.09,47.9,38.02,47.83,37.99z"/>
		<path fill="#FFFFFF" stroke="#1D2132" stroke-width="0.1" stroke-linecap="square" stroke-miterlimit="22.9256" d="M46.69,37.48
			l-2.04-0.9c-0.06-0.03-0.14,0-0.17,0.07l-0.01,0.03c-0.03,0.06,0,0.14,0.07,0.17l2.04,0.9c0.06,0.03,0.14,0,0.17-0.07l0.01-0.03
			C46.79,37.59,46.76,37.51,46.69,37.48z"/>
	</g>
</g>
<g id="Windows">
	<polyline fill="none" stroke="#1D2132" stroke-width="0.1" stroke-miterlimit="10" points="83.5,3.25 83.5,2.3 60.54,2.3 
		60.54,3.25 83.5,3.25 	"/>
	<polyline fill="none" stroke="#1D2132" stroke-width="0.1" stroke-miterlimit="10" points="59.18,5.01 59.18,2.3 84.86,2.3 
		84.86,5.01 59.18,5.01 	"/>
	<polygon fill="none" stroke="#1D2132" stroke-width="0.1" stroke-miterlimit="10" points="60.54,3.25 60.54,2.3 58.7,2.3 
		58.7,3.25 58.7,2.3 59.18,2.3 59.18,3.25 59.46,3.25 	"/>
	<polyline fill="none" stroke="#1D2132" stroke-width="0.1" stroke-miterlimit="10" points="83.5,3.25 83.5,2.3 85.53,2.3 
		85.53,3.25 83.5,3.25 	"/>
	<polyline fill="none" stroke="#1D2132" stroke-width="0.1" stroke-miterlimit="10" points="84.19,2.3 84.19,0.82 59.86,0.82 
		59.86,2.3 84.19,2.3 	"/>
	<polyline fill="none" stroke="#1D2132" stroke-width="0.1" stroke-miterlimit="10" points="36.49,0.82 14.86,0.82 14.86,2.3 
		36.49,2.3 36.49,0.82 	"/>
	<polyline fill="none" stroke="#1D2132" stroke-width="0.1" stroke-miterlimit="10" points="14.18,5.01 37.16,5.01 37.16,2.3 
		14.18,2.3 14.18,5.01 	"/>
	<polyline fill="none" stroke="#1D2132" stroke-width="0.1" stroke-miterlimit="10" points="35.8,3.25 15.54,3.25 15.54,2.3 
		35.8,2.3 35.8,3.25 	"/>
	<polyline fill="none" stroke="#1D2132" stroke-width="0.1" stroke-miterlimit="10" points="15.54,3.25 13.86,3.25 13.86,2.3 
		15.54,2.3 15.54,3.25 	"/>
	<polyline fill="none" stroke="#1D2132" stroke-width="0.1" stroke-miterlimit="10" points="37.16,3.25 37.75,3.25 37.75,2.3 
		37.16,2.3 37.16,3.25 	"/>
	<polyline fill="none" stroke="#1D2132" stroke-width="0.1" stroke-miterlimit="10" points="36.88,2.3 35.8,2.3 35.8,3.25 
		37.75,3.25 37.75,2.3 	"/>
</g>
<g id="Doors">
	<g>
		<polygon fill="none" stroke="#1D2132" stroke-width="0.1" stroke-miterlimit="10" points="69.48,80.4 69.48,79.22 70.07,79.22 
			70.07,80.4 		"/>
		<polygon fill="none" stroke="#1D2132" stroke-width="0.1" stroke-miterlimit="10" points="55,80.4 55,79.22 54.41,79.22 
			54.41,80.4 		"/>
		<polyline fill="none" stroke="#1D2132" stroke-width="0.1" stroke-miterlimit="10" points="59.24,69.06 59.06,69.26 58.89,69.45 
			58.71,69.65 58.53,69.85 58.37,70.05 58.2,70.26 58.04,70.46 57.88,70.67 57.73,70.9 57.58,71.11 57.44,71.33 57.3,71.56 
			57.15,71.78 57.02,72.01 56.89,72.24 56.76,72.47 56.65,72.7 56.53,72.94 56.41,73.17 56.3,73.42 56.2,73.66 56.09,73.91 
			56,74.15 55.9,74.4 55.82,74.65 55.74,74.9 55.66,75.14 55.59,75.4 55.51,75.65 55.44,75.91 55.39,76.17 55.33,76.43 55.28,76.69 
			55.22,76.95 55.18,77.21 55.14,77.47 55.11,77.73 55.08,77.99 55.05,78.26 55.03,78.52 55.02,78.78 55.01,79.05 55,79.31 		"/>
		<polygon fill="none" stroke="#1D2132" stroke-width="0.1" stroke-miterlimit="10" points="69.37,79.25 59.24,69.06 58.89,69.45 
			68.96,79.66 		"/>
	</g>
	<g>
		<polygon fill="none" stroke="#1D2132" stroke-width="0.1" stroke-miterlimit="10" points="72.7,65.9 71.6,65.9 71.6,66.33 
			72.7,66.33 		"/>
		<polygon fill="none" stroke="#1D2132" stroke-width="0.1" stroke-miterlimit="10" points="72.7,55.22 71.6,55.22 71.6,54.78 
			72.7,54.78 		"/>
		<polyline fill="none" stroke="#1D2132" stroke-width="0.1" stroke-miterlimit="10" points="64.07,58.35 64.22,58.22 64.36,58.09 
			64.51,57.96 64.66,57.83 64.8,57.7 64.96,57.58 65.11,57.46 65.27,57.35 65.43,57.23 65.59,57.12 65.75,57.02 65.92,56.91 
			66.08,56.81 66.25,56.71 66.42,56.62 66.59,56.52 66.76,56.43 66.94,56.35 67.11,56.26 67.29,56.18 67.47,56.1 67.65,56.03 
			67.83,55.96 68.01,55.89 68.2,55.83 68.38,55.76 68.56,55.7 68.75,55.65 68.94,55.6 69.13,55.55 69.32,55.5 69.51,55.46 
			69.7,55.43 69.89,55.38 70.08,55.36 70.28,55.32 70.47,55.3 70.66,55.28 70.86,55.26 71.05,55.24 71.24,55.23 71.44,55.23 
			71.63,55.22 		"/>
		<polygon fill="none" stroke="#1D2132" stroke-width="0.1" stroke-miterlimit="10" points="71.59,65.82 64.07,58.35 64.36,58.09 
			71.89,65.52 		"/>
	</g>
	<g>
		<polygon fill="none" stroke="#1D2132" stroke-width="0.1" stroke-miterlimit="10" points="57.91,44.6 57.91,43.53 57.43,43.53 
			57.43,44.6 		"/>
		<polygon fill="none" stroke="#1D2132" stroke-width="0.1" stroke-miterlimit="10" points="69.84,44.6 69.84,43.52 70.33,43.52 
			70.33,44.6 		"/>
		<polyline fill="none" stroke="#1D2132" stroke-width="0.1" stroke-miterlimit="10" points="66.34,34.97 66.49,35.14 66.64,35.29 
			66.78,35.46 66.93,35.62 67.06,35.79 67.2,35.96 67.34,36.13 67.46,36.3 67.59,36.49 67.71,36.66 67.83,36.84 67.95,37.03 
			68.06,37.21 68.17,37.4 68.28,37.59 68.38,37.78 68.48,37.97 68.58,38.17 68.68,38.36 68.76,38.56 68.85,38.76 68.94,38.96 
			69.02,39.17 69.09,39.37 69.16,39.57 69.23,39.78 69.3,39.98 69.36,40.2 69.41,40.4 69.47,40.61 69.52,40.83 69.57,41.04 
			69.61,41.26 69.66,41.47 69.69,41.68 69.73,41.9 69.74,42.11 69.77,42.32 69.79,42.55 69.81,42.76 69.82,42.98 69.83,43.2 
			69.84,43.41 		"/>
		<polygon fill="none" stroke="#1D2132" stroke-width="0.1" stroke-miterlimit="10" points="58,43.36 66.34,34.97 66.64,35.29 
			58.34,43.7 		"/>
	</g>
</g>
<g id="Text">
	
		<text id="TXT--" transform="matrix(1 0 0 1 60.54 26.528)" opacity="0.7" fill="#1D2132" enable-background="new    " font-family="'Cannonade-Medium'" font-size="3px">9,69</text>
	
		<text id="TXT---" transform="matrix(1 0 0 1 24.0791 46.0001)" opacity="0.7" fill="#1D2132" enable-background="new    " font-family="'Cannonade-Medium'" font-size="3px">18,20</text>
	
		<text id="TXT--" transform="matrix(1 0 0 1 51.6582 54.5498)" opacity="0.7" fill="#1D2132" enable-background="new    " font-family="'Cannonade-Medium'" font-size="3px">4,67</text>
	
		<text id="TXT--" transform="matrix(1 0 0 1 77.4102 62.7185)" opacity="0.7" fill="#1D2132" enable-background="new    " font-family="'Cannonade-Medium'" font-size="3px">4,51</text>
</g>
<g id="Walls">
	<polyline fill="#1D2132" stroke="#1D2132" stroke-width="0.1" stroke-miterlimit="10" points="100,78.65 70.13,78.65 70.13,80.81 
		100,80.81 100,78.48 	"/>
	<polyline fill="#1D2132" stroke="#1D2132" stroke-width="0.1" stroke-miterlimit="10" points="51.35,59.47 42.15,59.47 
		42.15,78.65 43.24,78.65 43.24,60.55 51.35,60.55 51.35,59.47 	"/>
	<polyline fill="#1D2132" stroke="#1D2132" stroke-width="0.1" stroke-miterlimit="10" points="72.7,78.65 72.7,66.33 71.62,66.33 
		71.62,78.65 72.7,78.65 	"/>
	<polyline fill="#1D2132" stroke="#1D2132" stroke-width="0.1" stroke-miterlimit="10" points="71.62,54.74 71.62,44.6 70.33,44.6 
		70.33,43.52 97.29,43.52 97.29,44.6 72.7,44.6 72.7,54.74 71.62,54.74 	"/>
	<polyline fill="#1D2132" stroke="#1D2132" stroke-width="0.1" stroke-miterlimit="10" points="14.18,2.3 14.18,5.01 2.7,5.01 
		2.7,75.95 0,75.95 0,4.64 0,0.19 14.86,0.28 14.86,2.3 	"/>
	<polyline fill="#1D2132" stroke="#1D2132" stroke-width="0.1" stroke-miterlimit="10" points="84.86,2.3 100,2.3 100,5.01 
		100,5.01 100,78.65 97.29,78.65 97.29,5.01 84.86,5.01 84.86,2.3 	"/>
	<polyline fill="#1D2132" stroke="#1D2132" stroke-width="0.1" stroke-miterlimit="10" points="57.43,43.52 57.43,44.6 50.27,44.6 
		50.27,5.01 51.35,5.01 51.35,43.52 57.43,43.52 	"/>
	<polyline fill="#1D2132" stroke="#1D2132" stroke-width="0.1" stroke-miterlimit="10" points="37.16,2.3 59.18,2.3 59.18,5.01 
		37.16,5.01 37.16,2.3 	"/>
	<polyline fill="#1D2132" stroke="#1D2132" stroke-width="0.1" stroke-miterlimit="10" points="100,2.3 84.19,2.3 84.19,0.28 
		100,0.28 100,2.3 	"/>
	<polyline fill="#1D2132" stroke="#1D2132" stroke-width="0.1" stroke-miterlimit="10" points="59.86,2.3 36.49,2.3 36.49,0.28 
		59.86,0.28 59.86,2.3 	"/>
	<path fill="#1D2132" stroke="#1D2132" stroke-width="0.1" stroke-miterlimit="10" d="M14.86,2.3"/>
	<polyline fill="#1D2132" stroke="#1D2132" stroke-width="0.1" stroke-miterlimit="10" points="7.84,78.65 54.41,78.65 54.41,80.81 
		5.67,80.81 5.67,78.65 5.67,75.95 2.7,75.95 2.7,73.79 7.84,73.79 7.84,78.65 	"/>
</g>
<g id="Details">
	<g>
		
			<rect x="95.12" y="76.36" fill="#FFFFFF" stroke="#1D2132" stroke-width="0.5" stroke-linecap="square" stroke-miterlimit="10" width="2" height="2"/>
		<polygon fill="#1D2132" stroke="#1D2132" stroke-width="0.1" stroke-miterlimit="10" points="97,78.36 96.33,77.14 95.12,76.47 
			97,76.47 		"/>
	</g>
</g>
</svg>
