<?xml version="1.0" encoding="utf-8"?>
<!-- Generator: Adobe Illustrator 22.0.0, SVG Export Plug-In . SVG Version: 6.00 Build 0)  -->
<svg version="1.1" id="Layer_1" xmlns="http://www.w3.org/2000/svg" xmlns:xlink="http://www.w3.org/1999/xlink" x="0px" y="0px"
	 viewBox="0 0 100 101" enable-background="new 0 0 100 101" xml:space="preserve">
<g id="Background">
	
		<polygon opacity="0.1" fill="#1D2132" stroke="#1D2132" stroke-width="0.1" stroke-linecap="round" stroke-linejoin="round" stroke-miterlimit="10" enable-background="new    " points="
		1.97,5.01 97.57,5.01 97.57,78.65 97.57,98.73 51.62,98.57 51.62,78.65 8.11,78.65 8.11,73.79 1.97,73.79 	"/>
</g>
<g id="Plumbing">
	<g>
		<polyline fill="#FFFFFF" points="94.07,57.87 93.94,57.87 93.83,57.87 93.61,57.9 93.4,57.95 93.19,58.03 92.98,58.13 92.8,58.24 
			92.63,58.39 92.48,58.54 92.31,58.78 92.16,59.02 92.02,59.28 91.91,59.54 91.81,59.84 91.73,60.09 91.67,60.36 91.6,60.63 
			91.55,60.92 91.54,61.2 91.53,61.45 91.54,61.7 91.57,61.98 91.6,62.26 91.67,62.54 91.73,62.81 91.83,63.09 91.91,63.35 
			92.02,63.61 92.16,63.87 92.31,64.12 92.48,64.36 92.63,64.5 92.8,64.65 92.98,64.76 93.19,64.88 93.4,64.95 93.61,65 
			93.83,65.04 94.07,65.04 97.26,65.04 97.26,57.87 94.07,57.87 		"/>
		
			<line fill="none" stroke="#1D2132" stroke-width="0.1" stroke-linecap="square" stroke-miterlimit="10" x1="97.26" y1="65.04" x2="97.26" y2="57.87"/>
		
			<line fill="none" stroke="#1D2132" stroke-width="0.1" stroke-linecap="square" stroke-miterlimit="10" x1="94.07" y1="65.04" x2="97.26" y2="65.04"/>
		
			<line fill="none" stroke="#1D2132" stroke-width="0.1" stroke-linecap="square" stroke-miterlimit="10" x1="94.07" y1="57.87" x2="97.26" y2="57.87"/>
		
			<line fill="none" stroke="#1D2132" stroke-width="0.1" stroke-linecap="square" stroke-miterlimit="10" x1="97.26" y1="60.32" x2="97.26" y2="62.57"/>
		
			<line fill="none" stroke="#1D2132" stroke-width="0.1" stroke-linecap="square" stroke-miterlimit="10" x1="94.7" y1="61.67" x2="94.7" y2="62.04"/>
		
			<line fill="none" stroke="#1D2132" stroke-width="0.1" stroke-linecap="square" stroke-miterlimit="10" x1="94.92" y1="61.45" x2="95.33" y2="61.45"/>
		
			<line fill="none" stroke="#1D2132" stroke-width="0.1" stroke-linecap="square" stroke-miterlimit="10" x1="94.7" y1="60.84" x2="94.7" y2="61.23"/>
		
			<line fill="none" stroke="#1D2132" stroke-width="0.1" stroke-linecap="square" stroke-miterlimit="10" x1="94.05" y1="61.45" x2="94.45" y2="61.45"/>
		<path fill="none" stroke="#1D2132" stroke-width="0.1" stroke-linecap="square" stroke-miterlimit="10" d="M93.86,58.31
			c0.66,0.25,1.21,0.68,1.6,1.24"/>
		<path fill="none" stroke="#1D2132" stroke-width="0.1" stroke-linecap="square" stroke-miterlimit="10" d="M95.45,59.56
			c0.32,0.49,0.48,1.06,0.48,1.65c0,0.07,0,0.17-0.01,0.25"/>
		<path fill="none" stroke="#1D2132" stroke-width="0.1" stroke-linecap="square" stroke-miterlimit="10" d="M95.46,63.35
			c-0.4,0.56-0.94,1-1.6,1.24"/>
		<path fill="none" stroke="#1D2132" stroke-width="0.1" stroke-linecap="square" stroke-miterlimit="10" d="M95.92,61.46
			c0.01,0.07,0.01,0.17,0.01,0.25c0,0.58-0.17,1.15-0.48,1.65"/>
		<path fill="none" stroke="#1D2132" stroke-width="0.1" stroke-linecap="square" stroke-miterlimit="10" d="M91.54,61.19
			c0.06-0.74,0.26-1.48,0.62-2.17"/>
		<path fill="none" stroke="#1D2132" stroke-width="0.1" stroke-linecap="square" stroke-miterlimit="10" d="M94.05,65.04
			c-0.01,0-0.05,0-0.07,0c-0.58,0-1.13-0.25-1.5-0.68"/>
		<path fill="none" stroke="#1D2132" stroke-width="0.1" stroke-linecap="square" stroke-miterlimit="10" d="M91.54,61.7
			c-0.01-0.07-0.01-0.17-0.01-0.25s0-0.17,0.01-0.25"/>
		<path fill="none" stroke="#1D2132" stroke-width="0.1" stroke-linecap="square" stroke-miterlimit="10" d="M95.34,59.44
			c0.1,0.66,0.16,1.34,0.16,2s-0.06,1.32-0.16,1.99"/>
		<path fill="none" stroke="#1D2132" stroke-width="0.1" stroke-linecap="square" stroke-miterlimit="10" d="M96.79,61.44
			c0,0.67-0.05,1.35-0.15,2.02"/>
		<path fill="none" stroke="#1D2132" stroke-width="0.1" stroke-linecap="square" stroke-miterlimit="10" d="M96.45,63.84
			c-0.78,0.66-1.78,1.01-2.82,1.01c-0.02,0-0.04,0-0.06,0"/>
		<path fill="none" stroke="#1D2132" stroke-width="0.1" stroke-linecap="square" stroke-miterlimit="10" d="M96.65,63.47
			c-0.02,0.14-0.1,0.28-0.21,0.37"/>
		<path fill="none" stroke="#1D2132" stroke-width="0.1" stroke-linecap="square" stroke-miterlimit="10" d="M93.58,58.05
			c0.01,0,0.04,0,0.05,0c1.04,0,2.04,0.36,2.82,1.01"/>
		<path fill="none" stroke="#1D2132" stroke-width="0.1" stroke-linecap="square" stroke-miterlimit="10" d="M96.65,59.43
			c0.09,0.67,0.15,1.34,0.15,2.02"/>
		<path fill="none" stroke="#1D2132" stroke-width="0.1" stroke-linecap="square" stroke-miterlimit="10" d="M96.43,59.06
			c0.12,0.1,0.19,0.24,0.21,0.37"/>
		<path fill="none" stroke="#1D2132" stroke-width="0.1" stroke-linecap="square" stroke-miterlimit="10" d="M92.49,58.55
			c0.36-0.43,0.92-0.68,1.5-0.68c0.01,0,0.05,0,0.07,0"/>
		<path fill="none" stroke="#1D2132" stroke-width="0.1" stroke-linecap="square" stroke-miterlimit="10" d="M92.16,59.01
			c0.09-0.16,0.2-0.32,0.32-0.47"/>
		<path fill="none" stroke="#1D2132" stroke-width="0.1" stroke-linecap="square" stroke-miterlimit="10" d="M92.48,64.34
			c-0.12-0.14-0.24-0.3-0.32-0.47"/>
		<path fill="none" stroke="#1D2132" stroke-width="0.1" stroke-linecap="square" stroke-miterlimit="10" d="M92.16,63.86
			c-0.35-0.67-0.56-1.41-0.62-2.17"/>
		<path fill="none" stroke="#1D2132" stroke-width="0.1" stroke-linecap="square" stroke-miterlimit="10" d="M92.06,62.44
			c-0.07-0.32-0.12-0.66-0.12-0.99s0.05-0.67,0.12-0.99"/>
		<path fill="none" stroke="#1D2132" stroke-width="0.1" stroke-linecap="square" stroke-miterlimit="10" d="M92.93,58.66
			c0.22-0.24,0.53-0.37,0.87-0.37c0.02,0,0.05,0,0.07,0"/>
		<path fill="none" stroke="#1D2132" stroke-width="0.1" stroke-linecap="square" stroke-miterlimit="10" d="M92.06,60.46
			c0.14-0.66,0.43-1.26,0.87-1.78"/>
		<path fill="none" stroke="#1D2132" stroke-width="0.1" stroke-linecap="square" stroke-miterlimit="10" d="M93.87,64.59
			c-0.02,0-0.05,0-0.07,0c-0.33,0-0.64-0.14-0.87-0.37"/>
		<path fill="none" stroke="#1D2132" stroke-width="0.1" stroke-linecap="square" stroke-miterlimit="10" d="M92.93,64.23
			c-0.46-0.52-0.74-1.14-0.87-1.79"/>
		<path fill="none" stroke="#1D2132" stroke-width="0.1" stroke-linecap="square" stroke-miterlimit="10" d="M95.18,61.45
			c0-0.25-0.22-0.47-0.49-0.46c-0.27,0-0.49,0.21-0.49,0.46s0.22,0.46,0.49,0.46S95.18,61.7,95.18,61.45"/>
		<path fill="none" stroke="#1D2132" stroke-width="0.1" stroke-linecap="square" stroke-miterlimit="10" d="M94.96,61.45
			c0-0.14-0.12-0.25-0.26-0.25c-0.15,0-0.26,0.11-0.26,0.25s0.11,0.25,0.26,0.25S94.96,61.58,94.96,61.45"/>
	</g>
	<g>
		<polygon fill="#FFFFFF" points="80.51,78.65 80.51,76.86 80.51,76.83 80.52,76.81 80.52,76.78 80.55,76.76 80.55,76.73 
			80.55,76.71 80.55,76.7 80.56,76.67 80.58,76.66 80.6,76.64 80.62,76.63 80.63,76.61 80.65,76.6 80.67,76.59 80.69,76.58 
			80.72,76.56 80.72,71.79 80.72,71.67 80.72,71.56 80.74,71.44 80.77,71.33 80.8,71.22 80.83,71.11 80.88,71 80.91,70.89 
			80.98,70.79 81.02,70.69 81.09,70.59 81.15,70.51 81.23,70.41 81.31,70.34 81.39,70.25 81.46,70.18 81.55,70.09 81.65,70.03 
			81.73,69.97 81.83,69.92 81.92,69.86 82.01,69.81 82.12,69.76 82.22,69.73 82.33,69.69 82.44,69.67 82.54,69.63 82.65,69.6 
			82.76,69.59 82.87,69.58 82.98,69.58 83.09,69.58 83.2,69.58 83.31,69.58 83.42,69.59 83.53,69.6 83.64,69.63 83.75,69.67 
			83.84,69.69 83.95,69.73 84.05,69.76 84.15,69.81 84.25,69.86 84.35,69.92 84.46,69.97 84.53,70.03 84.61,70.09 84.7,70.18 
			84.78,70.25 84.87,70.34 84.94,70.41 85.02,70.51 85.09,70.59 85.15,70.69 85.2,70.79 85.26,70.89 85.3,71 85.36,71.11 
			85.37,71.22 85.41,71.33 85.43,71.44 85.44,71.56 85.44,71.67 85.46,71.79 85.46,76.56 85.48,76.58 85.51,76.59 85.53,76.6 
			85.53,76.61 85.55,76.63 85.58,76.64 85.59,76.66 85.6,76.67 85.62,76.7 85.63,76.71 85.64,76.73 85.64,76.76 85.65,76.78 
			85.65,76.81 85.66,76.83 85.66,76.86 85.66,78.65 83.09,78.65 		"/>
		
			<line fill="none" stroke="#1D2132" stroke-width="0.1" stroke-linecap="square" stroke-miterlimit="10" x1="85.46" y1="71.79" x2="85.46" y2="76.56"/>
		
			<line fill="none" stroke="#1D2132" stroke-width="0.1" stroke-linecap="square" stroke-miterlimit="10" x1="80.51" y1="78.65" x2="85.66" y2="78.65"/>
		
			<line fill="none" stroke="#1D2132" stroke-width="0.1" stroke-linecap="square" stroke-miterlimit="10" x1="85.66" y1="76.86" x2="85.66" y2="78.65"/>
		
			<line fill="none" stroke="#1D2132" stroke-width="0.1" stroke-linecap="square" stroke-miterlimit="10" x1="81.17" y1="75.72" x2="83.09" y2="75.72"/>
		
			<line fill="none" stroke="#1D2132" stroke-width="0.1" stroke-linecap="square" stroke-miterlimit="10" x1="84.99" y1="75.72" x2="85.46" y2="71.79"/>
		
			<line fill="none" stroke="#1D2132" stroke-width="0.1" stroke-linecap="square" stroke-miterlimit="10" x1="84.99" y1="75.72" x2="83.09" y2="75.72"/>
		
			<line fill="none" stroke="#1D2132" stroke-width="0.1" stroke-linecap="square" stroke-miterlimit="10" x1="81.17" y1="75.72" x2="80.72" y2="71.79"/>
		
			<line fill="none" stroke="#1D2132" stroke-width="0.1" stroke-linecap="square" stroke-miterlimit="10" x1="80.72" y1="71.79" x2="80.72" y2="76.56"/>
		
			<line fill="none" stroke="#1D2132" stroke-width="0.1" stroke-linecap="square" stroke-miterlimit="10" x1="80.51" y1="76.86" x2="80.51" y2="78.65"/>
		<path fill="none" stroke="#1D2132" stroke-width="0.1" stroke-linecap="square" stroke-miterlimit="10" d="M85.4,76.56
			c-0.77-0.09-1.54-0.13-2.31-0.13s-1.54,0.04-2.31,0.12"/>
		<path fill="none" stroke="#1D2132" stroke-width="0.1" stroke-linecap="square" stroke-miterlimit="10" d="M85.66,76.86
			c0-0.15-0.12-0.28-0.27-0.31"/>
		<path fill="none" stroke="#1D2132" stroke-width="0.1" stroke-linecap="square" stroke-miterlimit="10" d="M85.46,71.79
			c0-1.22-1.06-2.21-2.37-2.21s-2.37,0.99-2.37,2.21"/>
		<path fill="none" stroke="#1D2132" stroke-width="0.1" stroke-linecap="square" stroke-miterlimit="10" d="M80.78,76.55
			c-0.15,0.01-0.27,0.16-0.27,0.31"/>
		<path fill="none" stroke="#1D2132" stroke-width="0.1" stroke-linecap="square" stroke-miterlimit="10" d="M83.09,77.76
			c-0.13,0-0.23-0.11-0.24-0.26c0-0.13,0.11-0.26,0.24-0.26s0.24,0.12,0.24,0.26S83.22,77.76,83.09,77.76"/>
	</g>
	<g>
		<path fill="#FFFFFF" d="M84.84,56.77V44.72c0-0.07,0.04-0.12,0.12-0.12h12.05c0.07,0,0.12,0.04,0.12,0.12v12.04
			c0,0.07-0.04,0.12-0.12,0.12H84.94C84.9,56.88,84.84,56.82,84.84,56.77z"/>
		
			<line fill="none" stroke="#1D2132" stroke-width="0.1" stroke-linecap="square" stroke-miterlimit="10" x1="94.39" y1="47.71" x2="95.19" y2="47.71"/>
		
			<line fill="none" stroke="#1D2132" stroke-width="0.1" stroke-linecap="square" stroke-miterlimit="10" x1="94.06" y1="46.58" x2="94.06" y2="47.37"/>
		
			<line fill="none" stroke="#1D2132" stroke-width="0.1" stroke-linecap="square" stroke-miterlimit="10" x1="92.94" y1="47.71" x2="93.72" y2="47.71"/>
		
			<line fill="none" stroke="#1D2132" stroke-width="0.1" stroke-linecap="square" stroke-miterlimit="10" x1="94.06" y1="48.04" x2="94.06" y2="48.83"/>
		
			<line fill="none" stroke="#1D2132" stroke-width="0.1" stroke-linecap="square" stroke-miterlimit="10" x1="93.11" y1="56.19" x2="96.4" y2="56.19"/>
		
			<line fill="none" stroke="#1D2132" stroke-width="0.1" stroke-linecap="square" stroke-miterlimit="10" x1="85.72" y1="45.24" x2="93.24" y2="45.24"/>
		<path fill="none" stroke="#1D2132" stroke-width="0.1" stroke-linecap="square" stroke-miterlimit="10" d="M85.59,45.38V56
			c0,0.1,0.09,0.19,0.19,0.19H96.4"/>
		
			<line fill="none" stroke="#1D2132" stroke-width="0.1" stroke-linecap="square" stroke-miterlimit="10" x1="96.53" y1="48.53" x2="96.53" y2="56.05"/>
		<g>
			<path fill="none" stroke="#1D2132" stroke-width="0.1" stroke-linecap="square" stroke-miterlimit="10" d="M96.55,48.53
				c0-0.06-0.01-0.15-0.04-0.21"/>
		</g>
		<g>
			<path fill="none" stroke="#1D2132" stroke-width="0.1" stroke-linecap="square" stroke-miterlimit="10" d="M96.4,56.19
				c0.07,0,0.13-0.06,0.13-0.13"/>
		</g>
		<g>
			<path fill="none" stroke="#1D2132" stroke-width="0.1" stroke-linecap="square" stroke-miterlimit="10" d="M96.55,48.53
				c0-0.06-0.01-0.15-0.04-0.21"/>
		</g>
		<g>
			<path fill="none" stroke="#1D2132" stroke-width="0.1" stroke-linecap="square" stroke-miterlimit="10" d="M85.72,45.24
				c-0.07,0-0.13,0.06-0.13,0.13"/>
		</g>
		<g>
			<path fill="none" stroke="#1D2132" stroke-width="0.1" stroke-linecap="square" stroke-miterlimit="10" d="M96.53,48.41
				c-0.72-1.36-1.81-2.47-3.15-3.15"/>
		</g>
		<g>
			<path fill="none" stroke="#1D2132" stroke-width="0.1" stroke-linecap="square" stroke-miterlimit="10" d="M93.47,45.27
				c-0.07-0.01-0.15-0.03-0.22-0.03"/>
		</g>
		<g>
			<path fill="none" stroke="#1D2132" stroke-width="0.1" stroke-linecap="square" stroke-miterlimit="10" d="M96.49,48.31
				c-0.48-1.42-1.6-2.56-3.04-3.04"/>
		</g>
		<g>
			<path fill="none" stroke="#1D2132" stroke-width="0.1" stroke-linecap="square" stroke-miterlimit="10" d="M93.47,45.27
				c-0.07-0.01-0.15-0.03-0.22-0.03"/>
		</g>
		<g>
			<path fill="none" stroke="#1D2132" stroke-width="0.1" stroke-linecap="square" stroke-miterlimit="10" d="M94.69,47.71
				c0,0.33-0.3,0.61-0.61,0.61c-0.33,0-0.61-0.28-0.61-0.61c0-0.34,0.27-0.63,0.61-0.61C94.41,47.1,94.69,47.38,94.69,47.71"/>
		</g>
		<g>
			<path fill="none" stroke="#1D2132" stroke-width="0.1" stroke-linecap="square" stroke-miterlimit="10" d="M94.93,47.71
				c0,0.48-0.39,0.85-0.87,0.87c-0.48,0-0.87-0.39-0.87-0.87s0.39-0.87,0.87-0.87S94.93,47.23,94.93,47.71"/>
		</g>
		<path fill="none" stroke="#1D2132" stroke-width="0.1" stroke-linecap="square" stroke-miterlimit="10" d="M84.91,56.55V44.93
			c0-0.18,0.15-0.33,0.33-0.33h11.6c0.18,0,0.33,0.15,0.33,0.33v11.62c0,0.18-0.15,0.33-0.33,0.33H85.21
			C85.05,56.88,84.9,56.73,84.91,56.55z"/>
	</g>
	<g>
		<g>
			<path fill="#FFFFFF" stroke="#1D2132" stroke-width="0.1" stroke-linecap="square" stroke-miterlimit="10" d="M78.18,49.98
				c0,0.09,0.09,0.16,0.2,0.16s0.2-0.07,0.2-0.16s-0.09-0.16-0.2-0.16S78.18,49.89,78.18,49.98z"/>
			
				<ellipse fill="#FFFFFF" stroke="#1D2132" stroke-width="0.1" stroke-linecap="square" stroke-miterlimit="10" cx="77.53" cy="49.98" rx="0.2" ry="0.16"/>
			<path fill="#FFFFFF" stroke="#1D2132" stroke-width="0.1" stroke-linecap="square" stroke-miterlimit="10" d="M73.87,49.98
				c0,0.09,0.09,0.16,0.2,0.16s0.2-0.07,0.2-0.16s-0.09-0.16-0.2-0.16S73.87,49.89,73.87,49.98z"/>
			<path fill="#FFFFFF" stroke="#1D2132" stroke-width="0.1" stroke-linecap="square" stroke-miterlimit="10" d="M73.88,49.98
				c-0.44,0-0.8-0.09-0.8-0.21v-0.54c0-0.12,0.36-0.21,0.8-0.21h4.7c0.44,0,0.8,0.09,0.8,0.21v0.54c0,0.12-0.36,0.21-0.8,0.21H73.88
				z"/>
			
				<rect x="72.7" y="44.99" fill="#FFFFFF" stroke="#1D2132" stroke-width="0.1" stroke-linecap="square" stroke-miterlimit="10" width="7" height="4.71"/>
			<path fill="#FFFFFF" stroke="#1D2132" stroke-width="0.1" stroke-linecap="square" stroke-miterlimit="10" d="M73.88,49.45
				c-0.44,0-0.8-0.77-0.8-1.72v-0.77c0-0.95,0.36-1.72,0.8-1.72h4.7c0.44,0,0.8,0.77,0.8,1.72v0.77c0,0.95-0.36,1.72-0.8,1.72H73.88
				z"/>
		</g>
		<g>
			<path fill="#FFFFFF" stroke="#1D2132" stroke-width="0.1" stroke-linecap="square" stroke-miterlimit="10" d="M74.02,45.82h4.43
				c0.09,0,0.16-0.07,0.16-0.16v-0.02c0-0.09-0.07-0.16-0.16-0.16h-4.43c-0.09,0-0.16,0.07-0.16,0.16v0.02
				C73.86,45.75,73.93,45.82,74.02,45.82z"/>
			<g>
				
					<rect x="78.13" y="44.73" fill="#FFFFFF" stroke="#1D2132" stroke-width="0.1" stroke-linecap="square" stroke-miterlimit="10" width="0.28" height="0.75"/>
				
					<rect x="74.03" y="44.73" fill="#FFFFFF" stroke="#1D2132" stroke-width="0.1" stroke-linecap="square" stroke-miterlimit="10" width="0.28" height="0.75"/>
			</g>
			<g>
				
					<rect x="77.97" y="44.59" fill="#FFFFFF" stroke="#1D2132" stroke-width="0.1" stroke-linecap="square" stroke-miterlimit="10" width="0.59" height="0.14"/>
				
					<rect x="73.88" y="44.59" fill="#FFFFFF" stroke="#1D2132" stroke-width="0.1" stroke-linecap="square" stroke-miterlimit="10" width="0.59" height="0.14"/>
			</g>
		</g>
	</g>
</g>
<g id="Furniture">
	<g>
		
			<rect x="7.88" y="70.63" fill="#FFFFFF" stroke="#1D2132" stroke-width="0.1" stroke-linecap="square" stroke-miterlimit="22.9256" width="33.81" height="7.98"/>
		
			<rect x="22.1" y="70.63" fill="#FFFFFF" stroke="#1D2132" stroke-width="0.1" stroke-linecap="square" stroke-miterlimit="22.9256" width="6.21" height="7.98"/>
		
			<rect x="34.98" y="70.63" fill="#FFFFFF" stroke="#1D2132" stroke-width="0.1" stroke-linecap="square" stroke-miterlimit="22.9256" width="7.05" height="7.98"/>
		
			<rect x="7.88" y="70.63" fill="#FFFFFF" stroke="#1D2132" stroke-width="0.1" stroke-linecap="square" stroke-miterlimit="22.9256" width="6.86" height="7.98"/>
		<g>
			
				<line fill="none" stroke="#1D2132" stroke-width="0.1" stroke-linecap="square" stroke-miterlimit="22.9256" x1="11.39" y1="75.61" x2="11.39" y2="73.63"/>
			
				<line fill="none" stroke="#1D2132" stroke-width="0.1" stroke-linecap="square" stroke-miterlimit="22.9256" x1="10.69" y1="75.32" x2="12.1" y2="73.91"/>
			
				<line fill="none" stroke="#1D2132" stroke-width="0.1" stroke-linecap="square" stroke-miterlimit="22.9256" x1="10.39" y1="74.63" x2="12.4" y2="74.63"/>
			
				<line fill="none" stroke="#1D2132" stroke-width="0.1" stroke-linecap="square" stroke-miterlimit="22.9256" x1="10.69" y1="73.91" x2="12.1" y2="75.32"/>
		</g>
		<g>
			
				<rect x="22.84" y="70.95" fill="#FFFFFF" stroke="#1D2132" stroke-width="0.1" stroke-linecap="square" stroke-miterlimit="22.9256" width="4.65" height="7.32"/>
			<g>
				<path fill="#FFFFFF" stroke="#1D2132" stroke-width="0.1" stroke-linecap="square" stroke-miterlimit="22.9256" d="M26.45,72.95
					c0,0.71-0.57,1.27-1.27,1.27c-0.71,0-1.27-0.56-1.27-1.27s0.56-1.27,1.27-1.27C25.87,71.67,26.45,72.25,26.45,72.95"/>
				<path fill="#FFFFFF" stroke="#1D2132" stroke-width="0.1" stroke-linecap="square" stroke-miterlimit="22.9256" d="M26.45,76.55
					c0,0.7-0.57,1.27-1.27,1.27c-0.71,0-1.27-0.56-1.27-1.27s0.56-1.27,1.27-1.27C25.87,75.28,26.45,75.85,26.45,76.55"/>
				<path fill="#FFFFFF" stroke="#1D2132" stroke-width="0.1" stroke-linecap="square" stroke-miterlimit="22.9256" d="M26.2,72.95
					c0,0.56-0.46,1.01-1.01,1.01c-0.56,0-1.01-0.46-1.01-1.01c0-0.56,0.46-1.01,1.01-1.01C25.74,71.92,26.2,72.39,26.2,72.95"/>
				<path fill="#FFFFFF" stroke="#1D2132" stroke-width="0.1" stroke-linecap="square" stroke-miterlimit="22.9256" d="M26.2,76.55
					c0,0.56-0.46,1.01-1.01,1.01c-0.56,0-1.01-0.46-1.01-1.01c0-0.56,0.46-1.01,1.01-1.01S26.2,75.99,26.2,76.55"/>
			</g>
		</g>
		<g>
			<path fill="#FFFFFF" stroke="#1D2132" stroke-width="0.1" stroke-linecap="square" stroke-miterlimit="22.9256" d="M36.97,77.13
				h3.08c0.26,0,0.46-0.2,0.46-0.46v-5.08c0-0.26-0.2-0.46-0.46-0.46h-3.08c-0.26,0-0.46,0.2-0.46,0.46v5.08
				C36.5,76.93,36.7,77.13,36.97,77.13z"/>
			<g>
				<path fill="#FFFFFF" stroke="#1D2132" stroke-width="0.1" stroke-linecap="square" stroke-miterlimit="22.9256" d="M38.82,75.99
					c0-0.2-0.15-0.36-0.32-0.36s-0.32,0.16-0.32,0.36s0.15,0.36,0.32,0.36S38.84,76.19,38.82,75.99z"/>
				<g>
					<path fill="#FFFFFF" stroke="#1D2132" stroke-width="0.1" stroke-linecap="square" stroke-miterlimit="22.9256" d="
						M39.05,77.63c-0.01-0.27-0.25-0.5-0.55-0.5c-0.31,0-0.55,0.22-0.55,0.5s0.24,0.5,0.55,0.5S39.05,77.9,39.05,77.63z"/>
					<path fill="#FFFFFF" stroke="#1D2132" stroke-width="0.1" stroke-linecap="square" stroke-miterlimit="22.9256" d="
						M38.49,74.81c-0.1,0-0.16,0.1-0.16,0.26l0.01,2.59c0,0.15,0.07,0.26,0.16,0.26l0,0c0.1,0,0.16-0.11,0.16-0.26l-0.01-2.59
						C38.65,74.92,38.59,74.81,38.49,74.81L38.49,74.81z"/>
					<path fill="#FFFFFF" stroke="#1D2132" stroke-width="0.1" stroke-linecap="square" stroke-miterlimit="22.9256" d="M39.26,77.6
						c0-0.09-0.34-0.15-0.76-0.15c-0.41,0-0.76,0.07-0.76,0.15c0,0.1,0.34,0.15,0.76,0.15C38.92,77.76,39.27,77.7,39.26,77.6z"/>
				</g>
			</g>
		</g>
	</g>
	<g>
		<g>
			
				<rect x="2.84" y="8.27" fill="#FFFFFF" stroke="#1D2132" stroke-width="0.1" stroke-linecap="square" stroke-miterlimit="10" width="4.32" height="25.02"/>
			<g>
				<polygon fill="#FFFFFF" stroke="#1D2132" stroke-width="0.1" stroke-linecap="square" stroke-miterlimit="10" points="
					7.44,30.79 7.44,29.1 7.16,29.1 7.16,28.65 7.6,28.65 7.6,31.24 7.16,31.24 7.16,30.79 				"/>
				<polygon fill="#FFFFFF" stroke="#1D2132" stroke-width="0.1" stroke-linecap="square" stroke-miterlimit="10" points="
					7.44,12.47 7.44,10.77 7.16,10.77 7.16,10.33 7.6,10.33 7.6,12.91 7.16,12.91 7.16,12.47 				"/>
			</g>
			<g>
				<polygon fill="#FFFFFF" stroke="#1D2132" stroke-width="0.1" stroke-linecap="square" stroke-miterlimit="10" points="
					7.44,25.97 7.44,24.28 7.16,24.28 7.16,23.83 7.6,23.83 7.6,26.43 7.16,26.43 7.16,25.97 				"/>
				<polygon fill="#FFFFFF" stroke="#1D2132" stroke-width="0.1" stroke-linecap="square" stroke-miterlimit="10" points="
					7.44,17.28 7.44,15.59 7.16,15.59 7.16,15.14 7.6,15.14 7.6,17.73 7.16,17.73 7.16,17.28 				"/>
			</g>
		</g>
		<g>
			<path fill="#FFFFFF" stroke="#1D2132" stroke-width="0.1" stroke-linecap="square" stroke-miterlimit="10" d="M3.7,19.93v1.72
				c0,0.41,0.34,0.75,0.75,0.75h0.24c0.41,0,0.75-0.34,0.75-0.75v-1.72c0-0.41-0.34-0.75-0.75-0.75H4.45
				C4.03,19.18,3.69,19.51,3.7,19.93z"/>
			<path fill="#FFFFFF" stroke="#1D2132" stroke-width="0.1" stroke-linecap="square" stroke-miterlimit="10" d="M4.4,20.09v1.38
				c0,0.18,0.14,0.32,0.32,0.32H4.8c0.18,0,0.32-0.14,0.32-0.32v-1.38c0-0.18-0.14-0.32-0.32-0.32H4.72
				C4.55,19.77,4.4,19.91,4.4,20.09z"/>
			
				<rect x="4.98" y="15.09" fill="#FFFFFF" stroke="#1D2132" stroke-width="0.1" stroke-linecap="square" stroke-miterlimit="10" width="0.15" height="11.37"/>
			<polygon fill="#FFFFFF" stroke="#1D2132" stroke-width="0.1" stroke-linecap="square" stroke-miterlimit="10" points="
				4.68,24.83 4.98,26.47 4.98,15.09 4.68,16.74 			"/>
		</g>
	</g>
	<g>
		<path fill="#FFFFFF" stroke="#1D2132" stroke-width="0.1" stroke-linecap="square" stroke-miterlimit="10" d="M44.73,48.51
			c-1,0.31-1.82,1.3-3.98,1.31c-2.17,0.01-4.45-2.6-3.36-6.35c1.09-3.74,3.12-4.69,4.89-4.5c1.77,0.19,2.66,1.38,3.24,2.02
			c1.34,1.45,1.35,2,1.92,2.44c1.16,0.92,0.62,2.97,0.01,3.72C46.33,48.51,45.73,48.19,44.73,48.51z"/>
		<path fill="none" stroke="#1D2132" stroke-width="0.1" stroke-linecap="square" stroke-miterlimit="10" d="M38.14,48.46
			c0,0,0.44,0.5,1.14,0.84c0.7,0.34,0.91,0.21,1.82,0.15c0.91-0.06,1.35-0.06,2.58-0.87c0.88-0.57,0.78-0.89,1.1-0.77
			c0.19,0.07,0.72-0.06,1.15-0.48c0.71-0.69,0.85-1.36,1.03-2.26c0.18-0.91-0.39-1.5-0.49-1.58c-0.1-0.08,0.2-0.39-0.13-0.9
			c-1.1-1.69-1.15-1.28-2.15-2.54c-0.5-0.63-1.92-1.1-1.92-1.1"/>
		<path fill="none" stroke="#1D2132" stroke-width="0.1" stroke-linecap="square" stroke-miterlimit="10" d="M45.47,43.56
			c0,0-0.13,0.05-0.69,0c-0.55-0.05-1.35-0.3-1.35-0.3s0,0-0.07-0.14c-0.07-0.13-0.19-0.44-0.46-0.83
			c-0.27-0.39,0.22-1.09,0.22-1.09"/>
		<path fill="none" stroke="#1D2132" stroke-width="0.1" stroke-linecap="square" stroke-miterlimit="10" d="M44.28,47.45
			c0,0-0.2-0.25-0.7-0.54c-0.5-0.29-1.06-0.59-1.06-0.59s0.09-0.98,0.38-1.75c0.29-0.77,0.53-1.31,0.53-1.31"/>
		<path fill="none" stroke="#1D2132" stroke-width="0.1" stroke-linecap="square" stroke-miterlimit="10" d="M42.52,46.33
			c0,0-0.45,0-1.05,0.18c-0.6,0.18-0.79,0.3-0.82,0.74s0.27,1.08,0.27,1.08"/>
		<path fill="none" stroke="#1D2132" stroke-width="0.1" stroke-linecap="square" stroke-miterlimit="10" d="M39,43.38
			c0,0,0.15,0.12,0.44,0.2c0.29,0.07,0.41,0.03,0.41,0.03s0,0,0.23-0.56c0.23-0.56,1.1-1.32,1.1-1.32"/>
		<path fill="none" stroke="#1D2132" stroke-width="0.1" stroke-linecap="square" stroke-miterlimit="10" d="M39.31,46.45
			c0.25-0.06,0.39-0.31,0.39-0.31s0,0-0.09-0.21c-0.09-0.21-0.09-0.77,0.08-1.24c0.16-0.47,0.16-1.09,0.16-1.09"/>
		<path fill="none" stroke="#1D2132" stroke-width="0.1" stroke-linecap="square" stroke-miterlimit="10" d="M40.5,41.1
			c0,0,0.19,0.05,0.37,0.15c0.18,0.11,0.31,0.48,0.31,0.48"/>
		<path fill="#FFFFFF" stroke="#1D2132" stroke-width="0.1" stroke-linecap="square" stroke-miterlimit="10" d="M47.29,44.75
			c0.29,0.14,0.21,0.38,0.15,0.71c-0.06,0.33-0.15,0.53-0.23,0.88c-0.08,0.34-0.41,0.38-0.41,0.38l-0.52-0.18
			c0,0,0.02-0.15,0.07-0.15c0.07-0.01,0.33,0.22,0.45,0.14c0.2-0.14,0.09-0.43,0.15-0.76c0.06-0.33,0.22-0.54,0.21-0.75
			c0-0.12-0.24-0.22-0.37-0.2c-0.08,0.01-0.05-0.12-0.05-0.12S47,44.6,47.29,44.75z"/>
	</g>
	<g>
		<g>
			<path fill="#FFFFFF" stroke="#1D2132" stroke-width="0.1" stroke-linecap="square" stroke-miterlimit="10" d="M6.03,57.91
				c0.76-0.19,1.73-0.15,2.36-0.15s1.6-0.04,2.35,0.15c0.77,0.19,1.1,0.59,0.99,1.92c-0.11,1.33-0.08,3.13-0.33,3.8
				c-0.23,0.59-1.51,0.15-3.01,0.15s-2.79,0.44-3.01-0.15c-0.25-0.67-0.22-2.47-0.32-3.8C4.93,58.5,5.26,58.1,6.03,57.91z"/>
			<path fill="#FFFFFF" stroke="#1D2132" stroke-width="0.1" stroke-linecap="square" stroke-miterlimit="10" d="M6.2,57.88
				c0.7-0.15,1.6-0.12,2.18-0.12c0.58,0,1.48-0.02,2.18,0.13c0.71,0.16,1.02,0.49,0.92,1.58c-0.11,1.09-0.08,2.56-0.31,3.11
				c-0.22,0.49-1.4,0.94-2.8,0.94c-1.39,0-2.57-0.46-2.79-0.94c-0.23-0.55-0.21-2.04-0.3-3.12S5.49,58.04,6.2,57.88z"/>
			<g>
				<path fill="#FFFFFF" stroke="#1D2132" stroke-width="0.1" stroke-linecap="square" stroke-miterlimit="10" d="M5.2,64.53
					c0-1.61,1.48-0.48,3.18-0.48c1.64,0,2.99-1.1,3.17,0.42c-0.42,0.14-0.85,0.25-1.29,0.34C8.51,65.15,6.78,65.03,5.2,64.53z"/>
				<path fill="#FFFFFF" stroke="#1D2132" stroke-width="0.1" stroke-linecap="square" stroke-miterlimit="10" d="M5.13,64.52
					c0.03,0,0.05,0.01,0.08,0.02c1.59,0.5,3.32,0.63,5.06,0.28c0.44-0.09,0.87-0.21,1.29-0.34c0.03-0.01,0.06-0.02,0.09-0.03
					l0.1,0.29c-0.08,0.03-0.16,0.06-0.23,0.08c-0.38,0.12-0.77,0.23-1.18,0.3c-1.72,0.34-3.43,0.23-5-0.23
					c-0.1-0.03-0.2-0.06-0.29-0.09L5.13,64.52z"/>
			</g>
		</g>
		<g>
			<path fill="#FFFFFF" stroke="#1D2132" stroke-width="0.1" stroke-linecap="square" stroke-miterlimit="10" d="M6.03,46.35
				c0.76,0.19,1.73,0.15,2.36,0.15s1.6,0.04,2.35-0.15c0.77-0.19,1.1-0.59,0.99-1.92c-0.11-1.33-0.08-3.13-0.33-3.8
				c-0.23-0.59-1.51-0.15-3.01-0.15s-2.79-0.44-3.01,0.15c-0.25,0.67-0.22,2.47-0.32,3.8C4.93,45.76,5.26,46.17,6.03,46.35z"/>
			<path fill="#FFFFFF" stroke="#1D2132" stroke-width="0.1" stroke-linecap="square" stroke-miterlimit="10" d="M6.2,46.37
				c0.7,0.15,1.6,0.12,2.18,0.12c0.58,0,1.48,0.02,2.18-0.13c0.71-0.16,1.02-0.49,0.92-1.58c-0.11-1.09-0.08-2.56-0.31-3.11
				c-0.22-0.49-1.4-0.94-2.8-0.94c-1.39,0-2.57,0.46-2.79,0.94c-0.23,0.55-0.21,2.04-0.3,3.12C5.19,45.89,5.49,46.23,6.2,46.37z"/>
			<g>
				<path fill="#FFFFFF" stroke="#1D2132" stroke-width="0.1" stroke-linecap="square" stroke-miterlimit="10" d="M5.2,39.73
					c0,1.61,1.48,0.48,3.18,0.48c1.64,0,2.99,1.1,3.17-0.42c-0.42-0.14-0.85-0.25-1.29-0.34C8.51,39.1,6.78,39.22,5.2,39.73z"/>
				<path fill="#FFFFFF" stroke="#1D2132" stroke-width="0.1" stroke-linecap="square" stroke-miterlimit="10" d="M5.13,39.75
					c0.03,0,0.05-0.01,0.08-0.02c1.59-0.5,3.32-0.63,5.06-0.28c0.44,0.09,0.87,0.21,1.29,0.34c0.03,0.01,0.06,0.02,0.09,0.03
					l0.1-0.29c-0.08-0.03-0.16-0.06-0.23-0.08c-0.38-0.12-0.77-0.23-1.18-0.3c-1.72-0.34-3.43-0.23-5,0.23
					c-0.1,0.03-0.2,0.06-0.29,0.09L5.13,39.75z"/>
			</g>
		</g>
		<g>
			<path fill="#FFFFFF" stroke="#1D2132" stroke-width="0.1" stroke-linecap="square" stroke-miterlimit="10" d="M13.95,49.47
				c-0.19,0.76-0.15,1.73-0.15,2.36c0,0.63-0.04,1.6,0.15,2.35c0.19,0.77,0.59,1.1,1.92,0.99c1.33-0.11,3.13-0.08,3.8-0.33
				c0.59-0.23,0.15-1.51,0.15-3.01c0-1.51,0.44-2.79-0.15-3.01c-0.67-0.25-2.47-0.22-3.8-0.32C14.54,48.38,14.13,48.71,13.95,49.47z
				"/>
			<path fill="#FFFFFF" stroke="#1D2132" stroke-width="0.1" stroke-linecap="square" stroke-miterlimit="10" d="M13.93,49.66
				c-0.15,0.7-0.12,1.6-0.12,2.18s-0.02,1.48,0.13,2.18c0.16,0.71,0.49,1.02,1.58,0.92c1.09-0.11,2.56-0.08,3.11-0.31
				c0.49-0.22,0.94-1.4,0.94-2.8c0-1.39-0.46-2.57-0.94-2.79c-0.55-0.23-2.04-0.21-3.12-0.3C14.41,48.63,14.07,48.94,13.93,49.66z"
				/>
			<g>
				<path fill="#FFFFFF" stroke="#1D2132" stroke-width="0.1" stroke-linecap="square" stroke-miterlimit="10" d="M20.58,48.65
					c-1.61,0-0.48,1.48-0.48,3.18c0,1.64-1.1,2.99,0.42,3.17c0.14-0.42,0.25-0.85,0.34-1.29C21.2,51.96,21.08,50.24,20.58,48.65z"/>
				<path fill="#FFFFFF" stroke="#1D2132" stroke-width="0.1" stroke-linecap="square" stroke-miterlimit="10" d="M20.55,48.57
					c0,0.03,0.01,0.05,0.02,0.08c0.5,1.59,0.63,3.32,0.28,5.06c-0.09,0.44-0.21,0.87-0.34,1.29c-0.01,0.03-0.02,0.06-0.03,0.09
					l0.29,0.1c0.03-0.08,0.06-0.16,0.08-0.23c0.12-0.38,0.23-0.77,0.3-1.18c0.34-1.72,0.23-3.43-0.23-5
					c-0.03-0.1-0.06-0.2-0.09-0.29L20.55,48.57z"/>
			</g>
		</g>
		
			<rect x="2.84" y="46.71" fill="#FFFFFF" stroke="#1D2132" stroke-width="0.1" stroke-linecap="square" stroke-miterlimit="10" width="10.77" height="10.77"/>
	</g>
	<g>
		
			<rect x="70.97" y="45.37" fill="#FFFFFF" stroke="#1D2132" stroke-width="0.1" stroke-linecap="square" stroke-miterlimit="10" width="0.69" height="8.3"/>
		
			<rect x="70.96" y="45.82" fill="#FFFFFF" stroke="#1D2132" stroke-width="0.1" stroke-linecap="square" stroke-miterlimit="10" width="0.41" height="7.39"/>
	</g>
	<g>
		
			<rect x="70.91" y="70.77" fill="#FFFFFF" stroke="#1D2132" stroke-width="0.1" stroke-linecap="square" stroke-miterlimit="10" width="0.69" height="5.54"/>
		<g>
			
				<rect x="69.84" y="71.16" fill="#FFFFFF" stroke="#1D2132" stroke-width="0.1" stroke-linecap="square" stroke-miterlimit="10" width="1.06" height="0.31"/>
			
				<rect x="70.71" y="71.16" fill="#FFFFFF" stroke="#1D2132" stroke-width="0.1" stroke-linecap="square" stroke-miterlimit="10" width="0.19" height="0.31"/>
		</g>
		<g>
			
				<rect x="69.84" y="72.64" fill="#FFFFFF" stroke="#1D2132" stroke-width="0.1" stroke-linecap="square" stroke-miterlimit="10" width="1.06" height="0.31"/>
			
				<rect x="70.71" y="72.64" fill="#FFFFFF" stroke="#1D2132" stroke-width="0.1" stroke-linecap="square" stroke-miterlimit="10" width="0.19" height="0.31"/>
		</g>
		<g>
			
				<rect x="69.84" y="74.12" fill="#FFFFFF" stroke="#1D2132" stroke-width="0.1" stroke-linecap="square" stroke-miterlimit="10" width="1.06" height="0.31"/>
			
				<rect x="70.71" y="74.12" fill="#FFFFFF" stroke="#1D2132" stroke-width="0.1" stroke-linecap="square" stroke-miterlimit="10" width="0.19" height="0.31"/>
		</g>
		<g>
			
				<rect x="69.84" y="75.6" fill="#FFFFFF" stroke="#1D2132" stroke-width="0.1" stroke-linecap="square" stroke-miterlimit="10" width="1.06" height="0.31"/>
			
				<rect x="70.71" y="75.6" fill="#FFFFFF" stroke="#1D2132" stroke-width="0.1" stroke-linecap="square" stroke-miterlimit="10" width="0.19" height="0.31"/>
		</g>
	</g>
	<g>
		<g>
			<g>
				
					<rect x="90.83" y="36.66" fill="#FFFFFF" stroke="#1D2132" stroke-width="0.1" stroke-linecap="square" stroke-miterlimit="10" width="4.9" height="4.9"/>
				<polygon fill="#FFFFFF" stroke="#1D2132" stroke-width="0.1" stroke-linecap="square" stroke-miterlimit="10" points="
					90.5,40.07 90.5,38.15 90.82,38.15 90.82,37.64 90.34,37.64 90.34,40.58 90.82,40.58 90.82,40.07 				"/>
			</g>
			<g>
				
					<rect x="90.83" y="6.85" fill="#FFFFFF" stroke="#1D2132" stroke-width="0.1" stroke-linecap="square" stroke-miterlimit="10" width="4.9" height="4.9"/>
				<polygon fill="#FFFFFF" stroke="#1D2132" stroke-width="0.1" stroke-linecap="square" stroke-miterlimit="10" points="
					90.5,10.27 90.5,8.35 90.82,8.35 90.82,7.84 90.34,7.84 90.34,10.77 90.82,10.77 90.82,10.27 				"/>
			</g>
		</g>
		<g>
			<g>
				
					<rect x="70.34" y="12.59" fill="#FFFFFF" stroke="#1D2132" stroke-width="0.1" stroke-linecap="square" stroke-miterlimit="22.9256" width="25.81" height="23.22"/>
				<path fill="#FFFFFF" stroke="#1D2132" stroke-width="0.1" stroke-linecap="square" stroke-miterlimit="22.9256" d="M95.36,12.88
					c0.28,0.03,0.11,0.75,0.25,0.39c0.15-0.36,0.22,0,0.22,0.36s0,14.62,0,15.28s0,1.58,0,1.58s0.09-0.08,0,0.22
					c-0.09,0.31,0.09,4.27,0,4.58s-0.48-0.53-0.61-0.37c-0.13,0.16,0.72,0.54,0.5,0.56c-0.28,0.03-1.12-0.11-1.68-0.07
					c-0.56,0.04-0.87,0.25-1.61,0.01c-0.38-0.13-0.83,0.14-2.01,0.12c-1.18-0.02-1.64-0.02-3.25,0c-1.61,0.02-3.82,0.01-5.24,0.06
					c-1.14,0.04-1.85-0.15-2.36-0.03c-0.19,0.04-1.21-0.01-2.52,0.03c-1.32,0.04-5.31-0.06-6-0.08c-0.69-0.01-0.45,0.01-0.38-0.1
					c0.07-0.11,0.42-0.15,0.68-0.31c0.26-0.17-0.06-0.19-0.49,0.06c-0.43,0.25-0.21,0.06-0.21-0.51c0-0.38,0.04-1.12,0.17-1.21
					c0.13-0.1,0.1-0.08-0.07-0.17c-0.17-0.1-0.2-0.72-0.07-1.14c0.13-0.41,0-2.5,0.1-2.61c0.1-0.11,0.17-0.11,0-0.19
					c-0.17-0.09-0.17-11.93-0.17-13.64c0-1.74,0.02-2.47,0.06-2.69c0.03-0.2,0.61,0.58,0.88,0.64c0.26,0.07-0.07-0.16-0.14-0.22
					c-0.07-0.08-0.48-0.3-0.58-0.43c-0.1-0.13,0.31,0.04,0.74,0.13c0.62,0.13-0.51-0.16-0.01-0.17c0.44,0,0.27,0.09,0.66,0.01
					c0.17-0.03,0.54-0.06,1.18-0.03c1.03,0.04,2.64-0.12,4.58-0.1c1.94,0.02,2.49-0.04,2.63,0.09c0.13,0.13,0.85,0.39,0.92,0.24
					c0.06-0.15-0.27-0.27,0.61-0.31c0.89-0.04,2.49,0.08,3.51,0.08c1.02,0,2.49-0.12,2.76,0.03c0.26,0.15,0.5,0.13,0.66,0
					c0.17-0.13,0.26,0.02,1.32,0.02s1.7-0.05,2.72-0.13c0.61-0.05,1.25,0,1.25,0C94.65,12.98,95.07,12.83,95.36,12.88z"/>
				<path fill="#FFFFFF" stroke="#1D2132" stroke-width="0.1" stroke-linecap="square" stroke-miterlimit="22.9256" d="M89.22,14.22
					c0.39,0.85,0.1,3.16-0.14,3.84s0.32,14.53,0.06,15.48c-0.26,0.95-0.54,1.39-0.4,0.89c0.13-0.52-0.1-1.33-0.07-0.4
					c0.04,0.93-0.05,1.69-0.05,1.93c0,0.06,0,0.06-0.5,0.1c-0.38,0.03-0.7,0.12-0.73,0c-0.04-0.11,0.62-1.56,0.66-1.62
					c0.16-0.24-0.76,1.44-0.83,1.6c-0.07,0.15-0.4,0.04-1.42-0.06c-1-0.1-2.05,0.02-2.55-0.1c-0.53-0.13,0.5,0.02,0.83-0.06
					c0.33-0.08,0.49,0.05,1.48-1.34c0.99-1.38,1.38-13.83,1.54-16.05c0.06-0.88,0.29-2.83,0.06-3.6c-0.19-0.6-0.37-1.3-0.3-1.41
					s0.14,0.1,0.3,0.3c0.17,0.21,0.19,0.23,0.43,0.42c0.23,0.19-0.29-0.51-1.02-1.15c-0.72-0.64-1.98-0.3-1.98-0.4
					c0-0.1,3.65-0.17,4.41-0.06C89.56,12.62,88.81,13.37,89.22,14.22z"/>
				<g>
					<path fill="#FFFFFF" stroke="#1D2132" stroke-width="0.1" stroke-linecap="square" stroke-miterlimit="22.9256" d="
						M95.99,26.01c0.12,0.31,0.1,1.15,0.14,3.06c0.04,1.91-0.07,2.67-0.11,3.03c-0.04,0.35-0.26,1.07-0.12,1.25
						c0.15,0.18-0.19,0.31-0.29,0.26c-0.11-0.05-0.61-0.1-1.49-0.01c-0.89,0.09-2.1-0.22-2.2-0.09c-0.11,0.14-0.19-0.09-0.15-0.26
						c0.04-0.18-0.08-0.49-0.1-0.86c-0.09-1.71-0.19-2.79-0.08-5.23c0.03-0.63,0.24-1.41,0.1-1.68c-0.15-0.27,0-0.31,0.19-0.22
						c0.19,0.09,0.27,0.21,0.97-0.01c0.69-0.22,1.25-0.19,1.98-0.05c0.74,0.14,0.91,0.09,1.01,0s0.17-0.18,0.17,0.19
						C96.01,25.47,95.9,25.68,95.99,26.01z"/>
					<path fill="none" stroke="#1D2132" stroke-width="0.1" stroke-linecap="square" stroke-miterlimit="22.9256" d="M92.36,33.11
						c0,0-0.68-1.58-0.68-3.76s0.5-3.64,0.5-3.64"/>
				</g>
				<g>
					<path fill="#FFFFFF" stroke="#1D2132" stroke-width="0.1" stroke-linecap="square" stroke-miterlimit="22.9256" d="
						M93.64,26.93c0.09,0.22,0.08,0.84,0.11,2.22c0.03,1.38-0.06,1.94-0.09,2.2c-0.03,0.25-0.2,0.78-0.09,0.91
						c0.13,0.13-0.15,0.22-0.23,0.19c-0.09-0.04-0.5-0.08-1.21-0.01c-0.71,0.06-1.7-0.17-1.78-0.07s-0.15-0.07-0.12-0.19
						c0.03-0.13-0.06-0.36-0.08-0.62c-0.07-1.24-0.16-2.02-0.07-3.8c0.03-0.46,0.19-1.02,0.08-1.22c-0.12-0.19,0-0.23,0.15-0.17
						c0.16,0.07,0.22,0.16,0.79-0.01c0.56-0.16,1-0.13,1.6-0.03c0.59,0.1,0.73,0.07,0.82,0s0.14-0.14,0.14,0.13
						C93.65,26.53,93.56,26.69,93.64,26.93z"/>
					<path fill="none" stroke="#1D2132" stroke-width="0.1" stroke-linecap="square" stroke-miterlimit="22.9256" d="M90.71,32.09
						c0,0-0.56-1.15-0.56-2.74c0-1.58,0.4-2.64,0.4-2.64"/>
				</g>
				<g>
					<path fill="#FFFFFF" stroke="#1D2132" stroke-width="0.1" stroke-linecap="square" stroke-miterlimit="22.9256" d="
						M95.99,15.83c0.12,0.31,0.1,1.15,0.14,3.06c0.04,1.91-0.07,2.67-0.11,3.03c-0.04,0.35-0.26,1.07-0.12,1.25
						c0.15,0.18-0.19,0.31-0.29,0.26c-0.11-0.05-0.61-0.1-1.49-0.01c-0.89,0.09-2.1-0.22-2.2-0.09c-0.11,0.14-0.19-0.09-0.15-0.26
						c0.04-0.18-0.08-0.49-0.1-0.86c-0.09-1.71-0.19-2.79-0.08-5.23c0.03-0.63,0.24-1.41,0.1-1.68c-0.15-0.27,0-0.31,0.19-0.22
						c0.19,0.09,0.27,0.21,0.97-0.01c0.69-0.22,1.25-0.19,1.98-0.05c0.74,0.14,0.91,0.09,1.01,0s0.17-0.18,0.17,0.19
						C96.01,15.3,95.9,15.51,95.99,15.83z"/>
					<path fill="none" stroke="#1D2132" stroke-width="0.1" stroke-linecap="square" stroke-miterlimit="22.9256" d="M92.36,22.95
						c0,0-0.68-1.58-0.68-3.76s0.5-3.64,0.5-3.64"/>
				</g>
				<g>
					<path fill="#FFFFFF" stroke="#1D2132" stroke-width="0.1" stroke-linecap="square" stroke-miterlimit="22.9256" d="
						M93.64,16.76c0.09,0.22,0.08,0.84,0.11,2.22c0.03,1.38-0.06,1.94-0.09,2.2c-0.03,0.25-0.2,0.78-0.09,0.91
						c0.13,0.13-0.15,0.22-0.23,0.19c-0.09-0.04-0.5-0.08-1.21-0.01c-0.71,0.06-1.7-0.17-1.78-0.07c-0.09,0.1-0.15-0.07-0.12-0.19
						c0.03-0.13-0.06-0.36-0.08-0.62c-0.07-1.24-0.16-2.02-0.07-3.8c0.03-0.46,0.19-1.02,0.08-1.22c-0.12-0.19,0-0.23,0.15-0.17
						c0.16,0.07,0.22,0.16,0.79-0.01c0.56-0.16,1-0.13,1.6-0.03c0.59,0.1,0.73,0.07,0.82,0s0.14-0.14,0.14,0.13
						C93.65,16.36,93.56,16.51,93.64,16.76z"/>
					<path fill="none" stroke="#1D2132" stroke-width="0.1" stroke-linecap="square" stroke-miterlimit="22.9256" d="M90.71,21.91
						c0,0-0.56-1.15-0.56-2.74c0-1.58,0.4-2.64,0.4-2.64"/>
				</g>
				<path fill="#FFFFFF" stroke="#1D2132" stroke-width="0.1" stroke-linecap="square" stroke-miterlimit="22.9256" d="M71.19,35.93
					h7.18c0.33,0,0.6-0.26,0.6-0.6V12.92c0-0.33-0.26-0.6-0.6-0.6h-7.18c-0.33,0-0.6,0.26-0.6,0.6v22.41
					C70.58,35.66,70.86,35.94,71.19,35.93z"/>
			</g>
			<g>
				
					<rect x="96.64" y="8.72" fill="#FFFFFF" stroke="#1D2132" stroke-width="0.1" stroke-linecap="square" stroke-miterlimit="22.9256" width="0.64" height="30.97"/>
				<path fill="#FFFFFF" stroke="#1D2132" stroke-width="0.1" stroke-linecap="square" stroke-miterlimit="22.9256" d="M96.61,39.42
					h0.03V8.99H96.6c-0.25,0-0.46,0.2-0.46,0.46v29.51C96.15,39.21,96.35,39.42,96.61,39.42z"/>
				<g>
					<g>
						<g>
							<path fill="#FFFFFF" stroke="#1D2132" stroke-width="0.1" stroke-linecap="square" stroke-miterlimit="22.9256" d="
								M96.64,38.67h-0.16c-0.25,0-0.46-0.2-0.46-0.46v-0.07c0-0.25,0.2-0.46,0.46-0.46h0.16V38.67L96.64,38.67z"/>
							<path fill="#FFFFFF" stroke="#1D2132" stroke-width="0.1" stroke-linecap="square" stroke-miterlimit="22.9256" d="
								M91.9,34.58L91.9,34.58c-0.11-0.02-0.25,0.22-0.33,0.55c-0.08,0.32-0.06,0.6,0.05,0.63l0,0c0.41,0.08,0.83,0.1,1.24,0.06
								l0.18-0.73C92.67,34.86,92.29,34.69,91.9,34.58z"/>
							
								<ellipse transform="matrix(0.2315 -0.9728 0.9728 0.2315 36.9272 117.6651)" fill="#FFFFFF" stroke="#1D2132" stroke-width="0.1" stroke-linecap="square" stroke-miterlimit="22.9256" cx="92.94" cy="35.46" rx="0.38" ry="0.13"/>
							<path fill="#FFFFFF" stroke="#1D2132" stroke-width="0.1" stroke-linecap="square" stroke-miterlimit="22.9256" d="
								M93.05,35.41l0.08,0.03c0.02,0.01,0.47,0.19,0.8,0.85c0.06,0.12,0.11,0.24,0.17,0.38c0.17,0.39,0.33,0.79,0.67,1.05
								c0.45,0.35,1.19,0.35,1.2,0.35h0.08v0.17h-0.08c-0.04,0-0.81,0-1.31-0.39c-0.37-0.3-0.56-0.73-0.72-1.12
								c-0.06-0.13-0.11-0.25-0.17-0.37c-0.3-0.6-0.71-0.77-0.71-0.77l-0.08-0.03C92.97,35.5,93,35.4,93.05,35.41z"/>
						</g>
					</g>
					<g>
						<g>
							<path fill="#FFFFFF" stroke="#1D2132" stroke-width="0.1" stroke-linecap="square" stroke-miterlimit="22.9256" d="
								M96.64,9.75h-0.16c-0.25,0-0.46,0.2-0.46,0.46v0.07c0,0.25,0.2,0.46,0.46,0.46h0.16V9.75L96.64,9.75z"/>
							<path fill="#FFFFFF" stroke="#1D2132" stroke-width="0.1" stroke-linecap="square" stroke-miterlimit="22.9256" d="
								M91.9,13.83L91.9,13.83c-0.11,0.02-0.25-0.22-0.33-0.55c-0.08-0.32-0.06-0.6,0.05-0.63l0,0c0.41-0.08,0.83-0.1,1.24-0.06
								l0.18,0.73C92.67,13.56,92.29,13.73,91.9,13.83z"/>
							
								<ellipse transform="matrix(0.9728 -0.2315 0.2315 0.9728 -0.4752 21.8679)" fill="#FFFFFF" stroke="#1D2132" stroke-width="0.1" stroke-linecap="square" stroke-miterlimit="22.9256" cx="92.94" cy="12.96" rx="0.13" ry="0.38"/>
							<path fill="#FFFFFF" stroke="#1D2132" stroke-width="0.1" stroke-linecap="square" stroke-miterlimit="22.9256" d="
								M93.05,13.01l0.08-0.03c0.02-0.01,0.47-0.19,0.8-0.85c0.06-0.12,0.11-0.24,0.17-0.38c0.17-0.39,0.33-0.79,0.67-1.05
								c0.45-0.35,1.19-0.35,1.2-0.35h0.08v-0.17h-0.08c-0.04,0-0.81,0-1.31,0.39c-0.37,0.3-0.56,0.73-0.72,1.12
								c-0.06,0.13-0.11,0.25-0.17,0.37c-0.3,0.6-0.71,0.77-0.71,0.77l-0.08,0.03C92.97,12.92,93,13.01,93.05,13.01z"/>
						</g>
					</g>
				</g>
			</g>
		</g>
	</g>
	<g>
		<g>
			
				<rect x="69.2" y="5.04" fill="#FFFFFF" stroke="#1D2132" stroke-width="0.1" stroke-linecap="square" stroke-miterlimit="10" width="11.07" height="0.83"/>
			
				<line fill="none" stroke="#1D2132" stroke-width="0.1" stroke-linecap="square" stroke-miterlimit="10" x1="70.07" y1="5.71" x2="70.07" y2="5.2"/>
			
				<line fill="none" stroke="#1D2132" stroke-width="0.1" stroke-linecap="square" stroke-miterlimit="10" x1="70.37" y1="5.71" x2="70.37" y2="5.2"/>
			
				<line fill="none" stroke="#1D2132" stroke-width="0.1" stroke-linecap="square" stroke-miterlimit="10" x1="69.48" y1="5.71" x2="69.48" y2="5.2"/>
			
				<line fill="none" stroke="#1D2132" stroke-width="0.1" stroke-linecap="square" stroke-miterlimit="10" x1="69.78" y1="5.71" x2="69.78" y2="5.2"/>
			
				<line fill="none" stroke="#1D2132" stroke-width="0.1" stroke-linecap="square" stroke-miterlimit="10" x1="70.67" y1="5.71" x2="70.67" y2="5.2"/>
			
				<line fill="none" stroke="#1D2132" stroke-width="0.1" stroke-linecap="square" stroke-miterlimit="10" x1="70.96" y1="5.71" x2="70.96" y2="5.2"/>
			
				<line fill="none" stroke="#1D2132" stroke-width="0.1" stroke-linecap="square" stroke-miterlimit="10" x1="71.26" y1="5.71" x2="71.26" y2="5.2"/>
			
				<line fill="none" stroke="#1D2132" stroke-width="0.1" stroke-linecap="square" stroke-miterlimit="10" x1="71.57" y1="5.71" x2="71.57" y2="5.2"/>
			
				<line fill="none" stroke="#1D2132" stroke-width="0.1" stroke-linecap="square" stroke-miterlimit="10" x1="71.87" y1="5.71" x2="71.87" y2="5.2"/>
			
				<line fill="none" stroke="#1D2132" stroke-width="0.1" stroke-linecap="square" stroke-miterlimit="10" x1="72.16" y1="5.71" x2="72.16" y2="5.2"/>
			
				<line fill="none" stroke="#1D2132" stroke-width="0.1" stroke-linecap="square" stroke-miterlimit="10" x1="73.06" y1="5.71" x2="73.06" y2="5.2"/>
			
				<line fill="none" stroke="#1D2132" stroke-width="0.1" stroke-linecap="square" stroke-miterlimit="10" x1="73.36" y1="5.71" x2="73.36" y2="5.2"/>
			
				<line fill="none" stroke="#1D2132" stroke-width="0.1" stroke-linecap="square" stroke-miterlimit="10" x1="72.46" y1="5.71" x2="72.46" y2="5.2"/>
			
				<line fill="none" stroke="#1D2132" stroke-width="0.1" stroke-linecap="square" stroke-miterlimit="10" x1="72.76" y1="5.71" x2="72.76" y2="5.2"/>
			
				<line fill="none" stroke="#1D2132" stroke-width="0.1" stroke-linecap="square" stroke-miterlimit="10" x1="73.66" y1="5.71" x2="73.66" y2="5.2"/>
			
				<line fill="none" stroke="#1D2132" stroke-width="0.1" stroke-linecap="square" stroke-miterlimit="10" x1="73.96" y1="5.71" x2="73.96" y2="5.2"/>
			
				<line fill="none" stroke="#1D2132" stroke-width="0.1" stroke-linecap="square" stroke-miterlimit="10" x1="74.25" y1="5.71" x2="74.25" y2="5.2"/>
			
				<line fill="none" stroke="#1D2132" stroke-width="0.1" stroke-linecap="square" stroke-miterlimit="10" x1="74.55" y1="5.71" x2="74.55" y2="5.2"/>
			
				<line fill="none" stroke="#1D2132" stroke-width="0.1" stroke-linecap="square" stroke-miterlimit="10" x1="74.85" y1="5.71" x2="74.85" y2="5.2"/>
			
				<line fill="none" stroke="#1D2132" stroke-width="0.1" stroke-linecap="square" stroke-miterlimit="10" x1="75.15" y1="5.71" x2="75.15" y2="5.2"/>
			
				<line fill="none" stroke="#1D2132" stroke-width="0.1" stroke-linecap="square" stroke-miterlimit="10" x1="76.05" y1="5.71" x2="76.05" y2="5.2"/>
			
				<line fill="none" stroke="#1D2132" stroke-width="0.1" stroke-linecap="square" stroke-miterlimit="10" x1="76.35" y1="5.71" x2="76.35" y2="5.2"/>
			
				<line fill="none" stroke="#1D2132" stroke-width="0.1" stroke-linecap="square" stroke-miterlimit="10" x1="75.45" y1="5.71" x2="75.45" y2="5.2"/>
			
				<line fill="none" stroke="#1D2132" stroke-width="0.1" stroke-linecap="square" stroke-miterlimit="10" x1="75.75" y1="5.71" x2="75.75" y2="5.2"/>
			
				<line fill="none" stroke="#1D2132" stroke-width="0.1" stroke-linecap="square" stroke-miterlimit="10" x1="76.64" y1="5.71" x2="76.64" y2="5.2"/>
			
				<line fill="none" stroke="#1D2132" stroke-width="0.1" stroke-linecap="square" stroke-miterlimit="10" x1="76.94" y1="5.71" x2="76.94" y2="5.2"/>
			
				<line fill="none" stroke="#1D2132" stroke-width="0.1" stroke-linecap="square" stroke-miterlimit="10" x1="77.25" y1="5.71" x2="77.25" y2="5.2"/>
			
				<line fill="none" stroke="#1D2132" stroke-width="0.1" stroke-linecap="square" stroke-miterlimit="10" x1="77.54" y1="5.71" x2="77.54" y2="5.2"/>
			
				<line fill="none" stroke="#1D2132" stroke-width="0.1" stroke-linecap="square" stroke-miterlimit="10" x1="77.84" y1="5.71" x2="77.84" y2="5.2"/>
			
				<line fill="none" stroke="#1D2132" stroke-width="0.1" stroke-linecap="square" stroke-miterlimit="10" x1="78.14" y1="5.71" x2="78.14" y2="5.2"/>
			
				<line fill="none" stroke="#1D2132" stroke-width="0.1" stroke-linecap="square" stroke-miterlimit="10" x1="79.04" y1="5.71" x2="79.04" y2="5.2"/>
			
				<line fill="none" stroke="#1D2132" stroke-width="0.1" stroke-linecap="square" stroke-miterlimit="10" x1="79.34" y1="5.71" x2="79.34" y2="5.2"/>
			
				<line fill="none" stroke="#1D2132" stroke-width="0.1" stroke-linecap="square" stroke-miterlimit="10" x1="78.44" y1="5.71" x2="78.44" y2="5.2"/>
			
				<line fill="none" stroke="#1D2132" stroke-width="0.1" stroke-linecap="square" stroke-miterlimit="10" x1="78.73" y1="5.71" x2="78.73" y2="5.2"/>
			
				<line fill="none" stroke="#1D2132" stroke-width="0.1" stroke-linecap="square" stroke-miterlimit="10" x1="79.64" y1="5.71" x2="79.64" y2="5.2"/>
			
				<line fill="none" stroke="#1D2132" stroke-width="0.1" stroke-linecap="square" stroke-miterlimit="10" x1="79.93" y1="5.71" x2="79.93" y2="5.2"/>
		</g>
		<path fill="none" stroke="#1D2132" stroke-width="0.1" stroke-linecap="square" stroke-miterlimit="10" d="M73.48,6.8
			c-0.43,0,0-0.77-0.43-0.77s0,0.77-0.43,0.77s0-0.77-0.43-0.77s0,0.77-0.43,0.77s0-0.77-0.43-0.77s0,0.77-0.43,0.77
			s0-0.77-0.43-0.77s0,0.77-0.43,0.77c-0.43,0,0-0.77-0.43-0.77c-0.43,0,0,0.77-0.43,0.77s0-0.77-0.43-0.77s0,0.77-0.43,0.77
			s0-0.77-0.43-0.77s0,0.77-0.43,0.77s0-0.77-0.43-0.77s0,0.77-0.43,0.77s0-0.77-0.43-0.77s0,0.77-0.43,0.77s0-0.77-0.43-0.77
			c-0.43,0,0,0.77-0.43,0.77c-0.43,0,0-0.77-0.43-0.77s0,0.77-0.43,0.77s0-0.77-0.43-0.77s0,0.77-0.43,0.77s0-0.77-0.43-0.77
			s0,0.77-0.43,0.77s0-0.77-0.43-0.77c-0.43,0,0,0.77-0.43,0.77c-0.43,0,0-0.77-0.43-0.77s0,0.77-0.43,0.77s0-0.77-0.43-0.77
			s0,0.77-0.43,0.77c-0.43,0,0-0.77-0.43-0.77"/>
		<path fill="none" stroke="#1D2132" stroke-width="0.1" stroke-linecap="square" stroke-miterlimit="10" d="M76.08,6.8
			c0.43,0,0-0.77,0.43-0.77s0,0.77,0.43,0.77c0.43,0,0-0.77,0.43-0.77c0.43,0,0,0.77,0.43,0.77s0-0.77,0.43-0.77s0,0.77,0.43,0.77
			s0-0.77,0.43-0.77s0,0.77,0.43,0.77s0-0.77,0.43-0.77s0,0.77,0.43,0.77s0-0.77,0.43-0.77s0,0.77,0.43,0.77s0-0.77,0.43-0.77
			c0.43,0,0,0.77,0.43,0.77c0.43,0,0-0.77,0.43-0.77s0,0.77,0.43,0.77s0-0.77,0.43-0.77s0,0.77,0.43,0.77s0-0.77,0.43-0.77
			s0,0.77,0.43,0.77s0-0.77,0.43-0.77s0,0.77,0.43,0.77s0-0.77,0.43-0.77c0.43,0,0,0.77,0.43,0.77c0.43,0,0-0.77,0.43-0.77
			s0,0.77,0.43,0.77s0-0.77,0.43-0.77s0,0.77,0.43,0.77s0-0.77,0.43-0.77s0,0.77,0.43,0.77s0-0.77,0.43-0.77s0,0.77,0.43,0.77
			s0-0.77,0.43-0.77"/>
	</g>
	<g>
		<g>
			
				<rect x="24.42" y="5.03" fill="#FFFFFF" stroke="#1D2132" stroke-width="0.1" stroke-linecap="square" stroke-miterlimit="10" width="11.07" height="0.83"/>
			
				<line fill="none" stroke="#1D2132" stroke-width="0.1" stroke-linecap="square" stroke-miterlimit="10" x1="25.3" y1="5.7" x2="25.3" y2="5.2"/>
			
				<line fill="none" stroke="#1D2132" stroke-width="0.1" stroke-linecap="square" stroke-miterlimit="10" x1="25.59" y1="5.7" x2="25.59" y2="5.2"/>
			
				<line fill="none" stroke="#1D2132" stroke-width="0.1" stroke-linecap="square" stroke-miterlimit="10" x1="24.69" y1="5.7" x2="24.69" y2="5.2"/>
			
				<line fill="none" stroke="#1D2132" stroke-width="0.1" stroke-linecap="square" stroke-miterlimit="10" x1="24.99" y1="5.7" x2="24.99" y2="5.2"/>
			
				<line fill="none" stroke="#1D2132" stroke-width="0.1" stroke-linecap="square" stroke-miterlimit="10" x1="25.89" y1="5.7" x2="25.89" y2="5.2"/>
			
				<line fill="none" stroke="#1D2132" stroke-width="0.1" stroke-linecap="square" stroke-miterlimit="10" x1="26.19" y1="5.7" x2="26.19" y2="5.2"/>
			
				<line fill="none" stroke="#1D2132" stroke-width="0.1" stroke-linecap="square" stroke-miterlimit="10" x1="26.48" y1="5.7" x2="26.48" y2="5.2"/>
			
				<line fill="none" stroke="#1D2132" stroke-width="0.1" stroke-linecap="square" stroke-miterlimit="10" x1="26.78" y1="5.7" x2="26.78" y2="5.2"/>
			
				<line fill="none" stroke="#1D2132" stroke-width="0.1" stroke-linecap="square" stroke-miterlimit="10" x1="27.08" y1="5.7" x2="27.08" y2="5.2"/>
			
				<line fill="none" stroke="#1D2132" stroke-width="0.1" stroke-linecap="square" stroke-miterlimit="10" x1="27.39" y1="5.7" x2="27.39" y2="5.2"/>
			
				<line fill="none" stroke="#1D2132" stroke-width="0.1" stroke-linecap="square" stroke-miterlimit="10" x1="28.28" y1="5.7" x2="28.28" y2="5.2"/>
			
				<line fill="none" stroke="#1D2132" stroke-width="0.1" stroke-linecap="square" stroke-miterlimit="10" x1="28.58" y1="5.7" x2="28.58" y2="5.2"/>
			
				<line fill="none" stroke="#1D2132" stroke-width="0.1" stroke-linecap="square" stroke-miterlimit="10" x1="27.68" y1="5.7" x2="27.68" y2="5.2"/>
			
				<line fill="none" stroke="#1D2132" stroke-width="0.1" stroke-linecap="square" stroke-miterlimit="10" x1="27.98" y1="5.7" x2="27.98" y2="5.2"/>
			
				<line fill="none" stroke="#1D2132" stroke-width="0.1" stroke-linecap="square" stroke-miterlimit="10" x1="28.87" y1="5.7" x2="28.87" y2="5.2"/>
			
				<line fill="none" stroke="#1D2132" stroke-width="0.1" stroke-linecap="square" stroke-miterlimit="10" x1="29.18" y1="5.7" x2="29.18" y2="5.2"/>
			
				<line fill="none" stroke="#1D2132" stroke-width="0.1" stroke-linecap="square" stroke-miterlimit="10" x1="29.48" y1="5.7" x2="29.48" y2="5.2"/>
			
				<line fill="none" stroke="#1D2132" stroke-width="0.1" stroke-linecap="square" stroke-miterlimit="10" x1="29.77" y1="5.7" x2="29.77" y2="5.2"/>
			
				<line fill="none" stroke="#1D2132" stroke-width="0.1" stroke-linecap="square" stroke-miterlimit="10" x1="30.07" y1="5.7" x2="30.07" y2="5.2"/>
			
				<line fill="none" stroke="#1D2132" stroke-width="0.1" stroke-linecap="square" stroke-miterlimit="10" x1="30.37" y1="5.7" x2="30.37" y2="5.2"/>
			
				<line fill="none" stroke="#1D2132" stroke-width="0.1" stroke-linecap="square" stroke-miterlimit="10" x1="31.27" y1="5.7" x2="31.27" y2="5.2"/>
			
				<line fill="none" stroke="#1D2132" stroke-width="0.1" stroke-linecap="square" stroke-miterlimit="10" x1="31.57" y1="5.7" x2="31.57" y2="5.2"/>
			
				<line fill="none" stroke="#1D2132" stroke-width="0.1" stroke-linecap="square" stroke-miterlimit="10" x1="30.67" y1="5.7" x2="30.67" y2="5.2"/>
			
				<line fill="none" stroke="#1D2132" stroke-width="0.1" stroke-linecap="square" stroke-miterlimit="10" x1="30.96" y1="5.7" x2="30.96" y2="5.2"/>
			
				<line fill="none" stroke="#1D2132" stroke-width="0.1" stroke-linecap="square" stroke-miterlimit="10" x1="31.87" y1="5.7" x2="31.87" y2="5.2"/>
			
				<line fill="none" stroke="#1D2132" stroke-width="0.1" stroke-linecap="square" stroke-miterlimit="10" x1="32.16" y1="5.7" x2="32.16" y2="5.2"/>
			
				<line fill="none" stroke="#1D2132" stroke-width="0.1" stroke-linecap="square" stroke-miterlimit="10" x1="32.46" y1="5.7" x2="32.46" y2="5.2"/>
			
				<line fill="none" stroke="#1D2132" stroke-width="0.1" stroke-linecap="square" stroke-miterlimit="10" x1="32.76" y1="5.7" x2="32.76" y2="5.2"/>
			
				<line fill="none" stroke="#1D2132" stroke-width="0.1" stroke-linecap="square" stroke-miterlimit="10" x1="33.07" y1="5.7" x2="33.07" y2="5.2"/>
			
				<line fill="none" stroke="#1D2132" stroke-width="0.1" stroke-linecap="square" stroke-miterlimit="10" x1="33.36" y1="5.7" x2="33.36" y2="5.2"/>
			
				<line fill="none" stroke="#1D2132" stroke-width="0.1" stroke-linecap="square" stroke-miterlimit="10" x1="34.25" y1="5.7" x2="34.25" y2="5.2"/>
			
				<line fill="none" stroke="#1D2132" stroke-width="0.1" stroke-linecap="square" stroke-miterlimit="10" x1="34.55" y1="5.7" x2="34.55" y2="5.2"/>
			
				<line fill="none" stroke="#1D2132" stroke-width="0.1" stroke-linecap="square" stroke-miterlimit="10" x1="33.66" y1="5.7" x2="33.66" y2="5.2"/>
			
				<line fill="none" stroke="#1D2132" stroke-width="0.1" stroke-linecap="square" stroke-miterlimit="10" x1="33.96" y1="5.7" x2="33.96" y2="5.2"/>
			
				<line fill="none" stroke="#1D2132" stroke-width="0.1" stroke-linecap="square" stroke-miterlimit="10" x1="34.86" y1="5.7" x2="34.86" y2="5.2"/>
			
				<line fill="none" stroke="#1D2132" stroke-width="0.1" stroke-linecap="square" stroke-miterlimit="10" x1="35.16" y1="5.7" x2="35.16" y2="5.2"/>
		</g>
		<path fill="none" stroke="#1D2132" stroke-width="0.1" stroke-linecap="square" stroke-miterlimit="10" d="M28.69,6.8
			c-0.43,0,0-0.77-0.43-0.77c-0.43,0,0,0.77-0.43,0.77c-0.43,0,0-0.77-0.43-0.77s0,0.77-0.43,0.77c-0.43,0,0-0.77-0.43-0.77
			c-0.43,0,0,0.77-0.43,0.77s0-0.77-0.43-0.77c-0.43,0,0,0.77-0.43,0.77c-0.43,0,0-0.77-0.43-0.77c-0.43,0,0,0.77-0.43,0.77
			c-0.43,0,0-0.77-0.43-0.77s0,0.77-0.43,0.77c-0.43,0,0-0.77-0.43-0.77c-0.43,0,0,0.77-0.43,0.77s0-0.77-0.43-0.77
			c-0.43,0,0,0.77-0.43,0.77c-0.43,0,0-0.77-0.43-0.77c-0.43,0,0,0.77-0.43,0.77c-0.43,0,0-0.77-0.43-0.77s0,0.77-0.43,0.77
			c-0.43,0,0-0.77-0.43-0.77c-0.43,0,0,0.77-0.43,0.77s0-0.77-0.43-0.77c-0.43,0,0,0.77-0.43,0.77c-0.43,0,0-0.77-0.43-0.77
			c-0.43,0,0,0.77-0.43,0.77c-0.43,0,0-0.77-0.43-0.77s0,0.77-0.43,0.77c-0.43,0,0-0.77-0.43-0.77c-0.43,0,0,0.77-0.43,0.77
			c-0.43,0,0-0.77-0.43-0.77s0,0.77-0.43,0.77c-0.43,0,0-0.77-0.43-0.77"/>
		<path fill="none" stroke="#1D2132" stroke-width="0.1" stroke-linecap="square" stroke-miterlimit="10" d="M31.31,6.8
			c0.43,0,0-0.77,0.43-0.77c0.43,0,0,0.77,0.43,0.77c0.43,0,0-0.77,0.43-0.77s0,0.77,0.43,0.77c0.43,0,0-0.77,0.43-0.77
			s0,0.77,0.43,0.77c0.43,0,0-0.77,0.43-0.77s0,0.77,0.43,0.77s0-0.77,0.43-0.77s0,0.77,0.43,0.77s0-0.77,0.43-0.77
			c0.43,0,0,0.77,0.43,0.77c0.43,0,0-0.77,0.43-0.77s0,0.77,0.43,0.77s0-0.77,0.43-0.77s0,0.77,0.43,0.77c0.43,0,0-0.77,0.43-0.77
			c0.43,0,0,0.77,0.43,0.77s0-0.77,0.43-0.77s0,0.77,0.43,0.77s0-0.77,0.43-0.77c0.43,0,0,0.77,0.43,0.77c0.43,0,0-0.77,0.43-0.77
			s0,0.77,0.43,0.77s0-0.77,0.43-0.77s0,0.77,0.43,0.77s0-0.77,0.43-0.77c0.43,0,0,0.77,0.43,0.77c0.43,0,0-0.77,0.43-0.77
			s0,0.77,0.43,0.77s0-0.77,0.43-0.77s0,0.77,0.43,0.77c0.43,0,0-0.77,0.43-0.77"/>
	</g>
	<g>
		<g>
			<path fill="none" stroke="#1D2132" stroke-width="0.1" stroke-linejoin="bevel" stroke-dasharray="0.4946,0.4946" d="
				M23.62,11.09h23.59c0.74,0,1.35,0.6,1.35,1.35v16.68c0,0.74-0.6,1.35-1.35,1.35h-23.6c-0.74,0-1.35-0.6-1.35-1.35V12.43
				C22.27,11.69,22.87,11.09,23.62,11.09z"/>
		</g>
		<g>
			<path fill="#FFFFFF" stroke="#1D2132" stroke-width="0.1" stroke-linejoin="bevel" stroke-miterlimit="22.9256" d="M40.45,10.46
				V9.6c0-0.35,0.28-0.63,0.63-0.63h8.98V32.6h-8.98c-0.35,0-0.63-0.28-0.63-0.63V31.1c0-0.35,0.28-0.63,0.63-0.63h6.35
				c0.35,0,0.63-0.28,0.63-0.63V11.72c0-0.35-0.28-0.63-0.63-0.63h-6.35C40.73,11.09,40.45,10.81,40.45,10.46z"/>
			<path fill="none" stroke="#1D2132" stroke-width="0.1" stroke-linejoin="bevel" stroke-miterlimit="22.9256" d="M50.06,32.59
				c0,0-1-0.48-1.54-1.37c-0.54-0.87-0.45-1.39-0.45-1.39"/>
			<path fill="none" stroke="#1D2132" stroke-width="0.1" stroke-linejoin="bevel" stroke-miterlimit="22.9256" d="M48.06,32.59
				c0,0-0.53-0.27-0.64-1.07c-0.1-0.79,0.13-1.07,0.13-1.07"/>
			<path fill="none" stroke="#1D2132" stroke-width="0.1" stroke-linejoin="bevel" stroke-miterlimit="22.9256" d="M50.06,8.97
				c0,0-1.01,0.48-1.54,1.37c-0.54,0.87-0.45,1.39-0.45,1.39"/>
			<path fill="none" stroke="#1D2132" stroke-width="0.1" stroke-linejoin="bevel" stroke-miterlimit="22.9256" d="M48.06,8.97
				c0,0-0.53,0.26-0.64,1.06c-0.1,0.79,0.13,1.07,0.13,1.07"/>
			<path fill="#FFFFFF" stroke="#1D2132" stroke-width="0.1" stroke-linejoin="bevel" stroke-miterlimit="22.9256" d="M46.92,20.78
				h-6.01c-0.63,0-1.15,0.51-1.15,1.15v7.4c0,0.63,0.51,1.15,1.15,1.15h6.01c0.63,0,1.15-0.51,1.15-1.15v-7.4
				C48.07,21.29,47.56,20.78,46.92,20.78z"/>
			<path fill="#FFFFFF" stroke="#1D2132" stroke-width="0.1" stroke-linejoin="bevel" stroke-miterlimit="22.9256" d="M46.92,11.09
				h-6.01c-0.63,0-1.15,0.51-1.15,1.15v7.4c0,0.63,0.51,1.15,1.15,1.15h6.01c0.63,0,1.15-0.51,1.15-1.15v-7.4
				C48.07,11.6,47.56,11.09,46.92,11.09z"/>
			<path fill="#FFFFFF" stroke="#1D2132" stroke-width="0.1" stroke-linejoin="bevel" stroke-miterlimit="22.9256" d="M47.76,20.77
				h-0.43c-0.44,0-0.8,0.36-0.8,0.8v8.09c0,0.44,0.36,0.8,0.8,0.8h0.43c0.44,0,0.8-0.36,0.8-0.8v-8.09
				C48.56,21.13,48.21,20.78,47.76,20.77z"/>
			<path fill="#FFFFFF" stroke="#1D2132" stroke-width="0.1" stroke-linejoin="bevel" stroke-miterlimit="22.9256" d="M47.76,11.08
				h-0.43c-0.44,0-0.8,0.36-0.8,0.8v8.09c0,0.44,0.36,0.8,0.8,0.8h0.43c0.44,0,0.8-0.36,0.8-0.8v-8.09
				C48.56,11.44,48.21,11.09,47.76,11.08z"/>
		</g>
		<g>
			<path fill="#FFFFFF" stroke="#1D2132" stroke-width="0.1" stroke-linejoin="bevel" stroke-miterlimit="22.9256" d="M43.14,15.72
				c-0.03-0.66-0.16-1.32-0.34-2.5c-0.18-1.19,0.19-1.34,0.12-1.51c-0.07-0.17,0.09-0.2,0.23-0.22c0.14-0.03,0.14-0.21,1.14-0.33
				s1.31,0.07,1.46-0.04c0.15-0.12,0.15,0.07,0.27,0.38c0.11,0.31,0.32,1.05,0.54,2.77c0.21,1.73-0.07,2.47-0.11,2.69
				c-0.04,0.22-0.25,0.1-0.85,0.31c-0.6,0.22-1.08,0.08-1.28-0.01c-0.2-0.09-0.56,0-0.67-0.23C43.65,17.04,43.17,16.38,43.14,15.72z
				"/>
			<path fill="#FFFFFF" stroke="#1D2132" stroke-width="0.1" stroke-linejoin="bevel" stroke-miterlimit="22.9256" d="M43.07,11.49
				c0,0,0.15,0.06,0.69-0.08c0.54-0.14,1.81-0.09,1.99,0.03s0.18,1.19,0.25,2.39c0.07,1.21,0.32,1.93,0.36,2.47
				c0.04,0.54-0.26,0.56-0.71,0.72c-0.44,0.16-1.05,0.13-1.29,0.08s-0.58,0.06-0.58,0.06"/>
		</g>
		<g>
			<path fill="#FFFFFF" stroke="#1D2132" stroke-width="0.1" stroke-linejoin="bevel" stroke-miterlimit="22.9256" d="M42.96,27.27
				c0.05-0.72,0.01-1.44-0.01-2.73c-0.02-1.3,0.37-1.41,0.32-1.6s0.11-0.2,0.25-0.2c0.14,0,0.16-0.19,1.17-0.18
				c1.01,0.02,1.3,0.27,1.46,0.17s0.14,0.1,0.22,0.45c0.07,0.36,0.18,1.17,0.17,3.06c-0.01,1.89-0.39,2.64-0.46,2.87
				c-0.06,0.23-0.25,0.07-0.88,0.21c-0.62,0.14-1.08-0.08-1.27-0.2c-0.19-0.12-0.56-0.08-0.64-0.34
				C43.28,28.78,42.89,28,42.96,27.27z"/>
			<path fill="#FFFFFF" stroke="#1D2132" stroke-width="0.1" stroke-linejoin="bevel" stroke-miterlimit="22.9256" d="M43.44,22.76
				c0,0,0.14,0.1,0.7,0.02c0.56-0.07,1.8,0.16,1.97,0.32c0.16,0.16,0.02,1.3-0.07,2.6c-0.09,1.3,0.07,2.11,0.03,2.69
				c-0.03,0.58-0.34,0.55-0.8,0.66s-1.05-0.01-1.29-0.1c-0.23-0.09-0.58-0.02-0.58-0.02"/>
		</g>
	</g>
	<g>
		<g>
			
				<rect x="51.23" y="5.1" fill="#FFFFFF" stroke="#1D2132" stroke-width="0.1" stroke-linejoin="bevel" stroke-miterlimit="22.9256" width="6.34" height="38.22"/>
			
				<rect x="51.23" y="17.67" fill="#FFFFFF" stroke="#1D2132" stroke-width="0.1" stroke-linejoin="bevel" stroke-miterlimit="22.9256" width="6.34" height="13.07"/>
		</g>
		<g>
			<path fill="#FFFFFF" stroke="#1D2132" stroke-width="0.1" stroke-linecap="square" stroke-miterlimit="10" d="M53.67,37.16H53.3
				c-0.03,0.01-0.07,0.07-0.1,0.12c-0.11,0.16-0.28,0.41-0.65,0.47c-0.27,0.04-0.52-0.05-0.67-0.26c-0.16-0.21-0.18-0.51-0.05-0.76
				c0.2-0.39,0.61-0.44,0.8-0.41c0.07,0.01,0.11,0.07,0.1,0.13c-0.01,0.07-0.07,0.11-0.13,0.1c-0.01,0-0.38-0.05-0.56,0.29
				c-0.09,0.17-0.08,0.37,0.03,0.52c0.1,0.14,0.26,0.2,0.44,0.17c0.27-0.05,0.4-0.23,0.5-0.38c0.08-0.11,0.15-0.22,0.28-0.22h0.38
				c0.07,0,0.12,0.06,0.12,0.12S53.74,37.16,53.67,37.16z M53.29,37.16L53.29,37.16L53.29,37.16z"/>
			<path fill="#FFFFFF" stroke="#1D2132" stroke-width="0.1" stroke-linecap="square" stroke-miterlimit="10" d="M56.11,41.64
				c-0.28,0.07-0.56-0.05-0.7-0.31c0-0.01-0.01-0.01-0.01-0.02l-1.7-3.58c-0.01-0.03-0.02-0.06-0.02-0.09v-1.21
				c0-0.03,0.01-0.06,0.02-0.09l1.7-3.58c0-0.01,0.01-0.01,0.01-0.02c0.13-0.25,0.42-0.38,0.7-0.31c0.28,0.07,0.21,0.4,0.21,0.69
				v7.83C56.32,41.25,56.4,41.57,56.11,41.64z M54.73,36.47v1.12l1.09,3.79c0.06,0.1,0.15,0.09,0.18,0.08
				c0.03-0.01,0.12-0.04,0.12-0.16v-8.51c0-0.12-0.09-0.15-0.12-0.16c-0.03,0-0.12-0.02-0.18,0.08L54.73,36.47z"/>
		</g>
		<g>
			<path fill="#FFFFFF" stroke="#1D2132" stroke-width="0.1" stroke-linecap="square" stroke-miterlimit="10" d="M53.67,11.83H53.3
				c-0.03,0.01-0.07,0.07-0.1,0.12c-0.11,0.16-0.28,0.41-0.65,0.47c-0.27,0.04-0.52-0.05-0.67-0.26c-0.16-0.21-0.18-0.51-0.05-0.76
				c0.2-0.39,0.61-0.44,0.8-0.41c0.07,0.01,0.11,0.07,0.1,0.13c-0.01,0.07-0.07,0.11-0.13,0.1c-0.01,0-0.38-0.05-0.56,0.29
				c-0.09,0.17-0.08,0.37,0.03,0.52c0.1,0.14,0.26,0.2,0.44,0.17c0.27-0.05,0.4-0.23,0.5-0.38c0.08-0.11,0.15-0.22,0.28-0.22h0.38
				c0.07,0,0.12,0.06,0.12,0.12S53.74,11.83,53.67,11.83z M53.29,11.83L53.29,11.83L53.29,11.83z"/>
			<path fill="#FFFFFF" stroke="#1D2132" stroke-width="0.1" stroke-linecap="square" stroke-miterlimit="10" d="M56.11,16.31
				c-0.28,0.07-0.56-0.05-0.7-0.31c0-0.01-0.01-0.01-0.01-0.02l-1.7-3.58c-0.01-0.03-0.02-0.06-0.02-0.09v-1.21
				c0-0.03,0.01-0.06,0.02-0.09l1.7-3.58c0-0.01,0.01-0.01,0.01-0.02c0.13-0.25,0.42-0.38,0.7-0.31c0.28,0.07,0.21,0.4,0.21,0.69
				v7.83C56.32,15.92,56.4,16.24,56.11,16.31z M54.73,11.14v1.12l1.09,3.79c0.06,0.1,0.15,0.09,0.18,0.08
				c0.03-0.01,0.12-0.04,0.12-0.16V7.45c0-0.12-0.09-0.15-0.12-0.16c-0.03,0-0.12-0.02-0.18,0.08L54.73,11.14z"/>
		</g>
		<g>
			<path fill="#FFFFFF" stroke="#1D2132" stroke-width="0.1" stroke-linecap="square" stroke-miterlimit="10" d="M53.02,23.37v2.02
				c0,0.5,0.41,0.91,0.91,0.91h0.26c0.5,0,0.91-0.41,0.91-0.91v-2.02c0-0.5-0.41-0.91-0.91-0.91h-0.26
				C53.43,22.46,53.02,22.86,53.02,23.37z"/>
			<path fill="#FFFFFF" stroke="#1D2132" stroke-width="0.1" stroke-linecap="square" stroke-miterlimit="10" d="M53.86,23.56v1.64
				c0,0.22,0.17,0.39,0.39,0.39h0.08c0.22,0,0.39-0.17,0.39-0.39v-1.64c0-0.22-0.17-0.39-0.39-0.39h-0.08
				C54.03,23.17,53.86,23.34,53.86,23.56z"/>
			
				<rect x="54.54" y="17.58" fill="#FFFFFF" stroke="#1D2132" stroke-width="0.1" stroke-linecap="square" stroke-miterlimit="10" width="0.18" height="13.58"/>
			<polygon fill="#FFFFFF" stroke="#1D2132" stroke-width="0.1" stroke-linecap="square" stroke-miterlimit="10" points="
				54.2,29.21 54.55,31.17 54.55,17.58 54.2,19.55 			"/>
		</g>
	</g>
	<g>
		
			<rect x="43.25" y="60.72" fill="#FFFFFF" stroke="#1D2132" stroke-width="0.1" stroke-linecap="square" stroke-miterlimit="10" width="7.95" height="17.72"/>
		<g>
			<path fill="#FFFFFF" stroke="#1D2132" stroke-width="0.1" stroke-linecap="square" stroke-miterlimit="10" d="M46.27,69.47H45.9
				c-0.03,0.01-0.07,0.07-0.1,0.12c-0.11,0.16-0.28,0.41-0.63,0.47c-0.26,0.05-0.5-0.05-0.65-0.25c-0.16-0.22-0.18-0.51-0.05-0.75
				c0.2-0.39,0.59-0.44,0.78-0.41c0.07,0.01,0.11,0.07,0.1,0.13c-0.01,0.07-0.07,0.11-0.13,0.1c0,0-0.37-0.05-0.54,0.29
				c-0.09,0.17-0.08,0.37,0.03,0.51c0.1,0.13,0.26,0.19,0.44,0.16c0.26-0.04,0.39-0.22,0.48-0.37c0.08-0.11,0.15-0.22,0.28-0.22
				h0.38c0.06,0,0.11,0.05,0.11,0.11C46.39,69.42,46.34,69.47,46.27,69.47z M45.9,69.47L45.9,69.47L45.9,69.47z"/>
			<path fill="#FFFFFF" stroke="#1D2132" stroke-width="0.1" stroke-linecap="square" stroke-miterlimit="10" d="M48.65,73.85
				c-0.28,0.07-0.55-0.05-0.69-0.31c0-0.01-0.01-0.01-0.01-0.02l-1.65-3.49c-0.01-0.03-0.02-0.06-0.02-0.09v-1.18
				c0-0.03,0.01-0.06,0.02-0.09l1.65-3.49c0-0.01,0.01-0.01,0.01-0.02c0.14-0.26,0.42-0.38,0.69-0.31c0.28,0.07,0.21,0.39,0.21,0.67
				v7.64C48.86,73.46,48.94,73.77,48.65,73.85z M47.32,68.81v1.09l1.06,3.69c0.06,0.09,0.15,0.08,0.18,0.07
				c0.03-0.01,0.12-0.04,0.12-0.16v-8.3c0-0.12-0.09-0.15-0.12-0.16c-0.03-0.01-0.12-0.03-0.18,0.07L47.32,68.81z"/>
		</g>
	</g>
	<g>
		
			<rect x="89.35" y="79.72" fill="#FFFFFF" stroke="#1D2132" stroke-width="0.1" stroke-linecap="square" stroke-miterlimit="10" width="7.95" height="18.49"/>
		<g>
			<path fill="#FFFFFF" stroke="#1D2132" stroke-width="0.1" stroke-linecap="square" stroke-miterlimit="10" d="M94.28,89.12h0.37
				c0.03-0.01,0.07-0.07,0.1-0.12c0.11-0.16,0.28-0.41,0.63-0.47c0.26-0.05,0.5,0.05,0.65,0.25c0.16,0.22,0.18,0.51,0.05,0.75
				c-0.2,0.39-0.59,0.44-0.78,0.41c-0.07-0.01-0.11-0.07-0.1-0.13c0.01-0.07,0.07-0.11,0.13-0.1c0,0,0.37,0.05,0.54-0.29
				c0.09-0.17,0.08-0.37-0.03-0.51c-0.1-0.13-0.26-0.19-0.44-0.16c-0.26,0.04-0.39,0.22-0.49,0.37c-0.08,0.11-0.15,0.22-0.28,0.22
				h-0.38c-0.06,0-0.11-0.05-0.11-0.11C94.16,89.17,94.21,89.12,94.28,89.12z M94.64,89.12L94.64,89.12L94.64,89.12z"/>
			<path fill="#FFFFFF" stroke="#1D2132" stroke-width="0.1" stroke-linecap="square" stroke-miterlimit="10" d="M91.89,84.74
				c0.28-0.07,0.55,0.05,0.69,0.31c0,0.01,0.01,0.01,0.01,0.02l1.65,3.49c0.01,0.03,0.02,0.06,0.02,0.09v1.18
				c0,0.03-0.01,0.06-0.02,0.09l-1.65,3.49c0,0.01-0.01,0.01-0.01,0.02c-0.14,0.26-0.42,0.38-0.69,0.31s-0.21-0.39-0.21-0.67v-7.64
				C91.68,85.14,91.61,84.82,91.89,84.74z M93.23,89.78v-1.09L92.17,85c-0.06-0.09-0.15-0.08-0.18-0.07
				c-0.03,0.01-0.12,0.04-0.12,0.16v8.3c0,0.12,0.09,0.15,0.12,0.16c0.03,0.01,0.12,0.03,0.18-0.07L93.23,89.78z"/>
		</g>
	</g>
	<g>
		
			<circle fill="#FFFFFF" stroke="#1D2132" stroke-width="0.1" stroke-linecap="square" stroke-miterlimit="22.9256" cx="46.81" cy="38.65" r="1.94"/>
		
			<circle fill="#FFFFFF" stroke="#1D2132" stroke-width="0.1" stroke-linecap="square" stroke-miterlimit="22.9256" cx="46.81" cy="38.65" r="0.41"/>
		<path fill="#FFFFFF" stroke="#1D2132" stroke-width="0.1" stroke-linecap="square" stroke-miterlimit="22.9256" d="M43.27,36.18
			l-0.66,1.48c-1.05,0-1.72-0.05-2.58-0.45l0,0c-0.43-0.19-0.52-0.94-0.19-1.67s0.94-1.17,1.37-0.98
			C42.09,34.92,42.58,35.38,43.27,36.18z"/>
		<path fill="#FFFFFF" stroke="#1D2132" stroke-width="0.1" stroke-linecap="square" stroke-miterlimit="22.9256" d="M43.27,36.18
			l0.53,0.24l-0.66,1.48l-0.53-0.24c-0.24-0.1-0.29-0.52-0.11-0.93C42.68,36.32,43.02,36.08,43.27,36.18z"/>
		
			<ellipse transform="matrix(0.4062 -0.9138 0.9138 0.4062 -8.1455 61.7899)" fill="#FFFFFF" stroke="#1D2132" stroke-width="0.1" stroke-linecap="square" stroke-miterlimit="22.9256" cx="43.47" cy="37.16" rx="0.81" ry="0.47"/>
		<path fill="#FFFFFF" stroke="#1D2132" stroke-width="0.1" stroke-linecap="square" stroke-miterlimit="22.9256" d="M46.87,38.52
			l-2.04-0.9c-0.06-0.03-0.14,0-0.17,0.07l-0.01,0.03c-0.03,0.06,0,0.14,0.07,0.17l2.04,0.9c0.06,0.03,0.14,0,0.17-0.07l0.01-0.03
			C46.97,38.62,46.94,38.55,46.87,38.52z"/>
		<path fill="#FFFFFF" stroke="#1D2132" stroke-width="0.1" stroke-linecap="square" stroke-miterlimit="22.9256" d="M45.74,38.01
			l-2.04-0.9c-0.06-0.03-0.14,0-0.17,0.07l-0.01,0.03c-0.03,0.06,0,0.14,0.07,0.17l2.04,0.9c0.06,0.03,0.14,0,0.17-0.07l0.01-0.03
			C45.84,38.12,45.81,38.04,45.74,38.01z"/>
	</g>
</g>
<g id="Windows">
	<polyline fill="none" stroke="#1D2132" stroke-width="0.1" stroke-miterlimit="10" points="92.5,3.25 92.5,2.3 53.54,2.3 
		53.54,3.25 92.5,3.25 	"/>
	<polyline fill="none" stroke="#1D2132" stroke-width="0.1" stroke-miterlimit="10" points="52.18,5.01 52.18,2.3 93.86,2.3 
		93.86,5.01 52.18,5.01 	"/>
	<polygon fill="none" stroke="#1D2132" stroke-width="0.1" stroke-miterlimit="10" points="53.54,3.25 53.54,2.3 51.7,2.3 
		51.7,3.25 51.7,2.3 52.18,2.3 52.18,3.25 52.46,3.25 	"/>
	<polyline fill="none" stroke="#1D2132" stroke-width="0.1" stroke-miterlimit="10" points="92.5,3.25 92.5,2.3 94.53,2.3 
		94.53,3.25 92.5,3.25 	"/>
	<polyline fill="none" stroke="#1D2132" stroke-width="0.1" stroke-miterlimit="10" points="93.19,2.3 93.19,0.82 52.86,0.82 
		52.86,2.3 93.19,2.3 	"/>
	<polyline fill="none" stroke="#1D2132" stroke-width="0.1" stroke-miterlimit="10" points="40.49,0.82 18.86,0.82 18.86,2.3 
		40.49,2.3 40.49,0.82 	"/>
	<polyline fill="none" stroke="#1D2132" stroke-width="0.1" stroke-miterlimit="10" points="18.18,5.01 41.16,5.01 41.16,2.3 
		18.18,2.3 18.18,5.01 	"/>
	<polyline fill="none" stroke="#1D2132" stroke-width="0.1" stroke-miterlimit="10" points="39.8,3.25 20.06,3.25 20.06,2.3 
		39.8,2.3 39.8,3.25 	"/>
	<polyline fill="none" stroke="#1D2132" stroke-width="0.1" stroke-miterlimit="10" points="20.06,3.25 17.86,3.25 17.86,2.3 
		20.06,2.3 20.06,3.25 	"/>
	<polyline fill="none" stroke="#1D2132" stroke-width="0.1" stroke-miterlimit="10" points="41.16,3.25 41.75,3.25 41.75,2.3 
		41.16,2.3 41.16,3.25 	"/>
	<polyline fill="none" stroke="#1D2132" stroke-width="0.1" stroke-miterlimit="10" points="40.88,2.3 39.8,2.3 39.8,3.25 
		41.75,3.25 41.75,2.3 	"/>
</g>
<g id="Doors">
	<g>
		<polygon fill="none" stroke="#1D2132" stroke-width="0.1" stroke-miterlimit="10" points="50.67,81.99 49.52,81.99 49.52,81.42 
			50.67,81.42 		"/>
		<polygon fill="none" stroke="#1D2132" stroke-width="0.1" stroke-miterlimit="10" points="50.67,96.07 49.52,96.07 49.52,96.65 
			50.67,96.65 		"/>
		<polyline fill="none" stroke="#1D2132" stroke-width="0.1" stroke-miterlimit="10" points="39.63,91.95 39.83,92.12 40.01,92.29 
			40.21,92.46 40.4,92.63 40.6,92.79 40.8,92.96 41,93.12 41.2,93.26 41.42,93.41 41.63,93.56 41.85,93.7 42.06,93.84 42.28,93.98 
			42.5,94.1 42.73,94.23 42.95,94.35 43.18,94.47 43.41,94.58 43.64,94.7 43.88,94.8 44.11,94.9 44.35,95.01 44.59,95.1 
			44.83,95.19 45.07,95.27 45.31,95.35 45.55,95.43 45.8,95.5 46.04,95.57 46.3,95.64 46.55,95.7 46.8,95.75 47.05,95.8 
			47.31,95.86 47.56,95.89 47.81,95.94 48.06,95.96 48.32,95.99 48.58,96.02 48.83,96.04 49.08,96.05 49.35,96.06 49.6,96.07 		"/>
		<polygon fill="none" stroke="#1D2132" stroke-width="0.1" stroke-miterlimit="10" points="49.54,82.09 39.63,91.95 40.01,92.29 
			49.94,82.49 		"/>
	</g>
	<g>
		<polygon fill="none" stroke="#1D2132" stroke-width="0.1" stroke-miterlimit="10" points="72.7,65.9 71.6,65.9 71.6,66.33 
			72.7,66.33 		"/>
		<polygon fill="none" stroke="#1D2132" stroke-width="0.1" stroke-miterlimit="10" points="72.7,55.22 71.6,55.22 71.6,54.78 
			72.7,54.78 		"/>
		<polyline fill="none" stroke="#1D2132" stroke-width="0.1" stroke-miterlimit="10" points="64.07,58.35 64.22,58.22 64.36,58.09 
			64.51,57.96 64.66,57.83 64.8,57.7 64.96,57.58 65.11,57.46 65.27,57.35 65.43,57.23 65.59,57.12 65.75,57.02 65.92,56.91 
			66.08,56.81 66.25,56.71 66.42,56.62 66.59,56.52 66.76,56.43 66.94,56.35 67.11,56.26 67.29,56.18 67.47,56.1 67.65,56.03 
			67.83,55.96 68.01,55.89 68.2,55.83 68.38,55.76 68.56,55.7 68.75,55.65 68.94,55.6 69.13,55.55 69.32,55.5 69.51,55.46 
			69.7,55.43 69.89,55.38 70.08,55.36 70.28,55.32 70.47,55.3 70.66,55.28 70.86,55.26 71.05,55.24 71.24,55.23 71.44,55.23 
			71.63,55.22 		"/>
		<polygon fill="none" stroke="#1D2132" stroke-width="0.1" stroke-miterlimit="10" points="71.59,65.82 64.07,58.35 64.36,58.09 
			71.89,65.52 		"/>
	</g>
	<g>
		<polygon fill="none" stroke="#1D2132" stroke-width="0.1" stroke-miterlimit="10" points="72.7,92.53 71.6,92.53 71.6,92.97 
			72.7,92.97 		"/>
		<polygon fill="none" stroke="#1D2132" stroke-width="0.1" stroke-miterlimit="10" points="72.7,81.85 71.6,81.85 71.6,81.42 
			72.7,81.42 		"/>
		<polyline fill="none" stroke="#1D2132" stroke-width="0.1" stroke-miterlimit="10" points="64.07,84.98 64.22,84.85 64.36,84.72 
			64.51,84.59 64.66,84.46 64.8,84.34 64.96,84.22 65.11,84.09 65.27,83.98 65.43,83.87 65.59,83.76 65.75,83.65 65.92,83.55 
			66.08,83.44 66.25,83.35 66.42,83.25 66.59,83.16 66.76,83.07 66.94,82.98 67.11,82.89 67.29,82.82 67.47,82.74 67.65,82.66 
			67.83,82.59 68.01,82.52 68.2,82.46 68.38,82.4 68.56,82.34 68.75,82.29 68.94,82.23 69.13,82.18 69.32,82.14 69.51,82.09 
			69.7,82.06 69.89,82.02 70.08,81.99 70.28,81.95 70.47,81.94 70.66,81.91 70.86,81.89 71.05,81.88 71.24,81.87 71.44,81.86 
			71.63,81.85 		"/>
		<polygon fill="none" stroke="#1D2132" stroke-width="0.1" stroke-miterlimit="10" points="71.59,92.45 64.07,84.98 64.36,84.72 
			71.89,92.15 		"/>
	</g>
	<g>
		<polygon fill="none" stroke="#1D2132" stroke-width="0.1" stroke-miterlimit="10" points="57.91,44.6 57.91,43.53 57.43,43.53 
			57.43,44.6 		"/>
		<polygon fill="none" stroke="#1D2132" stroke-width="0.1" stroke-miterlimit="10" points="69.84,44.6 69.84,43.52 70.33,43.52 
			70.33,44.6 		"/>
		<polyline fill="none" stroke="#1D2132" stroke-width="0.1" stroke-miterlimit="10" points="66.34,34.97 66.49,35.14 66.64,35.29 
			66.78,35.46 66.93,35.62 67.06,35.79 67.2,35.96 67.34,36.13 67.46,36.3 67.59,36.49 67.71,36.66 67.83,36.84 67.95,37.03 
			68.06,37.21 68.17,37.4 68.28,37.59 68.38,37.78 68.48,37.97 68.58,38.17 68.68,38.36 68.76,38.56 68.85,38.76 68.94,38.96 
			69.02,39.17 69.09,39.37 69.16,39.57 69.23,39.78 69.3,39.98 69.36,40.2 69.41,40.4 69.47,40.61 69.52,40.83 69.57,41.04 
			69.61,41.26 69.66,41.47 69.69,41.68 69.73,41.9 69.74,42.11 69.77,42.32 69.79,42.55 69.81,42.76 69.82,42.98 69.83,43.2 
			69.84,43.41 		"/>
		<polygon fill="none" stroke="#1D2132" stroke-width="0.1" stroke-miterlimit="10" points="58,43.36 66.34,34.97 66.64,35.29 
			58.34,43.7 		"/>
	</g>
</g>
<g id="Text">
	
		<text id="TXT--" transform="matrix(1 0 0 1 60.8291 25.9615)" opacity="0.7" fill="#1D2132" enable-background="new    " font-family="'Cannonade-Medium'" font-size="3px">9,69</text>
	
		<text id="TXT---" transform="matrix(1 0 0 1 22.0791 43.0001)" opacity="0.7" fill="#1D2132" enable-background="new    " font-family="'Cannonade-Medium'" font-size="3px">18,33</text>
	
		<text id="TXT--" transform="matrix(1 0 0 1 57.3324 69.0597)" opacity="0.7" fill="#1D2132" enable-background="new    " font-family="'Cannonade-Medium'" font-size="3px">7,21</text>
	
		<text id="TXT--" transform="matrix(1 0 0 1 76.9727 89.5935)" opacity="0.7" fill="#1D2132" enable-background="new    " font-family="'Cannonade-Medium'" font-size="3px">3,04</text>
	
		<text id="TXT--" transform="matrix(1 0 0 1 77.4102 61.7185)" opacity="0.7" fill="#1D2132" enable-background="new    " font-family="'Cannonade-Medium'" font-size="3px">4,59</text>
</g>
<g id="Walls">
	<polyline fill="#1D2132" stroke="#1D2132" stroke-width="0.1" stroke-miterlimit="10" points="100,78.57 71.63,78.57 71.63,79.75 
		100,79.75 100,78.48 	"/>
	<polyline fill="#1D2132" stroke="#1D2132" stroke-width="0.1" stroke-miterlimit="10" points="100,98.39 49.63,98.39 49.63,100.55 
		100,100.55 100,98.21 	"/>
	<polyline fill="#1D2132" stroke="#1D2132" stroke-width="0.1" stroke-miterlimit="10" points="51.35,59.47 42.15,59.47 
		42.15,78.65 43.24,78.65 43.24,60.55 51.35,60.55 51.35,59.47 	"/>
	<polyline fill="#1D2132" stroke="#1D2132" stroke-width="0.1" stroke-miterlimit="10" points="72.7,81.42 72.7,66.33 71.62,66.33 
		71.62,81.42 72.7,81.42 	"/>
	<polyline fill="#1D2132" stroke="#1D2132" stroke-width="0.1" stroke-miterlimit="10" points="72.7,100.55 72.7,92.97 71.62,92.97 
		71.62,100.55 72.7,100.55 	"/>
	<polyline fill="#1D2132" stroke="#1D2132" stroke-width="0.1" stroke-miterlimit="10" points="71.62,54.74 71.62,44.6 70.33,44.6 
		70.33,43.52 97.29,43.52 97.29,44.6 72.7,44.6 72.7,54.74 71.62,54.74 	"/>
	<polyline fill="#1D2132" stroke="#1D2132" stroke-width="0.1" stroke-miterlimit="10" points="18.44,2.3 18.44,5.01 2.7,5.01 
		2.7,75.95 0,75.95 0,4.64 0,0.19 19.13,0.28 19.13,2.3 	"/>
	<polyline fill="#1D2132" stroke="#1D2132" stroke-width="0.1" stroke-miterlimit="10" points="93.86,2.3 100,2.3 100,5.01 
		100,5.01 100,100.55 97.29,100.55 97.29,5.01 93.86,5.01 93.86,2.3 	"/>
	<polyline fill="#1D2132" stroke="#1D2132" stroke-width="0.1" stroke-miterlimit="10" points="57.43,43.52 57.43,44.6 50.27,44.6 
		50.27,5.01 51.35,5.01 51.35,43.52 57.43,43.52 	"/>
	<polyline fill="#1D2132" stroke="#1D2132" stroke-width="0.1" stroke-miterlimit="10" points="41.16,2.3 52.18,2.3 52.18,5.01 
		41.16,5.01 41.16,2.3 	"/>
	<polyline fill="#1D2132" stroke="#1D2132" stroke-width="0.1" stroke-miterlimit="10" points="100,2.3 93.19,2.3 93.19,0.28 
		100,0.28 100,2.3 	"/>
	<polyline fill="#1D2132" stroke="#1D2132" stroke-width="0.1" stroke-miterlimit="10" points="52.86,2.3 40.49,2.3 40.49,0.28 
		52.86,0.28 52.86,2.3 	"/>
	<path fill="#1D2132" stroke="#1D2132" stroke-width="0.1" stroke-miterlimit="10" d="M19.13,2.3"/>
	<polyline fill="#1D2132" stroke="#1D2132" stroke-width="0.1" stroke-miterlimit="10" points="7.84,78.65 51.35,78.65 51.35,80.81 
		5.67,80.81 5.67,78.65 5.67,75.95 2.7,75.95 2.7,73.79 7.84,73.79 7.84,78.65 	"/>
	<polyline fill="#1D2132" stroke="#1D2132" stroke-width="0.1" stroke-miterlimit="10" points="49.19,99.35 49.19,100.55 
		51.35,100.55 51.35,96.75 49.19,96.75 49.19,99.35 	"/>
	<polyline fill="#1D2132" stroke="#1D2132" stroke-width="0.1" stroke-miterlimit="10" points="49.19,80.53 49.19,81.42 
		51.35,81.42 51.35,78.65 49.19,78.65 49.19,80.53 	"/>
</g>
<g id="Details">
	<g>
		
			<rect x="95.12" y="76.36" fill="#FFFFFF" stroke="#1D2132" stroke-width="0.5" stroke-linecap="square" stroke-miterlimit="10" width="2" height="2"/>
		<polygon fill="#1D2132" stroke="#1D2132" stroke-width="0.1" stroke-miterlimit="10" points="97,78.36 96.33,77.14 95.12,76.47 
			97,76.47 		"/>
	</g>
	<g>
		
			<rect x="72.7" y="68.52" fill="#FFFFFF" stroke="#1D2132" stroke-width="0.5" stroke-miterlimit="10" width="5.3" height="10.22"/>
		<g>
			
				<rect x="73.39" y="76.75" fill="#FFFFFF" stroke="#1D2132" stroke-width="0.1" stroke-linecap="square" stroke-miterlimit="22.9256" width="4.01" height="1.3"/>
			<polygon fill="#1D2132" points="77.4,78.04 76.99,77.25 73.41,76.75 77.4,76.75 			"/>
		</g>
		<g>
			
				<rect x="73.39" y="69.13" fill="#FFFFFF" stroke="#1D2132" stroke-width="0.1" stroke-linecap="square" stroke-miterlimit="22.9256" width="4.01" height="1.3"/>
			<polygon fill="#1D2132" points="77.4,70.32 76.99,69.51 73.41,69.13 77.4,69.13 			"/>
		</g>
		<g>
			
				<rect x="73.39" y="71.04" fill="#FFFFFF" stroke="#1D2132" stroke-width="0.1" stroke-linecap="square" stroke-miterlimit="22.9256" width="4.01" height="5.12"/>
			<polygon fill="#1D2132" points="77.4,76.03 76.99,71.73 73.41,71.04 77.4,71.04 			"/>
		</g>
	</g>
</g>
</svg>
