<?xml version="1.0" encoding="utf-8"?>
<!-- Generator: Adobe Illustrator 22.0.0, SVG Export Plug-In . SVG Version: 6.00 Build 0)  -->
<svg version="1.1" id="Layer_1" xmlns="http://www.w3.org/2000/svg" xmlns:xlink="http://www.w3.org/1999/xlink" x="0px" y="0px"
	 viewBox="0 0 89 100" enable-background="new 0 0 89 100" xml:space="preserve">
<g id="Background">
	<polygon opacity="0.1" fill="#1D2132" enable-background="new    " points="2.02,4.02 84.97,4.02 84.97,98 61.12,98 61.12,73.41 
		2.02,73.41 	"/>
</g>
<g id="Plumbing">
	<g>
		<polyline fill="#FFFFFF" points="5.05,55.14 5.16,55.14 5.26,55.14 5.47,55.16 5.66,55.21 5.85,55.29 6.04,55.38 6.2,55.48 
			6.36,55.61 6.49,55.75 6.65,55.96 6.79,56.19 6.91,56.43 7.01,56.66 7.1,56.93 7.18,57.16 7.24,57.41 7.3,57.66 7.34,57.92 
			7.35,58.18 7.36,58.4 7.35,58.63 7.33,58.89 7.3,59.15 7.24,59.39 7.18,59.64 7.09,59.9 7.01,60.14 6.91,60.38 6.79,60.61 
			6.65,60.84 6.49,61.05 6.36,61.19 6.2,61.32 6.04,61.43 5.85,61.53 5.66,61.6 5.47,61.64 5.26,61.67 5.05,61.67 2.14,61.67 
			2.14,55.14 5.05,55.14 		"/>
		
			<line fill="none" stroke="#1D2132" stroke-width="0.1" stroke-linecap="square" stroke-miterlimit="10" x1="2.14" y1="61.67" x2="2.14" y2="55.14"/>
		
			<line fill="none" stroke="#1D2132" stroke-width="0.1" stroke-linecap="square" stroke-miterlimit="10" x1="5.05" y1="61.67" x2="2.14" y2="61.67"/>
		
			<line fill="none" stroke="#1D2132" stroke-width="0.1" stroke-linecap="square" stroke-miterlimit="10" x1="5.05" y1="55.14" x2="2.14" y2="55.14"/>
		
			<line fill="none" stroke="#1D2132" stroke-width="0.1" stroke-linecap="square" stroke-miterlimit="10" x1="2.14" y1="57.37" x2="2.14" y2="59.43"/>
		
			<line fill="none" stroke="#1D2132" stroke-width="0.1" stroke-linecap="square" stroke-miterlimit="10" x1="4.47" y1="58.6" x2="4.47" y2="58.94"/>
		
			<line fill="none" stroke="#1D2132" stroke-width="0.1" stroke-linecap="square" stroke-miterlimit="10" x1="4.27" y1="58.4" x2="3.9" y2="58.4"/>
		
			<line fill="none" stroke="#1D2132" stroke-width="0.1" stroke-linecap="square" stroke-miterlimit="10" x1="4.47" y1="57.85" x2="4.47" y2="58.2"/>
		
			<line fill="none" stroke="#1D2132" stroke-width="0.1" stroke-linecap="square" stroke-miterlimit="10" x1="5.06" y1="58.4" x2="4.7" y2="58.4"/>
		<path fill="none" stroke="#1D2132" stroke-width="0.1" stroke-linecap="square" stroke-miterlimit="10" d="M5.24,55.53
			c-0.6,0.23-1.11,0.62-1.46,1.13"/>
		<path fill="none" stroke="#1D2132" stroke-width="0.1" stroke-linecap="square" stroke-miterlimit="10" d="M3.79,56.67
			c-0.29,0.45-0.44,0.97-0.44,1.5c0,0.07,0,0.16,0.01,0.23"/>
		<path fill="none" stroke="#1D2132" stroke-width="0.1" stroke-linecap="square" stroke-miterlimit="10" d="M3.77,60.14
			c0.36,0.51,0.86,0.91,1.46,1.13"/>
		<path fill="none" stroke="#1D2132" stroke-width="0.1" stroke-linecap="square" stroke-miterlimit="10" d="M3.36,58.41
			c-0.01,0.07-0.01,0.16-0.01,0.23c0,0.53,0.16,1.05,0.44,1.5"/>
		<path fill="none" stroke="#1D2132" stroke-width="0.1" stroke-linecap="square" stroke-miterlimit="10" d="M7.35,58.16
			c-0.06-0.68-0.24-1.35-0.56-1.98"/>
		<path fill="none" stroke="#1D2132" stroke-width="0.1" stroke-linecap="square" stroke-miterlimit="10" d="M5.06,61.67
			c0.01,0,0.05,0,0.07,0c0.53,0,1.03-0.23,1.37-0.62"/>
		<path fill="none" stroke="#1D2132" stroke-width="0.1" stroke-linecap="square" stroke-miterlimit="10" d="M7.35,58.63
			c0.01-0.07,0.01-0.16,0.01-0.23s0-0.16-0.01-0.23"/>
		<path fill="none" stroke="#1D2132" stroke-width="0.1" stroke-linecap="square" stroke-miterlimit="10" d="M3.89,56.57
			c-0.09,0.6-0.15,1.22-0.15,1.83c0,0.6,0.06,1.21,0.15,1.82"/>
		<path fill="none" stroke="#1D2132" stroke-width="0.1" stroke-linecap="square" stroke-miterlimit="10" d="M2.57,58.39
			c0,0.61,0.05,1.23,0.14,1.84"/>
		<path fill="none" stroke="#1D2132" stroke-width="0.1" stroke-linecap="square" stroke-miterlimit="10" d="M2.87,60.58
			c0.71,0.6,1.63,0.93,2.57,0.93c0.02,0,0.03,0,0.06,0"/>
		<path fill="none" stroke="#1D2132" stroke-width="0.1" stroke-linecap="square" stroke-miterlimit="10" d="M2.69,60.24
			c0.02,0.12,0.09,0.26,0.19,0.34"/>
		<path fill="none" stroke="#1D2132" stroke-width="0.1" stroke-linecap="square" stroke-miterlimit="10" d="M5.49,55.3
			c-0.01,0-0.03,0-0.05,0c-0.95,0-1.86,0.33-2.57,0.93"/>
		<path fill="none" stroke="#1D2132" stroke-width="0.1" stroke-linecap="square" stroke-miterlimit="10" d="M2.69,56.56
			c-0.08,0.61-0.14,1.22-0.14,1.84"/>
		<path fill="none" stroke="#1D2132" stroke-width="0.1" stroke-linecap="square" stroke-miterlimit="10" d="M2.89,56.22
			c-0.11,0.09-0.17,0.21-0.19,0.34"/>
		<path fill="none" stroke="#1D2132" stroke-width="0.1" stroke-linecap="square" stroke-miterlimit="10" d="M6.48,55.76
			c-0.33-0.4-0.84-0.62-1.37-0.62c-0.01,0-0.05,0-0.07,0"/>
		<path fill="none" stroke="#1D2132" stroke-width="0.1" stroke-linecap="square" stroke-miterlimit="10" d="M6.79,56.18
			c-0.08-0.15-0.18-0.29-0.29-0.43"/>
		<path fill="none" stroke="#1D2132" stroke-width="0.1" stroke-linecap="square" stroke-miterlimit="10" d="M6.49,61.04
			c0.11-0.12,0.21-0.27,0.29-0.43"/>
		<path fill="none" stroke="#1D2132" stroke-width="0.1" stroke-linecap="square" stroke-miterlimit="10" d="M6.79,60.6
			c0.32-0.61,0.51-1.29,0.56-1.98"/>
		<path fill="none" stroke="#1D2132" stroke-width="0.1" stroke-linecap="square" stroke-miterlimit="10" d="M6.88,59.3
			c0.07-0.29,0.11-0.6,0.11-0.9s-0.05-0.61-0.11-0.9"/>
		<path fill="none" stroke="#1D2132" stroke-width="0.1" stroke-linecap="square" stroke-miterlimit="10" d="M6.09,55.86
			c-0.2-0.21-0.49-0.34-0.79-0.34c-0.02,0-0.05,0-0.07,0"/>
		<path fill="none" stroke="#1D2132" stroke-width="0.1" stroke-linecap="square" stroke-miterlimit="10" d="M6.88,57.5
			c-0.12-0.6-0.4-1.15-0.79-1.63"/>
		<path fill="none" stroke="#1D2132" stroke-width="0.1" stroke-linecap="square" stroke-miterlimit="10" d="M5.23,61.27
			c0.02,0,0.05,0,0.07,0c0.3,0,0.59-0.12,0.79-0.34"/>
		<path fill="none" stroke="#1D2132" stroke-width="0.1" stroke-linecap="square" stroke-miterlimit="10" d="M6.09,60.94
			c0.42-0.47,0.68-1.04,0.79-1.64"/>
		<path fill="none" stroke="#1D2132" stroke-width="0.1" stroke-linecap="square" stroke-miterlimit="10" d="M4.03,58.4
			c0-0.23,0.2-0.43,0.45-0.42c0.25,0,0.45,0.19,0.45,0.42s-0.2,0.42-0.45,0.42S4.03,58.63,4.03,58.4"/>
		<path fill="none" stroke="#1D2132" stroke-width="0.1" stroke-linecap="square" stroke-miterlimit="10" d="M4.24,58.4
			c0-0.12,0.11-0.23,0.24-0.23c0.14,0,0.24,0.1,0.24,0.23c0,0.12-0.1,0.23-0.24,0.23S4.24,58.53,4.24,58.4"/>
	</g>
	<g>
		<polygon fill="#FFFFFF" points="17.49,73.28 17.49,71.64 17.49,71.62 17.47,71.59 17.47,71.57 17.45,71.55 17.45,71.53 
			17.45,71.5 17.45,71.49 17.44,71.47 17.42,71.46 17.41,71.44 17.39,71.43 17.37,71.42 17.36,71.4 17.34,71.39 17.32,71.38 
			17.3,71.37 17.3,67.02 17.3,66.9 17.3,66.8 17.27,66.69 17.25,66.59 17.22,66.49 17.2,66.39 17.15,66.29 17.12,66.19 17.06,66.1 
			17.02,66.01 16.96,65.92 16.91,65.85 16.83,65.76 16.76,65.69 16.68,65.61 16.62,65.55 16.54,65.47 16.45,65.41 16.37,65.36 
			16.28,65.31 16.2,65.26 16.12,65.21 16.02,65.17 15.93,65.13 15.83,65.1 15.73,65.08 15.64,65.04 15.54,65.02 15.44,65.01 
			15.34,65 15.24,65 15.14,65 15.04,65 14.93,65 14.83,65.01 14.73,65.02 14.63,65.04 14.53,65.08 14.44,65.1 14.34,65.13 
			14.26,65.17 14.17,65.21 14.08,65.26 13.99,65.31 13.89,65.36 13.82,65.41 13.74,65.47 13.67,65.55 13.59,65.61 13.51,65.69 
			13.44,65.76 13.38,65.85 13.31,65.92 13.25,66.01 13.21,66.1 13.15,66.19 13.12,66.29 13.06,66.39 13.05,66.49 13.02,66.59 
			13,66.69 12.99,66.8 12.99,66.9 12.97,67.02 12.97,71.37 12.95,71.38 12.93,71.39 12.91,71.4 12.91,71.42 12.89,71.43 
			12.86,71.44 12.85,71.46 12.84,71.47 12.83,71.49 12.82,71.5 12.81,71.53 12.81,71.55 12.8,71.57 12.8,71.59 12.79,71.62 
			12.79,71.64 12.79,73.28 15.14,73.28 		"/>
		
			<line fill="none" stroke="#1D2132" stroke-width="0.1" stroke-linecap="square" stroke-miterlimit="10" x1="12.97" y1="67.02" x2="12.97" y2="71.37"/>
		
			<line fill="none" stroke="#1D2132" stroke-width="0.1" stroke-linecap="square" stroke-miterlimit="10" x1="17.49" y1="73.28" x2="12.79" y2="73.28"/>
		
			<line fill="none" stroke="#1D2132" stroke-width="0.1" stroke-linecap="square" stroke-miterlimit="10" x1="12.79" y1="71.64" x2="12.79" y2="73.28"/>
		
			<line fill="none" stroke="#1D2132" stroke-width="0.1" stroke-linecap="square" stroke-miterlimit="10" x1="16.88" y1="70.6" x2="15.14" y2="70.6"/>
		
			<line fill="none" stroke="#1D2132" stroke-width="0.1" stroke-linecap="square" stroke-miterlimit="10" x1="13.4" y1="70.6" x2="12.97" y2="67.02"/>
		
			<line fill="none" stroke="#1D2132" stroke-width="0.1" stroke-linecap="square" stroke-miterlimit="10" x1="13.4" y1="70.6" x2="15.14" y2="70.6"/>
		
			<line fill="none" stroke="#1D2132" stroke-width="0.1" stroke-linecap="square" stroke-miterlimit="10" x1="16.88" y1="70.6" x2="17.3" y2="67.02"/>
		
			<line fill="none" stroke="#1D2132" stroke-width="0.1" stroke-linecap="square" stroke-miterlimit="10" x1="17.3" y1="67.02" x2="17.3" y2="71.37"/>
		
			<line fill="none" stroke="#1D2132" stroke-width="0.1" stroke-linecap="square" stroke-miterlimit="10" x1="17.49" y1="71.64" x2="17.49" y2="73.28"/>
		<path fill="none" stroke="#1D2132" stroke-width="0.1" stroke-linecap="square" stroke-miterlimit="10" d="M13.03,71.37
			c0.7-0.08,1.4-0.12,2.1-0.12s1.4,0.03,2.1,0.11"/>
		<path fill="none" stroke="#1D2132" stroke-width="0.1" stroke-linecap="square" stroke-miterlimit="10" d="M12.79,71.64
			c0-0.13,0.11-0.26,0.25-0.28"/>
		<path fill="none" stroke="#1D2132" stroke-width="0.1" stroke-linecap="square" stroke-miterlimit="10" d="M12.97,67.02
			c0-1.11,0.97-2.02,2.16-2.02s2.16,0.9,2.16,2.02"/>
		<path fill="none" stroke="#1D2132" stroke-width="0.1" stroke-linecap="square" stroke-miterlimit="10" d="M17.24,71.36
			c0.13,0.01,0.25,0.14,0.25,0.28"/>
		<path fill="none" stroke="#1D2132" stroke-width="0.1" stroke-linecap="square" stroke-miterlimit="10" d="M15.14,72.46
			c0.12,0,0.21-0.1,0.22-0.23c0-0.12-0.1-0.23-0.22-0.23s-0.22,0.11-0.22,0.23C14.91,72.35,15.01,72.46,15.14,72.46"/>
	</g>
	<g>
		<path fill="#FFFFFF" d="M13.39,54.14v-11c0-0.07-0.04-0.11-0.11-0.11H2.29c-0.07,0-0.11,0.04-0.11,0.11v10.98
			c0,0.07,0.04,0.11,0.11,0.11H13.3C13.34,54.23,13.39,54.18,13.39,54.14z"/>
		
			<line fill="none" stroke="#1D2132" stroke-width="0.1" stroke-linecap="square" stroke-miterlimit="10" x1="4.68" y1="45.87" x2="3.95" y2="45.87"/>
		
			<line fill="none" stroke="#1D2132" stroke-width="0.1" stroke-linecap="square" stroke-miterlimit="10" x1="4.98" y1="44.84" x2="4.98" y2="45.56"/>
		
			<line fill="none" stroke="#1D2132" stroke-width="0.1" stroke-linecap="square" stroke-miterlimit="10" x1="6" y1="45.87" x2="5.29" y2="45.87"/>
		
			<line fill="none" stroke="#1D2132" stroke-width="0.1" stroke-linecap="square" stroke-miterlimit="10" x1="4.98" y1="46.17" x2="4.98" y2="46.89"/>
		
			<line fill="none" stroke="#1D2132" stroke-width="0.1" stroke-linecap="square" stroke-miterlimit="10" x1="5.85" y1="53.6" x2="2.85" y2="53.6"/>
		
			<line fill="none" stroke="#1D2132" stroke-width="0.1" stroke-linecap="square" stroke-miterlimit="10" x1="12.59" y1="43.62" x2="5.73" y2="43.62"/>
		<path fill="none" stroke="#1D2132" stroke-width="0.1" stroke-linecap="square" stroke-miterlimit="10" d="M12.71,43.74v9.68
			c0,0.1-0.08,0.18-0.18,0.18H2.85"/>
		
			<line fill="none" stroke="#1D2132" stroke-width="0.1" stroke-linecap="square" stroke-miterlimit="10" x1="2.72" y1="46.62" x2="2.72" y2="53.48"/>
		<g>
			<path fill="none" stroke="#1D2132" stroke-width="0.1" stroke-linecap="square" stroke-miterlimit="10" d="M2.71,46.62
				c0-0.05,0.01-0.14,0.04-0.19"/>
		</g>
		<g>
			<path fill="none" stroke="#1D2132" stroke-width="0.1" stroke-linecap="square" stroke-miterlimit="10" d="M2.85,53.6
				c-0.07,0-0.12-0.05-0.12-0.12"/>
		</g>
		<g>
			<path fill="none" stroke="#1D2132" stroke-width="0.1" stroke-linecap="square" stroke-miterlimit="10" d="M2.71,46.62
				c0-0.05,0.01-0.14,0.04-0.19"/>
		</g>
		<g>
			<path fill="none" stroke="#1D2132" stroke-width="0.1" stroke-linecap="square" stroke-miterlimit="10" d="M12.59,43.62
				c0.07,0,0.12,0.05,0.12,0.12"/>
		</g>
		<g>
			<path fill="none" stroke="#1D2132" stroke-width="0.1" stroke-linecap="square" stroke-miterlimit="10" d="M2.72,46.51
				c0.65-1.24,1.65-2.25,2.88-2.88"/>
		</g>
		<g>
			<path fill="none" stroke="#1D2132" stroke-width="0.1" stroke-linecap="square" stroke-miterlimit="10" d="M5.52,43.65
				c0.07-0.01,0.14-0.03,0.2-0.03"/>
		</g>
		<g>
			<path fill="none" stroke="#1D2132" stroke-width="0.1" stroke-linecap="square" stroke-miterlimit="10" d="M2.77,46.42
				c0.44-1.3,1.46-2.33,2.77-2.77"/>
		</g>
		<g>
			<path fill="none" stroke="#1D2132" stroke-width="0.1" stroke-linecap="square" stroke-miterlimit="10" d="M5.52,43.65
				c0.07-0.01,0.14-0.03,0.2-0.03"/>
		</g>
		<g>
			<path fill="none" stroke="#1D2132" stroke-width="0.1" stroke-linecap="square" stroke-miterlimit="10" d="M4.4,45.87
				c0,0.3,0.27,0.56,0.56,0.56c0.3,0,0.56-0.26,0.56-0.56c0-0.31-0.25-0.57-0.56-0.56C4.66,45.31,4.4,45.57,4.4,45.87"/>
		</g>
		<g>
			<path fill="none" stroke="#1D2132" stroke-width="0.1" stroke-linecap="square" stroke-miterlimit="10" d="M4.18,45.87
				c0,0.44,0.35,0.78,0.79,0.79c0.44,0,0.79-0.35,0.79-0.79c0-0.44-0.35-0.79-0.79-0.79S4.18,45.44,4.18,45.87"/>
		</g>
		<path fill="none" stroke="#1D2132" stroke-width="0.1" stroke-linecap="square" stroke-miterlimit="10" d="M13.32,53.93v-10.6
			c0-0.16-0.14-0.3-0.3-0.3H2.44c-0.16,0-0.3,0.14-0.3,0.3v10.6c0,0.16,0.14,0.3,0.3,0.3h10.61C13.2,54.23,13.34,54.1,13.32,53.93z"
			/>
	</g>
	<g>
		<g>
			<path fill="#FFFFFF" stroke="#1D2132" stroke-width="0.1" stroke-linecap="square" stroke-miterlimit="10" d="M19.61,47.94
				c0,0.08-0.08,0.14-0.18,0.14s-0.18-0.07-0.18-0.14s0.08-0.14,0.18-0.14S19.61,47.86,19.61,47.94z"/>
			
				<ellipse fill="#FFFFFF" stroke="#1D2132" stroke-width="0.1" stroke-linecap="square" stroke-miterlimit="10" cx="20.2" cy="47.94" rx="0.18" ry="0.14"/>
			<path fill="#FFFFFF" stroke="#1D2132" stroke-width="0.1" stroke-linecap="square" stroke-miterlimit="10" d="M23.54,47.94
				c0,0.08-0.08,0.14-0.18,0.14s-0.18-0.07-0.18-0.14c0-0.08,0.08-0.14,0.18-0.14C23.46,47.8,23.54,47.86,23.54,47.94z"/>
			<path fill="#FFFFFF" stroke="#1D2132" stroke-width="0.1" stroke-linecap="square" stroke-miterlimit="10" d="M23.53,47.94
				c0.4,0,0.73-0.09,0.73-0.19v-0.49c0-0.11-0.33-0.19-0.73-0.19h-4.28c-0.4,0-0.73,0.09-0.73,0.19v0.49c0,0.11,0.33,0.19,0.73,0.19
				H23.53z"/>
			
				<rect x="18.23" y="43.39" fill="#FFFFFF" stroke="#1D2132" stroke-width="0.1" stroke-linecap="square" stroke-miterlimit="10" width="6.38" height="4.3"/>
			<path fill="#FFFFFF" stroke="#1D2132" stroke-width="0.1" stroke-linecap="square" stroke-miterlimit="10" d="M23.53,47.45
				c0.4,0,0.73-0.7,0.73-1.57v-0.71c0-0.86-0.33-1.57-0.73-1.57h-4.28c-0.4,0-0.73,0.7-0.73,1.57v0.71c0,0.86,0.33,1.57,0.73,1.57
				H23.53z"/>
		</g>
		<g>
			<path fill="#FFFFFF" stroke="#1D2132" stroke-width="0.1" stroke-linecap="square" stroke-miterlimit="10" d="M23.4,44.14h-4.02
				c-0.08,0-0.15-0.07-0.15-0.15l0,0c0-0.08,0.07-0.15,0.15-0.15h4.02c0.08,0,0.15,0.07,0.15,0.15l0,0
				C23.55,44.08,23.48,44.14,23.4,44.14z"/>
			<g>
				
					<rect x="19.4" y="43.16" fill="#FFFFFF" stroke="#1D2132" stroke-width="0.1" stroke-linecap="square" stroke-miterlimit="10" width="0.25" height="0.68"/>
				
					<rect x="23.14" y="43.16" fill="#FFFFFF" stroke="#1D2132" stroke-width="0.1" stroke-linecap="square" stroke-miterlimit="10" width="0.25" height="0.68"/>
			</g>
			<g>
				
					<rect x="19.26" y="43.03" fill="#FFFFFF" stroke="#1D2132" stroke-width="0.1" stroke-linecap="square" stroke-miterlimit="10" width="0.54" height="0.13"/>
				
					<rect x="22.99" y="43.03" fill="#FFFFFF" stroke="#1D2132" stroke-width="0.1" stroke-linecap="square" stroke-miterlimit="10" width="0.54" height="0.13"/>
			</g>
		</g>
	</g>
</g>
<g id="Furniture">
	
		<rect x="61.15" y="83.52" fill="#FFFFFF" stroke="#1D2132" stroke-width="0.1" stroke-linecap="square" stroke-miterlimit="22.9256" width="7.23" height="7.23"/>
	
		<rect x="61.15" y="90.76" fill="#FFFFFF" stroke="#1D2132" stroke-width="0.1" stroke-linecap="square" stroke-miterlimit="22.9256" width="7.23" height="7.23"/>
	
		<rect x="61.15" y="76.28" fill="#FFFFFF" stroke="#1D2132" stroke-width="0.1" stroke-linecap="square" stroke-miterlimit="22.9256" width="7.23" height="7.23"/>
	
		<rect x="61.15" y="70.86" fill="#FFFFFF" stroke="#1D2132" stroke-width="0.1" stroke-linecap="square" stroke-miterlimit="22.9256" width="7.23" height="5.43"/>
	<g>
		
			<rect x="61.46" y="85.04" fill="#FFFFFF" stroke="#1D2132" stroke-width="0.1" stroke-linecap="square" stroke-miterlimit="22.9256" width="6.63" height="4.22"/>
		<g>
			<path fill="#FFFFFF" stroke="#1D2132" stroke-width="0.1" stroke-linecap="square" stroke-miterlimit="22.9256" d="M66.28,88.3
				c0.64,0,1.16-0.52,1.16-1.15c0-0.64-0.52-1.16-1.16-1.16c-0.64,0-1.15,0.52-1.15,1.16C65.13,87.78,65.64,88.3,66.28,88.3"/>
			<path fill="#FFFFFF" stroke="#1D2132" stroke-width="0.1" stroke-linecap="square" stroke-miterlimit="22.9256" d="M63.02,88.3
				c0.64,0,1.15-0.52,1.15-1.15c0-0.64-0.52-1.16-1.15-1.16c-0.64,0-1.16,0.52-1.16,1.16C61.86,87.78,62.38,88.3,63.02,88.3"/>
			<path fill="#FFFFFF" stroke="#1D2132" stroke-width="0.1" stroke-linecap="square" stroke-miterlimit="22.9256" d="M66.28,88.07
				c0.51,0,0.92-0.41,0.92-0.92c0-0.51-0.41-0.92-0.92-0.92c-0.51,0-0.92,0.41-0.92,0.92C65.36,87.65,65.77,88.07,66.28,88.07"/>
			<path fill="#FFFFFF" stroke="#1D2132" stroke-width="0.1" stroke-linecap="square" stroke-miterlimit="22.9256" d="M63.02,88.07
				c0.51,0,0.92-0.41,0.92-0.92c0-0.51-0.41-0.92-0.92-0.92s-0.92,0.41-0.92,0.92C62.09,87.65,62.5,88.07,63.02,88.07"/>
		</g>
	</g>
	<g>
		<path fill="#FFFFFF" stroke="#1D2132" stroke-width="0.1" stroke-linecap="square" stroke-miterlimit="22.9256" d="M62.98,71.82
			h4.43c0.28,0,0.5,0.22,0.5,0.5v2.62c0,0.28-0.22,0.5-0.5,0.5h-4.43c-0.28,0-0.5-0.22-0.5-0.5v-2.62
			C62.48,72.04,62.7,71.82,62.98,71.82z"/>
		<g>
			<path fill="#FFFFFF" stroke="#1D2132" stroke-width="0.1" stroke-linecap="square" stroke-miterlimit="22.9256" d="M63.18,73.63
				c0-0.17,0.15-0.3,0.33-0.3s0.33,0.13,0.33,0.3c0,0.17-0.15,0.3-0.33,0.3S63.18,73.79,63.18,73.63z"/>
			<g>
				<path fill="#FFFFFF" stroke="#1D2132" stroke-width="0.1" stroke-linecap="square" stroke-miterlimit="22.9256" d="M61.58,73.63
					c0-0.27,0.2-0.49,0.45-0.49s0.45,0.22,0.45,0.49s-0.2,0.49-0.45,0.5C61.78,74.12,61.58,73.9,61.58,73.63z"/>
				<path fill="#FFFFFF" stroke="#1D2132" stroke-width="0.1" stroke-linecap="square" stroke-miterlimit="22.9256" d="M64.59,73.61
					c0,0.08-0.1,0.15-0.23,0.15L62,73.77c-0.13,0-0.23-0.07-0.23-0.15l0,0c0-0.08,0.1-0.15,0.23-0.15l2.35-0.01
					C64.48,73.46,64.59,73.53,64.59,73.61L64.59,73.61z"/>
				<path fill="#FFFFFF" stroke="#1D2132" stroke-width="0.1" stroke-linecap="square" stroke-miterlimit="22.9256" d="M61.9,73.63
					c0-0.38,0.06-0.68,0.14-0.68c0.08,0,0.14,0.31,0.14,0.68c0,0.38-0.06,0.69-0.14,0.69C61.96,74.31,61.9,74,61.9,73.63z"/>
			</g>
		</g>
	</g>
	
		<rect x="68.38" y="90.76" fill="#FFFFFF" stroke="#1D2132" stroke-width="0.1" stroke-linecap="square" stroke-miterlimit="22.9256" width="7.23" height="7.23"/>
	
		<rect x="75.54" y="90.76" fill="#FFFFFF" stroke="#1D2132" stroke-width="0.1" stroke-linecap="square" stroke-miterlimit="22.9256" width="7.23" height="7.23"/>
	<g>
		
			<line fill="none" stroke="#1D2132" stroke-width="0.1" stroke-linecap="square" stroke-miterlimit="22.9256" x1="79.16" y1="93.47" x2="79.16" y2="95.28"/>
		
			<line fill="none" stroke="#1D2132" stroke-width="0.1" stroke-linecap="square" stroke-miterlimit="22.9256" x1="79.8" y1="93.74" x2="78.52" y2="95.01"/>
		
			<line fill="none" stroke="#1D2132" stroke-width="0.1" stroke-linecap="square" stroke-miterlimit="22.9256" x1="80.06" y1="94.37" x2="78.26" y2="94.37"/>
		
			<line fill="none" stroke="#1D2132" stroke-width="0.1" stroke-linecap="square" stroke-miterlimit="22.9256" x1="79.8" y1="95.01" x2="78.52" y2="93.74"/>
	</g>
	<g>
		<g>
			
				<rect x="80.81" y="7.15" fill="#FFFFFF" stroke="#1D2132" stroke-width="0.1" stroke-linecap="square" stroke-miterlimit="10" width="4.08" height="23.63"/>
			<g>
				<polygon fill="#FFFFFF" stroke="#1D2132" stroke-width="0.1" stroke-linecap="square" stroke-miterlimit="10" points="
					80.54,28.42 80.54,26.82 80.81,26.82 80.81,26.4 80.4,26.4 80.4,28.84 80.81,28.84 80.81,28.42 				"/>
				<polygon fill="#FFFFFF" stroke="#1D2132" stroke-width="0.1" stroke-linecap="square" stroke-miterlimit="10" points="
					80.54,11.12 80.54,9.52 80.81,9.52 80.81,9.09 80.4,9.09 80.4,11.54 80.81,11.54 80.81,11.12 				"/>
			</g>
			<g>
				<polygon fill="#FFFFFF" stroke="#1D2132" stroke-width="0.1" stroke-linecap="square" stroke-miterlimit="10" points="
					80.54,23.87 80.54,22.27 80.81,22.27 80.81,21.85 80.4,21.85 80.4,24.3 80.81,24.3 80.81,23.87 				"/>
				<polygon fill="#FFFFFF" stroke="#1D2132" stroke-width="0.1" stroke-linecap="square" stroke-miterlimit="10" points="
					80.54,15.66 80.54,14.06 80.81,14.06 80.81,13.64 80.4,13.64 80.4,16.09 80.81,16.09 80.81,15.66 				"/>
			</g>
		</g>
		<g>
			<path fill="#FFFFFF" stroke="#1D2132" stroke-width="0.1" stroke-linecap="square" stroke-miterlimit="10" d="M84.08,18.16v1.62
				c0,0.39-0.32,0.71-0.71,0.71h-0.23c-0.39,0-0.71-0.32-0.71-0.71v-1.62c0-0.39,0.32-0.71,0.71-0.71h0.23
				C83.77,17.45,84.09,17.76,84.08,18.16z"/>
			<path fill="#FFFFFF" stroke="#1D2132" stroke-width="0.1" stroke-linecap="square" stroke-miterlimit="10" d="M83.42,18.32v1.3
				c0,0.17-0.13,0.3-0.3,0.3h-0.07c-0.17,0-0.3-0.13-0.3-0.3v-1.3c0-0.17,0.13-0.3,0.3-0.3h0.07
				C83.27,18.01,83.42,18.15,83.42,18.32z"/>
			
				<rect x="82.73" y="13.6" fill="#FFFFFF" stroke="#1D2132" stroke-width="0.1" stroke-linecap="square" stroke-miterlimit="10" width="0.14" height="10.74"/>
			<polygon fill="#FFFFFF" stroke="#1D2132" stroke-width="0.1" stroke-linecap="square" stroke-miterlimit="10" points="
				83.15,22.79 82.87,24.34 82.87,13.6 83.15,15.15 			"/>
		</g>
	</g>
	<g>
		<path fill="#FFFFFF" stroke="#1D2132" stroke-width="0.1" stroke-linecap="square" stroke-miterlimit="10" d="M50.71,45
			c0.94,0.29,1.72,1.23,3.76,1.23c2.05,0.01,4.2-2.46,3.18-5.99c-1.03-3.53-2.95-4.43-4.62-4.25c-1.67,0.18-2.52,1.3-3.06,1.9
			c-1.26,1.37-1.27,1.89-1.81,2.31c-1.09,0.87-0.58,2.81-0.01,3.52C49.2,45,49.77,44.7,50.71,45z"/>
		<path fill="none" stroke="#1D2132" stroke-width="0.1" stroke-linecap="square" stroke-miterlimit="10" d="M56.93,44.95
			c0,0-0.41,0.47-1.07,0.79c-0.66,0.32-0.86,0.2-1.72,0.14c-0.86-0.06-1.27-0.06-2.44-0.82c-0.83-0.54-0.74-0.84-1.04-0.73
			c-0.18,0.07-0.68-0.06-1.08-0.45c-0.67-0.65-0.8-1.28-0.97-2.13c-0.17-0.86,0.37-1.41,0.46-1.49c0.09-0.08-0.19-0.37,0.12-0.85
			c1.04-1.59,1.08-1.21,2.03-2.4c0.47-0.59,1.81-1.04,1.81-1.04"/>
		<path fill="none" stroke="#1D2132" stroke-width="0.1" stroke-linecap="square" stroke-miterlimit="10" d="M50.01,40.32
			c0,0,0.12,0.05,0.65,0c0.52-0.05,1.27-0.28,1.27-0.28s0,0,0.07-0.13c0.07-0.12,0.18-0.41,0.43-0.78c0.25-0.37-0.21-1.03-0.21-1.03
			"/>
		<path fill="none" stroke="#1D2132" stroke-width="0.1" stroke-linecap="square" stroke-miterlimit="10" d="M51.14,44
			c0,0,0.19-0.24,0.66-0.51c0.47-0.27,1-0.56,1-0.56s-0.08-0.92-0.36-1.65c-0.27-0.73-0.5-1.23-0.5-1.23"/>
		<path fill="none" stroke="#1D2132" stroke-width="0.1" stroke-linecap="square" stroke-miterlimit="10" d="M52.79,42.94
			c0,0,0.42,0,0.99,0.17c0.57,0.17,0.74,0.28,0.77,0.7c0.03,0.41-0.25,1.02-0.25,1.02"/>
		<path fill="none" stroke="#1D2132" stroke-width="0.1" stroke-linecap="square" stroke-miterlimit="10" d="M56.12,40.15
			c0,0-0.14,0.11-0.41,0.19c-0.27,0.07-0.39,0.03-0.39,0.03s0,0-0.22-0.53c-0.22-0.53-1.04-1.24-1.04-1.24"/>
		<path fill="none" stroke="#1D2132" stroke-width="0.1" stroke-linecap="square" stroke-miterlimit="10" d="M55.83,43.06
			c-0.24-0.06-0.37-0.29-0.37-0.29s0,0,0.08-0.2c0.08-0.2,0.08-0.73-0.08-1.17c-0.15-0.44-0.15-1.03-0.15-1.03"/>
		<path fill="none" stroke="#1D2132" stroke-width="0.1" stroke-linecap="square" stroke-miterlimit="10" d="M54.71,38
			c0,0-0.18,0.05-0.35,0.14c-0.17,0.1-0.29,0.45-0.29,0.45"/>
		<path fill="#FFFFFF" stroke="#1D2132" stroke-width="0.1" stroke-linecap="square" stroke-miterlimit="10" d="M48.29,41.44
			c-0.27,0.13-0.2,0.36-0.14,0.67c0.06,0.31,0.14,0.5,0.22,0.83c0.08,0.32,0.39,0.36,0.39,0.36l0.49-0.17c0,0-0.02-0.14-0.07-0.14
			c-0.07-0.01-0.31,0.21-0.42,0.13c-0.19-0.13-0.08-0.41-0.14-0.72c-0.06-0.31-0.21-0.51-0.2-0.71c0-0.11,0.23-0.21,0.35-0.19
			c0.08,0.01,0.05-0.11,0.05-0.11S48.56,41.3,48.29,41.44z"/>
	</g>
	<g>
		<g>
			<path fill="#FFFFFF" stroke="#1D2132" stroke-width="0.1" stroke-linecap="square" stroke-miterlimit="10" d="M81.88,57.48
				c-0.72-0.18-1.64-0.14-2.23-0.14c-0.59,0-1.51-0.04-2.22,0.14c-0.73,0.18-1.04,0.55-0.93,1.81c0.1,1.26,0.07,2.96,0.31,3.59
				c0.21,0.55,1.42,0.14,2.85,0.14c1.42,0,2.63,0.42,2.85-0.14c0.24-0.63,0.2-2.33,0.31-3.59C82.92,58.04,82.6,57.66,81.88,57.48z"
				/>
			<path fill="#FFFFFF" stroke="#1D2132" stroke-width="0.1" stroke-linecap="square" stroke-miterlimit="10" d="M81.71,57.45
				c-0.67-0.14-1.52-0.11-2.06-0.11s-1.4-0.02-2.06,0.12c-0.67,0.15-0.96,0.46-0.87,1.49c0.1,1.03,0.07,2.42,0.3,2.94
				c0.2,0.46,1.32,0.89,2.64,0.89c1.31,0,2.43-0.43,2.63-0.89c0.22-0.52,0.19-1.92,0.29-2.95C82.67,57.92,82.39,57.6,81.71,57.45z"
				/>
			<g>
				<path fill="#FFFFFF" stroke="#1D2132" stroke-width="0.1" stroke-linecap="square" stroke-miterlimit="10" d="M82.67,63.74
					c0-1.53-1.4-0.45-3-0.45c-1.55,0-2.83-1.04-2.99,0.4c0.4,0.13,0.8,0.24,1.22,0.32C79.53,64.32,81.17,64.21,82.67,63.74z"/>
				<path fill="#FFFFFF" stroke="#1D2132" stroke-width="0.1" stroke-linecap="square" stroke-miterlimit="10" d="M82.73,63.72
					c-0.03,0-0.05,0.01-0.07,0.02c-1.5,0.47-3.13,0.59-4.78,0.27c-0.42-0.08-0.82-0.19-1.22-0.32c-0.03-0.01-0.06-0.02-0.08-0.03
					l-0.09,0.28c0.07,0.03,0.15,0.06,0.22,0.07c0.36,0.11,0.73,0.21,1.12,0.29c1.63,0.32,3.23,0.22,4.72-0.21
					c0.09-0.03,0.18-0.06,0.28-0.08L82.73,63.72z"/>
			</g>
		</g>
		<g>
			<path fill="#FFFFFF" stroke="#1D2132" stroke-width="0.1" stroke-linecap="square" stroke-miterlimit="10" d="M81.88,46.57
				c-0.72,0.18-1.64,0.14-2.23,0.14c-0.59,0-1.51,0.04-2.22-0.14c-0.73-0.18-1.04-0.55-0.93-1.81c0.1-1.26,0.07-2.96,0.31-3.59
				c0.21-0.55,1.42-0.14,2.85-0.14c1.42,0,2.63-0.42,2.85,0.14c0.24,0.63,0.2,2.33,0.31,3.59C82.92,46,82.6,46.39,81.88,46.57z"/>
			<path fill="#FFFFFF" stroke="#1D2132" stroke-width="0.1" stroke-linecap="square" stroke-miterlimit="10" d="M81.71,46.58
				c-0.67,0.14-1.52,0.11-2.06,0.11s-1.4,0.02-2.06-0.12c-0.67-0.15-0.96-0.46-0.87-1.49c0.1-1.03,0.07-2.42,0.3-2.94
				c0.2-0.46,1.32-0.89,2.64-0.89c1.31,0,2.43,0.43,2.63,0.89c0.22,0.52,0.19,1.92,0.29,2.95C82.67,46.13,82.39,46.45,81.71,46.58z"
				/>
			<g>
				<path fill="#FFFFFF" stroke="#1D2132" stroke-width="0.1" stroke-linecap="square" stroke-miterlimit="10" d="M82.67,40.31
					c0,1.53-1.4,0.45-3,0.45c-1.55,0-2.83,1.04-2.99-0.4c0.4-0.13,0.8-0.24,1.22-0.32C79.53,39.72,81.17,39.83,82.67,40.31z"/>
				<path fill="#FFFFFF" stroke="#1D2132" stroke-width="0.1" stroke-linecap="square" stroke-miterlimit="10" d="M82.73,40.33
					c-0.03,0-0.05-0.01-0.07-0.02c-1.5-0.47-3.13-0.59-4.78-0.27c-0.42,0.08-0.82,0.19-1.22,0.32c-0.03,0.01-0.06,0.02-0.08,0.03
					l-0.09-0.28c0.07-0.03,0.15-0.06,0.22-0.07c0.36-0.11,0.73-0.21,1.12-0.29c1.63-0.32,3.23-0.22,4.72,0.21
					c0.09,0.03,0.18,0.06,0.28,0.08L82.73,40.33z"/>
			</g>
		</g>
		<g>
			<path fill="#FFFFFF" stroke="#1D2132" stroke-width="0.1" stroke-linecap="square" stroke-miterlimit="10" d="M74.4,49.51
				c0.18,0.72,0.14,1.64,0.14,2.23c0,0.59,0.04,1.51-0.14,2.22c-0.18,0.73-0.55,1.04-1.81,0.93c-1.26-0.1-2.96-0.07-3.59-0.31
				c-0.55-0.21-0.14-1.42-0.14-2.85s-0.42-2.63,0.14-2.85c0.63-0.24,2.33-0.2,3.59-0.31C73.84,48.48,74.23,48.79,74.4,49.51z"/>
			<path fill="#FFFFFF" stroke="#1D2132" stroke-width="0.1" stroke-linecap="square" stroke-miterlimit="10" d="M74.42,49.69
				c0.14,0.67,0.11,1.52,0.11,2.06c0,0.55,0.02,1.4-0.12,2.06c-0.15,0.67-0.46,0.96-1.49,0.87c-1.03-0.1-2.42-0.07-2.94-0.3
				c-0.46-0.2-0.89-1.32-0.89-2.64c0-1.31,0.43-2.43,0.89-2.63c0.52-0.22,1.92-0.19,2.95-0.29C73.97,48.72,74.28,49.01,74.42,49.69z
				"/>
			<g>
				<path fill="#FFFFFF" stroke="#1D2132" stroke-width="0.1" stroke-linecap="square" stroke-miterlimit="10" d="M68.14,48.74
					c1.53,0,0.45,1.4,0.45,3c0,1.55,1.04,2.83-0.4,2.99c-0.13-0.4-0.24-0.8-0.32-1.22C67.55,51.86,67.66,50.23,68.14,48.74z"/>
				<path fill="#FFFFFF" stroke="#1D2132" stroke-width="0.1" stroke-linecap="square" stroke-miterlimit="10" d="M68.16,48.66
					c0,0.03-0.01,0.05-0.02,0.07c-0.47,1.5-0.59,3.13-0.27,4.78c0.08,0.42,0.19,0.82,0.32,1.22c0.01,0.03,0.02,0.06,0.03,0.08
					l-0.28,0.09c-0.03-0.07-0.06-0.15-0.07-0.22c-0.11-0.36-0.21-0.73-0.29-1.12c-0.32-1.63-0.22-3.23,0.21-4.72
					c0.03-0.09,0.06-0.18,0.08-0.28L68.16,48.66z"/>
			</g>
		</g>
		
			<rect x="74.71" y="46.9" fill="#FFFFFF" stroke="#1D2132" stroke-width="0.1" stroke-linecap="square" stroke-miterlimit="10" width="10.18" height="10.18"/>
	</g>
	<g>
		
			<rect x="25.93" y="42.97" fill="#FFFFFF" stroke="#1D2132" stroke-width="0.1" stroke-linecap="square" stroke-miterlimit="10" width="0.66" height="7.84"/>
		
			<rect x="26.21" y="43.4" fill="#FFFFFF" stroke="#1D2132" stroke-width="0.1" stroke-linecap="square" stroke-miterlimit="10" width="0.39" height="6.98"/>
	</g>
	<g>
		
			<rect x="25.94" y="67.7" fill="#FFFFFF" stroke="#1D2132" stroke-width="0.1" stroke-linecap="square" stroke-miterlimit="10" width="0.66" height="5.23"/>
		<g>
			
				<rect x="26.6" y="68.07" fill="#FFFFFF" stroke="#1D2132" stroke-width="0.1" stroke-linecap="square" stroke-miterlimit="10" width="1" height="0.29"/>
			
				<rect x="26.6" y="68.07" fill="#FFFFFF" stroke="#1D2132" stroke-width="0.1" stroke-linecap="square" stroke-miterlimit="10" width="0.18" height="0.29"/>
		</g>
		<g>
			
				<rect x="26.6" y="69.47" fill="#FFFFFF" stroke="#1D2132" stroke-width="0.1" stroke-linecap="square" stroke-miterlimit="10" width="1" height="0.29"/>
			
				<rect x="26.6" y="69.47" fill="#FFFFFF" stroke="#1D2132" stroke-width="0.1" stroke-linecap="square" stroke-miterlimit="10" width="0.18" height="0.29"/>
		</g>
		<g>
			
				<rect x="26.6" y="70.87" fill="#FFFFFF" stroke="#1D2132" stroke-width="0.1" stroke-linecap="square" stroke-miterlimit="10" width="1" height="0.29"/>
			
				<rect x="26.6" y="70.87" fill="#FFFFFF" stroke="#1D2132" stroke-width="0.1" stroke-linecap="square" stroke-miterlimit="10" width="0.18" height="0.29"/>
		</g>
		<g>
			
				<rect x="26.6" y="72.26" fill="#FFFFFF" stroke="#1D2132" stroke-width="0.1" stroke-linecap="square" stroke-miterlimit="10" width="1" height="0.29"/>
			
				<rect x="26.6" y="72.26" fill="#FFFFFF" stroke="#1D2132" stroke-width="0.1" stroke-linecap="square" stroke-miterlimit="10" width="0.18" height="0.29"/>
		</g>
	</g>
	<g>
		<g>
			<g>
				
					<rect x="3.61" y="34.23" fill="#FFFFFF" stroke="#1D2132" stroke-width="0.1" stroke-linecap="square" stroke-miterlimit="10" width="4.63" height="4.63"/>
				<polygon fill="#FFFFFF" stroke="#1D2132" stroke-width="0.1" stroke-linecap="square" stroke-miterlimit="10" points="
					8.55,37.45 8.55,35.64 8.24,35.64 8.24,35.16 8.7,35.16 8.7,37.93 8.24,37.93 8.24,37.45 				"/>
			</g>
			<g>
				
					<rect x="3.61" y="6.08" fill="#FFFFFF" stroke="#1D2132" stroke-width="0.1" stroke-linecap="square" stroke-miterlimit="10" width="4.63" height="4.63"/>
				<polygon fill="#FFFFFF" stroke="#1D2132" stroke-width="0.1" stroke-linecap="square" stroke-miterlimit="10" points="8.55,9.3 
					8.55,7.49 8.24,7.49 8.24,7.01 8.7,7.01 8.7,9.78 8.24,9.78 8.24,9.3 				"/>
			</g>
		</g>
		<g>
			<g>
				
					<rect x="3.22" y="11.49" fill="#FFFFFF" stroke="#1D2132" stroke-width="0.1" stroke-linecap="square" stroke-miterlimit="22.9256" width="24.37" height="21.94"/>
				<path fill="#FFFFFF" stroke="#1D2132" stroke-width="0.1" stroke-linecap="square" stroke-miterlimit="22.9256" d="M3.96,11.77
					c-0.27,0.03-0.1,0.71-0.24,0.37c-0.14-0.34-0.21,0-0.21,0.34c0,0.34,0,13.81,0,14.43s0,1.49,0,1.49s-0.08-0.07,0,0.21
					c0.08,0.29-0.08,4.03,0,4.33c0.08,0.29,0.45-0.5,0.58-0.35c0.12,0.15-0.68,0.51-0.47,0.52c0.27,0.03,1.06-0.1,1.58-0.06
					c0.52,0.04,0.82,0.24,1.52,0.01c0.36-0.12,0.78,0.13,1.9,0.11s1.55-0.02,3.07,0s3.61,0.01,4.95,0.06
					c1.08,0.04,1.75-0.14,2.23-0.03c0.17,0.04,1.14-0.01,2.38,0.03c1.24,0.04,5.02-0.06,5.67-0.07c0.65-0.01,0.42,0.01,0.36-0.09
					c-0.06-0.1-0.4-0.14-0.64-0.29c-0.25-0.16,0.06-0.18,0.46,0.06c0.41,0.24,0.2,0.06,0.2-0.48c0-0.36-0.04-1.06-0.16-1.14
					c-0.12-0.09-0.09-0.07,0.06-0.16c0.16-0.09,0.19-0.68,0.06-1.08c-0.12-0.39,0-2.37-0.09-2.47c-0.09-0.1-0.16-0.1,0-0.18
					c0.16-0.08,0.16-11.27,0.16-12.89c0-1.65-0.02-2.33-0.06-2.54c-0.03-0.19-0.58,0.54-0.83,0.61c-0.25,0.06,0.06-0.15,0.13-0.21
					c0.06-0.07,0.45-0.29,0.54-0.41c0.09-0.12-0.29,0.04-0.7,0.12c-0.59,0.12,0.48-0.15,0.01-0.16c-0.41,0-0.26,0.08-0.63,0.01
					c-0.16-0.03-0.51-0.06-1.11-0.03c-0.98,0.04-2.49-0.11-4.33-0.09c-1.83,0.02-2.36-0.04-2.49,0.08c-0.12,0.12-0.8,0.37-0.87,0.23
					c-0.06-0.14,0.26-0.26-0.58-0.29c-0.84-0.04-2.35,0.07-3.31,0.07s-2.36-0.11-2.6,0.03c-0.25,0.14-0.47,0.12-0.63,0
					c-0.16-0.12-0.25,0.02-1.24,0.02s-1.6-0.05-2.57-0.12c-0.58-0.05-1.18,0-1.18,0C4.63,11.86,4.23,11.72,3.96,11.77z"/>
				<path fill="#FFFFFF" stroke="#1D2132" stroke-width="0.1" stroke-linecap="square" stroke-miterlimit="22.9256" d="M9.76,13.04
					c-0.37,0.8-0.09,2.98,0.13,3.63s-0.3,13.72-0.06,14.62s0.51,1.32,0.38,0.84c-0.12-0.49,0.09-1.25,0.06-0.38
					c-0.04,0.87,0.05,1.59,0.05,1.82c0,0.06,0,0.06,0.47,0.09c0.36,0.03,0.66,0.11,0.69,0c0.04-0.1-0.59-1.47-0.63-1.53
					c-0.15-0.23,0.72,1.36,0.78,1.51c0.06,0.14,0.38,0.04,1.34-0.06c0.95-0.09,1.93,0.02,2.41-0.09c0.5-0.12-0.47,0.02-0.78-0.06
					s-0.46,0.05-1.4-1.26c-0.94-1.31-1.31-13.06-1.45-15.16c-0.06-0.83-0.28-2.67-0.06-3.4c0.17-0.57,0.35-1.22,0.29-1.33
					c-0.06-0.11-0.13,0.09-0.29,0.29c-0.16,0.2-0.18,0.22-0.41,0.4c-0.22,0.18,0.28-0.48,0.97-1.09c0.68-0.61,1.87-0.29,1.87-0.38
					s-3.45-0.16-4.17-0.06C9.44,11.52,10.15,12.23,9.76,13.04z"/>
				<g>
					<path fill="#FFFFFF" stroke="#1D2132" stroke-width="0.1" stroke-linecap="square" stroke-miterlimit="22.9256" d="M3.36,24.17
						c-0.11,0.29-0.09,1.09-0.13,2.89c-0.04,1.8,0.06,2.52,0.1,2.86c0.04,0.33,0.25,1.01,0.11,1.18c-0.14,0.17,0.17,0.29,0.28,0.25
						c0.1-0.05,0.58-0.09,1.41-0.01c0.84,0.08,1.98-0.21,2.08-0.08s0.17-0.08,0.14-0.25c-0.04-0.17,0.07-0.46,0.09-0.81
						c0.08-1.61,0.17-2.63,0.07-4.94c-0.03-0.6-0.23-1.33-0.09-1.58c0.14-0.26,0-0.29-0.17-0.21c-0.17,0.08-0.26,0.2-0.92-0.01
						c-0.65-0.21-1.18-0.17-1.87-0.05c-0.7,0.13-0.86,0.08-0.96,0c-0.1-0.08-0.16-0.17-0.16,0.17C3.34,23.66,3.45,23.86,3.36,24.17z
						"/>
					<path fill="none" stroke="#1D2132" stroke-width="0.1" stroke-linecap="square" stroke-miterlimit="22.9256" d="M6.79,30.88
						c0,0,0.64-1.49,0.64-3.55s-0.47-3.43-0.47-3.43"/>
				</g>
				<g>
					<path fill="#FFFFFF" stroke="#1D2132" stroke-width="0.1" stroke-linecap="square" stroke-miterlimit="22.9256" d="M5.58,25.04
						c-0.08,0.21-0.07,0.79-0.1,2.1c-0.03,1.31,0.06,1.83,0.08,2.08c0.03,0.24,0.19,0.74,0.08,0.86c-0.12,0.12,0.14,0.21,0.22,0.18
						c0.08-0.04,0.47-0.07,1.14-0.01c0.67,0.06,1.6-0.16,1.68-0.06C8.78,30.28,8.83,30.12,8.8,30c-0.03-0.12,0.06-0.34,0.07-0.59
						c0.06-1.17,0.15-1.91,0.06-3.59c-0.03-0.43-0.18-0.97-0.07-1.15c0.11-0.18,0-0.22-0.14-0.16c-0.15,0.06-0.21,0.15-0.75-0.01
						c-0.52-0.15-0.95-0.12-1.51-0.03c-0.56,0.09-0.69,0.06-0.77,0c-0.08-0.06-0.13-0.13-0.13,0.12
						C5.57,24.66,5.65,24.81,5.58,25.04z"/>
					<path fill="none" stroke="#1D2132" stroke-width="0.1" stroke-linecap="square" stroke-miterlimit="22.9256" d="M8.35,29.91
						c0,0,0.52-1.09,0.52-2.59c0-1.49-0.38-2.49-0.38-2.49"/>
				</g>
				<g>
					<path fill="#FFFFFF" stroke="#1D2132" stroke-width="0.1" stroke-linecap="square" stroke-miterlimit="22.9256" d="M3.36,14.56
						c-0.11,0.29-0.09,1.09-0.13,2.89c-0.04,1.8,0.06,2.52,0.1,2.86c0.04,0.33,0.25,1.01,0.11,1.18c-0.14,0.17,0.17,0.29,0.28,0.25
						c0.1-0.05,0.58-0.09,1.41-0.01c0.84,0.08,1.98-0.21,2.08-0.08s0.17-0.08,0.14-0.25c-0.04-0.17,0.07-0.46,0.09-0.81
						c0.08-1.61,0.17-2.63,0.07-4.94c-0.03-0.6-0.23-1.33-0.09-1.58c0.14-0.26,0-0.29-0.17-0.21c-0.17,0.08-0.26,0.2-0.92-0.01
						c-0.65-0.21-1.18-0.17-1.87-0.05c-0.7,0.13-0.86,0.08-0.96,0c-0.1-0.08-0.16-0.17-0.16,0.17C3.34,14.05,3.45,14.25,3.36,14.56z
						"/>
					<path fill="none" stroke="#1D2132" stroke-width="0.1" stroke-linecap="square" stroke-miterlimit="22.9256" d="M6.79,21.28
						c0,0,0.64-1.49,0.64-3.55s-0.47-3.43-0.47-3.43"/>
				</g>
				<g>
					<path fill="#FFFFFF" stroke="#1D2132" stroke-width="0.1" stroke-linecap="square" stroke-miterlimit="22.9256" d="M5.58,15.43
						c-0.08,0.21-0.07,0.79-0.1,2.1c-0.03,1.31,0.06,1.83,0.08,2.08c0.03,0.24,0.19,0.74,0.08,0.86c-0.12,0.12,0.14,0.21,0.22,0.18
						c0.08-0.04,0.47-0.07,1.14-0.01c0.67,0.06,1.6-0.16,1.68-0.06c0.08,0.09,0.14-0.06,0.11-0.18c-0.03-0.12,0.06-0.34,0.07-0.59
						c0.06-1.17,0.15-1.91,0.06-3.59c-0.03-0.43-0.18-0.97-0.07-1.15c0.11-0.18,0-0.22-0.14-0.16c-0.15,0.06-0.21,0.15-0.75-0.01
						c-0.52-0.15-0.95-0.12-1.51-0.03s-0.69,0.06-0.77,0c-0.08-0.06-0.13-0.13-0.13,0.12C5.57,15.05,5.65,15.2,5.58,15.43z"/>
					<path fill="none" stroke="#1D2132" stroke-width="0.1" stroke-linecap="square" stroke-miterlimit="22.9256" d="M8.35,20.3
						c0,0,0.52-1.09,0.52-2.59c0-1.49-0.38-2.49-0.38-2.49"/>
				</g>
				<path fill="#FFFFFF" stroke="#1D2132" stroke-width="0.1" stroke-linecap="square" stroke-miterlimit="22.9256" d="M26.79,33.54
					h-6.78c-0.31,0-0.57-0.25-0.57-0.57V11.8c0-0.31,0.25-0.57,0.57-0.57h6.78c0.31,0,0.57,0.25,0.57,0.57v21.16
					C27.36,33.29,27.1,33.55,26.79,33.54z"/>
			</g>
			<g>
				
					<rect x="2.14" y="7.84" fill="#FFFFFF" stroke="#1D2132" stroke-width="0.1" stroke-linecap="square" stroke-miterlimit="22.9256" width="0.61" height="29.25"/>
				<path fill="#FFFFFF" stroke="#1D2132" stroke-width="0.1" stroke-linecap="square" stroke-miterlimit="22.9256" d="M2.77,36.83
					H2.75V8.1h0.04c0.24,0,0.43,0.19,0.43,0.43V36.4C3.22,36.64,3.02,36.83,2.77,36.83z"/>
				<g>
					<g>
						<g>
							<path fill="#FFFFFF" stroke="#1D2132" stroke-width="0.1" stroke-linecap="square" stroke-miterlimit="22.9256" d="
								M2.75,36.12h0.15c0.24,0,0.43-0.19,0.43-0.43v-0.06c0-0.24-0.19-0.43-0.43-0.43H2.75V36.12L2.75,36.12z"/>
							<path fill="#FFFFFF" stroke="#1D2132" stroke-width="0.1" stroke-linecap="square" stroke-miterlimit="22.9256" d="
								M7.23,32.27L7.23,32.27c0.1-0.02,0.24,0.21,0.31,0.52c0.07,0.3,0.06,0.57-0.05,0.6l0,0c-0.39,0.07-0.78,0.09-1.17,0.06
								l-0.17-0.69C6.5,32.52,6.86,32.37,7.23,32.27z"/>
							
								<ellipse transform="matrix(0.9728 -0.2315 0.2315 0.9728 -7.4921 2.3446)" fill="#FFFFFF" stroke="#1D2132" stroke-width="0.1" stroke-linecap="square" stroke-miterlimit="22.9256" cx="6.24" cy="33.1" rx="0.12" ry="0.36"/>
							<path fill="#FFFFFF" stroke="#1D2132" stroke-width="0.1" stroke-linecap="square" stroke-miterlimit="22.9256" d="
								M6.14,33.05l-0.07,0.03c-0.02,0.01-0.44,0.17-0.75,0.8c-0.06,0.11-0.1,0.23-0.16,0.36C5,34.61,4.84,34.98,4.52,35.23
								c-0.42,0.33-1.12,0.33-1.13,0.33H3.32v0.16h0.07c0.04,0,0.76,0,1.23-0.37c0.35-0.29,0.52-0.69,0.68-1.06
								c0.06-0.12,0.1-0.24,0.16-0.35c0.29-0.57,0.67-0.73,0.67-0.73l0.07-0.03C6.22,33.13,6.19,33.04,6.14,33.05z"/>
						</g>
					</g>
					<g>
						<g>
							<path fill="#FFFFFF" stroke="#1D2132" stroke-width="0.1" stroke-linecap="square" stroke-miterlimit="22.9256" d="
								M2.75,8.81h0.15c0.24,0,0.43,0.19,0.43,0.43v0.06c0,0.24-0.19,0.43-0.43,0.43H2.75V8.81L2.75,8.81z"/>
							<path fill="#FFFFFF" stroke="#1D2132" stroke-width="0.1" stroke-linecap="square" stroke-miterlimit="22.9256" d="
								M7.23,12.67L7.23,12.67c0.1,0.02,0.24-0.21,0.31-0.52c0.07-0.3,0.06-0.57-0.05-0.6l0,0c-0.39-0.07-0.78-0.09-1.17-0.06
								l-0.17,0.69C6.5,12.41,6.86,12.57,7.23,12.67z"/>
							
								<ellipse transform="matrix(0.2315 -0.9728 0.9728 0.2315 -6.7222 15.1774)" fill="#FFFFFF" stroke="#1D2132" stroke-width="0.1" stroke-linecap="square" stroke-miterlimit="22.9256" cx="6.25" cy="11.84" rx="0.36" ry="0.12"/>
							<path fill="#FFFFFF" stroke="#1D2132" stroke-width="0.1" stroke-linecap="square" stroke-miterlimit="22.9256" d="
								M6.14,11.89l-0.07-0.03c-0.02-0.01-0.44-0.17-0.75-0.8c-0.06-0.11-0.1-0.23-0.16-0.36C5,10.33,4.84,9.95,4.52,9.71
								C4.1,9.37,3.4,9.37,3.39,9.37H3.32V9.22h0.07c0.04,0,0.76,0,1.23,0.37c0.35,0.29,0.52,0.69,0.68,1.06
								c0.06,0.12,0.1,0.24,0.16,0.35c0.29,0.57,0.67,0.73,0.67,0.73l0.07,0.03C6.22,11.8,6.19,11.89,6.14,11.89z"/>
						</g>
					</g>
				</g>
			</g>
		</g>
	</g>
	<g>
		<g>
			
				<rect x="21.32" y="4.07" fill="#FFFFFF" stroke="#1D2132" stroke-width="0.1" stroke-linecap="square" stroke-miterlimit="10" width="10.45" height="0.79"/>
			
				<line fill="none" stroke="#1D2132" stroke-width="0.1" stroke-linecap="square" stroke-miterlimit="10" x1="30.95" y1="4.7" x2="30.95" y2="4.23"/>
			
				<line fill="none" stroke="#1D2132" stroke-width="0.1" stroke-linecap="square" stroke-miterlimit="10" x1="30.66" y1="4.7" x2="30.66" y2="4.23"/>
			
				<line fill="none" stroke="#1D2132" stroke-width="0.1" stroke-linecap="square" stroke-miterlimit="10" x1="31.51" y1="4.7" x2="31.51" y2="4.23"/>
			
				<line fill="none" stroke="#1D2132" stroke-width="0.1" stroke-linecap="square" stroke-miterlimit="10" x1="31.22" y1="4.7" x2="31.22" y2="4.23"/>
			
				<line fill="none" stroke="#1D2132" stroke-width="0.1" stroke-linecap="square" stroke-miterlimit="10" x1="30.38" y1="4.7" x2="30.38" y2="4.23"/>
			
				<line fill="none" stroke="#1D2132" stroke-width="0.1" stroke-linecap="square" stroke-miterlimit="10" x1="30.1" y1="4.7" x2="30.1" y2="4.23"/>
			
				<line fill="none" stroke="#1D2132" stroke-width="0.1" stroke-linecap="square" stroke-miterlimit="10" x1="29.82" y1="4.7" x2="29.82" y2="4.23"/>
			
				<line fill="none" stroke="#1D2132" stroke-width="0.1" stroke-linecap="square" stroke-miterlimit="10" x1="29.53" y1="4.7" x2="29.53" y2="4.23"/>
			
				<line fill="none" stroke="#1D2132" stroke-width="0.1" stroke-linecap="square" stroke-miterlimit="10" x1="29.25" y1="4.7" x2="29.25" y2="4.23"/>
			
				<line fill="none" stroke="#1D2132" stroke-width="0.1" stroke-linecap="square" stroke-miterlimit="10" x1="28.97" y1="4.7" x2="28.97" y2="4.23"/>
			
				<line fill="none" stroke="#1D2132" stroke-width="0.1" stroke-linecap="square" stroke-miterlimit="10" x1="28.12" y1="4.7" x2="28.12" y2="4.23"/>
			
				<line fill="none" stroke="#1D2132" stroke-width="0.1" stroke-linecap="square" stroke-miterlimit="10" x1="27.84" y1="4.7" x2="27.84" y2="4.23"/>
			
				<line fill="none" stroke="#1D2132" stroke-width="0.1" stroke-linecap="square" stroke-miterlimit="10" x1="28.69" y1="4.7" x2="28.69" y2="4.23"/>
			
				<line fill="none" stroke="#1D2132" stroke-width="0.1" stroke-linecap="square" stroke-miterlimit="10" x1="28.4" y1="4.7" x2="28.4" y2="4.23"/>
			
				<line fill="none" stroke="#1D2132" stroke-width="0.1" stroke-linecap="square" stroke-miterlimit="10" x1="27.56" y1="4.7" x2="27.56" y2="4.23"/>
			
				<line fill="none" stroke="#1D2132" stroke-width="0.1" stroke-linecap="square" stroke-miterlimit="10" x1="27.27" y1="4.7" x2="27.27" y2="4.23"/>
			
				<line fill="none" stroke="#1D2132" stroke-width="0.1" stroke-linecap="square" stroke-miterlimit="10" x1="27" y1="4.7" x2="27" y2="4.23"/>
			
				<line fill="none" stroke="#1D2132" stroke-width="0.1" stroke-linecap="square" stroke-miterlimit="10" x1="26.71" y1="4.7" x2="26.71" y2="4.23"/>
			
				<line fill="none" stroke="#1D2132" stroke-width="0.1" stroke-linecap="square" stroke-miterlimit="10" x1="26.43" y1="4.7" x2="26.43" y2="4.23"/>
			
				<line fill="none" stroke="#1D2132" stroke-width="0.1" stroke-linecap="square" stroke-miterlimit="10" x1="26.14" y1="4.7" x2="26.14" y2="4.23"/>
			
				<line fill="none" stroke="#1D2132" stroke-width="0.1" stroke-linecap="square" stroke-miterlimit="10" x1="25.3" y1="4.7" x2="25.3" y2="4.23"/>
			
				<line fill="none" stroke="#1D2132" stroke-width="0.1" stroke-linecap="square" stroke-miterlimit="10" x1="25.01" y1="4.7" x2="25.01" y2="4.23"/>
			
				<line fill="none" stroke="#1D2132" stroke-width="0.1" stroke-linecap="square" stroke-miterlimit="10" x1="25.87" y1="4.7" x2="25.87" y2="4.23"/>
			
				<line fill="none" stroke="#1D2132" stroke-width="0.1" stroke-linecap="square" stroke-miterlimit="10" x1="25.58" y1="4.7" x2="25.58" y2="4.23"/>
			
				<line fill="none" stroke="#1D2132" stroke-width="0.1" stroke-linecap="square" stroke-miterlimit="10" x1="24.74" y1="4.7" x2="24.74" y2="4.23"/>
			
				<line fill="none" stroke="#1D2132" stroke-width="0.1" stroke-linecap="square" stroke-miterlimit="10" x1="24.45" y1="4.7" x2="24.45" y2="4.23"/>
			
				<line fill="none" stroke="#1D2132" stroke-width="0.1" stroke-linecap="square" stroke-miterlimit="10" x1="24.17" y1="4.7" x2="24.17" y2="4.23"/>
			
				<line fill="none" stroke="#1D2132" stroke-width="0.1" stroke-linecap="square" stroke-miterlimit="10" x1="23.89" y1="4.7" x2="23.89" y2="4.23"/>
			
				<line fill="none" stroke="#1D2132" stroke-width="0.1" stroke-linecap="square" stroke-miterlimit="10" x1="23.61" y1="4.7" x2="23.61" y2="4.23"/>
			
				<line fill="none" stroke="#1D2132" stroke-width="0.1" stroke-linecap="square" stroke-miterlimit="10" x1="23.32" y1="4.7" x2="23.32" y2="4.23"/>
			
				<line fill="none" stroke="#1D2132" stroke-width="0.1" stroke-linecap="square" stroke-miterlimit="10" x1="22.48" y1="4.7" x2="22.48" y2="4.23"/>
			
				<line fill="none" stroke="#1D2132" stroke-width="0.1" stroke-linecap="square" stroke-miterlimit="10" x1="22.19" y1="4.7" x2="22.19" y2="4.23"/>
			
				<line fill="none" stroke="#1D2132" stroke-width="0.1" stroke-linecap="square" stroke-miterlimit="10" x1="23.04" y1="4.7" x2="23.04" y2="4.23"/>
			
				<line fill="none" stroke="#1D2132" stroke-width="0.1" stroke-linecap="square" stroke-miterlimit="10" x1="22.76" y1="4.7" x2="22.76" y2="4.23"/>
			
				<line fill="none" stroke="#1D2132" stroke-width="0.1" stroke-linecap="square" stroke-miterlimit="10" x1="21.91" y1="4.7" x2="21.91" y2="4.23"/>
			
				<line fill="none" stroke="#1D2132" stroke-width="0.1" stroke-linecap="square" stroke-miterlimit="10" x1="21.63" y1="4.7" x2="21.63" y2="4.23"/>
		</g>
		<path fill="none" stroke="#1D2132" stroke-width="0.1" stroke-linecap="square" stroke-miterlimit="10" d="M27.73,5.74
			c0.41,0,0-0.73,0.41-0.73s0,0.73,0.41,0.73s0-0.73,0.41-0.73s0,0.73,0.41,0.73s0-0.73,0.41-0.73c0.41,0,0,0.73,0.41,0.73
			c0.41,0,0-0.73,0.41-0.73s0,0.73,0.41,0.73s0-0.73,0.41-0.73s0,0.73,0.41,0.73c0.41,0,0-0.73,0.41-0.73c0.41,0,0,0.73,0.41,0.73
			s0-0.73,0.41-0.73s0,0.73,0.41,0.73s0-0.73,0.41-0.73s0,0.73,0.41,0.73s0-0.73,0.41-0.73s0,0.73,0.41,0.73s0-0.73,0.41-0.73
			c0.41,0,0,0.73,0.41,0.73c0.41,0,0-0.73,0.41-0.73s0,0.73,0.41,0.73s0-0.73,0.41-0.73s0,0.73,0.41,0.73s0-0.73,0.41-0.73
			s0,0.73,0.41,0.73s0-0.73,0.41-0.73s0,0.73,0.41,0.73s0-0.73,0.41-0.73s0,0.73,0.41,0.73s0-0.73,0.41-0.73
			c0.41,0,0,0.73,0.41,0.73c0.41,0,0-0.73,0.41-0.73"/>
		<path fill="none" stroke="#1D2132" stroke-width="0.1" stroke-linecap="square" stroke-miterlimit="10" d="M25.27,5.74
			c-0.41,0,0-0.73-0.41-0.73s0,0.73-0.41,0.73s0-0.73-0.41-0.73s0,0.73-0.41,0.73s0-0.73-0.41-0.73c-0.41,0,0,0.73-0.41,0.73
			c-0.41,0,0-0.73-0.41-0.73s0,0.73-0.41,0.73s0-0.73-0.41-0.73s0,0.73-0.41,0.73c-0.41,0,0-0.73-0.41-0.73
			c-0.41,0,0,0.73-0.41,0.73s0-0.73-0.41-0.73s0,0.73-0.41,0.73s0-0.73-0.41-0.73s0,0.73-0.41,0.73c-0.41,0,0-0.73-0.41-0.73
			c-0.41,0,0,0.73-0.41,0.73s0-0.73-0.41-0.73s0,0.73-0.41,0.73s0-0.73-0.41-0.73s0,0.73-0.41,0.73c-0.41,0,0-0.73-0.41-0.73
			c-0.41,0,0,0.73-0.41,0.73c-0.41,0,0-0.73-0.41-0.73c-0.41,0,0,0.73-0.41,0.73s0-0.73-0.41-0.73c-0.41,0,0,0.73-0.41,0.73
			c-0.41,0,0-0.73-0.41-0.73s0,0.73-0.41,0.73c-0.41,0,0-0.73-0.41-0.73c-0.41,0,0,0.73-0.41,0.73s0-0.73-0.41-0.73"/>
	</g>
	<g>
		<g>
			
				<rect x="59.42" y="4.07" fill="#FFFFFF" stroke="#1D2132" stroke-width="0.1" stroke-linecap="square" stroke-miterlimit="10" width="10.45" height="0.79"/>
			
				<line fill="none" stroke="#1D2132" stroke-width="0.1" stroke-linecap="square" stroke-miterlimit="10" x1="69.04" y1="4.7" x2="69.04" y2="4.23"/>
			
				<line fill="none" stroke="#1D2132" stroke-width="0.1" stroke-linecap="square" stroke-miterlimit="10" x1="68.77" y1="4.7" x2="68.77" y2="4.23"/>
			
				<line fill="none" stroke="#1D2132" stroke-width="0.1" stroke-linecap="square" stroke-miterlimit="10" x1="69.61" y1="4.7" x2="69.61" y2="4.23"/>
			
				<line fill="none" stroke="#1D2132" stroke-width="0.1" stroke-linecap="square" stroke-miterlimit="10" x1="69.33" y1="4.7" x2="69.33" y2="4.23"/>
			
				<line fill="none" stroke="#1D2132" stroke-width="0.1" stroke-linecap="square" stroke-miterlimit="10" x1="68.48" y1="4.7" x2="68.48" y2="4.23"/>
			
				<line fill="none" stroke="#1D2132" stroke-width="0.1" stroke-linecap="square" stroke-miterlimit="10" x1="68.2" y1="4.7" x2="68.2" y2="4.23"/>
			
				<line fill="none" stroke="#1D2132" stroke-width="0.1" stroke-linecap="square" stroke-miterlimit="10" x1="67.92" y1="4.7" x2="67.92" y2="4.23"/>
			
				<line fill="none" stroke="#1D2132" stroke-width="0.1" stroke-linecap="square" stroke-miterlimit="10" x1="67.64" y1="4.7" x2="67.64" y2="4.23"/>
			
				<line fill="none" stroke="#1D2132" stroke-width="0.1" stroke-linecap="square" stroke-miterlimit="10" x1="67.35" y1="4.7" x2="67.35" y2="4.23"/>
			
				<line fill="none" stroke="#1D2132" stroke-width="0.1" stroke-linecap="square" stroke-miterlimit="10" x1="67.07" y1="4.7" x2="67.07" y2="4.23"/>
			
				<line fill="none" stroke="#1D2132" stroke-width="0.1" stroke-linecap="square" stroke-miterlimit="10" x1="66.22" y1="4.7" x2="66.22" y2="4.23"/>
			
				<line fill="none" stroke="#1D2132" stroke-width="0.1" stroke-linecap="square" stroke-miterlimit="10" x1="65.94" y1="4.7" x2="65.94" y2="4.23"/>
			
				<line fill="none" stroke="#1D2132" stroke-width="0.1" stroke-linecap="square" stroke-miterlimit="10" x1="66.79" y1="4.7" x2="66.79" y2="4.23"/>
			
				<line fill="none" stroke="#1D2132" stroke-width="0.1" stroke-linecap="square" stroke-miterlimit="10" x1="66.51" y1="4.7" x2="66.51" y2="4.23"/>
			
				<line fill="none" stroke="#1D2132" stroke-width="0.1" stroke-linecap="square" stroke-miterlimit="10" x1="65.66" y1="4.7" x2="65.66" y2="4.23"/>
			
				<line fill="none" stroke="#1D2132" stroke-width="0.1" stroke-linecap="square" stroke-miterlimit="10" x1="65.38" y1="4.7" x2="65.38" y2="4.23"/>
			
				<line fill="none" stroke="#1D2132" stroke-width="0.1" stroke-linecap="square" stroke-miterlimit="10" x1="65.09" y1="4.7" x2="65.09" y2="4.23"/>
			
				<line fill="none" stroke="#1D2132" stroke-width="0.1" stroke-linecap="square" stroke-miterlimit="10" x1="64.82" y1="4.7" x2="64.82" y2="4.23"/>
			
				<line fill="none" stroke="#1D2132" stroke-width="0.1" stroke-linecap="square" stroke-miterlimit="10" x1="64.53" y1="4.7" x2="64.53" y2="4.23"/>
			
				<line fill="none" stroke="#1D2132" stroke-width="0.1" stroke-linecap="square" stroke-miterlimit="10" x1="64.25" y1="4.7" x2="64.25" y2="4.23"/>
			
				<line fill="none" stroke="#1D2132" stroke-width="0.1" stroke-linecap="square" stroke-miterlimit="10" x1="63.4" y1="4.7" x2="63.4" y2="4.23"/>
			
				<line fill="none" stroke="#1D2132" stroke-width="0.1" stroke-linecap="square" stroke-miterlimit="10" x1="63.12" y1="4.7" x2="63.12" y2="4.23"/>
			
				<line fill="none" stroke="#1D2132" stroke-width="0.1" stroke-linecap="square" stroke-miterlimit="10" x1="63.96" y1="4.7" x2="63.96" y2="4.23"/>
			
				<line fill="none" stroke="#1D2132" stroke-width="0.1" stroke-linecap="square" stroke-miterlimit="10" x1="63.69" y1="4.7" x2="63.69" y2="4.23"/>
			
				<line fill="none" stroke="#1D2132" stroke-width="0.1" stroke-linecap="square" stroke-miterlimit="10" x1="62.83" y1="4.7" x2="62.83" y2="4.23"/>
			
				<line fill="none" stroke="#1D2132" stroke-width="0.1" stroke-linecap="square" stroke-miterlimit="10" x1="62.56" y1="4.7" x2="62.56" y2="4.23"/>
			
				<line fill="none" stroke="#1D2132" stroke-width="0.1" stroke-linecap="square" stroke-miterlimit="10" x1="62.27" y1="4.7" x2="62.27" y2="4.23"/>
			
				<line fill="none" stroke="#1D2132" stroke-width="0.1" stroke-linecap="square" stroke-miterlimit="10" x1="61.99" y1="4.7" x2="61.99" y2="4.23"/>
			
				<line fill="none" stroke="#1D2132" stroke-width="0.1" stroke-linecap="square" stroke-miterlimit="10" x1="61.7" y1="4.7" x2="61.7" y2="4.23"/>
			
				<line fill="none" stroke="#1D2132" stroke-width="0.1" stroke-linecap="square" stroke-miterlimit="10" x1="61.43" y1="4.7" x2="61.43" y2="4.23"/>
			
				<line fill="none" stroke="#1D2132" stroke-width="0.1" stroke-linecap="square" stroke-miterlimit="10" x1="60.58" y1="4.7" x2="60.58" y2="4.23"/>
			
				<line fill="none" stroke="#1D2132" stroke-width="0.1" stroke-linecap="square" stroke-miterlimit="10" x1="60.3" y1="4.7" x2="60.3" y2="4.23"/>
			
				<line fill="none" stroke="#1D2132" stroke-width="0.1" stroke-linecap="square" stroke-miterlimit="10" x1="61.14" y1="4.7" x2="61.14" y2="4.23"/>
			
				<line fill="none" stroke="#1D2132" stroke-width="0.1" stroke-linecap="square" stroke-miterlimit="10" x1="60.86" y1="4.7" x2="60.86" y2="4.23"/>
			
				<line fill="none" stroke="#1D2132" stroke-width="0.1" stroke-linecap="square" stroke-miterlimit="10" x1="60.01" y1="4.7" x2="60.01" y2="4.23"/>
			
				<line fill="none" stroke="#1D2132" stroke-width="0.1" stroke-linecap="square" stroke-miterlimit="10" x1="59.73" y1="4.7" x2="59.73" y2="4.23"/>
		</g>
		<path fill="none" stroke="#1D2132" stroke-width="0.1" stroke-linecap="square" stroke-miterlimit="10" d="M65.83,5.74
			c0.41,0,0-0.73,0.41-0.73c0.41,0,0,0.73,0.41,0.73c0.41,0,0-0.73,0.41-0.73c0.41,0,0,0.73,0.41,0.73s0-0.73,0.41-0.73
			c0.41,0,0,0.73,0.41,0.73c0.41,0,0-0.73,0.41-0.73c0.41,0,0,0.73,0.41,0.73c0.41,0,0-0.73,0.41-0.73c0.41,0,0,0.73,0.41,0.73
			c0.41,0,0-0.73,0.41-0.73c0.41,0,0,0.73,0.41,0.73c0.41,0,0-0.73,0.41-0.73c0.41,0,0,0.73,0.41,0.73c0.41,0,0-0.73,0.41-0.73
			c0.41,0,0,0.73,0.41,0.73c0.41,0,0-0.73,0.41-0.73s0,0.73,0.41,0.73c0.41,0,0-0.73,0.41-0.73c0.41,0,0,0.73,0.41,0.73
			c0.41,0,0-0.73,0.41-0.73c0.41,0,0,0.73,0.41,0.73c0.41,0,0-0.73,0.41-0.73c0.41,0,0,0.73,0.41,0.73c0.41,0,0-0.73,0.41-0.73
			c0.41,0,0,0.73,0.41,0.73c0.41,0,0-0.73,0.41-0.73c0.41,0,0,0.73,0.41,0.73s0-0.73,0.41-0.73c0.41,0,0,0.73,0.41,0.73
			c0.41,0,0-0.73,0.41-0.73c0.41,0,0,0.73,0.41,0.73c0.41,0,0-0.73,0.41-0.73"/>
		<path fill="none" stroke="#1D2132" stroke-width="0.1" stroke-linecap="square" stroke-miterlimit="10" d="M63.37,5.74
			c-0.41,0,0-0.73-0.41-0.73s0,0.73-0.41,0.73s0-0.73-0.41-0.73s0,0.73-0.41,0.73c-0.41,0,0-0.73-0.41-0.73
			c-0.41,0,0,0.73-0.41,0.73s0-0.73-0.41-0.73c-0.41,0,0,0.73-0.41,0.73c-0.41,0,0-0.73-0.41-0.73s0,0.73-0.41,0.73
			s0-0.73-0.41-0.73s0,0.73-0.41,0.73s0-0.73-0.41-0.73s0,0.73-0.41,0.73s0-0.73-0.41-0.73s0,0.73-0.41,0.73s0-0.73-0.41-0.73
			s0,0.73-0.41,0.73s0-0.73-0.41-0.73c-0.41,0,0,0.73-0.41,0.73c-0.41,0,0-0.73-0.41-0.73s0,0.73-0.41,0.73s0-0.73-0.41-0.73
			s0,0.73-0.41,0.73s0-0.73-0.41-0.73s0,0.73-0.41,0.73s0-0.73-0.41-0.73s0,0.73-0.41,0.73s0-0.73-0.41-0.73s0,0.73-0.41,0.73
			s0-0.73-0.41-0.73c-0.41,0,0,0.73-0.41,0.73c-0.41,0,0-0.73-0.41-0.73"/>
	</g>
	<g>
		<g>
			<path fill="none" stroke="#1D2132" stroke-width="0.1" stroke-linejoin="bevel" stroke-dasharray="0.4671,0.4671" d="M70.67,9.81
				H48.39c-0.7,0-1.27,0.57-1.27,1.27v15.75c0,0.7,0.57,1.27,1.27,1.27h22.29c0.7,0,1.27-0.57,1.27-1.27V11.08
				C71.95,10.38,71.38,9.81,70.67,9.81z"/>
		</g>
		<g>
			<path fill="#FFFFFF" stroke="#1D2132" stroke-width="0.1" stroke-linejoin="bevel" stroke-miterlimit="22.9256" d="M54.78,9.22
				V8.4c0-0.33-0.27-0.6-0.6-0.6H45.7v22.32h8.48c0.33,0,0.6-0.27,0.6-0.6v-0.82c0-0.33-0.27-0.6-0.6-0.6h-6
				c-0.33,0-0.6-0.27-0.6-0.6V10.41c0-0.33,0.27-0.6,0.6-0.6h6C54.51,9.81,54.78,9.54,54.78,9.22z"/>
			<path fill="none" stroke="#1D2132" stroke-width="0.1" stroke-linejoin="bevel" stroke-miterlimit="22.9256" d="M45.7,30.12
				c0,0,0.94-0.46,1.45-1.29c0.51-0.83,0.43-1.31,0.43-1.31"/>
			<path fill="none" stroke="#1D2132" stroke-width="0.1" stroke-linejoin="bevel" stroke-miterlimit="22.9256" d="M47.59,30.12
				c0,0,0.5-0.26,0.61-1.01c0.09-0.75-0.12-1.01-0.12-1.01"/>
			<path fill="none" stroke="#1D2132" stroke-width="0.1" stroke-linejoin="bevel" stroke-miterlimit="22.9256" d="M45.7,7.8
				c0,0,0.95,0.46,1.45,1.29c0.51,0.83,0.43,1.31,0.43,1.31"/>
			<path fill="none" stroke="#1D2132" stroke-width="0.1" stroke-linejoin="bevel" stroke-miterlimit="22.9256" d="M47.59,7.8
				c0,0,0.5,0.25,0.61,1c0.09,0.75-0.12,1.01-0.12,1.01"/>
			<path fill="#FFFFFF" stroke="#1D2132" stroke-width="0.1" stroke-linejoin="bevel" stroke-miterlimit="22.9256" d="M48.66,18.96
				h5.68c0.6,0,1.08,0.48,1.08,1.08v6.99c0,0.6-0.48,1.08-1.08,1.08h-5.68c-0.6,0-1.08-0.48-1.08-1.08v-6.99
				C47.58,19.44,48.06,18.96,48.66,18.96z"/>
			<path fill="#FFFFFF" stroke="#1D2132" stroke-width="0.1" stroke-linejoin="bevel" stroke-miterlimit="22.9256" d="M48.66,9.81
				h5.68c0.6,0,1.08,0.48,1.08,1.08v6.99c0,0.6-0.48,1.08-1.08,1.08h-5.68c-0.6,0-1.08-0.48-1.08-1.08v-6.99
				C47.58,10.29,48.06,9.81,48.66,9.81z"/>
			<path fill="#FFFFFF" stroke="#1D2132" stroke-width="0.1" stroke-linejoin="bevel" stroke-miterlimit="22.9256" d="M47.87,18.95
				h0.41c0.42,0,0.76,0.34,0.76,0.76v7.64c0,0.42-0.34,0.76-0.76,0.76h-0.41c-0.42,0-0.76-0.34-0.76-0.76v-7.64
				C47.11,19.29,47.45,18.96,47.87,18.95z"/>
			<path fill="#FFFFFF" stroke="#1D2132" stroke-width="0.1" stroke-linejoin="bevel" stroke-miterlimit="22.9256" d="M47.87,9.8
				h0.41c0.42,0,0.76,0.34,0.76,0.76v7.64c0,0.42-0.34,0.76-0.76,0.76h-0.41c-0.42,0-0.76-0.34-0.76-0.76v-7.64
				C47.11,10.14,47.45,9.81,47.87,9.8z"/>
		</g>
		<g>
			<path fill="#FFFFFF" stroke="#1D2132" stroke-width="0.1" stroke-linejoin="bevel" stroke-miterlimit="22.9256" d="M52.23,14.18
				c0.03-0.63,0.15-1.24,0.32-2.36c0.17-1.12-0.18-1.26-0.11-1.42c0.07-0.16-0.09-0.19-0.22-0.21c-0.13-0.03-0.13-0.2-1.07-0.31
				s-1.23,0.07-1.38-0.04c-0.14-0.11-0.14,0.07-0.26,0.36c-0.1,0.29-0.3,0.99-0.51,2.62c-0.2,1.63,0.07,2.34,0.1,2.54
				c0.04,0.21,0.24,0.09,0.81,0.29c0.57,0.21,1.02,0.08,1.21-0.01s0.53,0,0.64-0.22C51.76,15.43,52.2,14.81,52.23,14.18z"/>
			<path fill="#FFFFFF" stroke="#1D2132" stroke-width="0.1" stroke-linejoin="bevel" stroke-miterlimit="22.9256" d="M52.3,10.19
				c0,0-0.14,0.06-0.66-0.08s-1.71-0.09-1.88,0.03s-0.17,1.12-0.24,2.26s-0.3,1.82-0.34,2.34c-0.04,0.51,0.25,0.53,0.67,0.68
				c0.42,0.15,0.99,0.12,1.22,0.08c0.23-0.05,0.55,0.06,0.55,0.06"/>
		</g>
		<g>
			<path fill="#FFFFFF" stroke="#1D2132" stroke-width="0.1" stroke-linejoin="bevel" stroke-miterlimit="22.9256" d="M52.4,25.09
				c-0.05-0.68-0.01-1.36,0.01-2.58c0.02-1.22-0.35-1.33-0.3-1.51c0.05-0.18-0.1-0.19-0.24-0.19s-0.15-0.18-1.1-0.17
				c-0.95,0.02-1.22,0.26-1.38,0.16c-0.15-0.09-0.13,0.09-0.21,0.43c-0.07,0.34-0.17,1.1-0.16,2.89c0.01,1.78,0.37,2.5,0.44,2.72
				c0.06,0.22,0.24,0.07,0.84,0.2c0.59,0.13,1.02-0.08,1.2-0.19s0.53-0.08,0.61-0.32C52.1,26.52,52.47,25.79,52.4,25.09z"/>
			<path fill="#FFFFFF" stroke="#1D2132" stroke-width="0.1" stroke-linejoin="bevel" stroke-miterlimit="22.9256" d="M51.95,20.83
				c0,0-0.13,0.09-0.66,0.02c-0.53-0.07-1.7,0.15-1.86,0.3c-0.15,0.15-0.02,1.22,0.07,2.46c0.09,1.22-0.07,1.99-0.03,2.54
				c0.03,0.55,0.32,0.52,0.76,0.63c0.44,0.1,0.99-0.01,1.22-0.09c0.22-0.09,0.55-0.02,0.55-0.02"/>
		</g>
	</g>
	<g>
		<g>
			
				<rect x="38.58" y="5.95" fill="#FFFFFF" stroke="#1D2132" stroke-width="0.1" stroke-linejoin="bevel" stroke-miterlimit="22.9256" width="5.99" height="36.1"/>
			
				<rect x="38.58" y="17.83" fill="#FFFFFF" stroke="#1D2132" stroke-width="0.1" stroke-linejoin="bevel" stroke-miterlimit="22.9256" width="5.99" height="12.34"/>
		</g>
		<g>
			<path fill="#FFFFFF" stroke="#1D2132" stroke-width="0.1" stroke-linecap="square" stroke-miterlimit="10" d="M42.15,36.13
				c0-0.06,0.05-0.11,0.11-0.11h0.36c0.12,0,0.19,0.1,0.27,0.21c0.09,0.14,0.22,0.31,0.47,0.36c0.17,0.03,0.32-0.03,0.42-0.16
				c0.1-0.14,0.11-0.33,0.03-0.49c-0.17-0.32-0.52-0.28-0.53-0.28c-0.06,0.01-0.11-0.03-0.12-0.09c-0.01-0.06,0.03-0.11,0.09-0.12
				c0.18-0.03,0.57,0.02,0.76,0.39c0.12,0.24,0.1,0.52-0.05,0.72c-0.14,0.2-0.38,0.28-0.64,0.25c-0.35-0.06-0.51-0.29-0.62-0.45
				c-0.03-0.05-0.07-0.1-0.09-0.11h-0.35C42.2,36.24,42.15,36.19,42.15,36.13z M42.63,36.24L42.63,36.24L42.63,36.24z"/>
			<path fill="#FFFFFF" stroke="#1D2132" stroke-width="0.1" stroke-linecap="square" stroke-miterlimit="10" d="M39.76,39.82v-7.4
				c0-0.28-0.07-0.59,0.2-0.66c0.27-0.07,0.54,0.06,0.66,0.29c0,0.01,0.01,0.01,0.01,0.02l1.6,3.38c0.01,0.03,0.02,0.06,0.02,0.09
				v1.14c0,0.03-0.01,0.06-0.02,0.09l-1.6,3.38c0,0.01-0.01,0.01-0.01,0.02c-0.13,0.25-0.4,0.36-0.66,0.29
				C39.69,40.4,39.76,40.1,39.76,39.82z M40.24,32.02c-0.06-0.09-0.14-0.08-0.17-0.08c-0.03,0.01-0.11,0.04-0.11,0.15v8.04
				c0,0.11,0.09,0.14,0.11,0.15s0.11,0.02,0.17-0.08l1.03-3.58v-1.05L40.24,32.02z"/>
		</g>
		<g>
			<path fill="#FFFFFF" stroke="#1D2132" stroke-width="0.1" stroke-linecap="square" stroke-miterlimit="10" d="M42.15,12.21
				c0-0.06,0.05-0.11,0.11-0.11h0.36c0.12,0,0.19,0.1,0.27,0.21c0.09,0.14,0.22,0.31,0.47,0.36c0.17,0.03,0.32-0.03,0.42-0.16
				c0.1-0.14,0.11-0.33,0.03-0.49c-0.17-0.32-0.52-0.28-0.53-0.28c-0.06,0.01-0.11-0.03-0.12-0.09c-0.01-0.06,0.03-0.11,0.09-0.12
				c0.18-0.03,0.57,0.02,0.76,0.39c0.12,0.24,0.1,0.52-0.05,0.72c-0.14,0.2-0.38,0.28-0.64,0.25c-0.35-0.06-0.51-0.29-0.62-0.45
				c-0.03-0.05-0.07-0.1-0.09-0.11h-0.35C42.2,12.31,42.15,12.26,42.15,12.21z M42.63,12.31L42.63,12.31L42.63,12.31z"/>
			<path fill="#FFFFFF" stroke="#1D2132" stroke-width="0.1" stroke-linecap="square" stroke-miterlimit="10" d="M39.76,15.9V8.5
				c0-0.28-0.07-0.59,0.2-0.66c0.27-0.07,0.54,0.06,0.66,0.29c0,0.01,0.01,0.01,0.01,0.02l1.6,3.38c0.01,0.03,0.02,0.06,0.02,0.09
				v1.14c0,0.03-0.01,0.06-0.02,0.09l-1.6,3.38c0,0.01-0.01,0.01-0.01,0.02c-0.13,0.25-0.4,0.36-0.66,0.29
				C39.69,16.48,39.76,16.18,39.76,15.9z M40.24,8.1C40.18,8,40.09,8.02,40.07,8.02c-0.03,0.01-0.11,0.04-0.11,0.15v8.04
				c0,0.11,0.09,0.14,0.11,0.15c0.03,0.01,0.11,0.02,0.17-0.08l1.03-3.58v-1.05L40.24,8.1z"/>
		</g>
		<g>
			<path fill="#FFFFFF" stroke="#1D2132" stroke-width="0.1" stroke-linecap="square" stroke-miterlimit="10" d="M42.89,23.21v1.91
				c0,0.47-0.39,0.86-0.86,0.86h-0.25c-0.47,0-0.86-0.39-0.86-0.86v-1.91c0-0.47,0.39-0.86,0.86-0.86h0.25
				C42.5,22.35,42.89,22.73,42.89,23.21z"/>
			<path fill="#FFFFFF" stroke="#1D2132" stroke-width="0.1" stroke-linecap="square" stroke-miterlimit="10" d="M42.09,23.39v1.55
				c0,0.21-0.16,0.37-0.37,0.37h-0.08c-0.21,0-0.37-0.16-0.37-0.37v-1.55c0-0.21,0.16-0.37,0.37-0.37h0.08
				C41.93,23.02,42.09,23.18,42.09,23.39z"/>
			
				<rect x="41.27" y="17.74" fill="#FFFFFF" stroke="#1D2132" stroke-width="0.1" stroke-linecap="square" stroke-miterlimit="10" width="0.17" height="12.83"/>
			<polygon fill="#FFFFFF" stroke="#1D2132" stroke-width="0.1" stroke-linecap="square" stroke-miterlimit="10" points="
				41.77,28.73 41.43,30.58 41.43,17.74 41.77,19.6 			"/>
		</g>
	</g>
	<g>
		
			<rect x="52.63" y="56.63" fill="#FFFFFF" stroke="#1D2132" stroke-width="0.1" stroke-linecap="square" stroke-miterlimit="10" width="7.51" height="16.74"/>
		<g>
			<path fill="#FFFFFF" stroke="#1D2132" stroke-width="0.1" stroke-linecap="square" stroke-miterlimit="10" d="M57.17,64.8
				c0-0.06,0.05-0.1,0.1-0.1h0.36c0.12,0,0.19,0.1,0.26,0.21c0.09,0.14,0.22,0.31,0.46,0.35c0.17,0.03,0.32-0.03,0.41-0.15
				c0.1-0.14,0.11-0.33,0.03-0.49c-0.17-0.32-0.51-0.27-0.51-0.27c-0.06,0.01-0.11-0.03-0.12-0.09c-0.01-0.06,0.03-0.11,0.09-0.12
				c0.18-0.03,0.55,0.02,0.74,0.38c0.12,0.22,0.1,0.5-0.05,0.71c-0.14,0.19-0.37,0.28-0.62,0.23c-0.34-0.06-0.5-0.29-0.6-0.44
				c-0.03-0.05-0.07-0.1-0.09-0.11h-0.35C57.22,64.9,57.17,64.85,57.17,64.8z M57.63,64.9L57.63,64.9L57.63,64.9z"/>
			<path fill="#FFFFFF" stroke="#1D2132" stroke-width="0.1" stroke-linecap="square" stroke-miterlimit="10" d="M54.83,68.39v-7.22
				c0-0.27-0.07-0.57,0.2-0.64c0.26-0.07,0.52,0.05,0.65,0.29c0,0.01,0.01,0.01,0.01,0.02l1.56,3.3c0.01,0.03,0.02,0.06,0.02,0.08
				v1.11c0,0.03-0.01,0.06-0.02,0.08l-1.56,3.3c0,0.01-0.01,0.01-0.01,0.02c-0.13,0.24-0.39,0.36-0.65,0.29
				C54.76,68.96,54.83,68.67,54.83,68.39z M55.29,60.78c-0.06-0.09-0.14-0.07-0.17-0.07c-0.03,0.01-0.11,0.04-0.11,0.15v7.84
				c0,0.11,0.08,0.14,0.11,0.15c0.03,0.01,0.11,0.02,0.17-0.07l1-3.49v-1.03L55.29,60.78z"/>
		</g>
	</g>
	<g>
		
			<circle fill="#FFFFFF" stroke="#1D2132" stroke-width="0.1" stroke-linecap="square" stroke-miterlimit="22.9256" cx="48.74" cy="35.69" r="1.83"/>
		
			<circle fill="#FFFFFF" stroke="#1D2132" stroke-width="0.1" stroke-linecap="square" stroke-miterlimit="22.9256" cx="48.74" cy="35.69" r="0.39"/>
		<path fill="#FFFFFF" stroke="#1D2132" stroke-width="0.1" stroke-linecap="square" stroke-miterlimit="22.9256" d="M52.09,33.36
			l0.62,1.39c0.99,0,1.62-0.05,2.44-0.42l0,0c0.41-0.18,0.49-0.89,0.18-1.57c-0.31-0.69-0.89-1.1-1.29-0.92
			C53.2,32.16,52.74,32.59,52.09,33.36z"/>
		<path fill="#FFFFFF" stroke="#1D2132" stroke-width="0.1" stroke-linecap="square" stroke-miterlimit="22.9256" d="M52.09,33.36
			l-0.5,0.23l0.62,1.39l0.5-0.23c0.23-0.09,0.27-0.49,0.1-0.88S52.32,33.26,52.09,33.36z"/>
		
			<ellipse transform="matrix(0.9138 -0.4062 0.4062 0.9138 -9.4502 24.0371)" fill="#FFFFFF" stroke="#1D2132" stroke-width="0.1" stroke-linecap="square" stroke-miterlimit="22.9256" cx="51.9" cy="34.28" rx="0.44" ry="0.76"/>
		<path fill="#FFFFFF" stroke="#1D2132" stroke-width="0.1" stroke-linecap="square" stroke-miterlimit="22.9256" d="M48.68,35.56
			l1.92-0.85c0.06-0.03,0.13,0,0.16,0.07l0.01,0.03c0.03,0.06,0,0.13-0.07,0.16l-1.92,0.85c-0.06,0.03-0.13,0-0.16-0.07l-0.01-0.03
			C48.59,35.66,48.62,35.59,48.68,35.56z"/>
		<path fill="#FFFFFF" stroke="#1D2132" stroke-width="0.1" stroke-linecap="square" stroke-miterlimit="22.9256" d="M49.76,35.08
			l1.92-0.85c0.06-0.03,0.13,0,0.16,0.07l0.01,0.03c0.03,0.06,0,0.13-0.07,0.16l-1.92,0.85c-0.06,0.03-0.13,0-0.16-0.07l-0.01-0.03
			C49.67,35.19,49.69,35.11,49.76,35.08z"/>
	</g>
</g>
<g id="Doors">
	<g>
		<polygon fill="none" stroke="#1D2132" stroke-width="0.1" stroke-miterlimit="10" points="27.84,75.09 27.84,74.02 27.3,74.02 
			27.3,75.09 		"/>
		<polygon fill="none" stroke="#1D2132" stroke-width="0.1" stroke-miterlimit="10" points="41.01,75.09 41.01,74.02 41.55,74.02 
			41.55,75.09 		"/>
		<polyline fill="none" stroke="#1D2132" stroke-width="0.1" stroke-miterlimit="10" points="37.15,64.77 37.31,64.95 37.47,65.12 
			37.63,65.3 37.79,65.49 37.94,65.67 38.09,65.86 38.25,66.04 38.38,66.24 38.52,66.44 38.66,66.64 38.79,66.84 38.92,67.04 
			39.05,67.25 39.17,67.45 39.29,67.67 39.4,67.87 39.51,68.08 39.62,68.3 39.73,68.51 39.82,68.74 39.92,68.95 40.02,69.18 
			40.1,69.4 40.19,69.63 40.26,69.85 40.34,70.08 40.41,70.31 40.48,70.54 40.54,70.77 40.61,71 40.66,71.24 40.71,71.48 
			40.76,71.71 40.81,71.95 40.84,72.18 40.89,72.42 40.91,72.66 40.94,72.89 40.96,73.14 40.98,73.37 40.99,73.61 41,73.86 
			41.01,74.09 		"/>
		<polygon fill="none" stroke="#1D2132" stroke-width="0.1" stroke-miterlimit="10" points="27.93,74.04 37.15,64.77 37.47,65.12 
			28.31,74.42 		"/>
	</g>
	<g>
		<polygon fill="none" stroke="#1D2132" stroke-width="0.1" stroke-miterlimit="10" points="24.86,61.41 25.87,61.41 25.87,61.81 
			24.86,61.81 		"/>
		<polygon fill="none" stroke="#1D2132" stroke-width="0.1" stroke-miterlimit="10" points="24.86,51.66 25.87,51.66 25.87,51.26 
			24.86,51.26 		"/>
		<polyline fill="none" stroke="#1D2132" stroke-width="0.1" stroke-miterlimit="10" points="32.74,54.52 32.6,54.4 32.48,54.28 
			32.34,54.16 32.21,54.04 32.07,53.93 31.93,53.82 31.79,53.71 31.65,53.6 31.5,53.5 31.36,53.4 31.21,53.3 31.06,53.21 
			30.9,53.11 30.75,53.02 30.59,52.94 30.44,52.85 30.28,52.77 30.13,52.69 29.97,52.61 29.8,52.54 29.64,52.47 29.47,52.4 
			29.31,52.33 29.14,52.27 28.97,52.21 28.81,52.16 28.64,52.1 28.47,52.05 28.3,52.01 28.12,51.96 27.95,51.92 27.77,51.88 
			27.6,51.85 27.42,51.81 27.25,51.78 27.08,51.75 26.9,51.74 26.73,51.71 26.54,51.7 26.37,51.68 26.19,51.67 26.01,51.67 
			25.84,51.66 		"/>
		<polygon fill="none" stroke="#1D2132" stroke-width="0.1" stroke-miterlimit="10" points="25.88,61.34 32.74,54.52 32.48,54.28 
			25.6,61.06 		"/>
	</g>
	<g>
		<polygon fill="none" stroke="#1D2132" stroke-width="0.1" stroke-miterlimit="10" points="45.7,56.94 44.69,56.94 44.69,56.54 
			45.7,56.54 		"/>
		<polygon fill="none" stroke="#1D2132" stroke-width="0.1" stroke-miterlimit="10" points="45.7,66.78 44.69,66.78 44.69,67.19 
			45.7,67.19 		"/>
		<polyline fill="none" stroke="#1D2132" stroke-width="0.1" stroke-miterlimit="10" points="37.75,63.9 37.88,64.02 38.01,64.14 
			38.15,64.26 38.28,64.38 38.42,64.49 38.56,64.6 38.7,64.72 38.85,64.82 39,64.92 39.14,65.03 39.29,65.12 39.45,65.22 
			39.6,65.32 39.75,65.41 39.91,65.49 40.06,65.58 40.22,65.66 40.39,65.74 40.55,65.82 40.71,65.89 40.87,65.97 41.04,66.04 
			41.21,66.1 41.38,66.17 41.55,66.22 41.72,66.28 41.88,66.34 42.06,66.38 42.23,66.43 42.41,66.48 42.58,66.52 42.76,66.56 
			42.94,66.59 43.11,66.63 43.29,66.66 43.46,66.69 43.64,66.7 43.82,66.73 44,66.74 44.18,66.76 44.35,66.77 44.54,66.78 
			44.72,66.78 		"/>
		<polygon fill="none" stroke="#1D2132" stroke-width="0.1" stroke-miterlimit="10" points="44.68,57.01 37.75,63.9 38.01,64.14 
			44.96,57.29 		"/>
	</g>
	<g>
		<polygon fill="none" stroke="#1D2132" stroke-width="0.1" stroke-miterlimit="10" points="38.59,43.04 38.59,42.05 39.04,42.05 
			39.04,43.04 		"/>
		<polygon fill="none" stroke="#1D2132" stroke-width="0.1" stroke-miterlimit="10" points="27.59,43.04 27.59,42.04 27.14,42.04 
			27.14,43.04 		"/>
		<polyline fill="none" stroke="#1D2132" stroke-width="0.1" stroke-miterlimit="10" points="30.82,34.16 30.68,34.31 30.55,34.45 
			30.41,34.61 30.28,34.76 30.15,34.91 30.03,35.07 29.9,35.22 29.79,35.39 29.67,35.56 29.55,35.72 29.44,35.89 29.34,36.06 
			29.23,36.23 29.13,36.4 29.03,36.58 28.93,36.75 28.84,36.93 28.75,37.11 28.67,37.29 28.58,37.47 28.5,37.65 28.42,37.84 
			28.35,38.03 28.28,38.22 28.22,38.41 28.15,38.59 28.09,38.78 28.04,38.98 27.98,39.17 27.93,39.36 27.89,39.56 27.84,39.76 
			27.8,39.96 27.76,40.15 27.73,40.35 27.7,40.55 27.68,40.75 27.65,40.94 27.63,41.15 27.62,41.35 27.61,41.54 27.6,41.75 
			27.59,41.95 		"/>
		<polygon fill="none" stroke="#1D2132" stroke-width="0.1" stroke-miterlimit="10" points="38.51,41.9 30.82,34.16 30.55,34.45 
			38.2,42.21 		"/>
	</g>
</g>
<g id="Windows">
	
		<polyline fill="none" stroke="#1D2132" stroke-width="0.1" stroke-linecap="round" stroke-linejoin="round" stroke-miterlimit="10" points="
		37.54,2.89 37.54,2 16.2,2 16.2,2.89 37.54,2.89 	"/>
	
		<polyline fill="none" stroke="#1D2132" stroke-width="0.1" stroke-linecap="round" stroke-linejoin="round" stroke-miterlimit="10" points="
		14.96,4.02 14.96,2 38.79,2 38.79,4.02 14.96,4.02 	"/>
	<path fill="none" stroke="#1D2132" stroke-width="0.1" stroke-linecap="round" stroke-linejoin="round" stroke-miterlimit="10" d="
		M38.16,2"/>
	
		<polyline fill="none" stroke="#1D2132" stroke-width="0.1" stroke-linecap="round" stroke-linejoin="round" stroke-miterlimit="10" points="
		38.16,2 38.16,0 15.57,0 15.57,2 	"/>
	
		<polyline fill="none" stroke="#1D2132" stroke-width="0.1" stroke-linecap="round" stroke-linejoin="round" stroke-miterlimit="10" points="
		75.56,2.89 75.56,2 52.32,2 52.32,2.89 75.56,2.89 	"/>
	
		<polyline fill="none" stroke="#1D2132" stroke-width="0.1" stroke-linecap="round" stroke-linejoin="round" stroke-miterlimit="10" points="
		52.97,4.02 52.97,2 76.8,2 76.8,4.02 52.97,4.02 	"/>
	
		<polyline fill="none" stroke="#1D2132" stroke-width="0.1" stroke-linecap="round" stroke-linejoin="round" stroke-miterlimit="10" points="
		52.7,2.89 52.32,2.89 52.32,2 52.7,2 52.7,2.89 52.7,2 54.23,2 54.23,2.89 52.7,2.89 	"/>
	<path fill="none" stroke="#1D2132" stroke-width="0.1" stroke-linecap="round" stroke-linejoin="round" stroke-miterlimit="10" d="
		M76.19,2"/>
	
		<polyline fill="none" stroke="#1D2132" stroke-width="0.1" stroke-linecap="round" stroke-linejoin="round" stroke-miterlimit="10" points="
		76.19,2 76.19,0 53.6,0 53.6,2 	"/>
	
		<polyline fill="none" stroke="#1D2132" stroke-width="0.1" stroke-linecap="round" stroke-linejoin="round" stroke-miterlimit="10" points="
		84.97,46.92 86.98,46.92 86.98,60.73 84.97,60.73 84.97,46.92 	"/>
	
		<polyline fill="none" stroke="#1D2132" stroke-width="0.1" stroke-linecap="round" stroke-linejoin="round" stroke-miterlimit="10" points="
		86.09,46.58 86.09,46.18 86.98,46.18 86.98,46.58 86.09,46.58 86.98,46.58 86.98,48.19 86.09,48.19 86.09,46.58 	"/>
	
		<polyline fill="none" stroke="#1D2132" stroke-width="0.1" stroke-linecap="round" stroke-linejoin="round" stroke-miterlimit="10" points="
		86.09,59.48 86.98,59.48 86.98,61.13 86.09,61.13 86.09,59.48 	"/>
	
		<polyline fill="none" stroke="#1D2132" stroke-width="0.1" stroke-linecap="round" stroke-linejoin="round" stroke-miterlimit="10" points="
		86.98,60.11 88.98,60.11 88.98,47.56 86.98,47.56 86.98,60.11 	"/>
	
		<polyline fill="none" stroke="#1D2132" stroke-width="0.1" stroke-linecap="round" stroke-linejoin="round" stroke-miterlimit="10" points="
		86.98,59.48 86.09,59.48 86.09,48.19 	"/>
	
		<line fill="none" stroke="#1D2132" stroke-width="0.1" stroke-linecap="round" stroke-linejoin="round" stroke-miterlimit="10" x1="86.09" y1="48.19" x2="86.98" y2="48.19"/>
	
		<polyline fill="none" stroke="#1D2132" stroke-width="0.1" stroke-linecap="round" stroke-linejoin="round" stroke-miterlimit="10" points="
		84.97,75.54 86.98,75.54 86.98,89.34 84.97,89.34 84.97,75.54 	"/>
	
		<polyline fill="none" stroke="#1D2132" stroke-width="0.1" stroke-linecap="round" stroke-linejoin="round" stroke-miterlimit="10" points="
		86.09,75.47 86.09,75.14 86.98,75.14 86.98,75.47 86.09,75.47 86.98,75.47 86.98,76.8 86.09,76.8 86.09,75.47 	"/>
	
		<polyline fill="none" stroke="#1D2132" stroke-width="0.1" stroke-linecap="round" stroke-linejoin="round" stroke-miterlimit="10" points="
		86.98,88.71 88.98,88.71 88.98,76.17 86.98,76.17 86.98,88.71 	"/>
	
		<polyline fill="none" stroke="#1D2132" stroke-width="0.1" stroke-linecap="round" stroke-linejoin="round" stroke-miterlimit="10" points="
		86.09,76.8 86.98,76.8 86.98,88.09 86.09,88.09 86.09,76.8 	"/>
	
		<polyline fill="none" stroke="#1D2132" stroke-width="0.1" stroke-linecap="round" stroke-linejoin="round" stroke-miterlimit="10" points="
		86.09,88.09 86.98,88.09 86.98,89.62 86.09,89.62 86.09,88.09 	"/>
	
		<polyline fill="none" stroke="#1D2132" stroke-width="0.1" stroke-linecap="round" stroke-linejoin="round" stroke-miterlimit="10" points="
		14.82,2.89 14.49,2.89 14.49,2 14.82,2 14.82,2.89 14.82,2 16.2,2 16.2,2.89 14.82,2.89 	"/>
	
		<polyline fill="none" stroke="#1D2132" stroke-width="0.1" stroke-linecap="round" stroke-linejoin="round" stroke-miterlimit="10" points="
		37.54,2.89 37.54,2 39.71,2 39.71,2.89 37.54,2.89 	"/>
	
		<polyline fill="none" stroke="#1D2132" stroke-width="0.1" stroke-linecap="round" stroke-linejoin="round" stroke-miterlimit="10" points="
		75.56,2.89 75.56,2 77.54,2 77.54,2.89 75.56,2.89 	"/>
</g>
<g id="Wall">
	<polyline fill="#1D2132" stroke="#1D2132" stroke-width="0.1" stroke-miterlimit="10" points="0.02,2 0.02,2 0.02,4.02 0.02,4.02 	
		"/>
	<polyline fill="#1D2132" stroke="#1D2132" stroke-width="0.1" stroke-miterlimit="10" points="2.02,2 14.96,2 14.96,4.02 
		2.02,4.02 2.02,2 	"/>
	<polyline fill="#1D2132" stroke="#1D2132" stroke-width="0.1" stroke-miterlimit="10" points="38.79,2 52.97,2 52.97,4.02 
		38.79,4.02 38.79,2 	"/>
	<polyline fill="#1D2132" stroke="#1D2132" stroke-width="0.1" stroke-miterlimit="10" points="76.8,2 84.97,2 84.97,4.02 
		76.8,4.02 76.8,2 	"/>
	<polyline fill="#1D2132" stroke="#1D2132" stroke-width="0.1" stroke-miterlimit="10" points="86.98,2 76.19,2 76.19,0 86.98,0 
		86.98,2 	"/>
	<polyline fill="#1D2132" stroke="#1D2132" stroke-width="0.1" stroke-miterlimit="10" points="53.6,2 38.16,2 38.16,0.13 
		53.6,0.13 53.6,2 	"/>
	<polyline fill="#1D2132" stroke="#1D2132" stroke-width="0.1" stroke-miterlimit="10" points="0.02,0 15.57,0 15.57,2 	"/>
	<line fill="none" stroke="#1D2132" stroke-width="0.1" stroke-miterlimit="10" x1="15.57" y1="2" x2="0.02" y2="2"/>
	<polyline fill="#1D2132" stroke="#1D2132" stroke-width="0.1" stroke-miterlimit="10" points="0.02,0 15.57,0 15.57,0 	"/>
	<polyline fill="#1D2132" stroke="#1D2132" stroke-width="0.1" stroke-miterlimit="10" points="38.16,0.13 38.16,0 53.6,0 
		53.6,0.13 	"/>
	<polyline fill="#1D2132" stroke="#1D2132" stroke-width="0.1" stroke-miterlimit="10" points="76.19,0 76.19,0 86.98,0 86.98,0 	
		"/>
	<polyline fill="#1D2132" stroke="#1D2132" stroke-width="0.1" stroke-miterlimit="10" points="76.8,2 84.97,2 84.97,4.02 
		76.8,4.02 76.8,2 	"/>
	<polyline fill="#1D2132" stroke="#1D2132" stroke-width="0.1" stroke-miterlimit="10" points="86.98,2 76.19,2 76.19,0 86.98,0 
		86.98,2 	"/>
	<polyline fill="#1D2132" stroke="#1D2132" stroke-width="0.1" stroke-miterlimit="10" points="76.19,0 76.19,0 86.98,0 86.98,0 	
		"/>
	<polyline fill="#1D2132" stroke="#1D2132" stroke-width="0.1" stroke-miterlimit="10" points="86.98,0 88.85,0 88.85,47.56 
		86.98,47.56 86.98,0 	"/>
	<polyline fill="#1D2132" stroke="#1D2132" stroke-width="0.1" stroke-miterlimit="10" points="86.98,60.11 88.85,60.11 
		88.85,76.17 86.98,76.17 86.98,60.11 	"/>
	<line fill="none" stroke="#1D2132" stroke-width="0.1" stroke-miterlimit="10" x1="86.98" y1="100" x2="86.98" y2="88.71"/>
	
		<rect x="86.98" y="88.71" fill="#1D2132" stroke="#1D2132" stroke-width="0.1" stroke-miterlimit="10" width="1.88" height="11.29"/>
	<polyline fill="#1D2132" stroke="#1D2132" stroke-width="0.1" stroke-miterlimit="10" points="0.02,2 0.02,2 0.02,4.02 0.02,4.02 	
		"/>
	<polyline fill="#1D2132" stroke="#1D2132" stroke-width="0.1" stroke-miterlimit="10" points="2.02,2 14.96,2 14.96,4.02 
		2.02,4.02 2.02,2 	"/>
	<polyline fill="#1D2132" stroke="#1D2132" stroke-width="0.1" stroke-miterlimit="10" points="38.79,2 52.97,2 52.97,4.02 
		38.79,4.02 38.79,2 	"/>
	<polyline fill="#1D2132" stroke="#1D2132" stroke-width="0.1" stroke-miterlimit="10" points="76.8,2 84.97,2 84.97,4.02 
		76.8,4.02 76.8,2 	"/>
	<polyline fill="#1D2132" stroke="#1D2132" stroke-width="0.1" stroke-miterlimit="10" points="86.98,2 76.19,2 76.19,0 86.98,0 
		86.98,2 	"/>
	<polyline fill="#1D2132" stroke="#1D2132" stroke-width="0.1" stroke-miterlimit="10" points="53.6,2 38.16,2 38.16,0.13 
		53.6,0.13 53.6,2 	"/>
	<polyline fill="#1D2132" stroke="#1D2132" stroke-width="0.1" stroke-miterlimit="10" points="0.02,0 15.57,0 15.57,2 	"/>
	<line fill="none" stroke="#1D2132" stroke-width="0.1" stroke-miterlimit="10" x1="15.57" y1="2" x2="0.02" y2="2"/>
	<polyline fill="#1D2132" stroke="#1D2132" stroke-width="0.1" stroke-miterlimit="10" points="0.02,0 15.57,0 15.57,0 	"/>
	<polyline fill="#1D2132" stroke="#1D2132" stroke-width="0.1" stroke-miterlimit="10" points="38.16,0.13 38.16,0 53.6,0 
		53.6,0.13 	"/>
	<polyline fill="#1D2132" stroke="#1D2132" stroke-width="0.1" stroke-miterlimit="10" points="76.19,0 76.19,0 86.98,0 86.98,0 	
		"/>
	<polyline fill="#1D2132" stroke="#1D2132" stroke-width="0.1" stroke-miterlimit="10" points="76.8,2 84.97,2 84.97,4.02 
		76.8,4.02 76.8,2 	"/>
	<polyline fill="#1D2132" stroke="#1D2132" stroke-width="0.1" stroke-miterlimit="10" points="86.98,2 76.19,2 76.19,0 86.98,0 
		86.98,2 	"/>
	<polyline fill="#1D2132" stroke="#1D2132" stroke-width="0.1" stroke-miterlimit="10" points="76.19,0 76.19,0 86.98,0 86.98,0 	
		"/>
	<polyline fill="#1D2132" stroke="#1D2132" stroke-width="0.1" stroke-miterlimit="10" points="86.98,0 88.85,0 88.85,47.56 
		86.98,47.56 86.98,0 	"/>
	<polyline fill="#1D2132" stroke="#1D2132" stroke-width="0.1" stroke-miterlimit="10" points="86.98,60.11 88.85,60.11 
		88.85,76.17 86.98,76.17 86.98,60.11 	"/>
	<line fill="none" stroke="#1D2132" stroke-width="0.1" stroke-miterlimit="10" x1="86.98" y1="100" x2="86.98" y2="88.71"/>
	<polyline fill="#1D2132" stroke="#1D2132" stroke-width="0.1" stroke-miterlimit="10" points="0.02,2 0.02,2 0.02,4.02 0.02,4.02 	
		"/>
	<polyline fill="#1D2132" stroke="#1D2132" stroke-width="0.1" stroke-miterlimit="10" points="2.02,2 14.96,2 14.96,4.02 
		2.02,4.02 2.02,2 	"/>
	<polyline fill="#1D2132" stroke="#1D2132" stroke-width="0.1" stroke-miterlimit="10" points="38.79,2 52.97,2 52.97,4.02 
		38.79,4.02 38.79,2 	"/>
	<polyline fill="#1D2132" stroke="#1D2132" stroke-width="0.1" stroke-miterlimit="10" points="76.8,2 84.97,2 84.97,4.02 
		76.8,4.02 76.8,2 	"/>
	<polyline fill="#1D2132" stroke="#1D2132" stroke-width="0.1" stroke-miterlimit="10" points="86.98,2 76.19,2 76.19,0 86.98,0 
		86.98,2 	"/>
	<polyline fill="#1D2132" stroke="#1D2132" stroke-width="0.1" stroke-miterlimit="10" points="53.6,2 38.16,2 38.16,0.13 
		53.6,0.13 53.6,2 	"/>
	<polyline fill="#1D2132" stroke="#1D2132" stroke-width="0.1" stroke-miterlimit="10" points="15.57,2 15.57,0 0.02,0 0.02,2 
		2.02,2 2.02,75.41 0.02,75.41 0.02,2 	"/>
	<line fill="none" stroke="#1D2132" stroke-width="0.1" stroke-miterlimit="10" x1="15.57" y1="2" x2="0.02" y2="2"/>
	<polyline fill="#1D2132" stroke="#1D2132" stroke-width="0.1" stroke-miterlimit="10" points="0.02,0 15.57,0 15.57,0 	"/>
	<polyline fill="#1D2132" stroke="#1D2132" stroke-width="0.1" stroke-miterlimit="10" points="38.16,0.13 38.16,0 53.6,0 
		53.6,0.13 	"/>
	<polyline fill="#1D2132" stroke="#1D2132" stroke-width="0.1" stroke-miterlimit="10" points="76.19,0 76.19,0 86.98,0 86.98,0 	
		"/>
	<polyline fill="#1D2132" stroke="#1D2132" stroke-width="0.1" stroke-miterlimit="10" points="88.75,100 59.12,100 59.12,98 
		88.75,98 88.75,100 	"/>
	<polyline fill="#1D2132" stroke="#1D2132" stroke-width="0.1" stroke-miterlimit="10" points="2.02,73.41 27.12,73.41 27.12,75.41 
		2.02,75.41 2.02,73.41 	"/>
	<polyline fill="#1D2132" stroke="#1D2132" stroke-width="0.1" stroke-miterlimit="10" points="45.7,43.04 45.7,4.02 44.69,4.02 
		44.69,42.03 39.04,42.03 39.04,43.04 45.7,43.04 	"/>
	<polyline fill="#1D2132" stroke="#1D2132" stroke-width="0.1" stroke-miterlimit="10" points="27.12,43.04 27.12,42.03 2.02,42.03 
		2.02,43.04 24.86,43.04 24.86,51.2 25.87,51.2 25.87,43.04 27.12,43.04 	"/>
	<polyline fill="#1D2132" stroke="#1D2132" stroke-width="0.1" stroke-miterlimit="10" points="24.86,73.41 24.86,61.86 
		25.87,61.86 25.87,73.41 24.86,73.41 	"/>
	<polyline fill="#1D2132" stroke="#1D2132" stroke-width="0.1" stroke-miterlimit="10" points="76.8,2 84.97,2 84.97,4.02 
		76.8,4.02 76.8,2 	"/>
	<polyline fill="#1D2132" stroke="#1D2132" stroke-width="0.1" stroke-miterlimit="10" points="86.98,2 76.19,2 76.19,0 86.98,0 
		86.98,2 	"/>
	<polyline fill="#1D2132" stroke="#1D2132" stroke-width="0.1" stroke-miterlimit="10" points="76.19,0 76.19,0 86.98,0 86.98,0 	
		"/>
	<polyline fill="#1D2132" stroke="#1D2132" stroke-width="0.1" stroke-miterlimit="10" points="84.97,2 86.98,2 86.98,46.92 
		84.97,46.92 84.97,2 	"/>
	<polyline fill="#1D2132" stroke="#1D2132" stroke-width="0.1" stroke-miterlimit="10" points="86.98,100 86.98,89.34 84.97,89.34 
		84.97,100 	"/>
	<polyline fill="#1D2132" stroke="#1D2132" stroke-width="0.1" stroke-miterlimit="10" points="84.97,60.73 86.98,60.73 
		86.98,75.54 84.97,75.54 84.97,60.73 	"/>
	<polyline fill="#1D2132" stroke="#1D2132" stroke-width="0.1" stroke-miterlimit="10" points="86.98,0 88.85,0 88.85,47.56 
		86.98,47.56 86.98,0 	"/>
	<polyline fill="#1D2132" stroke="#1D2132" stroke-width="0.1" stroke-miterlimit="10" points="86.98,60.11 88.85,60.11 
		88.85,76.17 86.98,76.17 86.98,60.11 	"/>
	<polyline fill="#1D2132" stroke="#1D2132" stroke-width="0.1" stroke-miterlimit="10" points="41.55,73.41 61.12,73.41 
		61.12,75.41 41.55,75.41 41.55,73.41 	"/>
	<polyline fill="#1D2132" stroke="#1D2132" stroke-width="0.1" stroke-miterlimit="10" points="44.69,55.58 61.12,55.58 
		61.12,73.41 60.12,73.41 60.12,56.59 44.69,56.59 44.69,55.58 	"/>
	<polyline fill="#1D2132" stroke="#1D2132" stroke-width="0.1" stroke-miterlimit="10" points="59.12,98 61.12,98 61.12,75.41 
		59.12,75.41 59.12,98 	"/>
	<polyline fill="#1D2132" stroke="#1D2132" stroke-width="0.1" stroke-miterlimit="10" points="44.69,73.41 45.7,73.41 45.7,67.26 
		44.69,67.26 44.69,73.41 	"/>
</g>
<g id="Text">
	
		<text id="TXT--" transform="matrix(1 0 0 1 29.17 23.891)" opacity="0.7" fill="#1D2132" enable-background="new    " font-family="'Cannonade-Medium'" font-size="3px">10,30</text>
	
		<text id="TXT---" transform="matrix(1 0 0 1 63.18 38.3009)" opacity="0.7" fill="#1D2132" enable-background="new    " font-family="'Cannonade-Medium'" font-size="3px">19,36</text>
	
		<text id="TXT--" transform="matrix(1 0 0 1 33.7832 50.8107)" opacity="0.7" fill="#1D2132" enable-background="new    " font-family="'Cannonade-Medium'" font-size="3px">3,63</text>
	
		<text id="TXT--" transform="matrix(1 0 0 1 45.1951 65.0041)" opacity="0.7" fill="#1D2132" enable-background="new    " font-family="'Cannonade-Medium'" font-size="3px">3,04</text>
	
		<text id="TXT--" transform="matrix(1 0 0 1 12.65 59.7183)" opacity="0.7" fill="#1D2132" enable-background="new    " font-family="'Cannonade-Medium'" font-size="3px">3,82</text>
</g>
<g id="Details">
	<g>
		
			<rect x="1.95" y="71.23" fill="#FFFFFF" stroke="#1D2132" stroke-width="0.5" stroke-linecap="square" stroke-miterlimit="10" width="2" height="2"/>
		<polygon fill="#1D2132" stroke="#1D2132" stroke-width="0.1" stroke-miterlimit="10" points="3.83,73.23 3.16,72.01 1.95,71.34 
			3.83,71.34 		"/>
	</g>
	<g>
		
			<rect x="48.2" y="71.46" fill="#FFFFFF" stroke="#1D2132" stroke-width="0.5" stroke-linecap="square" stroke-miterlimit="10" width="2" height="2"/>
		<polygon fill="#1D2132" stroke="#1D2132" stroke-width="0.1" stroke-miterlimit="10" points="50.08,73.46 49.41,72.24 48.2,71.57 
			50.08,71.57 		"/>
	</g>
</g>
<g>
	
		<rect x="19.53" y="63.03" fill="#FFFFFF" stroke="#1D2132" stroke-width="0.5" stroke-miterlimit="10" width="5.3" height="10.22"/>
	<g>
		
			<rect x="20.22" y="71.26" fill="#FFFFFF" stroke="#1D2132" stroke-width="0.1" stroke-linecap="square" stroke-miterlimit="22.9256" width="4.01" height="1.3"/>
		<polygon fill="#1D2132" points="24.23,72.55 23.82,71.76 20.24,71.26 24.23,71.26 		"/>
	</g>
	<g>
		
			<rect x="20.22" y="63.64" fill="#FFFFFF" stroke="#1D2132" stroke-width="0.1" stroke-linecap="square" stroke-miterlimit="22.9256" width="4.01" height="1.3"/>
		<polygon fill="#1D2132" points="24.23,64.83 23.82,64.02 20.24,63.64 24.23,63.64 		"/>
	</g>
	<g>
		
			<rect x="20.22" y="65.55" fill="#FFFFFF" stroke="#1D2132" stroke-width="0.1" stroke-linecap="square" stroke-miterlimit="22.9256" width="4.01" height="5.12"/>
		<polygon fill="#1D2132" points="24.23,70.54 23.82,66.24 20.24,65.55 24.23,65.55 		"/>
	</g>
</g>
</svg>
