<?xml version="1.0" encoding="utf-8"?>
<!-- Generator: Adobe Illustrator 22.0.0, SVG Export Plug-In . SVG Version: 6.00 Build 0)  -->
<svg version="1.1" id="Layer_1" xmlns="http://www.w3.org/2000/svg" xmlns:xlink="http://www.w3.org/1999/xlink" x="0px" y="0px"
	 viewBox="0 0 94 82" enable-background="new 0 0 94 82" xml:space="preserve">
<g id="Background">
	<rect x="2.18" y="4.38" opacity="0.1" fill="#1D2132" enable-background="new    " width="90.2" height="75.63"/>
</g>
<g id="Plumbing">
	<g>
		<polyline fill="#FFFFFF" points="88.5,60.02 91.69,60.02 91.69,67.18 88.5,67.18 88.27,67.18 88.04,67.14 87.83,67.09 
			87.62,67.02 87.41,66.91 87.24,66.8 87.07,66.65 86.92,66.5 86.74,66.27 86.59,66.02 86.46,65.76 86.35,65.5 86.26,65.24 
			86.16,64.95 86.1,64.68 86.04,64.41 86,64.12 85.98,63.84 85.96,63.59 85.98,63.35 85.99,63.06 86.04,62.78 86.1,62.5 
			86.16,62.23 86.25,61.98 86.35,61.69 86.46,61.43 86.59,61.17 86.74,60.92 86.92,60.69 87.07,60.54 87.24,60.39 87.41,60.28 
			87.62,60.18 87.83,60.09 88.04,60.04 88.27,60.02 88.38,60.02 88.5,60.02 		"/>
		
			<line fill="none" stroke="#1D2132" stroke-width="0.1" stroke-linecap="square" stroke-miterlimit="10" x1="91.69" y1="60.02" x2="91.69" y2="67.18"/>
		
			<line fill="none" stroke="#1D2132" stroke-width="0.1" stroke-linecap="square" stroke-miterlimit="10" x1="91.69" y1="67.18" x2="88.5" y2="67.18"/>
		
			<line fill="none" stroke="#1D2132" stroke-width="0.1" stroke-linecap="square" stroke-miterlimit="10" x1="91.69" y1="60.02" x2="88.5" y2="60.02"/>
		
			<line fill="none" stroke="#1D2132" stroke-width="0.1" stroke-linecap="square" stroke-miterlimit="10" x1="91.69" y1="64.72" x2="91.69" y2="62.47"/>
		
			<line fill="none" stroke="#1D2132" stroke-width="0.1" stroke-linecap="square" stroke-miterlimit="10" x1="89.13" y1="64.19" x2="89.13" y2="63.82"/>
		
			<line fill="none" stroke="#1D2132" stroke-width="0.1" stroke-linecap="square" stroke-miterlimit="10" x1="89.76" y1="63.59" x2="89.35" y2="63.59"/>
		
			<line fill="none" stroke="#1D2132" stroke-width="0.1" stroke-linecap="square" stroke-miterlimit="10" x1="89.13" y1="63.37" x2="89.13" y2="62.99"/>
		
			<line fill="none" stroke="#1D2132" stroke-width="0.1" stroke-linecap="square" stroke-miterlimit="10" x1="88.88" y1="63.59" x2="88.49" y2="63.59"/>
		<path fill="none" stroke="#1D2132" stroke-width="0.1" stroke-linecap="square" stroke-miterlimit="10" d="M89.89,61.69
			c-0.39-0.56-0.94-0.99-1.6-1.24"/>
		<path fill="none" stroke="#1D2132" stroke-width="0.1" stroke-linecap="square" stroke-miterlimit="10" d="M90.36,63.6
			c0.01-0.08,0.01-0.18,0.01-0.25c0-0.59-0.16-1.16-0.48-1.65"/>
		<path fill="none" stroke="#1D2132" stroke-width="0.1" stroke-linecap="square" stroke-miterlimit="10" d="M88.3,66.74
			c0.66-0.24,1.2-0.68,1.6-1.24"/>
		<path fill="none" stroke="#1D2132" stroke-width="0.1" stroke-linecap="square" stroke-miterlimit="10" d="M89.89,65.51
			c0.31-0.5,0.48-1.07,0.48-1.65c0-0.08,0-0.18-0.01-0.25"/>
		<path fill="none" stroke="#1D2132" stroke-width="0.1" stroke-linecap="square" stroke-miterlimit="10" d="M86.6,61.16
			c-0.36,0.69-0.56,1.43-0.62,2.17"/>
		<path fill="none" stroke="#1D2132" stroke-width="0.1" stroke-linecap="square" stroke-miterlimit="10" d="M86.92,66.5
			c0.37,0.43,0.92,0.68,1.5,0.68c0.02,0,0.06,0,0.07,0"/>
		<path fill="none" stroke="#1D2132" stroke-width="0.1" stroke-linecap="square" stroke-miterlimit="10" d="M85.98,63.34
			c-0.01,0.08-0.01,0.17-0.01,0.25s0,0.18,0.01,0.25"/>
		<path fill="none" stroke="#1D2132" stroke-width="0.1" stroke-linecap="square" stroke-miterlimit="10" d="M89.77,65.58
			c0.1-0.67,0.16-1.33,0.16-1.99s-0.06-1.34-0.16-2"/>
		<path fill="none" stroke="#1D2132" stroke-width="0.1" stroke-linecap="square" stroke-miterlimit="10" d="M91.07,65.6
			c0.1-0.67,0.15-1.35,0.15-2.02"/>
		<path fill="none" stroke="#1D2132" stroke-width="0.1" stroke-linecap="square" stroke-miterlimit="10" d="M88.01,67
			c0.02,0,0.04,0,0.06,0c1.04,0,2.04-0.36,2.82-1.02"/>
		<path fill="none" stroke="#1D2132" stroke-width="0.1" stroke-linecap="square" stroke-miterlimit="10" d="M90.88,65.98
			c0.11-0.09,0.19-0.23,0.21-0.37"/>
		<path fill="none" stroke="#1D2132" stroke-width="0.1" stroke-linecap="square" stroke-miterlimit="10" d="M90.89,61.2
			c-0.78-0.65-1.78-1.01-2.82-1.01c-0.01,0-0.04,0-0.05,0"/>
		<path fill="none" stroke="#1D2132" stroke-width="0.1" stroke-linecap="square" stroke-miterlimit="10" d="M91.24,63.6
			c0-0.68-0.06-1.35-0.15-2.02"/>
		<path fill="none" stroke="#1D2132" stroke-width="0.1" stroke-linecap="square" stroke-miterlimit="10" d="M91.07,61.57
			c-0.02-0.13-0.09-0.27-0.21-0.37"/>
		<path fill="none" stroke="#1D2132" stroke-width="0.1" stroke-linecap="square" stroke-miterlimit="10" d="M88.5,60.02
			c-0.02,0-0.06,0-0.07,0c-0.58,0-1.14,0.25-1.5,0.68"/>
		<path fill="none" stroke="#1D2132" stroke-width="0.1" stroke-linecap="square" stroke-miterlimit="10" d="M86.91,60.69
			c-0.12,0.15-0.23,0.31-0.32,0.47"/>
		<path fill="none" stroke="#1D2132" stroke-width="0.1" stroke-linecap="square" stroke-miterlimit="10" d="M86.6,66.02
			c0.08,0.17,0.2,0.33,0.32,0.47"/>
		<path fill="none" stroke="#1D2132" stroke-width="0.1" stroke-linecap="square" stroke-miterlimit="10" d="M85.97,63.84
			c0.06,0.76,0.27,1.5,0.62,2.17"/>
		<path fill="none" stroke="#1D2132" stroke-width="0.1" stroke-linecap="square" stroke-miterlimit="10" d="M86.5,62.6
			c-0.08,0.32-0.12,0.66-0.12,0.99s0.05,0.67,0.12,0.99"/>
		<path fill="none" stroke="#1D2132" stroke-width="0.1" stroke-linecap="square" stroke-miterlimit="10" d="M88.3,60.44
			c-0.02,0-0.05,0-0.07,0c-0.34,0-0.65,0.13-0.87,0.37"/>
		<path fill="none" stroke="#1D2132" stroke-width="0.1" stroke-linecap="square" stroke-miterlimit="10" d="M87.37,60.82
			c-0.44,0.52-0.73,1.12-0.87,1.78"/>
		<path fill="none" stroke="#1D2132" stroke-width="0.1" stroke-linecap="square" stroke-miterlimit="10" d="M87.36,66.37
			c0.23,0.23,0.54,0.37,0.87,0.37c0.02,0,0.05,0,0.07,0"/>
		<path fill="none" stroke="#1D2132" stroke-width="0.1" stroke-linecap="square" stroke-miterlimit="10" d="M86.49,64.59
			c0.13,0.65,0.41,1.27,0.87,1.79"/>
		<path fill="none" stroke="#1D2132" stroke-width="0.1" stroke-linecap="square" stroke-miterlimit="10" d="M89.61,63.59
			c0,0.25-0.22,0.46-0.49,0.46c-0.27,0-0.49-0.21-0.49-0.46s0.22-0.46,0.49-0.46C89.39,63.12,89.61,63.34,89.61,63.59"/>
		<path fill="none" stroke="#1D2132" stroke-width="0.1" stroke-linecap="square" stroke-miterlimit="10" d="M89.39,63.59
			c0,0.14-0.11,0.25-0.26,0.25c-0.15,0-0.26-0.11-0.26-0.25s0.11-0.25,0.26-0.25C89.27,63.34,89.39,63.45,89.39,63.59"/>
	</g>
	<g>
		<polygon fill="#FFFFFF" points="77.74,79.51 80.32,79.51 80.32,77.71 80.32,77.69 80.3,77.66 80.3,77.64 80.29,77.62 80.29,77.59 
			80.28,77.57 80.27,77.55 80.26,77.53 80.24,77.52 80.23,77.49 80.21,77.48 80.18,77.47 80.18,77.46 80.16,77.44 80.13,77.43 
			80.11,77.42 80.11,72.65 80.1,72.52 80.1,72.41 80.08,72.29 80.06,72.18 80.02,72.07 80.01,71.96 79.95,71.85 79.91,71.74 
			79.85,71.64 79.8,71.55 79.74,71.45 79.67,71.36 79.6,71.27 79.52,71.19 79.44,71.11 79.35,71.03 79.27,70.95 79.18,70.89 
			79.11,70.83 79,70.78 78.9,70.72 78.8,70.67 78.7,70.62 78.61,70.58 78.5,70.55 78.4,70.52 78.29,70.49 78.18,70.46 78.07,70.45 
			77.96,70.44 77.85,70.44 77.74,70.44 77.63,70.44 77.52,70.44 77.41,70.45 77.3,70.46 77.19,70.49 77.09,70.52 76.98,70.55 
			76.87,70.58 76.78,70.62 76.67,70.67 76.57,70.72 76.48,70.78 76.39,70.83 76.3,70.89 76.2,70.95 76.12,71.03 76.04,71.11 
			75.96,71.19 75.88,71.27 75.8,71.36 75.74,71.45 75.68,71.55 75.63,71.64 75.57,71.74 75.53,71.85 75.48,71.96 75.46,72.07 
			75.42,72.18 75.4,72.29 75.37,72.41 75.37,72.52 75.37,72.65 75.37,77.42 75.35,77.43 75.32,77.44 75.3,77.46 75.29,77.47 
			75.27,77.48 75.25,77.49 75.24,77.52 75.21,77.53 75.2,77.55 75.2,77.57 75.2,77.59 75.2,77.62 75.18,77.64 75.18,77.66 
			75.16,77.69 75.16,77.71 75.16,79.51 		"/>
		
			<line fill="none" stroke="#1D2132" stroke-width="0.1" stroke-linecap="square" stroke-miterlimit="10" x1="80.11" y1="77.42" x2="80.11" y2="72.65"/>
		
			<line fill="none" stroke="#1D2132" stroke-width="0.1" stroke-linecap="square" stroke-miterlimit="10" x1="80.32" y1="79.51" x2="75.16" y2="79.51"/>
		
			<line fill="none" stroke="#1D2132" stroke-width="0.1" stroke-linecap="square" stroke-miterlimit="10" x1="80.32" y1="79.51" x2="80.32" y2="77.71"/>
		
			<line fill="none" stroke="#1D2132" stroke-width="0.1" stroke-linecap="square" stroke-miterlimit="10" x1="77.74" y1="76.58" x2="75.82" y2="76.58"/>
		
			<line fill="none" stroke="#1D2132" stroke-width="0.1" stroke-linecap="square" stroke-miterlimit="10" x1="80.11" y1="72.65" x2="79.65" y2="76.58"/>
		
			<line fill="none" stroke="#1D2132" stroke-width="0.1" stroke-linecap="square" stroke-miterlimit="10" x1="77.74" y1="76.58" x2="79.65" y2="76.58"/>
		
			<line fill="none" stroke="#1D2132" stroke-width="0.1" stroke-linecap="square" stroke-miterlimit="10" x1="75.37" y1="72.65" x2="75.82" y2="76.58"/>
		
			<line fill="none" stroke="#1D2132" stroke-width="0.1" stroke-linecap="square" stroke-miterlimit="10" x1="75.37" y1="77.42" x2="75.37" y2="72.65"/>
		
			<line fill="none" stroke="#1D2132" stroke-width="0.1" stroke-linecap="square" stroke-miterlimit="10" x1="75.16" y1="79.51" x2="75.16" y2="77.71"/>
		<path fill="none" stroke="#1D2132" stroke-width="0.1" stroke-linecap="square" stroke-miterlimit="10" d="M75.43,77.41
			c0.77-0.08,1.54-0.12,2.31-0.12c0.77,0,1.54,0.04,2.31,0.13"/>
		<path fill="none" stroke="#1D2132" stroke-width="0.1" stroke-linecap="square" stroke-miterlimit="10" d="M80.05,77.4
			c0.15,0.03,0.27,0.16,0.27,0.31"/>
		<path fill="none" stroke="#1D2132" stroke-width="0.1" stroke-linecap="square" stroke-miterlimit="10" d="M75.37,72.65
			c0-1.22,1.06-2.21,2.37-2.21s2.37,0.99,2.37,2.21"/>
		<path fill="none" stroke="#1D2132" stroke-width="0.1" stroke-linecap="square" stroke-miterlimit="10" d="M75.16,77.72
			c0-0.15,0.12-0.3,0.27-0.31"/>
		<path fill="none" stroke="#1D2132" stroke-width="0.1" stroke-linecap="square" stroke-miterlimit="10" d="M77.74,78.62
			c0.13,0,0.24-0.12,0.24-0.26s-0.11-0.26-0.24-0.26s-0.24,0.13-0.24,0.26C77.51,78.51,77.61,78.62,77.74,78.62"/>
	</g>
	<g>
		<path fill="#FFFFFF" d="M79.6,59.03h12.06c0.08,0,0.12-0.05,0.12-0.12V46.87c0-0.08-0.05-0.12-0.12-0.12H79.61
			c-0.08,0-0.12,0.05-0.12,0.12v12.05C79.49,58.97,79.55,59.03,79.6,59.03z"/>
		
			<line fill="none" stroke="#1D2132" stroke-width="0.1" stroke-linecap="square" stroke-miterlimit="10" x1="89.84" y1="49.86" x2="89.05" y2="49.86"/>
		
			<line fill="none" stroke="#1D2132" stroke-width="0.1" stroke-linecap="square" stroke-miterlimit="10" x1="88.72" y1="49.52" x2="88.72" y2="48.73"/>
		
			<line fill="none" stroke="#1D2132" stroke-width="0.1" stroke-linecap="square" stroke-miterlimit="10" x1="88.37" y1="49.86" x2="87.6" y2="49.86"/>
		
			<line fill="none" stroke="#1D2132" stroke-width="0.1" stroke-linecap="square" stroke-miterlimit="10" x1="88.72" y1="50.98" x2="88.72" y2="50.19"/>
		
			<line fill="none" stroke="#1D2132" stroke-width="0.1" stroke-linecap="square" stroke-miterlimit="10" x1="91.05" y1="58.34" x2="87.76" y2="58.34"/>
		
			<line fill="none" stroke="#1D2132" stroke-width="0.1" stroke-linecap="square" stroke-miterlimit="10" x1="87.89" y1="47.4" x2="80.37" y2="47.4"/>
		<path fill="none" stroke="#1D2132" stroke-width="0.1" stroke-linecap="square" stroke-miterlimit="10" d="M91.05,58.34H80.43
			c-0.1,0-0.19-0.09-0.19-0.19V47.53"/>
		
			<line fill="none" stroke="#1D2132" stroke-width="0.1" stroke-linecap="square" stroke-miterlimit="10" x1="91.18" y1="58.21" x2="91.18" y2="50.68"/>
		<g>
			<path fill="none" stroke="#1D2132" stroke-width="0.1" stroke-linecap="square" stroke-miterlimit="10" d="M91.16,50.47
				c0.03,0.06,0.04,0.15,0.04,0.21"/>
		</g>
		<g>
			<path fill="none" stroke="#1D2132" stroke-width="0.1" stroke-linecap="square" stroke-miterlimit="10" d="M91.18,58.21
				c0,0.07-0.06,0.13-0.13,0.13"/>
		</g>
		<g>
			<path fill="none" stroke="#1D2132" stroke-width="0.1" stroke-linecap="square" stroke-miterlimit="10" d="M91.16,50.47
				c0.03,0.06,0.04,0.15,0.04,0.21"/>
		</g>
		<g>
			<path fill="none" stroke="#1D2132" stroke-width="0.1" stroke-linecap="square" stroke-miterlimit="10" d="M80.24,47.53
				c0-0.07,0.06-0.13,0.13-0.13"/>
		</g>
		<g>
			<path fill="none" stroke="#1D2132" stroke-width="0.1" stroke-linecap="square" stroke-miterlimit="10" d="M88.03,47.42
				c1.34,0.68,2.43,1.79,3.15,3.15"/>
		</g>
		<g>
			<path fill="none" stroke="#1D2132" stroke-width="0.1" stroke-linecap="square" stroke-miterlimit="10" d="M87.9,47.4
				c0.07,0,0.15,0.02,0.22,0.03"/>
		</g>
		<g>
			<path fill="none" stroke="#1D2132" stroke-width="0.1" stroke-linecap="square" stroke-miterlimit="10" d="M88.1,47.42
				c1.44,0.48,2.56,1.62,3.04,3.04"/>
		</g>
		<g>
			<path fill="none" stroke="#1D2132" stroke-width="0.1" stroke-linecap="square" stroke-miterlimit="10" d="M87.9,47.4
				c0.07,0,0.15,0.02,0.22,0.03"/>
		</g>
		<g>
			<path fill="none" stroke="#1D2132" stroke-width="0.1" stroke-linecap="square" stroke-miterlimit="10" d="M89.35,49.86
				c0-0.33-0.29-0.61-0.61-0.61c-0.34-0.02-0.61,0.27-0.61,0.61c0,0.33,0.28,0.61,0.61,0.61C89.05,50.47,89.35,50.19,89.35,49.86"/>
		</g>
		<g>
			<path fill="none" stroke="#1D2132" stroke-width="0.1" stroke-linecap="square" stroke-miterlimit="10" d="M89.58,49.86
				c0-0.48-0.38-0.86-0.86-0.86c-0.48,0-0.88,0.38-0.88,0.86s0.39,0.87,0.87,0.87C89.19,50.71,89.58,50.34,89.58,49.86"/>
		</g>
		<path fill="none" stroke="#1D2132" stroke-width="0.1" stroke-linecap="square" stroke-miterlimit="10" d="M79.87,59.03H91.5
			c0.18,0,0.33-0.15,0.33-0.33V47.08c0-0.18-0.15-0.33-0.33-0.33H79.9c-0.18,0-0.33,0.15-0.33,0.33V58.7
			C79.55,58.88,79.7,59.03,79.87,59.03z"/>
	</g>
	<g>
		<g>
			<path fill="#FFFFFF" stroke="#1D2132" stroke-width="0.1" stroke-linecap="square" stroke-miterlimit="10" d="M72.88,51.98
				c0.11,0,0.2,0.07,0.2,0.16s-0.09,0.16-0.2,0.16s-0.2-0.07-0.2-0.16C72.68,52.06,72.77,51.99,72.88,51.98z"/>
			
				<ellipse fill="#FFFFFF" stroke="#1D2132" stroke-width="0.1" stroke-linecap="square" stroke-miterlimit="10" cx="72.04" cy="52.14" rx="0.2" ry="0.16"/>
			<path fill="#FFFFFF" stroke="#1D2132" stroke-width="0.1" stroke-linecap="square" stroke-miterlimit="10" d="M68.58,51.98
				c0.11,0,0.2,0.07,0.2,0.16s-0.09,0.16-0.2,0.16s-0.2-0.07-0.2-0.16C68.38,52.06,68.46,51.99,68.58,51.98z"/>
			<path fill="#FFFFFF" stroke="#1D2132" stroke-width="0.1" stroke-linecap="square" stroke-miterlimit="10" d="M73.08,52.15
				c0.44,0,0.8-0.09,0.8-0.21V51.4c0-0.12-0.36-0.21-0.8-0.21h-4.7c-0.44,0-0.8,0.09-0.8,0.21v0.53c0,0.12,0.36,0.21,0.8,0.21
				L73.08,52.15z"/>
			
				<rect x="67.2" y="47.15" fill="#FFFFFF" stroke="#1D2132" stroke-width="0.1" stroke-linecap="square" stroke-miterlimit="10" width="7" height="4.71"/>
			<path fill="#FFFFFF" stroke="#1D2132" stroke-width="0.1" stroke-linecap="square" stroke-miterlimit="10" d="M73.08,51.61
				c0.44,0,0.8-0.77,0.8-1.72v-0.77c0-0.95-0.36-1.72-0.8-1.72h-4.7c-0.44,0-0.8,0.77-0.8,1.72v0.77c0,0.95,0.36,1.72,0.8,1.72
				H73.08z"/>
		</g>
		<g>
			<path fill="#FFFFFF" stroke="#1D2132" stroke-width="0.1" stroke-linecap="square" stroke-miterlimit="10" d="M68.36,47.82V47.8
				c0-0.09,0.07-0.16,0.16-0.16h4.43c0.09,0,0.16,0.07,0.16,0.16v0.02c0,0.09-0.07,0.16-0.16,0.16h-4.43
				C68.43,47.98,68.36,47.91,68.36,47.82z"/>
			<g>
				
					<rect x="72.63" y="46.9" fill="#FFFFFF" stroke="#1D2132" stroke-width="0.1" stroke-linecap="square" stroke-miterlimit="10" width="0.28" height="0.75"/>
				
					<rect x="68.54" y="46.9" fill="#FFFFFF" stroke="#1D2132" stroke-width="0.1" stroke-linecap="square" stroke-miterlimit="10" width="0.28" height="0.75"/>
			</g>
			<g>
				
					<rect x="72.48" y="46.76" fill="#FFFFFF" stroke="#1D2132" stroke-width="0.1" stroke-linecap="square" stroke-miterlimit="10" width="0.59" height="0.14"/>
				
					<rect x="68.38" y="46.76" fill="#FFFFFF" stroke="#1D2132" stroke-width="0.1" stroke-linecap="square" stroke-miterlimit="10" width="0.59" height="0.14"/>
			</g>
		</g>
	</g>
</g>
<g id="Furniture">
	<g>
		
			<rect x="2.17" y="71.55" fill="#FFFFFF" stroke="#1D2132" stroke-width="0.1" stroke-linecap="square" stroke-miterlimit="22.9256" width="33.74" height="7.97"/>
		
			<rect x="16.38" y="71.55" fill="#FFFFFF" stroke="#1D2132" stroke-width="0.1" stroke-linecap="square" stroke-miterlimit="22.9256" width="6.2" height="7.97"/>
		
			<rect x="29.23" y="71.55" fill="#FFFFFF" stroke="#1D2132" stroke-width="0.1" stroke-linecap="square" stroke-miterlimit="22.9256" width="7.04" height="7.97"/>
		
			<rect x="2.17" y="71.55" fill="#FFFFFF" stroke="#1D2132" stroke-width="0.1" stroke-linecap="square" stroke-miterlimit="22.9256" width="6.85" height="7.97"/>
		<g>
			
				<line fill="none" stroke="#1D2132" stroke-width="0.1" stroke-linecap="square" stroke-miterlimit="22.9256" x1="5.68" y1="76.52" x2="5.68" y2="74.54"/>
			
				<line fill="none" stroke="#1D2132" stroke-width="0.1" stroke-linecap="square" stroke-miterlimit="22.9256" x1="4.99" y1="76.23" x2="6.39" y2="74.82"/>
			
				<line fill="none" stroke="#1D2132" stroke-width="0.1" stroke-linecap="square" stroke-miterlimit="22.9256" x1="4.69" y1="75.54" x2="6.69" y2="75.54"/>
			
				<line fill="none" stroke="#1D2132" stroke-width="0.1" stroke-linecap="square" stroke-miterlimit="22.9256" x1="4.99" y1="74.82" x2="6.39" y2="76.23"/>
		</g>
		<g>
			
				<rect x="17.11" y="71.87" fill="#FFFFFF" stroke="#1D2132" stroke-width="0.1" stroke-linecap="square" stroke-miterlimit="22.9256" width="4.65" height="7.31"/>
			<g>
				<path fill="#FFFFFF" stroke="#1D2132" stroke-width="0.1" stroke-linecap="square" stroke-miterlimit="22.9256" d="M20.71,73.86
					c0,0.72-0.57,1.27-1.27,1.27c-0.72,0-1.27-0.57-1.27-1.27c0-0.72,0.57-1.27,1.27-1.27C20.14,72.58,20.71,73.16,20.71,73.86"/>
				<path fill="#FFFFFF" stroke="#1D2132" stroke-width="0.1" stroke-linecap="square" stroke-miterlimit="22.9256" d="M20.71,77.46
					c0,0.69-0.57,1.27-1.27,1.27c-0.72,0-1.27-0.57-1.27-1.27c0-0.71,0.57-1.27,1.27-1.27S20.71,76.76,20.71,77.46"/>
				<path fill="#FFFFFF" stroke="#1D2132" stroke-width="0.1" stroke-linecap="square" stroke-miterlimit="22.9256" d="M20.46,73.86
					c0,0.57-0.46,1.01-1.01,1.01c-0.56,0-1.01-0.46-1.01-1.01c0-0.56,0.46-1.01,1.01-1.01C20,72.83,20.46,73.3,20.46,73.86"/>
				<path fill="#FFFFFF" stroke="#1D2132" stroke-width="0.1" stroke-linecap="square" stroke-miterlimit="22.9256" d="M20.46,77.46
					c0,0.56-0.46,1.01-1.01,1.01c-0.56,0-1.01-0.46-1.01-1.01c0-0.56,0.46-1.01,1.01-1.01S20.46,76.9,20.46,77.46"/>
			</g>
		</g>
		<g>
			<path fill="#FFFFFF" stroke="#1D2132" stroke-width="0.1" stroke-linecap="square" stroke-miterlimit="22.9256" d="M31.21,78.03
				h3.07c0.26,0,0.46-0.2,0.46-0.46V72.5c0-0.26-0.2-0.46-0.46-0.46h-3.07c-0.26,0-0.46,0.2-0.46,0.46v5.07
				C30.76,77.83,30.95,78.03,31.21,78.03z"/>
			<g>
				<path fill="#FFFFFF" stroke="#1D2132" stroke-width="0.1" stroke-linecap="square" stroke-miterlimit="22.9256" d="M33.06,76.9
					c0-0.19-0.15-0.36-0.32-0.36s-0.32,0.17-0.32,0.36s0.15,0.36,0.32,0.36C32.92,77.26,33.08,77.1,33.06,76.9z"/>
				<g>
					<path fill="#FFFFFF" stroke="#1D2132" stroke-width="0.1" stroke-linecap="square" stroke-miterlimit="22.9256" d="M33.3,78.52
						c-0.02-0.28-0.25-0.5-0.55-0.5c-0.32,0-0.55,0.23-0.55,0.5c0,0.28,0.24,0.5,0.55,0.5C33.06,79.03,33.3,78.81,33.3,78.52z"/>
					<path fill="#FFFFFF" stroke="#1D2132" stroke-width="0.1" stroke-linecap="square" stroke-miterlimit="22.9256" d="
						M32.73,75.72c-0.1,0-0.16,0.1-0.17,0.27l0.02,2.58c0,0.14,0.08,0.26,0.17,0.26l0,0c0.1,0,0.17-0.11,0.17-0.26l-0.02-2.59
						C32.89,75.83,32.83,75.72,32.73,75.72L32.73,75.72z"/>
					<path fill="#FFFFFF" stroke="#1D2132" stroke-width="0.1" stroke-linecap="square" stroke-miterlimit="22.9256" d="M33.5,78.5
						c0-0.09-0.34-0.15-0.76-0.15c-0.41,0-0.76,0.08-0.76,0.15c0,0.1,0.34,0.15,0.76,0.15C33.17,78.67,33.52,78.61,33.5,78.5z"/>
				</g>
			</g>
		</g>
	</g>
	<g>
		<g>
			
				<rect x="2.27" y="7.39" fill="#FFFFFF" stroke="#1D2132" stroke-width="0.1" stroke-linecap="square" stroke-miterlimit="10" width="5.23" height="30.29"/>
			<g>
				<polygon fill="#FFFFFF" stroke="#1D2132" stroke-width="0.1" stroke-linecap="square" stroke-miterlimit="10" points="
					7.84,34.65 7.84,32.6 7.5,32.6 7.5,32.06 8.03,32.06 8.03,35.19 7.5,35.19 7.5,34.65 				"/>
				<polygon fill="#FFFFFF" stroke="#1D2132" stroke-width="0.1" stroke-linecap="square" stroke-miterlimit="10" points="
					7.84,12.47 7.84,10.42 7.5,10.42 7.5,9.88 8.03,9.88 8.03,13.01 7.5,13.01 7.5,12.47 				"/>
			</g>
			<g>
				<polygon fill="#FFFFFF" stroke="#1D2132" stroke-width="0.1" stroke-linecap="square" stroke-miterlimit="10" points="
					7.84,28.82 7.84,26.77 7.5,26.77 7.5,26.23 8.03,26.23 8.03,29.37 7.5,29.37 7.5,28.82 				"/>
				<polygon fill="#FFFFFF" stroke="#1D2132" stroke-width="0.1" stroke-linecap="square" stroke-miterlimit="10" points="
					7.84,18.3 7.84,16.25 7.5,16.25 7.5,15.71 8.03,15.71 8.03,18.84 7.5,18.84 7.5,18.3 				"/>
			</g>
		</g>
		<g>
			<path fill="#FFFFFF" stroke="#1D2132" stroke-width="0.1" stroke-linecap="square" stroke-miterlimit="10" d="M3.31,21.5v2.08
				c0,0.5,0.41,0.91,0.91,0.91h0.29c0.5,0,0.91-0.41,0.91-0.91V21.5c0-0.5-0.41-0.91-0.91-0.91H4.22C3.71,20.59,3.3,20.99,3.31,21.5
				z"/>
			<path fill="#FFFFFF" stroke="#1D2132" stroke-width="0.1" stroke-linecap="square" stroke-miterlimit="10" d="M4.16,21.7v1.67
				c0,0.22,0.17,0.39,0.39,0.39h0.09c0.22,0,0.39-0.17,0.39-0.39V21.7c0-0.22-0.17-0.39-0.39-0.39H4.55
				C4.34,21.31,4.16,21.48,4.16,21.7z"/>
			
				<rect x="4.86" y="15.65" fill="#FFFFFF" stroke="#1D2132" stroke-width="0.1" stroke-linecap="square" stroke-miterlimit="10" width="0.18" height="13.77"/>
			<polygon fill="#FFFFFF" stroke="#1D2132" stroke-width="0.1" stroke-linecap="square" stroke-miterlimit="10" points="4.5,27.43 
				4.86,29.42 4.86,15.65 4.5,17.64 			"/>
		</g>
	</g>
	<g>
		<path fill="#FFFFFF" stroke="#1D2132" stroke-width="0.1" stroke-linecap="square" stroke-miterlimit="10" d="M40.02,47.9
			c-1,0.31-1.82,1.3-3.99,1.31c-2.17,0.01-4.46-2.61-3.37-6.36s3.13-4.7,4.9-4.51s2.67,1.38,3.25,2.02c1.34,1.45,1.35,2,1.92,2.45
			c1.16,0.92,0.62,2.98,0.01,3.73C41.62,47.9,41.02,47.58,40.02,47.9z"/>
		<path fill="none" stroke="#1D2132" stroke-width="0.1" stroke-linecap="square" stroke-miterlimit="10" d="M33.42,47.85
			c0,0,0.44,0.5,1.14,0.84s0.91,0.21,1.82,0.15c0.91-0.06,1.35-0.06,2.59-0.87c0.88-0.57,0.78-0.89,1.1-0.77
			c0.19,0.07,0.72-0.06,1.15-0.48c0.71-0.69,0.85-1.36,1.03-2.26c0.18-0.91-0.39-1.5-0.49-1.58c-0.1-0.08,0.2-0.39-0.13-0.9
			c-1.1-1.69-1.15-1.28-2.15-2.55c-0.5-0.63-1.92-1.1-1.92-1.1"/>
		<path fill="none" stroke="#1D2132" stroke-width="0.1" stroke-linecap="square" stroke-miterlimit="10" d="M40.76,42.94
			c0,0-0.13,0.05-0.69,0c-0.55-0.05-1.35-0.3-1.35-0.3s0,0-0.07-0.14c-0.07-0.13-0.19-0.44-0.46-0.83s0.22-1.09,0.22-1.09"/>
		<path fill="none" stroke="#1D2132" stroke-width="0.1" stroke-linecap="square" stroke-miterlimit="10" d="M39.57,46.84
			c0,0-0.2-0.25-0.7-0.54s-1.06-0.59-1.06-0.59s0.09-0.98,0.38-1.75s0.53-1.31,0.53-1.31"/>
		<path fill="none" stroke="#1D2132" stroke-width="0.1" stroke-linecap="square" stroke-miterlimit="10" d="M37.81,45.72
			c0,0-0.45,0-1.05,0.18s-0.79,0.3-0.82,0.74c-0.03,0.44,0.27,1.08,0.27,1.08"/>
		<path fill="none" stroke="#1D2132" stroke-width="0.1" stroke-linecap="square" stroke-miterlimit="10" d="M34.28,42.76
			c0,0,0.15,0.12,0.44,0.2c0.29,0.07,0.41,0.03,0.41,0.03s0,0,0.23-0.56s1.1-1.32,1.1-1.32"/>
		<path fill="none" stroke="#1D2132" stroke-width="0.1" stroke-linecap="square" stroke-miterlimit="10" d="M34.59,45.84
			c0.25-0.06,0.39-0.31,0.39-0.31s0,0-0.09-0.21s-0.09-0.77,0.08-1.24c0.16-0.47,0.16-1.09,0.16-1.09"/>
		<path fill="none" stroke="#1D2132" stroke-width="0.1" stroke-linecap="square" stroke-miterlimit="10" d="M35.78,40.48
			c0,0,0.19,0.05,0.37,0.15c0.18,0.11,0.31,0.48,0.31,0.48"/>
		<path fill="#FFFFFF" stroke="#1D2132" stroke-width="0.1" stroke-linecap="square" stroke-miterlimit="10" d="M42.59,44.13
			c0.29,0.14,0.21,0.38,0.15,0.71s-0.15,0.53-0.23,0.88c-0.08,0.34-0.41,0.38-0.41,0.38l-0.52-0.18c0,0,0.02-0.15,0.07-0.15
			c0.07-0.01,0.33,0.22,0.45,0.14c0.2-0.14,0.09-0.43,0.15-0.76c0.06-0.33,0.22-0.54,0.21-0.75c0-0.12-0.24-0.22-0.37-0.2
			c-0.08,0.01-0.05-0.12-0.05-0.12S42.3,43.98,42.59,44.13z"/>
	</g>
	<g>
		<g>
			<path fill="#FFFFFF" stroke="#1D2132" stroke-width="0.1" stroke-linecap="square" stroke-miterlimit="10" d="M5.53,59.76
				c0.78-0.19,1.77-0.15,2.41-0.15s1.63-0.04,2.4,0.15c0.79,0.19,1.12,0.6,1.01,1.96c-0.11,1.36-0.08,3.2-0.34,3.88
				c-0.23,0.6-1.54,0.15-3.08,0.15S5.08,66.2,4.85,65.6c-0.26-0.68-0.22-2.52-0.33-3.88C4.41,60.36,4.75,59.95,5.53,59.76z"/>
			<path fill="#FFFFFF" stroke="#1D2132" stroke-width="0.1" stroke-linecap="square" stroke-miterlimit="10" d="M5.71,59.73
				c0.72-0.15,1.64-0.12,2.23-0.12c0.59,0,1.51-0.02,2.23,0.13c0.73,0.16,1.04,0.5,0.94,1.61c-0.11,1.11-0.08,2.62-0.32,3.18
				c-0.22,0.5-1.43,0.96-2.86,0.96c-1.42,0-2.63-0.47-2.85-0.96c-0.24-0.56-0.21-2.08-0.31-3.19S4.98,59.89,5.71,59.73z"/>
			<g>
				<path fill="#FFFFFF" stroke="#1D2132" stroke-width="0.1" stroke-linecap="square" stroke-miterlimit="10" d="M4.68,66.53
					c0-1.65,1.51-0.49,3.25-0.49c1.68,0,3.06-1.12,3.24,0.43c-0.43,0.14-0.87,0.26-1.32,0.35C8.07,67.16,6.3,67.04,4.68,66.53z"/>
				<path fill="#FFFFFF" stroke="#1D2132" stroke-width="0.1" stroke-linecap="square" stroke-miterlimit="10" d="M4.61,66.51
					c0.03,0,0.05,0.01,0.08,0.02c1.62,0.51,3.39,0.64,5.17,0.29c0.45-0.09,0.89-0.21,1.32-0.35c0.03-0.01,0.06-0.02,0.09-0.03
					l0.1,0.3c-0.08,0.03-0.16,0.06-0.24,0.08c-0.39,0.12-0.79,0.23-1.21,0.31c-1.76,0.35-3.5,0.24-5.11-0.23
					c-0.1-0.03-0.2-0.06-0.3-0.09L4.61,66.51z"/>
			</g>
		</g>
		<g>
			<path fill="#FFFFFF" stroke="#1D2132" stroke-width="0.1" stroke-linecap="square" stroke-miterlimit="10" d="M5.53,47.95
				c0.78,0.19,1.77,0.15,2.41,0.15s1.63,0.04,2.4-0.15c0.79-0.19,1.12-0.6,1.01-1.96c-0.11-1.36-0.08-3.2-0.34-3.88
				c-0.23-0.6-1.54-0.15-3.08-0.15s-2.85-0.45-3.08,0.15c-0.26,0.68-0.22,2.52-0.33,3.88C4.41,47.34,4.75,47.76,5.53,47.95z"/>
			<path fill="#FFFFFF" stroke="#1D2132" stroke-width="0.1" stroke-linecap="square" stroke-miterlimit="10" d="M5.71,47.97
				c0.72,0.15,1.64,0.12,2.23,0.12c0.59,0,1.51,0.02,2.23-0.13c0.73-0.16,1.04-0.5,0.94-1.61c-0.11-1.11-0.08-2.62-0.32-3.18
				c-0.22-0.5-1.43-0.96-2.86-0.96c-1.42,0-2.63,0.47-2.85,0.96c-0.24,0.56-0.21,2.08-0.31,3.19C4.67,47.48,4.98,47.82,5.71,47.97z"
				/>
			<g>
				<path fill="#FFFFFF" stroke="#1D2132" stroke-width="0.1" stroke-linecap="square" stroke-miterlimit="10" d="M4.68,41.18
					c0,1.65,1.51,0.49,3.25,0.49c1.68,0,3.06,1.12,3.24-0.43c-0.43-0.14-0.87-0.26-1.32-0.35C8.07,40.54,6.3,40.66,4.68,41.18z"/>
				<path fill="#FFFFFF" stroke="#1D2132" stroke-width="0.1" stroke-linecap="square" stroke-miterlimit="10" d="M4.61,41.2
					c0.03,0,0.05-0.01,0.08-0.02c1.62-0.51,3.39-0.64,5.17-0.29c0.45,0.09,0.89,0.21,1.32,0.35c0.03,0.01,0.06,0.02,0.09,0.03
					l0.1-0.3c-0.08-0.03-0.16-0.06-0.24-0.08c-0.39-0.12-0.79-0.23-1.21-0.31c-1.76-0.35-3.5-0.24-5.11,0.23
					c-0.1,0.03-0.2,0.06-0.3,0.09L4.61,41.2z"/>
			</g>
		</g>
		<g>
			<path fill="#FFFFFF" stroke="#1D2132" stroke-width="0.1" stroke-linecap="square" stroke-miterlimit="10" d="M13.62,51.14
				c-0.19,0.78-0.15,1.77-0.15,2.41c0,0.64-0.04,1.63,0.15,2.4c0.19,0.79,0.6,1.12,1.96,1.01s3.2-0.08,3.88-0.34
				c0.6-0.23,0.15-1.54,0.15-3.08c0-1.54,0.45-2.85-0.15-3.08c-0.68-0.26-2.52-0.22-3.88-0.33C14.23,50.02,13.81,50.36,13.62,51.14z
				"/>
			<path fill="#FFFFFF" stroke="#1D2132" stroke-width="0.1" stroke-linecap="square" stroke-miterlimit="10" d="M13.6,51.33
				c-0.15,0.72-0.12,1.64-0.12,2.23s-0.02,1.51,0.13,2.23c0.16,0.73,0.5,1.04,1.61,0.94c1.11-0.11,2.62-0.08,3.18-0.32
				c0.5-0.22,0.96-1.43,0.96-2.86c0-1.42-0.47-2.63-0.96-2.85c-0.56-0.24-2.08-0.21-3.19-0.31C14.09,50.28,13.75,50.59,13.6,51.33z"
				/>
			<g>
				<path fill="#FFFFFF" stroke="#1D2132" stroke-width="0.1" stroke-linecap="square" stroke-miterlimit="10" d="M20.4,50.3
					c-1.65,0-0.49,1.51-0.49,3.25c0,1.68-1.12,3.06,0.43,3.24c0.14-0.43,0.26-0.87,0.35-1.32C21.03,53.68,20.91,51.92,20.4,50.3z"/>
				<path fill="#FFFFFF" stroke="#1D2132" stroke-width="0.1" stroke-linecap="square" stroke-miterlimit="10" d="M20.37,50.22
					c0,0.03,0.01,0.05,0.02,0.08c0.51,1.62,0.64,3.39,0.29,5.17c-0.09,0.45-0.21,0.89-0.35,1.32c-0.01,0.03-0.02,0.06-0.03,0.09
					l0.3,0.1c0.03-0.08,0.06-0.16,0.08-0.24c0.12-0.39,0.23-0.79,0.31-1.21c0.35-1.76,0.24-3.5-0.23-5.11
					c-0.03-0.1-0.06-0.2-0.09-0.3L20.37,50.22z"/>
			</g>
		</g>
		
			<rect x="2.27" y="48.31" fill="#FFFFFF" stroke="#1D2132" stroke-width="0.1" stroke-linecap="square" stroke-miterlimit="10" width="11.01" height="11.01"/>
	</g>
	<g>
		
			<rect x="65.22" y="47.06" fill="#FFFFFF" stroke="#1D2132" stroke-width="0.1" stroke-linecap="square" stroke-miterlimit="10" width="0.69" height="8.26"/>
		
			<rect x="65.21" y="47.51" fill="#FFFFFF" stroke="#1D2132" stroke-width="0.1" stroke-linecap="square" stroke-miterlimit="10" width="0.41" height="7.35"/>
	</g>
	<g>
		
			<rect x="65.34" y="71.28" fill="#FFFFFF" stroke="#1D2132" stroke-width="0.1" stroke-linecap="square" stroke-miterlimit="10" width="0.69" height="5.51"/>
		<g>
			
				<rect x="64.28" y="71.67" fill="#FFFFFF" stroke="#1D2132" stroke-width="0.1" stroke-linecap="square" stroke-miterlimit="10" width="1.05" height="0.31"/>
			
				<rect x="65.14" y="71.67" fill="#FFFFFF" stroke="#1D2132" stroke-width="0.1" stroke-linecap="square" stroke-miterlimit="10" width="0.19" height="0.31"/>
		</g>
		<g>
			
				<rect x="64.28" y="73.15" fill="#FFFFFF" stroke="#1D2132" stroke-width="0.1" stroke-linecap="square" stroke-miterlimit="10" width="1.05" height="0.31"/>
			
				<rect x="65.14" y="73.15" fill="#FFFFFF" stroke="#1D2132" stroke-width="0.1" stroke-linecap="square" stroke-miterlimit="10" width="0.19" height="0.31"/>
		</g>
		<g>
			
				<rect x="64.28" y="74.62" fill="#FFFFFF" stroke="#1D2132" stroke-width="0.1" stroke-linecap="square" stroke-miterlimit="10" width="1.05" height="0.31"/>
			
				<rect x="65.14" y="74.62" fill="#FFFFFF" stroke="#1D2132" stroke-width="0.1" stroke-linecap="square" stroke-miterlimit="10" width="0.19" height="0.31"/>
		</g>
		<g>
			
				<rect x="64.28" y="76.09" fill="#FFFFFF" stroke="#1D2132" stroke-width="0.1" stroke-linecap="square" stroke-miterlimit="10" width="1.05" height="0.31"/>
			
				<rect x="65.14" y="76.09" fill="#FFFFFF" stroke="#1D2132" stroke-width="0.1" stroke-linecap="square" stroke-miterlimit="10" width="0.19" height="0.31"/>
		</g>
	</g>
	<g>
		<g>
			<g>
				
					<rect x="85.16" y="37.68" fill="#FFFFFF" stroke="#1D2132" stroke-width="0.1" stroke-linecap="square" stroke-miterlimit="10" width="5.03" height="5.03"/>
				<polygon fill="#FFFFFF" stroke="#1D2132" stroke-width="0.1" stroke-linecap="square" stroke-miterlimit="10" points="
					84.82,41.18 84.82,39.21 85.15,39.21 85.15,38.69 84.65,38.69 84.65,41.7 85.15,41.7 85.15,41.18 				"/>
			</g>
			<g>
				
					<rect x="85.16" y="7.1" fill="#FFFFFF" stroke="#1D2132" stroke-width="0.1" stroke-linecap="square" stroke-miterlimit="10" width="5.03" height="5.03"/>
				<polygon fill="#FFFFFF" stroke="#1D2132" stroke-width="0.1" stroke-linecap="square" stroke-miterlimit="10" points="
					84.82,10.6 84.82,8.63 85.15,8.63 85.15,8.11 84.65,8.11 84.65,11.12 85.15,11.12 85.15,10.6 				"/>
			</g>
		</g>
		<g>
			<g>
				
					<rect x="64.13" y="12.98" fill="#FFFFFF" stroke="#1D2132" stroke-width="0.1" stroke-linecap="square" stroke-miterlimit="22.9256" width="26.48" height="23.83"/>
				<path fill="#FFFFFF" stroke="#1D2132" stroke-width="0.1" stroke-linecap="square" stroke-miterlimit="22.9256" d="M89.8,13.28
					c0.29,0.03,0.11,0.77,0.26,0.4s0.23,0,0.23,0.37s0,15,0,15.68s0,1.62,0,1.62s0.09-0.08,0,0.23c-0.09,0.32,0.09,4.38,0,4.7
					c-0.09,0.32-0.49-0.54-0.63-0.38c-0.13,0.16,0.74,0.55,0.51,0.57c-0.29,0.03-1.15-0.11-1.72-0.07
					c-0.57,0.04-0.89,0.26-1.65,0.01c-0.39-0.13-0.85,0.14-2.06,0.12s-1.68-0.02-3.33,0s-3.92,0.01-5.38,0.06
					c-1.17,0.04-1.9-0.15-2.42-0.03c-0.19,0.04-1.24-0.01-2.59,0.03c-1.35,0.04-5.45-0.06-6.16-0.08c-0.71-0.01-0.46,0.01-0.39-0.1
					s0.43-0.15,0.7-0.32c0.27-0.17-0.06-0.2-0.5,0.06c-0.44,0.26-0.22,0.06-0.22-0.52c0-0.39,0.04-1.15,0.17-1.24
					c0.13-0.1,0.1-0.08-0.07-0.17c-0.17-0.1-0.21-0.74-0.07-1.17c0.13-0.42,0-2.57,0.1-2.68s0.17-0.11,0-0.2s-0.17-12.24-0.17-14
					c0-1.79,0.02-2.53,0.06-2.76c0.03-0.21,0.63,0.59,0.9,0.66c0.27,0.07-0.07-0.16-0.14-0.23c-0.07-0.08-0.49-0.31-0.59-0.44
					s0.32,0.04,0.76,0.13c0.64,0.13-0.52-0.16-0.01-0.17c0.45,0,0.28,0.09,0.68,0.01c0.17-0.03,0.55-0.06,1.21-0.03
					c1.06,0.04,2.71-0.12,4.7-0.1c1.99,0.02,2.56-0.04,2.7,0.09c0.13,0.13,0.87,0.4,0.94,0.25c0.06-0.15-0.28-0.28,0.63-0.32
					c0.91-0.04,2.55,0.08,3.6,0.08c1.05,0,2.56-0.12,2.83,0.03c0.27,0.15,0.51,0.13,0.68,0c0.17-0.13,0.27,0.02,1.35,0.02
					s1.74-0.05,2.79-0.13c0.63-0.05,1.28,0,1.28,0C89.07,13.38,89.51,13.23,89.8,13.28z"/>
				<path fill="#FFFFFF" stroke="#1D2132" stroke-width="0.1" stroke-linecap="square" stroke-miterlimit="22.9256" d="M83.5,14.66
					c0.4,0.87,0.1,3.24-0.14,3.94s0.33,14.91,0.06,15.88c-0.27,0.97-0.55,1.43-0.41,0.91c0.13-0.53-0.1-1.36-0.07-0.41
					c0.04,0.95-0.05,1.73-0.05,1.98c0,0.06,0,0.06-0.51,0.1c-0.39,0.03-0.72,0.12-0.75,0c-0.04-0.11,0.64-1.6,0.68-1.66
					c0.16-0.25-0.78,1.48-0.85,1.64c-0.07,0.15-0.41,0.04-1.46-0.06c-1.03-0.1-2.1,0.02-2.62-0.1c-0.54-0.13,0.51,0.02,0.85-0.06
					c0.34-0.08,0.5,0.05,1.52-1.37s1.42-14.19,1.58-16.47c0.06-0.9,0.3-2.9,0.06-3.69c-0.19-0.62-0.38-1.33-0.31-1.45
					s0.14,0.1,0.31,0.31c0.17,0.22,0.2,0.24,0.44,0.43c0.24,0.2-0.3-0.52-1.05-1.18c-0.74-0.66-2.03-0.31-2.03-0.41
					s3.75-0.17,4.53-0.06C83.85,13.01,83.08,13.78,83.5,14.66z"/>
				<g>
					<path fill="#FFFFFF" stroke="#1D2132" stroke-width="0.1" stroke-linecap="square" stroke-miterlimit="22.9256" d="
						M90.45,26.75c0.12,0.32,0.1,1.18,0.14,3.14c0.04,1.96-0.07,2.74-0.11,3.11c-0.04,0.36-0.27,1.1-0.12,1.28s-0.19,0.32-0.3,0.27
						c-0.11-0.05-0.63-0.1-1.53-0.01c-0.91,0.09-2.15-0.23-2.26-0.09c-0.11,0.14-0.19-0.09-0.15-0.27s-0.08-0.5-0.1-0.88
						c-0.09-1.75-0.19-2.86-0.08-5.37c0.03-0.65,0.25-1.45,0.1-1.72c-0.15-0.28,0-0.32,0.19-0.23c0.19,0.09,0.28,0.22,1-0.01
						c0.71-0.23,1.28-0.19,2.03-0.05c0.76,0.14,0.93,0.09,1.04,0s0.17-0.18,0.17,0.19C90.47,26.2,90.36,26.42,90.45,26.75z"/>
					<path fill="none" stroke="#1D2132" stroke-width="0.1" stroke-linecap="square" stroke-miterlimit="22.9256" d="M86.73,34.04
						c0,0-0.7-1.62-0.7-3.86s0.51-3.73,0.51-3.73"/>
				</g>
				<g>
					<path fill="#FFFFFF" stroke="#1D2132" stroke-width="0.1" stroke-linecap="square" stroke-miterlimit="22.9256" d="M88.04,27.7
						c0.09,0.23,0.08,0.86,0.11,2.28s-0.06,1.99-0.09,2.26c-0.03,0.26-0.21,0.8-0.09,0.93c0.13,0.13-0.15,0.23-0.24,0.2
						c-0.09-0.04-0.51-0.08-1.24-0.01c-0.73,0.06-1.74-0.17-1.83-0.07c-0.09,0.1-0.15-0.07-0.12-0.2s-0.06-0.37-0.08-0.64
						c-0.07-1.27-0.16-2.07-0.07-3.9c0.03-0.47,0.2-1.05,0.08-1.25s0-0.24,0.15-0.17c0.16,0.07,0.23,0.16,0.81-0.01
						c0.57-0.16,1.03-0.13,1.64-0.03s0.75,0.07,0.84,0c0.09-0.07,0.14-0.14,0.14,0.13C88.05,27.29,87.96,27.45,88.04,27.7z"/>
					<path fill="none" stroke="#1D2132" stroke-width="0.1" stroke-linecap="square" stroke-miterlimit="22.9256" d="M85.03,32.99
						c0,0-0.57-1.18-0.57-2.81c0-1.62,0.41-2.71,0.41-2.71"/>
				</g>
				<g>
					<path fill="#FFFFFF" stroke="#1D2132" stroke-width="0.1" stroke-linecap="square" stroke-miterlimit="22.9256" d="
						M90.45,16.31c0.12,0.32,0.1,1.18,0.14,3.14c0.04,1.96-0.07,2.74-0.11,3.11c-0.04,0.36-0.27,1.1-0.12,1.28s-0.19,0.32-0.3,0.27
						c-0.11-0.05-0.63-0.1-1.53-0.01c-0.91,0.09-2.15-0.23-2.26-0.09c-0.11,0.14-0.19-0.09-0.15-0.27c0.04-0.18-0.08-0.5-0.1-0.88
						c-0.09-1.75-0.19-2.86-0.08-5.37c0.03-0.65,0.25-1.45,0.1-1.72c-0.15-0.28,0-0.32,0.19-0.23c0.19,0.09,0.28,0.22,1-0.01
						c0.71-0.23,1.28-0.19,2.03-0.05c0.76,0.14,0.93,0.09,1.04,0s0.17-0.18,0.17,0.19C90.47,15.76,90.36,15.98,90.45,16.31z"/>
					<path fill="none" stroke="#1D2132" stroke-width="0.1" stroke-linecap="square" stroke-miterlimit="22.9256" d="M86.73,23.61
						c0,0-0.7-1.62-0.7-3.86s0.51-3.73,0.51-3.73"/>
				</g>
				<g>
					<path fill="#FFFFFF" stroke="#1D2132" stroke-width="0.1" stroke-linecap="square" stroke-miterlimit="22.9256" d="
						M88.04,17.26c0.09,0.23,0.08,0.86,0.11,2.28s-0.06,1.99-0.09,2.26c-0.03,0.26-0.21,0.8-0.09,0.93c0.13,0.13-0.15,0.23-0.24,0.2
						c-0.09-0.04-0.51-0.08-1.24-0.01c-0.73,0.06-1.74-0.17-1.83-0.07c-0.09,0.1-0.15-0.07-0.12-0.2s-0.06-0.37-0.08-0.64
						c-0.07-1.27-0.16-2.07-0.07-3.9c0.03-0.47,0.2-1.05,0.08-1.25s0-0.24,0.15-0.17c0.16,0.07,0.23,0.16,0.81-0.01
						c0.57-0.16,1.03-0.13,1.64-0.03s0.75,0.07,0.84,0c0.09-0.07,0.14-0.14,0.14,0.13C88.05,16.85,87.96,17.01,88.04,17.26z"/>
					<path fill="none" stroke="#1D2132" stroke-width="0.1" stroke-linecap="square" stroke-miterlimit="22.9256" d="M85.03,22.55
						c0,0-0.57-1.18-0.57-2.81c0-1.62,0.41-2.71,0.41-2.71"/>
				</g>
				<path fill="#FFFFFF" stroke="#1D2132" stroke-width="0.1" stroke-linecap="square" stroke-miterlimit="22.9256" d="M65,36.93
					h7.37c0.34,0,0.62-0.27,0.62-0.62V13.32c0-0.34-0.27-0.62-0.62-0.62H65c-0.34,0-0.62,0.27-0.62,0.62v22.99
					C64.38,36.66,64.66,36.94,65,36.93z"/>
			</g>
			<g>
				
					<rect x="91.11" y="9.01" fill="#FFFFFF" stroke="#1D2132" stroke-width="0.1" stroke-linecap="square" stroke-miterlimit="22.9256" width="0.66" height="31.78"/>
				<path fill="#FFFFFF" stroke="#1D2132" stroke-width="0.1" stroke-linecap="square" stroke-miterlimit="22.9256" d="M91.09,40.51
					h0.03V9.29h-0.04c-0.26,0-0.47,0.21-0.47,0.47v30.28C90.61,40.3,90.82,40.51,91.09,40.51z"/>
				<g>
					<g>
						<g>
							<path fill="#FFFFFF" stroke="#1D2132" stroke-width="0.1" stroke-linecap="square" stroke-miterlimit="22.9256" d="
								M91.12,39.74h-0.16c-0.26,0-0.47-0.21-0.47-0.47V39.2c0-0.26,0.21-0.47,0.47-0.47h0.16v1V39.74z"/>
							<path fill="#FFFFFF" stroke="#1D2132" stroke-width="0.1" stroke-linecap="square" stroke-miterlimit="22.9256" d="
								M86.25,35.55L86.25,35.55c-0.11-0.02-0.26,0.23-0.34,0.56c-0.08,0.33-0.06,0.62,0.05,0.65l0,0c0.42,0.08,0.85,0.1,1.27,0.06
								l0.18-0.75C87.04,35.83,86.65,35.66,86.25,35.55z"/>
							
								<ellipse transform="matrix(0.2315 -0.9728 0.9728 0.2315 31.6456 112.9588)" fill="#FFFFFF" stroke="#1D2132" stroke-width="0.1" stroke-linecap="square" stroke-miterlimit="22.9256" cx="87.32" cy="36.45" rx="0.39" ry="0.13"/>
							<path fill="#FFFFFF" stroke="#1D2132" stroke-width="0.1" stroke-linecap="square" stroke-miterlimit="22.9256" d="
								M87.43,36.4l0.08,0.03c0.02,0.01,0.48,0.19,0.82,0.87c0.06,0.12,0.11,0.25,0.17,0.39c0.17,0.4,0.34,0.81,0.69,1.08
								c0.46,0.36,1.22,0.36,1.23,0.36h0.08v0.17h-0.08c-0.04,0-0.83,0-1.34-0.4c-0.38-0.31-0.57-0.75-0.74-1.15
								c-0.06-0.13-0.11-0.26-0.17-0.38c-0.31-0.62-0.73-0.79-0.73-0.79l-0.08-0.03C87.35,36.49,87.38,36.39,87.43,36.4z"/>
						</g>
					</g>
					<g>
						<g>
							<path fill="#FFFFFF" stroke="#1D2132" stroke-width="0.1" stroke-linecap="square" stroke-miterlimit="22.9256" d="
								M91.12,10.07h-0.16c-0.26,0-0.47,0.21-0.47,0.47v0.07c0,0.26,0.21,0.47,0.47,0.47h0.16v-1V10.07z"/>
							<path fill="#FFFFFF" stroke="#1D2132" stroke-width="0.1" stroke-linecap="square" stroke-miterlimit="22.9256" d="
								M86.25,14.26L86.25,14.26c-0.11,0.02-0.26-0.23-0.34-0.56c-0.08-0.33-0.06-0.62,0.05-0.65l0,0c0.42-0.08,0.85-0.1,1.27-0.06
								l0.18,0.75C87.04,13.98,86.65,14.15,86.25,14.26z"/>
							
								<ellipse transform="matrix(0.9728 -0.2315 0.2315 0.9728 -0.7213 20.5779)" fill="#FFFFFF" stroke="#1D2132" stroke-width="0.1" stroke-linecap="square" stroke-miterlimit="22.9256" cx="87.32" cy="13.36" rx="0.13" ry="0.39"/>
							<path fill="#FFFFFF" stroke="#1D2132" stroke-width="0.1" stroke-linecap="square" stroke-miterlimit="22.9256" d="
								M87.43,13.41l0.08-0.03c0.02-0.01,0.48-0.19,0.82-0.87c0.06-0.12,0.11-0.25,0.17-0.39c0.17-0.4,0.34-0.81,0.69-1.08
								c0.46-0.36,1.22-0.36,1.23-0.36h0.08v-0.17h-0.08c-0.04,0-0.83,0-1.34,0.4c-0.38,0.31-0.57,0.75-0.74,1.15
								c-0.06,0.13-0.11,0.26-0.17,0.38c-0.31,0.62-0.73,0.79-0.73,0.79l-0.08,0.03C87.35,13.32,87.38,13.41,87.43,13.41z"/>
						</g>
					</g>
				</g>
			</g>
		</g>
	</g>
	<g>
		<g>
			
				<rect x="67.95" y="4.4" fill="#FFFFFF" stroke="#1D2132" stroke-width="0.1" stroke-linecap="square" stroke-miterlimit="10" width="11.01" height="0.83"/>
			
				<line fill="none" stroke="#1D2132" stroke-width="0.1" stroke-linecap="square" stroke-miterlimit="10" x1="68.82" y1="5.07" x2="68.82" y2="4.57"/>
			
				<line fill="none" stroke="#1D2132" stroke-width="0.1" stroke-linecap="square" stroke-miterlimit="10" x1="69.11" y1="5.07" x2="69.11" y2="4.57"/>
			
				<line fill="none" stroke="#1D2132" stroke-width="0.1" stroke-linecap="square" stroke-miterlimit="10" x1="68.22" y1="5.07" x2="68.22" y2="4.57"/>
			
				<line fill="none" stroke="#1D2132" stroke-width="0.1" stroke-linecap="square" stroke-miterlimit="10" x1="68.53" y1="5.07" x2="68.53" y2="4.57"/>
			
				<line fill="none" stroke="#1D2132" stroke-width="0.1" stroke-linecap="square" stroke-miterlimit="10" x1="69.42" y1="5.07" x2="69.42" y2="4.57"/>
			
				<line fill="none" stroke="#1D2132" stroke-width="0.1" stroke-linecap="square" stroke-miterlimit="10" x1="69.71" y1="5.07" x2="69.71" y2="4.57"/>
			
				<line fill="none" stroke="#1D2132" stroke-width="0.1" stroke-linecap="square" stroke-miterlimit="10" x1="70" y1="5.07" x2="70" y2="4.57"/>
			
				<line fill="none" stroke="#1D2132" stroke-width="0.1" stroke-linecap="square" stroke-miterlimit="10" x1="70.31" y1="5.07" x2="70.31" y2="4.57"/>
			
				<line fill="none" stroke="#1D2132" stroke-width="0.1" stroke-linecap="square" stroke-miterlimit="10" x1="70.6" y1="5.07" x2="70.6" y2="4.57"/>
			
				<line fill="none" stroke="#1D2132" stroke-width="0.1" stroke-linecap="square" stroke-miterlimit="10" x1="70.89" y1="5.07" x2="70.89" y2="4.57"/>
			
				<line fill="none" stroke="#1D2132" stroke-width="0.1" stroke-linecap="square" stroke-miterlimit="10" x1="71.79" y1="5.07" x2="71.79" y2="4.57"/>
			
				<line fill="none" stroke="#1D2132" stroke-width="0.1" stroke-linecap="square" stroke-miterlimit="10" x1="72.08" y1="5.07" x2="72.08" y2="4.57"/>
			
				<line fill="none" stroke="#1D2132" stroke-width="0.1" stroke-linecap="square" stroke-miterlimit="10" x1="71.19" y1="5.07" x2="71.19" y2="4.57"/>
			
				<line fill="none" stroke="#1D2132" stroke-width="0.1" stroke-linecap="square" stroke-miterlimit="10" x1="71.5" y1="5.07" x2="71.5" y2="4.57"/>
			
				<line fill="none" stroke="#1D2132" stroke-width="0.1" stroke-linecap="square" stroke-miterlimit="10" x1="72.39" y1="5.07" x2="72.39" y2="4.57"/>
			
				<line fill="none" stroke="#1D2132" stroke-width="0.1" stroke-linecap="square" stroke-miterlimit="10" x1="72.68" y1="5.07" x2="72.68" y2="4.57"/>
			
				<line fill="none" stroke="#1D2132" stroke-width="0.1" stroke-linecap="square" stroke-miterlimit="10" x1="72.97" y1="5.07" x2="72.97" y2="4.57"/>
			
				<line fill="none" stroke="#1D2132" stroke-width="0.1" stroke-linecap="square" stroke-miterlimit="10" x1="73.28" y1="5.07" x2="73.28" y2="4.57"/>
			
				<line fill="none" stroke="#1D2132" stroke-width="0.1" stroke-linecap="square" stroke-miterlimit="10" x1="73.57" y1="5.07" x2="73.57" y2="4.57"/>
			
				<line fill="none" stroke="#1D2132" stroke-width="0.1" stroke-linecap="square" stroke-miterlimit="10" x1="73.88" y1="5.07" x2="73.88" y2="4.57"/>
			
				<line fill="none" stroke="#1D2132" stroke-width="0.1" stroke-linecap="square" stroke-miterlimit="10" x1="74.76" y1="5.07" x2="74.76" y2="4.57"/>
			
				<line fill="none" stroke="#1D2132" stroke-width="0.1" stroke-linecap="square" stroke-miterlimit="10" x1="75.07" y1="5.07" x2="75.07" y2="4.57"/>
			
				<line fill="none" stroke="#1D2132" stroke-width="0.1" stroke-linecap="square" stroke-miterlimit="10" x1="74.17" y1="5.07" x2="74.17" y2="4.57"/>
			
				<line fill="none" stroke="#1D2132" stroke-width="0.1" stroke-linecap="square" stroke-miterlimit="10" x1="74.46" y1="5.07" x2="74.46" y2="4.57"/>
			
				<line fill="none" stroke="#1D2132" stroke-width="0.1" stroke-linecap="square" stroke-miterlimit="10" x1="75.35" y1="5.07" x2="75.35" y2="4.57"/>
			
				<line fill="none" stroke="#1D2132" stroke-width="0.1" stroke-linecap="square" stroke-miterlimit="10" x1="75.65" y1="5.07" x2="75.65" y2="4.57"/>
			
				<line fill="none" stroke="#1D2132" stroke-width="0.1" stroke-linecap="square" stroke-miterlimit="10" x1="75.96" y1="5.07" x2="75.96" y2="4.57"/>
			
				<line fill="none" stroke="#1D2132" stroke-width="0.1" stroke-linecap="square" stroke-miterlimit="10" x1="76.25" y1="5.07" x2="76.25" y2="4.57"/>
			
				<line fill="none" stroke="#1D2132" stroke-width="0.1" stroke-linecap="square" stroke-miterlimit="10" x1="76.54" y1="5.07" x2="76.54" y2="4.57"/>
			
				<line fill="none" stroke="#1D2132" stroke-width="0.1" stroke-linecap="square" stroke-miterlimit="10" x1="76.85" y1="5.07" x2="76.85" y2="4.57"/>
			
				<line fill="none" stroke="#1D2132" stroke-width="0.1" stroke-linecap="square" stroke-miterlimit="10" x1="77.74" y1="5.07" x2="77.74" y2="4.57"/>
			
				<line fill="none" stroke="#1D2132" stroke-width="0.1" stroke-linecap="square" stroke-miterlimit="10" x1="78.03" y1="5.07" x2="78.03" y2="4.57"/>
			
				<line fill="none" stroke="#1D2132" stroke-width="0.1" stroke-linecap="square" stroke-miterlimit="10" x1="77.14" y1="5.07" x2="77.14" y2="4.57"/>
			
				<line fill="none" stroke="#1D2132" stroke-width="0.1" stroke-linecap="square" stroke-miterlimit="10" x1="77.43" y1="5.07" x2="77.43" y2="4.57"/>
			
				<line fill="none" stroke="#1D2132" stroke-width="0.1" stroke-linecap="square" stroke-miterlimit="10" x1="78.33" y1="5.07" x2="78.33" y2="4.57"/>
			
				<line fill="none" stroke="#1D2132" stroke-width="0.1" stroke-linecap="square" stroke-miterlimit="10" x1="78.62" y1="5.07" x2="78.62" y2="4.57"/>
		</g>
		<path fill="none" stroke="#1D2132" stroke-width="0.1" stroke-linecap="square" stroke-miterlimit="10" d="M72.21,6.16
			c-0.43,0,0-0.77-0.43-0.77s0,0.77-0.43,0.77s0-0.77-0.43-0.77s0,0.77-0.43,0.77s0-0.77-0.43-0.77s0,0.77-0.43,0.77
			s0-0.77-0.43-0.77s0,0.77-0.43,0.77s0-0.77-0.43-0.77s0,0.77-0.43,0.77s0-0.77-0.43-0.77s0,0.77-0.43,0.77s0-0.77-0.43-0.77
			s0,0.77-0.43,0.77s0-0.77-0.43-0.77s0,0.77-0.43,0.77s0-0.77-0.43-0.77s0,0.77-0.43,0.77s0-0.77-0.43-0.77s0,0.77-0.43,0.77
			s0-0.77-0.43-0.77s0,0.77-0.43,0.77s0-0.77-0.43-0.77s0,0.77-0.43,0.77s0-0.77-0.43-0.77s0,0.77-0.43,0.77s0-0.77-0.43-0.77
			s0,0.77-0.43,0.77s0-0.77-0.43-0.77s0,0.77-0.43,0.77s0-0.77-0.43-0.77s0,0.77-0.43,0.77s0-0.77-0.43-0.77"/>
		<path fill="none" stroke="#1D2132" stroke-width="0.1" stroke-linecap="square" stroke-miterlimit="10" d="M74.79,6.16
			c0.43,0,0-0.77,0.43-0.77s0,0.77,0.43,0.77s0-0.77,0.43-0.77s0,0.77,0.43,0.77s0-0.77,0.43-0.77s0,0.77,0.43,0.77
			s0-0.77,0.43-0.77s0,0.77,0.43,0.77s0-0.77,0.43-0.77s0,0.77,0.43,0.77s0-0.77,0.43-0.77s0,0.77,0.43,0.77s0-0.77,0.43-0.77
			s0,0.77,0.43,0.77s0-0.77,0.43-0.77s0,0.77,0.43,0.77s0-0.77,0.43-0.77s0,0.77,0.43,0.77s0-0.77,0.43-0.77s0,0.77,0.43,0.77
			s0-0.77,0.43-0.77s0,0.77,0.43,0.77s0-0.77,0.43-0.77s0,0.77,0.43,0.77s0-0.77,0.43-0.77s0,0.77,0.43,0.77s0-0.77,0.43-0.77
			s0,0.77,0.43,0.77s0-0.77,0.43-0.77s0,0.77,0.43,0.77s0-0.77,0.43-0.77s0,0.77,0.43,0.77s0-0.77,0.43-0.77"/>
	</g>
	<g>
		<g>
			
				<rect x="21.65" y="4.4" fill="#FFFFFF" stroke="#1D2132" stroke-width="0.1" stroke-linecap="square" stroke-miterlimit="10" width="11.01" height="0.83"/>
			
				<line fill="none" stroke="#1D2132" stroke-width="0.1" stroke-linecap="square" stroke-miterlimit="10" x1="22.52" y1="5.07" x2="22.52" y2="4.58"/>
			
				<line fill="none" stroke="#1D2132" stroke-width="0.1" stroke-linecap="square" stroke-miterlimit="10" x1="22.81" y1="5.07" x2="22.81" y2="4.58"/>
			
				<line fill="none" stroke="#1D2132" stroke-width="0.1" stroke-linecap="square" stroke-miterlimit="10" x1="21.92" y1="5.07" x2="21.92" y2="4.58"/>
			
				<line fill="none" stroke="#1D2132" stroke-width="0.1" stroke-linecap="square" stroke-miterlimit="10" x1="22.22" y1="5.07" x2="22.22" y2="4.58"/>
			
				<line fill="none" stroke="#1D2132" stroke-width="0.1" stroke-linecap="square" stroke-miterlimit="10" x1="23.11" y1="5.07" x2="23.11" y2="4.58"/>
			
				<line fill="none" stroke="#1D2132" stroke-width="0.1" stroke-linecap="square" stroke-miterlimit="10" x1="23.41" y1="5.07" x2="23.41" y2="4.58"/>
			
				<line fill="none" stroke="#1D2132" stroke-width="0.1" stroke-linecap="square" stroke-miterlimit="10" x1="23.7" y1="5.07" x2="23.7" y2="4.58"/>
			
				<line fill="none" stroke="#1D2132" stroke-width="0.1" stroke-linecap="square" stroke-miterlimit="10" x1="24" y1="5.07" x2="24" y2="4.58"/>
			
				<line fill="none" stroke="#1D2132" stroke-width="0.1" stroke-linecap="square" stroke-miterlimit="10" x1="24.3" y1="5.07" x2="24.3" y2="4.58"/>
			
				<line fill="none" stroke="#1D2132" stroke-width="0.1" stroke-linecap="square" stroke-miterlimit="10" x1="24.6" y1="5.07" x2="24.6" y2="4.58"/>
			
				<line fill="none" stroke="#1D2132" stroke-width="0.1" stroke-linecap="square" stroke-miterlimit="10" x1="25.49" y1="5.07" x2="25.49" y2="4.58"/>
			
				<line fill="none" stroke="#1D2132" stroke-width="0.1" stroke-linecap="square" stroke-miterlimit="10" x1="25.79" y1="5.07" x2="25.79" y2="4.58"/>
			
				<line fill="none" stroke="#1D2132" stroke-width="0.1" stroke-linecap="square" stroke-miterlimit="10" x1="24.89" y1="5.07" x2="24.89" y2="4.58"/>
			
				<line fill="none" stroke="#1D2132" stroke-width="0.1" stroke-linecap="square" stroke-miterlimit="10" x1="25.19" y1="5.07" x2="25.19" y2="4.58"/>
			
				<line fill="none" stroke="#1D2132" stroke-width="0.1" stroke-linecap="square" stroke-miterlimit="10" x1="26.08" y1="5.07" x2="26.08" y2="4.58"/>
			
				<line fill="none" stroke="#1D2132" stroke-width="0.1" stroke-linecap="square" stroke-miterlimit="10" x1="26.38" y1="5.07" x2="26.38" y2="4.58"/>
			
				<line fill="none" stroke="#1D2132" stroke-width="0.1" stroke-linecap="square" stroke-miterlimit="10" x1="26.68" y1="5.07" x2="26.68" y2="4.58"/>
			
				<line fill="none" stroke="#1D2132" stroke-width="0.1" stroke-linecap="square" stroke-miterlimit="10" x1="26.97" y1="5.07" x2="26.97" y2="4.58"/>
			
				<line fill="none" stroke="#1D2132" stroke-width="0.1" stroke-linecap="square" stroke-miterlimit="10" x1="27.27" y1="5.07" x2="27.27" y2="4.58"/>
			
				<line fill="none" stroke="#1D2132" stroke-width="0.1" stroke-linecap="square" stroke-miterlimit="10" x1="27.57" y1="5.07" x2="27.57" y2="4.58"/>
			
				<line fill="none" stroke="#1D2132" stroke-width="0.1" stroke-linecap="square" stroke-miterlimit="10" x1="28.46" y1="5.07" x2="28.46" y2="4.58"/>
			
				<line fill="none" stroke="#1D2132" stroke-width="0.1" stroke-linecap="square" stroke-miterlimit="10" x1="28.76" y1="5.07" x2="28.76" y2="4.58"/>
			
				<line fill="none" stroke="#1D2132" stroke-width="0.1" stroke-linecap="square" stroke-miterlimit="10" x1="27.87" y1="5.07" x2="27.87" y2="4.58"/>
			
				<line fill="none" stroke="#1D2132" stroke-width="0.1" stroke-linecap="square" stroke-miterlimit="10" x1="28.16" y1="5.07" x2="28.16" y2="4.58"/>
			
				<line fill="none" stroke="#1D2132" stroke-width="0.1" stroke-linecap="square" stroke-miterlimit="10" x1="29.06" y1="5.07" x2="29.06" y2="4.58"/>
			
				<line fill="none" stroke="#1D2132" stroke-width="0.1" stroke-linecap="square" stroke-miterlimit="10" x1="29.35" y1="5.07" x2="29.35" y2="4.58"/>
			
				<line fill="none" stroke="#1D2132" stroke-width="0.1" stroke-linecap="square" stroke-miterlimit="10" x1="29.65" y1="5.07" x2="29.65" y2="4.58"/>
			
				<line fill="none" stroke="#1D2132" stroke-width="0.1" stroke-linecap="square" stroke-miterlimit="10" x1="29.95" y1="5.07" x2="29.95" y2="4.58"/>
			
				<line fill="none" stroke="#1D2132" stroke-width="0.1" stroke-linecap="square" stroke-miterlimit="10" x1="30.25" y1="5.07" x2="30.25" y2="4.58"/>
			
				<line fill="none" stroke="#1D2132" stroke-width="0.1" stroke-linecap="square" stroke-miterlimit="10" x1="30.54" y1="5.07" x2="30.54" y2="4.58"/>
			
				<line fill="none" stroke="#1D2132" stroke-width="0.1" stroke-linecap="square" stroke-miterlimit="10" x1="31.43" y1="5.07" x2="31.43" y2="4.58"/>
			
				<line fill="none" stroke="#1D2132" stroke-width="0.1" stroke-linecap="square" stroke-miterlimit="10" x1="31.73" y1="5.07" x2="31.73" y2="4.58"/>
			
				<line fill="none" stroke="#1D2132" stroke-width="0.1" stroke-linecap="square" stroke-miterlimit="10" x1="30.84" y1="5.07" x2="30.84" y2="4.58"/>
			
				<line fill="none" stroke="#1D2132" stroke-width="0.1" stroke-linecap="square" stroke-miterlimit="10" x1="31.14" y1="5.07" x2="31.14" y2="4.58"/>
			
				<line fill="none" stroke="#1D2132" stroke-width="0.1" stroke-linecap="square" stroke-miterlimit="10" x1="32.03" y1="5.07" x2="32.03" y2="4.58"/>
			
				<line fill="none" stroke="#1D2132" stroke-width="0.1" stroke-linecap="square" stroke-miterlimit="10" x1="32.33" y1="5.07" x2="32.33" y2="4.58"/>
		</g>
		<path fill="none" stroke="#1D2132" stroke-width="0.1" stroke-linecap="square" stroke-miterlimit="10" d="M25.9,6.17
			c-0.43,0,0-0.77-0.43-0.77s0,0.77-0.43,0.77s0-0.77-0.43-0.77s0,0.77-0.43,0.77s0-0.77-0.43-0.77s0,0.77-0.43,0.77
			s0-0.77-0.43-0.77s0,0.77-0.43,0.77s0-0.77-0.43-0.77s0,0.77-0.43,0.77s0-0.77-0.43-0.77s0,0.77-0.43,0.77s0-0.77-0.43-0.77
			s0,0.77-0.43,0.77s0-0.77-0.43-0.77s0,0.77-0.43,0.77s0-0.77-0.43-0.77s0,0.77-0.43,0.77s0-0.77-0.43-0.77s0,0.77-0.43,0.77
			s0-0.77-0.43-0.77s0,0.77-0.43,0.77s0-0.77-0.43-0.77c-0.43,0,0,0.77-0.43,0.77c-0.43,0,0-0.77-0.43-0.77s0,0.77-0.43,0.77
			s0-0.77-0.43-0.77s0,0.77-0.43,0.77s0-0.77-0.43-0.77s0,0.77-0.43,0.77s0-0.77-0.43-0.77s0,0.77-0.43,0.77s0-0.77-0.43-0.77"/>
		<path fill="none" stroke="#1D2132" stroke-width="0.1" stroke-linecap="square" stroke-miterlimit="10" d="M28.5,6.17
			c0.43,0,0-0.77,0.43-0.77s0,0.77,0.43,0.77s0-0.77,0.43-0.77s0,0.77,0.43,0.77c0.43,0,0-0.77,0.43-0.77c0.43,0,0,0.77,0.43,0.77
			s0-0.77,0.43-0.77s0,0.77,0.43,0.77c0.43,0,0-0.77,0.43-0.77c0.43,0,0,0.77,0.43,0.77s0-0.77,0.43-0.77s0,0.77,0.43,0.77
			s0-0.77,0.43-0.77s0,0.77,0.43,0.77s0-0.77,0.43-0.77s0,0.77,0.43,0.77s0-0.77,0.43-0.77s0,0.77,0.43,0.77s0-0.77,0.43-0.77
			s0,0.77,0.43,0.77s0-0.77,0.43-0.77s0,0.77,0.43,0.77s0-0.77,0.43-0.77s0,0.77,0.43,0.77s0-0.77,0.43-0.77s0,0.77,0.43,0.77
			s0-0.77,0.43-0.77s0,0.77,0.43,0.77s0-0.77,0.43-0.77s0,0.77,0.43,0.77s0-0.77,0.43-0.77s0,0.77,0.43,0.77s0-0.77,0.43-0.77"/>
	</g>
	<g>
		<g>
			<path fill="none" stroke="#1D2132" stroke-width="0.1" stroke-linejoin="bevel" stroke-dasharray="0.492,0.492" d="M18.27,10.11
				h23.47c0.74,0,1.34,0.6,1.34,1.34v16.59c0,0.74-0.6,1.34-1.34,1.34H18.26c-0.74,0-1.34-0.6-1.34-1.34V11.45
				C16.92,10.71,17.52,10.11,18.27,10.11z"/>
		</g>
		<g>
			<path fill="#FFFFFF" stroke="#1D2132" stroke-width="0.1" stroke-linejoin="bevel" stroke-miterlimit="22.9256" d="M35.01,9.49
				V8.63c0-0.35,0.28-0.63,0.63-0.63h8.93v23.51h-8.93c-0.35,0-0.63-0.28-0.63-0.63v-0.86c0-0.35,0.28-0.63,0.63-0.63h6.32
				c0.35,0,0.63-0.28,0.63-0.63V10.74c0-0.35-0.28-0.63-0.63-0.63h-6.32C35.29,10.11,35.01,9.83,35.01,9.49z"/>
			<path fill="none" stroke="#1D2132" stroke-width="0.1" stroke-linejoin="bevel" stroke-miterlimit="22.9256" d="M44.57,31.5
				c0,0-0.99-0.48-1.53-1.36c-0.54-0.87-0.45-1.38-0.45-1.38"/>
			<path fill="none" stroke="#1D2132" stroke-width="0.1" stroke-linejoin="bevel" stroke-miterlimit="22.9256" d="M42.58,31.5
				c0,0-0.53-0.27-0.64-1.06c-0.1-0.79,0.13-1.06,0.13-1.06"/>
			<path fill="none" stroke="#1D2132" stroke-width="0.1" stroke-linejoin="bevel" stroke-miterlimit="22.9256" d="M44.57,8
				c0,0-1,0.48-1.53,1.36c-0.54,0.87-0.45,1.38-0.45,1.38"/>
			<path fill="none" stroke="#1D2132" stroke-width="0.1" stroke-linejoin="bevel" stroke-miterlimit="22.9256" d="M42.58,8
				c0,0-0.53,0.26-0.64,1.05c-0.1,0.79,0.13,1.06,0.13,1.06"/>
			<path fill="#FFFFFF" stroke="#1D2132" stroke-width="0.1" stroke-linejoin="bevel" stroke-miterlimit="22.9256" d="M41.45,19.75
				h-5.98c-0.63,0-1.14,0.51-1.14,1.14v7.36c0,0.63,0.51,1.14,1.14,1.14h5.98c0.63,0,1.14-0.51,1.14-1.14v-7.36
				C42.59,20.26,42.08,19.75,41.45,19.75z"/>
			<path fill="#FFFFFF" stroke="#1D2132" stroke-width="0.1" stroke-linejoin="bevel" stroke-miterlimit="22.9256" d="M41.45,10.11
				h-5.98c-0.63,0-1.14,0.51-1.14,1.14v7.36c0,0.63,0.51,1.14,1.14,1.14h5.98c0.63,0,1.14-0.51,1.14-1.14v-7.36
				C42.59,10.62,42.08,10.11,41.45,10.11z"/>
			<path fill="#FFFFFF" stroke="#1D2132" stroke-width="0.1" stroke-linejoin="bevel" stroke-miterlimit="22.9256" d="M42.28,19.74
				h-0.43c-0.44,0-0.8,0.36-0.8,0.8v8.05c0,0.44,0.36,0.8,0.8,0.8h0.43c0.44,0,0.8-0.36,0.8-0.8v-8.05
				C43.08,20.1,42.73,19.75,42.28,19.74z"/>
			<path fill="#FFFFFF" stroke="#1D2132" stroke-width="0.1" stroke-linejoin="bevel" stroke-miterlimit="22.9256" d="M42.28,10.1
				h-0.43c-0.44,0-0.8,0.36-0.8,0.8v8.05c0,0.44,0.36,0.8,0.8,0.8h0.43c0.44,0,0.8-0.36,0.8-0.8V10.9
				C43.08,10.46,42.73,10.11,42.28,10.1z"/>
		</g>
		<g>
			<path fill="#FFFFFF" stroke="#1D2132" stroke-width="0.1" stroke-linejoin="bevel" stroke-miterlimit="22.9256" d="M37.69,14.72
				c-0.03-0.66-0.16-1.31-0.34-2.49s0.19-1.33,0.12-1.5s0.09-0.2,0.23-0.22c0.14-0.03,0.14-0.21,1.13-0.33s1.3,0.07,1.45-0.04
				c0.15-0.12,0.15,0.07,0.27,0.38c0.11,0.31,0.32,1.04,0.54,2.76c0.21,1.72-0.07,2.46-0.11,2.68c-0.04,0.22-0.25,0.1-0.85,0.31
				c-0.6,0.22-1.07,0.08-1.27-0.01c-0.2-0.09-0.56,0-0.67-0.23C38.19,16.03,37.72,15.38,37.69,14.72z"/>
			<path fill="#FFFFFF" stroke="#1D2132" stroke-width="0.1" stroke-linejoin="bevel" stroke-miterlimit="22.9256" d="M37.62,10.51
				c0,0,0.15,0.06,0.69-0.08s1.8-0.09,1.98,0.03s0.18,1.18,0.25,2.38s0.32,1.92,0.36,2.46s-0.26,0.56-0.71,0.72
				c-0.44,0.16-1.04,0.13-1.28,0.08c-0.24-0.05-0.58,0.06-0.58,0.06"/>
		</g>
		<g>
			<path fill="#FFFFFF" stroke="#1D2132" stroke-width="0.1" stroke-linejoin="bevel" stroke-miterlimit="22.9256" d="M37.51,26.21
				c0.05-0.72,0.01-1.43-0.01-2.72c-0.02-1.29,0.37-1.4,0.32-1.59s0.11-0.2,0.25-0.2s0.16-0.19,1.16-0.18
				c1,0.02,1.29,0.27,1.45,0.17c0.16-0.1,0.14,0.1,0.22,0.45c0.07,0.36,0.18,1.16,0.17,3.04c-0.01,1.88-0.39,2.63-0.46,2.86
				c-0.06,0.23-0.25,0.07-0.88,0.21c-0.62,0.14-1.07-0.08-1.26-0.2s-0.56-0.08-0.64-0.34C37.83,27.71,37.44,26.94,37.51,26.21z"/>
			<path fill="#FFFFFF" stroke="#1D2132" stroke-width="0.1" stroke-linejoin="bevel" stroke-miterlimit="22.9256" d="M37.99,21.72
				c0,0,0.14,0.1,0.7,0.02c0.56-0.07,1.79,0.16,1.96,0.32c0.16,0.16,0.02,1.29-0.07,2.59c-0.09,1.29,0.07,2.1,0.03,2.68
				c-0.03,0.58-0.34,0.55-0.8,0.66c-0.46,0.11-1.04-0.01-1.28-0.1c-0.23-0.09-0.58-0.02-0.58-0.02"/>
		</g>
	</g>
	<g>
		<g>
			
				<rect x="45.75" y="7.39" fill="#FFFFFF" stroke="#1D2132" stroke-width="0.1" stroke-linejoin="bevel" stroke-miterlimit="22.9256" width="6.31" height="38.02"/>
			
				<rect x="45.75" y="19.9" fill="#FFFFFF" stroke="#1D2132" stroke-width="0.1" stroke-linejoin="bevel" stroke-miterlimit="22.9256" width="6.31" height="13"/>
		</g>
		<g>
			<path fill="#FFFFFF" stroke="#1D2132" stroke-width="0.1" stroke-linecap="square" stroke-miterlimit="10" d="M48.17,39.29H47.8
				c-0.03,0.01-0.07,0.07-0.1,0.12c-0.11,0.16-0.28,0.41-0.65,0.47c-0.27,0.04-0.52-0.05-0.67-0.26c-0.16-0.21-0.18-0.51-0.05-0.76
				c0.2-0.39,0.61-0.44,0.8-0.41c0.07,0.01,0.11,0.07,0.1,0.13c-0.01,0.07-0.07,0.11-0.13,0.1c-0.01,0-0.38-0.05-0.56,0.29
				c-0.09,0.17-0.08,0.37,0.03,0.52c0.1,0.14,0.26,0.2,0.44,0.17c0.27-0.05,0.4-0.23,0.5-0.38c0.08-0.11,0.15-0.22,0.28-0.22h0.38
				c0.07,0,0.12,0.06,0.12,0.12S48.24,39.29,48.17,39.29z M47.79,39.29L47.79,39.29L47.79,39.29z"/>
			<path fill="#FFFFFF" stroke="#1D2132" stroke-width="0.1" stroke-linecap="square" stroke-miterlimit="10" d="M50.6,43.75
				c-0.28,0.07-0.56-0.05-0.7-0.31c0-0.01-0.01-0.01-0.01-0.02l-1.69-3.56c-0.01-0.03-0.02-0.06-0.02-0.09v-1.2
				c0-0.03,0.01-0.06,0.02-0.09l1.69-3.56c0-0.01,0.01-0.01,0.01-0.02c0.13-0.25,0.42-0.38,0.7-0.31s0.21,0.4,0.21,0.69v7.79
				C50.81,43.36,50.89,43.68,50.6,43.75z M49.23,38.6v1.11l1.08,3.77c0.06,0.1,0.15,0.09,0.18,0.08s0.12-0.04,0.12-0.16v-8.47
				c0-0.12-0.09-0.15-0.12-0.16c-0.03,0-0.12-0.02-0.18,0.08L49.23,38.6z"/>
		</g>
		<g>
			<path fill="#FFFFFF" stroke="#1D2132" stroke-width="0.1" stroke-linecap="square" stroke-miterlimit="10" d="M48.17,14.09H47.8
				c-0.03,0.01-0.07,0.07-0.1,0.12c-0.11,0.16-0.28,0.41-0.65,0.47c-0.27,0.04-0.52-0.05-0.67-0.26c-0.16-0.21-0.18-0.51-0.05-0.76
				c0.2-0.39,0.61-0.44,0.8-0.41c0.07,0.01,0.11,0.07,0.1,0.13c-0.01,0.07-0.07,0.11-0.13,0.1c-0.01,0-0.38-0.05-0.56,0.29
				c-0.09,0.17-0.08,0.37,0.03,0.52c0.1,0.14,0.26,0.2,0.44,0.17c0.27-0.05,0.4-0.23,0.5-0.38c0.08-0.11,0.15-0.22,0.28-0.22h0.38
				c0.07,0,0.12,0.06,0.12,0.12S48.24,14.09,48.17,14.09z M47.79,14.09L47.79,14.09L47.79,14.09z"/>
			<path fill="#FFFFFF" stroke="#1D2132" stroke-width="0.1" stroke-linecap="square" stroke-miterlimit="10" d="M50.6,18.55
				c-0.28,0.07-0.56-0.05-0.7-0.31c0-0.01-0.01-0.01-0.01-0.02l-1.69-3.56c-0.01-0.03-0.02-0.06-0.02-0.09v-1.2
				c0-0.03,0.01-0.06,0.02-0.09l1.69-3.56c0-0.01,0.01-0.01,0.01-0.02c0.13-0.25,0.42-0.38,0.7-0.31s0.21,0.4,0.21,0.69v7.79
				C50.81,18.16,50.89,18.48,50.6,18.55z M49.23,13.4v1.11l1.08,3.77c0.06,0.1,0.15,0.09,0.18,0.08s0.12-0.04,0.12-0.16V9.73
				c0-0.12-0.09-0.15-0.12-0.16c-0.03,0-0.12-0.02-0.18,0.08L49.23,13.4z"/>
		</g>
		<g>
			<path fill="#FFFFFF" stroke="#1D2132" stroke-width="0.1" stroke-linecap="square" stroke-miterlimit="10" d="M47.52,25.57v2.01
				c0,0.5,0.41,0.91,0.91,0.91h0.26c0.5,0,0.91-0.41,0.91-0.91v-2.01c0-0.5-0.41-0.91-0.91-0.91h-0.26
				C47.93,24.66,47.52,25.06,47.52,25.57z"/>
			<path fill="#FFFFFF" stroke="#1D2132" stroke-width="0.1" stroke-linecap="square" stroke-miterlimit="10" d="M48.36,25.76v1.63
				c0,0.22,0.17,0.39,0.39,0.39h0.08c0.22,0,0.39-0.17,0.39-0.39v-1.63c0-0.22-0.17-0.39-0.39-0.39h-0.08
				C48.53,25.37,48.36,25.54,48.36,25.76z"/>
			
				<rect x="49.04" y="19.81" fill="#FFFFFF" stroke="#1D2132" stroke-width="0.1" stroke-linecap="square" stroke-miterlimit="10" width="0.18" height="13.51"/>
			<polygon fill="#FFFFFF" stroke="#1D2132" stroke-width="0.1" stroke-linecap="square" stroke-miterlimit="10" points="
				48.7,31.38 49.05,33.33 49.05,19.81 48.7,21.77 			"/>
		</g>
	</g>
	<g>
		
			<rect x="37.6" y="61.2" fill="#FFFFFF" stroke="#1D2132" stroke-width="0.1" stroke-linecap="square" stroke-miterlimit="10" width="8.03" height="18.31"/>
		<g>
			<path fill="#FFFFFF" stroke="#1D2132" stroke-width="0.1" stroke-linecap="square" stroke-miterlimit="10" d="M40.64,70.56h-0.37
				c-0.03,0.01-0.07,0.07-0.1,0.12c-0.11,0.16-0.28,0.41-0.64,0.47c-0.26,0.05-0.51-0.05-0.66-0.25c-0.16-0.22-0.18-0.52-0.05-0.76
				c0.2-0.39,0.6-0.44,0.79-0.41c0.07,0.01,0.11,0.07,0.1,0.13c-0.01,0.07-0.07,0.11-0.13,0.1c0,0-0.37-0.05-0.55,0.29
				c-0.09,0.17-0.08,0.37,0.03,0.52c0.1,0.13,0.26,0.19,0.44,0.16c0.26-0.04,0.39-0.22,0.49-0.37c0.08-0.11,0.15-0.22,0.28-0.22
				h0.38c0.06,0,0.11,0.05,0.11,0.11C40.76,70.51,40.71,70.56,40.64,70.56z M40.27,70.56L40.27,70.56L40.27,70.56z"/>
			<path fill="#FFFFFF" stroke="#1D2132" stroke-width="0.1" stroke-linecap="square" stroke-miterlimit="10" d="M43.05,74.99
				c-0.28,0.07-0.56-0.05-0.7-0.31c0-0.01-0.01-0.01-0.01-0.02l-1.67-3.53c-0.01-0.03-0.02-0.06-0.02-0.09v-1.19
				c0-0.03,0.01-0.06,0.02-0.09l1.67-3.53c0-0.01,0.01-0.01,0.01-0.02c0.14-0.26,0.42-0.38,0.7-0.31s0.21,0.39,0.21,0.68v7.72
				C43.26,74.59,43.34,74.91,43.05,74.99z M41.7,69.9V71l1.07,3.73c0.06,0.09,0.15,0.08,0.18,0.07s0.12-0.04,0.12-0.16v-8.39
				c0-0.12-0.09-0.15-0.12-0.16s-0.12-0.03-0.18,0.07L41.7,69.9z"/>
		</g>
	</g>
	<g>
		
			<circle fill="#FFFFFF" stroke="#1D2132" stroke-width="0.1" stroke-linecap="square" stroke-miterlimit="22.9256" cx="42.11" cy="38.02" r="1.94"/>
		
			<circle fill="#FFFFFF" stroke="#1D2132" stroke-width="0.1" stroke-linecap="square" stroke-miterlimit="22.9256" cx="42.11" cy="38.02" r="0.41"/>
		<path fill="#FFFFFF" stroke="#1D2132" stroke-width="0.1" stroke-linecap="square" stroke-miterlimit="22.9256" d="M38.56,35.55
			l-0.66,1.48c-1.05,0-1.72-0.05-2.59-0.45l0,0c-0.43-0.19-0.52-0.94-0.19-1.67c0.33-0.73,0.94-1.17,1.37-0.98
			C37.38,34.28,37.87,34.74,38.56,35.55z"/>
		<path fill="#FFFFFF" stroke="#1D2132" stroke-width="0.1" stroke-linecap="square" stroke-miterlimit="22.9256" d="M38.56,35.55
			l0.53,0.24l-0.66,1.48l-0.53-0.24c-0.24-0.1-0.29-0.52-0.11-0.93S38.31,35.45,38.56,35.55z"/>
		
			<ellipse transform="matrix(0.4062 -0.9138 0.9138 0.4062 -10.3657 57.1089)" fill="#FFFFFF" stroke="#1D2132" stroke-width="0.1" stroke-linecap="square" stroke-miterlimit="22.9256" cx="38.76" cy="36.53" rx="0.81" ry="0.47"/>
		<path fill="#FFFFFF" stroke="#1D2132" stroke-width="0.1" stroke-linecap="square" stroke-miterlimit="22.9256" d="M42.17,37.89
			l-2.04-0.9c-0.06-0.03-0.14,0-0.17,0.07l-0.01,0.03c-0.03,0.06,0,0.14,0.07,0.17l2.04,0.9c0.06,0.03,0.14,0,0.17-0.07l0.01-0.03
			C42.27,37.99,42.24,37.92,42.17,37.89z"/>
		<path fill="#FFFFFF" stroke="#1D2132" stroke-width="0.1" stroke-linecap="square" stroke-miterlimit="22.9256" d="M41.03,37.38
			l-2.04-0.9c-0.06-0.03-0.14,0-0.17,0.07l-0.01,0.03c-0.03,0.06,0,0.14,0.07,0.17l2.04,0.9c0.06,0.03,0.14,0,0.17-0.07l0.01-0.03
			C41.13,37.49,41.1,37.41,41.03,37.38z"/>
	</g>
</g>
<g id="Doors">
	<g>
		<polygon fill="none" stroke="#1D2132" stroke-width="0.1" stroke-miterlimit="10" points="64.69,81.21 64.69,80.03 64.1,80.03 
			64.1,81.21 		"/>
		<polygon fill="none" stroke="#1D2132" stroke-width="0.1" stroke-miterlimit="10" points="49.03,81.21 49.03,80.03 49.62,80.03 
			49.62,81.21 		"/>
		<polyline fill="none" stroke="#1D2132" stroke-width="0.1" stroke-miterlimit="10" points="49.62,80.11 49.63,79.85 49.65,79.58 
			49.66,79.32 49.68,79.06 49.71,78.79 49.74,78.53 49.76,78.27 49.81,78.01 49.85,77.75 49.91,77.49 49.95,77.23 50.01,76.97 
			50.07,76.71 50.14,76.45 50.21,76.21 50.28,75.95 50.37,75.7 50.45,75.45 50.53,75.2 50.63,74.96 50.72,74.71 50.83,74.46 
			50.93,74.23 51.04,73.98 51.16,73.74 51.27,73.51 51.39,73.27 51.52,73.05 51.65,72.81 51.78,72.59 51.92,72.36 52.06,72.14 
			52.21,71.91 52.36,71.7 52.51,71.48 52.67,71.27 52.83,71.07 53,70.85 53.16,70.65 53.34,70.45 53.51,70.25 53.69,70.06 
			53.87,69.86 		"/>
		<polygon fill="none" stroke="#1D2132" stroke-width="0.1" stroke-miterlimit="10" points="63.58,80.46 53.51,70.25 53.87,69.86 
			64,80.05 		"/>
	</g>
	<g>
		<polygon fill="none" stroke="#1D2132" stroke-width="0.1" stroke-miterlimit="10" points="67.1,67.01 66.01,67.01 66.01,66.58 
			67.1,66.58 		"/>
		<polygon fill="none" stroke="#1D2132" stroke-width="0.1" stroke-miterlimit="10" points="67.1,55.46 66.01,55.46 66.01,55.9 
			67.1,55.9 		"/>
		<polyline fill="none" stroke="#1D2132" stroke-width="0.1" stroke-miterlimit="10" points="66.04,55.9 65.85,55.91 65.65,55.91 
			65.46,55.92 65.26,55.94 65.06,55.96 64.87,55.98 64.68,56 64.49,56.04 64.3,56.06 64.11,56.11 63.92,56.14 63.73,56.18 
			63.53,56.23 63.34,56.28 63.16,56.33 62.97,56.38 62.79,56.44 62.6,56.51 62.42,56.57 62.24,56.64 62.05,56.71 61.87,56.78 
			61.7,56.86 61.52,56.94 61.34,57.03 61.17,57.11 60.99,57.2 60.83,57.3 60.65,57.39 60.49,57.49 60.32,57.59 60.16,57.7 
			59.99,57.8 59.84,57.91 59.67,58.03 59.51,58.14 59.37,58.26 59.21,58.38 59.06,58.51 58.91,58.64 58.77,58.77 58.63,58.9 
			58.48,59.03 		"/>
		<polygon fill="none" stroke="#1D2132" stroke-width="0.1" stroke-miterlimit="10" points="66.3,66.2 58.77,58.77 58.48,59.03 
			66,66.5 		"/>
	</g>
	<g>
		<polygon fill="none" stroke="#1D2132" stroke-width="0.1" stroke-miterlimit="10" points="52.5,46.64 52.5,45.56 52.98,45.56 
			52.98,46.64 		"/>
		<polygon fill="none" stroke="#1D2132" stroke-width="0.1" stroke-miterlimit="10" points="65.4,46.64 65.4,45.55 64.91,45.55 
			64.91,46.64 		"/>
		<polyline fill="none" stroke="#1D2132" stroke-width="0.1" stroke-miterlimit="10" points="64.91,45.45 64.9,45.23 64.89,45.01 
			64.88,44.8 64.86,44.58 64.84,44.36 64.82,44.15 64.8,43.93 64.76,43.72 64.73,43.5 64.68,43.29 64.64,43.08 64.59,42.86 
			64.54,42.65 64.48,42.44 64.43,42.23 64.37,42.02 64.3,41.81 64.23,41.61 64.16,41.41 64.09,41.2 64.01,41 63.92,40.79 
			63.83,40.6 63.75,40.4 63.65,40.2 63.55,40.01 63.46,39.81 63.35,39.63 63.24,39.43 63.13,39.25 63.02,39.06 62.9,38.88 
			62.78,38.7 62.66,38.52 62.53,38.34 62.41,38.16 62.27,38 62.13,37.82 62,37.66 61.85,37.49 61.71,37.33 61.56,37.17 61.41,37 		
			"/>
		<polygon fill="none" stroke="#1D2132" stroke-width="0.1" stroke-miterlimit="10" points="53.41,45.74 61.71,37.33 61.41,37 
			53.07,45.4 		"/>
	</g>
</g>
<g id="Windows">
	<polyline fill="none" stroke="#1D2132" stroke-width="0.1" stroke-miterlimit="10" points="39.45,3.16 16.35,3.16 16.35,2.2 
		39.45,2.2 39.45,3.16 	"/>
	<polyline fill="none" stroke="#1D2132" stroke-width="0.1" stroke-miterlimit="10" points="15,4.37 40.81,4.37 40.81,2.2 15,2.2 
		15,4.37 	"/>
	<polyline fill="none" stroke="#1D2132" stroke-width="0.1" stroke-miterlimit="10" points="14.76,3.16 16.35,3.16 16.35,2.2 
		14.76,2.2 14.76,3.16 14.76,2.2 14.37,2.2 14.37,3.16 14.76,3.16 	"/>
	<polyline fill="none" stroke="#1D2132" stroke-width="0.1" stroke-miterlimit="10" points="39.45,3.16 41.37,3.16 41.37,2.2 
		39.45,2.2 39.45,3.16 	"/>
	<polyline fill="none" stroke="#1D2132" stroke-width="0.1" stroke-miterlimit="10" points="40.14,2.2 15.68,2.2 15.68,0.03 
		40.14,0.03 40.14,2.2 	"/>
	<polyline fill="none" stroke="#1D2132" stroke-width="0.1" stroke-miterlimit="10" points="84.69,3.16 61.6,3.16 61.6,2.2 
		84.69,2.2 84.69,3.16 	"/>
	<polyline fill="none" stroke="#1D2132" stroke-width="0.1" stroke-miterlimit="10" points="60.23,4.37 86.06,4.37 86.06,2.2 
		60.23,2.2 60.23,4.37 	"/>
	<polyline fill="none" stroke="#1D2132" stroke-width="0.1" stroke-miterlimit="10" points="59.83,3.16 61.6,3.16 61.6,2.2 
		59.83,2.2 59.83,3.16 59.83,2.2 59.37,2.2 59.37,3.16 59.83,3.16 	"/>
	<polyline fill="none" stroke="#1D2132" stroke-width="0.1" stroke-miterlimit="10" points="84.69,3.16 86.37,3.16 86.37,2.2 
		84.69,2.2 84.69,3.16 	"/>
	<polyline fill="none" stroke="#1D2132" stroke-width="0.1" stroke-miterlimit="10" points="85.38,2.2 60.92,2.2 60.92,0.03 
		85.38,0.03 85.38,2.2 	"/>
</g>
<g id="Text">
	
		<text id="TXT--" transform="matrix(1 0 0 1 54.5325 26.4503)" opacity="0.7" fill="#1D2132" enable-background="new    " font-family="'Cannonade-Medium'" font-size="3px">16,35</text>
	
		<text id="TXT---" transform="matrix(1 0 0 1 17.7401 39.0063)" opacity="0.7" fill="#1D2132" enable-background="new    " font-family="'Cannonade-Medium'" font-size="3px">10,30</text>
	
		<text id="TXT--" transform="matrix(1 0 0 1 48.2901 56.7487)" opacity="0.7" fill="#1D2132" enable-background="new    " font-family="'Cannonade-Medium'" font-size="3px">4,51</text>
	
		<text id="TXT--" transform="matrix(1 0 0 1 72.7702 64.0048)" opacity="0.7" fill="#1D2132" enable-background="new    " font-family="'Cannonade-Medium'" font-size="3px">4,06</text>
</g>
<g id="Walls">
	<polyline fill="#1D2132" stroke="#1D2132" stroke-width="0.1" stroke-miterlimit="10" points="0,2.2 0,81.68 2.17,81.68 2.17,2.2 
		0,2.2 	"/>
	<polyline fill="#1D2132" stroke="#1D2132" stroke-width="0.1" stroke-miterlimit="10" points="91.83,2.2 91.83,81.68 94,81.68 
		94,2.2 91.83,2.2 	"/>
	<line fill="none" stroke="#1D2132" stroke-width="0.1" stroke-miterlimit="10" x1="0" y1="2.2" x2="0" y2="2.2"/>
	<polyline fill="#1D2132" stroke="#1D2132" stroke-width="0.1" stroke-miterlimit="10" points="2.17,2.2 2.17,4.37 15,4.37 15,2.2 
		2.17,2.2 	"/>
	<polyline fill="#1D2132" stroke="#1D2132" stroke-width="0.1" stroke-miterlimit="10" points="40.81,2.2 40.81,4.37 60.23,4.37 
		60.23,2.2 40.81,2.2 	"/>
	<polyline fill="#1D2132" stroke="#1D2132" stroke-width="0.1" stroke-miterlimit="10" points="86.06,2.2 86.06,4.37 91.83,4.37 
		91.83,2.2 86.06,2.2 	"/>
	<polyline fill="#1D2132" stroke="#1D2132" stroke-width="0.1" stroke-miterlimit="10" points="94,2.2 94,4.37 94,4.37 	"/>
	<line fill="none" stroke="#1D2132" stroke-width="0.1" stroke-miterlimit="10" x1="94" y1="2.2" x2="94" y2="2.2"/>
	<rect x="85.38" y="0.16" fill="#1D2132" stroke="#1D2132" stroke-width="0.1" stroke-miterlimit="10" width="8.62" height="2.04"/>
	<polyline fill="#1D2132" stroke="#1D2132" stroke-width="0.1" stroke-miterlimit="10" points="60.92,2.2 60.92,0.16 40.14,0.16 
		40.14,2.2 60.92,2.2 	"/>
	<polyline fill="#1D2132" stroke="#1D2132" stroke-width="0.1" stroke-miterlimit="10" points="15.68,2.2 0,2.2 0,0.16 15.68,0.16 
		15.68,2.2 	"/>
	<polyline fill="#1D2132" stroke="#1D2132" stroke-width="0.1" stroke-miterlimit="10" points="91.83,81.68 91.83,79.51 
		64.65,79.51 64.65,81.68 91.83,81.68 	"/>
	<polyline fill="#1D2132" stroke="#1D2132" stroke-width="0.1" stroke-miterlimit="10" points="49.03,79.51 2.17,79.51 2.17,81.68 
		49.03,81.68 49.03,79.51 	"/>
	<polyline fill="#1D2132" stroke="#1D2132" stroke-width="0.1" stroke-miterlimit="10" points="45.63,60.22 45.63,61.3 37.48,61.3 
		37.48,79.51 36.39,79.51 36.39,60.22 45.63,60.22 	"/>
	<polyline fill="#1D2132" stroke="#1D2132" stroke-width="0.1" stroke-miterlimit="10" points="45.63,46.64 44.54,46.64 44.54,4.37 
		45.63,4.37 45.63,46.64 44.54,46.64 	"/>
	<polyline fill="#1D2132" stroke="#1D2132" stroke-width="0.1" stroke-miterlimit="10" points="66.01,46.64 66.01,46.64 
		66.01,55.46 67.1,55.46 67.1,46.64 91.83,46.64 91.83,45.55 66.01,45.55 66.01,46.64 	"/>
	<polyline fill="#1D2132" stroke="#1D2132" stroke-width="0.1" stroke-miterlimit="10" points="67.1,79.51 66.01,79.51 66.01,67.01 
		67.1,67.01 67.1,79.51 	"/>
	<polyline fill="#1D2132" stroke="#1D2132" stroke-width="0.1" stroke-miterlimit="10" points="44.56,46.64 44.56,45.54 52.5,45.54 
		52.5,46.64 44.56,46.64 	"/>
	<polyline fill="#1D2132" stroke="#1D2132" stroke-width="0.1" stroke-miterlimit="10" points="65.56,46.64 65.56,45.54 
		72.38,45.54 72.38,46.64 65.56,46.64 	"/>
</g>
<g id="Details">
	<g>
		
			<path fill="none" stroke="#1D2132" stroke-width="0.1" stroke-linecap="round" stroke-linejoin="round" stroke-miterlimit="10" d="
			M39.75,78.15c0,0.51-0.41,0.93-0.93,0.93s-0.93-0.42-0.93-0.93c0-0.52,0.42-0.93,0.93-0.93C39.34,77.22,39.75,77.64,39.75,78.15"
			/>
		
			<path fill="none" stroke="#1D2132" stroke-width="0.1" stroke-linecap="round" stroke-linejoin="round" stroke-miterlimit="10" d="
			M39.58,78.15c0,0.41-0.34,0.75-0.75,0.75s-0.75-0.34-0.75-0.75s0.34-0.75,0.75-0.75C39.25,77.4,39.58,77.74,39.58,78.15"/>
		
			<path fill="none" stroke="#1D2132" stroke-width="0.1" stroke-linecap="round" stroke-linejoin="round" stroke-miterlimit="10" d="
			M39.53,78.15c0,0.39-0.32,0.7-0.7,0.7s-0.7-0.32-0.7-0.7s0.32-0.7,0.7-0.7S39.53,77.76,39.53,78.15"/>
		
			<line fill="none" stroke="#1D2132" stroke-width="0.1" stroke-linecap="round" stroke-linejoin="round" stroke-miterlimit="10" x1="38.83" y1="78.8" x2="38.83" y2="79.12"/>
		<polygon fill="#1D2132" points="38.88,78.67 38.91,78.69 38.93,78.73 38.93,78.78 38.91,78.82 38.88,78.84 38.83,78.85 
			38.79,78.84 38.76,78.82 38.73,78.78 38.73,78.73 38.76,78.69 38.79,78.67 38.83,78.65 		"/>
		
			<polygon fill="none" stroke="#1D2132" stroke-width="0.1" stroke-linecap="round" stroke-linejoin="round" stroke-miterlimit="10" points="
			38.88,78.67 38.91,78.69 38.93,78.73 38.93,78.78 38.91,78.82 38.88,78.84 38.83,78.85 38.79,78.84 38.76,78.82 38.73,78.78 
			38.73,78.73 38.76,78.69 38.79,78.67 38.83,78.65 		"/>
		
			<line fill="none" stroke="#1D2132" stroke-width="0.1" stroke-linecap="round" stroke-linejoin="round" stroke-miterlimit="10" x1="38.83" y1="78.39" x2="38.83" y2="78.71"/>
		<polygon fill="#1D2132" points="38.88,78.26 38.91,78.28 38.93,78.32 38.93,78.37 38.91,78.41 38.88,78.43 38.83,78.44 
			38.79,78.43 38.76,78.41 38.73,78.37 38.73,78.32 38.76,78.28 38.79,78.26 38.83,78.24 		"/>
		
			<polygon fill="none" stroke="#1D2132" stroke-width="0.1" stroke-linecap="round" stroke-linejoin="round" stroke-miterlimit="10" points="
			38.88,78.26 38.91,78.28 38.93,78.32 38.93,78.37 38.91,78.41 38.88,78.43 38.83,78.44 38.79,78.43 38.76,78.41 38.73,78.37 
			38.73,78.32 38.76,78.28 38.79,78.26 38.83,78.24 		"/>
		
			<line fill="none" stroke="#1D2132" stroke-width="0.1" stroke-linecap="round" stroke-linejoin="round" stroke-miterlimit="10" x1="38.83" y1="77.98" x2="38.83" y2="78.3"/>
		<polygon fill="#1D2132" points="38.88,77.85 38.91,77.87 38.93,77.91 38.93,77.96 38.91,78 38.88,78.02 38.83,78.03 38.79,78.02 
			38.76,78 38.73,77.96 38.73,77.91 38.76,77.87 38.79,77.85 38.83,77.83 		"/>
		
			<polygon fill="none" stroke="#1D2132" stroke-width="0.1" stroke-linecap="round" stroke-linejoin="round" stroke-miterlimit="10" points="
			38.88,77.85 38.91,77.87 38.93,77.91 38.93,77.96 38.91,78 38.88,78.02 38.83,78.03 38.79,78.02 38.76,78 38.73,77.96 
			38.73,77.91 38.76,77.87 38.79,77.85 38.83,77.83 		"/>
		
			<line fill="none" stroke="#1D2132" stroke-width="0.1" stroke-linecap="round" stroke-linejoin="round" stroke-miterlimit="10" x1="38.83" y1="77.57" x2="38.83" y2="77.9"/>
		<polygon fill="#1D2132" points="38.88,77.45 38.91,77.47 38.93,77.51 38.93,77.56 38.91,77.6 38.88,77.62 38.83,77.63 
			38.79,77.62 38.76,77.6 38.73,77.56 38.73,77.51 38.76,77.47 38.79,77.45 38.83,77.43 		"/>
		
			<polygon fill="none" stroke="#1D2132" stroke-width="0.1" stroke-linecap="round" stroke-linejoin="round" stroke-miterlimit="10" points="
			38.88,77.45 38.91,77.47 38.93,77.51 38.93,77.56 38.91,77.6 38.88,77.62 38.83,77.63 38.79,77.62 38.76,77.6 38.73,77.56 
			38.73,77.51 38.76,77.47 38.79,77.45 38.83,77.43 		"/>
		
			<line fill="none" stroke="#1D2132" stroke-width="0.1" stroke-linecap="round" stroke-linejoin="round" stroke-miterlimit="10" x1="38.83" y1="77.16" x2="38.83" y2="77.49"/>
		<polygon fill="#1D2132" points="38.88,77.04 38.91,77.06 38.93,77.1 38.93,77.15 38.91,77.19 38.88,77.21 38.83,77.22 
			38.79,77.21 38.76,77.19 38.73,77.15 38.73,77.1 38.76,77.06 38.79,77.04 38.83,77.02 		"/>
		
			<polygon fill="none" stroke="#1D2132" stroke-width="0.1" stroke-linecap="round" stroke-linejoin="round" stroke-miterlimit="10" points="
			38.88,77.04 38.91,77.06 38.93,77.1 38.93,77.15 38.91,77.19 38.88,77.21 38.83,77.22 38.79,77.21 38.76,77.19 38.73,77.15 
			38.73,77.1 38.76,77.06 38.79,77.04 38.83,77.02 		"/>
		
			<line fill="none" stroke="#1D2132" stroke-width="0.1" stroke-linecap="round" stroke-linejoin="round" stroke-miterlimit="10" x1="38.83" y1="76.85" x2="38.83" y2="77.08"/>
		<polygon fill="#1D2132" points="38.27,78.07 38.3,78.09 38.32,78.13 38.32,78.18 38.3,78.22 38.27,78.24 38.22,78.26 38.18,78.24 
			38.15,78.22 38.12,78.18 38.12,78.13 38.15,78.09 38.18,78.07 38.22,78.06 		"/>
		
			<polygon fill="none" stroke="#1D2132" stroke-width="0.1" stroke-linecap="round" stroke-linejoin="round" stroke-miterlimit="10" points="
			38.27,78.07 38.3,78.09 38.32,78.13 38.32,78.18 38.3,78.22 38.27,78.24 38.22,78.26 38.18,78.24 38.15,78.22 38.12,78.18 
			38.12,78.13 38.15,78.09 38.18,78.07 38.22,78.06 		"/>
		
			<line fill="none" stroke="#1D2132" stroke-width="0.1" stroke-linecap="round" stroke-linejoin="round" stroke-miterlimit="10" x1="38.59" y1="78.16" x2="38.27" y2="78.16"/>
		<polygon fill="#1D2132" points="38.68,78.07 38.71,78.09 38.73,78.13 38.73,78.18 38.71,78.22 38.68,78.24 38.63,78.26 
			38.59,78.24 38.56,78.22 38.53,78.18 38.53,78.13 38.56,78.09 38.59,78.07 38.63,78.06 		"/>
		
			<polygon fill="none" stroke="#1D2132" stroke-width="0.1" stroke-linecap="round" stroke-linejoin="round" stroke-miterlimit="10" points="
			38.68,78.07 38.71,78.09 38.73,78.13 38.73,78.18 38.71,78.22 38.68,78.24 38.63,78.26 38.59,78.24 38.56,78.22 38.53,78.18 
			38.53,78.13 38.56,78.09 38.59,78.07 38.63,78.06 		"/>
		
			<line fill="none" stroke="#1D2132" stroke-width="0.1" stroke-linecap="round" stroke-linejoin="round" stroke-miterlimit="10" x1="39" y1="78.16" x2="38.68" y2="78.16"/>
		<polygon fill="#1D2132" points="39.09,78.07 39.12,78.09 39.14,78.13 39.14,78.18 39.12,78.22 39.09,78.24 39.04,78.26 39,78.24 
			38.97,78.22 38.94,78.18 38.94,78.13 38.97,78.09 39,78.07 39.04,78.06 		"/>
		
			<polygon fill="none" stroke="#1D2132" stroke-width="0.1" stroke-linecap="round" stroke-linejoin="round" stroke-miterlimit="10" points="
			39.09,78.07 39.12,78.09 39.14,78.13 39.14,78.18 39.12,78.22 39.09,78.24 39.04,78.26 39,78.24 38.97,78.22 38.94,78.18 
			38.94,78.13 38.97,78.09 39,78.07 39.04,78.06 		"/>
		
			<line fill="none" stroke="#1D2132" stroke-width="0.1" stroke-linecap="round" stroke-linejoin="round" stroke-miterlimit="10" x1="39.41" y1="78.16" x2="39.08" y2="78.16"/>
		<polygon fill="#1D2132" points="39.5,78.07 39.53,78.09 39.55,78.13 39.55,78.18 39.53,78.22 39.5,78.24 39.45,78.26 39.41,78.24 
			39.38,78.22 39.35,78.18 39.35,78.13 39.38,78.09 39.41,78.07 39.45,78.06 		"/>
		
			<polygon fill="none" stroke="#1D2132" stroke-width="0.1" stroke-linecap="round" stroke-linejoin="round" stroke-miterlimit="10" points="
			39.5,78.07 39.53,78.09 39.55,78.13 39.55,78.18 39.53,78.22 39.5,78.24 39.45,78.26 39.41,78.24 39.38,78.22 39.35,78.18 
			39.35,78.13 39.38,78.09 39.41,78.07 39.45,78.06 		"/>
		
			<line fill="none" stroke="#1D2132" stroke-width="0.1" stroke-linecap="round" stroke-linejoin="round" stroke-miterlimit="10" x1="39.82" y1="78.16" x2="39.49" y2="78.16"/>
		<polygon fill="#1D2132" points="39.9,78.07 39.93,78.09 39.95,78.13 39.95,78.18 39.93,78.22 39.9,78.24 39.85,78.26 39.81,78.24 
			39.78,78.22 39.75,78.18 39.75,78.13 39.78,78.09 39.81,78.07 39.85,78.06 		"/>
		
			<polygon fill="none" stroke="#1D2132" stroke-width="0.1" stroke-linecap="round" stroke-linejoin="round" stroke-miterlimit="10" points="
			39.9,78.07 39.93,78.09 39.95,78.13 39.95,78.18 39.93,78.22 39.9,78.24 39.85,78.26 39.81,78.24 39.78,78.22 39.75,78.18 
			39.75,78.13 39.78,78.09 39.81,78.07 39.85,78.06 		"/>
		
			<line fill="none" stroke="#1D2132" stroke-width="0.1" stroke-linecap="round" stroke-linejoin="round" stroke-miterlimit="10" x1="40.13" y1="78.16" x2="39.9" y2="78.16"/>
		
			<polyline fill="none" stroke="#1D2132" stroke-width="0.1" stroke-linecap="round" stroke-linejoin="round" stroke-miterlimit="10" points="
			37.48,79.51 40.2,79.51 40.2,76.79 37.48,76.79 37.48,79.51 		"/>
		
			<path fill="none" stroke="#1D2132" stroke-width="0.1" stroke-linecap="round" stroke-linejoin="round" stroke-miterlimit="10" d="
			M39.8,78.15c0,0.54-0.44,0.97-0.97,0.97c-0.54,0-0.97-0.43-0.97-0.97s0.43-0.97,0.97-0.97S39.8,77.61,39.8,78.15"/>
		
			<line fill="none" stroke="#1D2132" stroke-width="0.1" stroke-linecap="round" stroke-linejoin="round" stroke-miterlimit="10" x1="38.83" y1="79.2" x2="38.83" y2="79.43"/>
		<polygon fill="#1D2132" points="38.88,79.08 38.91,79.1 38.93,79.14 38.93,79.19 38.91,79.23 38.88,79.25 38.83,79.26 
			38.79,79.25 38.76,79.23 38.73,79.19 38.73,79.14 38.76,79.1 38.79,79.08 38.83,79.06 		"/>
		
			<polygon fill="none" stroke="#1D2132" stroke-width="0.1" stroke-linecap="round" stroke-linejoin="round" stroke-miterlimit="10" points="
			38.88,79.08 38.91,79.1 38.93,79.14 38.93,79.19 38.91,79.23 38.88,79.25 38.83,79.26 38.79,79.25 38.76,79.23 38.73,79.19 
			38.73,79.14 38.76,79.1 38.79,79.08 38.83,79.06 		"/>
		
			<line fill="none" stroke="#1D2132" stroke-width="0.1" stroke-linecap="round" stroke-linejoin="round" stroke-miterlimit="10" x1="37.78" y1="78.16" x2="37.55" y2="78.16"/>
		<polygon fill="#1D2132" points="37.87,78.07 37.9,78.09 37.92,78.13 37.92,78.18 37.9,78.22 37.87,78.24 37.82,78.26 37.78,78.24 
			37.75,78.22 37.73,78.18 37.73,78.13 37.75,78.09 37.78,78.07 37.82,78.06 		"/>
		
			<polygon fill="none" stroke="#1D2132" stroke-width="0.1" stroke-linecap="round" stroke-linejoin="round" stroke-miterlimit="10" points="
			37.87,78.07 37.9,78.09 37.92,78.13 37.92,78.18 37.9,78.22 37.87,78.24 37.82,78.26 37.78,78.24 37.75,78.22 37.73,78.18 
			37.73,78.13 37.75,78.09 37.78,78.07 37.82,78.06 		"/>
		
			<line fill="none" stroke="#1D2132" stroke-width="0.1" stroke-linecap="round" stroke-linejoin="round" stroke-miterlimit="10" x1="38.19" y1="78.16" x2="37.86" y2="78.16"/>
	</g>
	<g>
		
			<path fill="none" stroke="#1D2132" stroke-width="0.1" stroke-linecap="round" stroke-linejoin="round" stroke-miterlimit="10" d="
			M89.43,78.24c0-0.51,0.42-0.92,0.93-0.93c0.52,0,0.93,0.42,0.93,0.93c0,0.52-0.42,0.93-0.93,0.93
			C89.84,79.17,89.43,78.75,89.43,78.24"/>
		
			<path fill="none" stroke="#1D2132" stroke-width="0.1" stroke-linecap="round" stroke-linejoin="round" stroke-miterlimit="10" d="
			M89.61,78.24c0-0.41,0.33-0.75,0.75-0.75s0.75,0.34,0.75,0.75c0,0.42-0.34,0.75-0.75,0.75C89.95,78.99,89.61,78.65,89.61,78.24"/>
		
			<path fill="none" stroke="#1D2132" stroke-width="0.1" stroke-linecap="round" stroke-linejoin="round" stroke-miterlimit="10" d="
			M89.65,78.24c0-0.38,0.32-0.7,0.7-0.7c0.38,0,0.7,0.31,0.7,0.7c0,0.38-0.32,0.7-0.7,0.7C89.97,78.94,89.65,78.63,89.65,78.24"/>
		
			<line fill="none" stroke="#1D2132" stroke-width="0.1" stroke-linecap="round" stroke-linejoin="round" stroke-miterlimit="10" x1="90.36" y1="79.29" x2="90.36" y2="79.52"/>
		<polygon fill="#1D2132" points="90.41,79.17 90.44,79.19 90.46,79.24 90.46,79.28 90.44,79.33 90.41,79.35 90.36,79.36 
			90.32,79.35 90.29,79.33 90.26,79.28 90.26,79.24 90.29,79.19 90.32,79.17 90.36,79.16 		"/>
		
			<polygon fill="none" stroke="#1D2132" stroke-width="0.1" stroke-linecap="round" stroke-linejoin="round" stroke-miterlimit="10" points="
			90.41,79.17 90.44,79.19 90.46,79.24 90.46,79.28 90.44,79.33 90.41,79.35 90.36,79.36 90.32,79.35 90.29,79.33 90.26,79.28 
			90.26,79.24 90.29,79.19 90.32,79.17 90.36,79.16 		"/>
		
			<line fill="none" stroke="#1D2132" stroke-width="0.1" stroke-linecap="round" stroke-linejoin="round" stroke-miterlimit="10" x1="90.36" y1="78.89" x2="90.36" y2="79.21"/>
		<polygon fill="#1D2132" points="90.41,78.76 90.44,78.78 90.46,78.83 90.46,78.87 90.44,78.91 90.41,78.94 90.36,78.95 
			90.32,78.94 90.29,78.91 90.26,78.87 90.26,78.83 90.29,78.78 90.32,78.76 90.36,78.75 		"/>
		
			<polygon fill="none" stroke="#1D2132" stroke-width="0.1" stroke-linecap="round" stroke-linejoin="round" stroke-miterlimit="10" points="
			90.41,78.76 90.44,78.78 90.46,78.83 90.46,78.87 90.44,78.91 90.41,78.94 90.36,78.95 90.32,78.94 90.29,78.91 90.26,78.87 
			90.26,78.83 90.29,78.78 90.32,78.76 90.36,78.75 		"/>
		
			<line fill="none" stroke="#1D2132" stroke-width="0.1" stroke-linecap="round" stroke-linejoin="round" stroke-miterlimit="10" x1="90.36" y1="78.48" x2="90.36" y2="78.8"/>
		<polygon fill="#1D2132" points="90.41,78.35 90.44,78.37 90.46,78.42 90.46,78.46 90.44,78.5 90.41,78.53 90.36,78.54 
			90.32,78.53 90.29,78.5 90.26,78.46 90.26,78.42 90.29,78.37 90.32,78.35 90.36,78.34 		"/>
		
			<polygon fill="none" stroke="#1D2132" stroke-width="0.1" stroke-linecap="round" stroke-linejoin="round" stroke-miterlimit="10" points="
			90.41,78.35 90.44,78.37 90.46,78.42 90.46,78.46 90.44,78.5 90.41,78.53 90.36,78.54 90.32,78.53 90.29,78.5 90.26,78.46 
			90.26,78.42 90.29,78.37 90.32,78.35 90.36,78.34 		"/>
		
			<line fill="none" stroke="#1D2132" stroke-width="0.1" stroke-linecap="round" stroke-linejoin="round" stroke-miterlimit="10" x1="90.36" y1="78.07" x2="90.36" y2="78.39"/>
		<polygon fill="#1D2132" points="90.41,77.94 90.44,77.96 90.46,78.01 90.46,78.05 90.44,78.09 90.41,78.12 90.36,78.13 
			90.32,78.12 90.29,78.09 90.26,78.05 90.26,78.01 90.29,77.96 90.32,77.94 90.36,77.93 		"/>
		
			<polygon fill="none" stroke="#1D2132" stroke-width="0.1" stroke-linecap="round" stroke-linejoin="round" stroke-miterlimit="10" points="
			90.41,77.94 90.44,77.96 90.46,78.01 90.46,78.05 90.44,78.09 90.41,78.12 90.36,78.13 90.32,78.12 90.29,78.09 90.26,78.05 
			90.26,78.01 90.29,77.96 90.32,77.94 90.36,77.93 		"/>
		
			<line fill="none" stroke="#1D2132" stroke-width="0.1" stroke-linecap="round" stroke-linejoin="round" stroke-miterlimit="10" x1="90.36" y1="77.66" x2="90.36" y2="77.99"/>
		<polygon fill="#1D2132" points="90.41,77.54 90.44,77.56 90.46,77.61 90.46,77.65 90.44,77.7 90.41,77.72 90.36,77.73 
			90.32,77.72 90.29,77.7 90.26,77.65 90.26,77.61 90.29,77.56 90.32,77.54 90.36,77.53 		"/>
		
			<polygon fill="none" stroke="#1D2132" stroke-width="0.1" stroke-linecap="round" stroke-linejoin="round" stroke-miterlimit="10" points="
			90.41,77.54 90.44,77.56 90.46,77.61 90.46,77.65 90.44,77.7 90.41,77.72 90.36,77.73 90.32,77.72 90.29,77.7 90.26,77.65 
			90.26,77.61 90.29,77.56 90.32,77.54 90.36,77.53 		"/>
		
			<line fill="none" stroke="#1D2132" stroke-width="0.1" stroke-linecap="round" stroke-linejoin="round" stroke-miterlimit="10" x1="90.36" y1="77.25" x2="90.36" y2="77.58"/>
		<polygon fill="#1D2132" points="90.41,77.13 90.44,77.15 90.46,77.2 90.46,77.24 90.44,77.29 90.41,77.31 90.36,77.32 
			90.32,77.31 90.29,77.29 90.26,77.24 90.26,77.2 90.29,77.15 90.32,77.13 90.36,77.12 		"/>
		
			<polygon fill="none" stroke="#1D2132" stroke-width="0.1" stroke-linecap="round" stroke-linejoin="round" stroke-miterlimit="10" points="
			90.41,77.13 90.44,77.15 90.46,77.2 90.46,77.24 90.44,77.29 90.41,77.31 90.36,77.32 90.32,77.31 90.29,77.29 90.26,77.24 
			90.26,77.2 90.29,77.15 90.32,77.13 90.36,77.12 		"/>
		
			<line fill="none" stroke="#1D2132" stroke-width="0.1" stroke-linecap="round" stroke-linejoin="round" stroke-miterlimit="10" x1="90.36" y1="76.94" x2="90.36" y2="77.17"/>
		
			<line fill="none" stroke="#1D2132" stroke-width="0.1" stroke-linecap="round" stroke-linejoin="round" stroke-miterlimit="10" x1="91.43" y1="78.25" x2="91.66" y2="78.25"/>
		<polygon fill="#1D2132" points="91.43,78.16 91.46,78.18 91.48,78.23 91.48,78.27 91.46,78.32 91.43,78.34 91.38,78.35 
			91.34,78.34 91.31,78.32 91.28,78.27 91.28,78.23 91.31,78.18 91.34,78.16 91.38,78.15 		"/>
		
			<polygon fill="none" stroke="#1D2132" stroke-width="0.1" stroke-linecap="round" stroke-linejoin="round" stroke-miterlimit="10" points="
			91.43,78.16 91.46,78.18 91.48,78.23 91.48,78.27 91.46,78.32 91.43,78.34 91.38,78.35 91.34,78.34 91.31,78.32 91.28,78.27 
			91.28,78.23 91.31,78.18 91.34,78.16 91.38,78.15 		"/>
		
			<line fill="none" stroke="#1D2132" stroke-width="0.1" stroke-linecap="round" stroke-linejoin="round" stroke-miterlimit="10" x1="91.02" y1="78.25" x2="91.35" y2="78.25"/>
		<polygon fill="#1D2132" points="91.03,78.16 91.06,78.18 91.08,78.23 91.08,78.27 91.06,78.32 91.03,78.34 90.98,78.35 
			90.94,78.34 90.91,78.32 90.88,78.27 90.88,78.23 90.91,78.18 90.94,78.16 90.98,78.15 		"/>
		
			<polygon fill="none" stroke="#1D2132" stroke-width="0.1" stroke-linecap="round" stroke-linejoin="round" stroke-miterlimit="10" points="
			91.03,78.16 91.06,78.18 91.08,78.23 91.08,78.27 91.06,78.32 91.03,78.34 90.98,78.35 90.94,78.34 90.91,78.32 90.88,78.27 
			90.88,78.23 90.91,78.18 90.94,78.16 90.98,78.15 		"/>
		
			<line fill="none" stroke="#1D2132" stroke-width="0.1" stroke-linecap="round" stroke-linejoin="round" stroke-miterlimit="10" x1="90.61" y1="78.25" x2="90.94" y2="78.25"/>
		<polygon fill="#1D2132" points="90.62,78.16 90.65,78.18 90.67,78.23 90.67,78.27 90.65,78.32 90.62,78.34 90.57,78.35 
			90.53,78.34 90.5,78.32 90.47,78.27 90.47,78.23 90.5,78.18 90.53,78.16 90.57,78.15 		"/>
		
			<polygon fill="none" stroke="#1D2132" stroke-width="0.1" stroke-linecap="round" stroke-linejoin="round" stroke-miterlimit="10" points="
			90.62,78.16 90.65,78.18 90.67,78.23 90.67,78.27 90.65,78.32 90.62,78.34 90.57,78.35 90.53,78.34 90.5,78.32 90.47,78.27 
			90.47,78.23 90.5,78.18 90.53,78.16 90.57,78.15 		"/>
		
			<line fill="none" stroke="#1D2132" stroke-width="0.1" stroke-linecap="round" stroke-linejoin="round" stroke-miterlimit="10" x1="90.21" y1="78.25" x2="90.53" y2="78.25"/>
		<polygon fill="#1D2132" points="90.21,78.16 90.24,78.18 90.26,78.23 90.26,78.27 90.24,78.32 90.21,78.34 90.16,78.35 
			90.12,78.34 90.09,78.32 90.06,78.27 90.06,78.23 90.09,78.18 90.12,78.16 90.16,78.15 		"/>
		
			<polygon fill="none" stroke="#1D2132" stroke-width="0.1" stroke-linecap="round" stroke-linejoin="round" stroke-miterlimit="10" points="
			90.21,78.16 90.24,78.18 90.26,78.23 90.26,78.27 90.24,78.32 90.21,78.34 90.16,78.35 90.12,78.34 90.09,78.32 90.06,78.27 
			90.06,78.23 90.09,78.18 90.12,78.16 90.16,78.15 		"/>
		
			<line fill="none" stroke="#1D2132" stroke-width="0.1" stroke-linecap="round" stroke-linejoin="round" stroke-miterlimit="10" x1="89.8" y1="78.25" x2="90.12" y2="78.25"/>
		<polygon fill="#1D2132" points="89.8,78.16 89.83,78.18 89.85,78.23 89.85,78.27 89.83,78.32 89.8,78.34 89.75,78.35 89.71,78.34 
			89.68,78.32 89.65,78.27 89.65,78.23 89.68,78.18 89.71,78.16 89.75,78.15 		"/>
		
			<polygon fill="none" stroke="#1D2132" stroke-width="0.1" stroke-linecap="round" stroke-linejoin="round" stroke-miterlimit="10" points="
			89.8,78.16 89.83,78.18 89.85,78.23 89.85,78.27 89.83,78.32 89.8,78.34 89.75,78.35 89.71,78.34 89.68,78.32 89.65,78.27 
			89.65,78.23 89.68,78.18 89.71,78.16 89.75,78.15 		"/>
		
			<line fill="none" stroke="#1D2132" stroke-width="0.1" stroke-linecap="round" stroke-linejoin="round" stroke-miterlimit="10" x1="89.39" y1="78.25" x2="89.72" y2="78.25"/>
		<polygon fill="#1D2132" points="89.39,78.16 89.42,78.18 89.44,78.23 89.44,78.27 89.42,78.32 89.39,78.34 89.34,78.35 
			89.3,78.34 89.27,78.32 89.24,78.27 89.24,78.23 89.27,78.18 89.3,78.16 89.34,78.15 		"/>
		
			<polygon fill="none" stroke="#1D2132" stroke-width="0.1" stroke-linecap="round" stroke-linejoin="round" stroke-miterlimit="10" points="
			89.39,78.16 89.42,78.18 89.44,78.23 89.44,78.27 89.42,78.32 89.39,78.34 89.34,78.35 89.3,78.34 89.27,78.32 89.24,78.27 
			89.24,78.23 89.27,78.18 89.3,78.16 89.34,78.15 		"/>
		
			<line fill="none" stroke="#1D2132" stroke-width="0.1" stroke-linecap="round" stroke-linejoin="round" stroke-miterlimit="10" x1="89.08" y1="78.25" x2="89.31" y2="78.25"/>
		
			<polyline fill="none" stroke="#1D2132" stroke-width="0.1" stroke-linecap="round" stroke-linejoin="round" stroke-miterlimit="10" points="
			91.73,79.6 89.01,79.6 89.01,76.89 91.73,76.89 91.73,79.6 		"/>
		
			<path fill="none" stroke="#1D2132" stroke-width="0.1" stroke-linecap="round" stroke-linejoin="round" stroke-miterlimit="10" d="
			M89.39,78.24c0-0.53,0.43-0.97,0.97-0.97s0.97,0.43,0.97,0.97s-0.43,0.97-0.97,0.97S89.39,78.78,89.39,78.24"/>
	</g>
	<g>
		
			<rect x="67.33" y="69.5" fill="#FFFFFF" stroke="#1D2132" stroke-width="0.5" stroke-miterlimit="10" width="5.3" height="10.22"/>
		<g>
			
				<rect x="68.03" y="70.19" fill="#FFFFFF" stroke="#1D2132" stroke-width="0.1" stroke-linecap="square" stroke-miterlimit="22.9256" width="4.01" height="1.3"/>
			<polygon fill="#1D2132" points="72.04,71.49 68.04,71.49 71.63,70.99 72.04,70.2 			"/>
		</g>
		<g>
			
				<rect x="68.03" y="77.81" fill="#FFFFFF" stroke="#1D2132" stroke-width="0.1" stroke-linecap="square" stroke-miterlimit="22.9256" width="4.01" height="1.3"/>
			<polygon fill="#1D2132" points="72.04,79.11 68.04,79.11 71.63,78.73 72.04,77.92 			"/>
		</g>
		<g>
			
				<rect x="68.03" y="72.09" fill="#FFFFFF" stroke="#1D2132" stroke-width="0.1" stroke-linecap="square" stroke-miterlimit="22.9256" width="4.01" height="5.12"/>
			<polygon fill="#1D2132" points="72.04,77.2 68.04,77.2 71.63,76.51 72.04,72.21 			"/>
		</g>
	</g>
</g>
</svg>
