<?xml version="1.0" encoding="utf-8"?>
<!-- Generator: Adobe Illustrator 22.0.0, SVG Export Plug-In . SVG Version: 6.00 Build 0)  -->
<svg version="1.1" id="Layer_1" xmlns="http://www.w3.org/2000/svg" xmlns:xlink="http://www.w3.org/1999/xlink" x="0px" y="0px"
	 viewBox="0 0 94 82" enable-background="new 0 0 94 82" xml:space="preserve">
<g id="Background">
	<rect x="1.62" y="4.38" opacity="0.1" fill="#1D2132" enable-background="new    " width="90.2" height="75.63"/>
</g>
<g id="Plumbing">
	<g>
		<polyline fill="#FFFFFF" points="5.5,60.02 5.62,60.02 5.73,60.02 5.96,60.04 6.17,60.09 6.38,60.18 6.59,60.28 6.76,60.39 
			6.93,60.54 7.08,60.69 7.26,60.92 7.41,61.17 7.54,61.43 7.65,61.69 7.75,61.98 7.84,62.23 7.9,62.5 7.96,62.78 8.01,63.06 
			8.02,63.35 8.04,63.59 8.02,63.84 8,64.12 7.96,64.41 7.9,64.68 7.84,64.95 7.74,65.24 7.65,65.5 7.54,65.76 7.41,66.02 
			7.26,66.27 7.08,66.5 6.93,66.65 6.76,66.8 6.59,66.91 6.38,67.02 6.17,67.09 5.96,67.14 5.73,67.18 5.5,67.18 2.31,67.18 
			2.31,60.02 5.5,60.02 		"/>
		
			<line fill="none" stroke="#1D2132" stroke-width="0.1" stroke-linecap="square" stroke-miterlimit="10" x1="2.31" y1="67.18" x2="2.31" y2="60.02"/>
		
			<line fill="none" stroke="#1D2132" stroke-width="0.1" stroke-linecap="square" stroke-miterlimit="10" x1="5.5" y1="67.18" x2="2.31" y2="67.18"/>
		
			<line fill="none" stroke="#1D2132" stroke-width="0.1" stroke-linecap="square" stroke-miterlimit="10" x1="5.5" y1="60.02" x2="2.31" y2="60.02"/>
		
			<line fill="none" stroke="#1D2132" stroke-width="0.1" stroke-linecap="square" stroke-miterlimit="10" x1="2.31" y1="62.47" x2="2.31" y2="64.72"/>
		
			<line fill="none" stroke="#1D2132" stroke-width="0.1" stroke-linecap="square" stroke-miterlimit="10" x1="4.87" y1="63.82" x2="4.87" y2="64.19"/>
		
			<line fill="none" stroke="#1D2132" stroke-width="0.1" stroke-linecap="square" stroke-miterlimit="10" x1="4.65" y1="63.59" x2="4.24" y2="63.59"/>
		
			<line fill="none" stroke="#1D2132" stroke-width="0.1" stroke-linecap="square" stroke-miterlimit="10" x1="4.87" y1="62.99" x2="4.87" y2="63.37"/>
		
			<line fill="none" stroke="#1D2132" stroke-width="0.1" stroke-linecap="square" stroke-miterlimit="10" x1="5.51" y1="63.59" x2="5.12" y2="63.59"/>
		<path fill="none" stroke="#1D2132" stroke-width="0.1" stroke-linecap="square" stroke-miterlimit="10" d="M5.71,60.45
			c-0.66,0.25-1.21,0.68-1.6,1.24"/>
		<path fill="none" stroke="#1D2132" stroke-width="0.1" stroke-linecap="square" stroke-miterlimit="10" d="M4.11,61.7
			c-0.32,0.49-0.48,1.06-0.48,1.65c0,0.07,0,0.17,0.01,0.25"/>
		<path fill="none" stroke="#1D2132" stroke-width="0.1" stroke-linecap="square" stroke-miterlimit="10" d="M4.1,65.5
			c0.4,0.56,0.94,1,1.6,1.24"/>
		<path fill="none" stroke="#1D2132" stroke-width="0.1" stroke-linecap="square" stroke-miterlimit="10" d="M3.64,63.61
			c-0.01,0.07-0.01,0.17-0.01,0.25c0,0.58,0.17,1.15,0.48,1.65"/>
		<path fill="none" stroke="#1D2132" stroke-width="0.1" stroke-linecap="square" stroke-miterlimit="10" d="M8.02,63.33
			c-0.06-0.74-0.26-1.48-0.62-2.17"/>
		<path fill="none" stroke="#1D2132" stroke-width="0.1" stroke-linecap="square" stroke-miterlimit="10" d="M5.51,67.18
			c0.01,0,0.05,0,0.07,0c0.58,0,1.13-0.25,1.5-0.68"/>
		<path fill="none" stroke="#1D2132" stroke-width="0.1" stroke-linecap="square" stroke-miterlimit="10" d="M8.02,63.84
			c0.01-0.07,0.01-0.17,0.01-0.25s0-0.17-0.01-0.25"/>
		<path fill="none" stroke="#1D2132" stroke-width="0.1" stroke-linecap="square" stroke-miterlimit="10" d="M4.23,61.59
			c-0.1,0.66-0.16,1.34-0.16,2s0.06,1.32,0.16,1.99"/>
		<path fill="none" stroke="#1D2132" stroke-width="0.1" stroke-linecap="square" stroke-miterlimit="10" d="M2.78,63.58
			c0,0.67,0.05,1.35,0.15,2.02"/>
		<path fill="none" stroke="#1D2132" stroke-width="0.1" stroke-linecap="square" stroke-miterlimit="10" d="M3.11,65.98
			C3.89,66.64,4.89,67,5.93,67c0.02,0,0.04,0,0.06,0"/>
		<path fill="none" stroke="#1D2132" stroke-width="0.1" stroke-linecap="square" stroke-miterlimit="10" d="M2.91,65.61
			c0.02,0.14,0.1,0.28,0.21,0.37"/>
		<path fill="none" stroke="#1D2132" stroke-width="0.1" stroke-linecap="square" stroke-miterlimit="10" d="M5.98,60.19
			c-0.01,0-0.04,0-0.05,0c-1.04,0-2.04,0.36-2.82,1.01"/>
		<path fill="none" stroke="#1D2132" stroke-width="0.1" stroke-linecap="square" stroke-miterlimit="10" d="M2.91,61.58
			c-0.09,0.67-0.15,1.34-0.15,2.02"/>
		<path fill="none" stroke="#1D2132" stroke-width="0.1" stroke-linecap="square" stroke-miterlimit="10" d="M3.14,61.2
			c-0.12,0.1-0.19,0.24-0.21,0.37"/>
		<path fill="none" stroke="#1D2132" stroke-width="0.1" stroke-linecap="square" stroke-miterlimit="10" d="M7.07,60.7
			c-0.36-0.43-0.92-0.68-1.5-0.68c-0.01,0-0.05,0-0.07,0"/>
		<path fill="none" stroke="#1D2132" stroke-width="0.1" stroke-linecap="square" stroke-miterlimit="10" d="M7.41,61.16
			c-0.09-0.16-0.2-0.32-0.32-0.47"/>
		<path fill="none" stroke="#1D2132" stroke-width="0.1" stroke-linecap="square" stroke-miterlimit="10" d="M7.08,66.49
			c0.12-0.14,0.24-0.3,0.32-0.47"/>
		<path fill="none" stroke="#1D2132" stroke-width="0.1" stroke-linecap="square" stroke-miterlimit="10" d="M7.41,66.01
			c0.35-0.67,0.56-1.41,0.62-2.17"/>
		<path fill="none" stroke="#1D2132" stroke-width="0.1" stroke-linecap="square" stroke-miterlimit="10" d="M7.5,64.58
			c0.07-0.32,0.12-0.66,0.12-0.99S7.58,62.92,7.5,62.6"/>
		<path fill="none" stroke="#1D2132" stroke-width="0.1" stroke-linecap="square" stroke-miterlimit="10" d="M6.64,60.81
			c-0.22-0.24-0.53-0.37-0.87-0.37c-0.02,0-0.05,0-0.07,0"/>
		<path fill="none" stroke="#1D2132" stroke-width="0.1" stroke-linecap="square" stroke-miterlimit="10" d="M7.5,62.6
			c-0.14-0.66-0.43-1.26-0.87-1.78"/>
		<path fill="none" stroke="#1D2132" stroke-width="0.1" stroke-linecap="square" stroke-miterlimit="10" d="M5.7,66.74
			c0.02,0,0.05,0,0.07,0c0.33,0,0.64-0.14,0.87-0.37"/>
		<path fill="none" stroke="#1D2132" stroke-width="0.1" stroke-linecap="square" stroke-miterlimit="10" d="M6.64,66.38
			c0.46-0.52,0.74-1.14,0.87-1.79"/>
		<path fill="none" stroke="#1D2132" stroke-width="0.1" stroke-linecap="square" stroke-miterlimit="10" d="M4.39,63.59
			c0-0.25,0.22-0.47,0.49-0.46c0.27,0,0.49,0.21,0.49,0.46s-0.22,0.46-0.49,0.46S4.39,63.84,4.39,63.59"/>
		<path fill="none" stroke="#1D2132" stroke-width="0.1" stroke-linecap="square" stroke-miterlimit="10" d="M4.61,63.59
			c0-0.14,0.12-0.25,0.26-0.25c0.15,0,0.26,0.11,0.26,0.25s-0.11,0.25-0.26,0.25S4.61,63.73,4.61,63.59"/>
	</g>
	<g>
		<polygon fill="#FFFFFF" points="18.84,79.51 18.84,77.71 18.84,77.69 18.82,77.66 18.82,77.64 18.8,77.62 18.8,77.59 18.8,77.57 
			18.8,77.55 18.79,77.53 18.76,77.52 18.75,77.49 18.73,77.48 18.71,77.47 18.7,77.46 18.68,77.44 18.65,77.43 18.63,77.42 
			18.63,72.65 18.63,72.52 18.63,72.41 18.6,72.29 18.58,72.18 18.54,72.07 18.52,71.96 18.47,71.85 18.43,71.74 18.37,71.64 
			18.32,71.55 18.26,71.45 18.2,71.36 18.12,71.27 18.04,71.19 17.96,71.11 17.88,71.03 17.8,70.95 17.7,70.89 17.61,70.83 
			17.52,70.78 17.43,70.72 17.33,70.67 17.22,70.62 17.13,70.58 17.02,70.55 16.91,70.52 16.81,70.49 16.7,70.46 16.59,70.45 
			16.48,70.44 16.37,70.44 16.26,70.44 16.15,70.44 16.04,70.44 15.93,70.45 15.82,70.46 15.71,70.49 15.6,70.52 15.5,70.55 
			15.39,70.58 15.3,70.62 15.2,70.67 15.1,70.72 15,70.78 14.89,70.83 14.82,70.89 14.73,70.95 14.65,71.03 14.56,71.11 
			14.48,71.19 14.4,71.27 14.33,71.36 14.26,71.45 14.2,71.55 14.15,71.64 14.09,71.74 14.05,71.85 13.99,71.96 13.98,72.07 
			13.94,72.18 13.92,72.29 13.9,72.41 13.9,72.52 13.89,72.65 13.89,77.42 13.87,77.43 13.84,77.44 13.82,77.46 13.82,77.47 
			13.79,77.48 13.77,77.49 13.76,77.52 13.74,77.53 13.73,77.55 13.72,77.57 13.71,77.59 13.71,77.62 13.7,77.64 13.7,77.66 
			13.68,77.69 13.68,77.71 13.68,79.51 16.26,79.51 		"/>
		
			<line fill="none" stroke="#1D2132" stroke-width="0.1" stroke-linecap="square" stroke-miterlimit="10" x1="13.89" y1="72.65" x2="13.89" y2="77.42"/>
		
			<line fill="none" stroke="#1D2132" stroke-width="0.1" stroke-linecap="square" stroke-miterlimit="10" x1="18.84" y1="79.51" x2="13.68" y2="79.51"/>
		
			<line fill="none" stroke="#1D2132" stroke-width="0.1" stroke-linecap="square" stroke-miterlimit="10" x1="13.68" y1="77.71" x2="13.68" y2="79.51"/>
		
			<line fill="none" stroke="#1D2132" stroke-width="0.1" stroke-linecap="square" stroke-miterlimit="10" x1="18.18" y1="76.58" x2="16.26" y2="76.58"/>
		
			<line fill="none" stroke="#1D2132" stroke-width="0.1" stroke-linecap="square" stroke-miterlimit="10" x1="14.35" y1="76.58" x2="13.89" y2="72.65"/>
		
			<line fill="none" stroke="#1D2132" stroke-width="0.1" stroke-linecap="square" stroke-miterlimit="10" x1="14.35" y1="76.58" x2="16.26" y2="76.58"/>
		
			<line fill="none" stroke="#1D2132" stroke-width="0.1" stroke-linecap="square" stroke-miterlimit="10" x1="18.18" y1="76.58" x2="18.63" y2="72.65"/>
		
			<line fill="none" stroke="#1D2132" stroke-width="0.1" stroke-linecap="square" stroke-miterlimit="10" x1="18.63" y1="72.65" x2="18.63" y2="77.42"/>
		
			<line fill="none" stroke="#1D2132" stroke-width="0.1" stroke-linecap="square" stroke-miterlimit="10" x1="18.84" y1="77.71" x2="18.84" y2="79.51"/>
		<path fill="none" stroke="#1D2132" stroke-width="0.1" stroke-linecap="square" stroke-miterlimit="10" d="M13.95,77.42
			c0.77-0.09,1.54-0.13,2.31-0.13s1.54,0.04,2.31,0.12"/>
		<path fill="none" stroke="#1D2132" stroke-width="0.1" stroke-linecap="square" stroke-miterlimit="10" d="M13.68,77.71
			c0-0.15,0.12-0.28,0.27-0.31"/>
		<path fill="none" stroke="#1D2132" stroke-width="0.1" stroke-linecap="square" stroke-miterlimit="10" d="M13.89,72.65
			c0-1.22,1.06-2.21,2.37-2.21s2.37,0.99,2.37,2.21"/>
		<path fill="none" stroke="#1D2132" stroke-width="0.1" stroke-linecap="square" stroke-miterlimit="10" d="M18.57,77.41
			c0.15,0.01,0.27,0.16,0.27,0.31"/>
		<path fill="none" stroke="#1D2132" stroke-width="0.1" stroke-linecap="square" stroke-miterlimit="10" d="M16.26,78.62
			c0.13,0,0.23-0.11,0.24-0.26c0-0.13-0.11-0.26-0.24-0.26s-0.24,0.12-0.24,0.26S16.13,78.62,16.26,78.62"/>
	</g>
	<g>
		<path fill="#FFFFFF" d="M14.51,58.92V46.87c0-0.07-0.04-0.12-0.12-0.12H2.34c-0.07,0-0.12,0.04-0.12,0.12v12.04
			c0,0.07,0.04,0.12,0.12,0.12H14.4C14.45,59.03,14.51,58.97,14.51,58.92z"/>
		
			<line fill="none" stroke="#1D2132" stroke-width="0.1" stroke-linecap="square" stroke-miterlimit="10" x1="4.95" y1="49.86" x2="4.16" y2="49.86"/>
		
			<line fill="none" stroke="#1D2132" stroke-width="0.1" stroke-linecap="square" stroke-miterlimit="10" x1="5.28" y1="48.73" x2="5.28" y2="49.52"/>
		
			<line fill="none" stroke="#1D2132" stroke-width="0.1" stroke-linecap="square" stroke-miterlimit="10" x1="6.4" y1="49.86" x2="5.63" y2="49.86"/>
		
			<line fill="none" stroke="#1D2132" stroke-width="0.1" stroke-linecap="square" stroke-miterlimit="10" x1="5.28" y1="50.19" x2="5.28" y2="50.98"/>
		
			<line fill="none" stroke="#1D2132" stroke-width="0.1" stroke-linecap="square" stroke-miterlimit="10" x1="6.24" y1="58.34" x2="2.95" y2="58.34"/>
		
			<line fill="none" stroke="#1D2132" stroke-width="0.1" stroke-linecap="square" stroke-miterlimit="10" x1="13.63" y1="47.4" x2="6.11" y2="47.4"/>
		<path fill="none" stroke="#1D2132" stroke-width="0.1" stroke-linecap="square" stroke-miterlimit="10" d="M13.76,47.53v10.62
			c0,0.1-0.09,0.19-0.19,0.19H2.95"/>
		
			<line fill="none" stroke="#1D2132" stroke-width="0.1" stroke-linecap="square" stroke-miterlimit="10" x1="2.82" y1="50.68" x2="2.82" y2="58.21"/>
		<g>
			<path fill="none" stroke="#1D2132" stroke-width="0.1" stroke-linecap="square" stroke-miterlimit="10" d="M2.8,50.68
				c0-0.06,0.01-0.15,0.04-0.21"/>
		</g>
		<g>
			<path fill="none" stroke="#1D2132" stroke-width="0.1" stroke-linecap="square" stroke-miterlimit="10" d="M2.95,58.34
				c-0.07,0-0.13-0.06-0.13-0.13"/>
		</g>
		<g>
			<path fill="none" stroke="#1D2132" stroke-width="0.1" stroke-linecap="square" stroke-miterlimit="10" d="M2.8,50.68
				c0-0.06,0.01-0.15,0.04-0.21"/>
		</g>
		<g>
			<path fill="none" stroke="#1D2132" stroke-width="0.1" stroke-linecap="square" stroke-miterlimit="10" d="M13.63,47.4
				c0.07,0,0.13,0.06,0.13,0.13"/>
		</g>
		<g>
			<path fill="none" stroke="#1D2132" stroke-width="0.1" stroke-linecap="square" stroke-miterlimit="10" d="M2.82,50.57
				c0.72-1.36,1.81-2.47,3.15-3.15"/>
		</g>
		<g>
			<path fill="none" stroke="#1D2132" stroke-width="0.1" stroke-linecap="square" stroke-miterlimit="10" d="M5.88,47.43
				c0.07-0.01,0.15-0.03,0.22-0.03"/>
		</g>
		<g>
			<path fill="none" stroke="#1D2132" stroke-width="0.1" stroke-linecap="square" stroke-miterlimit="10" d="M2.86,50.46
				c0.48-1.42,1.6-2.56,3.04-3.04"/>
		</g>
		<g>
			<path fill="none" stroke="#1D2132" stroke-width="0.1" stroke-linecap="square" stroke-miterlimit="10" d="M5.88,47.43
				c0.07-0.01,0.15-0.03,0.22-0.03"/>
		</g>
		<g>
			<path fill="none" stroke="#1D2132" stroke-width="0.1" stroke-linecap="square" stroke-miterlimit="10" d="M4.65,49.86
				c0,0.33,0.3,0.61,0.61,0.61c0.33,0,0.61-0.28,0.61-0.61c0-0.34-0.27-0.63-0.61-0.61C4.94,49.25,4.65,49.53,4.65,49.86"/>
		</g>
		<g>
			<path fill="none" stroke="#1D2132" stroke-width="0.1" stroke-linecap="square" stroke-miterlimit="10" d="M4.42,49.86
				c0,0.48,0.39,0.85,0.87,0.87c0.48,0,0.87-0.39,0.87-0.87S5.76,49,5.28,49S4.42,49.38,4.42,49.86"/>
		</g>
		<path fill="none" stroke="#1D2132" stroke-width="0.1" stroke-linecap="square" stroke-miterlimit="10" d="M14.43,58.7V47.08
			c0-0.18-0.15-0.33-0.33-0.33H2.5c-0.18,0-0.33,0.15-0.33,0.33V58.7c0,0.18,0.15,0.33,0.33,0.33h11.63
			C14.3,59.03,14.45,58.88,14.43,58.7z"/>
	</g>
	<g>
		<g>
			<path fill="#FFFFFF" stroke="#1D2132" stroke-width="0.1" stroke-linecap="square" stroke-miterlimit="10" d="M21.32,52.14
				c0,0.09-0.09,0.16-0.2,0.16s-0.2-0.07-0.2-0.16s0.09-0.16,0.2-0.16C21.23,51.99,21.32,52.06,21.32,52.14z"/>
			
				<ellipse fill="#FFFFFF" stroke="#1D2132" stroke-width="0.1" stroke-linecap="square" stroke-miterlimit="10" cx="21.96" cy="52.14" rx="0.2" ry="0.16"/>
			<path fill="#FFFFFF" stroke="#1D2132" stroke-width="0.1" stroke-linecap="square" stroke-miterlimit="10" d="M25.62,52.14
				c0,0.09-0.09,0.16-0.2,0.16s-0.2-0.07-0.2-0.16s0.09-0.16,0.2-0.16C25.54,51.99,25.62,52.06,25.62,52.14z"/>
			<path fill="#FFFFFF" stroke="#1D2132" stroke-width="0.1" stroke-linecap="square" stroke-miterlimit="10" d="M25.62,52.14
				c0.44,0,0.8-0.09,0.8-0.21V51.4c0-0.12-0.36-0.21-0.8-0.21h-4.7c-0.44,0-0.8,0.09-0.8,0.21v0.54c0,0.12,0.36,0.21,0.8,0.21
				L25.62,52.14z"/>
			
				<rect x="19.8" y="47.15" fill="#FFFFFF" stroke="#1D2132" stroke-width="0.1" stroke-linecap="square" stroke-miterlimit="10" width="7" height="4.71"/>
			<path fill="#FFFFFF" stroke="#1D2132" stroke-width="0.1" stroke-linecap="square" stroke-miterlimit="10" d="M25.62,51.61
				c0.44,0,0.8-0.77,0.8-1.72v-0.77c0-0.95-0.36-1.72-0.8-1.72h-4.7c-0.44,0-0.8,0.77-0.8,1.72v0.77c0,0.95,0.36,1.72,0.8,1.72
				H25.62z"/>
		</g>
		<g>
			<path fill="#FFFFFF" stroke="#1D2132" stroke-width="0.1" stroke-linecap="square" stroke-miterlimit="10" d="M25.48,47.98h-4.43
				c-0.09,0-0.16-0.07-0.16-0.16V47.8c0-0.09,0.07-0.16,0.16-0.16h4.43c0.09,0,0.16,0.07,0.16,0.16v0.02
				C25.64,47.91,25.57,47.98,25.48,47.98z"/>
			<g>
				
					<rect x="21.09" y="46.9" fill="#FFFFFF" stroke="#1D2132" stroke-width="0.1" stroke-linecap="square" stroke-miterlimit="10" width="0.28" height="0.75"/>
				
					<rect x="25.18" y="46.9" fill="#FFFFFF" stroke="#1D2132" stroke-width="0.1" stroke-linecap="square" stroke-miterlimit="10" width="0.28" height="0.75"/>
			</g>
			<g>
				
					<rect x="20.93" y="46.76" fill="#FFFFFF" stroke="#1D2132" stroke-width="0.1" stroke-linecap="square" stroke-miterlimit="10" width="0.59" height="0.14"/>
				
					<rect x="25.03" y="46.76" fill="#FFFFFF" stroke="#1D2132" stroke-width="0.1" stroke-linecap="square" stroke-miterlimit="10" width="0.59" height="0.14"/>
			</g>
		</g>
	</g>
</g>
<g id="Furniture">
	<g>
		
			<rect x="58.09" y="71.55" fill="#FFFFFF" stroke="#1D2132" stroke-width="0.1" stroke-linecap="square" stroke-miterlimit="22.9256" width="33.74" height="7.97"/>
		
			<rect x="71.42" y="71.55" fill="#FFFFFF" stroke="#1D2132" stroke-width="0.1" stroke-linecap="square" stroke-miterlimit="22.9256" width="6.2" height="7.97"/>
		
			<rect x="57.73" y="71.55" fill="#FFFFFF" stroke="#1D2132" stroke-width="0.1" stroke-linecap="square" stroke-miterlimit="22.9256" width="7.04" height="7.97"/>
		
			<rect x="84.98" y="71.55" fill="#FFFFFF" stroke="#1D2132" stroke-width="0.1" stroke-linecap="square" stroke-miterlimit="22.9256" width="6.85" height="7.97"/>
		<g>
			
				<line fill="none" stroke="#1D2132" stroke-width="0.1" stroke-linecap="square" stroke-miterlimit="22.9256" x1="88.32" y1="74.54" x2="88.32" y2="76.52"/>
			
				<line fill="none" stroke="#1D2132" stroke-width="0.1" stroke-linecap="square" stroke-miterlimit="22.9256" x1="87.61" y1="74.82" x2="89.01" y2="76.23"/>
			
				<line fill="none" stroke="#1D2132" stroke-width="0.1" stroke-linecap="square" stroke-miterlimit="22.9256" x1="87.31" y1="75.54" x2="89.31" y2="75.54"/>
			
				<line fill="none" stroke="#1D2132" stroke-width="0.1" stroke-linecap="square" stroke-miterlimit="22.9256" x1="87.61" y1="76.23" x2="89.01" y2="74.82"/>
		</g>
		<g>
			
				<rect x="72.24" y="71.87" fill="#FFFFFF" stroke="#1D2132" stroke-width="0.1" stroke-linecap="square" stroke-miterlimit="22.9256" width="4.65" height="7.31"/>
			<g>
				<path fill="#FFFFFF" stroke="#1D2132" stroke-width="0.1" stroke-linecap="square" stroke-miterlimit="22.9256" d="M73.29,73.86
					c0-0.7,0.57-1.28,1.27-1.27c0.7,0,1.27,0.55,1.27,1.27c0,0.7-0.55,1.27-1.27,1.27C73.86,75.13,73.29,74.58,73.29,73.86"/>
				<path fill="#FFFFFF" stroke="#1D2132" stroke-width="0.1" stroke-linecap="square" stroke-miterlimit="22.9256" d="M73.29,77.46
					c0-0.7,0.57-1.27,1.27-1.27s1.27,0.56,1.27,1.27c0,0.7-0.55,1.27-1.27,1.27C73.86,78.73,73.29,78.15,73.29,77.46"/>
				<path fill="#FFFFFF" stroke="#1D2132" stroke-width="0.1" stroke-linecap="square" stroke-miterlimit="22.9256" d="M73.54,73.86
					c0-0.56,0.46-1.03,1.01-1.01c0.55,0,1.01,0.45,1.01,1.01c0,0.55-0.45,1.01-1.01,1.01C74,74.87,73.54,74.43,73.54,73.86"/>
				<path fill="#FFFFFF" stroke="#1D2132" stroke-width="0.1" stroke-linecap="square" stroke-miterlimit="22.9256" d="M73.54,77.46
					c0-0.56,0.46-1.01,1.01-1.01s1.01,0.45,1.01,1.01c0,0.55-0.45,1.01-1.01,1.01C74,78.47,73.54,78.02,73.54,77.46"/>
			</g>
		</g>
		<g>
			<path fill="#FFFFFF" stroke="#1D2132" stroke-width="0.1" stroke-linecap="square" stroke-miterlimit="22.9256" d="M63.25,77.57
				V72.5c0-0.26-0.2-0.46-0.46-0.46h-3.07c-0.26,0-0.46,0.2-0.46,0.46v5.07c0,0.26,0.2,0.46,0.46,0.46h3.07
				C63.05,78.03,63.24,77.83,63.25,77.57z"/>
			<g>
				<path fill="#FFFFFF" stroke="#1D2132" stroke-width="0.1" stroke-linecap="square" stroke-miterlimit="22.9256" d="M61.26,77.26
					c0.17,0,0.32-0.17,0.32-0.36s-0.15-0.36-0.32-0.36s-0.32,0.17-0.32,0.36C60.92,77.1,61.08,77.26,61.26,77.26z"/>
				<g>
					<path fill="#FFFFFF" stroke="#1D2132" stroke-width="0.1" stroke-linecap="square" stroke-miterlimit="22.9256" d="
						M61.25,79.02c0.31,0,0.55-0.22,0.55-0.5c0-0.27-0.23-0.5-0.55-0.5c-0.3,0-0.53,0.22-0.55,0.5
						C60.7,78.81,60.94,79.03,61.25,79.02z"/>
					<path fill="#FFFFFF" stroke="#1D2132" stroke-width="0.1" stroke-linecap="square" stroke-miterlimit="22.9256" d="
						M61.27,75.72c-0.1,0-0.16,0.11-0.17,0.26l-0.02,2.59c0,0.15,0.07,0.26,0.17,0.26l0,0c0.09,0,0.17-0.12,0.17-0.26l0.02-2.58
						C61.43,75.82,61.37,75.72,61.27,75.72L61.27,75.72z"/>
					<path fill="#FFFFFF" stroke="#1D2132" stroke-width="0.1" stroke-linecap="square" stroke-miterlimit="22.9256" d="
						M61.26,78.65c0.42,0,0.76-0.05,0.76-0.15c0-0.07-0.35-0.15-0.76-0.15c-0.42,0-0.76,0.06-0.76,0.15
						C60.48,78.61,60.83,78.67,61.26,78.65z"/>
				</g>
			</g>
		</g>
	</g>
	<g>
		<g>
			
				<rect x="86.5" y="7.39" fill="#FFFFFF" stroke="#1D2132" stroke-width="0.1" stroke-linecap="square" stroke-miterlimit="10" width="5.23" height="30.29"/>
			<g>
				<polygon fill="#FFFFFF" stroke="#1D2132" stroke-width="0.1" stroke-linecap="square" stroke-miterlimit="10" points="
					86.5,34.65 86.5,35.19 85.97,35.19 85.97,32.06 86.5,32.06 86.5,32.6 86.16,32.6 86.16,34.65 				"/>
				<polygon fill="#FFFFFF" stroke="#1D2132" stroke-width="0.1" stroke-linecap="square" stroke-miterlimit="10" points="
					86.5,12.47 86.5,13.01 85.97,13.01 85.97,9.88 86.5,9.88 86.5,10.42 86.16,10.42 86.16,12.47 				"/>
			</g>
			<g>
				<polygon fill="#FFFFFF" stroke="#1D2132" stroke-width="0.1" stroke-linecap="square" stroke-miterlimit="10" points="
					86.5,28.82 86.5,29.37 85.97,29.37 85.97,26.23 86.5,26.23 86.5,26.77 86.16,26.77 86.16,28.82 				"/>
				<polygon fill="#FFFFFF" stroke="#1D2132" stroke-width="0.1" stroke-linecap="square" stroke-miterlimit="10" points="
					86.5,18.3 86.5,18.84 85.97,18.84 85.97,15.71 86.5,15.71 86.5,16.25 86.16,16.25 86.16,18.3 				"/>
			</g>
		</g>
		<g>
			<path fill="#FFFFFF" stroke="#1D2132" stroke-width="0.1" stroke-linecap="square" stroke-miterlimit="10" d="M89.78,20.59h-0.29
				c-0.5,0-0.91,0.41-0.91,0.91v2.08c0,0.5,0.41,0.91,0.91,0.91h0.29c0.5,0,0.91-0.41,0.91-0.91V21.5
				C90.7,20.99,90.29,20.59,89.78,20.59z"/>
			<path fill="#FFFFFF" stroke="#1D2132" stroke-width="0.1" stroke-linecap="square" stroke-miterlimit="10" d="M89.45,21.31h-0.09
				c-0.22,0-0.39,0.17-0.39,0.39v1.67c0,0.22,0.17,0.39,0.39,0.39h0.09c0.22,0,0.39-0.17,0.39-0.39V21.7
				C89.84,21.48,89.66,21.31,89.45,21.31z"/>
			
				<rect x="88.96" y="15.65" fill="#FFFFFF" stroke="#1D2132" stroke-width="0.1" stroke-linecap="square" stroke-miterlimit="10" width="0.18" height="13.77"/>
			<polygon fill="#FFFFFF" stroke="#1D2132" stroke-width="0.1" stroke-linecap="square" stroke-miterlimit="10" points="
				89.5,17.64 89.14,15.65 89.14,29.42 89.5,27.43 			"/>
		</g>
	</g>
	<g>
		<path fill="#FFFFFF" stroke="#1D2132" stroke-width="0.1" stroke-linecap="square" stroke-miterlimit="10" d="M51.26,46.54
			c-0.61-0.75-1.15-2.81,0.01-3.73c0.57-0.45,0.58-1,1.92-2.45c0.58-0.64,1.48-1.83,3.25-2.02s3.81,0.76,4.9,4.51
			s-1.2,6.37-3.37,6.36c-2.17-0.01-2.99-1-3.99-1.31C52.98,47.58,52.38,47.9,51.26,46.54z"/>
		<path fill="none" stroke="#1D2132" stroke-width="0.1" stroke-linecap="square" stroke-miterlimit="10" d="M56.44,38.33
			c0,0-1.42,0.47-1.92,1.1c-1,1.27-1.05,0.86-2.15,2.55c-0.33,0.51-0.03,0.82-0.13,0.9c-0.1,0.08-0.67,0.67-0.49,1.58
			c0.18,0.9,0.32,1.57,1.03,2.26c0.43,0.42,0.96,0.55,1.15,0.48c0.32-0.12,0.22,0.2,1.1,0.77c1.24,0.81,1.68,0.81,2.59,0.87
			c0.91,0.06,1.12,0.19,1.82-0.15s1.14-0.84,1.14-0.84"/>
		<path fill="none" stroke="#1D2132" stroke-width="0.1" stroke-linecap="square" stroke-miterlimit="10" d="M55.59,40.58
			c0,0,0.49,0.7,0.22,1.09s-0.39,0.7-0.46,0.83c-0.07,0.14-0.07,0.14-0.07,0.14s-0.8,0.25-1.35,0.3c-0.56,0.05-0.69,0-0.69,0"/>
		<path fill="none" stroke="#1D2132" stroke-width="0.1" stroke-linecap="square" stroke-miterlimit="10" d="M55.28,42.65
			c0,0,0.24,0.54,0.53,1.31s0.38,1.75,0.38,1.75s-0.56,0.3-1.06,0.59s-0.7,0.54-0.7,0.54"/>
		<path fill="none" stroke="#1D2132" stroke-width="0.1" stroke-linecap="square" stroke-miterlimit="10" d="M57.79,47.72
			c0,0,0.3-0.64,0.27-1.08c-0.03-0.44-0.22-0.56-0.82-0.74s-1.05-0.18-1.05-0.18"/>
		<path fill="none" stroke="#1D2132" stroke-width="0.1" stroke-linecap="square" stroke-miterlimit="10" d="M57.54,41.11
			c0,0,0.87,0.76,1.1,1.32s0.23,0.56,0.23,0.56s0.12,0.04,0.41-0.03c0.29-0.08,0.44-0.2,0.44-0.2"/>
		<path fill="none" stroke="#1D2132" stroke-width="0.1" stroke-linecap="square" stroke-miterlimit="10" d="M58.87,42.99
			c0,0,0,0.62,0.16,1.09c0.17,0.47,0.17,1.03,0.08,1.24s-0.09,0.21-0.09,0.21s0.14,0.25,0.39,0.31"/>
		<path fill="none" stroke="#1D2132" stroke-width="0.1" stroke-linecap="square" stroke-miterlimit="10" d="M57.54,41.11
			c0,0,0.13-0.37,0.31-0.48c0.18-0.1,0.37-0.15,0.37-0.15"/>
		<path fill="#FFFFFF" stroke="#1D2132" stroke-width="0.1" stroke-linecap="square" stroke-miterlimit="10" d="M51.96,44.08
			c0,0,0.03,0.13-0.05,0.12c-0.13-0.02-0.37,0.08-0.37,0.2c-0.01,0.21,0.15,0.42,0.21,0.75c0.06,0.33-0.05,0.62,0.15,0.76
			c0.12,0.08,0.38-0.15,0.45-0.14c0.05,0,0.07,0.15,0.07,0.15L51.9,46.1c0,0-0.33-0.04-0.41-0.38c-0.08-0.35-0.17-0.55-0.23-0.88
			s-0.14-0.57,0.15-0.71C51.7,43.98,51.96,44.08,51.96,44.08z"/>
	</g>
	<g>
		<g>
			<path fill="#FFFFFF" stroke="#1D2132" stroke-width="0.1" stroke-linecap="square" stroke-miterlimit="10" d="M89.48,61.72
				c-0.11,1.36-0.07,3.2-0.33,3.88c-0.23,0.6-1.54,0.15-3.08,0.15s-2.85,0.45-3.08-0.15c-0.26-0.68-0.23-2.52-0.34-3.88
				c-0.11-1.36,0.22-1.77,1.01-1.96c0.77-0.19,1.76-0.15,2.4-0.15s1.63-0.04,2.41,0.15C89.25,59.95,89.59,60.36,89.48,61.72z"/>
			<path fill="#FFFFFF" stroke="#1D2132" stroke-width="0.1" stroke-linecap="square" stroke-miterlimit="10" d="M89.23,61.34
				c-0.1,1.11-0.07,2.63-0.31,3.19c-0.22,0.49-1.43,0.96-2.85,0.96c-1.43,0-2.64-0.46-2.86-0.96c-0.24-0.56-0.21-2.07-0.32-3.18
				c-0.1-1.11,0.21-1.45,0.94-1.61c0.72-0.15,1.64-0.13,2.23-0.13c0.59,0,1.51-0.03,2.23,0.12C89.02,59.89,89.33,60.23,89.23,61.34z
				"/>
			<g>
				<path fill="#FFFFFF" stroke="#1D2132" stroke-width="0.1" stroke-linecap="square" stroke-miterlimit="10" d="M84.15,66.82
					c-0.45-0.09-0.89-0.21-1.32-0.35c0.18-1.55,1.56-0.43,3.24-0.43c1.74,0,3.25-1.16,3.25,0.49C87.7,67.04,85.93,67.16,84.15,66.82
					z"/>
				<path fill="#FFFFFF" stroke="#1D2132" stroke-width="0.1" stroke-linecap="square" stroke-miterlimit="10" d="M89.49,66.81
					c-0.1,0.03-0.2,0.06-0.3,0.09c-1.61,0.47-3.35,0.58-5.11,0.23c-0.42-0.08-0.82-0.19-1.21-0.31c-0.08-0.02-0.16-0.05-0.24-0.08
					l0.1-0.3c0.03,0.01,0.06,0.02,0.09,0.03c0.43,0.14,0.87,0.26,1.32,0.35c1.78,0.35,3.55,0.22,5.17-0.29
					c0.03-0.01,0.05-0.02,0.08-0.02L89.49,66.81z"/>
			</g>
		</g>
		<g>
			<path fill="#FFFFFF" stroke="#1D2132" stroke-width="0.1" stroke-linecap="square" stroke-miterlimit="10" d="M89.48,45.99
				c-0.11-1.36-0.07-3.2-0.33-3.88c-0.23-0.6-1.54-0.15-3.08-0.15s-2.85-0.45-3.08,0.15c-0.26,0.68-0.23,2.52-0.34,3.88
				c-0.11,1.36,0.22,1.77,1.01,1.96c0.77,0.19,1.76,0.15,2.4,0.15s1.63,0.04,2.41-0.15C89.25,47.76,89.59,47.34,89.48,45.99z"/>
			<path fill="#FFFFFF" stroke="#1D2132" stroke-width="0.1" stroke-linecap="square" stroke-miterlimit="10" d="M89.23,46.36
				c-0.1-1.11-0.07-2.63-0.31-3.19c-0.22-0.49-1.43-0.96-2.85-0.96c-1.43,0-2.64,0.46-2.86,0.96c-0.24,0.56-0.21,2.07-0.32,3.18
				c-0.1,1.11,0.21,1.45,0.94,1.61c0.72,0.15,1.64,0.13,2.23,0.13c0.59,0,1.51,0.03,2.23-0.12C89.02,47.82,89.33,47.48,89.23,46.36z
				"/>
			<g>
				<path fill="#FFFFFF" stroke="#1D2132" stroke-width="0.1" stroke-linecap="square" stroke-miterlimit="10" d="M84.15,40.89
					c-0.45,0.09-0.89,0.21-1.32,0.35c0.18,1.55,1.56,0.43,3.24,0.43c1.74,0,3.25,1.16,3.25-0.49C87.7,40.66,85.93,40.54,84.15,40.89
					z"/>
				<path fill="#FFFFFF" stroke="#1D2132" stroke-width="0.1" stroke-linecap="square" stroke-miterlimit="10" d="M89.49,40.9
					c-0.1-0.03-0.2-0.06-0.3-0.09c-1.61-0.47-3.35-0.58-5.11-0.23c-0.42,0.08-0.82,0.19-1.21,0.31c-0.08,0.02-0.16,0.05-0.24,0.08
					l0.1,0.3c0.03-0.01,0.06-0.02,0.09-0.03c0.43-0.14,0.87-0.26,1.32-0.35c1.78-0.35,3.55-0.22,5.17,0.29
					c0.03,0.01,0.05,0.02,0.08,0.02L89.49,40.9z"/>
			</g>
		</g>
		<g>
			<path fill="#FFFFFF" stroke="#1D2132" stroke-width="0.1" stroke-linecap="square" stroke-miterlimit="10" d="M78.42,50.13
				c-1.36,0.11-3.2,0.07-3.88,0.33c-0.6,0.23-0.15,1.54-0.15,3.08c0,1.54-0.45,2.85,0.15,3.08c0.68,0.26,2.52,0.23,3.88,0.34
				s1.77-0.22,1.96-1.01c0.19-0.77,0.15-1.76,0.15-2.4c0-0.64,0.04-1.63-0.15-2.41C80.19,50.36,79.77,50.02,78.42,50.13z"/>
			<path fill="#FFFFFF" stroke="#1D2132" stroke-width="0.1" stroke-linecap="square" stroke-miterlimit="10" d="M78.79,50.39
				c-1.11,0.1-2.63,0.07-3.19,0.31c-0.49,0.22-0.96,1.43-0.96,2.85c0,1.43,0.46,2.64,0.96,2.86c0.56,0.24,2.07,0.21,3.18,0.32
				c1.11,0.1,1.45-0.21,1.61-0.94c0.15-0.72,0.13-1.64,0.13-2.23s0.03-1.51-0.12-2.23C80.25,50.59,79.91,50.28,78.79,50.39z"/>
			<g>
				<path fill="#FFFFFF" stroke="#1D2132" stroke-width="0.1" stroke-linecap="square" stroke-miterlimit="10" d="M73.31,55.47
					c0.09,0.45,0.21,0.89,0.35,1.32c1.55-0.18,0.43-1.56,0.43-3.24c0-1.74,1.16-3.25-0.49-3.25C73.09,51.92,72.97,53.68,73.31,55.47
					z"/>
				<path fill="#FFFFFF" stroke="#1D2132" stroke-width="0.1" stroke-linecap="square" stroke-miterlimit="10" d="M73.33,50.12
					c-0.03,0.1-0.06,0.2-0.09,0.3c-0.47,1.61-0.58,3.35-0.23,5.11c0.08,0.42,0.19,0.82,0.31,1.21c0.02,0.08,0.05,0.16,0.08,0.24
					l0.3-0.1c-0.01-0.03-0.02-0.06-0.03-0.09c-0.14-0.43-0.26-0.87-0.35-1.32c-0.35-1.78-0.22-3.55,0.29-5.17
					c0.01-0.03,0.02-0.05,0.02-0.08L73.33,50.12z"/>
			</g>
		</g>
		
			<rect x="80.72" y="48.31" fill="#FFFFFF" stroke="#1D2132" stroke-width="0.1" stroke-linecap="square" stroke-miterlimit="10" width="11.01" height="11.01"/>
	</g>
	<g>
		
			<rect x="28.09" y="47.06" fill="#FFFFFF" stroke="#1D2132" stroke-width="0.1" stroke-linecap="square" stroke-miterlimit="10" width="0.69" height="8.26"/>
		
			<rect x="28.38" y="47.51" fill="#FFFFFF" stroke="#1D2132" stroke-width="0.1" stroke-linecap="square" stroke-miterlimit="10" width="0.41" height="7.35"/>
	</g>
	<g>
		
			<rect x="27.97" y="71.28" fill="#FFFFFF" stroke="#1D2132" stroke-width="0.1" stroke-linecap="square" stroke-miterlimit="10" width="0.69" height="5.51"/>
		<g>
			
				<rect x="28.67" y="71.67" fill="#FFFFFF" stroke="#1D2132" stroke-width="0.1" stroke-linecap="square" stroke-miterlimit="10" width="1.05" height="0.31"/>
			
				<rect x="28.67" y="71.67" fill="#FFFFFF" stroke="#1D2132" stroke-width="0.1" stroke-linecap="square" stroke-miterlimit="10" width="0.19" height="0.31"/>
		</g>
		<g>
			
				<rect x="28.67" y="73.15" fill="#FFFFFF" stroke="#1D2132" stroke-width="0.1" stroke-linecap="square" stroke-miterlimit="10" width="1.05" height="0.31"/>
			
				<rect x="28.67" y="73.15" fill="#FFFFFF" stroke="#1D2132" stroke-width="0.1" stroke-linecap="square" stroke-miterlimit="10" width="0.19" height="0.31"/>
		</g>
		<g>
			
				<rect x="28.67" y="74.62" fill="#FFFFFF" stroke="#1D2132" stroke-width="0.1" stroke-linecap="square" stroke-miterlimit="10" width="1.05" height="0.31"/>
			
				<rect x="28.67" y="74.62" fill="#FFFFFF" stroke="#1D2132" stroke-width="0.1" stroke-linecap="square" stroke-miterlimit="10" width="0.19" height="0.31"/>
		</g>
		<g>
			
				<rect x="28.67" y="76.09" fill="#FFFFFF" stroke="#1D2132" stroke-width="0.1" stroke-linecap="square" stroke-miterlimit="10" width="1.05" height="0.31"/>
			
				<rect x="28.67" y="76.09" fill="#FFFFFF" stroke="#1D2132" stroke-width="0.1" stroke-linecap="square" stroke-miterlimit="10" width="0.19" height="0.31"/>
		</g>
	</g>
	<g>
		<g>
			<g>
				
					<rect x="3.81" y="37.68" fill="#FFFFFF" stroke="#1D2132" stroke-width="0.1" stroke-linecap="square" stroke-miterlimit="10" width="5.03" height="5.03"/>
				<polygon fill="#FFFFFF" stroke="#1D2132" stroke-width="0.1" stroke-linecap="square" stroke-miterlimit="10" points="
					8.85,41.18 8.85,41.7 9.35,41.7 9.35,38.69 8.85,38.69 8.85,39.21 9.18,39.21 9.18,41.18 				"/>
			</g>
			<g>
				
					<rect x="3.81" y="7.1" fill="#FFFFFF" stroke="#1D2132" stroke-width="0.1" stroke-linecap="square" stroke-miterlimit="10" width="5.03" height="5.03"/>
				<polygon fill="#FFFFFF" stroke="#1D2132" stroke-width="0.1" stroke-linecap="square" stroke-miterlimit="10" points="
					8.85,10.6 8.85,11.12 9.35,11.12 9.35,8.11 8.85,8.11 8.85,8.63 9.18,8.63 9.18,10.6 				"/>
			</g>
		</g>
		<g>
			<g>
				
					<rect x="3.39" y="12.98" fill="#FFFFFF" stroke="#1D2132" stroke-width="0.1" stroke-linecap="square" stroke-miterlimit="22.9256" width="26.48" height="23.83"/>
				<path fill="#FFFFFF" stroke="#1D2132" stroke-width="0.1" stroke-linecap="square" stroke-miterlimit="22.9256" d="M5.22,13.26
					c0,0,0.65-0.05,1.28,0c1.05,0.08,1.71,0.13,2.79,0.13s1.18-0.15,1.35-0.02c0.17,0.13,0.41,0.15,0.68,0s1.78-0.03,2.83-0.03
					s2.69-0.12,3.6-0.08s0.57,0.17,0.63,0.32c0.07,0.15,0.81-0.12,0.94-0.25c0.14-0.13,0.71-0.07,2.7-0.09s3.64,0.14,4.7,0.1
					c0.66-0.03,1.04,0,1.21,0.03c0.4,0.08,0.23-0.01,0.68-0.01c0.51,0.01-0.65,0.3-0.01,0.17c0.44-0.09,0.86-0.26,0.76-0.13
					s-0.52,0.36-0.59,0.44c-0.07,0.07-0.41,0.3-0.14,0.23c0.27-0.07,0.87-0.87,0.9-0.66c0.04,0.23,0.06,0.97,0.06,2.76
					c0,1.76,0,13.91-0.17,14s-0.1,0.09,0,0.2s-0.03,2.26,0.1,2.68c0.14,0.43,0.1,1.07-0.07,1.17c-0.17,0.09-0.2,0.07-0.07,0.17
					c0.13,0.09,0.17,0.85,0.17,1.24c0,0.58,0.22,0.78-0.22,0.52c-0.44-0.26-0.77-0.23-0.5-0.06s0.63,0.21,0.7,0.32
					c0.07,0.11,0.32,0.09-0.39,0.1c-0.71,0.02-4.81,0.12-6.16,0.08c-1.35-0.04-2.4,0.01-2.59-0.03c-0.52-0.12-1.25,0.07-2.42,0.03
					c-1.46-0.05-3.73-0.04-5.38-0.06s-2.12-0.02-3.33,0s-1.67-0.25-2.06-0.12c-0.76,0.25-1.08,0.03-1.65-0.01
					c-0.57-0.04-1.43,0.1-1.72,0.07c-0.23-0.02,0.64-0.41,0.51-0.57c-0.14-0.16-0.54,0.7-0.63,0.38c-0.09-0.32,0.09-4.38,0-4.7
					c-0.09-0.31,0-0.23,0-0.23s0-0.94,0-1.62s0-15.31,0-15.68s0.08-0.74,0.23-0.37s-0.03-0.37,0.26-0.4
					C4.49,13.23,4.93,13.38,5.22,13.26z"/>
				<path fill="#FFFFFF" stroke="#1D2132" stroke-width="0.1" stroke-linecap="square" stroke-miterlimit="22.9256" d="M10.72,12.93
					c0.78-0.11,4.53-0.04,4.53,0.06s-1.29-0.25-2.03,0.41c-0.75,0.66-1.29,1.38-1.05,1.18c0.24-0.19,0.27-0.21,0.44-0.43
					c0.17-0.21,0.24-0.43,0.31-0.31c0.07,0.12-0.12,0.83-0.31,1.45c-0.24,0.79,0,2.79,0.06,3.69c0.16,2.28,0.56,15.05,1.58,16.47
					s1.18,1.29,1.52,1.37c0.34,0.08,1.39-0.07,0.85,0.06c-0.52,0.12-1.59,0-2.62,0.1c-1.05,0.1-1.39,0.21-1.46,0.06
					c-0.07-0.16-1.01-1.89-0.85-1.64c0.04,0.06,0.72,1.55,0.68,1.66c-0.03,0.12-0.36,0.03-0.75,0c-0.51-0.04-0.51-0.04-0.51-0.1
					c0-0.25-0.09-1.03-0.05-1.98c0.03-0.95-0.2-0.12-0.07,0.41c0.14,0.52-0.14,0.06-0.41-0.91c-0.27-0.97,0.3-15.18,0.06-15.88
					s-0.54-3.07-0.14-3.94C10.92,13.78,10.15,13.01,10.72,12.93z"/>
				<g>
					<path fill="#FFFFFF" stroke="#1D2132" stroke-width="0.1" stroke-linecap="square" stroke-miterlimit="22.9256" d="M3.53,26.11
						c0-0.37,0.06-0.28,0.17-0.19c0.11,0.09,0.28,0.14,1.04,0c0.75-0.14,1.32-0.18,2.03,0.05c0.72,0.23,0.81,0.1,1,0.01
						s0.34-0.05,0.19,0.23c-0.15,0.27,0.07,1.07,0.1,1.72c0.11,2.51,0.01,3.62-0.08,5.37c-0.02,0.38-0.14,0.7-0.1,0.88
						s-0.04,0.41-0.15,0.27s-1.35,0.18-2.26,0.09c-0.9-0.09-1.42-0.04-1.53,0.01s-0.45-0.09-0.3-0.27S3.56,33.36,3.52,33
						c-0.04-0.37-0.15-1.15-0.11-3.11c0.04-1.96,0.02-2.82,0.14-3.14C3.64,26.42,3.53,26.2,3.53,26.11z"/>
					<path fill="none" stroke="#1D2132" stroke-width="0.1" stroke-linecap="square" stroke-miterlimit="22.9256" d="M7.46,26.45
						c0,0,0.51,1.49,0.51,3.73s-0.7,3.86-0.7,3.86"/>
				</g>
				<g>
					<path fill="#FFFFFF" stroke="#1D2132" stroke-width="0.1" stroke-linecap="square" stroke-miterlimit="22.9256" d="M5.95,27.22
						c0-0.27,0.05-0.2,0.14-0.13c0.09,0.07,0.23,0.1,0.84,0S8,26.96,8.57,27.12c0.58,0.17,0.65,0.08,0.81,0.01
						c0.15-0.07,0.27-0.03,0.15,0.17c-0.12,0.2,0.05,0.78,0.08,1.25c0.09,1.83,0,2.63-0.07,3.9c-0.02,0.27-0.11,0.51-0.08,0.64
						s-0.03,0.3-0.12,0.2s-1.1,0.13-1.83,0.07c-0.73-0.07-1.15-0.03-1.24,0.01c-0.09,0.03-0.37-0.07-0.24-0.2
						c0.12-0.13-0.06-0.67-0.09-0.93c-0.03-0.27-0.12-0.84-0.09-2.26c0.03-1.42,0.02-2.05,0.11-2.28
						C6.04,27.45,5.95,27.29,5.95,27.22z"/>
					<path fill="none" stroke="#1D2132" stroke-width="0.1" stroke-linecap="square" stroke-miterlimit="22.9256" d="M9.13,27.47
						c0,0,0.41,1.09,0.41,2.71c0,1.63-0.57,2.81-0.57,2.81"/>
				</g>
				<g>
					<path fill="#FFFFFF" stroke="#1D2132" stroke-width="0.1" stroke-linecap="square" stroke-miterlimit="22.9256" d="M3.53,15.67
						c0-0.37,0.06-0.28,0.17-0.19c0.11,0.09,0.28,0.14,1.04,0c0.75-0.14,1.32-0.18,2.03,0.05c0.72,0.23,0.81,0.1,1,0.01
						s0.34-0.05,0.19,0.23c-0.15,0.27,0.07,1.07,0.1,1.72c0.11,2.51,0.01,3.62-0.08,5.37c-0.02,0.38-0.14,0.7-0.1,0.88
						c0.04,0.18-0.04,0.41-0.15,0.27s-1.35,0.18-2.26,0.09c-0.9-0.09-1.42-0.04-1.53,0.01c-0.11,0.05-0.45-0.09-0.3-0.27
						s-0.08-0.92-0.12-1.28c-0.04-0.37-0.15-1.15-0.11-3.11c0.04-1.96,0.02-2.82,0.14-3.14C3.64,15.98,3.53,15.76,3.53,15.67z"/>
					<path fill="none" stroke="#1D2132" stroke-width="0.1" stroke-linecap="square" stroke-miterlimit="22.9256" d="M7.46,16.02
						c0,0,0.51,1.49,0.51,3.73s-0.7,3.86-0.7,3.86"/>
				</g>
				<g>
					<path fill="#FFFFFF" stroke="#1D2132" stroke-width="0.1" stroke-linecap="square" stroke-miterlimit="22.9256" d="M5.95,16.78
						c0-0.27,0.05-0.2,0.14-0.13c0.09,0.07,0.23,0.1,0.84,0S8,16.52,8.57,16.68c0.58,0.17,0.65,0.08,0.81,0.01
						c0.15-0.07,0.27-0.03,0.15,0.17c-0.12,0.2,0.05,0.78,0.08,1.25c0.09,1.83,0,2.63-0.07,3.9c-0.02,0.27-0.11,0.51-0.08,0.64
						s-0.03,0.3-0.12,0.2c-0.09-0.1-1.1,0.13-1.83,0.07c-0.73-0.07-1.15-0.03-1.24,0.01c-0.09,0.03-0.37-0.07-0.24-0.2
						c0.12-0.13-0.06-0.67-0.09-0.93c-0.03-0.27-0.12-0.84-0.09-2.26c0.03-1.42,0.02-2.05,0.11-2.28
						C6.04,17.01,5.95,16.85,5.95,16.78z"/>
					<path fill="none" stroke="#1D2132" stroke-width="0.1" stroke-linecap="square" stroke-miterlimit="22.9256" d="M9.13,17.03
						c0,0,0.41,1.09,0.41,2.71c0,1.63-0.57,2.81-0.57,2.81"/>
				</g>
				<path fill="#FFFFFF" stroke="#1D2132" stroke-width="0.1" stroke-linecap="square" stroke-miterlimit="22.9256" d="M29.62,36.31
					V13.32c0-0.35-0.28-0.62-0.62-0.62h-7.37c-0.35,0-0.62,0.28-0.62,0.62v22.99c0,0.35,0.28,0.62,0.62,0.62H29
					C29.34,36.94,29.62,36.66,29.62,36.31z"/>
			</g>
			<g>
				
					<rect x="2.23" y="9.01" fill="#FFFFFF" stroke="#1D2132" stroke-width="0.1" stroke-linecap="square" stroke-miterlimit="22.9256" width="0.66" height="31.78"/>
				<path fill="#FFFFFF" stroke="#1D2132" stroke-width="0.1" stroke-linecap="square" stroke-miterlimit="22.9256" d="M3.39,40.04
					V9.76c0-0.26-0.21-0.47-0.47-0.47H2.88v31.22h0.03C3.18,40.51,3.39,40.3,3.39,40.04z"/>
				<g>
					<g>
						<g>
							<path fill="#FFFFFF" stroke="#1D2132" stroke-width="0.1" stroke-linecap="square" stroke-miterlimit="22.9256" d="
								M2.88,39.73v-1h0.16c0.26,0,0.47,0.21,0.47,0.47v0.07c0,0.26-0.21,0.47-0.47,0.47H2.88V39.73z"/>
							<path fill="#FFFFFF" stroke="#1D2132" stroke-width="0.1" stroke-linecap="square" stroke-miterlimit="22.9256" d="
								M6.59,36.07l0.18,0.75c0.42,0.04,0.85,0.02,1.27-0.06l0,0c0.11-0.03,0.13-0.32,0.05-0.65s-0.23-0.58-0.34-0.56l0,0
								C7.35,35.66,6.96,35.83,6.59,36.07z"/>
							
								<ellipse transform="matrix(0.9728 -0.2315 0.2315 0.9728 -8.2568 2.5367)" fill="#FFFFFF" stroke="#1D2132" stroke-width="0.1" stroke-linecap="square" stroke-miterlimit="22.9256" cx="6.68" cy="36.45" rx="0.13" ry="0.39"/>
							<path fill="#FFFFFF" stroke="#1D2132" stroke-width="0.1" stroke-linecap="square" stroke-miterlimit="22.9256" d="
								M6.64,36.55l-0.08,0.03c0,0-0.42,0.17-0.73,0.79c-0.06,0.12-0.11,0.25-0.17,0.38c-0.17,0.4-0.36,0.84-0.74,1.15
								c-0.51,0.4-1.3,0.4-1.34,0.4H3.5v-0.17h0.08c0.01,0,0.77,0,1.23-0.36c0.35-0.27,0.52-0.68,0.69-1.08
								c0.06-0.14,0.11-0.27,0.17-0.39c0.34-0.68,0.8-0.86,0.82-0.87l0.08-0.03C6.62,36.39,6.65,36.49,6.64,36.55z"/>
						</g>
					</g>
					<g>
						<g>
							<path fill="#FFFFFF" stroke="#1D2132" stroke-width="0.1" stroke-linecap="square" stroke-miterlimit="22.9256" d="
								M2.88,10.08v1h0.16c0.26,0,0.47-0.21,0.47-0.47v-0.07c0-0.26-0.21-0.47-0.47-0.47H2.88V10.08z"/>
							<path fill="#FFFFFF" stroke="#1D2132" stroke-width="0.1" stroke-linecap="square" stroke-miterlimit="22.9256" d="
								M6.59,13.74l0.18-0.75c0.42-0.04,0.85-0.02,1.27,0.06l0,0c0.11,0.03,0.13,0.32,0.05,0.65s-0.23,0.58-0.34,0.56l0,0
								C7.35,14.15,6.96,13.98,6.59,13.74z"/>
							
								<ellipse transform="matrix(0.2315 -0.9728 0.9728 0.2315 -7.8643 16.7689)" fill="#FFFFFF" stroke="#1D2132" stroke-width="0.1" stroke-linecap="square" stroke-miterlimit="22.9256" cx="6.68" cy="13.36" rx="0.39" ry="0.13"/>
							<path fill="#FFFFFF" stroke="#1D2132" stroke-width="0.1" stroke-linecap="square" stroke-miterlimit="22.9256" d="
								M6.64,13.26l-0.08-0.03c0,0-0.42-0.17-0.73-0.79c-0.06-0.12-0.11-0.25-0.17-0.38c-0.17-0.4-0.36-0.84-0.74-1.15
								c-0.51-0.4-1.3-0.4-1.34-0.4H3.5v0.17h0.08c0.01,0,0.77,0,1.23,0.36c0.35,0.27,0.52,0.68,0.69,1.08
								c0.06,0.14,0.11,0.27,0.17,0.39c0.34,0.68,0.8,0.86,0.82,0.87l0.08,0.03C6.62,13.41,6.65,13.32,6.64,13.26z"/>
						</g>
					</g>
				</g>
			</g>
		</g>
	</g>
	<g>
		<g>
			
				<rect x="14.54" y="4.4" fill="#FFFFFF" stroke="#1D2132" stroke-width="0.1" stroke-linecap="square" stroke-miterlimit="10" width="11.01" height="0.83"/>
			
				<line fill="none" stroke="#1D2132" stroke-width="0.1" stroke-linecap="square" stroke-miterlimit="10" x1="24.69" y1="4.57" x2="24.69" y2="5.07"/>
			
				<line fill="none" stroke="#1D2132" stroke-width="0.1" stroke-linecap="square" stroke-miterlimit="10" x1="24.39" y1="4.57" x2="24.39" y2="5.07"/>
			
				<line fill="none" stroke="#1D2132" stroke-width="0.1" stroke-linecap="square" stroke-miterlimit="10" x1="25.28" y1="4.57" x2="25.28" y2="5.07"/>
			
				<line fill="none" stroke="#1D2132" stroke-width="0.1" stroke-linecap="square" stroke-miterlimit="10" x1="24.98" y1="4.57" x2="24.98" y2="5.07"/>
			
				<line fill="none" stroke="#1D2132" stroke-width="0.1" stroke-linecap="square" stroke-miterlimit="10" x1="24.08" y1="4.57" x2="24.08" y2="5.07"/>
			
				<line fill="none" stroke="#1D2132" stroke-width="0.1" stroke-linecap="square" stroke-miterlimit="10" x1="23.8" y1="4.57" x2="23.8" y2="5.07"/>
			
				<line fill="none" stroke="#1D2132" stroke-width="0.1" stroke-linecap="square" stroke-miterlimit="10" x1="23.49" y1="4.57" x2="23.49" y2="5.07"/>
			
				<line fill="none" stroke="#1D2132" stroke-width="0.1" stroke-linecap="square" stroke-miterlimit="10" x1="23.19" y1="4.57" x2="23.19" y2="5.07"/>
			
				<line fill="none" stroke="#1D2132" stroke-width="0.1" stroke-linecap="square" stroke-miterlimit="10" x1="22.9" y1="4.57" x2="22.9" y2="5.07"/>
			
				<line fill="none" stroke="#1D2132" stroke-width="0.1" stroke-linecap="square" stroke-miterlimit="10" x1="22.6" y1="4.57" x2="22.6" y2="5.07"/>
			
				<line fill="none" stroke="#1D2132" stroke-width="0.1" stroke-linecap="square" stroke-miterlimit="10" x1="21.71" y1="4.57" x2="21.71" y2="5.07"/>
			
				<line fill="none" stroke="#1D2132" stroke-width="0.1" stroke-linecap="square" stroke-miterlimit="10" x1="21.42" y1="4.57" x2="21.42" y2="5.07"/>
			
				<line fill="none" stroke="#1D2132" stroke-width="0.1" stroke-linecap="square" stroke-miterlimit="10" x1="22.31" y1="4.57" x2="22.31" y2="5.07"/>
			
				<line fill="none" stroke="#1D2132" stroke-width="0.1" stroke-linecap="square" stroke-miterlimit="10" x1="22.01" y1="4.57" x2="22.01" y2="5.07"/>
			
				<line fill="none" stroke="#1D2132" stroke-width="0.1" stroke-linecap="square" stroke-miterlimit="10" x1="21.12" y1="4.57" x2="21.12" y2="5.07"/>
			
				<line fill="none" stroke="#1D2132" stroke-width="0.1" stroke-linecap="square" stroke-miterlimit="10" x1="20.82" y1="4.57" x2="20.82" y2="5.07"/>
			
				<line fill="none" stroke="#1D2132" stroke-width="0.1" stroke-linecap="square" stroke-miterlimit="10" x1="20.53" y1="4.57" x2="20.53" y2="5.07"/>
			
				<line fill="none" stroke="#1D2132" stroke-width="0.1" stroke-linecap="square" stroke-miterlimit="10" x1="20.23" y1="4.57" x2="20.23" y2="5.07"/>
			
				<line fill="none" stroke="#1D2132" stroke-width="0.1" stroke-linecap="square" stroke-miterlimit="10" x1="19.92" y1="4.57" x2="19.92" y2="5.07"/>
			
				<line fill="none" stroke="#1D2132" stroke-width="0.1" stroke-linecap="square" stroke-miterlimit="10" x1="19.62" y1="4.57" x2="19.62" y2="5.07"/>
			
				<line fill="none" stroke="#1D2132" stroke-width="0.1" stroke-linecap="square" stroke-miterlimit="10" x1="18.74" y1="4.57" x2="18.74" y2="5.07"/>
			
				<line fill="none" stroke="#1D2132" stroke-width="0.1" stroke-linecap="square" stroke-miterlimit="10" x1="18.44" y1="4.57" x2="18.44" y2="5.07"/>
			
				<line fill="none" stroke="#1D2132" stroke-width="0.1" stroke-linecap="square" stroke-miterlimit="10" x1="19.33" y1="4.57" x2="19.33" y2="5.07"/>
			
				<line fill="none" stroke="#1D2132" stroke-width="0.1" stroke-linecap="square" stroke-miterlimit="10" x1="19.03" y1="4.57" x2="19.03" y2="5.07"/>
			
				<line fill="none" stroke="#1D2132" stroke-width="0.1" stroke-linecap="square" stroke-miterlimit="10" x1="18.15" y1="4.57" x2="18.15" y2="5.07"/>
			
				<line fill="none" stroke="#1D2132" stroke-width="0.1" stroke-linecap="square" stroke-miterlimit="10" x1="17.85" y1="4.57" x2="17.85" y2="5.07"/>
			
				<line fill="none" stroke="#1D2132" stroke-width="0.1" stroke-linecap="square" stroke-miterlimit="10" x1="17.55" y1="4.57" x2="17.55" y2="5.07"/>
			
				<line fill="none" stroke="#1D2132" stroke-width="0.1" stroke-linecap="square" stroke-miterlimit="10" x1="17.26" y1="4.57" x2="17.26" y2="5.07"/>
			
				<line fill="none" stroke="#1D2132" stroke-width="0.1" stroke-linecap="square" stroke-miterlimit="10" x1="16.96" y1="4.57" x2="16.96" y2="5.07"/>
			
				<line fill="none" stroke="#1D2132" stroke-width="0.1" stroke-linecap="square" stroke-miterlimit="10" x1="16.65" y1="4.57" x2="16.65" y2="5.07"/>
			
				<line fill="none" stroke="#1D2132" stroke-width="0.1" stroke-linecap="square" stroke-miterlimit="10" x1="15.77" y1="4.57" x2="15.77" y2="5.07"/>
			
				<line fill="none" stroke="#1D2132" stroke-width="0.1" stroke-linecap="square" stroke-miterlimit="10" x1="15.47" y1="4.57" x2="15.47" y2="5.07"/>
			
				<line fill="none" stroke="#1D2132" stroke-width="0.1" stroke-linecap="square" stroke-miterlimit="10" x1="16.35" y1="4.57" x2="16.35" y2="5.07"/>
			
				<line fill="none" stroke="#1D2132" stroke-width="0.1" stroke-linecap="square" stroke-miterlimit="10" x1="16.07" y1="4.57" x2="16.07" y2="5.07"/>
			
				<line fill="none" stroke="#1D2132" stroke-width="0.1" stroke-linecap="square" stroke-miterlimit="10" x1="15.16" y1="4.57" x2="15.16" y2="5.07"/>
			
				<line fill="none" stroke="#1D2132" stroke-width="0.1" stroke-linecap="square" stroke-miterlimit="10" x1="14.88" y1="4.57" x2="14.88" y2="5.07"/>
		</g>
		<path fill="none" stroke="#1D2132" stroke-width="0.1" stroke-linecap="square" stroke-miterlimit="10" d="M35.49,5.39
			c-0.43,0,0,0.77-0.43,0.77s0-0.77-0.43-0.77s0,0.77-0.43,0.77s0-0.77-0.43-0.77s0,0.77-0.43,0.77s0-0.77-0.43-0.77
			s0,0.77-0.43,0.77s0-0.77-0.43-0.77s0,0.77-0.43,0.77s0-0.77-0.43-0.77s0,0.77-0.43,0.77s0-0.77-0.43-0.77s0,0.77-0.43,0.77
			s0-0.77-0.43-0.77s0,0.77-0.43,0.77s0-0.77-0.43-0.77s0,0.77-0.43,0.77s0-0.77-0.43-0.77s0,0.77-0.43,0.77s0-0.77-0.43-0.77
			s0,0.77-0.43,0.77s0-0.77-0.43-0.77s0,0.77-0.43,0.77s0-0.77-0.43-0.77s0,0.77-0.43,0.77s0-0.77-0.43-0.77s0,0.77-0.43,0.77
			s0-0.77-0.43-0.77s0,0.77-0.43,0.77s0-0.77-0.43-0.77s0,0.77-0.43,0.77s0-0.77-0.43-0.77s0,0.77-0.43,0.77"/>
		<path fill="none" stroke="#1D2132" stroke-width="0.1" stroke-linecap="square" stroke-miterlimit="10" d="M4.52,5.39
			c0.43,0,0,0.77,0.43,0.77s0-0.77,0.43-0.77s0,0.77,0.43,0.77s0-0.77,0.43-0.77s0,0.77,0.43,0.77s0-0.77,0.43-0.77
			s0,0.77,0.43,0.77s0-0.77,0.43-0.77s0,0.77,0.43,0.77s0-0.77,0.43-0.77s0,0.77,0.43,0.77s0-0.77,0.43-0.77s0,0.77,0.43,0.77
			s0-0.77,0.43-0.77s0,0.77,0.43,0.77s0-0.77,0.43-0.77s0,0.77,0.43,0.77s0-0.77,0.43-0.77s0,0.77,0.43,0.77s0-0.77,0.43-0.77
			s0,0.77,0.43,0.77s0-0.77,0.43-0.77s0,0.77,0.43,0.77s0-0.77,0.43-0.77s0,0.77,0.43,0.77s0-0.77,0.43-0.77
			c0.43,0,0,0.77,0.43,0.77c0.43,0,0-0.77,0.43-0.77s0,0.77,0.43,0.77s0-0.77,0.43-0.77s0,0.77,0.43,0.77s0-0.77,0.43-0.77
			s0,0.77,0.43,0.77"/>
	</g>
	<g>
		<g>
			
				<rect x="60.8" y="4.4" fill="#FFFFFF" stroke="#1D2132" stroke-width="0.1" stroke-linecap="square" stroke-miterlimit="10" width="11.01" height="0.83"/>
			
				<line fill="none" stroke="#1D2132" stroke-width="0.1" stroke-linecap="square" stroke-miterlimit="10" x1="70.94" y1="4.58" x2="70.94" y2="5.07"/>
			
				<line fill="none" stroke="#1D2132" stroke-width="0.1" stroke-linecap="square" stroke-miterlimit="10" x1="70.65" y1="4.58" x2="70.65" y2="5.07"/>
			
				<line fill="none" stroke="#1D2132" stroke-width="0.1" stroke-linecap="square" stroke-miterlimit="10" x1="71.54" y1="4.58" x2="71.54" y2="5.07"/>
			
				<line fill="none" stroke="#1D2132" stroke-width="0.1" stroke-linecap="square" stroke-miterlimit="10" x1="71.24" y1="4.58" x2="71.24" y2="5.07"/>
			
				<line fill="none" stroke="#1D2132" stroke-width="0.1" stroke-linecap="square" stroke-miterlimit="10" x1="70.35" y1="4.58" x2="70.35" y2="5.07"/>
			
				<line fill="none" stroke="#1D2132" stroke-width="0.1" stroke-linecap="square" stroke-miterlimit="10" x1="70.05" y1="4.58" x2="70.05" y2="5.07"/>
			
				<line fill="none" stroke="#1D2132" stroke-width="0.1" stroke-linecap="square" stroke-miterlimit="10" x1="69.76" y1="4.58" x2="69.76" y2="5.07"/>
			
				<line fill="none" stroke="#1D2132" stroke-width="0.1" stroke-linecap="square" stroke-miterlimit="10" x1="69.46" y1="4.58" x2="69.46" y2="5.07"/>
			
				<line fill="none" stroke="#1D2132" stroke-width="0.1" stroke-linecap="square" stroke-miterlimit="10" x1="69.16" y1="4.58" x2="69.16" y2="5.07"/>
			
				<line fill="none" stroke="#1D2132" stroke-width="0.1" stroke-linecap="square" stroke-miterlimit="10" x1="68.86" y1="4.58" x2="68.86" y2="5.07"/>
			
				<line fill="none" stroke="#1D2132" stroke-width="0.1" stroke-linecap="square" stroke-miterlimit="10" x1="67.97" y1="4.58" x2="67.97" y2="5.07"/>
			
				<line fill="none" stroke="#1D2132" stroke-width="0.1" stroke-linecap="square" stroke-miterlimit="10" x1="67.67" y1="4.58" x2="67.67" y2="5.07"/>
			
				<line fill="none" stroke="#1D2132" stroke-width="0.1" stroke-linecap="square" stroke-miterlimit="10" x1="68.57" y1="4.58" x2="68.57" y2="5.07"/>
			
				<line fill="none" stroke="#1D2132" stroke-width="0.1" stroke-linecap="square" stroke-miterlimit="10" x1="68.27" y1="4.58" x2="68.27" y2="5.07"/>
			
				<line fill="none" stroke="#1D2132" stroke-width="0.1" stroke-linecap="square" stroke-miterlimit="10" x1="67.38" y1="4.58" x2="67.38" y2="5.07"/>
			
				<line fill="none" stroke="#1D2132" stroke-width="0.1" stroke-linecap="square" stroke-miterlimit="10" x1="67.08" y1="4.58" x2="67.08" y2="5.07"/>
			
				<line fill="none" stroke="#1D2132" stroke-width="0.1" stroke-linecap="square" stroke-miterlimit="10" x1="66.78" y1="4.58" x2="66.78" y2="5.07"/>
			
				<line fill="none" stroke="#1D2132" stroke-width="0.1" stroke-linecap="square" stroke-miterlimit="10" x1="66.49" y1="4.58" x2="66.49" y2="5.07"/>
			
				<line fill="none" stroke="#1D2132" stroke-width="0.1" stroke-linecap="square" stroke-miterlimit="10" x1="66.19" y1="4.58" x2="66.19" y2="5.07"/>
			
				<line fill="none" stroke="#1D2132" stroke-width="0.1" stroke-linecap="square" stroke-miterlimit="10" x1="65.89" y1="4.58" x2="65.89" y2="5.07"/>
			
				<line fill="none" stroke="#1D2132" stroke-width="0.1" stroke-linecap="square" stroke-miterlimit="10" x1="65" y1="4.58" x2="65" y2="5.07"/>
			
				<line fill="none" stroke="#1D2132" stroke-width="0.1" stroke-linecap="square" stroke-miterlimit="10" x1="64.7" y1="4.58" x2="64.7" y2="5.07"/>
			
				<line fill="none" stroke="#1D2132" stroke-width="0.1" stroke-linecap="square" stroke-miterlimit="10" x1="65.59" y1="4.58" x2="65.59" y2="5.07"/>
			
				<line fill="none" stroke="#1D2132" stroke-width="0.1" stroke-linecap="square" stroke-miterlimit="10" x1="65.3" y1="4.58" x2="65.3" y2="5.07"/>
			
				<line fill="none" stroke="#1D2132" stroke-width="0.1" stroke-linecap="square" stroke-miterlimit="10" x1="64.4" y1="4.58" x2="64.4" y2="5.07"/>
			
				<line fill="none" stroke="#1D2132" stroke-width="0.1" stroke-linecap="square" stroke-miterlimit="10" x1="64.11" y1="4.58" x2="64.11" y2="5.07"/>
			
				<line fill="none" stroke="#1D2132" stroke-width="0.1" stroke-linecap="square" stroke-miterlimit="10" x1="63.81" y1="4.58" x2="63.81" y2="5.07"/>
			
				<line fill="none" stroke="#1D2132" stroke-width="0.1" stroke-linecap="square" stroke-miterlimit="10" x1="63.51" y1="4.58" x2="63.51" y2="5.07"/>
			
				<line fill="none" stroke="#1D2132" stroke-width="0.1" stroke-linecap="square" stroke-miterlimit="10" x1="63.21" y1="4.58" x2="63.21" y2="5.07"/>
			
				<line fill="none" stroke="#1D2132" stroke-width="0.1" stroke-linecap="square" stroke-miterlimit="10" x1="62.92" y1="4.58" x2="62.92" y2="5.07"/>
			
				<line fill="none" stroke="#1D2132" stroke-width="0.1" stroke-linecap="square" stroke-miterlimit="10" x1="62.03" y1="4.58" x2="62.03" y2="5.07"/>
			
				<line fill="none" stroke="#1D2132" stroke-width="0.1" stroke-linecap="square" stroke-miterlimit="10" x1="61.73" y1="4.58" x2="61.73" y2="5.07"/>
			
				<line fill="none" stroke="#1D2132" stroke-width="0.1" stroke-linecap="square" stroke-miterlimit="10" x1="62.62" y1="4.58" x2="62.62" y2="5.07"/>
			
				<line fill="none" stroke="#1D2132" stroke-width="0.1" stroke-linecap="square" stroke-miterlimit="10" x1="62.32" y1="4.58" x2="62.32" y2="5.07"/>
			
				<line fill="none" stroke="#1D2132" stroke-width="0.1" stroke-linecap="square" stroke-miterlimit="10" x1="61.43" y1="4.58" x2="61.43" y2="5.07"/>
			
				<line fill="none" stroke="#1D2132" stroke-width="0.1" stroke-linecap="square" stroke-miterlimit="10" x1="61.13" y1="4.58" x2="61.13" y2="5.07"/>
		</g>
		<path fill="none" stroke="#1D2132" stroke-width="0.1" stroke-linecap="square" stroke-miterlimit="10" d="M81.75,5.4
			c-0.43,0,0,0.77-0.43,0.77s0-0.77-0.43-0.77s0,0.77-0.43,0.77s0-0.77-0.43-0.77s0,0.77-0.43,0.77s0-0.77-0.43-0.77
			s0,0.77-0.43,0.77s0-0.77-0.43-0.77s0,0.77-0.43,0.77s0-0.77-0.43-0.77s0,0.77-0.43,0.77s0-0.77-0.43-0.77s0,0.77-0.43,0.77
			s0-0.77-0.43-0.77s0,0.77-0.43,0.77s0-0.77-0.43-0.77s0,0.77-0.43,0.77s0-0.77-0.43-0.77s0,0.77-0.43,0.77s0-0.77-0.43-0.77
			s0,0.77-0.43,0.77s0-0.77-0.43-0.77s0,0.77-0.43,0.77s0-0.77-0.43-0.77s0,0.77-0.43,0.77s0-0.77-0.43-0.77s0,0.77-0.43,0.77
			s0-0.77-0.43-0.77s0,0.77-0.43,0.77s0-0.77-0.43-0.77s0,0.77-0.43,0.77s0-0.77-0.43-0.77s0,0.77-0.43,0.77"/>
		<path fill="none" stroke="#1D2132" stroke-width="0.1" stroke-linecap="square" stroke-miterlimit="10" d="M50.77,5.4
			c0.43,0,0,0.77,0.43,0.77s0-0.77,0.43-0.77s0,0.77,0.43,0.77s0-0.77,0.43-0.77s0,0.77,0.43,0.77s0-0.77,0.43-0.77
			s0,0.77,0.43,0.77s0-0.77,0.43-0.77s0,0.77,0.43,0.77s0-0.77,0.43-0.77s0,0.77,0.43,0.77s0-0.77,0.43-0.77s0,0.77,0.43,0.77
			s0-0.77,0.43-0.77s0,0.77,0.43,0.77s0-0.77,0.43-0.77s0,0.77,0.43,0.77s0-0.77,0.43-0.77s0,0.77,0.43,0.77s0-0.77,0.43-0.77
			s0,0.77,0.43,0.77s0-0.77,0.43-0.77s0,0.77,0.43,0.77s0-0.77,0.43-0.77s0,0.77,0.43,0.77s0-0.77,0.43-0.77s0,0.77,0.43,0.77
			s0-0.77,0.43-0.77c0.43,0,0,0.77,0.43,0.77c0.43,0,0-0.77,0.43-0.77s0,0.77,0.43,0.77s0-0.77,0.43-0.77s0,0.77,0.43,0.77"/>
	</g>
	<g>
		<g>
			<path fill="none" stroke="#1D2132" stroke-width="0.1" stroke-linejoin="bevel" stroke-dasharray="0.492,0.492" d="M77.08,11.45
				v16.59c0,0.74-0.6,1.34-1.34,1.34H52.26c-0.74,0-1.34-0.6-1.34-1.34V11.45c0-0.74,0.6-1.34,1.34-1.34h23.47
				C76.48,10.11,77.08,10.71,77.08,11.45z"/>
		</g>
		<g>
			<path fill="#FFFFFF" stroke="#1D2132" stroke-width="0.1" stroke-linejoin="bevel" stroke-miterlimit="22.9256" d="M58.36,10.11
				h-6.32c-0.35,0-0.63,0.28-0.63,0.63v18.02c0,0.35,0.28,0.63,0.63,0.63h6.32c0.35,0,0.63,0.28,0.63,0.63v0.86
				c0,0.35-0.28,0.63-0.63,0.63h-8.93V8h8.93c0.35,0,0.63,0.28,0.63,0.63v0.86C58.99,9.83,58.71,10.11,58.36,10.11z"/>
			<path fill="none" stroke="#1D2132" stroke-width="0.1" stroke-linejoin="bevel" stroke-miterlimit="22.9256" d="M51.41,28.76
				c0,0,0.09,0.51-0.45,1.38c-0.54,0.88-1.53,1.36-1.53,1.36"/>
			<path fill="none" stroke="#1D2132" stroke-width="0.1" stroke-linejoin="bevel" stroke-miterlimit="22.9256" d="M51.93,29.38
				c0,0,0.23,0.27,0.13,1.06c-0.11,0.79-0.64,1.06-0.64,1.06"/>
			<path fill="none" stroke="#1D2132" stroke-width="0.1" stroke-linejoin="bevel" stroke-miterlimit="22.9256" d="M51.41,10.74
				c0,0,0.09-0.51-0.45-1.38C50.43,8.48,49.43,8,49.43,8"/>
			<path fill="none" stroke="#1D2132" stroke-width="0.1" stroke-linejoin="bevel" stroke-miterlimit="22.9256" d="M51.93,10.11
				c0,0,0.23-0.27,0.13-1.06C51.95,8.26,51.42,8,51.42,8"/>
			<path fill="#FFFFFF" stroke="#1D2132" stroke-width="0.1" stroke-linejoin="bevel" stroke-miterlimit="22.9256" d="M51.41,20.89
				v7.36c0,0.63,0.51,1.14,1.14,1.14h5.98c0.63,0,1.14-0.51,1.14-1.14v-7.36c0-0.63-0.51-1.14-1.14-1.14h-5.98
				C51.92,19.75,51.41,20.26,51.41,20.89z"/>
			<path fill="#FFFFFF" stroke="#1D2132" stroke-width="0.1" stroke-linejoin="bevel" stroke-miterlimit="22.9256" d="M51.41,11.25
				v7.36c0,0.63,0.51,1.14,1.14,1.14h5.98c0.63,0,1.14-0.51,1.14-1.14v-7.36c0-0.63-0.51-1.14-1.14-1.14h-5.98
				C51.92,10.11,51.41,10.62,51.41,11.25z"/>
			<path fill="#FFFFFF" stroke="#1D2132" stroke-width="0.1" stroke-linejoin="bevel" stroke-miterlimit="22.9256" d="M50.92,20.54
				v8.05c0,0.44,0.36,0.8,0.8,0.8h0.43c0.44,0,0.8-0.36,0.8-0.8v-8.05c0-0.44-0.36-0.8-0.8-0.8h-0.43
				C51.27,19.75,50.92,20.1,50.92,20.54z"/>
			<path fill="#FFFFFF" stroke="#1D2132" stroke-width="0.1" stroke-linejoin="bevel" stroke-miterlimit="22.9256" d="M50.92,10.9
				v8.05c0,0.44,0.36,0.8,0.8,0.8h0.43c0.44,0,0.8-0.36,0.8-0.8V10.9c0-0.44-0.36-0.8-0.8-0.8h-0.43
				C51.27,10.11,50.92,10.46,50.92,10.9z"/>
		</g>
		<g>
			<path fill="#FFFFFF" stroke="#1D2132" stroke-width="0.1" stroke-linejoin="bevel" stroke-miterlimit="22.9256" d="M55.81,16.03
				c-0.11,0.23-0.47,0.14-0.67,0.23c-0.2,0.09-0.67,0.23-1.27,0.01c-0.6-0.21-0.81-0.09-0.85-0.31c-0.04-0.22-0.32-0.96-0.11-2.68
				c0.22-1.72,0.43-2.45,0.54-2.76c0.12-0.31,0.12-0.5,0.27-0.38c0.15,0.11,0.46-0.08,1.45,0.04s0.99,0.3,1.13,0.33
				c0.14,0.02,0.3,0.05,0.23,0.22s0.3,0.32,0.12,1.5s-0.31,1.83-0.34,2.49C56.28,15.38,55.81,16.03,55.81,16.03z"/>
			<path fill="#FFFFFF" stroke="#1D2132" stroke-width="0.1" stroke-linejoin="bevel" stroke-miterlimit="22.9256" d="M55.67,16.16
				c0,0-0.34-0.11-0.58-0.06c-0.24,0.05-0.84,0.08-1.28-0.08c-0.45-0.16-0.75-0.18-0.71-0.72s0.29-1.26,0.36-2.46
				s0.07-2.26,0.25-2.38s1.44-0.17,1.98-0.03s0.69,0.08,0.69,0.08"/>
		</g>
		<g>
			<path fill="#FFFFFF" stroke="#1D2132" stroke-width="0.1" stroke-linejoin="bevel" stroke-miterlimit="22.9256" d="M56.17,27.71
				c-0.08,0.26-0.45,0.22-0.64,0.34s-0.64,0.34-1.26,0.2c-0.63-0.14-0.82,0.02-0.88-0.21c-0.07-0.23-0.45-0.98-0.46-2.86
				c-0.01-1.88,0.1-2.68,0.17-3.04c0.08-0.35,0.06-0.55,0.22-0.45c0.16,0.1,0.45-0.15,1.45-0.17c1-0.01,1.02,0.18,1.16,0.18
				s0.3,0.01,0.25,0.2s0.34,0.3,0.32,1.59c-0.02,1.29-0.06,2-0.01,2.72C56.56,26.94,56.17,27.71,56.17,27.71z"/>
			<path fill="#FFFFFF" stroke="#1D2132" stroke-width="0.1" stroke-linejoin="bevel" stroke-miterlimit="22.9256" d="M56.05,27.87
				c0,0-0.35-0.07-0.58,0.02c-0.24,0.09-0.82,0.21-1.28,0.1c-0.46-0.11-0.77-0.08-0.8-0.66c-0.04-0.58,0.12-1.39,0.03-2.68
				c-0.09-1.3-0.23-2.43-0.07-2.59c0.17-0.16,1.4-0.39,1.96-0.32c0.56,0.08,0.7-0.02,0.7-0.02"/>
		</g>
	</g>
	<g>
		<g>
			
				<rect x="41.94" y="7.39" fill="#FFFFFF" stroke="#1D2132" stroke-width="0.1" stroke-linejoin="bevel" stroke-miterlimit="22.9256" width="6.31" height="38.02"/>
			
				<rect x="41.94" y="19.9" fill="#FFFFFF" stroke="#1D2132" stroke-width="0.1" stroke-linejoin="bevel" stroke-miterlimit="22.9256" width="6.31" height="13"/>
		</g>
		<g>
			<path fill="#FFFFFF" stroke="#1D2132" stroke-width="0.1" stroke-linecap="square" stroke-miterlimit="10" d="M45.71,39.18
				c0-0.06,0.05-0.12,0.12-0.12h0.38c0.13,0,0.2,0.11,0.28,0.22c0.1,0.15,0.23,0.33,0.5,0.38c0.18,0.03,0.34-0.03,0.44-0.17
				c0.11-0.15,0.12-0.35,0.03-0.52c-0.18-0.34-0.55-0.29-0.56-0.29c-0.06,0.01-0.12-0.03-0.13-0.1c-0.01-0.06,0.03-0.12,0.1-0.13
				c0.19-0.03,0.6,0.02,0.8,0.41c0.13,0.25,0.11,0.55-0.05,0.76c-0.15,0.21-0.4,0.3-0.67,0.26c-0.37-0.06-0.54-0.31-0.65-0.47
				c-0.03-0.05-0.07-0.11-0.1-0.12h-0.37C45.76,39.29,45.71,39.24,45.71,39.18z M46.21,39.29L46.21,39.29L46.21,39.29z"/>
			<path fill="#FFFFFF" stroke="#1D2132" stroke-width="0.1" stroke-linecap="square" stroke-miterlimit="10" d="M43.19,43.07v-7.79
				c0-0.29-0.07-0.62,0.21-0.69s0.57,0.06,0.7,0.31c0,0.01,0.01,0.01,0.01,0.02l1.69,3.56c0.01,0.03,0.02,0.06,0.02,0.09v1.2
				c0,0.03-0.01,0.06-0.02,0.09l-1.69,3.56c0,0.01-0.01,0.01-0.01,0.02c-0.14,0.26-0.42,0.38-0.7,0.31
				C43.11,43.68,43.19,43.36,43.19,43.07z M43.69,34.85c-0.06-0.1-0.15-0.08-0.18-0.08c-0.03,0.01-0.12,0.04-0.12,0.16v8.47
				c0,0.12,0.09,0.15,0.12,0.16s0.12,0.02,0.18-0.08l1.08-3.77V38.6L43.69,34.85z"/>
		</g>
		<g>
			<path fill="#FFFFFF" stroke="#1D2132" stroke-width="0.1" stroke-linecap="square" stroke-miterlimit="10" d="M45.71,13.98
				c0-0.06,0.05-0.12,0.12-0.12h0.38c0.13,0,0.2,0.11,0.28,0.22c0.1,0.15,0.23,0.33,0.5,0.38c0.18,0.03,0.34-0.03,0.44-0.17
				c0.11-0.15,0.12-0.35,0.03-0.52c-0.18-0.34-0.55-0.29-0.56-0.29c-0.06,0.01-0.12-0.03-0.13-0.1c-0.01-0.06,0.03-0.12,0.1-0.13
				c0.19-0.03,0.6,0.02,0.8,0.41c0.13,0.25,0.11,0.55-0.05,0.76c-0.15,0.21-0.4,0.3-0.67,0.26c-0.37-0.06-0.54-0.31-0.65-0.47
				c-0.03-0.05-0.07-0.11-0.1-0.12h-0.37C45.76,14.09,45.71,14.04,45.71,13.98z M46.21,14.09L46.21,14.09L46.21,14.09z"/>
			<path fill="#FFFFFF" stroke="#1D2132" stroke-width="0.1" stroke-linecap="square" stroke-miterlimit="10" d="M43.19,17.87v-7.79
				c0-0.29-0.07-0.62,0.21-0.69s0.57,0.06,0.7,0.31c0,0.01,0.01,0.01,0.01,0.02l1.69,3.56c0.01,0.03,0.02,0.06,0.02,0.09v1.2
				c0,0.03-0.01,0.06-0.02,0.09l-1.69,3.56c0,0.01-0.01,0.01-0.01,0.02c-0.14,0.26-0.42,0.38-0.7,0.31
				C43.11,18.48,43.19,18.16,43.19,17.87z M43.69,9.65c-0.06-0.1-0.15-0.08-0.18-0.08c-0.03,0.01-0.12,0.04-0.12,0.16v8.47
				c0,0.12,0.09,0.15,0.12,0.16s0.12,0.02,0.18-0.08l1.08-3.77V13.4L43.69,9.65z"/>
		</g>
		<g>
			<path fill="#FFFFFF" stroke="#1D2132" stroke-width="0.1" stroke-linecap="square" stroke-miterlimit="10" d="M45.57,24.66h-0.26
				c-0.5,0-0.91,0.41-0.91,0.91v2.01c0,0.5,0.41,0.91,0.91,0.91h0.26c0.5,0,0.91-0.41,0.91-0.91v-2.01
				C46.48,25.06,46.07,24.66,45.57,24.66z"/>
			<path fill="#FFFFFF" stroke="#1D2132" stroke-width="0.1" stroke-linecap="square" stroke-miterlimit="10" d="M45.25,25.37h-0.08
				c-0.22,0-0.39,0.17-0.39,0.39v1.63c0,0.22,0.17,0.39,0.39,0.39h0.08c0.22,0,0.39-0.17,0.39-0.39v-1.63
				C45.64,25.54,45.47,25.37,45.25,25.37z"/>
			
				<rect x="44.78" y="19.81" fill="#FFFFFF" stroke="#1D2132" stroke-width="0.1" stroke-linecap="square" stroke-miterlimit="10" width="0.18" height="13.51"/>
			<polygon fill="#FFFFFF" stroke="#1D2132" stroke-width="0.1" stroke-linecap="square" stroke-miterlimit="10" points="
				45.3,21.77 44.95,19.81 44.95,33.33 45.3,31.38 			"/>
		</g>
	</g>
	<g>
		
			<rect x="48.37" y="61.2" fill="#FFFFFF" stroke="#1D2132" stroke-width="0.1" stroke-linecap="square" stroke-miterlimit="10" width="8.03" height="18.31"/>
		<g>
			<path fill="#FFFFFF" stroke="#1D2132" stroke-width="0.1" stroke-linecap="square" stroke-miterlimit="10" d="M53.24,70.45
				c0-0.06,0.05-0.11,0.11-0.11h0.38c0.13,0,0.2,0.11,0.28,0.22c0.1,0.15,0.23,0.33,0.49,0.37c0.18,0.03,0.34-0.03,0.44-0.16
				c0.11-0.15,0.12-0.35,0.03-0.52c-0.18-0.34-0.55-0.29-0.55-0.29c-0.06,0.01-0.12-0.03-0.13-0.1c-0.01-0.06,0.03-0.12,0.1-0.13
				c0.19-0.03,0.59,0.02,0.79,0.41c0.13,0.24,0.11,0.54-0.05,0.76c-0.15,0.2-0.4,0.3-0.66,0.25c-0.36-0.06-0.53-0.31-0.64-0.47
				c-0.03-0.05-0.07-0.11-0.1-0.12h-0.37C53.29,70.56,53.24,70.51,53.24,70.45z M53.73,70.56L53.73,70.56L53.73,70.56z"/>
			<path fill="#FFFFFF" stroke="#1D2132" stroke-width="0.1" stroke-linecap="square" stroke-miterlimit="10" d="M50.74,74.3v-7.72
				c0-0.29-0.07-0.61,0.21-0.68s0.56,0.05,0.7,0.31c0,0.01,0.01,0.01,0.01,0.02l1.67,3.53c0.01,0.03,0.02,0.06,0.02,0.09v1.19
				c0,0.03-0.01,0.06-0.02,0.09l-1.67,3.53c0,0.01-0.01,0.01-0.01,0.02c-0.14,0.26-0.42,0.38-0.7,0.31
				C50.66,74.91,50.74,74.59,50.74,74.3z M51.23,66.16c-0.06-0.1-0.15-0.08-0.18-0.07s-0.12,0.04-0.12,0.16v8.39
				c0,0.12,0.09,0.15,0.12,0.16s0.12,0.02,0.18-0.07L52.3,71v-1.1L51.23,66.16z"/>
		</g>
	</g>
	<g>
		
			<circle fill="#FFFFFF" stroke="#1D2132" stroke-width="0.1" stroke-linecap="square" stroke-miterlimit="22.9256" cx="51.89" cy="38.02" r="1.94"/>
		
			<circle fill="#FFFFFF" stroke="#1D2132" stroke-width="0.1" stroke-linecap="square" stroke-miterlimit="22.9256" cx="51.89" cy="38.02" r="0.41"/>
		<path fill="#FFFFFF" stroke="#1D2132" stroke-width="0.1" stroke-linecap="square" stroke-miterlimit="22.9256" d="M57.51,33.93
			c0.43-0.19,1.04,0.25,1.37,0.98c0.33,0.73,0.24,1.48-0.19,1.67l0,0c-0.87,0.4-1.54,0.45-2.59,0.45l-0.66-1.48
			C56.13,34.74,56.62,34.28,57.51,33.93z"/>
		<path fill="#FFFFFF" stroke="#1D2132" stroke-width="0.1" stroke-linecap="square" stroke-miterlimit="22.9256" d="M56.21,36.1
			c0.18,0.41,0.13,0.83-0.11,0.93l-0.53,0.24l-0.66-1.48l0.53-0.24C55.69,35.45,56.03,35.69,56.21,36.1z"/>
		
			<ellipse transform="matrix(0.9138 -0.4062 0.4062 0.9138 -10.0758 25.5881)" fill="#FFFFFF" stroke="#1D2132" stroke-width="0.1" stroke-linecap="square" stroke-miterlimit="22.9256" cx="55.24" cy="36.53" rx="0.47" ry="0.81"/>
		<path fill="#FFFFFF" stroke="#1D2132" stroke-width="0.1" stroke-linecap="square" stroke-miterlimit="22.9256" d="M51.76,38.06
			l0.01,0.03c0.03,0.07,0.11,0.1,0.17,0.07l2.04-0.9c0.07-0.03,0.1-0.11,0.07-0.17l-0.01-0.03c-0.03-0.07-0.11-0.1-0.17-0.07
			l-2.04,0.9C51.76,37.92,51.73,37.99,51.76,38.06z"/>
		<path fill="#FFFFFF" stroke="#1D2132" stroke-width="0.1" stroke-linecap="square" stroke-miterlimit="22.9256" d="M52.9,37.55
			l0.01,0.03c0.03,0.07,0.11,0.1,0.17,0.07l2.04-0.9c0.07-0.03,0.1-0.11,0.07-0.17l-0.01-0.03c-0.03-0.07-0.11-0.1-0.17-0.07
			l-2.04,0.9C52.9,37.41,52.87,37.49,52.9,37.55z"/>
	</g>
</g>
<g id="Doors">
	<g>
		<polygon fill="none" stroke="#1D2132" stroke-width="0.1" stroke-miterlimit="10" points="29.9,81.21 29.9,80.03 29.31,80.03 
			29.31,81.21 		"/>
		<polygon fill="none" stroke="#1D2132" stroke-width="0.1" stroke-miterlimit="10" points="44.38,81.21 44.38,80.03 44.97,80.03 
			44.97,81.21 		"/>
		<polyline fill="none" stroke="#1D2132" stroke-width="0.1" stroke-miterlimit="10" points="40.13,69.86 40.31,70.06 40.49,70.25 
			40.66,70.45 40.84,70.65 41,70.85 41.17,71.07 41.33,71.27 41.49,71.48 41.64,71.7 41.79,71.91 41.94,72.14 42.08,72.36 
			42.22,72.59 42.35,72.81 42.48,73.05 42.61,73.27 42.73,73.51 42.84,73.74 42.96,73.98 43.07,74.23 43.17,74.46 43.28,74.71 
			43.37,74.96 43.47,75.2 43.55,75.45 43.63,75.7 43.72,75.95 43.79,76.21 43.86,76.45 43.93,76.71 43.99,76.97 44.05,77.23 
			44.09,77.49 44.15,77.75 44.19,78.01 44.24,78.27 44.26,78.53 44.29,78.79 44.32,79.06 44.34,79.32 44.35,79.58 44.37,79.85 
			44.38,80.11 		"/>
		<polygon fill="none" stroke="#1D2132" stroke-width="0.1" stroke-miterlimit="10" points="30,80.05 40.13,69.86 40.49,70.25 
			30.42,80.46 		"/>
	</g>
	<g>
		<polygon fill="none" stroke="#1D2132" stroke-width="0.1" stroke-miterlimit="10" points="26.9,66.58 27.99,66.58 27.99,67.01 
			26.9,67.01 		"/>
		<polygon fill="none" stroke="#1D2132" stroke-width="0.1" stroke-miterlimit="10" points="26.9,55.9 27.99,55.9 27.99,55.46 
			26.9,55.46 		"/>
		<polyline fill="none" stroke="#1D2132" stroke-width="0.1" stroke-miterlimit="10" points="35.52,59.03 35.37,58.9 35.23,58.77 
			35.09,58.64 34.94,58.51 34.79,58.38 34.63,58.26 34.49,58.14 34.33,58.03 34.16,57.91 34.01,57.8 33.84,57.7 33.68,57.59 
			33.51,57.49 33.35,57.39 33.17,57.3 33.01,57.2 32.83,57.11 32.66,57.03 32.48,56.94 32.3,56.86 32.13,56.78 31.95,56.71 
			31.76,56.64 31.58,56.57 31.4,56.51 31.21,56.44 31.03,56.38 30.84,56.33 30.66,56.28 30.47,56.23 30.27,56.18 30.08,56.14 
			29.89,56.11 29.7,56.06 29.51,56.04 29.32,56 29.13,55.98 28.94,55.96 28.74,55.94 28.54,55.92 28.35,55.91 28.15,55.91 
			27.96,55.9 		"/>
		<polygon fill="none" stroke="#1D2132" stroke-width="0.1" stroke-miterlimit="10" points="28,66.5 35.52,59.03 35.23,58.77 
			27.7,66.2 		"/>
	</g>
	<g>
		<polygon fill="none" stroke="#1D2132" stroke-width="0.1" stroke-miterlimit="10" points="41.02,46.64 41.02,45.56 41.5,45.56 
			41.5,46.64 		"/>
		<polygon fill="none" stroke="#1D2132" stroke-width="0.1" stroke-miterlimit="10" points="29.09,46.64 29.09,45.55 28.6,45.55 
			28.6,46.64 		"/>
		<polyline fill="none" stroke="#1D2132" stroke-width="0.1" stroke-miterlimit="10" points="32.59,37 32.44,37.17 32.29,37.33 
			32.15,37.49 32,37.66 31.87,37.82 31.73,38 31.59,38.16 31.47,38.34 31.34,38.52 31.22,38.7 31.1,38.88 30.98,39.06 30.87,39.25 
			30.76,39.43 30.65,39.63 30.54,39.81 30.45,40.01 30.35,40.2 30.25,40.4 30.17,40.6 30.08,40.79 29.99,41 29.91,41.2 29.84,41.41 
			29.77,41.61 29.7,41.81 29.63,42.02 29.57,42.23 29.52,42.44 29.46,42.65 29.41,42.86 29.36,43.08 29.32,43.29 29.27,43.5 
			29.24,43.72 29.2,43.93 29.18,44.15 29.16,44.36 29.14,44.58 29.12,44.8 29.11,45.01 29.1,45.23 29.09,45.45 		"/>
		<polygon fill="none" stroke="#1D2132" stroke-width="0.1" stroke-miterlimit="10" points="40.93,45.4 32.59,37 32.29,37.33 
			40.59,45.74 		"/>
	</g>
</g>
<g id="Windows">
	<polyline fill="none" stroke="#1D2132" stroke-width="0.1" stroke-miterlimit="10" points="54.55,3.16 54.55,2.2 77.65,2.2 
		77.65,3.16 54.55,3.16 	"/>
	<polyline fill="none" stroke="#1D2132" stroke-width="0.1" stroke-miterlimit="10" points="79,4.37 79,2.2 53.19,2.2 53.19,4.37 
		79,4.37 	"/>
	<polyline fill="none" stroke="#1D2132" stroke-width="0.1" stroke-miterlimit="10" points="79.24,3.16 79.63,3.16 79.63,2.2 
		79.24,2.2 79.24,3.16 79.24,2.2 77.65,2.2 77.65,3.16 79.24,3.16 	"/>
	<polyline fill="none" stroke="#1D2132" stroke-width="0.1" stroke-miterlimit="10" points="54.55,3.16 54.55,2.2 52.63,2.2 
		52.63,3.16 54.55,3.16 	"/>
	<polyline fill="none" stroke="#1D2132" stroke-width="0.1" stroke-miterlimit="10" points="53.86,2.2 53.86,0.03 78.32,0.03 
		78.32,2.2 53.86,2.2 	"/>
	<polyline fill="none" stroke="#1D2132" stroke-width="0.1" stroke-miterlimit="10" points="9.31,3.16 9.31,2.2 32.4,2.2 32.4,3.16 
		9.31,3.16 	"/>
	<polyline fill="none" stroke="#1D2132" stroke-width="0.1" stroke-miterlimit="10" points="33.77,4.37 33.77,2.2 7.94,2.2 
		7.94,4.37 33.77,4.37 	"/>
	<polyline fill="none" stroke="#1D2132" stroke-width="0.1" stroke-miterlimit="10" points="34.17,3.16 34.63,3.16 34.63,2.2 
		34.17,2.2 34.17,3.16 34.17,2.2 32.4,2.2 32.4,3.16 34.17,3.16 	"/>
	<polyline fill="none" stroke="#1D2132" stroke-width="0.1" stroke-miterlimit="10" points="9.31,3.16 9.31,2.2 7.63,2.2 7.63,3.16 
		9.31,3.16 	"/>
	<polyline fill="none" stroke="#1D2132" stroke-width="0.1" stroke-miterlimit="10" points="8.62,2.2 8.62,0.03 33.08,0.03 
		33.08,2.2 8.62,2.2 	"/>
</g>
<g id="Text">
	
		<text id="TXT--" transform="matrix(1 0 0 1 66.7825 42.2181)" opacity="0.7" fill="#1D2132" enable-background="new    " font-family="'Cannonade-Medium'" font-size="3px">16,35</text>
	
		<text id="TXT---" transform="matrix(1 0 0 1 31.7401 27.0063)" opacity="0.7" fill="#1D2132" enable-background="new    " font-family="'Cannonade-Medium'" font-size="3px">10,30</text>
	
		<text id="TXT--" transform="matrix(1 0 0 1 40.13 56.9965)" opacity="0.7" fill="#1D2132" enable-background="new    " font-family="'Cannonade-Medium'" font-size="3px">4,43</text>
	
		<text id="TXT--" transform="matrix(1 0 0 1 15.76 64.0496)" opacity="0.7" fill="#1D2132" enable-background="new    " font-family="'Cannonade-Medium'" font-size="3px">4,06</text>
</g>
<g id="Walls">
	<polyline fill="#1D2132" stroke="#1D2132" stroke-width="0.1" stroke-miterlimit="10" points="94,2.2 91.83,2.2 91.83,81.68 
		94,81.68 94,2.2 	"/>
	<polyline fill="#1D2132" stroke="#1D2132" stroke-width="0.1" stroke-miterlimit="10" points="2.17,2.2 0,2.2 0,81.68 2.17,81.68 
		2.17,2.2 	"/>
	<line fill="none" stroke="#1D2132" stroke-width="0.1" stroke-miterlimit="10" x1="94" y1="2.2" x2="94" y2="2.2"/>
	<polyline fill="#1D2132" stroke="#1D2132" stroke-width="0.1" stroke-miterlimit="10" points="91.83,2.2 79,2.2 79,4.37 
		91.83,4.37 91.83,2.2 	"/>
	<polyline fill="#1D2132" stroke="#1D2132" stroke-width="0.1" stroke-miterlimit="10" points="53.19,2.2 33.77,2.2 33.77,4.37 
		53.19,4.37 53.19,2.2 	"/>
	<polyline fill="#1D2132" stroke="#1D2132" stroke-width="0.1" stroke-miterlimit="10" points="7.94,2.2 2.17,2.2 2.17,4.37 
		7.94,4.37 7.94,2.2 	"/>
	<polyline fill="#1D2132" stroke="#1D2132" stroke-width="0.1" stroke-miterlimit="10" points="0,4.37 0,4.37 0,2.2 	"/>
	<line fill="none" stroke="#1D2132" stroke-width="0.1" stroke-miterlimit="10" x1="0" y1="2.2" x2="0" y2="2.2"/>
	<rect y="0.16" fill="#1D2132" stroke="#1D2132" stroke-width="0.1" stroke-miterlimit="10" width="8.62" height="2.04"/>
	<polyline fill="#1D2132" stroke="#1D2132" stroke-width="0.1" stroke-miterlimit="10" points="33.08,2.2 53.86,2.2 53.86,0.16 
		33.08,0.16 33.08,2.2 	"/>
	<polyline fill="#1D2132" stroke="#1D2132" stroke-width="0.1" stroke-miterlimit="10" points="78.32,2.2 78.32,0.16 94,0.16 
		94,2.2 78.32,2.2 	"/>
	<polyline fill="#1D2132" stroke="#1D2132" stroke-width="0.1" stroke-miterlimit="10" points="2.17,81.68 29.35,81.68 29.35,79.51 
		2.17,79.51 2.17,81.68 	"/>
	<polyline fill="#1D2132" stroke="#1D2132" stroke-width="0.1" stroke-miterlimit="10" points="44.97,79.51 44.97,81.68 
		91.83,81.68 91.83,79.51 44.97,79.51 	"/>
	<polyline fill="#1D2132" stroke="#1D2132" stroke-width="0.1" stroke-miterlimit="10" points="48.37,60.22 57.61,60.22 
		57.61,79.51 56.52,79.51 56.52,61.3 48.37,61.3 48.37,60.22 	"/>
	<polyline fill="#1D2132" stroke="#1D2132" stroke-width="0.1" stroke-miterlimit="10" points="49.46,46.64 48.37,46.64 48.37,4.37 
		49.46,4.37 49.46,46.64 48.37,46.64 	"/>
	<polyline fill="#1D2132" stroke="#1D2132" stroke-width="0.1" stroke-miterlimit="10" points="27.99,46.64 27.99,45.55 2.17,45.55 
		2.17,46.64 26.9,46.64 26.9,55.46 27.99,55.46 27.99,46.64 27.99,46.64 	"/>
	<polyline fill="#1D2132" stroke="#1D2132" stroke-width="0.1" stroke-miterlimit="10" points="26.9,79.51 26.9,67.01 27.99,67.01 
		27.99,79.51 26.9,79.51 	"/>
	<polyline fill="#1D2132" stroke="#1D2132" stroke-width="0.1" stroke-miterlimit="10" points="49.44,46.64 41.5,46.64 41.5,45.54 
		49.44,45.54 49.44,46.64 	"/>
	<polyline fill="#1D2132" stroke="#1D2132" stroke-width="0.1" stroke-miterlimit="10" points="28.44,46.64 21.62,46.64 
		21.62,45.54 28.44,45.54 28.44,46.64 	"/>
</g>
<g id="Details">
	<g>
		
			<path fill="none" stroke="#1D2132" stroke-width="0.1" stroke-linecap="round" stroke-linejoin="round" stroke-miterlimit="10" d="
			M54.25,78.15c0-0.51,0.41-0.93,0.93-0.93c0.51,0,0.93,0.41,0.93,0.93c0,0.51-0.41,0.93-0.93,0.93S54.25,78.66,54.25,78.15"/>
		
			<path fill="none" stroke="#1D2132" stroke-width="0.1" stroke-linecap="round" stroke-linejoin="round" stroke-miterlimit="10" d="
			M54.42,78.15c0-0.41,0.33-0.75,0.75-0.75c0.41,0,0.75,0.34,0.75,0.75s-0.34,0.75-0.75,0.75S54.42,78.56,54.42,78.15"/>
		
			<path fill="none" stroke="#1D2132" stroke-width="0.1" stroke-linecap="round" stroke-linejoin="round" stroke-miterlimit="10" d="
			M54.47,78.15c0-0.39,0.32-0.7,0.7-0.7s0.7,0.32,0.7,0.7s-0.32,0.7-0.7,0.7S54.47,78.54,54.47,78.15"/>
		
			<line fill="none" stroke="#1D2132" stroke-width="0.1" stroke-linecap="round" stroke-linejoin="round" stroke-miterlimit="10" x1="55.17" y1="79.12" x2="55.17" y2="78.8"/>
		<polygon fill="#1D2132" points="55.17,78.65 55.21,78.67 55.24,78.69 55.27,78.73 55.27,78.78 55.24,78.82 55.21,78.84 
			55.17,78.85 55.12,78.84 55.09,78.82 55.07,78.78 55.07,78.73 55.09,78.69 55.12,78.67 		"/>
		
			<polygon fill="none" stroke="#1D2132" stroke-width="0.1" stroke-linecap="round" stroke-linejoin="round" stroke-miterlimit="10" points="
			55.17,78.65 55.21,78.67 55.24,78.69 55.27,78.73 55.27,78.78 55.24,78.82 55.21,78.84 55.17,78.85 55.12,78.84 55.09,78.82 
			55.07,78.78 55.07,78.73 55.09,78.69 55.12,78.67 		"/>
		
			<line fill="none" stroke="#1D2132" stroke-width="0.1" stroke-linecap="round" stroke-linejoin="round" stroke-miterlimit="10" x1="55.17" y1="78.71" x2="55.17" y2="78.39"/>
		<polygon fill="#1D2132" points="55.17,78.24 55.21,78.26 55.24,78.28 55.27,78.32 55.27,78.37 55.24,78.41 55.21,78.43 
			55.17,78.44 55.12,78.43 55.09,78.41 55.07,78.37 55.07,78.32 55.09,78.28 55.12,78.26 		"/>
		
			<polygon fill="none" stroke="#1D2132" stroke-width="0.1" stroke-linecap="round" stroke-linejoin="round" stroke-miterlimit="10" points="
			55.17,78.24 55.21,78.26 55.24,78.28 55.27,78.32 55.27,78.37 55.24,78.41 55.21,78.43 55.17,78.44 55.12,78.43 55.09,78.41 
			55.07,78.37 55.07,78.32 55.09,78.28 55.12,78.26 		"/>
		
			<line fill="none" stroke="#1D2132" stroke-width="0.1" stroke-linecap="round" stroke-linejoin="round" stroke-miterlimit="10" x1="55.17" y1="78.3" x2="55.17" y2="77.98"/>
		<polygon fill="#1D2132" points="55.17,77.83 55.21,77.85 55.24,77.87 55.27,77.91 55.27,77.96 55.24,78 55.21,78.02 55.17,78.03 
			55.12,78.02 55.09,78 55.07,77.96 55.07,77.91 55.09,77.87 55.12,77.85 		"/>
		
			<polygon fill="none" stroke="#1D2132" stroke-width="0.1" stroke-linecap="round" stroke-linejoin="round" stroke-miterlimit="10" points="
			55.17,77.83 55.21,77.85 55.24,77.87 55.27,77.91 55.27,77.96 55.24,78 55.21,78.02 55.17,78.03 55.12,78.02 55.09,78 
			55.07,77.96 55.07,77.91 55.09,77.87 55.12,77.85 		"/>
		
			<line fill="none" stroke="#1D2132" stroke-width="0.1" stroke-linecap="round" stroke-linejoin="round" stroke-miterlimit="10" x1="55.17" y1="77.9" x2="55.17" y2="77.57"/>
		<polygon fill="#1D2132" points="55.17,77.43 55.21,77.45 55.24,77.47 55.27,77.51 55.27,77.56 55.24,77.6 55.21,77.62 
			55.17,77.63 55.12,77.62 55.09,77.6 55.07,77.56 55.07,77.51 55.09,77.47 55.12,77.45 		"/>
		
			<polygon fill="none" stroke="#1D2132" stroke-width="0.1" stroke-linecap="round" stroke-linejoin="round" stroke-miterlimit="10" points="
			55.17,77.43 55.21,77.45 55.24,77.47 55.27,77.51 55.27,77.56 55.24,77.6 55.21,77.62 55.17,77.63 55.12,77.62 55.09,77.6 
			55.07,77.56 55.07,77.51 55.09,77.47 55.12,77.45 		"/>
		
			<line fill="none" stroke="#1D2132" stroke-width="0.1" stroke-linecap="round" stroke-linejoin="round" stroke-miterlimit="10" x1="55.17" y1="77.49" x2="55.17" y2="77.16"/>
		<polygon fill="#1D2132" points="55.17,77.02 55.21,77.04 55.24,77.06 55.27,77.1 55.27,77.15 55.24,77.19 55.21,77.21 
			55.17,77.22 55.12,77.21 55.09,77.19 55.07,77.15 55.07,77.1 55.09,77.06 55.12,77.04 		"/>
		
			<polygon fill="none" stroke="#1D2132" stroke-width="0.1" stroke-linecap="round" stroke-linejoin="round" stroke-miterlimit="10" points="
			55.17,77.02 55.21,77.04 55.24,77.06 55.27,77.1 55.27,77.15 55.24,77.19 55.21,77.21 55.17,77.22 55.12,77.21 55.09,77.19 
			55.07,77.15 55.07,77.1 55.09,77.06 55.12,77.04 		"/>
		
			<line fill="none" stroke="#1D2132" stroke-width="0.1" stroke-linecap="round" stroke-linejoin="round" stroke-miterlimit="10" x1="55.17" y1="77.08" x2="55.17" y2="76.85"/>
		<polygon fill="#1D2132" points="55.78,78.06 55.82,78.07 55.85,78.09 55.88,78.13 55.88,78.18 55.85,78.22 55.82,78.24 
			55.78,78.26 55.73,78.24 55.7,78.22 55.68,78.18 55.68,78.13 55.7,78.09 55.73,78.07 		"/>
		
			<polygon fill="none" stroke="#1D2132" stroke-width="0.1" stroke-linecap="round" stroke-linejoin="round" stroke-miterlimit="10" points="
			55.78,78.06 55.82,78.07 55.85,78.09 55.88,78.13 55.88,78.18 55.85,78.22 55.82,78.24 55.78,78.26 55.73,78.24 55.7,78.22 
			55.68,78.18 55.68,78.13 55.7,78.09 55.73,78.07 		"/>
		
			<line fill="none" stroke="#1D2132" stroke-width="0.1" stroke-linecap="round" stroke-linejoin="round" stroke-miterlimit="10" x1="55.73" y1="78.16" x2="55.41" y2="78.16"/>
		<polygon fill="#1D2132" points="55.37,78.06 55.41,78.07 55.44,78.09 55.47,78.13 55.47,78.18 55.44,78.22 55.41,78.24 
			55.37,78.26 55.32,78.24 55.29,78.22 55.27,78.18 55.27,78.13 55.29,78.09 55.32,78.07 		"/>
		
			<polygon fill="none" stroke="#1D2132" stroke-width="0.1" stroke-linecap="round" stroke-linejoin="round" stroke-miterlimit="10" points="
			55.37,78.06 55.41,78.07 55.44,78.09 55.47,78.13 55.47,78.18 55.44,78.22 55.41,78.24 55.37,78.26 55.32,78.24 55.29,78.22 
			55.27,78.18 55.27,78.13 55.29,78.09 55.32,78.07 		"/>
		
			<line fill="none" stroke="#1D2132" stroke-width="0.1" stroke-linecap="round" stroke-linejoin="round" stroke-miterlimit="10" x1="55.32" y1="78.16" x2="55" y2="78.16"/>
		<polygon fill="#1D2132" points="54.96,78.06 55,78.07 55.03,78.09 55.06,78.13 55.06,78.18 55.03,78.22 55,78.24 54.96,78.26 
			54.91,78.24 54.88,78.22 54.86,78.18 54.86,78.13 54.88,78.09 54.91,78.07 		"/>
		
			<polygon fill="none" stroke="#1D2132" stroke-width="0.1" stroke-linecap="round" stroke-linejoin="round" stroke-miterlimit="10" points="
			54.96,78.06 55,78.07 55.03,78.09 55.06,78.13 55.06,78.18 55.03,78.22 55,78.24 54.96,78.26 54.91,78.24 54.88,78.22 
			54.86,78.18 54.86,78.13 54.88,78.09 54.91,78.07 		"/>
		
			<line fill="none" stroke="#1D2132" stroke-width="0.1" stroke-linecap="round" stroke-linejoin="round" stroke-miterlimit="10" x1="54.92" y1="78.16" x2="54.59" y2="78.16"/>
		<polygon fill="#1D2132" points="54.55,78.06 54.59,78.07 54.62,78.09 54.65,78.13 54.65,78.18 54.62,78.22 54.59,78.24 
			54.55,78.26 54.5,78.24 54.47,78.22 54.45,78.18 54.45,78.13 54.47,78.09 54.5,78.07 		"/>
		
			<polygon fill="none" stroke="#1D2132" stroke-width="0.1" stroke-linecap="round" stroke-linejoin="round" stroke-miterlimit="10" points="
			54.55,78.06 54.59,78.07 54.62,78.09 54.65,78.13 54.65,78.18 54.62,78.22 54.59,78.24 54.55,78.26 54.5,78.24 54.47,78.22 
			54.45,78.18 54.45,78.13 54.47,78.09 54.5,78.07 		"/>
		
			<line fill="none" stroke="#1D2132" stroke-width="0.1" stroke-linecap="round" stroke-linejoin="round" stroke-miterlimit="10" x1="54.51" y1="78.16" x2="54.18" y2="78.16"/>
		<polygon fill="#1D2132" points="54.15,78.06 54.19,78.07 54.22,78.09 54.25,78.13 54.25,78.18 54.22,78.22 54.19,78.24 
			54.15,78.26 54.1,78.24 54.07,78.22 54.05,78.18 54.05,78.13 54.07,78.09 54.1,78.07 		"/>
		
			<polygon fill="none" stroke="#1D2132" stroke-width="0.1" stroke-linecap="round" stroke-linejoin="round" stroke-miterlimit="10" points="
			54.15,78.06 54.19,78.07 54.22,78.09 54.25,78.13 54.25,78.18 54.22,78.22 54.19,78.24 54.15,78.26 54.1,78.24 54.07,78.22 
			54.05,78.18 54.05,78.13 54.07,78.09 54.1,78.07 		"/>
		
			<line fill="none" stroke="#1D2132" stroke-width="0.1" stroke-linecap="round" stroke-linejoin="round" stroke-miterlimit="10" x1="54.1" y1="78.16" x2="53.87" y2="78.16"/>
		
			<polyline fill="none" stroke="#1D2132" stroke-width="0.1" stroke-linecap="round" stroke-linejoin="round" stroke-miterlimit="10" points="
			56.52,79.51 56.52,76.79 53.8,76.79 53.8,79.51 56.52,79.51 		"/>
		
			<path fill="none" stroke="#1D2132" stroke-width="0.1" stroke-linecap="round" stroke-linejoin="round" stroke-miterlimit="10" d="
			M54.2,78.15c0-0.54,0.43-0.97,0.97-0.97s0.97,0.43,0.97,0.97s-0.43,0.97-0.97,0.97C54.64,79.12,54.2,78.69,54.2,78.15"/>
		
			<line fill="none" stroke="#1D2132" stroke-width="0.1" stroke-linecap="round" stroke-linejoin="round" stroke-miterlimit="10" x1="55.17" y1="79.43" x2="55.17" y2="79.2"/>
		<polygon fill="#1D2132" points="55.17,79.06 55.21,79.08 55.24,79.1 55.27,79.14 55.27,79.19 55.24,79.23 55.21,79.25 
			55.17,79.26 55.12,79.25 55.09,79.23 55.07,79.19 55.07,79.14 55.09,79.1 55.12,79.08 		"/>
		
			<polygon fill="none" stroke="#1D2132" stroke-width="0.1" stroke-linecap="round" stroke-linejoin="round" stroke-miterlimit="10" points="
			55.17,79.06 55.21,79.08 55.24,79.1 55.27,79.14 55.27,79.19 55.24,79.23 55.21,79.25 55.17,79.26 55.12,79.25 55.09,79.23 
			55.07,79.19 55.07,79.14 55.09,79.1 55.12,79.08 		"/>
		
			<line fill="none" stroke="#1D2132" stroke-width="0.1" stroke-linecap="round" stroke-linejoin="round" stroke-miterlimit="10" x1="56.45" y1="78.16" x2="56.22" y2="78.16"/>
		<polygon fill="#1D2132" points="56.18,78.06 56.22,78.07 56.25,78.09 56.27,78.13 56.27,78.18 56.25,78.22 56.22,78.24 
			56.18,78.26 56.13,78.24 56.1,78.22 56.08,78.18 56.08,78.13 56.1,78.09 56.13,78.07 		"/>
		
			<polygon fill="none" stroke="#1D2132" stroke-width="0.1" stroke-linecap="round" stroke-linejoin="round" stroke-miterlimit="10" points="
			56.18,78.06 56.22,78.07 56.25,78.09 56.27,78.13 56.27,78.18 56.25,78.22 56.22,78.24 56.18,78.26 56.13,78.24 56.1,78.22 
			56.08,78.18 56.08,78.13 56.1,78.09 56.13,78.07 		"/>
		
			<line fill="none" stroke="#1D2132" stroke-width="0.1" stroke-linecap="round" stroke-linejoin="round" stroke-miterlimit="10" x1="56.14" y1="78.16" x2="55.81" y2="78.16"/>
	</g>
	<g>
		
			<path fill="none" stroke="#1D2132" stroke-width="0.1" stroke-linecap="round" stroke-linejoin="round" stroke-miterlimit="10" d="
			M4.57,78.24c0,0.51-0.41,0.93-0.93,0.93c-0.51,0-0.93-0.41-0.93-0.93c0-0.51,0.41-0.93,0.93-0.93
			C4.15,77.32,4.57,77.73,4.57,78.24"/>
		
			<path fill="none" stroke="#1D2132" stroke-width="0.1" stroke-linecap="round" stroke-linejoin="round" stroke-miterlimit="10" d="
			M4.39,78.24c0,0.41-0.34,0.75-0.75,0.75s-0.75-0.33-0.75-0.75c0-0.41,0.33-0.75,0.75-0.75S4.39,77.83,4.39,78.24"/>
		
			<path fill="none" stroke="#1D2132" stroke-width="0.1" stroke-linecap="round" stroke-linejoin="round" stroke-miterlimit="10" d="
			M4.35,78.24c0,0.39-0.32,0.7-0.7,0.7s-0.7-0.32-0.7-0.7c0-0.39,0.32-0.7,0.7-0.7S4.35,77.86,4.35,78.24"/>
		
			<line fill="none" stroke="#1D2132" stroke-width="0.1" stroke-linecap="round" stroke-linejoin="round" stroke-miterlimit="10" x1="3.64" y1="79.52" x2="3.64" y2="79.29"/>
		<polygon fill="#1D2132" points="3.64,79.16 3.68,79.17 3.71,79.19 3.74,79.24 3.74,79.28 3.71,79.33 3.68,79.35 3.64,79.36 
			3.59,79.35 3.56,79.33 3.54,79.28 3.54,79.24 3.56,79.19 3.59,79.17 		"/>
		
			<polygon fill="none" stroke="#1D2132" stroke-width="0.1" stroke-linecap="round" stroke-linejoin="round" stroke-miterlimit="10" points="
			3.64,79.16 3.68,79.17 3.71,79.19 3.74,79.24 3.74,79.28 3.71,79.33 3.68,79.35 3.64,79.36 3.59,79.35 3.56,79.33 3.54,79.28 
			3.54,79.24 3.56,79.19 3.59,79.17 		"/>
		
			<line fill="none" stroke="#1D2132" stroke-width="0.1" stroke-linecap="round" stroke-linejoin="round" stroke-miterlimit="10" x1="3.64" y1="79.21" x2="3.64" y2="78.89"/>
		<polygon fill="#1D2132" points="3.64,78.75 3.68,78.76 3.71,78.78 3.74,78.83 3.74,78.87 3.71,78.91 3.68,78.94 3.64,78.95 
			3.59,78.94 3.56,78.91 3.54,78.87 3.54,78.83 3.56,78.78 3.59,78.76 		"/>
		
			<polygon fill="none" stroke="#1D2132" stroke-width="0.1" stroke-linecap="round" stroke-linejoin="round" stroke-miterlimit="10" points="
			3.64,78.75 3.68,78.76 3.71,78.78 3.74,78.83 3.74,78.87 3.71,78.91 3.68,78.94 3.64,78.95 3.59,78.94 3.56,78.91 3.54,78.87 
			3.54,78.83 3.56,78.78 3.59,78.76 		"/>
		
			<line fill="none" stroke="#1D2132" stroke-width="0.1" stroke-linecap="round" stroke-linejoin="round" stroke-miterlimit="10" x1="3.64" y1="78.8" x2="3.64" y2="78.48"/>
		<polygon fill="#1D2132" points="3.64,78.34 3.68,78.35 3.71,78.37 3.74,78.42 3.74,78.46 3.71,78.5 3.68,78.53 3.64,78.54 
			3.59,78.53 3.56,78.5 3.54,78.46 3.54,78.42 3.56,78.37 3.59,78.35 		"/>
		
			<polygon fill="none" stroke="#1D2132" stroke-width="0.1" stroke-linecap="round" stroke-linejoin="round" stroke-miterlimit="10" points="
			3.64,78.34 3.68,78.35 3.71,78.37 3.74,78.42 3.74,78.46 3.71,78.5 3.68,78.53 3.64,78.54 3.59,78.53 3.56,78.5 3.54,78.46 
			3.54,78.42 3.56,78.37 3.59,78.35 		"/>
		
			<line fill="none" stroke="#1D2132" stroke-width="0.1" stroke-linecap="round" stroke-linejoin="round" stroke-miterlimit="10" x1="3.64" y1="78.39" x2="3.64" y2="78.07"/>
		<polygon fill="#1D2132" points="3.64,77.93 3.68,77.94 3.71,77.96 3.74,78.01 3.74,78.05 3.71,78.09 3.68,78.12 3.64,78.13 
			3.59,78.12 3.56,78.09 3.54,78.05 3.54,78.01 3.56,77.96 3.59,77.94 		"/>
		
			<polygon fill="none" stroke="#1D2132" stroke-width="0.1" stroke-linecap="round" stroke-linejoin="round" stroke-miterlimit="10" points="
			3.64,77.93 3.68,77.94 3.71,77.96 3.74,78.01 3.74,78.05 3.71,78.09 3.68,78.12 3.64,78.13 3.59,78.12 3.56,78.09 3.54,78.05 
			3.54,78.01 3.56,77.96 3.59,77.94 		"/>
		
			<line fill="none" stroke="#1D2132" stroke-width="0.1" stroke-linecap="round" stroke-linejoin="round" stroke-miterlimit="10" x1="3.64" y1="77.99" x2="3.64" y2="77.66"/>
		<polygon fill="#1D2132" points="3.64,77.53 3.68,77.54 3.71,77.56 3.74,77.61 3.74,77.65 3.71,77.7 3.68,77.72 3.64,77.73 
			3.59,77.72 3.56,77.7 3.54,77.65 3.54,77.61 3.56,77.56 3.59,77.54 		"/>
		
			<polygon fill="none" stroke="#1D2132" stroke-width="0.1" stroke-linecap="round" stroke-linejoin="round" stroke-miterlimit="10" points="
			3.64,77.53 3.68,77.54 3.71,77.56 3.74,77.61 3.74,77.65 3.71,77.7 3.68,77.72 3.64,77.73 3.59,77.72 3.56,77.7 3.54,77.65 
			3.54,77.61 3.56,77.56 3.59,77.54 		"/>
		
			<line fill="none" stroke="#1D2132" stroke-width="0.1" stroke-linecap="round" stroke-linejoin="round" stroke-miterlimit="10" x1="3.64" y1="77.58" x2="3.64" y2="77.25"/>
		<polygon fill="#1D2132" points="3.64,77.12 3.68,77.13 3.71,77.15 3.74,77.2 3.74,77.24 3.71,77.29 3.68,77.31 3.64,77.32 
			3.59,77.31 3.56,77.29 3.54,77.24 3.54,77.2 3.56,77.15 3.59,77.13 		"/>
		
			<polygon fill="none" stroke="#1D2132" stroke-width="0.1" stroke-linecap="round" stroke-linejoin="round" stroke-miterlimit="10" points="
			3.64,77.12 3.68,77.13 3.71,77.15 3.74,77.2 3.74,77.24 3.71,77.29 3.68,77.31 3.64,77.32 3.59,77.31 3.56,77.29 3.54,77.24 
			3.54,77.2 3.56,77.15 3.59,77.13 		"/>
		
			<line fill="none" stroke="#1D2132" stroke-width="0.1" stroke-linecap="round" stroke-linejoin="round" stroke-miterlimit="10" x1="3.64" y1="77.17" x2="3.64" y2="76.94"/>
		
			<line fill="none" stroke="#1D2132" stroke-width="0.1" stroke-linecap="round" stroke-linejoin="round" stroke-miterlimit="10" x1="2.34" y1="78.25" x2="2.57" y2="78.25"/>
		<polygon fill="#1D2132" points="2.62,78.15 2.66,78.16 2.69,78.18 2.72,78.23 2.72,78.27 2.69,78.32 2.66,78.34 2.62,78.35 
			2.57,78.34 2.54,78.32 2.52,78.27 2.52,78.23 2.54,78.18 2.57,78.16 		"/>
		
			<polygon fill="none" stroke="#1D2132" stroke-width="0.1" stroke-linecap="round" stroke-linejoin="round" stroke-miterlimit="10" points="
			2.62,78.15 2.66,78.16 2.69,78.18 2.72,78.23 2.72,78.27 2.69,78.32 2.66,78.34 2.62,78.35 2.57,78.34 2.54,78.32 2.52,78.27 
			2.52,78.23 2.54,78.18 2.57,78.16 		"/>
		
			<line fill="none" stroke="#1D2132" stroke-width="0.1" stroke-linecap="round" stroke-linejoin="round" stroke-miterlimit="10" x1="2.65" y1="78.25" x2="2.98" y2="78.25"/>
		<polygon fill="#1D2132" points="3.02,78.15 3.06,78.16 3.09,78.18 3.12,78.23 3.12,78.27 3.09,78.32 3.06,78.34 3.02,78.35 
			2.97,78.34 2.94,78.32 2.92,78.27 2.92,78.23 2.94,78.18 2.97,78.16 		"/>
		
			<polygon fill="none" stroke="#1D2132" stroke-width="0.1" stroke-linecap="round" stroke-linejoin="round" stroke-miterlimit="10" points="
			3.02,78.15 3.06,78.16 3.09,78.18 3.12,78.23 3.12,78.27 3.09,78.32 3.06,78.34 3.02,78.35 2.97,78.34 2.94,78.32 2.92,78.27 
			2.92,78.23 2.94,78.18 2.97,78.16 		"/>
		
			<line fill="none" stroke="#1D2132" stroke-width="0.1" stroke-linecap="round" stroke-linejoin="round" stroke-miterlimit="10" x1="3.06" y1="78.25" x2="3.39" y2="78.25"/>
		<polygon fill="#1D2132" points="3.43,78.15 3.47,78.16 3.5,78.18 3.53,78.23 3.53,78.27 3.5,78.32 3.47,78.34 3.43,78.35 
			3.38,78.34 3.35,78.32 3.33,78.27 3.33,78.23 3.35,78.18 3.38,78.16 		"/>
		
			<polygon fill="none" stroke="#1D2132" stroke-width="0.1" stroke-linecap="round" stroke-linejoin="round" stroke-miterlimit="10" points="
			3.43,78.15 3.47,78.16 3.5,78.18 3.53,78.23 3.53,78.27 3.5,78.32 3.47,78.34 3.43,78.35 3.38,78.34 3.35,78.32 3.33,78.27 
			3.33,78.23 3.35,78.18 3.38,78.16 		"/>
		
			<line fill="none" stroke="#1D2132" stroke-width="0.1" stroke-linecap="round" stroke-linejoin="round" stroke-miterlimit="10" x1="3.47" y1="78.25" x2="3.79" y2="78.25"/>
		<polygon fill="#1D2132" points="3.84,78.15 3.88,78.16 3.91,78.18 3.94,78.23 3.94,78.27 3.91,78.32 3.88,78.34 3.84,78.35 
			3.79,78.34 3.76,78.32 3.74,78.27 3.74,78.23 3.76,78.18 3.79,78.16 		"/>
		
			<polygon fill="none" stroke="#1D2132" stroke-width="0.1" stroke-linecap="round" stroke-linejoin="round" stroke-miterlimit="10" points="
			3.84,78.15 3.88,78.16 3.91,78.18 3.94,78.23 3.94,78.27 3.91,78.32 3.88,78.34 3.84,78.35 3.79,78.34 3.76,78.32 3.74,78.27 
			3.74,78.23 3.76,78.18 3.79,78.16 		"/>
		
			<line fill="none" stroke="#1D2132" stroke-width="0.1" stroke-linecap="round" stroke-linejoin="round" stroke-miterlimit="10" x1="3.88" y1="78.25" x2="4.2" y2="78.25"/>
		<polygon fill="#1D2132" points="4.25,78.15 4.29,78.16 4.32,78.18 4.35,78.23 4.35,78.27 4.32,78.32 4.29,78.34 4.25,78.35 
			4.2,78.34 4.17,78.32 4.15,78.27 4.15,78.23 4.17,78.18 4.2,78.16 		"/>
		
			<polygon fill="none" stroke="#1D2132" stroke-width="0.1" stroke-linecap="round" stroke-linejoin="round" stroke-miterlimit="10" points="
			4.25,78.15 4.29,78.16 4.32,78.18 4.35,78.23 4.35,78.27 4.32,78.32 4.29,78.34 4.25,78.35 4.2,78.34 4.17,78.32 4.15,78.27 
			4.15,78.23 4.17,78.18 4.2,78.16 		"/>
		
			<line fill="none" stroke="#1D2132" stroke-width="0.1" stroke-linecap="round" stroke-linejoin="round" stroke-miterlimit="10" x1="4.28" y1="78.25" x2="4.61" y2="78.25"/>
		<polygon fill="#1D2132" points="4.66,78.15 4.7,78.16 4.73,78.18 4.76,78.23 4.76,78.27 4.73,78.32 4.7,78.34 4.66,78.35 
			4.61,78.34 4.58,78.32 4.56,78.27 4.56,78.23 4.58,78.18 4.61,78.16 		"/>
		
			<polygon fill="none" stroke="#1D2132" stroke-width="0.1" stroke-linecap="round" stroke-linejoin="round" stroke-miterlimit="10" points="
			4.66,78.15 4.7,78.16 4.73,78.18 4.76,78.23 4.76,78.27 4.73,78.32 4.7,78.34 4.66,78.35 4.61,78.34 4.58,78.32 4.56,78.27 
			4.56,78.23 4.58,78.18 4.61,78.16 		"/>
		
			<line fill="none" stroke="#1D2132" stroke-width="0.1" stroke-linecap="round" stroke-linejoin="round" stroke-miterlimit="10" x1="4.69" y1="78.25" x2="4.92" y2="78.25"/>
		
			<polyline fill="none" stroke="#1D2132" stroke-width="0.1" stroke-linecap="round" stroke-linejoin="round" stroke-miterlimit="10" points="
			2.27,79.6 2.27,76.89 4.99,76.89 4.99,79.6 2.27,79.6 		"/>
		
			<path fill="none" stroke="#1D2132" stroke-width="0.1" stroke-linecap="round" stroke-linejoin="round" stroke-miterlimit="10" d="
			M4.61,78.24c0,0.54-0.43,0.97-0.97,0.97s-0.97-0.43-0.97-0.97s0.43-0.97,0.97-0.97S4.61,77.71,4.61,78.24"/>
	</g>
	<g>
		
			<rect x="21.37" y="69.5" fill="#FFFFFF" stroke="#1D2132" stroke-width="0.5" stroke-miterlimit="10" width="5.3" height="10.22"/>
		<g>
			
				<rect x="21.96" y="70.19" fill="#FFFFFF" stroke="#1D2132" stroke-width="0.1" stroke-linecap="square" stroke-miterlimit="22.9256" width="4.01" height="1.3"/>
			<polygon fill="#1D2132" points="21.96,70.2 22.37,70.99 25.96,71.49 21.96,71.49 			"/>
		</g>
		<g>
			
				<rect x="21.96" y="77.81" fill="#FFFFFF" stroke="#1D2132" stroke-width="0.1" stroke-linecap="square" stroke-miterlimit="22.9256" width="4.01" height="1.3"/>
			<polygon fill="#1D2132" points="21.96,77.92 22.37,78.73 25.96,79.11 21.96,79.11 			"/>
		</g>
		<g>
			
				<rect x="21.96" y="72.09" fill="#FFFFFF" stroke="#1D2132" stroke-width="0.1" stroke-linecap="square" stroke-miterlimit="22.9256" width="4.01" height="5.12"/>
			<polygon fill="#1D2132" points="21.96,72.21 22.37,76.51 25.96,77.2 21.96,77.2 			"/>
		</g>
	</g>
</g>
</svg>
