<?xml version="1.0" encoding="utf-8"?>
<!-- Generator: Adobe Illustrator 22.0.0, SVG Export Plug-In . SVG Version: 6.00 Build 0)  -->
<svg version="1.1" id="Layer_1" xmlns="http://www.w3.org/2000/svg" xmlns:xlink="http://www.w3.org/1999/xlink" x="0px" y="0px"
	 viewBox="0 0 100 82" enable-background="new 0 0 100 82" xml:space="preserve">
<g id="Background">
	<rect x="1.37" y="4.37" opacity="0.1" fill="#1D2132" enable-background="new    " width="97" height="75.63"/>
</g>
<g id="Plumbing">
	<g>
		<polyline fill="#FFFFFF" points="94.5,60.02 94.38,60.02 94.27,60.02 94.04,60.04 93.83,60.09 93.62,60.18 93.41,60.28 
			93.24,60.39 93.07,60.54 92.92,60.69 92.74,60.92 92.59,61.17 92.46,61.43 92.35,61.69 92.25,61.98 92.16,62.23 92.1,62.5 
			92.04,62.78 91.99,63.06 91.98,63.35 91.96,63.59 91.98,63.84 92,64.12 92.04,64.41 92.1,64.68 92.16,64.95 92.26,65.24 
			92.35,65.5 92.46,65.76 92.59,66.02 92.74,66.27 92.92,66.5 93.07,66.65 93.24,66.8 93.41,66.91 93.62,67.02 93.83,67.09 
			94.04,67.14 94.27,67.18 94.5,67.18 97.69,67.18 97.69,60.02 94.5,60.02 		"/>
		
			<line fill="none" stroke="#1D2132" stroke-width="0.1" stroke-linecap="square" stroke-miterlimit="10" x1="97.69" y1="67.18" x2="97.69" y2="60.02"/>
		
			<line fill="none" stroke="#1D2132" stroke-width="0.1" stroke-linecap="square" stroke-miterlimit="10" x1="94.5" y1="67.18" x2="97.69" y2="67.18"/>
		
			<line fill="none" stroke="#1D2132" stroke-width="0.1" stroke-linecap="square" stroke-miterlimit="10" x1="94.5" y1="60.02" x2="97.69" y2="60.02"/>
		
			<line fill="none" stroke="#1D2132" stroke-width="0.1" stroke-linecap="square" stroke-miterlimit="10" x1="97.69" y1="62.47" x2="97.69" y2="64.72"/>
		
			<line fill="none" stroke="#1D2132" stroke-width="0.1" stroke-linecap="square" stroke-miterlimit="10" x1="95.13" y1="63.82" x2="95.13" y2="64.19"/>
		
			<line fill="none" stroke="#1D2132" stroke-width="0.1" stroke-linecap="square" stroke-miterlimit="10" x1="95.35" y1="63.59" x2="95.76" y2="63.59"/>
		
			<line fill="none" stroke="#1D2132" stroke-width="0.1" stroke-linecap="square" stroke-miterlimit="10" x1="95.13" y1="62.99" x2="95.13" y2="63.37"/>
		
			<line fill="none" stroke="#1D2132" stroke-width="0.1" stroke-linecap="square" stroke-miterlimit="10" x1="94.49" y1="63.59" x2="94.88" y2="63.59"/>
		<path fill="none" stroke="#1D2132" stroke-width="0.1" stroke-linecap="square" stroke-miterlimit="10" d="M94.29,60.45
			c0.66,0.25,1.21,0.68,1.6,1.24"/>
		<path fill="none" stroke="#1D2132" stroke-width="0.1" stroke-linecap="square" stroke-miterlimit="10" d="M95.89,61.7
			c0.32,0.49,0.48,1.06,0.48,1.65c0,0.07,0,0.17-0.01,0.25"/>
		<path fill="none" stroke="#1D2132" stroke-width="0.1" stroke-linecap="square" stroke-miterlimit="10" d="M95.9,65.5
			c-0.4,0.56-0.94,1-1.6,1.24"/>
		<path fill="none" stroke="#1D2132" stroke-width="0.1" stroke-linecap="square" stroke-miterlimit="10" d="M96.36,63.61
			c0.01,0.07,0.01,0.17,0.01,0.25c0,0.58-0.17,1.15-0.48,1.65"/>
		<path fill="none" stroke="#1D2132" stroke-width="0.1" stroke-linecap="square" stroke-miterlimit="10" d="M91.98,63.33
			c0.06-0.74,0.26-1.48,0.62-2.17"/>
		<path fill="none" stroke="#1D2132" stroke-width="0.1" stroke-linecap="square" stroke-miterlimit="10" d="M94.49,67.18
			c-0.01,0-0.05,0-0.07,0c-0.58,0-1.13-0.25-1.5-0.68"/>
		<path fill="none" stroke="#1D2132" stroke-width="0.1" stroke-linecap="square" stroke-miterlimit="10" d="M91.98,63.84
			c-0.01-0.07-0.01-0.17-0.01-0.25s0-0.17,0.01-0.25"/>
		<path fill="none" stroke="#1D2132" stroke-width="0.1" stroke-linecap="square" stroke-miterlimit="10" d="M95.77,61.59
			c0.1,0.66,0.16,1.34,0.16,2s-0.06,1.32-0.16,1.99"/>
		<path fill="none" stroke="#1D2132" stroke-width="0.1" stroke-linecap="square" stroke-miterlimit="10" d="M97.22,63.58
			c0,0.67-0.05,1.35-0.15,2.02"/>
		<path fill="none" stroke="#1D2132" stroke-width="0.1" stroke-linecap="square" stroke-miterlimit="10" d="M96.89,65.98
			C96.11,66.64,95.11,67,94.07,67c-0.02,0-0.04,0-0.06,0"/>
		<path fill="none" stroke="#1D2132" stroke-width="0.1" stroke-linecap="square" stroke-miterlimit="10" d="M97.09,65.61
			c-0.02,0.14-0.1,0.28-0.21,0.37"/>
		<path fill="none" stroke="#1D2132" stroke-width="0.1" stroke-linecap="square" stroke-miterlimit="10" d="M94.02,60.19
			c0.01,0,0.04,0,0.05,0c1.04,0,2.04,0.36,2.82,1.01"/>
		<path fill="none" stroke="#1D2132" stroke-width="0.1" stroke-linecap="square" stroke-miterlimit="10" d="M97.09,61.58
			c0.09,0.67,0.15,1.34,0.15,2.02"/>
		<path fill="none" stroke="#1D2132" stroke-width="0.1" stroke-linecap="square" stroke-miterlimit="10" d="M96.86,61.2
			c0.12,0.1,0.19,0.24,0.21,0.37"/>
		<path fill="none" stroke="#1D2132" stroke-width="0.1" stroke-linecap="square" stroke-miterlimit="10" d="M92.93,60.7
			c0.36-0.43,0.92-0.68,1.5-0.68c0.01,0,0.05,0,0.07,0"/>
		<path fill="none" stroke="#1D2132" stroke-width="0.1" stroke-linecap="square" stroke-miterlimit="10" d="M92.59,61.16
			c0.09-0.16,0.2-0.32,0.32-0.47"/>
		<path fill="none" stroke="#1D2132" stroke-width="0.1" stroke-linecap="square" stroke-miterlimit="10" d="M92.92,66.49
			c-0.12-0.14-0.24-0.3-0.32-0.47"/>
		<path fill="none" stroke="#1D2132" stroke-width="0.1" stroke-linecap="square" stroke-miterlimit="10" d="M92.59,66.01
			c-0.35-0.67-0.56-1.41-0.62-2.17"/>
		<path fill="none" stroke="#1D2132" stroke-width="0.1" stroke-linecap="square" stroke-miterlimit="10" d="M92.5,64.58
			c-0.07-0.32-0.12-0.66-0.12-0.99s0.05-0.67,0.12-0.99"/>
		<path fill="none" stroke="#1D2132" stroke-width="0.1" stroke-linecap="square" stroke-miterlimit="10" d="M93.36,60.81
			c0.22-0.24,0.53-0.37,0.87-0.37c0.02,0,0.05,0,0.07,0"/>
		<path fill="none" stroke="#1D2132" stroke-width="0.1" stroke-linecap="square" stroke-miterlimit="10" d="M92.5,62.6
			c0.14-0.66,0.43-1.26,0.87-1.78"/>
		<path fill="none" stroke="#1D2132" stroke-width="0.1" stroke-linecap="square" stroke-miterlimit="10" d="M94.3,66.74
			c-0.02,0-0.05,0-0.07,0c-0.33,0-0.64-0.14-0.87-0.37"/>
		<path fill="none" stroke="#1D2132" stroke-width="0.1" stroke-linecap="square" stroke-miterlimit="10" d="M93.36,66.38
			c-0.46-0.52-0.74-1.14-0.87-1.79"/>
		<path fill="none" stroke="#1D2132" stroke-width="0.1" stroke-linecap="square" stroke-miterlimit="10" d="M95.61,63.59
			c0-0.25-0.22-0.47-0.49-0.46c-0.27,0-0.49,0.21-0.49,0.46s0.22,0.46,0.49,0.46S95.61,63.84,95.61,63.59"/>
		<path fill="none" stroke="#1D2132" stroke-width="0.1" stroke-linecap="square" stroke-miterlimit="10" d="M95.39,63.59
			c0-0.14-0.12-0.25-0.26-0.25c-0.15,0-0.26,0.11-0.26,0.25s0.11,0.25,0.26,0.25S95.39,63.73,95.39,63.59"/>
	</g>
	<g>
		<polygon fill="#FFFFFF" points="81.16,79.51 81.16,77.71 81.16,77.69 81.18,77.66 81.18,77.64 81.2,77.62 81.2,77.59 81.2,77.57 
			81.2,77.55 81.21,77.53 81.24,77.52 81.25,77.49 81.27,77.48 81.29,77.47 81.3,77.46 81.32,77.44 81.35,77.43 81.37,77.42 
			81.37,72.65 81.37,72.52 81.37,72.41 81.4,72.29 81.42,72.18 81.46,72.07 81.48,71.96 81.53,71.85 81.57,71.74 81.63,71.64 
			81.68,71.55 81.74,71.45 81.8,71.36 81.88,71.27 81.96,71.19 82.04,71.11 82.12,71.03 82.2,70.95 82.3,70.89 82.39,70.83 
			82.48,70.78 82.57,70.72 82.67,70.67 82.78,70.62 82.87,70.58 82.98,70.55 83.09,70.52 83.19,70.49 83.3,70.46 83.41,70.45 
			83.52,70.44 83.63,70.44 83.74,70.44 83.85,70.44 83.96,70.44 84.07,70.45 84.18,70.46 84.29,70.49 84.4,70.52 84.5,70.55 
			84.61,70.58 84.7,70.62 84.8,70.67 84.9,70.72 85,70.78 85.11,70.83 85.18,70.89 85.27,70.95 85.35,71.03 85.44,71.11 
			85.52,71.19 85.6,71.27 85.67,71.36 85.74,71.45 85.8,71.55 85.85,71.64 85.91,71.74 85.95,71.85 86.01,71.96 86.02,72.07 
			86.06,72.18 86.08,72.29 86.1,72.41 86.1,72.52 86.11,72.65 86.11,77.42 86.13,77.43 86.16,77.44 86.18,77.46 86.18,77.47 
			86.21,77.48 86.23,77.49 86.24,77.52 86.26,77.53 86.27,77.55 86.28,77.57 86.29,77.59 86.29,77.62 86.3,77.64 86.3,77.66 
			86.32,77.69 86.32,77.71 86.32,79.51 83.74,79.51 		"/>
		
			<line fill="none" stroke="#1D2132" stroke-width="0.1" stroke-linecap="square" stroke-miterlimit="10" x1="86.11" y1="72.65" x2="86.11" y2="77.42"/>
		
			<line fill="none" stroke="#1D2132" stroke-width="0.1" stroke-linecap="square" stroke-miterlimit="10" x1="81.16" y1="79.51" x2="86.32" y2="79.51"/>
		
			<line fill="none" stroke="#1D2132" stroke-width="0.1" stroke-linecap="square" stroke-miterlimit="10" x1="86.32" y1="77.71" x2="86.32" y2="79.51"/>
		
			<line fill="none" stroke="#1D2132" stroke-width="0.1" stroke-linecap="square" stroke-miterlimit="10" x1="81.82" y1="76.58" x2="83.74" y2="76.58"/>
		
			<line fill="none" stroke="#1D2132" stroke-width="0.1" stroke-linecap="square" stroke-miterlimit="10" x1="85.65" y1="76.58" x2="86.11" y2="72.65"/>
		
			<line fill="none" stroke="#1D2132" stroke-width="0.1" stroke-linecap="square" stroke-miterlimit="10" x1="85.65" y1="76.58" x2="83.74" y2="76.58"/>
		
			<line fill="none" stroke="#1D2132" stroke-width="0.1" stroke-linecap="square" stroke-miterlimit="10" x1="81.82" y1="76.58" x2="81.37" y2="72.65"/>
		
			<line fill="none" stroke="#1D2132" stroke-width="0.1" stroke-linecap="square" stroke-miterlimit="10" x1="81.37" y1="72.65" x2="81.37" y2="77.42"/>
		
			<line fill="none" stroke="#1D2132" stroke-width="0.1" stroke-linecap="square" stroke-miterlimit="10" x1="81.16" y1="77.71" x2="81.16" y2="79.51"/>
		<path fill="none" stroke="#1D2132" stroke-width="0.1" stroke-linecap="square" stroke-miterlimit="10" d="M86.05,77.42
			c-0.77-0.09-1.54-0.13-2.31-0.13s-1.54,0.04-2.31,0.12"/>
		<path fill="none" stroke="#1D2132" stroke-width="0.1" stroke-linecap="square" stroke-miterlimit="10" d="M86.32,77.71
			c0-0.15-0.12-0.28-0.27-0.31"/>
		<path fill="none" stroke="#1D2132" stroke-width="0.1" stroke-linecap="square" stroke-miterlimit="10" d="M86.11,72.65
			c0-1.22-1.06-2.21-2.37-2.21c-1.31,0-2.37,0.99-2.37,2.21"/>
		<path fill="none" stroke="#1D2132" stroke-width="0.1" stroke-linecap="square" stroke-miterlimit="10" d="M81.43,77.41
			c-0.15,0.01-0.27,0.16-0.27,0.31"/>
		<path fill="none" stroke="#1D2132" stroke-width="0.1" stroke-linecap="square" stroke-miterlimit="10" d="M83.74,78.62
			c-0.13,0-0.23-0.11-0.24-0.26c0-0.13,0.11-0.26,0.24-0.26s0.24,0.12,0.24,0.26S83.87,78.62,83.74,78.62"/>
	</g>
	<g>
		<path fill="#FFFFFF" d="M85.49,58.92V46.87c0-0.07,0.04-0.12,0.12-0.12h12.05c0.07,0,0.12,0.04,0.12,0.12v12.04
			c0,0.07-0.04,0.12-0.12,0.12H85.6C85.55,59.03,85.49,58.97,85.49,58.92z"/>
		
			<line fill="none" stroke="#1D2132" stroke-width="0.1" stroke-linecap="square" stroke-miterlimit="10" x1="95.05" y1="49.86" x2="95.84" y2="49.86"/>
		
			<line fill="none" stroke="#1D2132" stroke-width="0.1" stroke-linecap="square" stroke-miterlimit="10" x1="94.72" y1="48.73" x2="94.72" y2="49.52"/>
		
			<line fill="none" stroke="#1D2132" stroke-width="0.1" stroke-linecap="square" stroke-miterlimit="10" x1="93.6" y1="49.86" x2="94.37" y2="49.86"/>
		
			<line fill="none" stroke="#1D2132" stroke-width="0.1" stroke-linecap="square" stroke-miterlimit="10" x1="94.72" y1="50.19" x2="94.72" y2="50.98"/>
		
			<line fill="none" stroke="#1D2132" stroke-width="0.1" stroke-linecap="square" stroke-miterlimit="10" x1="93.76" y1="58.34" x2="97.05" y2="58.34"/>
		
			<line fill="none" stroke="#1D2132" stroke-width="0.1" stroke-linecap="square" stroke-miterlimit="10" x1="86.37" y1="47.4" x2="93.89" y2="47.4"/>
		<path fill="none" stroke="#1D2132" stroke-width="0.1" stroke-linecap="square" stroke-miterlimit="10" d="M86.24,47.53v10.62
			c0,0.1,0.09,0.19,0.19,0.19h10.62"/>
		
			<line fill="none" stroke="#1D2132" stroke-width="0.1" stroke-linecap="square" stroke-miterlimit="10" x1="97.18" y1="50.68" x2="97.18" y2="58.21"/>
		<g>
			<path fill="none" stroke="#1D2132" stroke-width="0.1" stroke-linecap="square" stroke-miterlimit="10" d="M97.2,50.68
				c0-0.06-0.01-0.15-0.04-0.21"/>
		</g>
		<g>
			<path fill="none" stroke="#1D2132" stroke-width="0.1" stroke-linecap="square" stroke-miterlimit="10" d="M97.05,58.34
				c0.07,0,0.13-0.06,0.13-0.13"/>
		</g>
		<g>
			<path fill="none" stroke="#1D2132" stroke-width="0.1" stroke-linecap="square" stroke-miterlimit="10" d="M97.2,50.68
				c0-0.06-0.01-0.15-0.04-0.21"/>
		</g>
		<g>
			<path fill="none" stroke="#1D2132" stroke-width="0.1" stroke-linecap="square" stroke-miterlimit="10" d="M86.37,47.4
				c-0.07,0-0.13,0.06-0.13,0.13"/>
		</g>
		<g>
			<path fill="none" stroke="#1D2132" stroke-width="0.1" stroke-linecap="square" stroke-miterlimit="10" d="M97.18,50.57
				c-0.72-1.36-1.81-2.47-3.15-3.15"/>
		</g>
		<g>
			<path fill="none" stroke="#1D2132" stroke-width="0.1" stroke-linecap="square" stroke-miterlimit="10" d="M94.12,47.43
				c-0.07-0.01-0.15-0.03-0.22-0.03"/>
		</g>
		<g>
			<path fill="none" stroke="#1D2132" stroke-width="0.1" stroke-linecap="square" stroke-miterlimit="10" d="M97.14,50.46
				c-0.48-1.42-1.6-2.56-3.04-3.04"/>
		</g>
		<g>
			<path fill="none" stroke="#1D2132" stroke-width="0.1" stroke-linecap="square" stroke-miterlimit="10" d="M94.12,47.43
				c-0.07-0.01-0.15-0.03-0.22-0.03"/>
		</g>
		<g>
			<path fill="none" stroke="#1D2132" stroke-width="0.1" stroke-linecap="square" stroke-miterlimit="10" d="M95.35,49.86
				c0,0.33-0.3,0.61-0.61,0.61c-0.33,0-0.61-0.28-0.61-0.61c0-0.34,0.27-0.63,0.61-0.61C95.06,49.25,95.35,49.53,95.35,49.86"/>
		</g>
		<g>
			<path fill="none" stroke="#1D2132" stroke-width="0.1" stroke-linecap="square" stroke-miterlimit="10" d="M95.58,49.86
				c0,0.48-0.39,0.85-0.87,0.87c-0.48,0-0.87-0.39-0.87-0.87S94.24,49,94.72,49C95.2,49,95.58,49.38,95.58,49.86"/>
		</g>
		<path fill="none" stroke="#1D2132" stroke-width="0.1" stroke-linecap="square" stroke-miterlimit="10" d="M85.57,58.7V47.08
			c0-0.18,0.15-0.33,0.33-0.33h11.6c0.18,0,0.33,0.15,0.33,0.33V58.7c0,0.18-0.15,0.33-0.33,0.33H85.87
			C85.7,59.03,85.55,58.88,85.57,58.7z"/>
	</g>
	<g>
		<g>
			<path fill="#FFFFFF" stroke="#1D2132" stroke-width="0.1" stroke-linecap="square" stroke-miterlimit="10" d="M78.68,52.14
				c0,0.09,0.09,0.16,0.2,0.16s0.2-0.07,0.2-0.16s-0.09-0.16-0.2-0.16S78.68,52.06,78.68,52.14z"/>
			
				<ellipse fill="#FFFFFF" stroke="#1D2132" stroke-width="0.1" stroke-linecap="square" stroke-miterlimit="10" cx="78.04" cy="52.14" rx="0.2" ry="0.16"/>
			<path fill="#FFFFFF" stroke="#1D2132" stroke-width="0.1" stroke-linecap="square" stroke-miterlimit="10" d="M74.38,52.14
				c0,0.09,0.09,0.16,0.2,0.16s0.2-0.07,0.2-0.16s-0.09-0.16-0.2-0.16C74.46,51.99,74.38,52.06,74.38,52.14z"/>
			<path fill="#FFFFFF" stroke="#1D2132" stroke-width="0.1" stroke-linecap="square" stroke-miterlimit="10" d="M74.38,52.14
				c-0.44,0-0.8-0.09-0.8-0.21V51.4c0-0.12,0.36-0.21,0.8-0.21h4.7c0.44,0,0.8,0.09,0.8,0.21v0.54c0,0.12-0.36,0.21-0.8,0.21
				L74.38,52.14z"/>
			
				<rect x="73.2" y="47.15" fill="#FFFFFF" stroke="#1D2132" stroke-width="0.1" stroke-linecap="square" stroke-miterlimit="10" width="7" height="4.71"/>
			<path fill="#FFFFFF" stroke="#1D2132" stroke-width="0.1" stroke-linecap="square" stroke-miterlimit="10" d="M74.38,51.61
				c-0.44,0-0.8-0.77-0.8-1.72v-0.77c0-0.95,0.36-1.72,0.8-1.72h4.7c0.44,0,0.8,0.77,0.8,1.72v0.77c0,0.95-0.36,1.72-0.8,1.72H74.38
				z"/>
		</g>
		<g>
			<path fill="#FFFFFF" stroke="#1D2132" stroke-width="0.1" stroke-linecap="square" stroke-miterlimit="10" d="M74.52,47.98h4.43
				c0.09,0,0.16-0.07,0.16-0.16V47.8c0-0.09-0.07-0.16-0.16-0.16h-4.43c-0.09,0-0.16,0.07-0.16,0.16v0.02
				C74.36,47.91,74.43,47.98,74.52,47.98z"/>
			<g>
				
					<rect x="78.64" y="46.9" fill="#FFFFFF" stroke="#1D2132" stroke-width="0.1" stroke-linecap="square" stroke-miterlimit="10" width="0.28" height="0.75"/>
				
					<rect x="74.53" y="46.9" fill="#FFFFFF" stroke="#1D2132" stroke-width="0.1" stroke-linecap="square" stroke-miterlimit="10" width="0.28" height="0.75"/>
			</g>
			<g>
				
					<rect x="78.48" y="46.76" fill="#FFFFFF" stroke="#1D2132" stroke-width="0.1" stroke-linecap="square" stroke-miterlimit="10" width="0.59" height="0.14"/>
				
					<rect x="74.38" y="46.76" fill="#FFFFFF" stroke="#1D2132" stroke-width="0.1" stroke-linecap="square" stroke-miterlimit="10" width="0.59" height="0.14"/>
			</g>
		</g>
	</g>
</g>
<g id="Furniture">
	<g>
		
			<rect x="88.69" y="6.89" fill="#FFFFFF" stroke="#1D2132" stroke-width="0.0939" stroke-linecap="square" stroke-miterlimit="22.9256" width="9.03" height="38.25"/>
		
			<rect x="88.68" y="23" fill="#FFFFFF" stroke="#1D2132" stroke-width="0.0939" stroke-linecap="square" stroke-miterlimit="22.9256" width="9.03" height="7.03"/>
		
			<rect x="88.69" y="37.57" fill="#FFFFFF" stroke="#1D2132" stroke-width="0.0939" stroke-linecap="square" stroke-miterlimit="22.9256" width="9.03" height="7.98"/>
		
			<rect x="88.69" y="6.89" fill="#FFFFFF" stroke="#1D2132" stroke-width="0.0939" stroke-linecap="square" stroke-miterlimit="22.9256" width="9.03" height="7.76"/>
		<g>
			
				<line fill="none" stroke="#1D2132" stroke-width="0.0939" stroke-linecap="square" stroke-miterlimit="22.9256" x1="94.32" y1="10.87" x2="92.08" y2="10.87"/>
			
				<line fill="none" stroke="#1D2132" stroke-width="0.0939" stroke-linecap="square" stroke-miterlimit="22.9256" x1="93.99" y1="10.08" x2="92.4" y2="11.68"/>
			
				<line fill="none" stroke="#1D2132" stroke-width="0.0939" stroke-linecap="square" stroke-miterlimit="22.9256" x1="93.2" y1="9.75" x2="93.2" y2="12.02"/>
			
				<line fill="none" stroke="#1D2132" stroke-width="0.0939" stroke-linecap="square" stroke-miterlimit="22.9256" x1="92.4" y1="10.08" x2="93.99" y2="11.68"/>
		</g>
		<g>
			
				<rect x="89.05" y="23.84" fill="#FFFFFF" stroke="#1D2132" stroke-width="0.0939" stroke-linecap="square" stroke-miterlimit="22.9256" width="8.29" height="5.27"/>
			<g>
				<path fill="#FFFFFF" stroke="#1D2132" stroke-width="0.0939" stroke-linecap="square" stroke-miterlimit="22.9256" d="
					M91.31,27.91c0.81,0,1.44-0.65,1.44-1.44c0-0.81-0.64-1.44-1.44-1.44s-1.44,0.64-1.44,1.44C89.86,27.26,90.51,27.91,91.31,27.91
					"/>
				<path fill="#FFFFFF" stroke="#1D2132" stroke-width="0.0939" stroke-linecap="square" stroke-miterlimit="22.9256" d="
					M95.38,27.91c0.79,0,1.44-0.65,1.44-1.44c0-0.81-0.64-1.44-1.44-1.44c-0.81,0-1.44,0.64-1.44,1.44
					C93.95,27.26,94.59,27.91,95.38,27.91"/>
				<path fill="#FFFFFF" stroke="#1D2132" stroke-width="0.0939" stroke-linecap="square" stroke-miterlimit="22.9256" d="
					M91.31,27.63c0.64,0,1.15-0.53,1.15-1.15c0-0.64-0.53-1.15-1.15-1.15c-0.64,0-1.15,0.53-1.15,1.15
					C90.14,27.11,90.67,27.63,91.31,27.63"/>
				<path fill="#FFFFFF" stroke="#1D2132" stroke-width="0.0939" stroke-linecap="square" stroke-miterlimit="22.9256" d="
					M95.38,27.63c0.64,0,1.15-0.53,1.15-1.15c0-0.64-0.53-1.15-1.15-1.15c-0.64,0-1.15,0.53-1.15,1.15
					C94.24,27.11,94.74,27.63,95.38,27.63"/>
			</g>
		</g>
		<g>
			<path fill="#FFFFFF" stroke="#1D2132" stroke-width="0.0939" stroke-linecap="square" stroke-miterlimit="22.9256" d="
				M96.03,39.81v3.48c0,0.3-0.23,0.53-0.53,0.53h-5.75c-0.3,0-0.53-0.23-0.53-0.53v-3.48c0-0.3,0.23-0.53,0.53-0.53h5.75
				C95.8,39.3,96.03,39.52,96.03,39.81z"/>
			<g>
				<path fill="#FFFFFF" stroke="#1D2132" stroke-width="0.0939" stroke-linecap="square" stroke-miterlimit="22.9256" d="
					M94.74,41.92c-0.23,0-0.41-0.17-0.41-0.37s0.19-0.37,0.41-0.37c0.23,0,0.41,0.17,0.41,0.37C95.16,41.75,94.98,41.94,94.74,41.92
					z"/>
				<g>
					<path fill="#FFFFFF" stroke="#1D2132" stroke-width="0.0939" stroke-linecap="square" stroke-miterlimit="22.9256" d="
						M96.59,42.18c-0.31-0.02-0.56-0.28-0.56-0.62c0-0.36,0.25-0.62,0.56-0.62c0.31,0,0.56,0.27,0.56,0.62
						C97.17,41.91,96.91,42.18,96.59,42.18z"/>
					<path fill="#FFFFFF" stroke="#1D2132" stroke-width="0.0939" stroke-linecap="square" stroke-miterlimit="22.9256" d="
						M93.41,41.54c0-0.11,0.11-0.19,0.3-0.19l2.94,0.02c0.17,0,0.3,0.08,0.3,0.19l0,0c0,0.11-0.13,0.19-0.3,0.19l-2.94-0.02
						C93.53,41.72,93.41,41.65,93.41,41.54L93.41,41.54z"/>
					<path fill="#FFFFFF" stroke="#1D2132" stroke-width="0.0939" stroke-linecap="square" stroke-miterlimit="22.9256" d="
						M96.57,42.41c-0.1,0-0.17-0.38-0.17-0.86c0-0.47,0.08-0.86,0.17-0.86c0.11,0,0.17,0.38,0.17,0.86
						C96.75,42.04,96.69,42.43,96.57,42.41z"/>
				</g>
			</g>
		</g>
	</g>
	<g>
		<path fill="#FFFFFF" stroke="#1D2132" stroke-width="0.1" stroke-linecap="square" stroke-miterlimit="10" d="M6.11,66.06
			c-0.78-0.51-1.86-2.26-1.05-3.44c0.4-0.58,0.25-1.08,1.06-2.81c0.35-0.75,0.84-2.11,2.41-2.79s3.73-0.39,5.8,2.76
			c2.07,3.15,0.71,6.21-1.29,6.82c-2,0.61-3.04-0.07-4.05-0.07C8,66.53,7.53,67,6.11,66.06z"/>
		<path fill="none" stroke="#1D2132" stroke-width="0.1" stroke-linecap="square" stroke-miterlimit="10" d="M8.54,57.03
			c0,0-1.17,0.84-1.45,1.56c-0.56,1.45-0.72,1.09-1.25,2.96c-0.16,0.56,0.21,0.77,0.14,0.86c-0.07,0.1-0.42,0.81,0,1.59
			c0.42,0.78,0.75,1.36,1.59,1.79c0.52,0.26,1.04,0.23,1.19,0.11c0.26-0.2,0.26,0.12,1.23,0.4c1.38,0.4,1.78,0.27,2.63,0.06
			s1.09-0.15,1.63-0.66c0.54-0.51,0.81-1.1,0.81-1.1"/>
		<path fill="none" stroke="#1D2132" stroke-width="0.1" stroke-linecap="square" stroke-miterlimit="10" d="M8.4,59.34
			c0,0,0.65,0.5,0.52,0.94c-0.14,0.44-0.16,0.75-0.18,0.9S8.7,61.33,8.7,61.33s-0.66,0.46-1.16,0.66s-0.64,0.19-0.64,0.19"/>
		<path fill="none" stroke="#1D2132" stroke-width="0.1" stroke-linecap="square" stroke-miterlimit="10" d="M8.7,61.33
			c0,0,0.37,0.43,0.87,1.06c0.5,0.63,0.85,1.51,0.85,1.51s-0.43,0.43-0.8,0.85s-0.49,0.7-0.49,0.7"/>
		<path fill="none" stroke="#1D2132" stroke-width="0.1" stroke-linecap="square" stroke-miterlimit="10" d="M12.46,65.28
			c0,0,0.1-0.68-0.06-1.07c-0.15-0.39-0.36-0.45-0.96-0.45c-0.61,0-1.02,0.13-1.02,0.13"/>
		<path fill="none" stroke="#1D2132" stroke-width="0.1" stroke-linecap="square" stroke-miterlimit="10" d="M10.34,59.27
			c0,0,1.02,0.45,1.39,0.9c0.37,0.45,0.37,0.45,0.37,0.45s0.12,0,0.36-0.15c0.24-0.15,0.35-0.31,0.35-0.31"/>
		<path fill="none" stroke="#1D2132" stroke-width="0.1" stroke-linecap="square" stroke-miterlimit="10" d="M12.11,60.62
			c0,0,0.18,0.57,0.46,0.95s0.45,0.9,0.42,1.12c-0.03,0.22-0.03,0.22-0.03,0.22s0.2,0.19,0.45,0.17"/>
		<path fill="none" stroke="#1D2132" stroke-width="0.1" stroke-linecap="square" stroke-miterlimit="10" d="M10.34,59.27
			c0,0,0.01-0.38,0.15-0.53s0.3-0.25,0.3-0.25"/>
		<path fill="#FFFFFF" stroke="#1D2132" stroke-width="0.1" stroke-linecap="square" stroke-miterlimit="10" d="M6.05,63.59
			c0,0,0.06,0.11-0.01,0.12c-0.12,0.02-0.31,0.18-0.28,0.29c0.05,0.2,0.26,0.35,0.41,0.63c0.15,0.29,0.13,0.59,0.35,0.66
			c0.13,0.04,0.31-0.25,0.37-0.26C6.94,65.04,7,65.16,7,65.16l-0.43,0.31c0,0-0.31,0.06-0.49-0.24c-0.18-0.29-0.32-0.46-0.46-0.74
			c-0.15-0.29-0.29-0.48-0.07-0.7C5.78,63.58,6.05,63.59,6.05,63.59z"/>
	</g>
	<g>
		<path fill="#FFFFFF" stroke="#1D2132" stroke-width="0.1" stroke-linecap="square" stroke-miterlimit="10" d="M4.1,46.37
			c0.31-0.88,1.75-2.35,3.09-1.84c0.66,0.25,1.11-0.01,2.98,0.36c0.81,0.16,2.25,0.32,3.29,1.68c1.04,1.36,1.27,3.53-1.29,6.29
			s-5.86,2.18-6.93,0.38s-0.66-2.97-0.9-3.94S3.53,47.97,4.1,46.37z"/>
		<path fill="none" stroke="#1D2132" stroke-width="0.1" stroke-linecap="square" stroke-miterlimit="10" d="M13.46,46.56
			c0,0-1.1-0.94-1.87-1.04c-1.55-0.2-1.23-0.44-3.17-0.51C7.83,45,7.72,45.4,7.61,45.36c-0.11-0.04-0.89-0.22-1.55,0.38
			s-1.14,1.05-1.36,1.97c-0.13,0.56,0.02,1.07,0.17,1.19c0.26,0.2-0.05,0.28-0.09,1.29c-0.06,1.43,0.16,1.79,0.57,2.57
			c0.4,0.78,0.4,1.02,1.03,1.43c0.63,0.41,1.26,0.53,1.26,0.53"/>
		<path fill="none" stroke="#1D2132" stroke-width="0.1" stroke-linecap="square" stroke-miterlimit="10" d="M11.17,46.98
			c0,0-0.33,0.75-0.79,0.73c-0.46-0.03-0.77,0.03-0.92,0.04s-0.15,0.01-0.15,0.01s-0.61-0.53-0.92-0.97s-0.34-0.57-0.34-0.57"/>
		<path fill="none" stroke="#1D2132" stroke-width="0.1" stroke-linecap="square" stroke-miterlimit="10" d="M9.32,47.76
			c0,0-0.33,0.46-0.82,1.1s-1.26,1.19-1.26,1.19s-0.52-0.31-1.02-0.58c-0.49-0.27-0.79-0.31-0.79-0.31"/>
		<path fill="none" stroke="#1D2132" stroke-width="0.1" stroke-linecap="square" stroke-miterlimit="10" d="M6.38,52.35
			c0,0,0.68-0.07,1.03-0.31S7.76,51.58,7.61,51c-0.15-0.59-0.37-0.96-0.37-0.96"/>
		<path fill="none" stroke="#1D2132" stroke-width="0.1" stroke-linecap="square" stroke-miterlimit="10" d="M11.71,48.86
			c0,0-0.2,1.1-0.54,1.57c-0.35,0.47-0.35,0.47-0.35,0.47s0.02,0.12,0.23,0.32c0.21,0.2,0.38,0.26,0.38,0.26"/>
		<path fill="none" stroke="#1D2132" stroke-width="0.1" stroke-linecap="square" stroke-miterlimit="10" d="M10.82,50.89
			c0,0-0.51,0.31-0.82,0.68c-0.3,0.37-0.77,0.65-0.99,0.68c-0.22,0.03-0.22,0.03-0.22,0.03s-0.14,0.24-0.06,0.47"/>
		<path fill="none" stroke="#1D2132" stroke-width="0.1" stroke-linecap="square" stroke-miterlimit="10" d="M11.71,48.86
			c0,0,0.37-0.08,0.55,0.02c0.18,0.1,0.31,0.23,0.31,0.23"/>
		<path fill="#FFFFFF" stroke="#1D2132" stroke-width="0.1" stroke-linecap="square" stroke-miterlimit="10" d="M6.49,45.72
			c0,0-0.09,0.09-0.12,0.02c-0.05-0.11-0.25-0.26-0.35-0.2c-0.18,0.1-0.28,0.33-0.52,0.54s-0.54,0.27-0.56,0.5
			c-0.01,0.14,0.31,0.24,0.34,0.3c0.02,0.04-0.09,0.13-0.09,0.13l-0.4-0.34c0,0-0.13-0.29,0.11-0.53c0.24-0.24,0.37-0.42,0.61-0.63
			s0.4-0.4,0.66-0.23C6.43,45.46,6.49,45.72,6.49,45.72z"/>
	</g>
	<g>
		<path fill="#FFFFFF" stroke="#1D2132" stroke-width="0.1" stroke-linecap="square" stroke-miterlimit="10" d="M69.08,48.43
			c-0.75-0.12-1.56-0.11-2.42,0c-0.69,0-1.25,0.56-1.25,1.25c-0.26,1.49-0.41,3.07,0,5.1c0,0.69,0.56,1.25,1.25,1.25
			c0.81,0.19,1.61,0.19,2.42,0c0.69,0,1.25-0.56,1.25-1.25c0.25-1.65,0.19-3.37,0-5.1C70.33,48.99,69.77,48.43,69.08,48.43z"/>
		<g>
			<path fill="#FFFFFF" stroke="#1D2132" stroke-width="0.1" stroke-linecap="square" stroke-miterlimit="10" d="M65.66,55.05
				c0,0.39,0.34,0.7,0.76,0.7"/>
			<path fill="#FFFFFF" stroke="#1D2132" stroke-width="0.1" stroke-linecap="square" stroke-miterlimit="10" d="M66.42,48.73
				c-0.42,0-0.76,0.31-0.76,0.7"/>
			<path fill="#FFFFFF" stroke="#1D2132" stroke-width="0.1" stroke-linecap="square" stroke-miterlimit="10" d="M70.07,49.43
				c0-0.39-0.34-0.7-0.76-0.7"/>
			<path fill="#FFFFFF" stroke="#1D2132" stroke-width="0.1" stroke-linecap="square" stroke-miterlimit="10" d="M69.31,55.75
				c0.42,0,0.76-0.31,0.76-0.7"/>
		</g>
	</g>
	<g>
		
			<rect x="71.26" y="48.32" fill="#FFFFFF" stroke="#1D2132" stroke-width="0.1" stroke-linecap="square" stroke-miterlimit="10" width="0.66" height="7.97"/>
		
			<rect x="71.26" y="48.76" fill="#FFFFFF" stroke="#1D2132" stroke-width="0.1" stroke-linecap="square" stroke-miterlimit="10" width="0.4" height="7.08"/>
	</g>
	<g>
		
			<rect x="71.32" y="72.1" fill="#FFFFFF" stroke="#1D2132" stroke-width="0.1" stroke-linecap="square" stroke-miterlimit="10" width="0.66" height="5.31"/>
		<g>
			
				<rect x="70.31" y="72.48" fill="#FFFFFF" stroke="#1D2132" stroke-width="0.1" stroke-linecap="square" stroke-miterlimit="10" width="1.01" height="0.29"/>
			
				<rect x="71.13" y="72.48" fill="#FFFFFF" stroke="#1D2132" stroke-width="0.1" stroke-linecap="square" stroke-miterlimit="10" width="0.19" height="0.29"/>
		</g>
		<g>
			
				<rect x="70.31" y="73.9" fill="#FFFFFF" stroke="#1D2132" stroke-width="0.1" stroke-linecap="square" stroke-miterlimit="10" width="1.01" height="0.29"/>
			
				<rect x="71.13" y="73.9" fill="#FFFFFF" stroke="#1D2132" stroke-width="0.1" stroke-linecap="square" stroke-miterlimit="10" width="0.19" height="0.29"/>
		</g>
		<g>
			
				<rect x="70.31" y="75.32" fill="#FFFFFF" stroke="#1D2132" stroke-width="0.1" stroke-linecap="square" stroke-miterlimit="10" width="1.01" height="0.29"/>
			
				<rect x="71.13" y="75.32" fill="#FFFFFF" stroke="#1D2132" stroke-width="0.1" stroke-linecap="square" stroke-miterlimit="10" width="0.19" height="0.29"/>
		</g>
		<g>
			
				<rect x="70.31" y="76.74" fill="#FFFFFF" stroke="#1D2132" stroke-width="0.1" stroke-linecap="square" stroke-miterlimit="10" width="1.01" height="0.29"/>
			
				<rect x="71.13" y="76.74" fill="#FFFFFF" stroke="#1D2132" stroke-width="0.1" stroke-linecap="square" stroke-miterlimit="10" width="0.19" height="0.29"/>
		</g>
	</g>
	<g>
		<g>
			<g>
				
					<rect x="3.92" y="38.12" transform="matrix(-1 4.542932e-11 -4.542932e-11 -1 12.8939 81.278)" fill="#FFFFFF" stroke="#1D2132" stroke-width="0.1" stroke-linecap="square" stroke-miterlimit="10" width="5.05" height="5.05"/>
				<polygon fill="#FFFFFF" stroke="#1D2132" stroke-width="0.1" stroke-linecap="square" stroke-miterlimit="10" points="
					8.97,41.63 8.97,42.15 9.48,42.15 9.48,39.13 8.97,39.13 8.97,39.65 9.3,39.65 9.3,41.63 				"/>
			</g>
			<g>
				
					<rect x="3.92" y="7.45" transform="matrix(-1 4.452782e-11 -4.452782e-11 -1 12.8939 19.9538)" fill="#FFFFFF" stroke="#1D2132" stroke-width="0.1" stroke-linecap="square" stroke-miterlimit="10" width="5.05" height="5.05"/>
				<polygon fill="#FFFFFF" stroke="#1D2132" stroke-width="0.1" stroke-linecap="square" stroke-miterlimit="10" points="
					8.97,10.96 8.97,11.49 9.48,11.49 9.48,8.46 8.97,8.46 8.97,8.99 9.3,8.99 9.3,10.96 				"/>
			</g>
		</g>
		<g>
			<g>
				
					<rect x="3.49" y="13.35" fill="#FFFFFF" stroke="#1D2132" stroke-width="0.1" stroke-linecap="square" stroke-miterlimit="22.9256" width="26.55" height="23.9"/>
				<path fill="#FFFFFF" stroke="#1D2132" stroke-width="0.1" stroke-linecap="square" stroke-miterlimit="22.9256" d="M5.33,13.63
					c0,0,0.65-0.05,1.28,0c1.06,0.08,1.72,0.13,2.8,0.13c1.08,0,1.18-0.15,1.35-0.02c0.17,0.13,0.41,0.15,0.68,0
					c0.27-0.15,1.79-0.03,2.84-0.03c1.05,0,2.7-0.12,3.61-0.08c0.91,0.04,0.57,0.17,0.64,0.32c0.07,0.15,0.81-0.12,0.95-0.25
					c0.14-0.13,0.72-0.07,2.71-0.09c1.99-0.02,3.65,0.14,4.71,0.1c0.66-0.03,1.04,0,1.21,0.03c0.4,0.08,0.23-0.01,0.68-0.01
					c0.51,0.01-0.65,0.3-0.01,0.17c0.44-0.09,0.86-0.26,0.76-0.13c-0.1,0.13-0.53,0.36-0.59,0.44c-0.07,0.07-0.41,0.3-0.14,0.23
					c0.27-0.07,0.87-0.87,0.9-0.66c0.04,0.23,0.06,0.98,0.06,2.76c0,1.76,0,13.95-0.17,14.04c-0.17,0.09-0.1,0.09,0,0.2
					c0.1,0.11-0.03,2.26,0.1,2.69c0.14,0.43,0.1,1.08-0.07,1.17c-0.17,0.09-0.2,0.07-0.07,0.17c0.13,0.09,0.17,0.85,0.17,1.24
					c0,0.58,0.22,0.78-0.22,0.52c-0.44-0.26-0.78-0.23-0.51-0.06c0.27,0.17,0.64,0.21,0.7,0.32c0.07,0.11,0.32,0.09-0.39,0.1
					c-0.71,0.02-4.82,0.12-6.17,0.08c-1.35-0.04-2.4,0.01-2.6-0.03c-0.52-0.12-1.26,0.07-2.43,0.03c-1.46-0.05-3.74-0.04-5.39-0.06
					c-1.66-0.02-2.13-0.02-3.34,0c-1.22,0.02-1.68-0.25-2.06-0.12c-0.76,0.26-1.08,0.03-1.66-0.01c-0.57-0.04-1.43,0.1-1.72,0.07
					c-0.23-0.02,0.65-0.41,0.51-0.57c-0.14-0.16-0.54,0.7-0.63,0.38c-0.09-0.32,0.09-4.4,0-4.71s0-0.23,0-0.23s0-0.94,0-1.63
					c0-0.69,0-15.35,0-15.72s0.08-0.74,0.23-0.37c0.15,0.37-0.03-0.38,0.26-0.4C4.6,13.6,5.04,13.75,5.33,13.63z"/>
				<path fill="#FFFFFF" stroke="#1D2132" stroke-width="0.1" stroke-linecap="square" stroke-miterlimit="22.9256" d="M10.85,13.3
					c0.78-0.11,4.55-0.04,4.55,0.06s-1.29-0.25-2.04,0.41c-0.75,0.66-1.29,1.38-1.06,1.19c0.24-0.19,0.27-0.21,0.44-0.43
					c0.17-0.21,0.24-0.43,0.31-0.31c0.07,0.12-0.12,0.83-0.31,1.45c-0.24,0.79,0,2.8,0.06,3.7c0.16,2.28,0.56,15.09,1.58,16.51
					c1.02,1.42,1.19,1.29,1.53,1.37c0.34,0.08,1.39-0.07,0.86,0.06c-0.52,0.13-1.6,0.02-2.64,0.11c-1.05,0.1-1.39,0.21-1.46,0.06
					c-0.07-0.16-1.01-1.9-0.85-1.65c0.04,0.06,0.72,1.55,0.68,1.67c-0.03,0.12-0.36,0.03-0.75,0c-0.51-0.04-0.51-0.04-0.51-0.1
					c0-0.25-0.09-1.03-0.05-1.99c0.03-0.95-0.2-0.12-0.07,0.41c0.14,0.53-0.14,0.06-0.41-0.91c-0.27-0.97,0.3-15.22,0.06-15.92
					c-0.24-0.7-0.54-3.07-0.14-3.95C11.04,14.16,10.27,13.38,10.85,13.3z"/>
				<g>
					<path fill="#FFFFFF" stroke="#1D2132" stroke-width="0.1" stroke-linecap="square" stroke-miterlimit="22.9256" d="M3.64,26.52
						c0-0.37,0.06-0.28,0.17-0.19c0.11,0.09,0.28,0.14,1.04,0c0.76-0.14,1.32-0.18,2.04,0.05c0.72,0.23,0.81,0.1,1,0.01
						c0.19-0.09,0.34-0.05,0.19,0.23c-0.15,0.27,0.07,1.07,0.1,1.73c0.11,2.52,0.01,3.62-0.08,5.38c-0.02,0.38-0.14,0.7-0.1,0.88
						c0.04,0.18-0.04,0.41-0.15,0.27c-0.11-0.14-1.36,0.18-2.26,0.09c-0.91-0.09-1.42-0.04-1.53,0.01c-0.11,0.05-0.45-0.09-0.3-0.27
						c0.15-0.18-0.08-0.92-0.12-1.29c-0.04-0.37-0.15-1.16-0.11-3.12c0.04-1.97,0.02-2.83,0.14-3.15
						C3.75,26.83,3.64,26.61,3.64,26.52z"/>
					<path fill="none" stroke="#1D2132" stroke-width="0.1" stroke-linecap="square" stroke-miterlimit="22.9256" d="M7.58,26.86
						c0,0,0.51,1.5,0.51,3.74c0,2.25-0.7,3.87-0.7,3.87"/>
				</g>
				<g>
					<path fill="#FFFFFF" stroke="#1D2132" stroke-width="0.1" stroke-linecap="square" stroke-miterlimit="22.9256" d="M6.06,27.63
						c0-0.27,0.05-0.2,0.14-0.13c0.09,0.07,0.23,0.1,0.84,0c0.61-0.1,1.07-0.13,1.65,0.03c0.58,0.17,0.66,0.08,0.81,0.01
						c0.15-0.07,0.27-0.03,0.15,0.17c-0.12,0.2,0.05,0.78,0.08,1.25c0.09,1.83,0,2.63-0.07,3.91c-0.02,0.27-0.11,0.51-0.08,0.64
						c0.03,0.13-0.03,0.3-0.12,0.2c-0.09-0.1-1.1,0.13-1.83,0.07c-0.73-0.07-1.15-0.03-1.24,0.01c-0.09,0.03-0.37-0.07-0.24-0.2
						c0.12-0.13-0.07-0.67-0.1-0.94c-0.03-0.27-0.12-0.84-0.09-2.27c0.03-1.43,0.02-2.06,0.11-2.29C6.15,27.86,6.06,27.7,6.06,27.63
						z"/>
					<path fill="none" stroke="#1D2132" stroke-width="0.1" stroke-linecap="square" stroke-miterlimit="22.9256" d="M9.25,27.88
						c0,0,0.41,1.09,0.41,2.72c0,1.63-0.57,2.81-0.57,2.81"/>
				</g>
				<g>
					<path fill="#FFFFFF" stroke="#1D2132" stroke-width="0.1" stroke-linecap="square" stroke-miterlimit="22.9256" d="M3.64,16.05
						c0-0.37,0.06-0.28,0.17-0.19c0.11,0.09,0.28,0.14,1.04,0c0.76-0.14,1.32-0.18,2.04,0.05c0.72,0.23,0.81,0.1,1,0.01
						c0.19-0.09,0.34-0.05,0.19,0.23c-0.15,0.27,0.07,1.07,0.1,1.73c0.11,2.52,0.01,3.62-0.08,5.38c-0.02,0.38-0.14,0.7-0.1,0.88
						c0.04,0.18-0.04,0.41-0.15,0.27c-0.11-0.14-1.36,0.18-2.26,0.09c-0.91-0.09-1.42-0.04-1.53,0.01c-0.11,0.05-0.45-0.09-0.3-0.27
						c0.15-0.18-0.08-0.92-0.12-1.29c-0.04-0.37-0.15-1.16-0.11-3.12c0.04-1.97,0.02-2.83,0.14-3.15
						C3.75,16.36,3.64,16.14,3.64,16.05z"/>
					<path fill="none" stroke="#1D2132" stroke-width="0.1" stroke-linecap="square" stroke-miterlimit="22.9256" d="M7.58,16.39
						c0,0,0.51,1.5,0.51,3.74c0,2.25-0.7,3.87-0.7,3.87"/>
				</g>
				<g>
					<path fill="#FFFFFF" stroke="#1D2132" stroke-width="0.1" stroke-linecap="square" stroke-miterlimit="22.9256" d="M6.06,17.17
						c0-0.27,0.05-0.2,0.14-0.13c0.09,0.07,0.23,0.1,0.84,0c0.61-0.1,1.07-0.13,1.65,0.03c0.58,0.17,0.66,0.08,0.81,0.01
						c0.15-0.07,0.27-0.03,0.15,0.17c-0.12,0.2,0.05,0.78,0.08,1.25c0.09,1.83,0,2.63-0.07,3.91c-0.02,0.27-0.11,0.51-0.08,0.64
						c0.03,0.13-0.03,0.3-0.12,0.2c-0.09-0.1-1.1,0.13-1.83,0.07c-0.73-0.07-1.15-0.03-1.24,0.01c-0.09,0.03-0.37-0.07-0.24-0.2
						c0.12-0.13-0.07-0.67-0.1-0.94c-0.03-0.27-0.12-0.84-0.09-2.27c0.03-1.43,0.02-2.06,0.11-2.29
						C6.15,17.39,6.06,17.23,6.06,17.17z"/>
					<path fill="none" stroke="#1D2132" stroke-width="0.1" stroke-linecap="square" stroke-miterlimit="22.9256" d="M9.25,17.42
						c0,0,0.41,1.09,0.41,2.72c0,1.63-0.57,2.81-0.57,2.81"/>
				</g>
				<path fill="#FFFFFF" stroke="#1D2132" stroke-width="0.1" stroke-linecap="square" stroke-miterlimit="22.9256" d="M29.8,36.75
					V13.69c0-0.35-0.28-0.62-0.62-0.62h-7.39c-0.35,0-0.62,0.28-0.62,0.62v23.06c0,0.35,0.28,0.62,0.62,0.62h7.39
					C29.52,37.37,29.8,37.09,29.8,36.75z"/>
			</g>
			<g>
				
					<rect x="-13.28" y="24.98" transform="matrix(4.515570e-11 1 -1 4.515570e-11 27.9637 22.6522)" fill="#FFFFFF" stroke="#1D2132" stroke-width="0.1" stroke-linecap="square" stroke-miterlimit="22.9256" width="31.86" height="0.66"/>
				<path fill="#FFFFFF" stroke="#1D2132" stroke-width="0.1" stroke-linecap="square" stroke-miterlimit="22.9256" d="M3.49,40.45
					V10.16c0-0.28-0.23-0.51-0.51-0.51h0v31.3h0C3.27,40.96,3.49,40.73,3.49,40.45z"/>
				<g>
					<g>
						<g>
							<path fill="#FFFFFF" stroke="#1D2132" stroke-width="0.1" stroke-linecap="square" stroke-miterlimit="22.9256" d="
								M2.99,40.17v-1h0.12c0.28,0,0.5,0.22,0.5,0.5v0c0,0.28-0.22,0.5-0.5,0.5H2.99z"/>
							<path fill="#FFFFFF" stroke="#1D2132" stroke-width="0.1" stroke-linecap="square" stroke-miterlimit="22.9256" d="
								M6.71,36.51l0.18,0.75c0.42,0.04,0.85,0.02,1.27-0.06l0,0c0.11-0.03,0.13-0.32,0.05-0.65c-0.08-0.34-0.23-0.59-0.34-0.56l0,0
								C7.46,36.09,7.08,36.26,6.71,36.51z"/>
							
								<ellipse transform="matrix(0.9728 -0.2315 0.2315 0.9728 -8.3541 2.5758)" fill="#FFFFFF" stroke="#1D2132" stroke-width="0.1" stroke-linecap="square" stroke-miterlimit="22.9256" cx="6.8" cy="36.88" rx="0.13" ry="0.39"/>
							<path fill="#FFFFFF" stroke="#1D2132" stroke-width="0.1" stroke-linecap="square" stroke-miterlimit="22.9256" d="
								M6.76,36.98l-0.08,0.03c0,0-0.42,0.17-0.73,0.79c-0.06,0.12-0.11,0.25-0.17,0.38c-0.17,0.4-0.36,0.85-0.74,1.15
								c-0.51,0.4-1.31,0.4-1.34,0.4l-0.08,0l0-0.17l0.08,0c0.01,0,0.77,0,1.23-0.36c0.35-0.28,0.52-0.69,0.69-1.08
								c0.06-0.14,0.11-0.27,0.17-0.39c0.34-0.68,0.8-0.87,0.82-0.87l0.08-0.03C6.73,36.83,6.77,36.93,6.76,36.98z"/>
						</g>
					</g>
					<g>
						<g>
							<path fill="#FFFFFF" stroke="#1D2132" stroke-width="0.1" stroke-linecap="square" stroke-miterlimit="22.9256" d="
								M2.99,10.44v1h0.12c0.28,0,0.5-0.22,0.5-0.5v0c0-0.28-0.22-0.5-0.5-0.5H2.99z"/>
							<path fill="#FFFFFF" stroke="#1D2132" stroke-width="0.1" stroke-linecap="square" stroke-miterlimit="22.9256" d="
								M6.71,14.11l0.18-0.75c0.42-0.04,0.85-0.02,1.27,0.06l0,0c0.11,0.03,0.13,0.32,0.05,0.65c-0.08,0.34-0.23,0.59-0.34,0.56l0,0
								C7.46,14.53,7.08,14.35,6.71,14.11z"/>
							
								<ellipse transform="matrix(0.2315 -0.9728 0.9728 0.2315 -8.1345 17.1666)" fill="#FFFFFF" stroke="#1D2132" stroke-width="0.1" stroke-linecap="square" stroke-miterlimit="22.9256" cx="6.8" cy="13.73" rx="0.39" ry="0.13"/>
							<path fill="#FFFFFF" stroke="#1D2132" stroke-width="0.1" stroke-linecap="square" stroke-miterlimit="22.9256" d="
								M6.76,13.63L6.68,13.6c0,0-0.42-0.17-0.73-0.79c-0.06-0.12-0.11-0.25-0.17-0.38c-0.17-0.4-0.36-0.85-0.74-1.15
								c-0.51-0.4-1.31-0.4-1.34-0.4l-0.08,0l0,0.17l0.08,0c0.01,0,0.77,0,1.23,0.36c0.35,0.28,0.52,0.69,0.69,1.08
								c0.06,0.14,0.11,0.27,0.17,0.39c0.34,0.68,0.8,0.87,0.82,0.87l0.08,0.03C6.73,13.79,6.77,13.69,6.76,13.63z"/>
						</g>
					</g>
				</g>
			</g>
		</g>
	</g>
	<g>
		<g>
			
				<rect x="21.73" y="4.41" transform="matrix(-1 -1.224647e-16 1.224647e-16 -1 54.082 9.6159)" fill="#FFFFFF" stroke="#1D2132" stroke-width="0.1" stroke-linecap="square" stroke-miterlimit="10" width="10.62" height="0.8"/>
			
				<line fill="none" stroke="#1D2132" stroke-width="0.1" stroke-linecap="square" stroke-miterlimit="10" x1="31.52" y1="4.57" x2="31.52" y2="5.05"/>
			
				<line fill="none" stroke="#1D2132" stroke-width="0.1" stroke-linecap="square" stroke-miterlimit="10" x1="31.23" y1="4.57" x2="31.23" y2="5.05"/>
			
				<line fill="none" stroke="#1D2132" stroke-width="0.1" stroke-linecap="square" stroke-miterlimit="10" x1="32.09" y1="4.57" x2="32.09" y2="5.05"/>
			
				<line fill="none" stroke="#1D2132" stroke-width="0.1" stroke-linecap="square" stroke-miterlimit="10" x1="31.8" y1="4.57" x2="31.8" y2="5.05"/>
			
				<line fill="none" stroke="#1D2132" stroke-width="0.1" stroke-linecap="square" stroke-miterlimit="10" x1="30.94" y1="4.57" x2="30.94" y2="5.05"/>
			
				<line fill="none" stroke="#1D2132" stroke-width="0.1" stroke-linecap="square" stroke-miterlimit="10" x1="30.66" y1="4.57" x2="30.66" y2="5.05"/>
			
				<line fill="none" stroke="#1D2132" stroke-width="0.1" stroke-linecap="square" stroke-miterlimit="10" x1="30.37" y1="4.57" x2="30.37" y2="5.05"/>
			
				<line fill="none" stroke="#1D2132" stroke-width="0.1" stroke-linecap="square" stroke-miterlimit="10" x1="30.08" y1="4.57" x2="30.08" y2="5.05"/>
			
				<line fill="none" stroke="#1D2132" stroke-width="0.1" stroke-linecap="square" stroke-miterlimit="10" x1="29.8" y1="4.57" x2="29.8" y2="5.05"/>
			
				<line fill="none" stroke="#1D2132" stroke-width="0.1" stroke-linecap="square" stroke-miterlimit="10" x1="29.51" y1="4.57" x2="29.51" y2="5.05"/>
			
				<line fill="none" stroke="#1D2132" stroke-width="0.1" stroke-linecap="square" stroke-miterlimit="10" x1="28.65" y1="4.57" x2="28.65" y2="5.05"/>
			
				<line fill="none" stroke="#1D2132" stroke-width="0.1" stroke-linecap="square" stroke-miterlimit="10" x1="28.36" y1="4.57" x2="28.36" y2="5.05"/>
			
				<line fill="none" stroke="#1D2132" stroke-width="0.1" stroke-linecap="square" stroke-miterlimit="10" x1="29.22" y1="4.57" x2="29.22" y2="5.05"/>
			
				<line fill="none" stroke="#1D2132" stroke-width="0.1" stroke-linecap="square" stroke-miterlimit="10" x1="28.94" y1="4.57" x2="28.94" y2="5.05"/>
			
				<line fill="none" stroke="#1D2132" stroke-width="0.1" stroke-linecap="square" stroke-miterlimit="10" x1="28.08" y1="4.57" x2="28.08" y2="5.05"/>
			
				<line fill="none" stroke="#1D2132" stroke-width="0.1" stroke-linecap="square" stroke-miterlimit="10" x1="27.79" y1="4.57" x2="27.79" y2="5.05"/>
			
				<line fill="none" stroke="#1D2132" stroke-width="0.1" stroke-linecap="square" stroke-miterlimit="10" x1="27.5" y1="4.57" x2="27.5" y2="5.05"/>
			
				<line fill="none" stroke="#1D2132" stroke-width="0.1" stroke-linecap="square" stroke-miterlimit="10" x1="27.22" y1="4.57" x2="27.22" y2="5.05"/>
			
				<line fill="none" stroke="#1D2132" stroke-width="0.1" stroke-linecap="square" stroke-miterlimit="10" x1="26.93" y1="4.57" x2="26.93" y2="5.05"/>
			
				<line fill="none" stroke="#1D2132" stroke-width="0.1" stroke-linecap="square" stroke-miterlimit="10" x1="26.64" y1="4.57" x2="26.64" y2="5.05"/>
			
				<line fill="none" stroke="#1D2132" stroke-width="0.1" stroke-linecap="square" stroke-miterlimit="10" x1="25.78" y1="4.57" x2="25.78" y2="5.05"/>
			
				<line fill="none" stroke="#1D2132" stroke-width="0.1" stroke-linecap="square" stroke-miterlimit="10" x1="25.5" y1="4.57" x2="25.5" y2="5.05"/>
			
				<line fill="none" stroke="#1D2132" stroke-width="0.1" stroke-linecap="square" stroke-miterlimit="10" x1="26.36" y1="4.57" x2="26.36" y2="5.05"/>
			
				<line fill="none" stroke="#1D2132" stroke-width="0.1" stroke-linecap="square" stroke-miterlimit="10" x1="26.07" y1="4.57" x2="26.07" y2="5.05"/>
			
				<line fill="none" stroke="#1D2132" stroke-width="0.1" stroke-linecap="square" stroke-miterlimit="10" x1="25.21" y1="4.57" x2="25.21" y2="5.05"/>
			
				<line fill="none" stroke="#1D2132" stroke-width="0.1" stroke-linecap="square" stroke-miterlimit="10" x1="24.92" y1="4.57" x2="24.92" y2="5.05"/>
			
				<line fill="none" stroke="#1D2132" stroke-width="0.1" stroke-linecap="square" stroke-miterlimit="10" x1="24.64" y1="4.57" x2="24.64" y2="5.05"/>
			
				<line fill="none" stroke="#1D2132" stroke-width="0.1" stroke-linecap="square" stroke-miterlimit="10" x1="24.35" y1="4.57" x2="24.35" y2="5.05"/>
			
				<line fill="none" stroke="#1D2132" stroke-width="0.1" stroke-linecap="square" stroke-miterlimit="10" x1="24.06" y1="4.57" x2="24.06" y2="5.05"/>
			
				<line fill="none" stroke="#1D2132" stroke-width="0.1" stroke-linecap="square" stroke-miterlimit="10" x1="23.78" y1="4.57" x2="23.78" y2="5.05"/>
			
				<line fill="none" stroke="#1D2132" stroke-width="0.1" stroke-linecap="square" stroke-miterlimit="10" x1="22.92" y1="4.57" x2="22.92" y2="5.05"/>
			
				<line fill="none" stroke="#1D2132" stroke-width="0.1" stroke-linecap="square" stroke-miterlimit="10" x1="22.63" y1="4.57" x2="22.63" y2="5.05"/>
			
				<line fill="none" stroke="#1D2132" stroke-width="0.1" stroke-linecap="square" stroke-miterlimit="10" x1="23.49" y1="4.57" x2="23.49" y2="5.05"/>
			
				<line fill="none" stroke="#1D2132" stroke-width="0.1" stroke-linecap="square" stroke-miterlimit="10" x1="23.2" y1="4.57" x2="23.2" y2="5.05"/>
			
				<line fill="none" stroke="#1D2132" stroke-width="0.1" stroke-linecap="square" stroke-miterlimit="10" x1="22.34" y1="4.57" x2="22.34" y2="5.05"/>
			
				<line fill="none" stroke="#1D2132" stroke-width="0.1" stroke-linecap="square" stroke-miterlimit="10" x1="22.06" y1="4.57" x2="22.06" y2="5.05"/>
		</g>
		<path fill="none" stroke="#1D2132" stroke-width="0.1" stroke-linecap="square" stroke-miterlimit="10" d="M41.94,5.36
			c-0.42,0,0,0.74-0.42,0.74c-0.42,0,0-0.74-0.42-0.74c-0.42,0,0,0.74-0.42,0.74c-0.42,0,0-0.74-0.42-0.74c-0.42,0,0,0.74-0.42,0.74
			c-0.42,0,0-0.74-0.42-0.74c-0.42,0,0,0.74-0.42,0.74c-0.42,0,0-0.74-0.42-0.74c-0.42,0,0,0.74-0.42,0.74c-0.42,0,0-0.74-0.42-0.74
			s0,0.74-0.42,0.74c-0.42,0,0-0.74-0.42-0.74c-0.42,0,0,0.74-0.42,0.74c-0.42,0,0-0.74-0.42-0.74c-0.42,0,0,0.74-0.42,0.74
			c-0.42,0,0-0.74-0.42-0.74c-0.42,0,0,0.74-0.42,0.74c-0.42,0,0-0.74-0.42-0.74c-0.42,0,0,0.74-0.42,0.74c-0.42,0,0-0.74-0.42-0.74
			c-0.42,0,0,0.74-0.42,0.74s0-0.74-0.42-0.74c-0.42,0,0,0.74-0.42,0.74c-0.42,0,0-0.74-0.42-0.74s0,0.74-0.42,0.74
			s0-0.74-0.42-0.74c-0.42,0,0,0.74-0.42,0.74c-0.42,0,0-0.74-0.42-0.74s0,0.74-0.42,0.74s0-0.74-0.42-0.74s0,0.74-0.42,0.74
			s0-0.74-0.42-0.74s0,0.74-0.42,0.74"/>
		<path fill="none" stroke="#1D2132" stroke-width="0.1" stroke-linecap="square" stroke-miterlimit="10" d="M12.06,5.36
			c0.42,0,0,0.74,0.42,0.74c0.42,0,0-0.74,0.42-0.74s0,0.74,0.42,0.74s0-0.74,0.42-0.74s0,0.74,0.42,0.74s0-0.74,0.42-0.74
			c0.42,0,0,0.74,0.42,0.74c0.42,0,0-0.74,0.42-0.74s0,0.74,0.42,0.74s0-0.74,0.42-0.74s0,0.74,0.42,0.74s0-0.74,0.42-0.74
			s0,0.74,0.42,0.74s0-0.74,0.42-0.74s0,0.74,0.42,0.74c0.42,0,0-0.74,0.42-0.74c0.42,0,0,0.74,0.42,0.74s0-0.74,0.42-0.74
			s0,0.74,0.42,0.74s0-0.74,0.42-0.74s0,0.74,0.42,0.74s0-0.74,0.42-0.74s0,0.74,0.42,0.74s0-0.74,0.42-0.74s0,0.74,0.42,0.74
			s0-0.74,0.42-0.74c0.42,0,0,0.74,0.42,0.74c0.42,0,0-0.74,0.42-0.74s0,0.74,0.42,0.74s0-0.74,0.42-0.74s0,0.74,0.42,0.74
			s0-0.74,0.42-0.74s0,0.74,0.42,0.74"/>
	</g>
	<g>
		<g>
			
				<rect x="67.03" y="4.41" transform="matrix(-1 -1.224647e-16 1.224647e-16 -1 144.682 9.6159)" fill="#FFFFFF" stroke="#1D2132" stroke-width="0.1" stroke-linecap="square" stroke-miterlimit="10" width="10.62" height="0.8"/>
			
				<line fill="none" stroke="#1D2132" stroke-width="0.1" stroke-linecap="square" stroke-miterlimit="10" x1="76.82" y1="4.57" x2="76.82" y2="5.05"/>
			
				<line fill="none" stroke="#1D2132" stroke-width="0.1" stroke-linecap="square" stroke-miterlimit="10" x1="76.53" y1="4.57" x2="76.53" y2="5.05"/>
			
				<line fill="none" stroke="#1D2132" stroke-width="0.1" stroke-linecap="square" stroke-miterlimit="10" x1="77.39" y1="4.57" x2="77.39" y2="5.05"/>
			
				<line fill="none" stroke="#1D2132" stroke-width="0.1" stroke-linecap="square" stroke-miterlimit="10" x1="77.1" y1="4.57" x2="77.1" y2="5.05"/>
			
				<line fill="none" stroke="#1D2132" stroke-width="0.1" stroke-linecap="square" stroke-miterlimit="10" x1="76.24" y1="4.57" x2="76.24" y2="5.05"/>
			
				<line fill="none" stroke="#1D2132" stroke-width="0.1" stroke-linecap="square" stroke-miterlimit="10" x1="75.96" y1="4.57" x2="75.96" y2="5.05"/>
			
				<line fill="none" stroke="#1D2132" stroke-width="0.1" stroke-linecap="square" stroke-miterlimit="10" x1="75.67" y1="4.57" x2="75.67" y2="5.05"/>
			
				<line fill="none" stroke="#1D2132" stroke-width="0.1" stroke-linecap="square" stroke-miterlimit="10" x1="75.38" y1="4.57" x2="75.38" y2="5.05"/>
			
				<line fill="none" stroke="#1D2132" stroke-width="0.1" stroke-linecap="square" stroke-miterlimit="10" x1="75.1" y1="4.57" x2="75.1" y2="5.05"/>
			
				<line fill="none" stroke="#1D2132" stroke-width="0.1" stroke-linecap="square" stroke-miterlimit="10" x1="74.81" y1="4.57" x2="74.81" y2="5.05"/>
			
				<line fill="none" stroke="#1D2132" stroke-width="0.1" stroke-linecap="square" stroke-miterlimit="10" x1="73.95" y1="4.57" x2="73.95" y2="5.05"/>
			
				<line fill="none" stroke="#1D2132" stroke-width="0.1" stroke-linecap="square" stroke-miterlimit="10" x1="73.66" y1="4.57" x2="73.66" y2="5.05"/>
			
				<line fill="none" stroke="#1D2132" stroke-width="0.1" stroke-linecap="square" stroke-miterlimit="10" x1="74.52" y1="4.57" x2="74.52" y2="5.05"/>
			
				<line fill="none" stroke="#1D2132" stroke-width="0.1" stroke-linecap="square" stroke-miterlimit="10" x1="74.24" y1="4.57" x2="74.24" y2="5.05"/>
			
				<line fill="none" stroke="#1D2132" stroke-width="0.1" stroke-linecap="square" stroke-miterlimit="10" x1="73.38" y1="4.57" x2="73.38" y2="5.05"/>
			
				<line fill="none" stroke="#1D2132" stroke-width="0.1" stroke-linecap="square" stroke-miterlimit="10" x1="73.09" y1="4.57" x2="73.09" y2="5.05"/>
			
				<line fill="none" stroke="#1D2132" stroke-width="0.1" stroke-linecap="square" stroke-miterlimit="10" x1="72.8" y1="4.57" x2="72.8" y2="5.05"/>
			
				<line fill="none" stroke="#1D2132" stroke-width="0.1" stroke-linecap="square" stroke-miterlimit="10" x1="72.52" y1="4.57" x2="72.52" y2="5.05"/>
			
				<line fill="none" stroke="#1D2132" stroke-width="0.1" stroke-linecap="square" stroke-miterlimit="10" x1="72.23" y1="4.57" x2="72.23" y2="5.05"/>
			
				<line fill="none" stroke="#1D2132" stroke-width="0.1" stroke-linecap="square" stroke-miterlimit="10" x1="71.94" y1="4.57" x2="71.94" y2="5.05"/>
			
				<line fill="none" stroke="#1D2132" stroke-width="0.1" stroke-linecap="square" stroke-miterlimit="10" x1="71.08" y1="4.57" x2="71.08" y2="5.05"/>
			
				<line fill="none" stroke="#1D2132" stroke-width="0.1" stroke-linecap="square" stroke-miterlimit="10" x1="70.8" y1="4.57" x2="70.8" y2="5.05"/>
			
				<line fill="none" stroke="#1D2132" stroke-width="0.1" stroke-linecap="square" stroke-miterlimit="10" x1="71.66" y1="4.57" x2="71.66" y2="5.05"/>
			
				<line fill="none" stroke="#1D2132" stroke-width="0.1" stroke-linecap="square" stroke-miterlimit="10" x1="71.37" y1="4.57" x2="71.37" y2="5.05"/>
			
				<line fill="none" stroke="#1D2132" stroke-width="0.1" stroke-linecap="square" stroke-miterlimit="10" x1="70.51" y1="4.57" x2="70.51" y2="5.05"/>
			
				<line fill="none" stroke="#1D2132" stroke-width="0.1" stroke-linecap="square" stroke-miterlimit="10" x1="70.22" y1="4.57" x2="70.22" y2="5.05"/>
			
				<line fill="none" stroke="#1D2132" stroke-width="0.1" stroke-linecap="square" stroke-miterlimit="10" x1="69.94" y1="4.57" x2="69.94" y2="5.05"/>
			
				<line fill="none" stroke="#1D2132" stroke-width="0.1" stroke-linecap="square" stroke-miterlimit="10" x1="69.65" y1="4.57" x2="69.65" y2="5.05"/>
			
				<line fill="none" stroke="#1D2132" stroke-width="0.1" stroke-linecap="square" stroke-miterlimit="10" x1="69.36" y1="4.57" x2="69.36" y2="5.05"/>
			
				<line fill="none" stroke="#1D2132" stroke-width="0.1" stroke-linecap="square" stroke-miterlimit="10" x1="69.08" y1="4.57" x2="69.08" y2="5.05"/>
			
				<line fill="none" stroke="#1D2132" stroke-width="0.1" stroke-linecap="square" stroke-miterlimit="10" x1="68.22" y1="4.57" x2="68.22" y2="5.05"/>
			
				<line fill="none" stroke="#1D2132" stroke-width="0.1" stroke-linecap="square" stroke-miterlimit="10" x1="67.93" y1="4.57" x2="67.93" y2="5.05"/>
			
				<line fill="none" stroke="#1D2132" stroke-width="0.1" stroke-linecap="square" stroke-miterlimit="10" x1="68.79" y1="4.57" x2="68.79" y2="5.05"/>
			
				<line fill="none" stroke="#1D2132" stroke-width="0.1" stroke-linecap="square" stroke-miterlimit="10" x1="68.5" y1="4.57" x2="68.5" y2="5.05"/>
			
				<line fill="none" stroke="#1D2132" stroke-width="0.1" stroke-linecap="square" stroke-miterlimit="10" x1="67.64" y1="4.57" x2="67.64" y2="5.05"/>
			
				<line fill="none" stroke="#1D2132" stroke-width="0.1" stroke-linecap="square" stroke-miterlimit="10" x1="67.36" y1="4.57" x2="67.36" y2="5.05"/>
		</g>
		<path fill="none" stroke="#1D2132" stroke-width="0.1" stroke-linecap="square" stroke-miterlimit="10" d="M87.24,5.36
			c-0.42,0,0,0.74-0.42,0.74s0-0.74-0.42-0.74s0,0.74-0.42,0.74c-0.42,0,0-0.74-0.42-0.74c-0.42,0,0,0.74-0.42,0.74
			s0-0.74-0.42-0.74s0,0.74-0.42,0.74c-0.42,0,0-0.74-0.42-0.74c-0.42,0,0,0.74-0.42,0.74s0-0.74-0.42-0.74s0,0.74-0.42,0.74
			c-0.42,0,0-0.74-0.42-0.74c-0.42,0,0,0.74-0.42,0.74s0-0.74-0.42-0.74s0,0.74-0.42,0.74s0-0.74-0.42-0.74
			c-0.42,0,0,0.74-0.42,0.74c-0.42,0,0-0.74-0.42-0.74s0,0.74-0.42,0.74s0-0.74-0.42-0.74c-0.42,0,0,0.74-0.42,0.74
			c-0.42,0,0-0.74-0.42-0.74s0,0.74-0.42,0.74s0-0.74-0.42-0.74c-0.42,0,0,0.74-0.42,0.74c-0.42,0,0-0.74-0.42-0.74
			s0,0.74-0.42,0.74s0-0.74-0.42-0.74s0,0.74-0.42,0.74c-0.42,0,0-0.74-0.42-0.74c-0.42,0,0,0.74-0.42,0.74s0-0.74-0.42-0.74
			s0,0.74-0.42,0.74"/>
		<path fill="none" stroke="#1D2132" stroke-width="0.1" stroke-linecap="square" stroke-miterlimit="10" d="M57.36,5.36
			c0.42,0,0,0.74,0.42,0.74c0.42,0,0-0.74,0.42-0.74c0.42,0,0,0.74,0.42,0.74c0.42,0,0-0.74,0.42-0.74s0,0.74,0.42,0.74
			c0.42,0,0-0.74,0.42-0.74c0.42,0,0,0.74,0.42,0.74c0.42,0,0-0.74,0.42-0.74c0.42,0,0,0.74,0.42,0.74c0.42,0,0-0.74,0.42-0.74
			c0.42,0,0,0.74,0.42,0.74c0.42,0,0-0.74,0.42-0.74c0.42,0,0,0.74,0.42,0.74c0.42,0,0-0.74,0.42-0.74c0.42,0,0,0.74,0.42,0.74
			s0-0.74,0.42-0.74s0,0.74,0.42,0.74c0.42,0,0-0.74,0.42-0.74c0.42,0,0,0.74,0.42,0.74s0-0.74,0.42-0.74s0,0.74,0.42,0.74
			c0.42,0,0-0.74,0.42-0.74c0.42,0,0,0.74,0.42,0.74s0-0.74,0.42-0.74s0,0.74,0.42,0.74c0.42,0,0-0.74,0.42-0.74
			c0.42,0,0,0.74,0.42,0.74s0-0.74,0.42-0.74s0,0.74,0.42,0.74s0-0.74,0.42-0.74c0.42,0,0,0.74,0.42,0.74c0.42,0,0-0.74,0.42-0.74
			s0,0.74,0.42,0.74"/>
	</g>
	<g>
		
			<circle fill="#FFFFFF" stroke="#1D2132" stroke-width="0.1" stroke-linecap="square" stroke-miterlimit="22.9256" cx="5.57" cy="57.31" r="1.87"/>
		
			<circle fill="#FFFFFF" stroke="#1D2132" stroke-width="0.1" stroke-linecap="square" stroke-miterlimit="22.9256" cx="5.57" cy="57.31" r="0.4"/>
		<path fill="#FFFFFF" stroke="#1D2132" stroke-width="0.1" stroke-linecap="square" stroke-miterlimit="22.9256" d="M10.99,53.37
			c0.41-0.18,1.01,0.24,1.32,0.95c0.31,0.71,0.23,1.43-0.18,1.61l0,0c-0.83,0.39-1.48,0.44-2.5,0.43l-0.63-1.43
			C9.65,54.15,10.13,53.71,10.99,53.37z"/>
		<path fill="#FFFFFF" stroke="#1D2132" stroke-width="0.1" stroke-linecap="square" stroke-miterlimit="22.9256" d="M9.73,55.46
			c0.18,0.39,0.13,0.8-0.1,0.9l-0.51,0.23l-0.63-1.43l0.51-0.23C9.22,54.83,9.55,55.07,9.73,55.46z"/>
		
			<ellipse transform="matrix(0.9138 -0.4062 0.4062 0.9138 -21.9371 8.3903)" fill="#FFFFFF" stroke="#1D2132" stroke-width="0.1" stroke-linecap="square" stroke-miterlimit="22.9256" cx="8.8" cy="55.88" rx="0.46" ry="0.78"/>
		<path fill="#FFFFFF" stroke="#1D2132" stroke-width="0.1" stroke-linecap="square" stroke-miterlimit="22.9256" d="M5.45,57.37
			L5.45,57.37c0.03,0.07,0.11,0.1,0.19,0.07l1.94-0.86c0.07-0.03,0.1-0.11,0.07-0.19l0,0c-0.03-0.07-0.11-0.1-0.19-0.07l-1.94,0.86
			C5.45,57.21,5.42,57.29,5.45,57.37z"/>
		<path fill="#FFFFFF" stroke="#1D2132" stroke-width="0.1" stroke-linecap="square" stroke-miterlimit="22.9256" d="M6.54,56.88
			L6.54,56.88c0.03,0.07,0.11,0.1,0.19,0.07l1.94-0.86c0.07-0.03,0.1-0.11,0.07-0.19h0c-0.03-0.07-0.11-0.1-0.19-0.07l-1.94,0.86
			C6.54,56.72,6.51,56.81,6.54,56.88z"/>
	</g>
	<g>
		<g>
			<path fill="#FFFFFF" stroke="#1D2132" stroke-width="0.1" stroke-linecap="square" stroke-miterlimit="10" d="M68.81,11.78
				c0.96-0.81,2.14-2.04,2.75-2.31c0.54-0.24,1.11,0.91,2.11,1.91c1.01,1.01,2.16,1.57,1.92,2.11c-0.27,0.61-1.5,1.8-2.31,2.76
				c-0.81,0.96-1.3,1.01-1.94,0.62c-0.63-0.38-1.25-1.05-1.67-1.47c-0.42-0.42-1.09-1.04-1.47-1.67
				C67.81,13.09,67.85,12.59,68.81,11.78z"/>
			<path fill="#FFFFFF" stroke="#1D2132" stroke-width="0.1" stroke-linecap="square" stroke-miterlimit="10" d="M68.73,12.19
				c0.79-0.66,1.76-1.67,2.28-1.88c0.46-0.18,1.56,0.3,2.49,1.24c0.93,0.93,1.42,2.03,1.24,2.49c-0.2,0.52-1.22,1.49-1.87,2.29
				c-0.66,0.79-1.08,0.81-1.66,0.44c-0.57-0.37-1.15-0.99-1.54-1.37c-0.39-0.39-1.01-0.97-1.38-1.54
				C67.92,13.28,67.94,12.85,68.73,12.19z"/>
			<g>
				<path fill="#FFFFFF" stroke="#1D2132" stroke-width="0.1" stroke-linecap="square" stroke-miterlimit="10" d="M75.63,11.93
					c0.24,0.35,0.45,0.72,0.63,1.09c-1.13,0.89-1.3-0.74-2.4-1.83c-1.13-1.13-2.88-1.36-1.8-2.44
					C73.46,9.47,74.69,10.54,75.63,11.93z"/>
				<path fill="#FFFFFF" stroke="#1D2132" stroke-width="0.1" stroke-linecap="square" stroke-miterlimit="10" d="M72.13,8.45
					c0.09,0.04,0.17,0.09,0.25,0.14c1.36,0.74,2.57,1.81,3.49,3.18c0.22,0.32,0.41,0.66,0.59,1c0.04,0.07,0.07,0.14,0.1,0.2
					L76.3,13.1c-0.01-0.03-0.03-0.05-0.04-0.08c-0.19-0.37-0.4-0.73-0.63-1.09c-0.94-1.39-2.17-2.46-3.57-3.19
					C72.04,8.73,72.02,8.72,72,8.71L72.13,8.45z"/>
			</g>
		</g>
		<g>
			<path fill="#FFFFFF" stroke="#1D2132" stroke-width="0.1" stroke-linecap="square" stroke-miterlimit="10" d="M56.59,24
				c-0.81,0.96-2.04,2.14-2.31,2.75c-0.24,0.54,0.91,1.11,1.91,2.11c1.01,1.01,1.57,2.16,2.11,1.92c0.61-0.27,1.8-1.5,2.76-2.31
				c0.96-0.81,1.01-1.3,0.62-1.94c-0.38-0.63-1.05-1.25-1.47-1.67c-0.42-0.42-1.04-1.09-1.67-1.47C57.9,22.99,57.41,23.04,56.59,24z
				"/>
			<path fill="#FFFFFF" stroke="#1D2132" stroke-width="0.1" stroke-linecap="square" stroke-miterlimit="10" d="M57.01,23.92
				c-0.66,0.79-1.67,1.76-1.88,2.28c-0.18,0.46,0.3,1.56,1.24,2.49c0.93,0.93,2.03,1.42,2.49,1.24c0.52-0.2,1.49-1.22,2.29-1.87
				c0.79-0.66,0.81-1.08,0.44-1.66c-0.37-0.57-0.99-1.15-1.37-1.54c-0.39-0.39-0.97-1.01-1.54-1.38
				C58.09,23.11,57.67,23.12,57.01,23.92z"/>
			<g>
				<path fill="#FFFFFF" stroke="#1D2132" stroke-width="0.1" stroke-linecap="square" stroke-miterlimit="10" d="M56.75,30.82
					c0.35,0.24,0.72,0.45,1.09,0.63c0.89-1.13-0.74-1.3-1.83-2.4c-1.13-1.13-1.36-2.88-2.44-1.8
					C54.28,28.64,55.36,29.88,56.75,30.82z"/>
				<path fill="#FFFFFF" stroke="#1D2132" stroke-width="0.1" stroke-linecap="square" stroke-miterlimit="10" d="M53.26,27.32
					c0.04,0.09,0.09,0.17,0.14,0.25c0.74,1.36,1.81,2.57,3.18,3.49c0.32,0.22,0.66,0.41,1,0.59c0.07,0.04,0.14,0.07,0.2,0.1
					l0.13-0.26c-0.03-0.01-0.05-0.03-0.08-0.04c-0.37-0.19-0.73-0.4-1.09-0.63c-1.39-0.94-2.46-2.17-3.19-3.57
					c-0.01-0.02-0.02-0.04-0.04-0.07L53.26,27.32z"/>
			</g>
		</g>
		<g>
			<path fill="#FFFFFF" stroke="#1D2132" stroke-width="0.1" stroke-linecap="square" stroke-miterlimit="10" d="M56.59,16.25
				c-0.81-0.96-2.04-2.14-2.31-2.75c-0.24-0.54,0.91-1.11,1.91-2.11c1.01-1.01,1.57-2.16,2.11-1.92c0.61,0.27,1.8,1.5,2.76,2.31
				c0.96,0.81,1.01,1.3,0.62,1.94c-0.38,0.63-1.05,1.25-1.47,1.67c-0.42,0.42-1.04,1.09-1.67,1.47
				C57.9,17.26,57.41,17.21,56.59,16.25z"/>
			<path fill="#FFFFFF" stroke="#1D2132" stroke-width="0.1" stroke-linecap="square" stroke-miterlimit="10" d="M57.01,16.33
				c-0.66-0.79-1.67-1.76-1.88-2.28c-0.18-0.46,0.3-1.56,1.24-2.49c0.93-0.93,2.03-1.42,2.49-1.24c0.52,0.2,1.49,1.22,2.29,1.87
				c0.79,0.66,0.81,1.08,0.44,1.66c-0.37,0.57-0.99,1.15-1.37,1.54c-0.39,0.39-0.97,1.01-1.54,1.38
				C58.09,17.14,57.67,17.13,57.01,16.33z"/>
			<g>
				<path fill="#FFFFFF" stroke="#1D2132" stroke-width="0.1" stroke-linecap="square" stroke-miterlimit="10" d="M56.75,9.43
					c0.35-0.24,0.72-0.45,1.09-0.63c0.89,1.13-0.74,1.3-1.83,2.4c-1.13,1.13-1.36,2.88-2.44,1.8C54.28,11.61,55.36,10.37,56.75,9.43
					z"/>
				<path fill="#FFFFFF" stroke="#1D2132" stroke-width="0.1" stroke-linecap="square" stroke-miterlimit="10" d="M53.26,12.93
					c0.04-0.09,0.09-0.17,0.14-0.25c0.74-1.36,1.81-2.57,3.18-3.49c0.32-0.22,0.66-0.41,1-0.59c0.07-0.04,0.14-0.07,0.2-0.1
					l0.13,0.26c-0.03,0.01-0.05,0.03-0.08,0.04c-0.37,0.19-0.73,0.4-1.09,0.63c-1.39,0.94-2.46,2.17-3.19,3.57
					c-0.01,0.02-0.02,0.04-0.04,0.07L53.26,12.93z"/>
			</g>
		</g>
		<g>
			<path fill="#FFFFFF" stroke="#1D2132" stroke-width="0.1" stroke-linecap="square" stroke-miterlimit="10" d="M68.81,28.47
				c0.96,0.81,2.14,2.04,2.75,2.31c0.54,0.24,1.11-0.91,2.11-1.91c1.01-1.01,2.16-1.57,1.92-2.11c-0.27-0.61-1.5-1.8-2.31-2.76
				c-0.81-0.96-1.3-1.01-1.94-0.62c-0.63,0.38-1.25,1.05-1.67,1.47c-0.42,0.42-1.09,1.04-1.47,1.67
				C67.81,27.16,67.85,27.66,68.81,28.47z"/>
			<path fill="#FFFFFF" stroke="#1D2132" stroke-width="0.1" stroke-linecap="square" stroke-miterlimit="10" d="M68.73,28.06
				c0.79,0.66,1.76,1.67,2.28,1.88c0.46,0.18,1.56-0.3,2.49-1.24c0.93-0.93,1.42-2.03,1.24-2.49c-0.2-0.52-1.22-1.49-1.87-2.29
				c-0.66-0.79-1.08-0.81-1.66-0.44c-0.57,0.37-1.15,0.99-1.54,1.37c-0.39,0.39-1.01,0.97-1.38,1.54
				C67.92,26.97,67.94,27.4,68.73,28.06z"/>
			<g>
				<path fill="#FFFFFF" stroke="#1D2132" stroke-width="0.1" stroke-linecap="square" stroke-miterlimit="10" d="M75.63,28.32
					c0.24-0.35,0.45-0.72,0.63-1.09c-1.13-0.89-1.3,0.74-2.4,1.83c-1.13,1.13-2.88,1.36-1.8,2.44
					C73.46,30.78,74.69,29.71,75.63,28.32z"/>
				<path fill="#FFFFFF" stroke="#1D2132" stroke-width="0.1" stroke-linecap="square" stroke-miterlimit="10" d="M72.13,31.8
					c0.09-0.04,0.17-0.09,0.25-0.14c1.36-0.74,2.57-1.81,3.49-3.18c0.22-0.32,0.41-0.66,0.59-1c0.04-0.07,0.07-0.14,0.1-0.2
					l-0.26-0.13c-0.01,0.03-0.03,0.05-0.04,0.08c-0.19,0.37-0.4,0.73-0.63,1.09c-0.94,1.39-2.17,2.46-3.57,3.19
					c-0.02,0.01-0.04,0.02-0.07,0.04L72.13,31.8z"/>
			</g>
		</g>
		
			<circle fill="#FFFFFF" stroke="#1D2132" stroke-width="0.1" stroke-linecap="square" stroke-miterlimit="10" cx="64.94" cy="20.12" r="6.36"/>
	</g>
	<g>
		
			<rect x="43.48" y="61.43" fill="#FFFFFF" stroke="#1D2132" stroke-width="0.1" stroke-linecap="square" stroke-miterlimit="10" width="7.43" height="15.42"/>
		<g>
			<path fill="#FFFFFF" stroke="#1D2132" stroke-width="0.1" stroke-linecap="square" stroke-miterlimit="10" d="M46.18,69.46
				c0-0.06-0.05-0.11-0.11-0.11h-0.35c-0.12,0-0.19,0.1-0.26,0.2c-0.09,0.14-0.21,0.3-0.46,0.35c-0.17,0.03-0.32-0.03-0.41-0.15
				c-0.1-0.13-0.11-0.32-0.03-0.48C44.75,68.95,45.09,69,45.1,69c0.06,0.01,0.11-0.03,0.12-0.09c0.01-0.06-0.03-0.11-0.09-0.12
				c-0.17-0.03-0.55,0.02-0.73,0.38c-0.12,0.23-0.1,0.5,0.05,0.7c0.14,0.19,0.37,0.28,0.61,0.24c0.34-0.06,0.49-0.28,0.59-0.43
				c0.03-0.04,0.07-0.1,0.09-0.11h0.34C46.14,69.56,46.18,69.51,46.18,69.46z M45.73,69.56L45.73,69.56L45.73,69.56z"/>
			<path fill="#FFFFFF" stroke="#1D2132" stroke-width="0.1" stroke-linecap="square" stroke-miterlimit="10" d="M48.5,73.02v-7.14
				c0-0.27,0.07-0.57-0.19-0.63c-0.26-0.06-0.52,0.05-0.64,0.29c0,0-0.01,0.01-0.01,0.02l-1.55,3.26c-0.01,0.03-0.02,0.06-0.02,0.08
				V70c0,0.03,0.01,0.06,0.02,0.08l1.55,3.26c0,0.01,0,0.01,0.01,0.02c0.13,0.24,0.38,0.35,0.64,0.29
				C48.56,73.58,48.5,73.29,48.5,73.02z M48.04,65.49c0.05-0.09,0.14-0.08,0.16-0.07c0.03,0.01,0.11,0.04,0.11,0.15v7.76
				c0,0.11-0.09,0.14-0.11,0.15c-0.03,0.01-0.11,0.02-0.16-0.07l-0.99-3.45v-1.01L48.04,65.49z"/>
		</g>
	</g>
	<g>
		
			<rect x="18.32" y="55.36" transform="matrix(2.384842e-06 1 -1 2.384842e-06 97.7737 53.1664)" fill="#FFFFFF" stroke="#1D2132" stroke-width="0.1" stroke-linecap="square" stroke-miterlimit="10" width="7.97" height="40.22"/>
		<g>
			<path fill="#FFFFFF" stroke="#1D2132" stroke-width="0.1" stroke-linecap="square" stroke-miterlimit="10" d="M22.5,74.92
				c0.06,0,0.11-0.05,0.11-0.11l0-0.37c0-0.13-0.11-0.2-0.22-0.28c-0.15-0.1-0.33-0.22-0.37-0.49c-0.03-0.18,0.03-0.34,0.16-0.44
				c0.14-0.11,0.35-0.12,0.51-0.03c0.34,0.17,0.29,0.55,0.29,0.55c-0.01,0.06,0.03,0.12,0.1,0.13c0.06,0.01,0.12-0.03,0.13-0.1
				c0.03-0.18-0.02-0.59-0.41-0.78c-0.24-0.13-0.54-0.11-0.75,0.05c-0.2,0.15-0.3,0.39-0.25,0.66c0.06,0.36,0.3,0.53,0.47,0.64
				c0.05,0.03,0.11,0.07,0.12,0.09v0.37C22.38,74.87,22.43,74.92,22.5,74.92z M22.38,74.43L22.38,74.43L22.38,74.43z"/>
			<path fill="#FFFFFF" stroke="#1D2132" stroke-width="0.1" stroke-linecap="square" stroke-miterlimit="10" d="M18.68,77.4l7.65,0
				c0.29,0,0.61,0.07,0.68-0.21c0.07-0.28-0.05-0.56-0.31-0.69c-0.01,0-0.01-0.01-0.02-0.01l-3.5-1.66
				c-0.03-0.01-0.06-0.02-0.09-0.02h-1.18c-0.03,0-0.06,0.01-0.09,0.02l-3.5,1.66c-0.01,0-0.01,0-0.02,0.01
				c-0.25,0.13-0.38,0.41-0.31,0.69C18.07,77.47,18.39,77.4,18.68,77.4z M26.74,76.9c0.1,0.06,0.08,0.15,0.07,0.18
				c-0.01,0.03-0.04,0.12-0.16,0.12l-8.32,0c-0.12,0-0.15-0.09-0.16-0.12c-0.01-0.03-0.02-0.12,0.07-0.18l3.7-1.06h1.09L26.74,76.9z
				"/>
		</g>
	</g>
	<g>
		<g>
			
				<rect x="45.45" y="9.52" fill="#FFFFFF" stroke="#1D2132" stroke-width="0.1" stroke-linecap="square" stroke-miterlimit="10" width="5.05" height="29.21"/>
			<g>
				<polygon fill="#FFFFFF" stroke="#1D2132" stroke-width="0.1" stroke-linecap="square" stroke-miterlimit="10" points="
					45.45,35.81 45.45,36.33 44.94,36.33 44.94,33.31 45.45,33.31 45.45,33.83 45.12,33.83 45.12,35.81 				"/>
				<polygon fill="#FFFFFF" stroke="#1D2132" stroke-width="0.1" stroke-linecap="square" stroke-miterlimit="10" points="
					45.45,14.42 45.45,14.94 44.94,14.94 44.94,11.92 45.45,11.92 45.45,12.44 45.12,12.44 45.12,14.42 				"/>
			</g>
			<g>
				<polygon fill="#FFFFFF" stroke="#1D2132" stroke-width="0.1" stroke-linecap="square" stroke-miterlimit="10" points="
					45.45,30.19 45.45,30.71 44.94,30.71 44.94,27.69 45.45,27.69 45.45,28.21 45.12,28.21 45.12,30.19 				"/>
				<polygon fill="#FFFFFF" stroke="#1D2132" stroke-width="0.1" stroke-linecap="square" stroke-miterlimit="10" points="
					45.45,20.04 45.45,20.56 44.94,20.56 44.94,17.54 45.45,17.54 45.45,18.06 45.12,18.06 45.12,20.04 				"/>
			</g>
		</g>
		<g>
			<path fill="#FFFFFF" stroke="#1D2132" stroke-width="0.1" stroke-linecap="square" stroke-miterlimit="10" d="M48.59,22.24h-0.22
				c-0.5,0-0.91,0.41-0.91,0.91v1.94c0,0.5,0.41,0.91,0.91,0.91h0.22c0.5,0,0.91-0.41,0.91-0.91v-1.94
				C49.5,22.65,49.09,22.24,48.59,22.24z"/>
			<path fill="#FFFFFF" stroke="#1D2132" stroke-width="0.1" stroke-linecap="square" stroke-miterlimit="10" d="M48.25,22.94
				L48.25,22.94c-0.23,0-0.42,0.19-0.42,0.42v1.53c0,0.23,0.19,0.42,0.42,0.42l0,0c0.23,0,0.42-0.19,0.42-0.42v-1.53
				C48.67,23.13,48.48,22.94,48.25,22.94z"/>
			
				<rect x="47.83" y="17.49" fill="#FFFFFF" stroke="#1D2132" stroke-width="0.1" stroke-linecap="square" stroke-miterlimit="10" width="0.17" height="13.28"/>
			<polygon fill="#FFFFFF" stroke="#1D2132" stroke-width="0.1" stroke-linecap="square" stroke-miterlimit="10" points="
				48.34,19.41 48,17.49 48,30.76 48.34,28.84 			"/>
		</g>
	</g>
</g>
<g id="Doors">
	<g>
		<polygon fill="none" stroke="#1D2132" stroke-width="0.1" stroke-miterlimit="10" points="70.1,81.21 70.1,80.03 70.69,80.03 
			70.69,81.21 		"/>
		<polygon fill="none" stroke="#1D2132" stroke-width="0.1" stroke-miterlimit="10" points="55.62,81.21 55.62,80.03 55.03,80.03 
			55.03,81.21 		"/>
		<polyline fill="none" stroke="#1D2132" stroke-width="0.1" stroke-miterlimit="10" points="59.87,69.86 59.69,70.06 59.51,70.25 
			59.34,70.45 59.16,70.65 59,70.85 58.83,71.07 58.67,71.27 58.51,71.48 58.36,71.7 58.21,71.91 58.06,72.14 57.92,72.36 
			57.78,72.59 57.65,72.81 57.52,73.05 57.39,73.27 57.27,73.51 57.16,73.74 57.04,73.98 56.93,74.23 56.83,74.46 56.72,74.71 
			56.63,74.96 56.53,75.2 56.45,75.45 56.37,75.7 56.28,75.95 56.21,76.21 56.14,76.45 56.07,76.71 56.01,76.97 55.95,77.23 
			55.91,77.49 55.85,77.75 55.81,78.01 55.76,78.27 55.74,78.53 55.71,78.79 55.68,79.06 55.66,79.32 55.65,79.58 55.63,79.85 
			55.62,80.11 		"/>
		<polygon fill="none" stroke="#1D2132" stroke-width="0.1" stroke-miterlimit="10" points="70,80.05 59.87,69.86 59.51,70.25 
			69.58,80.46 		"/>
	</g>
	<g>
		<polygon fill="none" stroke="#1D2132" stroke-width="0.1" stroke-miterlimit="10" points="73.1,69.58 72.01,69.58 72.01,70.01 
			73.1,70.01 		"/>
		<polygon fill="none" stroke="#1D2132" stroke-width="0.1" stroke-miterlimit="10" points="73.1,58.9 72.01,58.9 72.01,58.46 
			73.1,58.46 		"/>
		<polyline fill="none" stroke="#1D2132" stroke-width="0.1" stroke-miterlimit="10" points="64.48,62.03 64.63,61.9 64.77,61.77 
			64.91,61.64 65.06,61.51 65.21,61.38 65.37,61.26 65.51,61.14 65.67,61.03 65.84,60.91 65.99,60.8 66.16,60.7 66.32,60.59 
			66.49,60.49 66.65,60.39 66.83,60.3 66.99,60.2 67.17,60.11 67.34,60.03 67.52,59.94 67.7,59.86 67.87,59.78 68.05,59.71 
			68.24,59.64 68.42,59.57 68.6,59.51 68.79,59.44 68.97,59.38 69.16,59.33 69.34,59.28 69.53,59.23 69.73,59.18 69.92,59.14 
			70.11,59.11 70.3,59.06 70.49,59.04 70.68,59 70.87,58.98 71.06,58.96 71.26,58.94 71.46,58.92 71.65,58.91 71.85,58.91 
			72.04,58.9 		"/>
		<polygon fill="none" stroke="#1D2132" stroke-width="0.1" stroke-miterlimit="10" points="72,69.5 64.48,62.03 64.77,61.77 
			72.3,69.2 		"/>
	</g>
	<g>
		<polygon fill="none" stroke="#1D2132" stroke-width="0.1" stroke-miterlimit="10" points="51.63,59.15 50.56,59.15 50.56,59.64 
			51.63,59.64 		"/>
		<polygon fill="none" stroke="#1D2132" stroke-width="0.1" stroke-miterlimit="10" points="51.63,47.22 50.54,47.22 50.54,46.74 
			51.63,46.74 		"/>
		<polyline fill="none" stroke="#1D2132" stroke-width="0.1" stroke-miterlimit="10" points="42,50.72 42.16,50.57 42.32,50.43 
			42.48,50.28 42.65,50.14 42.81,50 42.99,49.87 43.15,49.73 43.33,49.6 43.51,49.48 43.69,49.35 43.87,49.23 44.06,49.12 44.24,49 
			44.43,48.89 44.62,48.79 44.81,48.68 45,48.58 45.19,48.49 45.39,48.39 45.59,48.3 45.79,48.21 45.99,48.13 46.19,48.05 
			46.4,47.97 46.6,47.9 46.81,47.83 47.01,47.77 47.22,47.71 47.43,47.65 47.64,47.59 47.86,47.54 48.07,47.49 48.28,47.46 
			48.5,47.41 48.71,47.38 48.92,47.34 49.14,47.32 49.35,47.29 49.58,47.27 49.79,47.25 50,47.24 50.23,47.23 50.44,47.22 		"/>
		<polygon fill="none" stroke="#1D2132" stroke-width="0.1" stroke-miterlimit="10" points="50.39,59.07 42,50.72 42.32,50.43 
			50.73,58.73 		"/>
	</g>
</g>
<g id="Windows">
	<polyline fill="none" stroke="#1D2132" stroke-width="0.1" stroke-miterlimit="10" points="38.45,3.16 38.45,2.2 15.35,2.2 
		15.35,3.16 38.45,3.16 	"/>
	<polyline fill="none" stroke="#1D2132" stroke-width="0.1" stroke-miterlimit="10" points="14,4.37 14,2.2 39.81,2.2 39.81,4.37 
		14,4.37 	"/>
	<polyline fill="none" stroke="#1D2132" stroke-width="0.1" stroke-miterlimit="10" points="13.76,3.16 13.37,3.16 13.37,2.2 
		13.76,2.2 13.76,3.16 13.76,2.2 15.35,2.2 15.35,3.16 13.76,3.16 	"/>
	<polyline fill="none" stroke="#1D2132" stroke-width="0.1" stroke-miterlimit="10" points="38.45,3.16 38.45,2.2 40.37,2.2 
		40.37,3.16 38.45,3.16 	"/>
	<polyline fill="none" stroke="#1D2132" stroke-width="0.1" stroke-miterlimit="10" points="39.14,2.2 39.14,0.03 14.68,0.03 
		14.68,2.2 39.14,2.2 	"/>
	<polyline fill="none" stroke="#1D2132" stroke-width="0.1" stroke-miterlimit="10" points="83.69,3.16 83.69,2.2 60.6,2.2 
		60.6,3.16 83.69,3.16 	"/>
	<polyline fill="none" stroke="#1D2132" stroke-width="0.1" stroke-miterlimit="10" points="59.23,4.37 59.23,2.2 85.06,2.2 
		85.06,4.37 59.23,4.37 	"/>
	<polyline fill="none" stroke="#1D2132" stroke-width="0.1" stroke-miterlimit="10" points="58.83,3.16 58.37,3.16 58.37,2.2 
		58.83,2.2 58.83,3.16 58.83,2.2 60.6,2.2 60.6,3.16 58.83,3.16 	"/>
	<polyline fill="none" stroke="#1D2132" stroke-width="0.1" stroke-miterlimit="10" points="83.69,3.16 83.69,2.2 85.37,2.2 
		85.37,3.16 83.69,3.16 	"/>
	<polyline fill="none" stroke="#1D2132" stroke-width="0.1" stroke-miterlimit="10" points="84.38,2.2 84.38,0.03 59.92,0.03 
		59.92,2.2 84.38,2.2 	"/>
</g>
<g id="Text">
	
		<text id="TXT--" transform="matrix(1 0 0 1 25.0794 50.0001)" opacity="0.7" fill="#1D2132" enable-background="new    " font-family="'Cannonade-Medium'" font-size="3px">18,77</text>
	
		<text id="TXT---" transform="matrix(1 0 0 1 74.0794 39.0001)" opacity="0.7" fill="#1D2132" enable-background="new    " font-family="'Cannonade-Medium'" font-size="3px">10,36</text>
	
		<text id="TXT--" transform="matrix(1 0 0 1 56.0332 65.5515)" opacity="0.7" fill="#1D2132" enable-background="new    " font-family="'Cannonade-Medium'" font-size="3px">4,55</text>
	
		<text id="TXT--" transform="matrix(1 0 0 1 78.0356 64.4801)" opacity="0.7" fill="#1D2132" enable-background="new    " font-family="'Cannonade-Medium'" font-size="3px">4,33</text>
</g>
<g id="Walls">
	<polyline fill="#1D2132" stroke="#1D2132" stroke-width="0.1" stroke-miterlimit="10" points="0,2.2 2.17,2.2 2.17,81.68 0,81.68 
		0,2.2 	"/>
	<polyline fill="#1D2132" stroke="#1D2132" stroke-width="0.1" stroke-miterlimit="10" points="97.83,2.2 100,2.2 100,81.68 
		97.83,81.68 97.83,2.2 	"/>
	<line fill="none" stroke="#1D2132" stroke-width="0.1" stroke-miterlimit="10" x1="0" y1="2.2" x2="0" y2="2.2"/>
	<polyline fill="#1D2132" stroke="#1D2132" stroke-width="0.1" stroke-miterlimit="10" points="2.17,2.2 14,2.2 14,4.37 2.17,4.37 
		2.17,2.2 	"/>
	<polyline fill="#1D2132" stroke="#1D2132" stroke-width="0.1" stroke-miterlimit="10" points="39.81,2.2 59.23,2.2 59.23,4.37 
		39.81,4.37 39.81,2.2 	"/>
	<polyline fill="#1D2132" stroke="#1D2132" stroke-width="0.1" stroke-miterlimit="10" points="85.06,2.2 97.83,2.2 97.83,4.37 
		85.06,4.37 85.06,2.2 	"/>
	<polyline fill="#1D2132" stroke="#1D2132" stroke-width="0.1" stroke-miterlimit="10" points="100,4.37 100,4.37 100,2.2 	"/>
	<line fill="none" stroke="#1D2132" stroke-width="0.1" stroke-miterlimit="10" x1="100" y1="2.2" x2="100" y2="2.2"/>
	
		<rect x="84.38" y="0.16" fill="#1D2132" stroke="#1D2132" stroke-width="0.1" stroke-miterlimit="10" width="15.62" height="2.04"/>
	<polyline fill="#1D2132" stroke="#1D2132" stroke-width="0.1" stroke-miterlimit="10" points="59.92,2.2 39.14,2.2 39.14,0.16 
		59.92,0.16 59.92,2.2 	"/>
	<polyline fill="#1D2132" stroke="#1D2132" stroke-width="0.1" stroke-miterlimit="10" points="14.68,2.2 14.68,0.16 0,0.16 0,2.2 
		14.68,2.2 	"/>
	<polyline fill="#1D2132" stroke="#1D2132" stroke-width="0.1" stroke-miterlimit="10" points="97.83,81.68 70.65,81.68 
		70.65,79.51 97.83,79.51 97.83,81.68 	"/>
	<polyline fill="#1D2132" stroke="#1D2132" stroke-width="0.1" stroke-miterlimit="10" points="55.03,79.51 55.03,81.68 2.17,81.68 
		2.17,79.51 55.03,79.51 	"/>
	<polyline fill="#1D2132" stroke="#1D2132" stroke-width="0.1" stroke-miterlimit="10" points="51.63,60.22 42.39,60.22 
		42.39,79.51 43.48,79.51 43.48,61.3 51.63,61.3 51.63,60.22 	"/>
	<polyline fill="#1D2132" stroke="#1D2132" stroke-width="0.1" stroke-miterlimit="10" points="50.54,46.64 51.63,46.64 51.63,4.37 
		50.54,4.37 50.54,46.64 51.63,46.64 	"/>
	<polyline fill="#1D2132" stroke="#1D2132" stroke-width="0.1" stroke-miterlimit="10" points="72.01,46.64 72.01,45.55 
		97.83,45.55 97.83,46.64 73.1,46.64 73.1,58.46 72.01,58.46 72.01,46.64 72.01,46.64 	"/>
	<polyline fill="#1D2132" stroke="#1D2132" stroke-width="0.1" stroke-miterlimit="10" points="73.1,79.51 73.1,70.01 72.01,70.01 
		72.01,79.51 73.1,79.51 	"/>
	<polyline fill="#1D2132" stroke="#1D2132" stroke-width="0.1" stroke-miterlimit="10" points="51.63,61.3 51.63,59.64 50.56,59.64 
		50.56,61.3 51.63,61.3 	"/>
</g>
<g id="Details">
	<g>
		
			<path fill="none" stroke="#1D2132" stroke-width="0.0978" stroke-linecap="round" stroke-linejoin="round" stroke-miterlimit="10" d="
			M45.7,78.18c0-0.5-0.4-0.91-0.91-0.91c-0.5,0-0.91,0.4-0.91,0.91c0,0.5,0.4,0.91,0.91,0.91C45.3,79.09,45.7,78.68,45.7,78.18"/>
		
			<path fill="none" stroke="#1D2132" stroke-width="0.0978" stroke-linecap="round" stroke-linejoin="round" stroke-miterlimit="10" d="
			M45.53,78.18c0-0.4-0.32-0.73-0.73-0.73c-0.4,0-0.73,0.33-0.73,0.73s0.33,0.73,0.73,0.73S45.53,78.58,45.53,78.18"/>
		
			<path fill="none" stroke="#1D2132" stroke-width="0.0978" stroke-linecap="round" stroke-linejoin="round" stroke-miterlimit="10" d="
			M45.48,78.18c0-0.38-0.31-0.68-0.68-0.68s-0.68,0.31-0.68,0.68s0.31,0.68,0.68,0.68S45.48,78.56,45.48,78.18"/>
		
			<line fill="none" stroke="#1D2132" stroke-width="0.0978" stroke-linecap="round" stroke-linejoin="round" stroke-miterlimit="10" x1="44.8" y1="79.13" x2="44.8" y2="78.82"/>
		<polygon fill="#1D2132" points="44.8,78.67 44.76,78.69 44.73,78.71 44.7,78.75 44.7,78.8 44.73,78.84 44.76,78.85 44.8,78.86 
			44.85,78.85 44.88,78.84 44.9,78.8 44.9,78.75 44.88,78.71 44.85,78.69 		"/>
		
			<polygon fill="none" stroke="#1D2132" stroke-width="0.0978" stroke-linecap="round" stroke-linejoin="round" stroke-miterlimit="10" points="
			44.8,78.67 44.76,78.69 44.73,78.71 44.7,78.75 44.7,78.8 44.73,78.84 44.76,78.85 44.8,78.86 44.85,78.85 44.88,78.84 44.9,78.8 
			44.9,78.75 44.88,78.71 44.85,78.69 		"/>
		
			<line fill="none" stroke="#1D2132" stroke-width="0.0978" stroke-linecap="round" stroke-linejoin="round" stroke-miterlimit="10" x1="44.8" y1="78.73" x2="44.8" y2="78.41"/>
		<polygon fill="#1D2132" points="44.8,78.27 44.76,78.29 44.73,78.31 44.7,78.35 44.7,78.4 44.73,78.43 44.76,78.45 44.8,78.46 
			44.85,78.45 44.88,78.43 44.9,78.4 44.9,78.35 44.88,78.31 44.85,78.29 		"/>
		
			<polygon fill="none" stroke="#1D2132" stroke-width="0.0978" stroke-linecap="round" stroke-linejoin="round" stroke-miterlimit="10" points="
			44.8,78.27 44.76,78.29 44.73,78.31 44.7,78.35 44.7,78.4 44.73,78.43 44.76,78.45 44.8,78.46 44.85,78.45 44.88,78.43 44.9,78.4 
			44.9,78.35 44.88,78.31 44.85,78.29 		"/>
		
			<line fill="none" stroke="#1D2132" stroke-width="0.0978" stroke-linecap="round" stroke-linejoin="round" stroke-miterlimit="10" x1="44.8" y1="78.33" x2="44.8" y2="78.01"/>
		<polygon fill="#1D2132" points="44.8,77.87 44.76,77.89 44.73,77.91 44.7,77.95 44.7,77.99 44.73,78.03 44.76,78.05 44.8,78.06 
			44.85,78.05 44.88,78.03 44.9,77.99 44.9,77.95 44.88,77.91 44.85,77.89 		"/>
		
			<polygon fill="none" stroke="#1D2132" stroke-width="0.0978" stroke-linecap="round" stroke-linejoin="round" stroke-miterlimit="10" points="
			44.8,77.87 44.76,77.89 44.73,77.91 44.7,77.95 44.7,77.99 44.73,78.03 44.76,78.05 44.8,78.06 44.85,78.05 44.88,78.03 
			44.9,77.99 44.9,77.95 44.88,77.91 44.85,77.89 		"/>
		
			<line fill="none" stroke="#1D2132" stroke-width="0.0978" stroke-linecap="round" stroke-linejoin="round" stroke-miterlimit="10" x1="44.8" y1="77.94" x2="44.8" y2="77.61"/>
		<polygon fill="#1D2132" points="44.8,77.48 44.76,77.5 44.73,77.51 44.7,77.55 44.7,77.6 44.73,77.64 44.76,77.66 44.8,77.67 
			44.85,77.66 44.88,77.64 44.9,77.6 44.9,77.55 44.88,77.51 44.85,77.5 		"/>
		
			<polygon fill="none" stroke="#1D2132" stroke-width="0.0978" stroke-linecap="round" stroke-linejoin="round" stroke-miterlimit="10" points="
			44.8,77.48 44.76,77.5 44.73,77.51 44.7,77.55 44.7,77.6 44.73,77.64 44.76,77.66 44.8,77.67 44.85,77.66 44.88,77.64 44.9,77.6 
			44.9,77.55 44.88,77.51 44.85,77.5 		"/>
		
			<line fill="none" stroke="#1D2132" stroke-width="0.0978" stroke-linecap="round" stroke-linejoin="round" stroke-miterlimit="10" x1="44.8" y1="77.53" x2="44.8" y2="77.21"/>
		<polygon fill="#1D2132" points="44.8,77.07 44.76,77.09 44.73,77.11 44.7,77.15 44.7,77.2 44.73,77.24 44.76,77.26 44.8,77.27 
			44.85,77.26 44.88,77.24 44.9,77.2 44.9,77.15 44.88,77.11 44.85,77.09 		"/>
		
			<polygon fill="none" stroke="#1D2132" stroke-width="0.0978" stroke-linecap="round" stroke-linejoin="round" stroke-miterlimit="10" points="
			44.8,77.07 44.76,77.09 44.73,77.11 44.7,77.15 44.7,77.2 44.73,77.24 44.76,77.26 44.8,77.27 44.85,77.26 44.88,77.24 44.9,77.2 
			44.9,77.15 44.88,77.11 44.85,77.09 		"/>
		
			<line fill="none" stroke="#1D2132" stroke-width="0.0978" stroke-linecap="round" stroke-linejoin="round" stroke-miterlimit="10" x1="44.8" y1="77.13" x2="44.8" y2="76.91"/>
		<polygon fill="#1D2132" points="44.2,78.09 44.16,78.1 44.14,78.12 44.11,78.16 44.11,78.21 44.14,78.25 44.16,78.27 44.2,78.29 
			44.25,78.27 44.28,78.25 44.3,78.21 44.3,78.16 44.28,78.12 44.25,78.1 		"/>
		
			<polygon fill="none" stroke="#1D2132" stroke-width="0.0978" stroke-linecap="round" stroke-linejoin="round" stroke-miterlimit="10" points="
			44.2,78.09 44.16,78.1 44.14,78.12 44.11,78.16 44.11,78.21 44.14,78.25 44.16,78.27 44.2,78.29 44.25,78.27 44.28,78.25 
			44.3,78.21 44.3,78.16 44.28,78.12 44.25,78.1 		"/>
		
			<line fill="none" stroke="#1D2132" stroke-width="0.0978" stroke-linecap="round" stroke-linejoin="round" stroke-miterlimit="10" x1="44.25" y1="78.19" x2="44.57" y2="78.19"/>
		<polygon fill="#1D2132" points="44.6,78.09 44.57,78.1 44.54,78.12 44.51,78.16 44.51,78.21 44.54,78.25 44.57,78.27 44.6,78.29 
			44.65,78.27 44.68,78.25 44.7,78.21 44.7,78.16 44.68,78.12 44.65,78.1 		"/>
		
			<polygon fill="none" stroke="#1D2132" stroke-width="0.0978" stroke-linecap="round" stroke-linejoin="round" stroke-miterlimit="10" points="
			44.6,78.09 44.57,78.1 44.54,78.12 44.51,78.16 44.51,78.21 44.54,78.25 44.57,78.27 44.6,78.29 44.65,78.27 44.68,78.25 
			44.7,78.21 44.7,78.16 44.68,78.12 44.65,78.1 		"/>
		
			<line fill="none" stroke="#1D2132" stroke-width="0.0978" stroke-linecap="round" stroke-linejoin="round" stroke-miterlimit="10" x1="44.65" y1="78.19" x2="44.97" y2="78.19"/>
		<polygon fill="#1D2132" points="45.01,78.09 44.97,78.1 44.94,78.12 44.91,78.16 44.91,78.21 44.94,78.25 44.97,78.27 
			45.01,78.29 45.05,78.27 45.08,78.25 45.1,78.21 45.1,78.16 45.08,78.12 45.05,78.1 		"/>
		
			<polygon fill="none" stroke="#1D2132" stroke-width="0.0978" stroke-linecap="round" stroke-linejoin="round" stroke-miterlimit="10" points="
			45.01,78.09 44.97,78.1 44.94,78.12 44.91,78.16 44.91,78.21 44.94,78.25 44.97,78.27 45.01,78.29 45.05,78.27 45.08,78.25 
			45.1,78.21 45.1,78.16 45.08,78.12 45.05,78.1 		"/>
		
			<line fill="none" stroke="#1D2132" stroke-width="0.0978" stroke-linecap="round" stroke-linejoin="round" stroke-miterlimit="10" x1="45.04" y1="78.19" x2="45.37" y2="78.19"/>
		<polygon fill="#1D2132" points="45.41,78.09 45.37,78.1 45.34,78.12 45.31,78.16 45.31,78.21 45.34,78.25 45.37,78.27 
			45.41,78.29 45.46,78.27 45.48,78.25 45.5,78.21 45.5,78.16 45.48,78.12 45.46,78.1 		"/>
		
			<polygon fill="none" stroke="#1D2132" stroke-width="0.0978" stroke-linecap="round" stroke-linejoin="round" stroke-miterlimit="10" points="
			45.41,78.09 45.37,78.1 45.34,78.12 45.31,78.16 45.31,78.21 45.34,78.25 45.37,78.27 45.41,78.29 45.46,78.27 45.48,78.25 
			45.5,78.21 45.5,78.16 45.48,78.12 45.46,78.1 		"/>
		
			<line fill="none" stroke="#1D2132" stroke-width="0.0978" stroke-linecap="round" stroke-linejoin="round" stroke-miterlimit="10" x1="45.45" y1="78.19" x2="45.77" y2="78.19"/>
		<polygon fill="#1D2132" points="45.8,78.09 45.76,78.1 45.73,78.12 45.7,78.16 45.7,78.21 45.73,78.25 45.76,78.27 45.8,78.29 
			45.85,78.27 45.88,78.25 45.9,78.21 45.9,78.16 45.88,78.12 45.85,78.1 		"/>
		
			<polygon fill="none" stroke="#1D2132" stroke-width="0.0978" stroke-linecap="round" stroke-linejoin="round" stroke-miterlimit="10" points="
			45.8,78.09 45.76,78.1 45.73,78.12 45.7,78.16 45.7,78.21 45.73,78.25 45.76,78.27 45.8,78.29 45.85,78.27 45.88,78.25 
			45.9,78.21 45.9,78.16 45.88,78.12 45.85,78.1 		"/>
		
			<line fill="none" stroke="#1D2132" stroke-width="0.0978" stroke-linecap="round" stroke-linejoin="round" stroke-miterlimit="10" x1="45.85" y1="78.19" x2="46.07" y2="78.19"/>
		
			<polyline fill="none" stroke="#1D2132" stroke-width="0.0978" stroke-linecap="round" stroke-linejoin="round" stroke-miterlimit="10" points="
			43.48,79.51 43.48,76.85 46.14,76.85 46.14,79.51 43.48,79.51 		"/>
		
			<path fill="none" stroke="#1D2132" stroke-width="0.0978" stroke-linecap="round" stroke-linejoin="round" stroke-miterlimit="10" d="
			M45.75,78.18c0-0.53-0.42-0.95-0.95-0.95c-0.53,0-0.95,0.42-0.95,0.95s0.42,0.95,0.95,0.95C45.32,79.13,45.75,78.71,45.75,78.18"
			/>
		
			<line fill="none" stroke="#1D2132" stroke-width="0.0978" stroke-linecap="round" stroke-linejoin="round" stroke-miterlimit="10" x1="44.8" y1="79.43" x2="44.8" y2="79.21"/>
		<polygon fill="#1D2132" points="44.8,79.07 44.76,79.09 44.73,79.11 44.7,79.15 44.7,79.2 44.73,79.24 44.76,79.26 44.8,79.27 
			44.85,79.26 44.88,79.24 44.9,79.2 44.9,79.15 44.88,79.11 44.85,79.09 		"/>
		
			<polygon fill="none" stroke="#1D2132" stroke-width="0.0978" stroke-linecap="round" stroke-linejoin="round" stroke-miterlimit="10" points="
			44.8,79.07 44.76,79.09 44.73,79.11 44.7,79.15 44.7,79.2 44.73,79.24 44.76,79.26 44.8,79.27 44.85,79.26 44.88,79.24 44.9,79.2 
			44.9,79.15 44.88,79.11 44.85,79.09 		"/>
		
			<line fill="none" stroke="#1D2132" stroke-width="0.0978" stroke-linecap="round" stroke-linejoin="round" stroke-miterlimit="10" x1="43.55" y1="78.19" x2="43.77" y2="78.19"/>
		<polygon fill="#1D2132" points="43.81,78.09 43.77,78.1 43.74,78.12 43.72,78.16 43.72,78.21 43.74,78.25 43.77,78.27 
			43.81,78.29 43.86,78.27 43.89,78.25 43.91,78.21 43.91,78.16 43.89,78.12 43.86,78.1 		"/>
		
			<polygon fill="none" stroke="#1D2132" stroke-width="0.0978" stroke-linecap="round" stroke-linejoin="round" stroke-miterlimit="10" points="
			43.81,78.09 43.77,78.1 43.74,78.12 43.72,78.16 43.72,78.21 43.74,78.25 43.77,78.27 43.81,78.29 43.86,78.27 43.89,78.25 
			43.91,78.21 43.91,78.16 43.89,78.12 43.86,78.1 		"/>
		
			<line fill="none" stroke="#1D2132" stroke-width="0.0978" stroke-linecap="round" stroke-linejoin="round" stroke-miterlimit="10" x1="43.85" y1="78.19" x2="44.17" y2="78.19"/>
	</g>
	<g>
		
			<path fill="none" stroke="#1D2132" stroke-width="0.1" stroke-linecap="round" stroke-linejoin="round" stroke-miterlimit="10" d="
			M93.9,78.15c0,0.51,0.41,0.93,0.93,0.93c0.51,0,0.93-0.41,0.93-0.93c0-0.51-0.41-0.93-0.93-0.93
			C94.32,77.22,93.9,77.64,93.9,78.15"/>
		
			<path fill="none" stroke="#1D2132" stroke-width="0.1" stroke-linecap="round" stroke-linejoin="round" stroke-miterlimit="10" d="
			M94.08,78.15c0,0.41,0.34,0.75,0.75,0.75s0.75-0.33,0.75-0.75c0-0.41-0.33-0.75-0.75-0.75S94.08,77.74,94.08,78.15"/>
		
			<path fill="none" stroke="#1D2132" stroke-width="0.1" stroke-linecap="round" stroke-linejoin="round" stroke-miterlimit="10" d="
			M94.12,78.15c0,0.39,0.32,0.7,0.7,0.7c0.39,0,0.7-0.32,0.7-0.7s-0.32-0.7-0.7-0.7C94.44,77.45,94.12,77.76,94.12,78.15"/>
		
			<line fill="none" stroke="#1D2132" stroke-width="0.1" stroke-linecap="round" stroke-linejoin="round" stroke-miterlimit="10" x1="94.83" y1="79.43" x2="94.83" y2="79.2"/>
		<polygon fill="#1D2132" points="94.83,79.06 94.79,79.08 94.76,79.1 94.73,79.14 94.73,79.19 94.76,79.23 94.79,79.25 
			94.83,79.26 94.88,79.25 94.91,79.23 94.93,79.19 94.93,79.14 94.91,79.1 94.88,79.08 		"/>
		
			<polygon fill="none" stroke="#1D2132" stroke-width="0.1" stroke-linecap="round" stroke-linejoin="round" stroke-miterlimit="10" points="
			94.83,79.06 94.79,79.08 94.76,79.1 94.73,79.14 94.73,79.19 94.76,79.23 94.79,79.25 94.83,79.26 94.88,79.25 94.91,79.23 
			94.93,79.19 94.93,79.14 94.91,79.1 94.88,79.08 		"/>
		
			<line fill="none" stroke="#1D2132" stroke-width="0.1" stroke-linecap="round" stroke-linejoin="round" stroke-miterlimit="10" x1="94.83" y1="79.12" x2="94.83" y2="78.8"/>
		<polygon fill="#1D2132" points="94.83,78.65 94.79,78.67 94.76,78.69 94.73,78.73 94.73,78.78 94.76,78.82 94.79,78.84 
			94.83,78.85 94.88,78.84 94.91,78.82 94.93,78.78 94.93,78.73 94.91,78.69 94.88,78.67 		"/>
		
			<polygon fill="none" stroke="#1D2132" stroke-width="0.1" stroke-linecap="round" stroke-linejoin="round" stroke-miterlimit="10" points="
			94.83,78.65 94.79,78.67 94.76,78.69 94.73,78.73 94.73,78.78 94.76,78.82 94.79,78.84 94.83,78.85 94.88,78.84 94.91,78.82 
			94.93,78.78 94.93,78.73 94.91,78.69 94.88,78.67 		"/>
		
			<line fill="none" stroke="#1D2132" stroke-width="0.1" stroke-linecap="round" stroke-linejoin="round" stroke-miterlimit="10" x1="94.83" y1="78.71" x2="94.83" y2="78.39"/>
		<polygon fill="#1D2132" points="94.83,78.24 94.79,78.26 94.76,78.28 94.73,78.32 94.73,78.37 94.76,78.41 94.79,78.43 
			94.83,78.44 94.88,78.43 94.91,78.41 94.93,78.37 94.93,78.32 94.91,78.28 94.88,78.26 		"/>
		
			<polygon fill="none" stroke="#1D2132" stroke-width="0.1" stroke-linecap="round" stroke-linejoin="round" stroke-miterlimit="10" points="
			94.83,78.24 94.79,78.26 94.76,78.28 94.73,78.32 94.73,78.37 94.76,78.41 94.79,78.43 94.83,78.44 94.88,78.43 94.91,78.41 
			94.93,78.37 94.93,78.32 94.91,78.28 94.88,78.26 		"/>
		
			<line fill="none" stroke="#1D2132" stroke-width="0.1" stroke-linecap="round" stroke-linejoin="round" stroke-miterlimit="10" x1="94.83" y1="78.3" x2="94.83" y2="77.98"/>
		<polygon fill="#1D2132" points="94.83,77.83 94.79,77.85 94.76,77.87 94.73,77.91 94.73,77.96 94.76,78 94.79,78.02 94.83,78.03 
			94.88,78.02 94.91,78 94.93,77.96 94.93,77.91 94.91,77.87 94.88,77.85 		"/>
		
			<polygon fill="none" stroke="#1D2132" stroke-width="0.1" stroke-linecap="round" stroke-linejoin="round" stroke-miterlimit="10" points="
			94.83,77.83 94.79,77.85 94.76,77.87 94.73,77.91 94.73,77.96 94.76,78 94.79,78.02 94.83,78.03 94.88,78.02 94.91,78 
			94.93,77.96 94.93,77.91 94.91,77.87 94.88,77.85 		"/>
		
			<line fill="none" stroke="#1D2132" stroke-width="0.1" stroke-linecap="round" stroke-linejoin="round" stroke-miterlimit="10" x1="94.83" y1="77.9" x2="94.83" y2="77.57"/>
		<polygon fill="#1D2132" points="94.83,77.43 94.79,77.45 94.76,77.47 94.73,77.51 94.73,77.56 94.76,77.6 94.79,77.62 
			94.83,77.63 94.88,77.62 94.91,77.6 94.93,77.56 94.93,77.51 94.91,77.47 94.88,77.45 		"/>
		
			<polygon fill="none" stroke="#1D2132" stroke-width="0.1" stroke-linecap="round" stroke-linejoin="round" stroke-miterlimit="10" points="
			94.83,77.43 94.79,77.45 94.76,77.47 94.73,77.51 94.73,77.56 94.76,77.6 94.79,77.62 94.83,77.63 94.88,77.62 94.91,77.6 
			94.93,77.56 94.93,77.51 94.91,77.47 94.88,77.45 		"/>
		
			<line fill="none" stroke="#1D2132" stroke-width="0.1" stroke-linecap="round" stroke-linejoin="round" stroke-miterlimit="10" x1="94.83" y1="77.49" x2="94.83" y2="77.16"/>
		<polygon fill="#1D2132" points="94.83,77.02 94.79,77.04 94.76,77.06 94.73,77.1 94.73,77.15 94.76,77.19 94.79,77.21 
			94.83,77.22 94.88,77.21 94.91,77.19 94.93,77.15 94.93,77.1 94.91,77.06 94.88,77.04 		"/>
		
			<polygon fill="none" stroke="#1D2132" stroke-width="0.1" stroke-linecap="round" stroke-linejoin="round" stroke-miterlimit="10" points="
			94.83,77.02 94.79,77.04 94.76,77.06 94.73,77.1 94.73,77.15 94.76,77.19 94.79,77.21 94.83,77.22 94.88,77.21 94.91,77.19 
			94.93,77.15 94.93,77.1 94.91,77.06 94.88,77.04 		"/>
		
			<line fill="none" stroke="#1D2132" stroke-width="0.1" stroke-linecap="round" stroke-linejoin="round" stroke-miterlimit="10" x1="94.83" y1="77.08" x2="94.83" y2="76.85"/>
		
			<line fill="none" stroke="#1D2132" stroke-width="0.1" stroke-linecap="round" stroke-linejoin="round" stroke-miterlimit="10" x1="96.13" y1="78.16" x2="95.9" y2="78.16"/>
		<polygon fill="#1D2132" points="95.85,78.06 95.81,78.07 95.78,78.09 95.75,78.13 95.75,78.18 95.78,78.22 95.81,78.24 
			95.85,78.26 95.9,78.24 95.93,78.22 95.95,78.18 95.95,78.13 95.93,78.09 95.9,78.07 		"/>
		
			<polygon fill="none" stroke="#1D2132" stroke-width="0.1" stroke-linecap="round" stroke-linejoin="round" stroke-miterlimit="10" points="
			95.85,78.06 95.81,78.07 95.78,78.09 95.75,78.13 95.75,78.18 95.78,78.22 95.81,78.24 95.85,78.26 95.9,78.24 95.93,78.22 
			95.95,78.18 95.95,78.13 95.93,78.09 95.9,78.07 		"/>
		
			<line fill="none" stroke="#1D2132" stroke-width="0.1" stroke-linecap="round" stroke-linejoin="round" stroke-miterlimit="10" x1="95.82" y1="78.16" x2="95.49" y2="78.16"/>
		<polygon fill="#1D2132" points="95.45,78.06 95.41,78.07 95.38,78.09 95.35,78.13 95.35,78.18 95.38,78.22 95.41,78.24 
			95.45,78.26 95.5,78.24 95.53,78.22 95.55,78.18 95.55,78.13 95.53,78.09 95.5,78.07 		"/>
		
			<polygon fill="none" stroke="#1D2132" stroke-width="0.1" stroke-linecap="round" stroke-linejoin="round" stroke-miterlimit="10" points="
			95.45,78.06 95.41,78.07 95.38,78.09 95.35,78.13 95.35,78.18 95.38,78.22 95.41,78.24 95.45,78.26 95.5,78.24 95.53,78.22 
			95.55,78.18 95.55,78.13 95.53,78.09 95.5,78.07 		"/>
		
			<line fill="none" stroke="#1D2132" stroke-width="0.1" stroke-linecap="round" stroke-linejoin="round" stroke-miterlimit="10" x1="95.41" y1="78.16" x2="95.08" y2="78.16"/>
		<polygon fill="#1D2132" points="95.04,78.06 95,78.07 94.97,78.09 94.94,78.13 94.94,78.18 94.97,78.22 95,78.24 95.04,78.26 
			95.09,78.24 95.12,78.22 95.14,78.18 95.14,78.13 95.12,78.09 95.09,78.07 		"/>
		
			<polygon fill="none" stroke="#1D2132" stroke-width="0.1" stroke-linecap="round" stroke-linejoin="round" stroke-miterlimit="10" points="
			95.04,78.06 95,78.07 94.97,78.09 94.94,78.13 94.94,78.18 94.97,78.22 95,78.24 95.04,78.26 95.09,78.24 95.12,78.22 
			95.14,78.18 95.14,78.13 95.12,78.09 95.09,78.07 		"/>
		
			<line fill="none" stroke="#1D2132" stroke-width="0.1" stroke-linecap="round" stroke-linejoin="round" stroke-miterlimit="10" x1="95" y1="78.16" x2="94.68" y2="78.16"/>
		<polygon fill="#1D2132" points="94.63,78.06 94.59,78.07 94.56,78.09 94.53,78.13 94.53,78.18 94.56,78.22 94.59,78.24 
			94.63,78.26 94.68,78.24 94.71,78.22 94.73,78.18 94.73,78.13 94.71,78.09 94.68,78.07 		"/>
		
			<polygon fill="none" stroke="#1D2132" stroke-width="0.1" stroke-linecap="round" stroke-linejoin="round" stroke-miterlimit="10" points="
			94.63,78.06 94.59,78.07 94.56,78.09 94.53,78.13 94.53,78.18 94.56,78.22 94.59,78.24 94.63,78.26 94.68,78.24 94.71,78.22 
			94.73,78.18 94.73,78.13 94.71,78.09 94.68,78.07 		"/>
		
			<line fill="none" stroke="#1D2132" stroke-width="0.1" stroke-linecap="round" stroke-linejoin="round" stroke-miterlimit="10" x1="94.59" y1="78.16" x2="94.27" y2="78.16"/>
		<polygon fill="#1D2132" points="94.22,78.06 94.18,78.07 94.15,78.09 94.12,78.13 94.12,78.18 94.15,78.22 94.18,78.24 
			94.22,78.26 94.27,78.24 94.3,78.22 94.32,78.18 94.32,78.13 94.3,78.09 94.27,78.07 		"/>
		
			<polygon fill="none" stroke="#1D2132" stroke-width="0.1" stroke-linecap="round" stroke-linejoin="round" stroke-miterlimit="10" points="
			94.22,78.06 94.18,78.07 94.15,78.09 94.12,78.13 94.12,78.18 94.15,78.22 94.18,78.24 94.22,78.26 94.27,78.24 94.3,78.22 
			94.32,78.18 94.32,78.13 94.3,78.09 94.27,78.07 		"/>
		
			<line fill="none" stroke="#1D2132" stroke-width="0.1" stroke-linecap="round" stroke-linejoin="round" stroke-miterlimit="10" x1="94.19" y1="78.16" x2="93.86" y2="78.16"/>
		<polygon fill="#1D2132" points="93.81,78.06 93.77,78.07 93.74,78.09 93.71,78.13 93.71,78.18 93.74,78.22 93.77,78.24 
			93.81,78.26 93.86,78.24 93.89,78.22 93.91,78.18 93.91,78.13 93.89,78.09 93.86,78.07 		"/>
		
			<polygon fill="none" stroke="#1D2132" stroke-width="0.1" stroke-linecap="round" stroke-linejoin="round" stroke-miterlimit="10" points="
			93.81,78.06 93.77,78.07 93.74,78.09 93.71,78.13 93.71,78.18 93.74,78.22 93.77,78.24 93.81,78.26 93.86,78.24 93.89,78.22 
			93.91,78.18 93.91,78.13 93.89,78.09 93.86,78.07 		"/>
		
			<line fill="none" stroke="#1D2132" stroke-width="0.1" stroke-linecap="round" stroke-linejoin="round" stroke-miterlimit="10" x1="93.78" y1="78.16" x2="93.55" y2="78.16"/>
		
			<polyline fill="none" stroke="#1D2132" stroke-width="0.1" stroke-linecap="round" stroke-linejoin="round" stroke-miterlimit="10" points="
			96.2,79.51 96.2,76.79 93.48,76.79 93.48,79.51 96.2,79.51 		"/>
		
			<path fill="none" stroke="#1D2132" stroke-width="0.1" stroke-linecap="round" stroke-linejoin="round" stroke-miterlimit="10" d="
			M93.86,78.15c0,0.54,0.43,0.97,0.97,0.97s0.97-0.43,0.97-0.97s-0.43-0.97-0.97-0.97S93.86,77.61,93.86,78.15"/>
	</g>
	<g>
		<path fill="#FFFFFF" stroke="#1D2132" stroke-width="0.3977" stroke-miterlimit="10" d="M73.21,70.19h4.85v9.35h-4.85V70.19z"/>
		<path fill="#FFFFFF" stroke="#1D2132" stroke-width="0.0795" stroke-linecap="square" stroke-miterlimit="22.9256" d="
			M73.85,77.72h3.67v1.19h-3.67V77.72z"/>
		<path fill="#1D2132" d="M77.52,78.91l-0.37-0.73l-3.29-0.45h3.66V78.91z"/>
		<path fill="#FFFFFF" stroke="#1D2132" stroke-width="0.0795" stroke-linecap="square" stroke-miterlimit="22.9256" d="
			M73.85,70.75h3.67v1.19h-3.67V70.75z"/>
		<path fill="#1D2132" d="M77.52,71.84l-0.37-0.74l-3.29-0.35h3.66V71.84z"/>
		<path fill="#FFFFFF" stroke="#1D2132" stroke-width="0.0795" stroke-linecap="square" stroke-miterlimit="22.9256" d="M73.85,72.5
			h3.67v4.68h-3.67V72.5z"/>
		<path fill="#1D2132" d="M77.52,77.06l-0.37-3.93l-3.29-0.64h3.66V77.06z"/>
	</g>
</g>
</svg>
