<?xml version="1.0" encoding="utf-8"?>
<!-- Generator: Adobe Illustrator 22.0.0, SVG Export Plug-In . SVG Version: 6.00 Build 0)  -->
<svg version="1.1" id="Layer_1" xmlns="http://www.w3.org/2000/svg" xmlns:xlink="http://www.w3.org/1999/xlink" x="0px" y="0px"
	 viewBox="0 0 100 82" enable-background="new 0 0 100 82" xml:space="preserve">
<g id="Background">
	<rect x="1.37" y="4.37" opacity="0.1" fill="#1D2132" enable-background="new    " width="97" height="75.63"/>
</g>
<g id="Plumbing">
	<g>
		<g>
			<path fill="#FFFFFF" stroke="#1D2132" stroke-width="0.1" stroke-linecap="square" stroke-miterlimit="10" d="M91.48,74.97
				c-0.1,0-0.19,0.1-0.19,0.23c0,0.13,0.08,0.23,0.19,0.23s0.19-0.1,0.19-0.23C91.66,75.07,91.58,74.97,91.48,74.97z"/>
			
				<ellipse fill="#FFFFFF" stroke="#1D2132" stroke-width="0.1" stroke-linecap="square" stroke-miterlimit="10" cx="91.48" cy="74.21" rx="0.19" ry="0.23"/>
			<path fill="#FFFFFF" stroke="#1D2132" stroke-width="0.1" stroke-linecap="square" stroke-miterlimit="10" d="M91.48,69.93
				c-0.1,0-0.19,0.1-0.19,0.23c0,0.13,0.08,0.23,0.19,0.23s0.19-0.1,0.19-0.23C91.66,70.03,91.58,69.93,91.48,69.93z"/>
			<path fill="#FFFFFF" stroke="#1D2132" stroke-width="0.1" stroke-linecap="square" stroke-miterlimit="10" d="M91.48,69.94
				c0-0.52,0.11-0.94,0.25-0.94h0.63c0.14,0,0.25,0.42,0.25,0.94v5.5c0,0.52-0.11,0.94-0.25,0.94h-0.63c-0.14,0-0.25-0.42-0.25-0.94
				V69.94z"/>
			
				<rect x="91.8" y="68.55" fill="#FFFFFF" stroke="#1D2132" stroke-width="0.1" stroke-linecap="square" stroke-miterlimit="10" width="5.52" height="8.19"/>
			<path fill="#FFFFFF" stroke="#1D2132" stroke-width="0.1" stroke-linecap="square" stroke-miterlimit="10" d="M92.1,69.94
				c0-0.52,0.9-0.94,2.01-0.94h0.91c1.11,0,2.01,0.42,2.01,0.94v5.5c0,0.52-0.9,0.94-2.01,0.94h-0.91c-1.11,0-2.01-0.42-2.01-0.94
				V69.94z"/>
		</g>
		<g>
			<path fill="#FFFFFF" stroke="#1D2132" stroke-width="0.1" stroke-linecap="square" stroke-miterlimit="10" d="M96.35,70.07v5.24
				c0,0.09,0.07,0.16,0.16,0.16h0.07c0.09,0,0.16-0.07,0.16-0.16v-5.24c0-0.09-0.07-0.16-0.16-0.16h-0.07
				C96.42,69.91,96.35,69.99,96.35,70.07z"/>
			<g>
				
					<rect x="96.74" y="74.91" fill="#FFFFFF" stroke="#1D2132" stroke-width="0.1" stroke-linecap="square" stroke-miterlimit="10" width="0.88" height="0.33"/>
				
					<rect x="96.73" y="70.12" fill="#FFFFFF" stroke="#1D2132" stroke-width="0.1" stroke-linecap="square" stroke-miterlimit="10" width="0.88" height="0.33"/>
			</g>
			<g>
				
					<rect x="97.61" y="74.73" fill="#FFFFFF" stroke="#1D2132" stroke-width="0.1" stroke-linecap="square" stroke-miterlimit="10" width="0.17" height="0.69"/>
				
					<rect x="97.62" y="69.94" fill="#FFFFFF" stroke="#1D2132" stroke-width="0.1" stroke-linecap="square" stroke-miterlimit="10" width="0.17" height="0.69"/>
			</g>
		</g>
	</g>
	<g>
		<g>
			<path fill="#FFFFFF" stroke="#1D1D1B" stroke-width="0.1" stroke-linecap="square" stroke-miterlimit="10" d="M96.97,57.93
				c0.16,0,0.29,0.13,0.29,0.29v0.1c0,0.56-0.45,1.01-1.01,1.01h-4.78c-0.16,0-0.29-0.13-0.29-0.29s0.13-0.29,0.29-0.29h4.78
				c0.24,0,0.43-0.19,0.43-0.43v-0.1C96.68,58.06,96.81,57.93,96.97,57.93z"/>
			
				<rect x="96.42" y="57.77" fill="#FFFFFF" stroke="#1D1D1B" stroke-width="0.1" stroke-linecap="square" stroke-miterlimit="10" width="1.23" height="0.62"/>
			<path fill="#FFFFFF" stroke="#1D1D1B" stroke-width="0.1" stroke-linecap="square" stroke-miterlimit="10" d="M96.97,54.32
				c0.16,0,0.29-0.13,0.29-0.29v-0.1c0-0.56-0.45-1.01-1.01-1.01h-4.78c-0.16,0-0.29,0.13-0.29,0.29s0.13,0.29,0.29,0.29h4.78
				c0.24,0,0.43,0.19,0.43,0.43v0.1C96.68,54.19,96.81,54.32,96.97,54.32z"/>
			
				<rect x="96.42" y="53.87" fill="#FFFFFF" stroke="#1D1D1B" stroke-width="0.1" stroke-linecap="square" stroke-miterlimit="10" width="1.23" height="0.62"/>
		</g>
		
			<rect x="93.42" y="52.57" fill="#FFFFFF" stroke="#1D1D1B" stroke-width="0.1" stroke-linecap="square" stroke-miterlimit="10" width="1.3" height="7.11"/>
		
			<rect x="91.83" y="52.57" fill="#FFFFFF" stroke="#1D1D1B" stroke-width="0.1" stroke-linecap="square" stroke-miterlimit="10" width="1.3" height="7.11"/>
		
			<rect x="90.24" y="52.57" fill="#FFFFFF" stroke="#1D1D1B" stroke-width="0.1" stroke-linecap="square" stroke-miterlimit="10" width="1.3" height="7.11"/>
	</g>
	<path fill="#FFFFFF" stroke="#1D1D1B" stroke-width="0.1" stroke-linecap="square" stroke-miterlimit="10" d="M88.61,46.86h0.73
		v0.76c0,0.21,0.17,0.38,0.38,0.38h5.3c0.61,0,1.11,0.5,1.11,1.11v14.78c0,0.21,0.17,0.38,0.38,0.38h1.14V65H96.5
		c-0.61,0-1.11-0.5-1.11-1.11V49.11c0-0.21-0.17-0.38-0.38-0.38h-5.3c-0.61,0-1.11-0.5-1.11-1.11v-0.76H88.61z"/>
	<g>
		
			<circle fill="#FFFFFF" stroke="#1D1D1B" stroke-width="0.1" stroke-linecap="square" stroke-miterlimit="10" cx="91.94" cy="51.78" r="1.21"/>
		<path fill="#FFFFFF" stroke="#1D1D1B" stroke-width="0.1" stroke-linecap="square" stroke-miterlimit="10" d="M91.69,47.35v4.24
			c0,0.14,0.11,0.24,0.24,0.24s0.24-0.11,0.24-0.24v-4.24H91.69z"/>
		
			<rect x="90.96" y="46.86" fill="#FFFFFF" stroke="#1D1D1B" stroke-width="0.1" stroke-linecap="square" stroke-miterlimit="10" width="1.95" height="0.49"/>
	</g>
	<g>
		<path fill="#FFFFFF" stroke="#1D1D1B" stroke-width="0.1" stroke-linecap="square" stroke-miterlimit="10" d="M78.51,46.85v3.88
			c0,1.44-1.43,1.45-4.04,1.45s-4.03,0.05-4.03-1.45v-3.88H78.51z"/>
		
			<line fill="none" stroke="#1D1D1B" stroke-width="0.1" stroke-linecap="square" stroke-miterlimit="10" x1="73.85" y1="49.96" x2="74.25" y2="49.96"/>
		
			<line fill="none" stroke="#1D1D1B" stroke-width="0.1" stroke-linecap="square" stroke-miterlimit="10" x1="74.48" y1="49.28" x2="74.48" y2="49.71"/>
		
			<line fill="none" stroke="#1D1D1B" stroke-width="0.1" stroke-linecap="square" stroke-miterlimit="10" x1="74.71" y1="49.96" x2="75.11" y2="49.96"/>
		
			<line fill="none" stroke="#1D1D1B" stroke-width="0.1" stroke-linecap="square" stroke-miterlimit="10" x1="74.48" y1="50.21" x2="74.48" y2="50.64"/>
		<path fill="none" stroke="#1D1D1B" stroke-width="0.1" stroke-linecap="square" stroke-miterlimit="10" d="M76.68,49.14
			c0.62,0.41,1.1,1,1.37,1.7"/>
		<path fill="none" stroke="#1D1D1B" stroke-width="0.1" stroke-linecap="square" stroke-miterlimit="10" d="M74.54,48.64
			c0.1-0.01,0.19-0.01,0.29-0.01c0.66,0,1.3,0.18,1.86,0.52"/>
		<path fill="none" stroke="#1D1D1B" stroke-width="0.1" stroke-linecap="square" stroke-miterlimit="10" d="M70.91,50.85
			c0.28-0.7,0.78-1.3,1.42-1.7"/>
		<path fill="none" stroke="#1D1D1B" stroke-width="0.1" stroke-linecap="square" stroke-miterlimit="10" d="M72.33,49.14
			c0.57-0.34,1.22-0.52,1.88-0.52c0.1,0,0.2,0,0.29,0.01"/>
		<path fill="none" stroke="#1D1D1B" stroke-width="0.1" stroke-linecap="square" stroke-miterlimit="10" d="M72.21,49.27
			c0.76-0.12,1.52-0.17,2.29-0.17c0.77,0,1.53,0.06,2.29,0.17"/>
		<path fill="none" stroke="#1D1D1B" stroke-width="0.1" stroke-linecap="square" stroke-miterlimit="10" d="M72.36,47.86
			c0.7-0.11,1.41-0.16,2.12-0.16"/>
		<path fill="none" stroke="#1D1D1B" stroke-width="0.1" stroke-linecap="square" stroke-miterlimit="10" d="M70.91,51.17
			c0-0.02,0-0.04,0-0.06c0-1.11,0.38-2.19,1.06-3.02"/>
		<path fill="none" stroke="#1D1D1B" stroke-width="0.1" stroke-linecap="square" stroke-miterlimit="10" d="M71.97,48.09
			c0.1-0.12,0.24-0.2,0.38-0.22"/>
		<path fill="none" stroke="#1D1D1B" stroke-width="0.1" stroke-linecap="square" stroke-miterlimit="10" d="M74.48,47.7
			c0.71,0,1.42,0.06,2.12,0.16"/>
		<path fill="none" stroke="#1D1D1B" stroke-width="0.1" stroke-linecap="square" stroke-miterlimit="10" d="M76.6,47.86
			c0.15,0.02,0.28,0.1,0.38,0.22"/>
		<path fill="none" stroke="#1D1D1B" stroke-width="0.1" stroke-linecap="square" stroke-miterlimit="10" d="M74.48,49.44
			c-0.27,0-0.49,0.23-0.49,0.52s0.22,0.52,0.49,0.52s0.49-0.23,0.49-0.52S74.75,49.44,74.48,49.44"/>
		<path fill="none" stroke="#1D1D1B" stroke-width="0.1" stroke-linecap="square" stroke-miterlimit="10" d="M74.48,49.68
			c-0.15,0-0.26,0.13-0.26,0.28c0,0.16,0.12,0.28,0.26,0.28c0.15,0,0.26-0.13,0.26-0.28C74.74,49.8,74.63,49.68,74.48,49.68"/>
		<path fill="none" stroke="#1D1D1B" stroke-width="0.1" stroke-linecap="square" stroke-miterlimit="10" d="M70.91,51.11
			c-0.01,0.74,7.13,0.79,7.13,0.06c0-0.02,0-0.04,0-0.05c0-1.11-0.38-2.19-1.07-3.02"/>
	</g>
	<path fill="#FFFFFF" stroke="#1D1D1B" stroke-width="0.1" stroke-linecap="square" stroke-miterlimit="10" d="M80.06,46.85v5
		c0,0.97-0.85,1.76-1.9,1.76H70.8c-1.05,0-1.9-0.79-1.9-1.76v-5.08h0.63v5.08c0,0.61,0.57,1.11,1.27,1.11h7.36
		c0.7,0,1.27-0.5,1.27-1.11v-5H80.06z"/>
	<g>
		<polygon fill="#FFFFFF" points="80.57,79.41 77.72,79.41 77.72,77.42 77.72,77.4 77.74,77.37 77.74,77.35 77.75,77.32 
			77.75,77.29 77.76,77.26 77.78,77.25 77.79,77.23 77.8,77.21 77.82,77.18 77.85,77.17 77.87,77.16 77.87,77.14 77.9,77.13 
			77.92,77.11 77.95,77.1 77.95,71.83 77.97,71.7 77.97,71.58 77.98,71.44 78,71.32 78.05,71.2 78.06,71.08 78.13,70.96 
			78.17,70.84 78.23,70.72 78.29,70.62 78.36,70.51 78.44,70.41 78.52,70.31 78.6,70.22 78.69,70.13 78.79,70.05 78.88,69.96 
			78.98,69.89 79.06,69.82 79.18,69.77 79.29,69.7 79.4,69.65 79.5,69.6 79.61,69.55 79.73,69.51 79.84,69.48 79.96,69.45 
			80.08,69.42 80.2,69.41 80.33,69.39 80.45,69.39 80.57,69.39 80.69,69.39 80.81,69.39 80.93,69.41 81.05,69.42 81.17,69.45 
			81.28,69.48 81.4,69.51 81.53,69.55 81.63,69.6 81.75,69.65 81.86,69.7 81.96,69.77 82.06,69.82 82.16,69.89 82.27,69.96 
			82.36,70.05 82.44,70.13 82.53,70.22 82.62,70.31 82.71,70.41 82.78,70.51 82.84,70.62 82.9,70.72 82.96,70.84 83.01,70.96 
			83.06,71.08 83.09,71.2 83.13,71.32 83.15,71.44 83.18,71.58 83.18,71.7 83.18,71.83 83.18,77.1 83.21,77.11 83.24,77.13 
			83.27,77.14 83.27,77.16 83.29,77.17 83.32,77.18 83.33,77.21 83.36,77.23 83.37,77.25 83.37,77.26 83.37,77.29 83.37,77.32 
			83.4,77.35 83.4,77.37 83.41,77.4 83.41,77.42 83.41,79.41 		"/>
		
			<line fill="none" stroke="#1D2132" stroke-width="0.1" stroke-linecap="square" stroke-miterlimit="10" x1="77.95" y1="77.1" x2="77.95" y2="71.83"/>
		
			<line fill="none" stroke="#1D2132" stroke-width="0.1" stroke-linecap="square" stroke-miterlimit="10" x1="77.72" y1="79.41" x2="83.41" y2="79.41"/>
		
			<line fill="none" stroke="#1D2132" stroke-width="0.1" stroke-linecap="square" stroke-miterlimit="10" x1="77.72" y1="79.41" x2="77.72" y2="77.42"/>
		
			<line fill="none" stroke="#1D2132" stroke-width="0.1" stroke-linecap="square" stroke-miterlimit="10" x1="80.57" y1="76.17" x2="82.68" y2="76.17"/>
		
			<line fill="none" stroke="#1D2132" stroke-width="0.1" stroke-linecap="square" stroke-miterlimit="10" x1="77.95" y1="71.83" x2="78.47" y2="76.17"/>
		
			<line fill="none" stroke="#1D2132" stroke-width="0.1" stroke-linecap="square" stroke-miterlimit="10" x1="80.57" y1="76.17" x2="78.47" y2="76.17"/>
		
			<line fill="none" stroke="#1D2132" stroke-width="0.1" stroke-linecap="square" stroke-miterlimit="10" x1="83.18" y1="71.83" x2="82.68" y2="76.17"/>
		
			<line fill="none" stroke="#1D2132" stroke-width="0.1" stroke-linecap="square" stroke-miterlimit="10" x1="83.18" y1="77.1" x2="83.18" y2="71.83"/>
		
			<line fill="none" stroke="#1D2132" stroke-width="0.1" stroke-linecap="square" stroke-miterlimit="10" x1="83.41" y1="79.41" x2="83.41" y2="77.42"/>
		<path fill="none" stroke="#1D2132" stroke-width="0.1" stroke-linecap="square" stroke-miterlimit="10" d="M83.12,77.09
			c-0.85-0.1-1.7-0.14-2.55-0.14c-0.85,0-1.7,0.06-2.55,0.15"/>
		<path fill="none" stroke="#1D2132" stroke-width="0.1" stroke-linecap="square" stroke-miterlimit="10" d="M78.02,77.08
			c-0.16,0.03-0.29,0.18-0.29,0.34"/>
		<path fill="none" stroke="#1D2132" stroke-width="0.1" stroke-linecap="square" stroke-miterlimit="10" d="M83.18,71.83
			c0-1.35-1.17-2.44-2.62-2.44c-1.44,0-2.62,1.1-2.62,2.44"/>
		<path fill="none" stroke="#1D2132" stroke-width="0.1" stroke-linecap="square" stroke-miterlimit="10" d="M83.41,77.43
			c0-0.17-0.14-0.33-0.29-0.34"/>
		<path fill="none" stroke="#1D2132" stroke-width="0.1" stroke-linecap="square" stroke-miterlimit="10" d="M80.57,78.42
			c-0.15,0-0.27-0.13-0.27-0.28c0-0.14,0.12-0.28,0.27-0.28c0.15,0,0.27,0.13,0.27,0.28C80.82,78.3,80.72,78.42,80.57,78.42"/>
	</g>
	<g>
		
			<rect x="83.97" y="78.52" fill="#FFFFFF" stroke="#1D1D1B" stroke-width="0.1" stroke-linecap="square" stroke-miterlimit="10" width="1.44" height="0.98"/>
		<path fill="#FFFFFF" stroke="#1D1D1B" stroke-width="0.1" stroke-linecap="square" stroke-miterlimit="10" d="M84.38,78.64v-6.89
			c0-0.18,0.14-0.32,0.32-0.32s0.32,0.14,0.32,0.32v6.89c0,0.18-0.14,0.32-0.32,0.32S84.38,78.81,84.38,78.64z"/>
	</g>
	<g>
		
			<rect x="75.73" y="78.52" fill="#FFFFFF" stroke="#1D1D1B" stroke-width="0.1" stroke-linecap="square" stroke-miterlimit="10" width="1.44" height="0.98"/>
		<path fill="#FFFFFF" stroke="#1D1D1B" stroke-width="0.1" stroke-linecap="square" stroke-miterlimit="10" d="M76.13,78.64v-6.89
			c0-0.18,0.14-0.32,0.32-0.32s0.32,0.14,0.32,0.32v6.89c0,0.18-0.14,0.32-0.32,0.32S76.13,78.81,76.13,78.64z"/>
	</g>
</g>
<g id="Furniture">
	<g>
		
			<rect x="2.17" y="71.15" fill="#FFFFFF" stroke="#1D2132" stroke-width="0.1" stroke-linecap="square" stroke-miterlimit="22.9256" width="34.88" height="8.23"/>
		
			<rect x="16.84" y="71.15" fill="#FFFFFF" stroke="#1D2132" stroke-width="0.1" stroke-linecap="square" stroke-miterlimit="22.9256" width="6.41" height="8.23"/>
		
			<rect x="30.13" y="71.15" fill="#FFFFFF" stroke="#1D2132" stroke-width="0.1" stroke-linecap="square" stroke-miterlimit="22.9256" width="7.27" height="8.23"/>
		
			<rect x="2.17" y="71.15" fill="#FFFFFF" stroke="#1D2132" stroke-width="0.1" stroke-linecap="square" stroke-miterlimit="22.9256" width="7.08" height="8.23"/>
		<g>
			
				<line fill="none" stroke="#1D2132" stroke-width="0.1" stroke-linecap="square" stroke-miterlimit="22.9256" x1="5.79" y1="76.29" x2="5.79" y2="74.24"/>
			
				<line fill="none" stroke="#1D2132" stroke-width="0.1" stroke-linecap="square" stroke-miterlimit="22.9256" x1="5.07" y1="75.99" x2="6.52" y2="74.53"/>
			
				<line fill="none" stroke="#1D2132" stroke-width="0.1" stroke-linecap="square" stroke-miterlimit="22.9256" x1="4.76" y1="75.28" x2="6.83" y2="75.28"/>
			
				<line fill="none" stroke="#1D2132" stroke-width="0.1" stroke-linecap="square" stroke-miterlimit="22.9256" x1="5.07" y1="74.53" x2="6.52" y2="75.99"/>
		</g>
		<g>
			
				<rect x="17.6" y="71.48" fill="#FFFFFF" stroke="#1D2132" stroke-width="0.1" stroke-linecap="square" stroke-miterlimit="22.9256" width="4.8" height="7.55"/>
			<g>
				<path fill="#FFFFFF" stroke="#1D2132" stroke-width="0.1" stroke-linecap="square" stroke-miterlimit="22.9256" d="M21.33,73.54
					c0,0.73-0.59,1.31-1.31,1.31c-0.73,0-1.31-0.58-1.31-1.31c0-0.73,0.58-1.31,1.31-1.31C20.73,72.22,21.33,72.82,21.33,73.54"/>
				<path fill="#FFFFFF" stroke="#1D2132" stroke-width="0.1" stroke-linecap="square" stroke-miterlimit="22.9256" d="M21.33,77.26
					c0,0.72-0.59,1.31-1.31,1.31c-0.73,0-1.31-0.58-1.31-1.31s0.58-1.31,1.31-1.31C20.73,75.95,21.33,76.54,21.33,77.26"/>
				<path fill="#FFFFFF" stroke="#1D2132" stroke-width="0.1" stroke-linecap="square" stroke-miterlimit="22.9256" d="M21.07,73.54
					c0,0.58-0.47,1.04-1.04,1.04c-0.58,0-1.04-0.47-1.04-1.04c0-0.58,0.47-1.04,1.04-1.04C20.6,72.48,21.07,72.97,21.07,73.54"/>
				<path fill="#FFFFFF" stroke="#1D2132" stroke-width="0.1" stroke-linecap="square" stroke-miterlimit="22.9256" d="M21.07,77.26
					c0,0.58-0.47,1.04-1.04,1.04c-0.58,0-1.04-0.47-1.04-1.04c0-0.58,0.47-1.04,1.04-1.04S21.07,76.68,21.07,77.26"/>
			</g>
		</g>
		<g>
			<path fill="#FFFFFF" stroke="#1D2132" stroke-width="0.1" stroke-linecap="square" stroke-miterlimit="22.9256" d="M32.18,77.86
				h3.18c0.27,0,0.47-0.21,0.47-0.47v-5.24c0-0.27-0.21-0.47-0.47-0.47h-3.18c-0.27,0-0.47,0.21-0.47,0.47v5.24
				C31.7,77.65,31.9,77.86,32.18,77.86z"/>
			<g>
				<path fill="#FFFFFF" stroke="#1D2132" stroke-width="0.1" stroke-linecap="square" stroke-miterlimit="22.9256" d="M34.09,76.68
					c0-0.21-0.15-0.37-0.33-0.37c-0.18,0-0.33,0.17-0.33,0.37c0,0.21,0.15,0.37,0.33,0.37C33.94,77.05,34.11,76.89,34.09,76.68z"/>
				<g>
					<path fill="#FFFFFF" stroke="#1D2132" stroke-width="0.1" stroke-linecap="square" stroke-miterlimit="22.9256" d="
						M34.33,78.37c-0.01-0.28-0.26-0.52-0.57-0.52c-0.32,0-0.57,0.23-0.57,0.52s0.25,0.52,0.57,0.52
						C34.08,78.89,34.33,78.65,34.33,78.37z"/>
					<path fill="#FFFFFF" stroke="#1D2132" stroke-width="0.1" stroke-linecap="square" stroke-miterlimit="22.9256" d="
						M33.75,75.46c-0.1,0-0.17,0.1-0.17,0.27l0.01,2.67c0,0.15,0.07,0.27,0.17,0.27l0,0c0.1,0,0.17-0.11,0.17-0.27l-0.01-2.67
						C33.92,75.58,33.85,75.46,33.75,75.46L33.75,75.46z"/>
					<path fill="#FFFFFF" stroke="#1D2132" stroke-width="0.1" stroke-linecap="square" stroke-miterlimit="22.9256" d="
						M34.55,78.34c0-0.09-0.35-0.15-0.78-0.15c-0.42,0-0.78,0.07-0.78,0.15c0,0.1,0.35,0.15,0.78,0.15
						C34.19,78.51,34.56,78.44,34.55,78.34z"/>
				</g>
			</g>
		</g>
	</g>
	<g>
		<g>
			
				<rect x="2.25" y="6.68" fill="#FFFFFF" stroke="#1D2132" stroke-width="0.1" stroke-linecap="square" stroke-miterlimit="10" width="4.78" height="27.66"/>
			<g>
				<polygon fill="#FFFFFF" stroke="#1D2132" stroke-width="0.1" stroke-linecap="square" stroke-miterlimit="10" points="
					7.34,31.58 7.34,29.71 7.03,29.71 7.03,29.21 7.51,29.21 7.51,32.07 7.03,32.07 7.03,31.58 				"/>
				<polygon fill="#FFFFFF" stroke="#1D2132" stroke-width="0.1" stroke-linecap="square" stroke-miterlimit="10" points="
					7.34,11.32 7.34,9.45 7.03,9.45 7.03,8.96 7.51,8.96 7.51,11.82 7.03,11.82 7.03,11.32 				"/>
			</g>
			<g>
				<polygon fill="#FFFFFF" stroke="#1D2132" stroke-width="0.1" stroke-linecap="square" stroke-miterlimit="10" points="
					7.34,26.25 7.34,24.38 7.03,24.38 7.03,23.89 7.51,23.89 7.51,26.76 7.03,26.76 7.03,26.25 				"/>
				<polygon fill="#FFFFFF" stroke="#1D2132" stroke-width="0.1" stroke-linecap="square" stroke-miterlimit="10" points="
					7.34,16.65 7.34,14.77 7.03,14.77 7.03,14.28 7.51,14.28 7.51,17.14 7.03,17.14 7.03,16.65 				"/>
			</g>
		</g>
		<g>
			<path fill="#FFFFFF" stroke="#1D2132" stroke-width="0.1" stroke-linecap="square" stroke-miterlimit="10" d="M3.2,19.57v1.9
				c0,0.46,0.37,0.83,0.83,0.83H4.3c0.46,0,0.83-0.37,0.83-0.83v-1.9c0-0.46-0.37-0.83-0.83-0.83H4.03
				C3.57,18.74,3.19,19.1,3.2,19.57z"/>
			<path fill="#FFFFFF" stroke="#1D2132" stroke-width="0.1" stroke-linecap="square" stroke-miterlimit="10" d="M3.98,19.75v1.53
				c0,0.2,0.16,0.36,0.36,0.36h0.08c0.2,0,0.36-0.16,0.36-0.36v-1.53c0-0.2-0.16-0.36-0.36-0.36H4.34
				C4.14,19.4,3.98,19.55,3.98,19.75z"/>
			
				<rect x="4.62" y="14.23" fill="#FFFFFF" stroke="#1D2132" stroke-width="0.1" stroke-linecap="square" stroke-miterlimit="10" width="0.16" height="12.57"/>
			<polygon fill="#FFFFFF" stroke="#1D2132" stroke-width="0.1" stroke-linecap="square" stroke-miterlimit="10" points="
				4.29,24.98 4.62,26.8 4.62,14.23 4.29,16.04 			"/>
		</g>
	</g>
	<g>
		<path fill="#FFFFFF" stroke="#1D2132" stroke-width="0.1" stroke-linecap="square" stroke-miterlimit="10" d="M40.07,48.54
			c-1,0.31-1.82,1.3-3.99,1.31c-2.17,0.01-4.46-2.61-3.37-6.36s3.13-4.7,4.9-4.51s2.67,1.38,3.25,2.02c1.34,1.45,1.35,2,1.92,2.45
			c1.16,0.92,0.62,2.98,0.01,3.73C41.67,48.54,41.07,48.22,40.07,48.54z"/>
		<path fill="none" stroke="#1D2132" stroke-width="0.1" stroke-linecap="square" stroke-miterlimit="10" d="M33.47,48.49
			c0,0,0.44,0.5,1.14,0.84s0.91,0.21,1.82,0.15c0.91-0.06,1.35-0.06,2.59-0.87c0.88-0.57,0.78-0.89,1.1-0.77
			c0.19,0.07,0.72-0.06,1.15-0.48c0.71-0.69,0.85-1.36,1.03-2.26c0.18-0.91-0.39-1.5-0.49-1.58c-0.1-0.08,0.2-0.39-0.13-0.9
			c-1.1-1.69-1.15-1.28-2.15-2.55c-0.5-0.63-1.92-1.1-1.92-1.1"/>
		<path fill="none" stroke="#1D2132" stroke-width="0.1" stroke-linecap="square" stroke-miterlimit="10" d="M40.81,43.58
			c0,0-0.13,0.05-0.69,0c-0.55-0.05-1.35-0.3-1.35-0.3s0,0-0.07-0.14c-0.07-0.13-0.19-0.44-0.46-0.83s0.22-1.09,0.22-1.09"/>
		<path fill="none" stroke="#1D2132" stroke-width="0.1" stroke-linecap="square" stroke-miterlimit="10" d="M39.62,47.48
			c0,0-0.2-0.25-0.7-0.54s-1.06-0.59-1.06-0.59s0.09-0.98,0.38-1.75s0.53-1.31,0.53-1.31"/>
		<path fill="none" stroke="#1D2132" stroke-width="0.1" stroke-linecap="square" stroke-miterlimit="10" d="M37.86,46.36
			c0,0-0.45,0-1.05,0.18s-0.79,0.3-0.82,0.74c-0.03,0.44,0.27,1.08,0.27,1.08"/>
		<path fill="none" stroke="#1D2132" stroke-width="0.1" stroke-linecap="square" stroke-miterlimit="10" d="M34.33,43.4
			c0,0,0.15,0.12,0.44,0.2c0.29,0.07,0.41,0.03,0.41,0.03s0,0,0.23-0.56s1.1-1.32,1.1-1.32"/>
		<path fill="none" stroke="#1D2132" stroke-width="0.1" stroke-linecap="square" stroke-miterlimit="10" d="M34.64,46.48
			c0.25-0.06,0.39-0.31,0.39-0.31s0,0-0.09-0.21s-0.09-0.77,0.08-1.24c0.16-0.47,0.16-1.09,0.16-1.09"/>
		<path fill="none" stroke="#1D2132" stroke-width="0.1" stroke-linecap="square" stroke-miterlimit="10" d="M35.83,41.12
			c0,0,0.19,0.05,0.37,0.15c0.18,0.11,0.31,0.48,0.31,0.48"/>
		<path fill="#FFFFFF" stroke="#1D2132" stroke-width="0.1" stroke-linecap="square" stroke-miterlimit="10" d="M42.64,44.77
			c0.29,0.14,0.21,0.38,0.15,0.71s-0.15,0.53-0.23,0.88c-0.08,0.34-0.41,0.38-0.41,0.38l-0.52-0.18c0,0,0.02-0.15,0.07-0.15
			c0.07-0.01,0.33,0.22,0.45,0.14c0.2-0.14,0.09-0.43,0.15-0.76c0.06-0.33,0.22-0.54,0.21-0.75c0-0.12-0.24-0.22-0.37-0.2
			c-0.08,0.01-0.05-0.12-0.05-0.12S42.35,44.62,42.64,44.77z"/>
	</g>
	<g>
		<g>
			<path fill="#FFFFFF" stroke="#1D2132" stroke-width="0.1" stroke-linecap="square" stroke-miterlimit="10" d="M5.4,59.25
				c0.78-0.19,1.77-0.15,2.41-0.15s1.63-0.04,2.4,0.15c0.79,0.19,1.12,0.6,1.01,1.96c-0.11,1.36-0.08,3.2-0.34,3.88
				c-0.23,0.6-1.54,0.15-3.08,0.15s-2.85,0.45-3.08-0.15c-0.26-0.68-0.22-2.52-0.33-3.88C4.28,59.85,4.62,59.44,5.4,59.25z"/>
			<path fill="#FFFFFF" stroke="#1D2132" stroke-width="0.1" stroke-linecap="square" stroke-miterlimit="10" d="M5.58,59.22
				c0.72-0.15,1.64-0.12,2.23-0.12c0.59,0,1.51-0.02,2.23,0.13c0.73,0.16,1.04,0.5,0.94,1.61c-0.11,1.11-0.08,2.62-0.32,3.18
				c-0.22,0.5-1.43,0.96-2.86,0.96c-1.42,0-2.63-0.47-2.85-0.96c-0.24-0.56-0.21-2.08-0.31-3.19S4.85,59.38,5.58,59.22z"/>
			<g>
				<path fill="#FFFFFF" stroke="#1D2132" stroke-width="0.1" stroke-linecap="square" stroke-miterlimit="10" d="M4.55,66.02
					c0-1.65,1.51-0.49,3.25-0.49c1.68,0,3.06-1.12,3.24,0.43c-0.43,0.14-0.87,0.26-1.32,0.35C7.94,66.65,6.17,66.53,4.55,66.02z"/>
				<path fill="#FFFFFF" stroke="#1D2132" stroke-width="0.1" stroke-linecap="square" stroke-miterlimit="10" d="M4.48,66
					c0.03,0,0.05,0.01,0.08,0.02c1.62,0.51,3.39,0.64,5.17,0.29c0.45-0.09,0.89-0.21,1.32-0.35c0.03-0.01,0.06-0.02,0.09-0.03
					l0.1,0.3c-0.08,0.03-0.16,0.06-0.24,0.08c-0.39,0.12-0.79,0.23-1.21,0.31c-1.76,0.35-3.5,0.24-5.11-0.23
					c-0.1-0.03-0.2-0.06-0.3-0.09L4.48,66z"/>
			</g>
		</g>
		<g>
			<path fill="#FFFFFF" stroke="#1D2132" stroke-width="0.1" stroke-linecap="square" stroke-miterlimit="10" d="M5.4,47.44
				c0.78,0.19,1.77,0.15,2.41,0.15s1.63,0.04,2.4-0.15c0.79-0.19,1.12-0.6,1.01-1.96c-0.11-1.36-0.08-3.2-0.34-3.88
				c-0.23-0.6-1.54-0.15-3.08-0.15S4.95,41,4.72,41.6c-0.26,0.68-0.22,2.52-0.33,3.88C4.28,46.83,4.62,47.25,5.4,47.44z"/>
			<path fill="#FFFFFF" stroke="#1D2132" stroke-width="0.1" stroke-linecap="square" stroke-miterlimit="10" d="M5.58,47.46
				c0.72,0.15,1.64,0.12,2.23,0.12c0.59,0,1.51,0.02,2.23-0.13c0.73-0.16,1.04-0.5,0.94-1.61c-0.11-1.11-0.08-2.62-0.32-3.18
				c-0.22-0.5-1.43-0.96-2.86-0.96c-1.42,0-2.63,0.47-2.85,0.96c-0.24,0.56-0.21,2.08-0.31,3.19C4.54,46.97,4.85,47.31,5.58,47.46z"
				/>
			<g>
				<path fill="#FFFFFF" stroke="#1D2132" stroke-width="0.1" stroke-linecap="square" stroke-miterlimit="10" d="M4.55,40.67
					c0,1.65,1.51,0.49,3.25,0.49c1.68,0,3.06,1.12,3.24-0.43c-0.43-0.14-0.87-0.26-1.32-0.35C7.94,40.03,6.17,40.15,4.55,40.67z"/>
				<path fill="#FFFFFF" stroke="#1D2132" stroke-width="0.1" stroke-linecap="square" stroke-miterlimit="10" d="M4.48,40.69
					c0.03,0,0.05-0.01,0.08-0.02c1.62-0.51,3.39-0.64,5.17-0.29c0.45,0.09,0.89,0.21,1.32,0.35c0.03,0.01,0.06,0.02,0.09,0.03
					l0.1-0.3c-0.08-0.03-0.16-0.06-0.24-0.08c-0.39-0.12-0.79-0.23-1.21-0.31c-1.76-0.35-3.5-0.24-5.11,0.23
					c-0.1,0.03-0.2,0.06-0.3,0.09L4.48,40.69z"/>
			</g>
		</g>
		<g>
			<path fill="#FFFFFF" stroke="#1D2132" stroke-width="0.1" stroke-linecap="square" stroke-miterlimit="10" d="M13.49,50.63
				c-0.19,0.78-0.15,1.77-0.15,2.41c0,0.64-0.04,1.63,0.15,2.4c0.19,0.79,0.6,1.12,1.96,1.01s3.2-0.08,3.88-0.34
				c0.6-0.23,0.15-1.54,0.15-3.08c0-1.54,0.45-2.85-0.15-3.08c-0.68-0.26-2.52-0.22-3.88-0.33C14.1,49.51,13.68,49.85,13.49,50.63z"
				/>
			<path fill="#FFFFFF" stroke="#1D2132" stroke-width="0.1" stroke-linecap="square" stroke-miterlimit="10" d="M13.47,50.82
				c-0.15,0.72-0.12,1.64-0.12,2.23s-0.02,1.51,0.13,2.23c0.16,0.73,0.5,1.04,1.61,0.94c1.11-0.11,2.62-0.08,3.18-0.32
				c0.5-0.22,0.96-1.43,0.96-2.86c0-1.42-0.47-2.63-0.96-2.85c-0.56-0.24-2.08-0.21-3.19-0.31C13.96,49.77,13.62,50.08,13.47,50.82z
				"/>
			<g>
				<path fill="#FFFFFF" stroke="#1D2132" stroke-width="0.1" stroke-linecap="square" stroke-miterlimit="10" d="M20.27,49.79
					c-1.65,0-0.49,1.51-0.49,3.25c0,1.68-1.12,3.06,0.43,3.24c0.14-0.43,0.26-0.87,0.35-1.32C20.9,53.17,20.78,51.41,20.27,49.79z"
					/>
				<path fill="#FFFFFF" stroke="#1D2132" stroke-width="0.1" stroke-linecap="square" stroke-miterlimit="10" d="M20.24,49.71
					c0,0.03,0.01,0.05,0.02,0.08c0.51,1.62,0.64,3.39,0.29,5.17c-0.09,0.45-0.21,0.89-0.35,1.32c-0.01,0.03-0.02,0.06-0.03,0.09
					l0.3,0.1c0.03-0.08,0.06-0.16,0.08-0.24c0.12-0.39,0.23-0.79,0.31-1.21c0.35-1.76,0.24-3.5-0.23-5.11
					c-0.03-0.1-0.06-0.2-0.09-0.3L20.24,49.71z"/>
			</g>
		</g>
		
			<rect x="2.14" y="47.8" fill="#FFFFFF" stroke="#1D2132" stroke-width="0.1" stroke-linecap="square" stroke-miterlimit="10" width="11.01" height="11.01"/>
	</g>
	<g>
		
			<rect x="64.46" y="46.72" fill="#FFFFFF" stroke="#1D2132" stroke-width="0.1" stroke-linecap="square" stroke-miterlimit="10" width="0.69" height="8.26"/>
		
			<rect x="64.45" y="47.17" fill="#FFFFFF" stroke="#1D2132" stroke-width="0.1" stroke-linecap="square" stroke-miterlimit="10" width="0.41" height="7.35"/>
	</g>
	<g>
		
			<rect x="64.46" y="70.79" fill="#FFFFFF" stroke="#1D2132" stroke-width="0.1" stroke-linecap="square" stroke-miterlimit="10" width="0.69" height="5.51"/>
		<g>
			
				<rect x="63.4" y="71.18" fill="#FFFFFF" stroke="#1D2132" stroke-width="0.1" stroke-linecap="square" stroke-miterlimit="10" width="1.05" height="0.31"/>
			
				<rect x="64.26" y="71.18" fill="#FFFFFF" stroke="#1D2132" stroke-width="0.1" stroke-linecap="square" stroke-miterlimit="10" width="0.19" height="0.31"/>
		</g>
		<g>
			
				<rect x="63.4" y="72.66" fill="#FFFFFF" stroke="#1D2132" stroke-width="0.1" stroke-linecap="square" stroke-miterlimit="10" width="1.05" height="0.31"/>
			
				<rect x="64.26" y="72.66" fill="#FFFFFF" stroke="#1D2132" stroke-width="0.1" stroke-linecap="square" stroke-miterlimit="10" width="0.19" height="0.31"/>
		</g>
		<g>
			
				<rect x="63.4" y="74.13" fill="#FFFFFF" stroke="#1D2132" stroke-width="0.1" stroke-linecap="square" stroke-miterlimit="10" width="1.05" height="0.31"/>
			
				<rect x="64.26" y="74.13" fill="#FFFFFF" stroke="#1D2132" stroke-width="0.1" stroke-linecap="square" stroke-miterlimit="10" width="0.19" height="0.31"/>
		</g>
		<g>
			
				<rect x="63.4" y="75.6" fill="#FFFFFF" stroke="#1D2132" stroke-width="0.1" stroke-linecap="square" stroke-miterlimit="10" width="1.05" height="0.31"/>
			
				<rect x="64.26" y="75.6" fill="#FFFFFF" stroke="#1D2132" stroke-width="0.1" stroke-linecap="square" stroke-miterlimit="10" width="0.19" height="0.31"/>
		</g>
	</g>
	<g>
		<g>
			<g>
				
					<rect x="91.42" y="37.55" fill="#FFFFFF" stroke="#1D2132" stroke-width="0.1" stroke-linecap="square" stroke-miterlimit="10" width="4.91" height="4.91"/>
				<polygon fill="#FFFFFF" stroke="#1D2132" stroke-width="0.1" stroke-linecap="square" stroke-miterlimit="10" points="
					91.09,40.97 91.09,39.05 91.41,39.05 91.41,38.54 90.92,38.54 90.92,41.48 91.41,41.48 91.41,40.97 				"/>
			</g>
			<g>
				
					<rect x="91.42" y="7.68" fill="#FFFFFF" stroke="#1D2132" stroke-width="0.1" stroke-linecap="square" stroke-miterlimit="10" width="4.91" height="4.91"/>
				<polygon fill="#FFFFFF" stroke="#1D2132" stroke-width="0.1" stroke-linecap="square" stroke-miterlimit="10" points="
					91.09,11.1 91.09,9.18 91.41,9.18 91.41,8.67 90.92,8.67 90.92,11.61 91.41,11.61 91.41,11.1 				"/>
			</g>
		</g>
		<g>
			<g>
				
					<rect x="70.88" y="13.43" fill="#FFFFFF" stroke="#1D2132" stroke-width="0.1" stroke-linecap="square" stroke-miterlimit="22.9256" width="25.86" height="23.27"/>
				<path fill="#FFFFFF" stroke="#1D2132" stroke-width="0.1" stroke-linecap="square" stroke-miterlimit="22.9256" d="M95.95,13.72
					c0.28,0.03,0.11,0.75,0.25,0.39s0.22,0,0.22,0.36c0,0.36,0,14.65,0,15.31c0,0.66,0,1.58,0,1.58s0.09-0.08,0,0.22
					c-0.09,0.31,0.09,4.28,0,4.59c-0.09,0.31-0.48-0.53-0.62-0.37c-0.13,0.16,0.72,0.54,0.5,0.56c-0.28,0.03-1.12-0.11-1.68-0.07
					c-0.56,0.04-0.87,0.25-1.61,0.01c-0.38-0.13-0.83,0.14-2.01,0.12s-1.64-0.02-3.25,0c-1.61,0.02-3.83,0.01-5.25,0.06
					c-1.14,0.04-1.86-0.15-2.36-0.03c-0.19,0.04-1.21-0.01-2.53,0.03s-5.32-0.06-6.02-0.08c-0.69-0.01-0.45,0.01-0.38-0.1
					c0.07-0.11,0.42-0.15,0.68-0.31c0.26-0.17-0.06-0.2-0.49,0.06c-0.43,0.25-0.21,0.06-0.21-0.51c0-0.38,0.04-1.12,0.17-1.21
					c0.13-0.1,0.1-0.08-0.07-0.17c-0.17-0.1-0.21-0.72-0.07-1.14c0.13-0.41,0-2.51,0.1-2.62c0.1-0.11,0.17-0.11,0-0.2
					c-0.17-0.09-0.17-11.95-0.17-13.67c0-1.75,0.02-2.47,0.06-2.7c0.03-0.21,0.62,0.58,0.88,0.64c0.26,0.07-0.07-0.16-0.14-0.22
					c-0.07-0.08-0.48-0.3-0.58-0.43c-0.1-0.13,0.31,0.04,0.74,0.13c0.63,0.13-0.51-0.16-0.01-0.17c0.44,0,0.27,0.09,0.66,0.01
					c0.17-0.03,0.54-0.06,1.18-0.03c1.04,0.04,2.65-0.12,4.59-0.1c1.94,0.02,2.5-0.04,2.64,0.09c0.13,0.13,0.85,0.39,0.92,0.24
					c0.06-0.15-0.27-0.27,0.62-0.31c0.89-0.04,2.49,0.08,3.52,0.08c1.03,0,2.5-0.12,2.76,0.03c0.26,0.15,0.5,0.13,0.66,0
					c0.17-0.13,0.26,0.02,1.32,0.02s1.7-0.05,2.72-0.13c0.62-0.05,1.25,0,1.25,0C95.24,13.82,95.67,13.67,95.95,13.72z"/>
				<path fill="#FFFFFF" stroke="#1D2132" stroke-width="0.1" stroke-linecap="square" stroke-miterlimit="22.9256" d="M89.8,15.07
					c0.39,0.85,0.1,3.16-0.14,3.85c-0.23,0.68,0.32,14.56,0.06,15.51s-0.54,1.4-0.4,0.89c0.13-0.52-0.1-1.33-0.07-0.4
					c0.04,0.93-0.05,1.69-0.05,1.93c0,0.06,0,0.06-0.5,0.1c-0.38,0.03-0.7,0.12-0.73,0c-0.04-0.11,0.63-1.56,0.66-1.62
					c0.16-0.24-0.76,1.45-0.83,1.6c-0.07,0.15-0.4,0.04-1.43-0.06c-1.01-0.1-2.05,0.02-2.56-0.1c-0.53-0.13,0.5,0.02,0.83-0.06
					c0.33-0.08,0.49,0.05,1.48-1.34c1-1.39,1.39-13.86,1.54-16.09c0.06-0.88,0.29-2.83,0.06-3.6c-0.19-0.61-0.37-1.3-0.3-1.42
					c0.07-0.12,0.14,0.1,0.3,0.3c0.17,0.21,0.2,0.23,0.43,0.42c0.23,0.2-0.29-0.51-1.03-1.15c-0.72-0.64-1.98-0.3-1.98-0.4
					c0-0.1,3.66-0.17,4.42-0.06C90.14,13.46,89.39,14.21,89.8,15.07z"/>
				<g>
					<path fill="#FFFFFF" stroke="#1D2132" stroke-width="0.1" stroke-linecap="square" stroke-miterlimit="22.9256" d="
						M96.59,26.88c0.12,0.31,0.1,1.15,0.14,3.07c0.04,1.91-0.07,2.68-0.11,3.04c-0.04,0.35-0.26,1.07-0.12,1.25
						c0.15,0.18-0.19,0.31-0.29,0.26c-0.11-0.05-0.62-0.1-1.49-0.01c-0.89,0.09-2.1-0.22-2.21-0.09s-0.19-0.09-0.15-0.26
						c0.04-0.18-0.08-0.49-0.1-0.86c-0.09-1.71-0.19-2.79-0.08-5.24c0.03-0.63,0.24-1.42,0.1-1.68c-0.15-0.27,0-0.31,0.19-0.22
						c0.19,0.09,0.27,0.21,0.98-0.01c0.69-0.22,1.25-0.19,1.98-0.05c0.74,0.14,0.91,0.09,1.02,0c0.11-0.09,0.17-0.18,0.17,0.19
						C96.61,26.34,96.5,26.55,96.59,26.88z"/>
					<path fill="none" stroke="#1D2132" stroke-width="0.1" stroke-linecap="square" stroke-miterlimit="22.9256" d="M92.95,34
						c0,0-0.68-1.58-0.68-3.77c0-2.19,0.5-3.64,0.5-3.64"/>
				</g>
				<g>
					<path fill="#FFFFFF" stroke="#1D2132" stroke-width="0.1" stroke-linecap="square" stroke-miterlimit="22.9256" d="M94.23,27.8
						c0.09,0.22,0.08,0.84,0.11,2.23c0.03,1.39-0.06,1.94-0.09,2.21c-0.03,0.25-0.21,0.78-0.09,0.91c0.13,0.13-0.15,0.22-0.23,0.2
						c-0.09-0.04-0.5-0.08-1.21-0.01c-0.71,0.06-1.7-0.17-1.79-0.07c-0.09,0.1-0.15-0.07-0.12-0.2c0.03-0.13-0.06-0.36-0.08-0.63
						c-0.07-1.24-0.16-2.02-0.07-3.81c0.03-0.46,0.2-1.03,0.08-1.22c-0.12-0.2,0-0.23,0.15-0.17c0.16,0.07,0.22,0.16,0.79-0.01
						c0.56-0.16,1.01-0.13,1.6-0.03s0.73,0.07,0.82,0c0.09-0.07,0.14-0.14,0.14,0.13C94.24,27.4,94.15,27.56,94.23,27.8z"/>
					<path fill="none" stroke="#1D2132" stroke-width="0.1" stroke-linecap="square" stroke-miterlimit="22.9256" d="M91.29,32.97
						c0,0-0.56-1.15-0.56-2.74c0-1.58,0.4-2.65,0.4-2.65"/>
				</g>
				<g>
					<path fill="#FFFFFF" stroke="#1D2132" stroke-width="0.1" stroke-linecap="square" stroke-miterlimit="22.9256" d="
						M96.59,16.68c0.12,0.31,0.1,1.15,0.14,3.07c0.04,1.91-0.07,2.68-0.11,3.04c-0.04,0.35-0.26,1.07-0.12,1.25
						s-0.19,0.31-0.29,0.26c-0.11-0.05-0.62-0.1-1.49-0.01c-0.89,0.09-2.1-0.22-2.21-0.09s-0.19-0.09-0.15-0.26
						c0.04-0.18-0.08-0.49-0.1-0.86c-0.09-1.71-0.19-2.79-0.08-5.24c0.03-0.63,0.24-1.42,0.1-1.68c-0.15-0.27,0-0.31,0.19-0.22
						c0.19,0.09,0.27,0.21,0.98-0.01c0.69-0.22,1.25-0.19,1.98-0.05c0.74,0.14,0.91,0.09,1.02,0c0.11-0.09,0.17-0.18,0.17,0.19
						C96.61,16.14,96.5,16.36,96.59,16.68z"/>
					<path fill="none" stroke="#1D2132" stroke-width="0.1" stroke-linecap="square" stroke-miterlimit="22.9256" d="M92.95,23.81
						c0,0-0.68-1.58-0.68-3.77s0.5-3.64,0.5-3.64"/>
				</g>
				<g>
					<path fill="#FFFFFF" stroke="#1D2132" stroke-width="0.1" stroke-linecap="square" stroke-miterlimit="22.9256" d="
						M94.23,17.61c0.09,0.22,0.08,0.84,0.11,2.23c0.03,1.39-0.06,1.94-0.09,2.21c-0.03,0.25-0.21,0.78-0.09,0.91
						c0.13,0.13-0.15,0.22-0.23,0.2c-0.09-0.04-0.5-0.08-1.21-0.01c-0.71,0.06-1.7-0.17-1.79-0.07c-0.09,0.1-0.15-0.07-0.12-0.2
						c0.03-0.13-0.06-0.36-0.08-0.63c-0.07-1.24-0.16-2.02-0.07-3.81c0.03-0.46,0.2-1.03,0.08-1.22c-0.12-0.2,0-0.23,0.15-0.17
						c0.16,0.07,0.22,0.16,0.79-0.01c0.56-0.16,1.01-0.13,1.6-0.03s0.73,0.07,0.82,0c0.09-0.07,0.14-0.14,0.14,0.13
						C94.24,17.21,94.15,17.36,94.23,17.61z"/>
					<path fill="none" stroke="#1D2132" stroke-width="0.1" stroke-linecap="square" stroke-miterlimit="22.9256" d="M91.29,22.77
						c0,0-0.56-1.15-0.56-2.74c0-1.58,0.4-2.65,0.4-2.65"/>
				</g>
				<path fill="#FFFFFF" stroke="#1D2132" stroke-width="0.1" stroke-linecap="square" stroke-miterlimit="22.9256" d="M71.73,36.82
					h7.2c0.33,0,0.61-0.26,0.61-0.61V13.76c0-0.33-0.26-0.61-0.61-0.61h-7.2c-0.33,0-0.61,0.26-0.61,0.61v22.45
					C71.12,36.56,71.4,36.83,71.73,36.82z"/>
			</g>
			<g>
				
					<rect x="97.24" y="9.55" fill="#FFFFFF" stroke="#1D2132" stroke-width="0.1" stroke-linecap="square" stroke-miterlimit="22.9256" width="0.64" height="31.04"/>
				<path fill="#FFFFFF" stroke="#1D2132" stroke-width="0.1" stroke-linecap="square" stroke-miterlimit="22.9256" d="M97.21,40.32
					h0.03V9.82H97.2c-0.25,0-0.46,0.21-0.46,0.46v29.57C96.74,40.11,96.95,40.32,97.21,40.32z"/>
				<g>
					<g>
						<g>
							<path fill="#FFFFFF" stroke="#1D2132" stroke-width="0.1" stroke-linecap="square" stroke-miterlimit="22.9256" d="
								M97.24,39.56h-0.16c-0.25,0-0.46-0.21-0.46-0.46v-0.07c0-0.25,0.21-0.46,0.46-0.46h0.16V39.56L97.24,39.56z"/>
							<path fill="#FFFFFF" stroke="#1D2132" stroke-width="0.1" stroke-linecap="square" stroke-miterlimit="22.9256" d="
								M92.48,35.47L92.48,35.47c-0.11-0.02-0.25,0.22-0.33,0.55s-0.06,0.61,0.05,0.63l0,0c0.41,0.08,0.83,0.1,1.24,0.06l0.18-0.73
								C93.26,35.74,92.87,35.58,92.48,35.47z"/>
							
								<ellipse transform="matrix(0.2315 -0.9728 0.9728 0.2315 36.5143 118.9226)" fill="#FFFFFF" stroke="#1D2132" stroke-width="0.1" stroke-linecap="square" stroke-miterlimit="22.9256" cx="93.53" cy="36.35" rx="0.38" ry="0.13"/>
							<path fill="#FFFFFF" stroke="#1D2132" stroke-width="0.1" stroke-linecap="square" stroke-miterlimit="22.9256" d="
								M93.64,36.3l0.08,0.03c0.02,0.01,0.47,0.19,0.8,0.85c0.06,0.12,0.11,0.24,0.17,0.38c0.17,0.39,0.33,0.79,0.67,1.05
								c0.45,0.35,1.19,0.35,1.2,0.35h0.08v0.17h-0.08c-0.04,0-0.81,0-1.31-0.39c-0.37-0.3-0.56-0.73-0.72-1.12
								c-0.06-0.13-0.11-0.25-0.17-0.37c-0.3-0.61-0.71-0.77-0.71-0.77l-0.08-0.03C93.56,36.39,93.59,36.29,93.64,36.3z"/>
						</g>
					</g>
					<g>
						<g>
							<path fill="#FFFFFF" stroke="#1D2132" stroke-width="0.1" stroke-linecap="square" stroke-miterlimit="22.9256" d="
								M97.24,10.59h-0.16c-0.25,0-0.46,0.21-0.46,0.46v0.07c0,0.25,0.21,0.46,0.46,0.46h0.16V10.59L97.24,10.59z"/>
							<path fill="#FFFFFF" stroke="#1D2132" stroke-width="0.1" stroke-linecap="square" stroke-miterlimit="22.9256" d="
								M92.48,14.68L92.48,14.68c-0.11,0.02-0.25-0.22-0.33-0.55s-0.06-0.61,0.05-0.63l0,0c0.41-0.08,0.83-0.1,1.24-0.06l0.18,0.73
								C93.26,14.4,92.87,14.57,92.48,14.68z"/>
							
								<ellipse transform="matrix(0.9728 -0.2315 0.2315 0.9728 -0.6542 22.0273)" fill="#FFFFFF" stroke="#1D2132" stroke-width="0.1" stroke-linecap="square" stroke-miterlimit="22.9256" cx="93.53" cy="13.8" rx="0.13" ry="0.38"/>
							<path fill="#FFFFFF" stroke="#1D2132" stroke-width="0.1" stroke-linecap="square" stroke-miterlimit="22.9256" d="
								M93.64,13.85l0.08-0.03c0.02-0.01,0.47-0.19,0.8-0.85c0.06-0.12,0.11-0.24,0.17-0.38c0.17-0.39,0.33-0.79,0.67-1.05
								c0.45-0.35,1.19-0.35,1.2-0.35h0.08v-0.17h-0.08c-0.04,0-0.81,0-1.31,0.39c-0.37,0.3-0.56,0.73-0.72,1.12
								c-0.06,0.13-0.11,0.25-0.17,0.37c-0.3,0.61-0.71,0.77-0.71,0.77l-0.08,0.03C93.56,13.76,93.59,13.85,93.64,13.85z"/>
						</g>
					</g>
				</g>
			</g>
		</g>
	</g>
	<g>
		<g>
			
				<rect x="66.1" y="4.4" fill="#FFFFFF" stroke="#1D2132" stroke-width="0.1" stroke-linecap="square" stroke-miterlimit="10" width="11.01" height="0.83"/>
			
				<line fill="none" stroke="#1D2132" stroke-width="0.1" stroke-linecap="square" stroke-miterlimit="10" x1="66.96" y1="5.07" x2="66.96" y2="4.57"/>
			
				<line fill="none" stroke="#1D2132" stroke-width="0.1" stroke-linecap="square" stroke-miterlimit="10" x1="67.26" y1="5.07" x2="67.26" y2="4.57"/>
			
				<line fill="none" stroke="#1D2132" stroke-width="0.1" stroke-linecap="square" stroke-miterlimit="10" x1="66.38" y1="5.07" x2="66.38" y2="4.57"/>
			
				<line fill="none" stroke="#1D2132" stroke-width="0.1" stroke-linecap="square" stroke-miterlimit="10" x1="66.67" y1="5.07" x2="66.67" y2="4.57"/>
			
				<line fill="none" stroke="#1D2132" stroke-width="0.1" stroke-linecap="square" stroke-miterlimit="10" x1="67.57" y1="5.07" x2="67.57" y2="4.57"/>
			
				<line fill="none" stroke="#1D2132" stroke-width="0.1" stroke-linecap="square" stroke-miterlimit="10" x1="67.85" y1="5.07" x2="67.85" y2="4.57"/>
			
				<line fill="none" stroke="#1D2132" stroke-width="0.1" stroke-linecap="square" stroke-miterlimit="10" x1="68.15" y1="5.07" x2="68.15" y2="4.57"/>
			
				<line fill="none" stroke="#1D2132" stroke-width="0.1" stroke-linecap="square" stroke-miterlimit="10" x1="68.46" y1="5.07" x2="68.46" y2="4.57"/>
			
				<line fill="none" stroke="#1D2132" stroke-width="0.1" stroke-linecap="square" stroke-miterlimit="10" x1="68.75" y1="5.07" x2="68.75" y2="4.57"/>
			
				<line fill="none" stroke="#1D2132" stroke-width="0.1" stroke-linecap="square" stroke-miterlimit="10" x1="69.04" y1="5.07" x2="69.04" y2="4.57"/>
			
				<line fill="none" stroke="#1D2132" stroke-width="0.1" stroke-linecap="square" stroke-miterlimit="10" x1="69.94" y1="5.07" x2="69.94" y2="4.57"/>
			
				<line fill="none" stroke="#1D2132" stroke-width="0.1" stroke-linecap="square" stroke-miterlimit="10" x1="70.24" y1="5.07" x2="70.24" y2="4.57"/>
			
				<line fill="none" stroke="#1D2132" stroke-width="0.1" stroke-linecap="square" stroke-miterlimit="10" x1="69.35" y1="5.07" x2="69.35" y2="4.57"/>
			
				<line fill="none" stroke="#1D2132" stroke-width="0.1" stroke-linecap="square" stroke-miterlimit="10" x1="69.64" y1="5.07" x2="69.64" y2="4.57"/>
			
				<line fill="none" stroke="#1D2132" stroke-width="0.1" stroke-linecap="square" stroke-miterlimit="10" x1="70.53" y1="5.07" x2="70.53" y2="4.57"/>
			
				<line fill="none" stroke="#1D2132" stroke-width="0.1" stroke-linecap="square" stroke-miterlimit="10" x1="70.83" y1="5.07" x2="70.83" y2="4.57"/>
			
				<line fill="none" stroke="#1D2132" stroke-width="0.1" stroke-linecap="square" stroke-miterlimit="10" x1="71.12" y1="5.07" x2="71.12" y2="4.57"/>
			
				<line fill="none" stroke="#1D2132" stroke-width="0.1" stroke-linecap="square" stroke-miterlimit="10" x1="71.42" y1="5.07" x2="71.42" y2="4.57"/>
			
				<line fill="none" stroke="#1D2132" stroke-width="0.1" stroke-linecap="square" stroke-miterlimit="10" x1="71.72" y1="5.07" x2="71.72" y2="4.57"/>
			
				<line fill="none" stroke="#1D2132" stroke-width="0.1" stroke-linecap="square" stroke-miterlimit="10" x1="72.03" y1="5.07" x2="72.03" y2="4.57"/>
			
				<line fill="none" stroke="#1D2132" stroke-width="0.1" stroke-linecap="square" stroke-miterlimit="10" x1="72.92" y1="5.07" x2="72.92" y2="4.57"/>
			
				<line fill="none" stroke="#1D2132" stroke-width="0.1" stroke-linecap="square" stroke-miterlimit="10" x1="73.21" y1="5.07" x2="73.21" y2="4.57"/>
			
				<line fill="none" stroke="#1D2132" stroke-width="0.1" stroke-linecap="square" stroke-miterlimit="10" x1="72.32" y1="5.07" x2="72.32" y2="4.57"/>
			
				<line fill="none" stroke="#1D2132" stroke-width="0.1" stroke-linecap="square" stroke-miterlimit="10" x1="72.61" y1="5.07" x2="72.61" y2="4.57"/>
			
				<line fill="none" stroke="#1D2132" stroke-width="0.1" stroke-linecap="square" stroke-miterlimit="10" x1="73.5" y1="5.07" x2="73.5" y2="4.57"/>
			
				<line fill="none" stroke="#1D2132" stroke-width="0.1" stroke-linecap="square" stroke-miterlimit="10" x1="73.81" y1="5.07" x2="73.81" y2="4.57"/>
			
				<line fill="none" stroke="#1D2132" stroke-width="0.1" stroke-linecap="square" stroke-miterlimit="10" x1="74.1" y1="5.07" x2="74.1" y2="4.57"/>
			
				<line fill="none" stroke="#1D2132" stroke-width="0.1" stroke-linecap="square" stroke-miterlimit="10" x1="74.39" y1="5.07" x2="74.39" y2="4.57"/>
			
				<line fill="none" stroke="#1D2132" stroke-width="0.1" stroke-linecap="square" stroke-miterlimit="10" x1="74.69" y1="5.07" x2="74.69" y2="4.57"/>
			
				<line fill="none" stroke="#1D2132" stroke-width="0.1" stroke-linecap="square" stroke-miterlimit="10" x1="75" y1="5.07" x2="75" y2="4.57"/>
			
				<line fill="none" stroke="#1D2132" stroke-width="0.1" stroke-linecap="square" stroke-miterlimit="10" x1="75.89" y1="5.07" x2="75.89" y2="4.57"/>
			
				<line fill="none" stroke="#1D2132" stroke-width="0.1" stroke-linecap="square" stroke-miterlimit="10" x1="76.18" y1="5.07" x2="76.18" y2="4.57"/>
			
				<line fill="none" stroke="#1D2132" stroke-width="0.1" stroke-linecap="square" stroke-miterlimit="10" x1="75.29" y1="5.07" x2="75.29" y2="4.57"/>
			
				<line fill="none" stroke="#1D2132" stroke-width="0.1" stroke-linecap="square" stroke-miterlimit="10" x1="75.58" y1="5.07" x2="75.58" y2="4.57"/>
			
				<line fill="none" stroke="#1D2132" stroke-width="0.1" stroke-linecap="square" stroke-miterlimit="10" x1="76.49" y1="5.07" x2="76.49" y2="4.57"/>
			
				<line fill="none" stroke="#1D2132" stroke-width="0.1" stroke-linecap="square" stroke-miterlimit="10" x1="76.78" y1="5.07" x2="76.78" y2="4.57"/>
		</g>
		<path fill="none" stroke="#1D2132" stroke-width="0.1" stroke-linecap="square" stroke-miterlimit="10" d="M70.36,6.16
			c-0.43,0,0-0.77-0.43-0.77s0,0.77-0.43,0.77s0-0.77-0.43-0.77s0,0.77-0.43,0.77s0-0.77-0.43-0.77s0,0.77-0.43,0.77
			s0-0.77-0.43-0.77s0,0.77-0.43,0.77s0-0.77-0.43-0.77s0,0.77-0.43,0.77s0-0.77-0.43-0.77s0,0.77-0.43,0.77s0-0.77-0.43-0.77
			s0,0.77-0.43,0.77s0-0.77-0.43-0.77s0,0.77-0.43,0.77s0-0.77-0.43-0.77s0,0.77-0.43,0.77s0-0.77-0.43-0.77s0,0.77-0.43,0.77
			s0-0.77-0.43-0.77s0,0.77-0.43,0.77s0-0.77-0.43-0.77s0,0.77-0.43,0.77s0-0.77-0.43-0.77s0,0.77-0.43,0.77s0-0.77-0.43-0.77
			s0,0.77-0.43,0.77s0-0.77-0.43-0.77s0,0.77-0.43,0.77s0-0.77-0.43-0.77s0,0.77-0.43,0.77s0-0.77-0.43-0.77"/>
		<path fill="none" stroke="#1D2132" stroke-width="0.1" stroke-linecap="square" stroke-miterlimit="10" d="M72.94,6.16
			c0.43,0,0-0.77,0.43-0.77s0,0.77,0.43,0.77s0-0.77,0.43-0.77s0,0.77,0.43,0.77s0-0.77,0.43-0.77s0,0.77,0.43,0.77
			s0-0.77,0.43-0.77s0,0.77,0.43,0.77s0-0.77,0.43-0.77s0,0.77,0.43,0.77s0-0.77,0.43-0.77s0,0.77,0.43,0.77s0-0.77,0.43-0.77
			s0,0.77,0.43,0.77s0-0.77,0.43-0.77s0,0.77,0.43,0.77s0-0.77,0.43-0.77s0,0.77,0.43,0.77s0-0.77,0.43-0.77s0,0.77,0.43,0.77
			s0-0.77,0.43-0.77s0,0.77,0.43,0.77s0-0.77,0.43-0.77s0,0.77,0.43,0.77s0-0.77,0.43-0.77s0,0.77,0.43,0.77s0-0.77,0.43-0.77
			s0,0.77,0.43,0.77s0-0.77,0.43-0.77s0,0.77,0.43,0.77s0-0.77,0.43-0.77s0,0.77,0.43,0.77s0-0.77,0.43-0.77"/>
	</g>
	<g>
		<g>
			
				<rect x="21.25" y="4.39" fill="#FFFFFF" stroke="#1D2132" stroke-width="0.1" stroke-linecap="square" stroke-miterlimit="10" width="11.01" height="0.83"/>
			
				<line fill="none" stroke="#1D2132" stroke-width="0.1" stroke-linecap="square" stroke-miterlimit="10" x1="22.12" y1="5.06" x2="22.12" y2="4.57"/>
			
				<line fill="none" stroke="#1D2132" stroke-width="0.1" stroke-linecap="square" stroke-miterlimit="10" x1="22.41" y1="5.06" x2="22.41" y2="4.57"/>
			
				<line fill="none" stroke="#1D2132" stroke-width="0.1" stroke-linecap="square" stroke-miterlimit="10" x1="21.52" y1="5.06" x2="21.52" y2="4.57"/>
			
				<line fill="none" stroke="#1D2132" stroke-width="0.1" stroke-linecap="square" stroke-miterlimit="10" x1="21.82" y1="5.06" x2="21.82" y2="4.57"/>
			
				<line fill="none" stroke="#1D2132" stroke-width="0.1" stroke-linecap="square" stroke-miterlimit="10" x1="22.71" y1="5.06" x2="22.71" y2="4.57"/>
			
				<line fill="none" stroke="#1D2132" stroke-width="0.1" stroke-linecap="square" stroke-miterlimit="10" x1="23.01" y1="5.06" x2="23.01" y2="4.57"/>
			
				<line fill="none" stroke="#1D2132" stroke-width="0.1" stroke-linecap="square" stroke-miterlimit="10" x1="23.3" y1="5.06" x2="23.3" y2="4.57"/>
			
				<line fill="none" stroke="#1D2132" stroke-width="0.1" stroke-linecap="square" stroke-miterlimit="10" x1="23.6" y1="5.06" x2="23.6" y2="4.57"/>
			
				<line fill="none" stroke="#1D2132" stroke-width="0.1" stroke-linecap="square" stroke-miterlimit="10" x1="23.9" y1="5.06" x2="23.9" y2="4.57"/>
			
				<line fill="none" stroke="#1D2132" stroke-width="0.1" stroke-linecap="square" stroke-miterlimit="10" x1="24.2" y1="5.06" x2="24.2" y2="4.57"/>
			
				<line fill="none" stroke="#1D2132" stroke-width="0.1" stroke-linecap="square" stroke-miterlimit="10" x1="25.09" y1="5.06" x2="25.09" y2="4.57"/>
			
				<line fill="none" stroke="#1D2132" stroke-width="0.1" stroke-linecap="square" stroke-miterlimit="10" x1="25.39" y1="5.06" x2="25.39" y2="4.57"/>
			
				<line fill="none" stroke="#1D2132" stroke-width="0.1" stroke-linecap="square" stroke-miterlimit="10" x1="24.49" y1="5.06" x2="24.49" y2="4.57"/>
			
				<line fill="none" stroke="#1D2132" stroke-width="0.1" stroke-linecap="square" stroke-miterlimit="10" x1="24.79" y1="5.06" x2="24.79" y2="4.57"/>
			
				<line fill="none" stroke="#1D2132" stroke-width="0.1" stroke-linecap="square" stroke-miterlimit="10" x1="25.68" y1="5.06" x2="25.68" y2="4.57"/>
			
				<line fill="none" stroke="#1D2132" stroke-width="0.1" stroke-linecap="square" stroke-miterlimit="10" x1="25.98" y1="5.06" x2="25.98" y2="4.57"/>
			
				<line fill="none" stroke="#1D2132" stroke-width="0.1" stroke-linecap="square" stroke-miterlimit="10" x1="26.28" y1="5.06" x2="26.28" y2="4.57"/>
			
				<line fill="none" stroke="#1D2132" stroke-width="0.1" stroke-linecap="square" stroke-miterlimit="10" x1="26.57" y1="5.06" x2="26.57" y2="4.57"/>
			
				<line fill="none" stroke="#1D2132" stroke-width="0.1" stroke-linecap="square" stroke-miterlimit="10" x1="26.87" y1="5.06" x2="26.87" y2="4.57"/>
			
				<line fill="none" stroke="#1D2132" stroke-width="0.1" stroke-linecap="square" stroke-miterlimit="10" x1="27.17" y1="5.06" x2="27.17" y2="4.57"/>
			
				<line fill="none" stroke="#1D2132" stroke-width="0.1" stroke-linecap="square" stroke-miterlimit="10" x1="28.06" y1="5.06" x2="28.06" y2="4.57"/>
			
				<line fill="none" stroke="#1D2132" stroke-width="0.1" stroke-linecap="square" stroke-miterlimit="10" x1="28.36" y1="5.06" x2="28.36" y2="4.57"/>
			
				<line fill="none" stroke="#1D2132" stroke-width="0.1" stroke-linecap="square" stroke-miterlimit="10" x1="27.47" y1="5.06" x2="27.47" y2="4.57"/>
			
				<line fill="none" stroke="#1D2132" stroke-width="0.1" stroke-linecap="square" stroke-miterlimit="10" x1="27.76" y1="5.06" x2="27.76" y2="4.57"/>
			
				<line fill="none" stroke="#1D2132" stroke-width="0.1" stroke-linecap="square" stroke-miterlimit="10" x1="28.66" y1="5.06" x2="28.66" y2="4.57"/>
			
				<line fill="none" stroke="#1D2132" stroke-width="0.1" stroke-linecap="square" stroke-miterlimit="10" x1="28.95" y1="5.06" x2="28.95" y2="4.57"/>
			
				<line fill="none" stroke="#1D2132" stroke-width="0.1" stroke-linecap="square" stroke-miterlimit="10" x1="29.25" y1="5.06" x2="29.25" y2="4.57"/>
			
				<line fill="none" stroke="#1D2132" stroke-width="0.1" stroke-linecap="square" stroke-miterlimit="10" x1="29.55" y1="5.06" x2="29.55" y2="4.57"/>
			
				<line fill="none" stroke="#1D2132" stroke-width="0.1" stroke-linecap="square" stroke-miterlimit="10" x1="29.85" y1="5.06" x2="29.85" y2="4.57"/>
			
				<line fill="none" stroke="#1D2132" stroke-width="0.1" stroke-linecap="square" stroke-miterlimit="10" x1="30.14" y1="5.06" x2="30.14" y2="4.57"/>
			
				<line fill="none" stroke="#1D2132" stroke-width="0.1" stroke-linecap="square" stroke-miterlimit="10" x1="31.03" y1="5.06" x2="31.03" y2="4.57"/>
			
				<line fill="none" stroke="#1D2132" stroke-width="0.1" stroke-linecap="square" stroke-miterlimit="10" x1="31.33" y1="5.06" x2="31.33" y2="4.57"/>
			
				<line fill="none" stroke="#1D2132" stroke-width="0.1" stroke-linecap="square" stroke-miterlimit="10" x1="30.44" y1="5.06" x2="30.44" y2="4.57"/>
			
				<line fill="none" stroke="#1D2132" stroke-width="0.1" stroke-linecap="square" stroke-miterlimit="10" x1="30.74" y1="5.06" x2="30.74" y2="4.57"/>
			
				<line fill="none" stroke="#1D2132" stroke-width="0.1" stroke-linecap="square" stroke-miterlimit="10" x1="31.63" y1="5.06" x2="31.63" y2="4.57"/>
			
				<line fill="none" stroke="#1D2132" stroke-width="0.1" stroke-linecap="square" stroke-miterlimit="10" x1="31.93" y1="5.06" x2="31.93" y2="4.57"/>
		</g>
		<path fill="none" stroke="#1D2132" stroke-width="0.1" stroke-linecap="square" stroke-miterlimit="10" d="M25.5,6.16
			c-0.43,0,0-0.77-0.43-0.77s0,0.77-0.43,0.77s0-0.77-0.43-0.77s0,0.77-0.43,0.77s0-0.77-0.43-0.77s0,0.77-0.43,0.77
			s0-0.77-0.43-0.77s0,0.77-0.43,0.77s0-0.77-0.43-0.77s0,0.77-0.43,0.77s0-0.77-0.43-0.77s0,0.77-0.43,0.77s0-0.77-0.43-0.77
			s0,0.77-0.43,0.77s0-0.77-0.43-0.77s0,0.77-0.43,0.77s0-0.77-0.43-0.77s0,0.77-0.43,0.77s0-0.77-0.43-0.77s0,0.77-0.43,0.77
			s0-0.77-0.43-0.77s0,0.77-0.43,0.77s0-0.77-0.43-0.77s0,0.77-0.43,0.77s0-0.77-0.43-0.77s0,0.77-0.43,0.77s0-0.77-0.43-0.77
			s0,0.77-0.43,0.77s0-0.77-0.43-0.77s0,0.77-0.43,0.77s0-0.77-0.43-0.77s0,0.77-0.43,0.77s0-0.77-0.43-0.77"/>
		<path fill="none" stroke="#1D2132" stroke-width="0.1" stroke-linecap="square" stroke-miterlimit="10" d="M28.1,6.16
			c0.43,0,0-0.77,0.43-0.77s0,0.77,0.43,0.77s0-0.77,0.43-0.77s0,0.77,0.43,0.77c0.43,0,0-0.77,0.43-0.77c0.43,0,0,0.77,0.43,0.77
			s0-0.77,0.43-0.77s0,0.77,0.43,0.77s0-0.77,0.43-0.77s0,0.77,0.43,0.77s0-0.77,0.43-0.77s0,0.77,0.43,0.77s0-0.77,0.43-0.77
			s0,0.77,0.43,0.77s0-0.77,0.43-0.77s0,0.77,0.43,0.77s0-0.77,0.43-0.77s0,0.77,0.43,0.77s0-0.77,0.43-0.77s0,0.77,0.43,0.77
			s0-0.77,0.43-0.77s0,0.77,0.43,0.77s0-0.77,0.43-0.77s0,0.77,0.43,0.77s0-0.77,0.43-0.77s0,0.77,0.43,0.77s0-0.77,0.43-0.77
			s0,0.77,0.43,0.77s0-0.77,0.43-0.77s0,0.77,0.43,0.77s0-0.77,0.43-0.77s0,0.77,0.43,0.77s0-0.77,0.43-0.77"/>
	</g>
	<g>
		<g>
			<path fill="none" stroke="#1D2132" stroke-width="0.1" stroke-linejoin="bevel" stroke-dasharray="0.492,0.492" d="M19.24,10.87
				h23.47c0.74,0,1.34,0.6,1.34,1.34V28.8c0,0.74-0.6,1.34-1.34,1.34H19.23c-0.74,0-1.34-0.6-1.34-1.34V12.21
				C17.89,11.47,18.49,10.87,19.24,10.87z"/>
		</g>
		<g>
			<path fill="#FFFFFF" stroke="#1D2132" stroke-width="0.1" stroke-linejoin="bevel" stroke-miterlimit="22.9256" d="M35.98,10.25
				V9.39c0-0.35,0.28-0.63,0.63-0.63h8.93v23.51h-8.93c-0.35,0-0.63-0.28-0.63-0.63v-0.86c0-0.35,0.28-0.63,0.63-0.63h6.32
				c0.35,0,0.63-0.28,0.63-0.63V11.5c0-0.35-0.28-0.63-0.63-0.63h-6.32C36.26,10.87,35.98,10.59,35.98,10.25z"/>
			<path fill="none" stroke="#1D2132" stroke-width="0.1" stroke-linejoin="bevel" stroke-miterlimit="22.9256" d="M45.54,32.26
				c0,0-0.99-0.48-1.53-1.36c-0.54-0.87-0.45-1.38-0.45-1.38"/>
			<path fill="none" stroke="#1D2132" stroke-width="0.1" stroke-linejoin="bevel" stroke-miterlimit="22.9256" d="M43.55,32.26
				c0,0-0.53-0.27-0.64-1.06c-0.1-0.79,0.13-1.06,0.13-1.06"/>
			<path fill="none" stroke="#1D2132" stroke-width="0.1" stroke-linejoin="bevel" stroke-miterlimit="22.9256" d="M45.54,8.76
				c0,0-1,0.48-1.53,1.36c-0.54,0.87-0.45,1.38-0.45,1.38"/>
			<path fill="none" stroke="#1D2132" stroke-width="0.1" stroke-linejoin="bevel" stroke-miterlimit="22.9256" d="M43.55,8.76
				c0,0-0.53,0.26-0.64,1.05c-0.1,0.79,0.13,1.06,0.13,1.06"/>
			<path fill="#FFFFFF" stroke="#1D2132" stroke-width="0.1" stroke-linejoin="bevel" stroke-miterlimit="22.9256" d="M42.42,20.51
				h-5.98c-0.63,0-1.14,0.51-1.14,1.14v7.36c0,0.63,0.51,1.14,1.14,1.14h5.98c0.63,0,1.14-0.51,1.14-1.14v-7.36
				C43.56,21.02,43.05,20.51,42.42,20.51z"/>
			<path fill="#FFFFFF" stroke="#1D2132" stroke-width="0.1" stroke-linejoin="bevel" stroke-miterlimit="22.9256" d="M42.42,10.87
				h-5.98c-0.63,0-1.14,0.51-1.14,1.14v7.36c0,0.63,0.51,1.14,1.14,1.14h5.98c0.63,0,1.14-0.51,1.14-1.14v-7.36
				C43.56,11.38,43.05,10.87,42.42,10.87z"/>
			<path fill="#FFFFFF" stroke="#1D2132" stroke-width="0.1" stroke-linejoin="bevel" stroke-miterlimit="22.9256" d="M43.25,20.5
				h-0.43c-0.44,0-0.8,0.36-0.8,0.8v8.05c0,0.44,0.36,0.8,0.8,0.8h0.43c0.44,0,0.8-0.36,0.8-0.8V21.3
				C44.05,20.86,43.7,20.51,43.25,20.5z"/>
			<path fill="#FFFFFF" stroke="#1D2132" stroke-width="0.1" stroke-linejoin="bevel" stroke-miterlimit="22.9256" d="M43.25,10.86
				h-0.43c-0.44,0-0.8,0.36-0.8,0.8v8.05c0,0.44,0.36,0.8,0.8,0.8h0.43c0.44,0,0.8-0.36,0.8-0.8v-8.05
				C44.05,11.22,43.7,10.87,43.25,10.86z"/>
		</g>
		<g>
			<path fill="#FFFFFF" stroke="#1D2132" stroke-width="0.1" stroke-linejoin="bevel" stroke-miterlimit="22.9256" d="M38.66,15.48
				c-0.03-0.66-0.16-1.31-0.34-2.49s0.19-1.33,0.12-1.5s0.09-0.2,0.23-0.22c0.14-0.03,0.14-0.21,1.13-0.33s1.3,0.07,1.45-0.04
				c0.15-0.12,0.15,0.07,0.27,0.38c0.11,0.31,0.32,1.04,0.54,2.76c0.21,1.72-0.07,2.46-0.11,2.68c-0.04,0.22-0.25,0.1-0.85,0.31
				c-0.6,0.22-1.07,0.08-1.27-0.01c-0.2-0.09-0.56,0-0.67-0.23C39.16,16.79,38.69,16.14,38.66,15.48z"/>
			<path fill="#FFFFFF" stroke="#1D2132" stroke-width="0.1" stroke-linejoin="bevel" stroke-miterlimit="22.9256" d="M38.59,11.27
				c0,0,0.15,0.06,0.69-0.08s1.8-0.09,1.98,0.03s0.18,1.18,0.25,2.38s0.32,1.92,0.36,2.46c0.04,0.54-0.26,0.56-0.71,0.72
				c-0.44,0.16-1.04,0.13-1.28,0.08c-0.24-0.05-0.58,0.06-0.58,0.06"/>
		</g>
		<g>
			<path fill="#FFFFFF" stroke="#1D2132" stroke-width="0.1" stroke-linejoin="bevel" stroke-miterlimit="22.9256" d="M38.48,26.97
				c0.05-0.72,0.01-1.43-0.01-2.72c-0.02-1.29,0.37-1.4,0.32-1.59s0.11-0.2,0.25-0.2s0.16-0.19,1.16-0.18
				c1,0.02,1.29,0.27,1.45,0.17c0.16-0.1,0.14,0.1,0.22,0.45c0.07,0.36,0.18,1.16,0.17,3.04c-0.01,1.88-0.39,2.63-0.46,2.86
				c-0.06,0.23-0.25,0.07-0.88,0.21c-0.62,0.14-1.07-0.08-1.26-0.2s-0.56-0.08-0.64-0.34C38.8,28.47,38.41,27.7,38.48,26.97z"/>
			<path fill="#FFFFFF" stroke="#1D2132" stroke-width="0.1" stroke-linejoin="bevel" stroke-miterlimit="22.9256" d="M38.96,22.48
				c0,0,0.14,0.1,0.7,0.02c0.56-0.07,1.79,0.16,1.96,0.32c0.16,0.16,0.02,1.29-0.07,2.59c-0.09,1.29,0.07,2.1,0.03,2.68
				c-0.03,0.58-0.34,0.55-0.8,0.66c-0.46,0.11-1.04-0.01-1.28-0.1c-0.23-0.09-0.58-0.02-0.58-0.02"/>
		</g>
	</g>
	<g>
		<g>
			
				<rect x="46.5" y="16.74" fill="#FFFFFF" stroke="#1D2132" stroke-width="0.1" stroke-linejoin="bevel" stroke-miterlimit="22.9256" width="6.31" height="13.09"/>
			
				<rect x="46.5" y="16.83" fill="#FFFFFF" stroke="#1D2132" stroke-width="0.1" stroke-linejoin="bevel" stroke-miterlimit="22.9256" width="6.31" height="13"/>
		</g>
		<g>
			<path fill="#FFFFFF" stroke="#1D2132" stroke-width="0.1" stroke-linecap="square" stroke-miterlimit="10" d="M48.27,22.5v2.01
				c0,0.5,0.41,0.91,0.91,0.91h0.26c0.5,0,0.91-0.41,0.91-0.91V22.5c0-0.5-0.41-0.91-0.91-0.91h-0.26
				C48.68,21.59,48.27,21.99,48.27,22.5z"/>
			<path fill="#FFFFFF" stroke="#1D2132" stroke-width="0.1" stroke-linecap="square" stroke-miterlimit="10" d="M49.11,22.69v1.63
				c0,0.22,0.17,0.39,0.39,0.39h0.08c0.22,0,0.39-0.17,0.39-0.39v-1.63c0-0.22-0.17-0.39-0.39-0.39H49.5
				C49.28,22.3,49.11,22.47,49.11,22.69z"/>
			
				<rect x="49.79" y="16.74" fill="#FFFFFF" stroke="#1D2132" stroke-width="0.1" stroke-linecap="square" stroke-miterlimit="10" width="0.18" height="13.51"/>
			<polygon fill="#FFFFFF" stroke="#1D2132" stroke-width="0.1" stroke-linecap="square" stroke-miterlimit="10" points="
				49.45,28.31 49.8,30.26 49.8,16.74 49.45,18.7 			"/>
		</g>
	</g>
	<g>
		
			<rect x="38.58" y="61.38" fill="#FFFFFF" stroke="#1D2132" stroke-width="0.1" stroke-linecap="square" stroke-miterlimit="10" width="8.03" height="18.05"/>
		<g>
			<path fill="#FFFFFF" stroke="#1D2132" stroke-width="0.1" stroke-linecap="square" stroke-miterlimit="10" d="M41.63,70.22h-0.37
				c-0.03,0.01-0.07,0.07-0.1,0.12c-0.11,0.16-0.28,0.41-0.64,0.47c-0.26,0.05-0.51-0.05-0.66-0.25c-0.16-0.22-0.18-0.52-0.05-0.76
				c0.2-0.39,0.6-0.44,0.79-0.41c0.07,0.01,0.11,0.07,0.1,0.13c-0.01,0.07-0.07,0.11-0.13,0.1c0,0-0.37-0.05-0.55,0.29
				c-0.09,0.17-0.08,0.37,0.03,0.52c0.1,0.13,0.26,0.19,0.44,0.16c0.26-0.04,0.39-0.22,0.49-0.37c0.08-0.11,0.15-0.22,0.28-0.22
				h0.38c0.06,0,0.11,0.05,0.11,0.11C41.75,70.17,41.7,70.22,41.63,70.22z M41.26,70.22L41.26,70.22L41.26,70.22z"/>
			<path fill="#FFFFFF" stroke="#1D2132" stroke-width="0.1" stroke-linecap="square" stroke-miterlimit="10" d="M44.04,74.65
				c-0.28,0.07-0.56-0.05-0.7-0.31c0-0.01-0.01-0.01-0.01-0.02l-1.67-3.53c-0.01-0.03-0.02-0.06-0.02-0.09v-1.19
				c0-0.03,0.01-0.06,0.02-0.09l1.67-3.53c0-0.01,0.01-0.01,0.01-0.02c0.14-0.26,0.42-0.38,0.7-0.31s0.21,0.39,0.21,0.68v7.72
				C44.25,74.25,44.33,74.57,44.04,74.65z M42.69,69.56v1.1l1.07,3.73c0.06,0.09,0.15,0.08,0.18,0.07s0.12-0.04,0.12-0.16v-8.39
				c0-0.12-0.09-0.15-0.12-0.16s-0.12-0.03-0.18,0.07L42.69,69.56z"/>
		</g>
	</g>
	<g>
		
			<circle fill="#FFFFFF" stroke="#1D2132" stroke-width="0.1" stroke-linecap="square" stroke-miterlimit="22.9256" cx="42.16" cy="38.66" r="1.94"/>
		
			<circle fill="#FFFFFF" stroke="#1D2132" stroke-width="0.1" stroke-linecap="square" stroke-miterlimit="22.9256" cx="42.16" cy="38.66" r="0.41"/>
		<path fill="#FFFFFF" stroke="#1D2132" stroke-width="0.1" stroke-linecap="square" stroke-miterlimit="22.9256" d="M38.61,36.19
			l-0.66,1.48c-1.05,0-1.72-0.05-2.59-0.45l0,0c-0.43-0.19-0.52-0.94-0.19-1.67c0.33-0.73,0.94-1.17,1.37-0.98
			C37.43,34.92,37.92,35.38,38.61,36.19z"/>
		<path fill="#FFFFFF" stroke="#1D2132" stroke-width="0.1" stroke-linecap="square" stroke-miterlimit="22.9256" d="M38.61,36.19
			l0.53,0.24l-0.66,1.48l-0.53-0.24c-0.24-0.1-0.29-0.52-0.11-0.93S38.36,36.09,38.61,36.19z"/>
		
			<ellipse transform="matrix(0.4062 -0.9138 0.9138 0.4062 -10.9168 57.535)" fill="#FFFFFF" stroke="#1D2132" stroke-width="0.1" stroke-linecap="square" stroke-miterlimit="22.9256" cx="38.81" cy="37.17" rx="0.81" ry="0.47"/>
		<path fill="#FFFFFF" stroke="#1D2132" stroke-width="0.1" stroke-linecap="square" stroke-miterlimit="22.9256" d="M42.22,38.53
			l-2.04-0.9c-0.06-0.03-0.14,0-0.17,0.07L40,37.73c-0.03,0.06,0,0.14,0.07,0.17l2.04,0.9c0.06,0.03,0.14,0,0.17-0.07l0.01-0.03
			C42.32,38.63,42.29,38.56,42.22,38.53z"/>
		<path fill="#FFFFFF" stroke="#1D2132" stroke-width="0.1" stroke-linecap="square" stroke-miterlimit="22.9256" d="M41.08,38.02
			l-2.04-0.9c-0.06-0.03-0.14,0-0.17,0.07l-0.01,0.03c-0.03,0.06,0,0.14,0.07,0.17l2.04,0.9c0.06,0.03,0.14,0,0.17-0.07l0.01-0.03
			C41.18,38.13,41.15,38.05,41.08,38.02z"/>
	</g>
</g>
<g id="Doors">
	<g>
		<polygon fill="none" stroke="#1D2132" stroke-width="0.1" stroke-miterlimit="10" points="63.4,81.21 63.4,80.03 63.99,80.03 
			63.99,81.21 		"/>
		<polygon fill="none" stroke="#1D2132" stroke-width="0.1" stroke-miterlimit="10" points="48.92,81.21 48.92,80.03 48.33,80.03 
			48.33,81.21 		"/>
		<polyline fill="none" stroke="#1D2132" stroke-width="0.1" stroke-miterlimit="10" points="53.16,69.86 52.99,70.06 52.81,70.25 
			52.63,70.45 52.46,70.65 52.29,70.85 52.13,71.07 51.96,71.27 51.81,71.48 51.65,71.7 51.5,71.91 51.36,72.14 51.22,72.36 
			51.08,72.59 50.95,72.81 50.82,73.05 50.69,73.27 50.57,73.51 50.45,73.74 50.33,73.98 50.23,74.23 50.12,74.46 50.01,74.71 
			49.92,74.96 49.83,75.2 49.74,75.45 49.66,75.7 49.58,75.95 49.51,76.21 49.44,76.45 49.37,76.71 49.31,76.97 49.25,77.23 
			49.2,77.49 49.14,77.75 49.11,78.01 49.06,78.27 49.04,78.53 49,78.79 48.98,79.06 48.95,79.32 48.94,79.58 48.93,79.85 
			48.92,80.11 		"/>
		<polygon fill="none" stroke="#1D2132" stroke-width="0.1" stroke-miterlimit="10" points="63.29,80.05 53.16,69.86 52.81,70.25 
			62.88,80.46 		"/>
	</g>
	<g>
		<polygon fill="none" stroke="#1D2132" stroke-width="0.1" stroke-miterlimit="10" points="49.24,46.69 49.24,45.61 48.68,45.61 
			48.68,46.69 		"/>
		<polygon fill="none" stroke="#1D2132" stroke-width="0.1" stroke-miterlimit="10" points="63.06,46.69 63.06,45.61 63.7,45.61 
			63.7,46.69 		"/>
		<polyline fill="none" stroke="#1D2132" stroke-width="0.1" stroke-miterlimit="10" points="59.01,35.86 59.18,36.05 59.35,36.23 
			59.52,36.43 59.69,36.62 59.84,36.81 60,37.01 60.16,37.2 60.31,37.4 60.45,37.62 60.6,37.82 60.73,38.04 60.87,38.25 61,38.46 
			61.13,38.68 61.25,38.9 61.38,39.12 61.49,39.34 61.6,39.57 61.71,39.79 61.81,40.03 61.92,40.25 62.02,40.49 62.11,40.73 
			62.2,40.96 62.28,41.2 62.36,41.43 62.43,41.67 62.5,41.92 62.57,42.16 62.64,42.4 62.69,42.65 62.75,42.9 62.79,43.15 
			62.85,43.39 62.88,43.64 62.93,43.89 62.95,44.14 62.99,44.38 63.01,44.64 63.03,44.89 63.04,45.14 63.05,45.4 63.06,45.65 		"/>
		<polygon fill="none" stroke="#1D2132" stroke-width="0.1" stroke-miterlimit="10" points="49.34,45.59 59.01,35.86 59.35,36.23 
			49.74,45.98 		"/>
	</g>
	<g>
		<polygon fill="none" stroke="#1D2132" stroke-width="0.1" stroke-miterlimit="10" points="66.42,66.55 65.32,66.55 65.32,66.98 
			66.42,66.98 		"/>
		<polygon fill="none" stroke="#1D2132" stroke-width="0.1" stroke-miterlimit="10" points="66.42,55.86 65.32,55.86 65.32,55.43 
			66.42,55.43 		"/>
		<polyline fill="none" stroke="#1D2132" stroke-width="0.1" stroke-miterlimit="10" points="57.8,59 57.94,58.86 58.08,58.73 
			58.23,58.6 58.38,58.47 58.53,58.35 58.68,58.23 58.83,58.11 58.99,58 59.15,57.88 59.31,57.77 59.48,57.66 59.64,57.56 
			59.81,57.46 59.97,57.36 60.14,57.26 60.31,57.17 60.48,57.08 60.66,56.99 60.83,56.91 61.01,56.83 61.19,56.75 61.37,56.67 
			61.55,56.6 61.74,56.53 61.92,56.47 62.1,56.41 62.28,56.35 62.48,56.3 62.66,56.25 62.85,56.19 63.04,56.15 63.23,56.11 
			63.42,56.07 63.62,56.03 63.81,56 64,55.97 64.19,55.95 64.38,55.92 64.58,55.91 64.77,55.89 64.96,55.88 65.16,55.87 
			65.36,55.86 		"/>
		<polygon fill="none" stroke="#1D2132" stroke-width="0.1" stroke-miterlimit="10" points="65.31,66.47 57.8,59 58.08,58.73 
			65.62,66.16 		"/>
	</g>
</g>
<g id="Windows">
	<polyline fill="none" stroke="#1D2132" stroke-width="0.1" stroke-miterlimit="10" points="38.45,3.16 38.45,2.2 15.35,2.2 
		15.35,3.16 38.45,3.16 	"/>
	<polyline fill="none" stroke="#1D2132" stroke-width="0.1" stroke-miterlimit="10" points="14,4.37 14,2.2 39.81,2.2 39.81,4.37 
		14,4.37 	"/>
	<polyline fill="none" stroke="#1D2132" stroke-width="0.1" stroke-miterlimit="10" points="13.76,3.16 13.37,3.16 13.37,2.2 
		13.76,2.2 13.76,3.16 13.76,2.2 15.35,2.2 15.35,3.16 13.76,3.16 	"/>
	<polyline fill="none" stroke="#1D2132" stroke-width="0.1" stroke-miterlimit="10" points="38.45,3.16 38.45,2.2 40.37,2.2 
		40.37,3.16 38.45,3.16 	"/>
	<polyline fill="none" stroke="#1D2132" stroke-width="0.1" stroke-miterlimit="10" points="39.14,2.2 39.14,0.03 14.68,0.03 
		14.68,2.2 39.14,2.2 	"/>
	<polyline fill="none" stroke="#1D2132" stroke-width="0.1" stroke-miterlimit="10" points="83.69,3.16 83.69,2.2 60.6,2.2 
		60.6,3.16 83.69,3.16 	"/>
	<polyline fill="none" stroke="#1D2132" stroke-width="0.1" stroke-miterlimit="10" points="59.23,4.37 59.23,2.2 85.06,2.2 
		85.06,4.37 59.23,4.37 	"/>
	<polyline fill="none" stroke="#1D2132" stroke-width="0.1" stroke-miterlimit="10" points="58.83,3.16 58.37,3.16 58.37,2.2 
		58.83,2.2 58.83,3.16 58.83,2.2 60.6,2.2 60.6,3.16 58.83,3.16 	"/>
	<polyline fill="none" stroke="#1D2132" stroke-width="0.1" stroke-miterlimit="10" points="83.69,3.16 83.69,2.2 85.37,2.2 
		85.37,3.16 83.69,3.16 	"/>
	<polyline fill="none" stroke="#1D2132" stroke-width="0.1" stroke-miterlimit="10" points="84.38,2.2 84.38,0.03 59.92,0.03 
		59.92,2.2 84.38,2.2 	"/>
</g>
<g id="Text">
	
		<text id="TXT--" transform="matrix(1 0 0 1 18.887 42.4086)" opacity="0.7" fill="#1D2132" enable-background="new    " font-family="'Cannonade-Medium'" font-size="3px">16,73</text>
	
		<text id="TXT---" transform="matrix(1 0 0 1 57.6509 25.6666)" opacity="0.7" fill="#1D2132" enable-background="new    " font-family="'Cannonade-Medium'" font-size="3px">11,45</text>
	
		<text id="TXT--" transform="matrix(1 0 0 1 50.8044 65.9315)" opacity="0.7" fill="#1D2132" enable-background="new    " font-family="'Cannonade-Medium'" font-size="3px">4,27</text>
	
		<text id="TXT--" transform="matrix(1 0 0 1 76.9702 63.4554)" opacity="0.7" fill="#1D2132" enable-background="new    " font-family="'Cannonade-Medium'" font-size="3px">5,49</text>
</g>
<g id="Walls">
	<polyline fill="#1D2132" stroke="#1D2132" stroke-width="0.1" stroke-miterlimit="10" points="0,2.2 2.17,2.2 2.17,81.68 0,81.68 
		0,2.2 	"/>
	<polyline fill="#1D2132" stroke="#1D2132" stroke-width="0.1" stroke-miterlimit="10" points="97.83,2.2 100,2.2 100,81.68 
		97.83,81.68 97.83,2.2 	"/>
	<line fill="none" stroke="#1D2132" stroke-width="0.1" stroke-miterlimit="10" x1="0" y1="2.2" x2="0" y2="2.2"/>
	<polyline fill="#1D2132" stroke="#1D2132" stroke-width="0.1" stroke-miterlimit="10" points="2.17,2.2 14,2.2 14,4.37 2.17,4.37 
		2.17,2.2 	"/>
	<polyline fill="#1D2132" stroke="#1D2132" stroke-width="0.1" stroke-miterlimit="10" points="39.81,2.2 59.23,2.2 59.23,4.37 
		39.81,4.37 39.81,2.2 	"/>
	<polyline fill="#1D2132" stroke="#1D2132" stroke-width="0.1" stroke-miterlimit="10" points="85.06,2.2 97.83,2.2 97.83,4.37 
		85.06,4.37 85.06,2.2 	"/>
	<polyline fill="#1D2132" stroke="#1D2132" stroke-width="0.1" stroke-miterlimit="10" points="100,4.37 100,4.37 100,2.2 	"/>
	<line fill="none" stroke="#1D2132" stroke-width="0.1" stroke-miterlimit="10" x1="100" y1="2.2" x2="100" y2="2.2"/>
	
		<rect x="84.38" y="0.16" fill="#1D2132" stroke="#1D2132" stroke-width="0.1" stroke-miterlimit="10" width="15.62" height="2.04"/>
	<polyline fill="#1D2132" stroke="#1D2132" stroke-width="0.1" stroke-miterlimit="10" points="59.92,2.2 39.14,2.2 39.14,0.16 
		59.92,0.16 59.92,2.2 	"/>
	<polyline fill="#1D2132" stroke="#1D2132" stroke-width="0.1" stroke-miterlimit="10" points="14.68,2.2 14.68,0.16 0,0.16 0,2.2 
		14.68,2.2 	"/>
	<polyline fill="#1D2132" stroke="#1D2132" stroke-width="0.1" stroke-miterlimit="10" points="97.83,81.68 64.03,81.68 
		64.03,79.51 97.83,79.51 97.83,81.68 	"/>
	<polygon fill="#1D2132" stroke="#1D2132" stroke-width="0.1" stroke-miterlimit="10" points="48.23,79.51 2.17,79.51 2.17,81.68 
		48.23,81.68 	"/>
	<polyline fill="#1D2132" stroke="#1D2132" stroke-width="0.1" stroke-miterlimit="10" points="46.63,60.22 37.39,60.22 
		37.39,79.51 38.48,79.51 38.48,61.3 46.63,61.3 46.63,60.22 	"/>
	<polyline fill="#1D2132" stroke="#1D2132" stroke-width="0.1" stroke-miterlimit="10" points="48.68,46.69 45.39,46.69 45.39,4.4 
		46.48,4.4 46.48,45.61 48.68,45.61 48.68,46.69 	"/>
	<polyline fill="#1D2132" stroke="#1D2132" stroke-width="0.1" stroke-miterlimit="10" points="66.94,46.69 63.71,46.69 
		63.71,45.61 66.94,45.61 66.94,46.69 	"/>
	<polyline fill="#1D2132" stroke="#1D2132" stroke-width="0.1" stroke-miterlimit="10" points="65.32,46.69 65.32,45.61 
		99.14,45.61 99.14,46.69 66.42,46.69 66.42,55.52 65.32,55.52 65.32,46.69 65.32,46.69 	"/>
	<polyline fill="#1D2132" stroke="#1D2132" stroke-width="0.1" stroke-miterlimit="10" points="66.42,79.56 66.42,67.07 
		65.32,67.07 65.32,79.56 66.42,79.56 	"/>
</g>
<g id="Details">
	<g>
		
			<path fill="none" stroke="#1D2132" stroke-width="0.1" stroke-linecap="round" stroke-linejoin="round" stroke-miterlimit="10" d="
			M40.75,78.15c0-0.51-0.41-0.93-0.93-0.93c-0.51,0-0.93,0.41-0.93,0.93c0,0.51,0.41,0.93,0.93,0.93S40.75,78.66,40.75,78.15"/>
		
			<path fill="none" stroke="#1D2132" stroke-width="0.1" stroke-linecap="round" stroke-linejoin="round" stroke-miterlimit="10" d="
			M40.58,78.15c0-0.41-0.33-0.75-0.75-0.75c-0.41,0-0.75,0.34-0.75,0.75s0.34,0.75,0.75,0.75S40.58,78.56,40.58,78.15"/>
		
			<path fill="none" stroke="#1D2132" stroke-width="0.1" stroke-linecap="round" stroke-linejoin="round" stroke-miterlimit="10" d="
			M40.53,78.15c0-0.39-0.32-0.7-0.7-0.7s-0.7,0.32-0.7,0.7s0.32,0.7,0.7,0.7S40.53,78.54,40.53,78.15"/>
		
			<line fill="none" stroke="#1D2132" stroke-width="0.1" stroke-linecap="round" stroke-linejoin="round" stroke-miterlimit="10" x1="39.83" y1="79.12" x2="39.83" y2="78.8"/>
		<polygon fill="#1D2132" points="39.83,78.65 39.79,78.67 39.76,78.69 39.73,78.73 39.73,78.78 39.76,78.82 39.79,78.84 
			39.83,78.85 39.88,78.84 39.91,78.82 39.93,78.78 39.93,78.73 39.91,78.69 39.88,78.67 		"/>
		
			<polygon fill="none" stroke="#1D2132" stroke-width="0.1" stroke-linecap="round" stroke-linejoin="round" stroke-miterlimit="10" points="
			39.83,78.65 39.79,78.67 39.76,78.69 39.73,78.73 39.73,78.78 39.76,78.82 39.79,78.84 39.83,78.85 39.88,78.84 39.91,78.82 
			39.93,78.78 39.93,78.73 39.91,78.69 39.88,78.67 		"/>
		
			<line fill="none" stroke="#1D2132" stroke-width="0.1" stroke-linecap="round" stroke-linejoin="round" stroke-miterlimit="10" x1="39.83" y1="78.71" x2="39.83" y2="78.39"/>
		<polygon fill="#1D2132" points="39.83,78.24 39.79,78.26 39.76,78.28 39.73,78.32 39.73,78.37 39.76,78.41 39.79,78.43 
			39.83,78.44 39.88,78.43 39.91,78.41 39.93,78.37 39.93,78.32 39.91,78.28 39.88,78.26 		"/>
		
			<polygon fill="none" stroke="#1D2132" stroke-width="0.1" stroke-linecap="round" stroke-linejoin="round" stroke-miterlimit="10" points="
			39.83,78.24 39.79,78.26 39.76,78.28 39.73,78.32 39.73,78.37 39.76,78.41 39.79,78.43 39.83,78.44 39.88,78.43 39.91,78.41 
			39.93,78.37 39.93,78.32 39.91,78.28 39.88,78.26 		"/>
		
			<line fill="none" stroke="#1D2132" stroke-width="0.1" stroke-linecap="round" stroke-linejoin="round" stroke-miterlimit="10" x1="39.83" y1="78.3" x2="39.83" y2="77.98"/>
		<polygon fill="#1D2132" points="39.83,77.83 39.79,77.85 39.76,77.87 39.73,77.91 39.73,77.96 39.76,78 39.79,78.02 39.83,78.03 
			39.88,78.02 39.91,78 39.93,77.96 39.93,77.91 39.91,77.87 39.88,77.85 		"/>
		
			<polygon fill="none" stroke="#1D2132" stroke-width="0.1" stroke-linecap="round" stroke-linejoin="round" stroke-miterlimit="10" points="
			39.83,77.83 39.79,77.85 39.76,77.87 39.73,77.91 39.73,77.96 39.76,78 39.79,78.02 39.83,78.03 39.88,78.02 39.91,78 
			39.93,77.96 39.93,77.91 39.91,77.87 39.88,77.85 		"/>
		
			<line fill="none" stroke="#1D2132" stroke-width="0.1" stroke-linecap="round" stroke-linejoin="round" stroke-miterlimit="10" x1="39.83" y1="77.9" x2="39.83" y2="77.57"/>
		<polygon fill="#1D2132" points="39.83,77.43 39.79,77.45 39.76,77.47 39.73,77.51 39.73,77.56 39.76,77.6 39.79,77.62 
			39.83,77.63 39.88,77.62 39.91,77.6 39.93,77.56 39.93,77.51 39.91,77.47 39.88,77.45 		"/>
		
			<polygon fill="none" stroke="#1D2132" stroke-width="0.1" stroke-linecap="round" stroke-linejoin="round" stroke-miterlimit="10" points="
			39.83,77.43 39.79,77.45 39.76,77.47 39.73,77.51 39.73,77.56 39.76,77.6 39.79,77.62 39.83,77.63 39.88,77.62 39.91,77.6 
			39.93,77.56 39.93,77.51 39.91,77.47 39.88,77.45 		"/>
		
			<line fill="none" stroke="#1D2132" stroke-width="0.1" stroke-linecap="round" stroke-linejoin="round" stroke-miterlimit="10" x1="39.83" y1="77.49" x2="39.83" y2="77.16"/>
		<polygon fill="#1D2132" points="39.83,77.02 39.79,77.04 39.76,77.06 39.73,77.1 39.73,77.15 39.76,77.19 39.79,77.21 
			39.83,77.22 39.88,77.21 39.91,77.19 39.93,77.15 39.93,77.1 39.91,77.06 39.88,77.04 		"/>
		
			<polygon fill="none" stroke="#1D2132" stroke-width="0.1" stroke-linecap="round" stroke-linejoin="round" stroke-miterlimit="10" points="
			39.83,77.02 39.79,77.04 39.76,77.06 39.73,77.1 39.73,77.15 39.76,77.19 39.79,77.21 39.83,77.22 39.88,77.21 39.91,77.19 
			39.93,77.15 39.93,77.1 39.91,77.06 39.88,77.04 		"/>
		
			<line fill="none" stroke="#1D2132" stroke-width="0.1" stroke-linecap="round" stroke-linejoin="round" stroke-miterlimit="10" x1="39.83" y1="77.08" x2="39.83" y2="76.85"/>
		<polygon fill="#1D2132" points="39.22,78.06 39.18,78.07 39.15,78.09 39.12,78.13 39.12,78.18 39.15,78.22 39.18,78.24 
			39.22,78.26 39.27,78.24 39.3,78.22 39.32,78.18 39.32,78.13 39.3,78.09 39.27,78.07 		"/>
		
			<polygon fill="none" stroke="#1D2132" stroke-width="0.1" stroke-linecap="round" stroke-linejoin="round" stroke-miterlimit="10" points="
			39.22,78.06 39.18,78.07 39.15,78.09 39.12,78.13 39.12,78.18 39.15,78.22 39.18,78.24 39.22,78.26 39.27,78.24 39.3,78.22 
			39.32,78.18 39.32,78.13 39.3,78.09 39.27,78.07 		"/>
		
			<line fill="none" stroke="#1D2132" stroke-width="0.1" stroke-linecap="round" stroke-linejoin="round" stroke-miterlimit="10" x1="39.27" y1="78.16" x2="39.59" y2="78.16"/>
		<polygon fill="#1D2132" points="39.63,78.06 39.59,78.07 39.56,78.09 39.53,78.13 39.53,78.18 39.56,78.22 39.59,78.24 
			39.63,78.26 39.68,78.24 39.71,78.22 39.73,78.18 39.73,78.13 39.71,78.09 39.68,78.07 		"/>
		
			<polygon fill="none" stroke="#1D2132" stroke-width="0.1" stroke-linecap="round" stroke-linejoin="round" stroke-miterlimit="10" points="
			39.63,78.06 39.59,78.07 39.56,78.09 39.53,78.13 39.53,78.18 39.56,78.22 39.59,78.24 39.63,78.26 39.68,78.24 39.71,78.22 
			39.73,78.18 39.73,78.13 39.71,78.09 39.68,78.07 		"/>
		
			<line fill="none" stroke="#1D2132" stroke-width="0.1" stroke-linecap="round" stroke-linejoin="round" stroke-miterlimit="10" x1="39.68" y1="78.16" x2="40" y2="78.16"/>
		<polygon fill="#1D2132" points="40.04,78.06 40,78.07 39.97,78.09 39.94,78.13 39.94,78.18 39.97,78.22 40,78.24 40.04,78.26 
			40.09,78.24 40.12,78.22 40.14,78.18 40.14,78.13 40.12,78.09 40.09,78.07 		"/>
		
			<polygon fill="none" stroke="#1D2132" stroke-width="0.1" stroke-linecap="round" stroke-linejoin="round" stroke-miterlimit="10" points="
			40.04,78.06 40,78.07 39.97,78.09 39.94,78.13 39.94,78.18 39.97,78.22 40,78.24 40.04,78.26 40.09,78.24 40.12,78.22 
			40.14,78.18 40.14,78.13 40.12,78.09 40.09,78.07 		"/>
		
			<line fill="none" stroke="#1D2132" stroke-width="0.1" stroke-linecap="round" stroke-linejoin="round" stroke-miterlimit="10" x1="40.08" y1="78.16" x2="40.41" y2="78.16"/>
		<polygon fill="#1D2132" points="40.45,78.06 40.41,78.07 40.38,78.09 40.35,78.13 40.35,78.18 40.38,78.22 40.41,78.24 
			40.45,78.26 40.5,78.24 40.53,78.22 40.55,78.18 40.55,78.13 40.53,78.09 40.5,78.07 		"/>
		
			<polygon fill="none" stroke="#1D2132" stroke-width="0.1" stroke-linecap="round" stroke-linejoin="round" stroke-miterlimit="10" points="
			40.45,78.06 40.41,78.07 40.38,78.09 40.35,78.13 40.35,78.18 40.38,78.22 40.41,78.24 40.45,78.26 40.5,78.24 40.53,78.22 
			40.55,78.18 40.55,78.13 40.53,78.09 40.5,78.07 		"/>
		
			<line fill="none" stroke="#1D2132" stroke-width="0.1" stroke-linecap="round" stroke-linejoin="round" stroke-miterlimit="10" x1="40.49" y1="78.16" x2="40.82" y2="78.16"/>
		<polygon fill="#1D2132" points="40.85,78.06 40.81,78.07 40.78,78.09 40.75,78.13 40.75,78.18 40.78,78.22 40.81,78.24 
			40.85,78.26 40.9,78.24 40.93,78.22 40.95,78.18 40.95,78.13 40.93,78.09 40.9,78.07 		"/>
		
			<polygon fill="none" stroke="#1D2132" stroke-width="0.1" stroke-linecap="round" stroke-linejoin="round" stroke-miterlimit="10" points="
			40.85,78.06 40.81,78.07 40.78,78.09 40.75,78.13 40.75,78.18 40.78,78.22 40.81,78.24 40.85,78.26 40.9,78.24 40.93,78.22 
			40.95,78.18 40.95,78.13 40.93,78.09 40.9,78.07 		"/>
		
			<line fill="none" stroke="#1D2132" stroke-width="0.1" stroke-linecap="round" stroke-linejoin="round" stroke-miterlimit="10" x1="40.9" y1="78.16" x2="41.13" y2="78.16"/>
		
			<polyline fill="none" stroke="#1D2132" stroke-width="0.1" stroke-linecap="round" stroke-linejoin="round" stroke-miterlimit="10" points="
			38.48,79.51 38.48,76.79 41.2,76.79 41.2,79.51 38.48,79.51 		"/>
		
			<path fill="none" stroke="#1D2132" stroke-width="0.1" stroke-linecap="round" stroke-linejoin="round" stroke-miterlimit="10" d="
			M40.8,78.15c0-0.54-0.43-0.97-0.97-0.97s-0.97,0.43-0.97,0.97s0.43,0.97,0.97,0.97C40.36,79.12,40.8,78.69,40.8,78.15"/>
		
			<line fill="none" stroke="#1D2132" stroke-width="0.1" stroke-linecap="round" stroke-linejoin="round" stroke-miterlimit="10" x1="39.83" y1="79.43" x2="39.83" y2="79.2"/>
		<polygon fill="#1D2132" points="39.83,79.06 39.79,79.08 39.76,79.1 39.73,79.14 39.73,79.19 39.76,79.23 39.79,79.25 
			39.83,79.26 39.88,79.25 39.91,79.23 39.93,79.19 39.93,79.14 39.91,79.1 39.88,79.08 		"/>
		
			<polygon fill="none" stroke="#1D2132" stroke-width="0.1" stroke-linecap="round" stroke-linejoin="round" stroke-miterlimit="10" points="
			39.83,79.06 39.79,79.08 39.76,79.1 39.73,79.14 39.73,79.19 39.76,79.23 39.79,79.25 39.83,79.26 39.88,79.25 39.91,79.23 
			39.93,79.19 39.93,79.14 39.91,79.1 39.88,79.08 		"/>
		
			<line fill="none" stroke="#1D2132" stroke-width="0.1" stroke-linecap="round" stroke-linejoin="round" stroke-miterlimit="10" x1="38.55" y1="78.16" x2="38.78" y2="78.16"/>
		<polygon fill="#1D2132" points="38.82,78.06 38.78,78.07 38.75,78.09 38.73,78.13 38.73,78.18 38.75,78.22 38.78,78.24 
			38.82,78.26 38.87,78.24 38.9,78.22 38.92,78.18 38.92,78.13 38.9,78.09 38.87,78.07 		"/>
		
			<polygon fill="none" stroke="#1D2132" stroke-width="0.1" stroke-linecap="round" stroke-linejoin="round" stroke-miterlimit="10" points="
			38.82,78.06 38.78,78.07 38.75,78.09 38.73,78.13 38.73,78.18 38.75,78.22 38.78,78.24 38.82,78.26 38.87,78.24 38.9,78.22 
			38.92,78.18 38.92,78.13 38.9,78.09 38.87,78.07 		"/>
		
			<line fill="none" stroke="#1D2132" stroke-width="0.1" stroke-linecap="round" stroke-linejoin="round" stroke-miterlimit="10" x1="38.86" y1="78.16" x2="39.19" y2="78.16"/>
	</g>
	<g>
		
			<path fill="none" stroke="#1D2132" stroke-width="0.1" stroke-linecap="round" stroke-linejoin="round" stroke-miterlimit="10" d="
			M94.96,78.16c0,0.51,0.41,0.93,0.93,0.93c0.51,0,0.93-0.41,0.93-0.93c0-0.51-0.41-0.93-0.93-0.93
			C95.38,77.23,94.96,77.64,94.96,78.16"/>
		
			<path fill="none" stroke="#1D2132" stroke-width="0.1" stroke-linecap="round" stroke-linejoin="round" stroke-miterlimit="10" d="
			M95.14,78.16c0,0.41,0.34,0.75,0.75,0.75s0.75-0.33,0.75-0.75c0-0.41-0.33-0.75-0.75-0.75S95.14,77.74,95.14,78.16"/>
		
			<path fill="none" stroke="#1D2132" stroke-width="0.1" stroke-linecap="round" stroke-linejoin="round" stroke-miterlimit="10" d="
			M95.18,78.16c0,0.39,0.32,0.7,0.7,0.7c0.39,0,0.7-0.32,0.7-0.7c0-0.39-0.32-0.7-0.7-0.7C95.5,77.45,95.18,77.77,95.18,78.16"/>
		
			<line fill="none" stroke="#1D2132" stroke-width="0.1" stroke-linecap="round" stroke-linejoin="round" stroke-miterlimit="10" x1="95.89" y1="79.44" x2="95.89" y2="79.2"/>
		<polygon fill="#1D2132" points="95.89,79.07 95.85,79.08 95.81,79.1 95.79,79.15 95.79,79.19 95.81,79.24 95.85,79.26 
			95.89,79.27 95.94,79.26 95.97,79.24 95.99,79.19 95.99,79.15 95.97,79.1 95.94,79.08 		"/>
		
			<polygon fill="none" stroke="#1D2132" stroke-width="0.1" stroke-linecap="round" stroke-linejoin="round" stroke-miterlimit="10" points="
			95.89,79.07 95.85,79.08 95.81,79.1 95.79,79.15 95.79,79.19 95.81,79.24 95.85,79.26 95.89,79.27 95.94,79.26 95.97,79.24 
			95.99,79.19 95.99,79.15 95.97,79.1 95.94,79.08 		"/>
		
			<line fill="none" stroke="#1D2132" stroke-width="0.1" stroke-linecap="round" stroke-linejoin="round" stroke-miterlimit="10" x1="95.89" y1="79.13" x2="95.89" y2="78.8"/>
		<polygon fill="#1D2132" points="95.89,78.66 95.85,78.67 95.81,78.69 95.79,78.74 95.79,78.78 95.81,78.83 95.85,78.85 
			95.89,78.86 95.94,78.85 95.97,78.83 95.99,78.78 95.99,78.74 95.97,78.69 95.94,78.67 		"/>
		
			<polygon fill="none" stroke="#1D2132" stroke-width="0.1" stroke-linecap="round" stroke-linejoin="round" stroke-miterlimit="10" points="
			95.89,78.66 95.85,78.67 95.81,78.69 95.79,78.74 95.79,78.78 95.81,78.83 95.85,78.85 95.89,78.86 95.94,78.85 95.97,78.83 
			95.99,78.78 95.99,78.74 95.97,78.69 95.94,78.67 		"/>
		
			<line fill="none" stroke="#1D2132" stroke-width="0.1" stroke-linecap="round" stroke-linejoin="round" stroke-miterlimit="10" x1="95.89" y1="78.72" x2="95.89" y2="78.39"/>
		<polygon fill="#1D2132" points="95.89,78.25 95.85,78.26 95.81,78.28 95.79,78.33 95.79,78.37 95.81,78.42 95.85,78.44 
			95.89,78.45 95.94,78.44 95.97,78.42 95.99,78.37 95.99,78.33 95.97,78.28 95.94,78.26 		"/>
		
			<polygon fill="none" stroke="#1D2132" stroke-width="0.1" stroke-linecap="round" stroke-linejoin="round" stroke-miterlimit="10" points="
			95.89,78.25 95.85,78.26 95.81,78.28 95.79,78.33 95.79,78.37 95.81,78.42 95.85,78.44 95.89,78.45 95.94,78.44 95.97,78.42 
			95.99,78.37 95.99,78.33 95.97,78.28 95.94,78.26 		"/>
		
			<line fill="none" stroke="#1D2132" stroke-width="0.1" stroke-linecap="round" stroke-linejoin="round" stroke-miterlimit="10" x1="95.89" y1="78.31" x2="95.89" y2="77.98"/>
		<polygon fill="#1D2132" points="95.89,77.84 95.85,77.85 95.81,77.87 95.79,77.92 95.79,77.96 95.81,78.01 95.85,78.03 
			95.89,78.04 95.94,78.03 95.97,78.01 95.99,77.96 95.99,77.92 95.97,77.87 95.94,77.85 		"/>
		
			<polygon fill="none" stroke="#1D2132" stroke-width="0.1" stroke-linecap="round" stroke-linejoin="round" stroke-miterlimit="10" points="
			95.89,77.84 95.85,77.85 95.81,77.87 95.79,77.92 95.79,77.96 95.81,78.01 95.85,78.03 95.89,78.04 95.94,78.03 95.97,78.01 
			95.99,77.96 95.99,77.92 95.97,77.87 95.94,77.85 		"/>
		
			<line fill="none" stroke="#1D2132" stroke-width="0.1" stroke-linecap="round" stroke-linejoin="round" stroke-miterlimit="10" x1="95.89" y1="77.91" x2="95.89" y2="77.57"/>
		<polygon fill="#1D2132" points="95.89,77.44 95.85,77.45 95.81,77.47 95.79,77.52 95.79,77.56 95.81,77.61 95.85,77.63 
			95.89,77.64 95.94,77.63 95.97,77.61 95.99,77.56 95.99,77.52 95.97,77.47 95.94,77.45 		"/>
		
			<polygon fill="none" stroke="#1D2132" stroke-width="0.1" stroke-linecap="round" stroke-linejoin="round" stroke-miterlimit="10" points="
			95.89,77.44 95.85,77.45 95.81,77.47 95.79,77.52 95.79,77.56 95.81,77.61 95.85,77.63 95.89,77.64 95.94,77.63 95.97,77.61 
			95.99,77.56 95.99,77.52 95.97,77.47 95.94,77.45 		"/>
		
			<line fill="none" stroke="#1D2132" stroke-width="0.1" stroke-linecap="round" stroke-linejoin="round" stroke-miterlimit="10" x1="95.89" y1="77.5" x2="95.89" y2="77.16"/>
		<polygon fill="#1D2132" points="95.89,77.03 95.85,77.04 95.81,77.06 95.79,77.11 95.79,77.15 95.81,77.2 95.85,77.22 
			95.89,77.23 95.94,77.22 95.97,77.2 95.99,77.15 95.99,77.11 95.97,77.06 95.94,77.04 		"/>
		
			<polygon fill="none" stroke="#1D2132" stroke-width="0.1" stroke-linecap="round" stroke-linejoin="round" stroke-miterlimit="10" points="
			95.89,77.03 95.85,77.04 95.81,77.06 95.79,77.11 95.79,77.15 95.81,77.2 95.85,77.22 95.89,77.23 95.94,77.22 95.97,77.2 
			95.99,77.15 95.99,77.11 95.97,77.06 95.94,77.04 		"/>
		
			<line fill="none" stroke="#1D2132" stroke-width="0.1" stroke-linecap="round" stroke-linejoin="round" stroke-miterlimit="10" x1="95.89" y1="77.09" x2="95.89" y2="76.85"/>
		
			<line fill="none" stroke="#1D2132" stroke-width="0.1" stroke-linecap="round" stroke-linejoin="round" stroke-miterlimit="10" x1="97.19" y1="78.16" x2="96.96" y2="78.16"/>
		<polygon fill="#1D2132" points="96.91,78.06 96.87,78.07 96.83,78.09 96.81,78.14 96.81,78.18 96.83,78.23 96.87,78.25 
			96.91,78.26 96.96,78.25 96.99,78.23 97.01,78.18 97.01,78.14 96.99,78.09 96.96,78.07 		"/>
		
			<polygon fill="none" stroke="#1D2132" stroke-width="0.1" stroke-linecap="round" stroke-linejoin="round" stroke-miterlimit="10" points="
			96.91,78.06 96.87,78.07 96.83,78.09 96.81,78.14 96.81,78.18 96.83,78.23 96.87,78.25 96.91,78.26 96.96,78.25 96.99,78.23 
			97.01,78.18 97.01,78.14 96.99,78.09 96.96,78.07 		"/>
		
			<line fill="none" stroke="#1D2132" stroke-width="0.1" stroke-linecap="round" stroke-linejoin="round" stroke-miterlimit="10" x1="96.88" y1="78.16" x2="96.55" y2="78.16"/>
		<polygon fill="#1D2132" points="96.51,78.06 96.47,78.07 96.44,78.09 96.41,78.14 96.41,78.18 96.44,78.23 96.47,78.25 
			96.51,78.26 96.56,78.25 96.59,78.23 96.61,78.18 96.61,78.14 96.59,78.09 96.56,78.07 		"/>
		
			<polygon fill="none" stroke="#1D2132" stroke-width="0.1" stroke-linecap="round" stroke-linejoin="round" stroke-miterlimit="10" points="
			96.51,78.06 96.47,78.07 96.44,78.09 96.41,78.14 96.41,78.18 96.44,78.23 96.47,78.25 96.51,78.26 96.56,78.25 96.59,78.23 
			96.61,78.18 96.61,78.14 96.59,78.09 96.56,78.07 		"/>
		
			<line fill="none" stroke="#1D2132" stroke-width="0.1" stroke-linecap="round" stroke-linejoin="round" stroke-miterlimit="10" x1="96.47" y1="78.16" x2="96.14" y2="78.16"/>
		<polygon fill="#1D2132" points="96.1,78.06 96.06,78.07 96.03,78.09 96,78.14 96,78.18 96.03,78.23 96.06,78.25 96.1,78.26 
			96.15,78.25 96.18,78.23 96.2,78.18 96.2,78.14 96.18,78.09 96.15,78.07 		"/>
		
			<polygon fill="none" stroke="#1D2132" stroke-width="0.1" stroke-linecap="round" stroke-linejoin="round" stroke-miterlimit="10" points="
			96.1,78.06 96.06,78.07 96.03,78.09 96,78.14 96,78.18 96.03,78.23 96.06,78.25 96.1,78.26 96.15,78.25 96.18,78.23 96.2,78.18 
			96.2,78.14 96.18,78.09 96.15,78.07 		"/>
		
			<line fill="none" stroke="#1D2132" stroke-width="0.1" stroke-linecap="round" stroke-linejoin="round" stroke-miterlimit="10" x1="96.06" y1="78.16" x2="95.74" y2="78.16"/>
		<polygon fill="#1D2132" points="95.69,78.06 95.65,78.07 95.62,78.09 95.59,78.14 95.59,78.18 95.62,78.23 95.65,78.25 
			95.69,78.26 95.74,78.25 95.77,78.23 95.79,78.18 95.79,78.14 95.77,78.09 95.74,78.07 		"/>
		
			<polygon fill="none" stroke="#1D2132" stroke-width="0.1" stroke-linecap="round" stroke-linejoin="round" stroke-miterlimit="10" points="
			95.69,78.06 95.65,78.07 95.62,78.09 95.59,78.14 95.59,78.18 95.62,78.23 95.65,78.25 95.69,78.26 95.74,78.25 95.77,78.23 
			95.79,78.18 95.79,78.14 95.77,78.09 95.74,78.07 		"/>
		
			<line fill="none" stroke="#1D2132" stroke-width="0.1" stroke-linecap="round" stroke-linejoin="round" stroke-miterlimit="10" x1="95.65" y1="78.16" x2="95.33" y2="78.16"/>
		<polygon fill="#1D2132" points="95.28,78.06 95.24,78.07 95.21,78.09 95.18,78.14 95.18,78.18 95.21,78.23 95.24,78.25 
			95.28,78.26 95.33,78.25 95.36,78.23 95.38,78.18 95.38,78.14 95.36,78.09 95.33,78.07 		"/>
		
			<polygon fill="none" stroke="#1D2132" stroke-width="0.1" stroke-linecap="round" stroke-linejoin="round" stroke-miterlimit="10" points="
			95.28,78.06 95.24,78.07 95.21,78.09 95.18,78.14 95.18,78.18 95.21,78.23 95.24,78.25 95.28,78.26 95.33,78.25 95.36,78.23 
			95.38,78.18 95.38,78.14 95.36,78.09 95.33,78.07 		"/>
		
			<line fill="none" stroke="#1D2132" stroke-width="0.1" stroke-linecap="round" stroke-linejoin="round" stroke-miterlimit="10" x1="95.25" y1="78.16" x2="94.92" y2="78.16"/>
		<polygon fill="#1D2132" points="94.87,78.06 94.83,78.07 94.79,78.09 94.77,78.14 94.77,78.18 94.79,78.23 94.83,78.25 
			94.87,78.26 94.92,78.25 94.95,78.23 94.97,78.18 94.97,78.14 94.95,78.09 94.92,78.07 		"/>
		
			<polygon fill="none" stroke="#1D2132" stroke-width="0.1" stroke-linecap="round" stroke-linejoin="round" stroke-miterlimit="10" points="
			94.87,78.06 94.83,78.07 94.79,78.09 94.77,78.14 94.77,78.18 94.79,78.23 94.83,78.25 94.87,78.26 94.92,78.25 94.95,78.23 
			94.97,78.18 94.97,78.14 94.95,78.09 94.92,78.07 		"/>
		
			<line fill="none" stroke="#1D2132" stroke-width="0.1" stroke-linecap="round" stroke-linejoin="round" stroke-miterlimit="10" x1="94.84" y1="78.16" x2="94.61" y2="78.16"/>
		
			<polyline fill="none" stroke="#1D2132" stroke-width="0.1" stroke-linecap="round" stroke-linejoin="round" stroke-miterlimit="10" points="
			97.26,79.51 97.26,76.8 94.54,76.8 94.54,79.51 97.26,79.51 		"/>
		
			<path fill="none" stroke="#1D2132" stroke-width="0.1" stroke-linecap="round" stroke-linejoin="round" stroke-miterlimit="10" d="
			M94.92,78.16c0,0.54,0.43,0.97,0.97,0.97s0.97-0.43,0.97-0.97s-0.43-0.97-0.97-0.97S94.92,77.62,94.92,78.16"/>
	</g>
</g>
</svg>
