<?xml version="1.0" encoding="utf-8"?>
<!-- Generator: Adobe Illustrator 22.0.0, SVG Export Plug-In . SVG Version: 6.00 Build 0)  -->
<svg version="1.1" id="Layer_1" xmlns="http://www.w3.org/2000/svg" xmlns:xlink="http://www.w3.org/1999/xlink" x="0px" y="0px"
	 viewBox="0 0 100 82" enable-background="new 0 0 100 82" xml:space="preserve">
<g id="Background">
	<rect x="1.63" y="4.37" opacity="0.1" fill="#1D2132" enable-background="new    " width="97" height="75.63"/>
</g>
<g id="Plumbing">
	<g>
		<g>
			<path fill="#FFFFFF" stroke="#1D2132" stroke-width="0.1" stroke-linecap="square" stroke-miterlimit="10" d="M8.33,75.2
				c0,0.13,0.08,0.23,0.19,0.23s0.19-0.1,0.19-0.23c0-0.13-0.09-0.23-0.19-0.23S8.34,75.07,8.33,75.2z"/>
			
				<ellipse fill="#FFFFFF" stroke="#1D2132" stroke-width="0.1" stroke-linecap="square" stroke-miterlimit="10" cx="8.52" cy="74.21" rx="0.19" ry="0.23"/>
			<path fill="#FFFFFF" stroke="#1D2132" stroke-width="0.1" stroke-linecap="square" stroke-miterlimit="10" d="M8.33,70.16
				c0,0.13,0.08,0.23,0.19,0.23s0.19-0.1,0.19-0.23c0-0.13-0.09-0.23-0.19-0.23S8.34,70.03,8.33,70.16z"/>
			<path fill="#FFFFFF" stroke="#1D2132" stroke-width="0.1" stroke-linecap="square" stroke-miterlimit="10" d="M8.52,75.44
				c0,0.52-0.11,0.94-0.25,0.94H7.64c-0.14,0-0.25-0.42-0.25-0.94v-5.5C7.39,69.42,7.5,69,7.64,69h0.63c0.14,0,0.25,0.42,0.25,0.94
				V75.44z"/>
			
				<rect x="2.68" y="68.55" fill="#FFFFFF" stroke="#1D2132" stroke-width="0.1" stroke-linecap="square" stroke-miterlimit="10" width="5.52" height="8.19"/>
			<path fill="#FFFFFF" stroke="#1D2132" stroke-width="0.1" stroke-linecap="square" stroke-miterlimit="10" d="M7.9,75.44
				c0,0.52-0.9,0.94-2.01,0.94H4.98c-1.11,0-2.01-0.42-2.01-0.94v-5.5c0-0.52,0.9-0.94,2.01-0.94h0.91C7,69,7.9,69.42,7.9,69.94
				V75.44z"/>
		</g>
		<g>
			<path fill="#FFFFFF" stroke="#1D2132" stroke-width="0.1" stroke-linecap="square" stroke-miterlimit="10" d="M3.49,69.91H3.42
				c-0.09,0-0.16,0.07-0.16,0.16v5.24c0,0.09,0.07,0.16,0.16,0.16h0.07c0.09,0,0.16-0.07,0.16-0.16v-5.24
				C3.65,69.99,3.58,69.91,3.49,69.91z"/>
			<g>
				
					<rect x="2.38" y="74.91" fill="#FFFFFF" stroke="#1D2132" stroke-width="0.1" stroke-linecap="square" stroke-miterlimit="10" width="0.88" height="0.33"/>
				
					<rect x="2.39" y="70.12" fill="#FFFFFF" stroke="#1D2132" stroke-width="0.1" stroke-linecap="square" stroke-miterlimit="10" width="0.88" height="0.33"/>
			</g>
			<g>
				
					<rect x="2.22" y="74.73" fill="#FFFFFF" stroke="#1D2132" stroke-width="0.1" stroke-linecap="square" stroke-miterlimit="10" width="0.17" height="0.69"/>
				
					<rect x="2.21" y="69.94" fill="#FFFFFF" stroke="#1D2132" stroke-width="0.1" stroke-linecap="square" stroke-miterlimit="10" width="0.17" height="0.69"/>
			</g>
		</g>
	</g>
	<g>
		<g>
			<path fill="#FFFFFF" stroke="#1D1D1B" stroke-width="0.1" stroke-linecap="square" stroke-miterlimit="10" d="M3.32,58.22v0.1
				c0,0.24,0.19,0.43,0.43,0.43h4.78c0.16,0,0.29,0.13,0.29,0.29s-0.13,0.29-0.29,0.29H3.75c-0.56,0-1.01-0.45-1.01-1.01v-0.1
				c0-0.16,0.13-0.29,0.29-0.29S3.32,58.06,3.32,58.22z"/>
			
				<rect x="2.35" y="57.77" fill="#FFFFFF" stroke="#1D1D1B" stroke-width="0.1" stroke-linecap="square" stroke-miterlimit="10" width="1.23" height="0.62"/>
			<path fill="#FFFFFF" stroke="#1D1D1B" stroke-width="0.1" stroke-linecap="square" stroke-miterlimit="10" d="M3.32,54.03v-0.1
				c0-0.24,0.19-0.43,0.43-0.43h4.78c0.16,0,0.29-0.13,0.29-0.29s-0.13-0.29-0.29-0.29H3.75c-0.56,0-1.01,0.45-1.01,1.01v0.1
				c0,0.16,0.13,0.29,0.29,0.29S3.32,54.19,3.32,54.03z"/>
			
				<rect x="2.35" y="53.87" fill="#FFFFFF" stroke="#1D1D1B" stroke-width="0.1" stroke-linecap="square" stroke-miterlimit="10" width="1.23" height="0.62"/>
		</g>
		
			<rect x="5.28" y="52.57" fill="#FFFFFF" stroke="#1D1D1B" stroke-width="0.1" stroke-linecap="square" stroke-miterlimit="10" width="1.3" height="7.11"/>
		
			<rect x="6.87" y="52.57" fill="#FFFFFF" stroke="#1D1D1B" stroke-width="0.1" stroke-linecap="square" stroke-miterlimit="10" width="1.3" height="7.11"/>
		
			<rect x="8.46" y="52.57" fill="#FFFFFF" stroke="#1D1D1B" stroke-width="0.1" stroke-linecap="square" stroke-miterlimit="10" width="1.3" height="7.11"/>
	</g>
	<path fill="#FFFFFF" stroke="#1D1D1B" stroke-width="0.1" stroke-linecap="square" stroke-miterlimit="10" d="M11.4,46.86v0.76
		c0,0.61-0.5,1.11-1.11,1.11h-5.3c-0.21,0-0.38,0.17-0.38,0.38v14.78C4.61,64.5,4.11,65,3.5,65H2.35v-0.73h1.14
		c0.21,0,0.38-0.17,0.38-0.38V49.11c0-0.61,0.5-1.11,1.11-1.11h5.3c0.21,0,0.38-0.17,0.38-0.38v-0.76h0.73H11.4z"/>
	<g>
		
			<circle fill="#FFFFFF" stroke="#1D1D1B" stroke-width="0.1" stroke-linecap="square" stroke-miterlimit="10" cx="8.06" cy="51.78" r="1.21"/>
		<path fill="#FFFFFF" stroke="#1D1D1B" stroke-width="0.1" stroke-linecap="square" stroke-miterlimit="10" d="M7.83,47.35v4.24
			c0,0.13,0.11,0.24,0.24,0.24s0.24-0.1,0.24-0.24v-4.24H7.83z"/>
		
			<rect x="7.09" y="46.86" fill="#FFFFFF" stroke="#1D1D1B" stroke-width="0.1" stroke-linecap="square" stroke-miterlimit="10" width="1.95" height="0.49"/>
	</g>
	<g>
		<path fill="#FFFFFF" stroke="#1D1D1B" stroke-width="0.1" stroke-linecap="square" stroke-miterlimit="10" d="M29.56,46.85v3.88
			c0,1.5-1.42,1.45-4.03,1.45s-4.04-0.01-4.04-1.45v-3.88H29.56z"/>
		
			<line fill="none" stroke="#1D1D1B" stroke-width="0.1" stroke-linecap="square" stroke-miterlimit="10" x1="25.75" y1="49.96" x2="26.15" y2="49.96"/>
		
			<line fill="none" stroke="#1D1D1B" stroke-width="0.1" stroke-linecap="square" stroke-miterlimit="10" x1="25.52" y1="49.71" x2="25.52" y2="49.28"/>
		
			<line fill="none" stroke="#1D1D1B" stroke-width="0.1" stroke-linecap="square" stroke-miterlimit="10" x1="24.89" y1="49.96" x2="25.29" y2="49.96"/>
		
			<line fill="none" stroke="#1D1D1B" stroke-width="0.1" stroke-linecap="square" stroke-miterlimit="10" x1="25.52" y1="50.64" x2="25.52" y2="50.21"/>
		<path fill="none" stroke="#1D1D1B" stroke-width="0.1" stroke-linecap="square" stroke-miterlimit="10" d="M21.95,50.84
			c0.27-0.7,0.75-1.29,1.37-1.7"/>
		<path fill="none" stroke="#1D1D1B" stroke-width="0.1" stroke-linecap="square" stroke-miterlimit="10" d="M23.31,49.15
			c0.56-0.34,1.2-0.52,1.86-0.52c0.1,0,0.19,0,0.29,0.01"/>
		<path fill="none" stroke="#1D1D1B" stroke-width="0.1" stroke-linecap="square" stroke-miterlimit="10" d="M27.67,49.15
			c0.64,0.4,1.14,1,1.42,1.7"/>
		<path fill="none" stroke="#1D1D1B" stroke-width="0.1" stroke-linecap="square" stroke-miterlimit="10" d="M25.5,48.63
			c0.09-0.01,0.19-0.01,0.29-0.01c0.66,0,1.31,0.18,1.88,0.52"/>
		<path fill="none" stroke="#1D1D1B" stroke-width="0.1" stroke-linecap="square" stroke-miterlimit="10" d="M23.21,49.27
			c0.76-0.11,1.52-0.17,2.29-0.17c0.77,0,1.53,0.05,2.29,0.17"/>
		<path fill="none" stroke="#1D1D1B" stroke-width="0.1" stroke-linecap="square" stroke-miterlimit="10" d="M25.52,47.7
			c0.71,0,1.42,0.05,2.12,0.16"/>
		<path fill="none" stroke="#1D1D1B" stroke-width="0.1" stroke-linecap="square" stroke-miterlimit="10" d="M28.03,48.09
			c0.68,0.83,1.06,1.91,1.06,3.02c0,0.02,0,0.04,0,0.06"/>
		<path fill="none" stroke="#1D1D1B" stroke-width="0.1" stroke-linecap="square" stroke-miterlimit="10" d="M27.65,47.87
			c0.14,0.02,0.28,0.1,0.38,0.22"/>
		<path fill="none" stroke="#1D1D1B" stroke-width="0.1" stroke-linecap="square" stroke-miterlimit="10" d="M23.4,47.86
			c0.7-0.1,1.41-0.16,2.12-0.16"/>
		<path fill="none" stroke="#1D1D1B" stroke-width="0.1" stroke-linecap="square" stroke-miterlimit="10" d="M23.02,48.08
			c0.1-0.12,0.23-0.2,0.38-0.22"/>
		<path fill="none" stroke="#1D1D1B" stroke-width="0.1" stroke-linecap="square" stroke-miterlimit="10" d="M25.52,49.44
			c-0.27,0-0.49,0.23-0.49,0.52s0.22,0.52,0.49,0.52s0.49-0.23,0.49-0.52S25.79,49.44,25.52,49.44"/>
		<path fill="none" stroke="#1D1D1B" stroke-width="0.1" stroke-linecap="square" stroke-miterlimit="10" d="M25.52,49.68
			c-0.15,0-0.26,0.12-0.26,0.28c0,0.15,0.11,0.28,0.26,0.28c0.14,0,0.26-0.12,0.26-0.28C25.78,49.81,25.67,49.68,25.52,49.68"/>
		<path fill="none" stroke="#1D1D1B" stroke-width="0.1" stroke-linecap="square" stroke-miterlimit="10" d="M23.03,48.1
			c-0.69,0.83-1.07,1.91-1.07,3.02c0,0.01,0,0.03,0,0.05c0,0.73,7.14,0.68,7.13-0.06"/>
	</g>
	<path fill="#FFFFFF" stroke="#1D1D1B" stroke-width="0.1" stroke-linecap="square" stroke-miterlimit="10" d="M20.57,46.85v5
		c0,0.61,0.57,1.11,1.27,1.11h7.36c0.7,0,1.27-0.5,1.27-1.11v-5.08h0.63v5.08c0,0.97-0.85,1.76-1.9,1.76h-7.36
		c-1.05,0-1.9-0.79-1.9-1.76v-5H20.57z"/>
	<g>
		<polygon fill="#FFFFFF" points="16.59,79.41 16.59,77.42 16.59,77.4 16.6,77.37 16.6,77.35 16.63,77.32 16.63,77.29 16.63,77.26 
			16.63,77.25 16.64,77.23 16.67,77.21 16.68,77.18 16.71,77.17 16.73,77.16 16.73,77.14 16.76,77.13 16.79,77.11 16.82,77.1 
			16.82,71.83 16.82,71.7 16.82,71.58 16.85,71.44 16.87,71.32 16.91,71.2 16.94,71.08 16.99,70.96 17.04,70.84 17.1,70.72 
			17.16,70.62 17.22,70.51 17.29,70.41 17.38,70.31 17.47,70.22 17.56,70.13 17.64,70.05 17.73,69.96 17.84,69.89 17.94,69.82 
			18.04,69.77 18.14,69.7 18.25,69.65 18.37,69.6 18.47,69.55 18.6,69.51 18.72,69.48 18.83,69.45 18.95,69.42 19.07,69.41 
			19.19,69.39 19.31,69.39 19.43,69.39 19.55,69.39 19.67,69.39 19.8,69.41 19.92,69.42 20.04,69.45 20.16,69.48 20.27,69.51 
			20.39,69.55 20.5,69.6 20.6,69.65 20.71,69.7 20.82,69.77 20.94,69.82 21.02,69.89 21.12,69.96 21.21,70.05 21.31,70.13 
			21.4,70.22 21.48,70.31 21.56,70.41 21.64,70.51 21.71,70.62 21.77,70.72 21.83,70.84 21.87,70.96 21.94,71.08 21.95,71.2 
			22,71.32 22.02,71.44 22.03,71.58 22.03,71.7 22.05,71.83 22.05,77.1 22.08,77.11 22.1,77.13 22.13,77.14 22.13,77.16 
			22.15,77.17 22.18,77.18 22.2,77.21 22.21,77.23 22.22,77.25 22.24,77.26 22.25,77.29 22.25,77.32 22.26,77.35 22.26,77.37 
			22.28,77.4 22.28,77.42 22.28,79.41 19.43,79.41 		"/>
		
			<line fill="none" stroke="#1D2132" stroke-width="0.1" stroke-linecap="square" stroke-miterlimit="10" x1="22.05" y1="71.83" x2="22.05" y2="77.1"/>
		
			<line fill="none" stroke="#1D2132" stroke-width="0.1" stroke-linecap="square" stroke-miterlimit="10" x1="16.59" y1="79.41" x2="22.28" y2="79.41"/>
		
			<line fill="none" stroke="#1D2132" stroke-width="0.1" stroke-linecap="square" stroke-miterlimit="10" x1="22.28" y1="77.42" x2="22.28" y2="79.41"/>
		
			<line fill="none" stroke="#1D2132" stroke-width="0.1" stroke-linecap="square" stroke-miterlimit="10" x1="17.32" y1="76.17" x2="19.43" y2="76.17"/>
		
			<line fill="none" stroke="#1D2132" stroke-width="0.1" stroke-linecap="square" stroke-miterlimit="10" x1="21.53" y1="76.17" x2="22.05" y2="71.83"/>
		
			<line fill="none" stroke="#1D2132" stroke-width="0.1" stroke-linecap="square" stroke-miterlimit="10" x1="21.53" y1="76.17" x2="19.43" y2="76.17"/>
		
			<line fill="none" stroke="#1D2132" stroke-width="0.1" stroke-linecap="square" stroke-miterlimit="10" x1="17.32" y1="76.17" x2="16.82" y2="71.83"/>
		
			<line fill="none" stroke="#1D2132" stroke-width="0.1" stroke-linecap="square" stroke-miterlimit="10" x1="16.82" y1="71.83" x2="16.82" y2="77.1"/>
		
			<line fill="none" stroke="#1D2132" stroke-width="0.1" stroke-linecap="square" stroke-miterlimit="10" x1="16.59" y1="77.42" x2="16.59" y2="79.41"/>
		<path fill="none" stroke="#1D2132" stroke-width="0.1" stroke-linecap="square" stroke-miterlimit="10" d="M21.98,77.1
			c-0.85-0.09-1.7-0.15-2.55-0.15c-0.85,0-1.7,0.04-2.55,0.14"/>
		<path fill="none" stroke="#1D2132" stroke-width="0.1" stroke-linecap="square" stroke-miterlimit="10" d="M22.27,77.42
			c0-0.16-0.13-0.31-0.29-0.34"/>
		<path fill="none" stroke="#1D2132" stroke-width="0.1" stroke-linecap="square" stroke-miterlimit="10" d="M22.06,71.83
			c0-1.34-1.18-2.44-2.62-2.44c-1.45,0-2.62,1.09-2.62,2.44"/>
		<path fill="none" stroke="#1D2132" stroke-width="0.1" stroke-linecap="square" stroke-miterlimit="10" d="M16.88,77.09
			c-0.15,0.01-0.29,0.17-0.29,0.34"/>
		<path fill="none" stroke="#1D2132" stroke-width="0.1" stroke-linecap="square" stroke-miterlimit="10" d="M19.43,78.42
			c-0.15,0-0.25-0.12-0.27-0.28c0-0.15,0.12-0.28,0.27-0.28c0.15,0,0.27,0.14,0.27,0.28C19.7,78.29,19.58,78.42,19.43,78.42"/>
	</g>
	<g>
		
			<rect x="14.59" y="78.52" fill="#FFFFFF" stroke="#1D1D1B" stroke-width="0.1" stroke-linecap="square" stroke-miterlimit="10" width="1.44" height="0.98"/>
		<path fill="#FFFFFF" stroke="#1D1D1B" stroke-width="0.1" stroke-linecap="square" stroke-miterlimit="10" d="M15.3,78.96
			c-0.18,0-0.32-0.14-0.32-0.32v-6.89c0-0.18,0.14-0.32,0.32-0.32s0.32,0.14,0.32,0.32v6.89C15.62,78.81,15.48,78.96,15.3,78.96z"/>
	</g>
	<g>
		
			<rect x="22.83" y="78.52" fill="#FFFFFF" stroke="#1D1D1B" stroke-width="0.1" stroke-linecap="square" stroke-miterlimit="10" width="1.44" height="0.98"/>
		<path fill="#FFFFFF" stroke="#1D1D1B" stroke-width="0.1" stroke-linecap="square" stroke-miterlimit="10" d="M23.55,78.96
			c-0.18,0-0.32-0.14-0.32-0.32v-6.89c0-0.18,0.14-0.32,0.32-0.32s0.32,0.14,0.32,0.32v6.89C23.87,78.81,23.73,78.96,23.55,78.96z"
			/>
	</g>
</g>
<g id="Furniture">
	<g>
		
			<rect x="62.95" y="71.15" fill="#FFFFFF" stroke="#1D2132" stroke-width="0.1" stroke-linecap="square" stroke-miterlimit="22.9256" width="34.88" height="8.23"/>
		
			<rect x="76.75" y="71.15" fill="#FFFFFF" stroke="#1D2132" stroke-width="0.1" stroke-linecap="square" stroke-miterlimit="22.9256" width="6.41" height="8.23"/>
		
			<rect x="62.6" y="71.15" fill="#FFFFFF" stroke="#1D2132" stroke-width="0.1" stroke-linecap="square" stroke-miterlimit="22.9256" width="7.27" height="8.23"/>
		
			<rect x="90.75" y="71.15" fill="#FFFFFF" stroke="#1D2132" stroke-width="0.1" stroke-linecap="square" stroke-miterlimit="22.9256" width="7.08" height="8.23"/>
		<g>
			
				<line fill="none" stroke="#1D2132" stroke-width="0.1" stroke-linecap="square" stroke-miterlimit="22.9256" x1="94.21" y1="74.24" x2="94.21" y2="76.29"/>
			
				<line fill="none" stroke="#1D2132" stroke-width="0.1" stroke-linecap="square" stroke-miterlimit="22.9256" x1="93.48" y1="74.53" x2="94.93" y2="75.99"/>
			
				<line fill="none" stroke="#1D2132" stroke-width="0.1" stroke-linecap="square" stroke-miterlimit="22.9256" x1="93.17" y1="75.28" x2="95.24" y2="75.28"/>
			
				<line fill="none" stroke="#1D2132" stroke-width="0.1" stroke-linecap="square" stroke-miterlimit="22.9256" x1="93.48" y1="75.99" x2="94.93" y2="74.53"/>
		</g>
		<g>
			
				<rect x="77.6" y="71.48" fill="#FFFFFF" stroke="#1D2132" stroke-width="0.1" stroke-linecap="square" stroke-miterlimit="22.9256" width="4.8" height="7.55"/>
			<g>
				<path fill="#FFFFFF" stroke="#1D2132" stroke-width="0.1" stroke-linecap="square" stroke-miterlimit="22.9256" d="M78.67,73.54
					c0-0.72,0.6-1.32,1.31-1.31c0.73,0,1.31,0.58,1.31,1.31c0,0.73-0.58,1.31-1.31,1.31C79.26,74.85,78.67,74.28,78.67,73.54"/>
				<path fill="#FFFFFF" stroke="#1D2132" stroke-width="0.1" stroke-linecap="square" stroke-miterlimit="22.9256" d="M78.67,77.26
					c0-0.72,0.6-1.31,1.31-1.31c0.73,0,1.31,0.58,1.31,1.31s-0.58,1.31-1.31,1.31C79.26,78.57,78.67,77.98,78.67,77.26"/>
				<path fill="#FFFFFF" stroke="#1D2132" stroke-width="0.1" stroke-linecap="square" stroke-miterlimit="22.9256" d="M78.93,73.54
					c0-0.58,0.47-1.06,1.04-1.04c0.57,0,1.04,0.46,1.04,1.04c0,0.57-0.46,1.04-1.04,1.04C79.4,74.59,78.93,74.12,78.93,73.54"/>
				<path fill="#FFFFFF" stroke="#1D2132" stroke-width="0.1" stroke-linecap="square" stroke-miterlimit="22.9256" d="M78.93,77.26
					c0-0.58,0.47-1.04,1.04-1.04s1.04,0.46,1.04,1.04c0,0.57-0.46,1.04-1.04,1.04C79.4,78.3,78.93,77.84,78.93,77.26"/>
			</g>
		</g>
		<g>
			<path fill="#FFFFFF" stroke="#1D2132" stroke-width="0.1" stroke-linecap="square" stroke-miterlimit="22.9256" d="M68.29,77.38
				v-5.24c0-0.27-0.21-0.47-0.47-0.47h-3.18c-0.27,0-0.47,0.21-0.47,0.47v5.24c0,0.27,0.21,0.47,0.47,0.47h3.18
				C68.1,77.86,68.3,77.65,68.29,77.38z"/>
			<g>
				<path fill="#FFFFFF" stroke="#1D2132" stroke-width="0.1" stroke-linecap="square" stroke-miterlimit="22.9256" d="M66.24,77.05
					c0.18,0,0.33-0.17,0.33-0.37c0-0.21-0.15-0.37-0.33-0.37c-0.18,0-0.33,0.17-0.33,0.37C65.89,76.89,66.06,77.05,66.24,77.05z"/>
				<g>
					<path fill="#FFFFFF" stroke="#1D2132" stroke-width="0.1" stroke-linecap="square" stroke-miterlimit="22.9256" d="
						M66.24,78.89c0.32,0,0.57-0.23,0.57-0.52s-0.25-0.52-0.57-0.52c-0.31,0-0.56,0.24-0.57,0.52
						C65.67,78.65,65.92,78.89,66.24,78.89z"/>
					<path fill="#FFFFFF" stroke="#1D2132" stroke-width="0.1" stroke-linecap="square" stroke-miterlimit="22.9256" d="
						M66.25,75.46c-0.1,0-0.17,0.11-0.17,0.27l-0.01,2.67c0,0.15,0.06,0.27,0.17,0.27l0,0c0.09,0,0.17-0.11,0.17-0.27l0.01-2.67
						C66.41,75.57,66.35,75.46,66.25,75.46L66.25,75.46z"/>
					<path fill="#FFFFFF" stroke="#1D2132" stroke-width="0.1" stroke-linecap="square" stroke-miterlimit="22.9256" d="M66.24,78.5
						c0.43,0,0.78-0.05,0.78-0.15c0-0.08-0.36-0.15-0.78-0.15c-0.43,0-0.78,0.06-0.78,0.15C65.44,78.44,65.81,78.51,66.24,78.5z"/>
				</g>
			</g>
		</g>
	</g>
	<g>
		<g>
			
				<rect x="92.97" y="6.68" fill="#FFFFFF" stroke="#1D2132" stroke-width="0.1" stroke-linecap="square" stroke-miterlimit="10" width="4.78" height="27.66"/>
			<g>
				<polygon fill="#FFFFFF" stroke="#1D2132" stroke-width="0.1" stroke-linecap="square" stroke-miterlimit="10" points="
					92.66,31.58 92.66,29.71 92.97,29.71 92.97,29.21 92.49,29.21 92.49,32.07 92.97,32.07 92.97,31.58 				"/>
				<polygon fill="#FFFFFF" stroke="#1D2132" stroke-width="0.1" stroke-linecap="square" stroke-miterlimit="10" points="
					92.66,11.32 92.66,9.45 92.97,9.45 92.97,8.96 92.49,8.96 92.49,11.82 92.97,11.82 92.97,11.32 				"/>
			</g>
			<g>
				<polygon fill="#FFFFFF" stroke="#1D2132" stroke-width="0.1" stroke-linecap="square" stroke-miterlimit="10" points="
					92.66,26.25 92.66,24.38 92.97,24.38 92.97,23.89 92.49,23.89 92.49,26.76 92.97,26.76 92.97,26.25 				"/>
				<polygon fill="#FFFFFF" stroke="#1D2132" stroke-width="0.1" stroke-linecap="square" stroke-miterlimit="10" points="
					92.66,16.65 92.66,14.77 92.97,14.77 92.97,14.28 92.49,14.28 92.49,17.14 92.97,17.14 92.97,16.65 				"/>
			</g>
		</g>
		<g>
			<path fill="#FFFFFF" stroke="#1D2132" stroke-width="0.1" stroke-linecap="square" stroke-miterlimit="10" d="M96.8,19.57v1.9
				c0,0.46-0.37,0.83-0.83,0.83H95.7c-0.46,0-0.83-0.37-0.83-0.83v-1.9c0-0.46,0.37-0.83,0.83-0.83h0.26
				C96.43,18.74,96.81,19.1,96.8,19.57z"/>
			<path fill="#FFFFFF" stroke="#1D2132" stroke-width="0.1" stroke-linecap="square" stroke-miterlimit="10" d="M96.02,19.75v1.53
				c0,0.2-0.16,0.36-0.36,0.36h-0.08c-0.2,0-0.36-0.16-0.36-0.36v-1.53c0-0.2,0.16-0.36,0.36-0.36h0.08
				C95.86,19.4,96.02,19.55,96.02,19.75z"/>
			
				<rect x="95.22" y="14.23" fill="#FFFFFF" stroke="#1D2132" stroke-width="0.1" stroke-linecap="square" stroke-miterlimit="10" width="0.16" height="12.57"/>
			<polygon fill="#FFFFFF" stroke="#1D2132" stroke-width="0.1" stroke-linecap="square" stroke-miterlimit="10" points="
				95.71,24.98 95.38,26.8 95.38,14.23 95.71,16.04 			"/>
		</g>
	</g>
	<g>
		<path fill="#FFFFFF" stroke="#1D2132" stroke-width="0.1" stroke-linecap="square" stroke-miterlimit="10" d="M59.93,48.54
			c1,0.31,1.82,1.3,3.99,1.31c2.17,0.01,4.46-2.61,3.37-6.36c-1.09-3.75-3.13-4.7-4.9-4.51c-1.77,0.19-2.67,1.38-3.25,2.02
			c-1.34,1.45-1.35,2-1.92,2.45c-1.16,0.92-0.62,2.98-0.01,3.73C58.33,48.54,58.93,48.22,59.93,48.54z"/>
		<path fill="none" stroke="#1D2132" stroke-width="0.1" stroke-linecap="square" stroke-miterlimit="10" d="M66.53,48.49
			c0,0-0.44,0.5-1.14,0.84c-0.7,0.34-0.91,0.21-1.82,0.15c-0.91-0.06-1.35-0.06-2.59-0.87c-0.88-0.57-0.78-0.89-1.1-0.77
			c-0.19,0.07-0.72-0.06-1.15-0.48c-0.71-0.69-0.85-1.36-1.03-2.26c-0.18-0.91,0.39-1.5,0.49-1.58c0.1-0.08-0.2-0.39,0.13-0.9
			c1.1-1.69,1.15-1.28,2.15-2.55c0.5-0.63,1.92-1.1,1.92-1.1"/>
		<path fill="none" stroke="#1D2132" stroke-width="0.1" stroke-linecap="square" stroke-miterlimit="10" d="M59.19,43.58
			c0,0,0.13,0.05,0.69,0c0.55-0.05,1.35-0.3,1.35-0.3s0,0,0.07-0.14c0.07-0.13,0.19-0.44,0.46-0.83s-0.22-1.09-0.22-1.09"/>
		<path fill="none" stroke="#1D2132" stroke-width="0.1" stroke-linecap="square" stroke-miterlimit="10" d="M60.38,47.48
			c0,0,0.2-0.25,0.7-0.54s1.06-0.59,1.06-0.59s-0.09-0.98-0.38-1.75s-0.53-1.31-0.53-1.31"/>
		<path fill="none" stroke="#1D2132" stroke-width="0.1" stroke-linecap="square" stroke-miterlimit="10" d="M62.14,46.36
			c0,0,0.45,0,1.05,0.18s0.79,0.3,0.82,0.74c0.03,0.44-0.27,1.08-0.27,1.08"/>
		<path fill="none" stroke="#1D2132" stroke-width="0.1" stroke-linecap="square" stroke-miterlimit="10" d="M65.67,43.4
			c0,0-0.15,0.12-0.44,0.2c-0.29,0.07-0.41,0.03-0.41,0.03s0,0-0.23-0.56c-0.23-0.56-1.1-1.32-1.1-1.32"/>
		<path fill="none" stroke="#1D2132" stroke-width="0.1" stroke-linecap="square" stroke-miterlimit="10" d="M65.36,46.48
			c-0.25-0.06-0.39-0.31-0.39-0.31s0,0,0.09-0.21s0.09-0.77-0.08-1.24c-0.16-0.47-0.16-1.09-0.16-1.09"/>
		<path fill="none" stroke="#1D2132" stroke-width="0.1" stroke-linecap="square" stroke-miterlimit="10" d="M64.17,41.12
			c0,0-0.19,0.05-0.37,0.15c-0.18,0.11-0.31,0.48-0.31,0.48"/>
		<path fill="#FFFFFF" stroke="#1D2132" stroke-width="0.1" stroke-linecap="square" stroke-miterlimit="10" d="M57.36,44.77
			c-0.29,0.14-0.21,0.38-0.15,0.71s0.15,0.53,0.23,0.88c0.08,0.34,0.41,0.38,0.41,0.38l0.52-0.18c0,0-0.02-0.15-0.07-0.15
			c-0.07-0.01-0.33,0.22-0.45,0.14c-0.2-0.14-0.09-0.43-0.15-0.76c-0.06-0.33-0.22-0.54-0.21-0.75c0-0.12,0.24-0.22,0.37-0.2
			c0.08,0.01,0.05-0.12,0.05-0.12S57.65,44.62,57.36,44.77z"/>
	</g>
	<g>
		<g>
			<path fill="#FFFFFF" stroke="#1D2132" stroke-width="0.1" stroke-linecap="square" stroke-miterlimit="10" d="M94.6,59.25
				c-0.78-0.19-1.77-0.15-2.41-0.15s-1.63-0.04-2.4,0.15c-0.79,0.19-1.12,0.6-1.01,1.96c0.11,1.36,0.08,3.2,0.34,3.88
				c0.23,0.6,1.54,0.15,3.08,0.15s2.85,0.45,3.08-0.15c0.26-0.68,0.22-2.52,0.33-3.88C95.72,59.85,95.38,59.44,94.6,59.25z"/>
			<path fill="#FFFFFF" stroke="#1D2132" stroke-width="0.1" stroke-linecap="square" stroke-miterlimit="10" d="M94.42,59.22
				c-0.72-0.15-1.64-0.12-2.23-0.12c-0.59,0-1.51-0.02-2.23,0.13c-0.73,0.16-1.04,0.5-0.94,1.61c0.11,1.11,0.08,2.62,0.32,3.18
				c0.22,0.5,1.43,0.96,2.86,0.96c1.42,0,2.63-0.47,2.85-0.96c0.24-0.56,0.21-2.08,0.31-3.19S95.15,59.38,94.42,59.22z"/>
			<g>
				<path fill="#FFFFFF" stroke="#1D2132" stroke-width="0.1" stroke-linecap="square" stroke-miterlimit="10" d="M95.45,66.02
					c0-1.65-1.51-0.49-3.25-0.49c-1.68,0-3.06-1.12-3.24,0.43c0.43,0.14,0.87,0.26,1.32,0.35C92.06,66.65,93.83,66.53,95.45,66.02z"
					/>
				<path fill="#FFFFFF" stroke="#1D2132" stroke-width="0.1" stroke-linecap="square" stroke-miterlimit="10" d="M95.52,66
					c-0.03,0-0.05,0.01-0.08,0.02c-1.62,0.51-3.39,0.64-5.17,0.29c-0.45-0.09-0.89-0.21-1.32-0.35c-0.03-0.01-0.06-0.02-0.09-0.03
					l-0.1,0.3c0.08,0.03,0.16,0.06,0.24,0.08c0.39,0.12,0.79,0.23,1.21,0.31c1.76,0.35,3.5,0.24,5.11-0.23
					c0.1-0.03,0.2-0.06,0.3-0.09L95.52,66z"/>
			</g>
		</g>
		<g>
			<path fill="#FFFFFF" stroke="#1D2132" stroke-width="0.1" stroke-linecap="square" stroke-miterlimit="10" d="M94.6,47.44
				c-0.78,0.19-1.77,0.15-2.41,0.15s-1.63,0.04-2.4-0.15c-0.79-0.19-1.12-0.6-1.01-1.96c0.11-1.36,0.08-3.2,0.34-3.88
				c0.23-0.6,1.54-0.15,3.08-0.15s2.85-0.45,3.08,0.15c0.26,0.68,0.22,2.52,0.33,3.88C95.72,46.83,95.38,47.25,94.6,47.44z"/>
			<path fill="#FFFFFF" stroke="#1D2132" stroke-width="0.1" stroke-linecap="square" stroke-miterlimit="10" d="M94.42,47.46
				c-0.72,0.15-1.64,0.12-2.23,0.12c-0.59,0-1.51,0.02-2.23-0.13c-0.73-0.16-1.04-0.5-0.94-1.61c0.11-1.11,0.08-2.62,0.32-3.18
				c0.22-0.5,1.43-0.96,2.86-0.96c1.42,0,2.63,0.47,2.85,0.96c0.24,0.56,0.21,2.08,0.31,3.19C95.46,46.97,95.15,47.31,94.42,47.46z"
				/>
			<g>
				<path fill="#FFFFFF" stroke="#1D2132" stroke-width="0.1" stroke-linecap="square" stroke-miterlimit="10" d="M95.45,40.67
					c0,1.65-1.51,0.49-3.25,0.49c-1.68,0-3.06,1.12-3.24-0.43c0.43-0.14,0.87-0.26,1.32-0.35C92.06,40.03,93.83,40.15,95.45,40.67z"
					/>
				<path fill="#FFFFFF" stroke="#1D2132" stroke-width="0.1" stroke-linecap="square" stroke-miterlimit="10" d="M95.52,40.69
					c-0.03,0-0.05-0.01-0.08-0.02c-1.62-0.51-3.39-0.64-5.17-0.29c-0.45,0.09-0.89,0.21-1.32,0.35c-0.03,0.01-0.06,0.02-0.09,0.03
					l-0.1-0.3c0.08-0.03,0.16-0.06,0.24-0.08c0.39-0.12,0.79-0.23,1.21-0.31c1.76-0.35,3.5-0.24,5.11,0.23
					c0.1,0.03,0.2,0.06,0.3,0.09L95.52,40.69z"/>
			</g>
		</g>
		<g>
			<path fill="#FFFFFF" stroke="#1D2132" stroke-width="0.1" stroke-linecap="square" stroke-miterlimit="10" d="M86.51,50.63
				c0.19,0.78,0.15,1.77,0.15,2.41c0,0.64,0.04,1.63-0.15,2.4c-0.19,0.79-0.6,1.12-1.96,1.01s-3.2-0.08-3.88-0.34
				c-0.6-0.23-0.15-1.54-0.15-3.08c0-1.54-0.45-2.85,0.15-3.08c0.68-0.26,2.52-0.22,3.88-0.33C85.9,49.51,86.32,49.85,86.51,50.63z"
				/>
			<path fill="#FFFFFF" stroke="#1D2132" stroke-width="0.1" stroke-linecap="square" stroke-miterlimit="10" d="M86.53,50.82
				c0.15,0.72,0.12,1.64,0.12,2.23s0.02,1.51-0.13,2.23c-0.16,0.73-0.5,1.04-1.61,0.94c-1.11-0.11-2.62-0.08-3.18-0.32
				c-0.5-0.22-0.96-1.43-0.96-2.86c0-1.42,0.47-2.63,0.96-2.85c0.56-0.24,2.08-0.21,3.19-0.31C86.04,49.77,86.38,50.08,86.53,50.82z
				"/>
			<g>
				<path fill="#FFFFFF" stroke="#1D2132" stroke-width="0.1" stroke-linecap="square" stroke-miterlimit="10" d="M79.73,49.79
					c1.65,0,0.49,1.51,0.49,3.25c0,1.68,1.12,3.06-0.43,3.24c-0.14-0.43-0.26-0.87-0.35-1.32C79.1,53.17,79.22,51.41,79.73,49.79z"
					/>
				<path fill="#FFFFFF" stroke="#1D2132" stroke-width="0.1" stroke-linecap="square" stroke-miterlimit="10" d="M79.76,49.71
					c0,0.03-0.01,0.05-0.02,0.08c-0.51,1.62-0.64,3.39-0.29,5.17c0.09,0.45,0.21,0.89,0.35,1.32c0.01,0.03,0.02,0.06,0.03,0.09
					l-0.3,0.1c-0.03-0.08-0.06-0.16-0.08-0.24c-0.12-0.39-0.23-0.79-0.31-1.21c-0.35-1.76-0.24-3.5,0.23-5.11
					c0.03-0.1,0.06-0.2,0.09-0.3L79.76,49.71z"/>
			</g>
		</g>
		
			<rect x="86.85" y="47.8" fill="#FFFFFF" stroke="#1D2132" stroke-width="0.1" stroke-linecap="square" stroke-miterlimit="10" width="11.01" height="11.01"/>
	</g>
	<g>
		
			<rect x="34.85" y="46.72" fill="#FFFFFF" stroke="#1D2132" stroke-width="0.1" stroke-linecap="square" stroke-miterlimit="10" width="0.69" height="8.26"/>
		
			<rect x="35.14" y="47.17" fill="#FFFFFF" stroke="#1D2132" stroke-width="0.1" stroke-linecap="square" stroke-miterlimit="10" width="0.41" height="7.35"/>
	</g>
	<g>
		
			<rect x="34.85" y="70.79" fill="#FFFFFF" stroke="#1D2132" stroke-width="0.1" stroke-linecap="square" stroke-miterlimit="10" width="0.69" height="5.51"/>
		<g>
			
				<rect x="35.55" y="71.18" fill="#FFFFFF" stroke="#1D2132" stroke-width="0.1" stroke-linecap="square" stroke-miterlimit="10" width="1.05" height="0.31"/>
			
				<rect x="35.55" y="71.18" fill="#FFFFFF" stroke="#1D2132" stroke-width="0.1" stroke-linecap="square" stroke-miterlimit="10" width="0.19" height="0.31"/>
		</g>
		<g>
			
				<rect x="35.55" y="72.66" fill="#FFFFFF" stroke="#1D2132" stroke-width="0.1" stroke-linecap="square" stroke-miterlimit="10" width="1.05" height="0.31"/>
			
				<rect x="35.55" y="72.66" fill="#FFFFFF" stroke="#1D2132" stroke-width="0.1" stroke-linecap="square" stroke-miterlimit="10" width="0.19" height="0.31"/>
		</g>
		<g>
			
				<rect x="35.55" y="74.13" fill="#FFFFFF" stroke="#1D2132" stroke-width="0.1" stroke-linecap="square" stroke-miterlimit="10" width="1.05" height="0.31"/>
			
				<rect x="35.55" y="74.13" fill="#FFFFFF" stroke="#1D2132" stroke-width="0.1" stroke-linecap="square" stroke-miterlimit="10" width="0.19" height="0.31"/>
		</g>
		<g>
			
				<rect x="35.55" y="75.6" fill="#FFFFFF" stroke="#1D2132" stroke-width="0.1" stroke-linecap="square" stroke-miterlimit="10" width="1.05" height="0.31"/>
			
				<rect x="35.55" y="75.6" fill="#FFFFFF" stroke="#1D2132" stroke-width="0.1" stroke-linecap="square" stroke-miterlimit="10" width="0.19" height="0.31"/>
		</g>
	</g>
	<g>
		<g>
			<g>
				
					<rect x="3.67" y="37.55" fill="#FFFFFF" stroke="#1D2132" stroke-width="0.1" stroke-linecap="square" stroke-miterlimit="10" width="4.91" height="4.91"/>
				<polygon fill="#FFFFFF" stroke="#1D2132" stroke-width="0.1" stroke-linecap="square" stroke-miterlimit="10" points="
					8.91,40.97 8.91,39.05 8.59,39.05 8.59,38.54 9.08,38.54 9.08,41.48 8.59,41.48 8.59,40.97 				"/>
			</g>
			<g>
				
					<rect x="3.67" y="7.68" fill="#FFFFFF" stroke="#1D2132" stroke-width="0.1" stroke-linecap="square" stroke-miterlimit="10" width="4.91" height="4.91"/>
				<polygon fill="#FFFFFF" stroke="#1D2132" stroke-width="0.1" stroke-linecap="square" stroke-miterlimit="10" points="
					8.91,11.1 8.91,9.18 8.59,9.18 8.59,8.67 9.08,8.67 9.08,11.61 8.59,11.61 8.59,11.1 				"/>
			</g>
		</g>
		<g>
			<g>
				
					<rect x="3.26" y="13.43" fill="#FFFFFF" stroke="#1D2132" stroke-width="0.1" stroke-linecap="square" stroke-miterlimit="22.9256" width="25.86" height="23.27"/>
				<path fill="#FFFFFF" stroke="#1D2132" stroke-width="0.1" stroke-linecap="square" stroke-miterlimit="22.9256" d="M4.05,13.72
					c-0.28,0.03-0.11,0.75-0.25,0.39c-0.15-0.36-0.22,0-0.22,0.36c0,0.36,0,14.65,0,15.31c0,0.66,0,1.58,0,1.58s-0.09-0.08,0,0.22
					c0.09,0.31-0.09,4.28,0,4.59c0.09,0.31,0.48-0.53,0.62-0.37c0.13,0.16-0.72,0.54-0.5,0.56c0.28,0.03,1.12-0.11,1.68-0.07
					c0.56,0.04,0.87,0.25,1.61,0.01c0.38-0.13,0.83,0.14,2.01,0.12s1.64-0.02,3.25,0s3.83,0.01,5.25,0.06
					c1.14,0.04,1.86-0.15,2.36-0.03c0.19,0.04,1.21-0.01,2.53,0.03c1.32,0.04,5.32-0.06,6.02-0.08c0.69-0.01,0.45,0.01,0.38-0.1
					c-0.07-0.11-0.42-0.15-0.68-0.31c-0.26-0.17,0.06-0.2,0.49,0.06c0.43,0.25,0.21,0.06,0.21-0.51c0-0.38-0.04-1.12-0.17-1.21
					c-0.13-0.1-0.1-0.08,0.07-0.17c0.17-0.1,0.21-0.72,0.07-1.14c-0.13-0.41,0-2.51-0.1-2.62s-0.17-0.11,0-0.2
					c0.17-0.09,0.17-11.95,0.17-13.67c0-1.75-0.02-2.47-0.06-2.7c-0.03-0.21-0.62,0.58-0.88,0.64c-0.26,0.07,0.07-0.16,0.14-0.22
					c0.07-0.08,0.48-0.3,0.58-0.43c0.1-0.13-0.31,0.04-0.74,0.13c-0.63,0.13,0.51-0.16,0.01-0.17c-0.44,0-0.27,0.09-0.66,0.01
					c-0.17-0.03-0.54-0.06-1.18-0.03c-1.04,0.04-2.65-0.12-4.59-0.1s-2.5-0.04-2.64,0.09c-0.13,0.13-0.85,0.39-0.92,0.24
					c-0.06-0.15,0.27-0.27-0.62-0.31s-2.49,0.08-3.52,0.08s-2.5-0.12-2.76,0.03c-0.26,0.15-0.5,0.13-0.66,0s-0.26,0.02-1.32,0.02
					s-1.7-0.05-2.72-0.13c-0.62-0.05-1.25,0-1.25,0C4.76,13.82,4.33,13.67,4.05,13.72z"/>
				<path fill="#FFFFFF" stroke="#1D2132" stroke-width="0.1" stroke-linecap="square" stroke-miterlimit="22.9256" d="M10.2,15.07
					c-0.39,0.85-0.1,3.16,0.14,3.85s-0.32,14.56-0.06,15.51s0.54,1.4,0.4,0.89c-0.13-0.52,0.1-1.33,0.07-0.4
					c-0.04,0.93,0.05,1.69,0.05,1.93c0,0.06,0,0.06,0.5,0.1c0.38,0.03,0.7,0.12,0.73,0c0.04-0.11-0.63-1.56-0.66-1.62
					c-0.16-0.24,0.76,1.45,0.83,1.6c0.07,0.15,0.4,0.04,1.43-0.06c1.01-0.1,2.05,0.02,2.56-0.1c0.53-0.13-0.5,0.02-0.83-0.06
					c-0.33-0.08-0.49,0.05-1.48-1.34c-1-1.39-1.39-13.86-1.54-16.09c-0.06-0.88-0.29-2.83-0.06-3.6c0.19-0.61,0.37-1.3,0.3-1.42
					c-0.07-0.12-0.14,0.1-0.3,0.3c-0.17,0.21-0.2,0.23-0.43,0.42c-0.23,0.2,0.29-0.51,1.03-1.15c0.72-0.64,1.98-0.3,1.98-0.4
					c0-0.1-3.66-0.17-4.42-0.06C9.86,13.46,10.61,14.21,10.2,15.07z"/>
				<g>
					<path fill="#FFFFFF" stroke="#1D2132" stroke-width="0.1" stroke-linecap="square" stroke-miterlimit="22.9256" d="M3.41,26.88
						c-0.12,0.31-0.1,1.15-0.14,3.07c-0.04,1.91,0.07,2.68,0.11,3.04c0.04,0.35,0.26,1.07,0.12,1.25c-0.15,0.18,0.19,0.31,0.29,0.26
						c0.11-0.05,0.62-0.1,1.49-0.01c0.89,0.09,2.1-0.22,2.21-0.09c0.11,0.14,0.19-0.09,0.15-0.26c-0.04-0.18,0.08-0.49,0.1-0.86
						c0.09-1.71,0.19-2.79,0.08-5.24c-0.03-0.63-0.24-1.42-0.1-1.68c0.15-0.27,0-0.31-0.19-0.22c-0.19,0.09-0.27,0.21-0.98-0.01
						c-0.69-0.22-1.25-0.19-1.98-0.05c-0.74,0.14-0.91,0.09-1.02,0c-0.11-0.09-0.17-0.18-0.17,0.19C3.39,26.34,3.5,26.55,3.41,26.88
						z"/>
					<path fill="none" stroke="#1D2132" stroke-width="0.1" stroke-linecap="square" stroke-miterlimit="22.9256" d="M7.05,34
						c0,0,0.68-1.58,0.68-3.77c0-2.19-0.5-3.64-0.5-3.64"/>
				</g>
				<g>
					<path fill="#FFFFFF" stroke="#1D2132" stroke-width="0.1" stroke-linecap="square" stroke-miterlimit="22.9256" d="M5.77,27.8
						c-0.09,0.22-0.08,0.84-0.11,2.23s0.06,1.94,0.09,2.21c0.03,0.25,0.21,0.78,0.09,0.91c-0.13,0.13,0.15,0.22,0.23,0.2
						c0.09-0.04,0.5-0.08,1.21-0.01c0.71,0.06,1.7-0.17,1.79-0.07c0.09,0.1,0.15-0.07,0.12-0.2c-0.03-0.13,0.06-0.36,0.08-0.63
						c0.07-1.24,0.16-2.02,0.07-3.81c-0.03-0.46-0.2-1.03-0.08-1.22s0-0.23-0.15-0.17c-0.16,0.07-0.22,0.16-0.79-0.01
						c-0.56-0.16-1.01-0.13-1.6-0.03s-0.73,0.07-0.82,0c-0.09-0.07-0.14-0.14-0.14,0.13C5.76,27.4,5.85,27.56,5.77,27.8z"/>
					<path fill="none" stroke="#1D2132" stroke-width="0.1" stroke-linecap="square" stroke-miterlimit="22.9256" d="M8.71,32.97
						c0,0,0.56-1.15,0.56-2.74c0-1.58-0.4-2.65-0.4-2.65"/>
				</g>
				<g>
					<path fill="#FFFFFF" stroke="#1D2132" stroke-width="0.1" stroke-linecap="square" stroke-miterlimit="22.9256" d="M3.41,16.68
						c-0.12,0.31-0.1,1.15-0.14,3.07c-0.04,1.91,0.07,2.68,0.11,3.04c0.04,0.35,0.26,1.07,0.12,1.25c-0.15,0.18,0.19,0.31,0.29,0.26
						c0.11-0.05,0.62-0.1,1.49-0.01c0.89,0.09,2.1-0.22,2.21-0.09c0.11,0.14,0.19-0.09,0.15-0.26c-0.04-0.18,0.08-0.49,0.1-0.86
						c0.09-1.71,0.19-2.79,0.08-5.24c-0.03-0.63-0.24-1.42-0.1-1.68c0.15-0.27,0-0.31-0.19-0.22s-0.27,0.21-0.98-0.01
						c-0.69-0.22-1.25-0.19-1.98-0.05c-0.74,0.14-0.91,0.09-1.02,0c-0.11-0.09-0.17-0.18-0.17,0.19C3.39,16.14,3.5,16.36,3.41,16.68
						z"/>
					<path fill="none" stroke="#1D2132" stroke-width="0.1" stroke-linecap="square" stroke-miterlimit="22.9256" d="M7.05,23.81
						c0,0,0.68-1.58,0.68-3.77s-0.5-3.64-0.5-3.64"/>
				</g>
				<g>
					<path fill="#FFFFFF" stroke="#1D2132" stroke-width="0.1" stroke-linecap="square" stroke-miterlimit="22.9256" d="M5.77,17.61
						c-0.09,0.22-0.08,0.84-0.11,2.23c-0.03,1.39,0.06,1.94,0.09,2.21c0.03,0.25,0.21,0.78,0.09,0.91c-0.13,0.13,0.15,0.22,0.23,0.2
						c0.09-0.04,0.5-0.08,1.21-0.01c0.71,0.06,1.7-0.17,1.79-0.07c0.09,0.1,0.15-0.07,0.12-0.2c-0.03-0.13,0.06-0.36,0.08-0.63
						c0.07-1.24,0.16-2.02,0.07-3.81c-0.03-0.46-0.2-1.03-0.08-1.22c0.12-0.2,0-0.23-0.15-0.17c-0.16,0.07-0.22,0.16-0.79-0.01
						c-0.56-0.16-1.01-0.13-1.6-0.03s-0.73,0.07-0.82,0c-0.09-0.07-0.14-0.14-0.14,0.13C5.76,17.21,5.85,17.36,5.77,17.61z"/>
					<path fill="none" stroke="#1D2132" stroke-width="0.1" stroke-linecap="square" stroke-miterlimit="22.9256" d="M8.71,22.77
						c0,0,0.56-1.15,0.56-2.74c0-1.58-0.4-2.65-0.4-2.65"/>
				</g>
				<path fill="#FFFFFF" stroke="#1D2132" stroke-width="0.1" stroke-linecap="square" stroke-miterlimit="22.9256" d="M28.27,36.82
					h-7.2c-0.33,0-0.61-0.26-0.61-0.61V13.76c0-0.33,0.26-0.61,0.61-0.61h7.2c0.33,0,0.61,0.26,0.61,0.61v22.45
					C28.88,36.56,28.6,36.83,28.27,36.82z"/>
			</g>
			<g>
				
					<rect x="2.12" y="9.55" fill="#FFFFFF" stroke="#1D2132" stroke-width="0.1" stroke-linecap="square" stroke-miterlimit="22.9256" width="0.64" height="31.04"/>
				<path fill="#FFFFFF" stroke="#1D2132" stroke-width="0.1" stroke-linecap="square" stroke-miterlimit="22.9256" d="M2.79,40.32
					H2.76V9.82H2.8c0.25,0,0.46,0.21,0.46,0.46v29.57C3.26,40.11,3.05,40.32,2.79,40.32z"/>
				<g>
					<g>
						<g>
							<path fill="#FFFFFF" stroke="#1D2132" stroke-width="0.1" stroke-linecap="square" stroke-miterlimit="22.9256" d="
								M2.76,39.56h0.16c0.25,0,0.46-0.21,0.46-0.46v-0.07c0-0.25-0.21-0.46-0.46-0.46H2.76V39.56L2.76,39.56z"/>
							<path fill="#FFFFFF" stroke="#1D2132" stroke-width="0.1" stroke-linecap="square" stroke-miterlimit="22.9256" d="
								M7.52,35.47L7.52,35.47c0.11-0.02,0.25,0.22,0.33,0.55c0.08,0.32,0.06,0.61-0.05,0.63l0,0c-0.41,0.08-0.83,0.1-1.24,0.06
								l-0.18-0.73C6.74,35.74,7.13,35.58,7.52,35.47z"/>
							
								<ellipse transform="matrix(0.9728 -0.2315 0.2315 0.9728 -8.2394 2.4856)" fill="#FFFFFF" stroke="#1D2132" stroke-width="0.1" stroke-linecap="square" stroke-miterlimit="22.9256" cx="6.47" cy="36.35" rx="0.13" ry="0.38"/>
							<path fill="#FFFFFF" stroke="#1D2132" stroke-width="0.1" stroke-linecap="square" stroke-miterlimit="22.9256" d="
								M6.36,36.3l-0.08,0.03c-0.02,0.01-0.47,0.19-0.8,0.85c-0.06,0.12-0.11,0.24-0.17,0.38c-0.17,0.39-0.33,0.79-0.67,1.05
								c-0.45,0.35-1.19,0.35-1.2,0.35H3.37v0.17h0.08c0.04,0,0.81,0,1.31-0.39c0.37-0.3,0.56-0.73,0.72-1.12
								c0.06-0.13,0.11-0.25,0.17-0.37c0.3-0.61,0.71-0.77,0.71-0.77l0.08-0.03C6.44,36.39,6.41,36.29,6.36,36.3z"/>
						</g>
					</g>
					<g>
						<g>
							<path fill="#FFFFFF" stroke="#1D2132" stroke-width="0.1" stroke-linecap="square" stroke-miterlimit="22.9256" d="
								M2.76,10.59h0.16c0.25,0,0.46,0.21,0.46,0.46v0.07c0,0.25-0.21,0.46-0.46,0.46H2.76V10.59L2.76,10.59z"/>
							<path fill="#FFFFFF" stroke="#1D2132" stroke-width="0.1" stroke-linecap="square" stroke-miterlimit="22.9256" d="
								M7.52,14.68L7.52,14.68c0.11,0.02,0.25-0.22,0.33-0.55c0.08-0.32,0.06-0.61-0.05-0.63l0,0c-0.41-0.08-0.83-0.1-1.24-0.06
								l-0.18,0.73C6.74,14.4,7.13,14.57,7.52,14.68z"/>
							
								<ellipse transform="matrix(0.2315 -0.9728 0.9728 0.2315 -8.4518 16.9026)" fill="#FFFFFF" stroke="#1D2132" stroke-width="0.1" stroke-linecap="square" stroke-miterlimit="22.9256" cx="6.47" cy="13.8" rx="0.38" ry="0.13"/>
							<path fill="#FFFFFF" stroke="#1D2132" stroke-width="0.1" stroke-linecap="square" stroke-miterlimit="22.9256" d="
								M6.36,13.85l-0.08-0.03c-0.02-0.01-0.47-0.19-0.8-0.85c-0.06-0.12-0.11-0.24-0.17-0.38c-0.17-0.39-0.33-0.79-0.67-1.05
								c-0.45-0.35-1.19-0.35-1.2-0.35H3.37v-0.17h0.08c0.04,0,0.81,0,1.31,0.39c0.37,0.3,0.56,0.73,0.72,1.12
								c0.06,0.13,0.11,0.25,0.17,0.37c0.3,0.61,0.71,0.77,0.71,0.77l0.08,0.03C6.44,13.76,6.41,13.85,6.36,13.85z"/>
						</g>
					</g>
				</g>
			</g>
		</g>
	</g>
	<g>
		<g>
			
				<rect x="21.54" y="4.4" fill="#FFFFFF" stroke="#1D2132" stroke-width="0.1" stroke-linecap="square" stroke-miterlimit="10" width="11.01" height="0.83"/>
			
				<line fill="none" stroke="#1D2132" stroke-width="0.1" stroke-linecap="square" stroke-miterlimit="10" x1="31.69" y1="5.07" x2="31.69" y2="4.57"/>
			
				<line fill="none" stroke="#1D2132" stroke-width="0.1" stroke-linecap="square" stroke-miterlimit="10" x1="31.39" y1="5.07" x2="31.39" y2="4.57"/>
			
				<line fill="none" stroke="#1D2132" stroke-width="0.1" stroke-linecap="square" stroke-miterlimit="10" x1="32.28" y1="5.07" x2="32.28" y2="4.57"/>
			
				<line fill="none" stroke="#1D2132" stroke-width="0.1" stroke-linecap="square" stroke-miterlimit="10" x1="31.98" y1="5.07" x2="31.98" y2="4.57"/>
			
				<line fill="none" stroke="#1D2132" stroke-width="0.1" stroke-linecap="square" stroke-miterlimit="10" x1="31.09" y1="5.07" x2="31.09" y2="4.57"/>
			
				<line fill="none" stroke="#1D2132" stroke-width="0.1" stroke-linecap="square" stroke-miterlimit="10" x1="30.8" y1="5.07" x2="30.8" y2="4.57"/>
			
				<line fill="none" stroke="#1D2132" stroke-width="0.1" stroke-linecap="square" stroke-miterlimit="10" x1="30.5" y1="5.07" x2="30.5" y2="4.57"/>
			
				<line fill="none" stroke="#1D2132" stroke-width="0.1" stroke-linecap="square" stroke-miterlimit="10" x1="30.2" y1="5.07" x2="30.2" y2="4.57"/>
			
				<line fill="none" stroke="#1D2132" stroke-width="0.1" stroke-linecap="square" stroke-miterlimit="10" x1="29.9" y1="5.07" x2="29.9" y2="4.57"/>
			
				<line fill="none" stroke="#1D2132" stroke-width="0.1" stroke-linecap="square" stroke-miterlimit="10" x1="29.61" y1="5.07" x2="29.61" y2="4.57"/>
			
				<line fill="none" stroke="#1D2132" stroke-width="0.1" stroke-linecap="square" stroke-miterlimit="10" x1="28.71" y1="5.07" x2="28.71" y2="4.57"/>
			
				<line fill="none" stroke="#1D2132" stroke-width="0.1" stroke-linecap="square" stroke-miterlimit="10" x1="28.42" y1="5.07" x2="28.42" y2="4.57"/>
			
				<line fill="none" stroke="#1D2132" stroke-width="0.1" stroke-linecap="square" stroke-miterlimit="10" x1="29.31" y1="5.07" x2="29.31" y2="4.57"/>
			
				<line fill="none" stroke="#1D2132" stroke-width="0.1" stroke-linecap="square" stroke-miterlimit="10" x1="29.01" y1="5.07" x2="29.01" y2="4.57"/>
			
				<line fill="none" stroke="#1D2132" stroke-width="0.1" stroke-linecap="square" stroke-miterlimit="10" x1="28.12" y1="5.07" x2="28.12" y2="4.57"/>
			
				<line fill="none" stroke="#1D2132" stroke-width="0.1" stroke-linecap="square" stroke-miterlimit="10" x1="27.82" y1="5.07" x2="27.82" y2="4.57"/>
			
				<line fill="none" stroke="#1D2132" stroke-width="0.1" stroke-linecap="square" stroke-miterlimit="10" x1="27.53" y1="5.07" x2="27.53" y2="4.57"/>
			
				<line fill="none" stroke="#1D2132" stroke-width="0.1" stroke-linecap="square" stroke-miterlimit="10" x1="27.23" y1="5.07" x2="27.23" y2="4.57"/>
			
				<line fill="none" stroke="#1D2132" stroke-width="0.1" stroke-linecap="square" stroke-miterlimit="10" x1="26.93" y1="5.07" x2="26.93" y2="4.57"/>
			
				<line fill="none" stroke="#1D2132" stroke-width="0.1" stroke-linecap="square" stroke-miterlimit="10" x1="26.63" y1="5.07" x2="26.63" y2="4.57"/>
			
				<line fill="none" stroke="#1D2132" stroke-width="0.1" stroke-linecap="square" stroke-miterlimit="10" x1="25.74" y1="5.07" x2="25.74" y2="4.57"/>
			
				<line fill="none" stroke="#1D2132" stroke-width="0.1" stroke-linecap="square" stroke-miterlimit="10" x1="25.44" y1="5.07" x2="25.44" y2="4.57"/>
			
				<line fill="none" stroke="#1D2132" stroke-width="0.1" stroke-linecap="square" stroke-miterlimit="10" x1="26.34" y1="5.07" x2="26.34" y2="4.57"/>
			
				<line fill="none" stroke="#1D2132" stroke-width="0.1" stroke-linecap="square" stroke-miterlimit="10" x1="26.04" y1="5.07" x2="26.04" y2="4.57"/>
			
				<line fill="none" stroke="#1D2132" stroke-width="0.1" stroke-linecap="square" stroke-miterlimit="10" x1="25.15" y1="5.07" x2="25.15" y2="4.57"/>
			
				<line fill="none" stroke="#1D2132" stroke-width="0.1" stroke-linecap="square" stroke-miterlimit="10" x1="24.85" y1="5.07" x2="24.85" y2="4.57"/>
			
				<line fill="none" stroke="#1D2132" stroke-width="0.1" stroke-linecap="square" stroke-miterlimit="10" x1="24.55" y1="5.07" x2="24.55" y2="4.57"/>
			
				<line fill="none" stroke="#1D2132" stroke-width="0.1" stroke-linecap="square" stroke-miterlimit="10" x1="24.26" y1="5.07" x2="24.26" y2="4.57"/>
			
				<line fill="none" stroke="#1D2132" stroke-width="0.1" stroke-linecap="square" stroke-miterlimit="10" x1="23.96" y1="5.07" x2="23.96" y2="4.57"/>
			
				<line fill="none" stroke="#1D2132" stroke-width="0.1" stroke-linecap="square" stroke-miterlimit="10" x1="23.66" y1="5.07" x2="23.66" y2="4.57"/>
			
				<line fill="none" stroke="#1D2132" stroke-width="0.1" stroke-linecap="square" stroke-miterlimit="10" x1="22.77" y1="5.07" x2="22.77" y2="4.57"/>
			
				<line fill="none" stroke="#1D2132" stroke-width="0.1" stroke-linecap="square" stroke-miterlimit="10" x1="22.47" y1="5.07" x2="22.47" y2="4.57"/>
			
				<line fill="none" stroke="#1D2132" stroke-width="0.1" stroke-linecap="square" stroke-miterlimit="10" x1="23.36" y1="5.07" x2="23.36" y2="4.57"/>
			
				<line fill="none" stroke="#1D2132" stroke-width="0.1" stroke-linecap="square" stroke-miterlimit="10" x1="23.07" y1="5.07" x2="23.07" y2="4.57"/>
			
				<line fill="none" stroke="#1D2132" stroke-width="0.1" stroke-linecap="square" stroke-miterlimit="10" x1="22.17" y1="5.07" x2="22.17" y2="4.57"/>
			
				<line fill="none" stroke="#1D2132" stroke-width="0.1" stroke-linecap="square" stroke-miterlimit="10" x1="21.88" y1="5.07" x2="21.88" y2="4.57"/>
		</g>
		<path fill="none" stroke="#1D2132" stroke-width="0.1" stroke-linecap="square" stroke-miterlimit="10" d="M28.29,6.16
			c0.43,0,0-0.77,0.43-0.77s0,0.77,0.43,0.77s0-0.77,0.43-0.77s0,0.77,0.43,0.77s0-0.77,0.43-0.77s0,0.77,0.43,0.77
			s0-0.77,0.43-0.77s0,0.77,0.43,0.77s0-0.77,0.43-0.77s0,0.77,0.43,0.77s0-0.77,0.43-0.77s0,0.77,0.43,0.77s0-0.77,0.43-0.77
			s0,0.77,0.43,0.77s0-0.77,0.43-0.77s0,0.77,0.43,0.77s0-0.77,0.43-0.77s0,0.77,0.43,0.77s0-0.77,0.43-0.77s0,0.77,0.43,0.77
			s0-0.77,0.43-0.77s0,0.77,0.43,0.77s0-0.77,0.43-0.77s0,0.77,0.43,0.77s0-0.77,0.43-0.77s0,0.77,0.43,0.77s0-0.77,0.43-0.77
			s0,0.77,0.43,0.77s0-0.77,0.43-0.77s0,0.77,0.43,0.77s0-0.77,0.43-0.77s0,0.77,0.43,0.77s0-0.77,0.43-0.77"/>
		<path fill="none" stroke="#1D2132" stroke-width="0.1" stroke-linecap="square" stroke-miterlimit="10" d="M25.71,6.16
			c-0.43,0,0-0.77-0.43-0.77s0,0.77-0.43,0.77s0-0.77-0.43-0.77s0,0.77-0.43,0.77s0-0.77-0.43-0.77s0,0.77-0.43,0.77
			s0-0.77-0.43-0.77s0,0.77-0.43,0.77s0-0.77-0.43-0.77s0,0.77-0.43,0.77s0-0.77-0.43-0.77s0,0.77-0.43,0.77s0-0.77-0.43-0.77
			s0,0.77-0.43,0.77s0-0.77-0.43-0.77s0,0.77-0.43,0.77s0-0.77-0.43-0.77s0,0.77-0.43,0.77s0-0.77-0.43-0.77s0,0.77-0.43,0.77
			s0-0.77-0.43-0.77s0,0.77-0.43,0.77c-0.43,0,0-0.77-0.43-0.77c-0.43,0,0,0.77-0.43,0.77s0-0.77-0.43-0.77s0,0.77-0.43,0.77
			s0-0.77-0.43-0.77s0,0.77-0.43,0.77s0-0.77-0.43-0.77s0,0.77-0.43,0.77s0-0.77-0.43-0.77s0,0.77-0.43,0.77s0-0.77-0.43-0.77"/>
	</g>
	<g>
		<g>
			
				<rect x="67.74" y="4.39" fill="#FFFFFF" stroke="#1D2132" stroke-width="0.1" stroke-linecap="square" stroke-miterlimit="10" width="11.01" height="0.83"/>
			
				<line fill="none" stroke="#1D2132" stroke-width="0.1" stroke-linecap="square" stroke-miterlimit="10" x1="77.88" y1="5.06" x2="77.88" y2="4.57"/>
			
				<line fill="none" stroke="#1D2132" stroke-width="0.1" stroke-linecap="square" stroke-miterlimit="10" x1="77.59" y1="5.06" x2="77.59" y2="4.57"/>
			
				<line fill="none" stroke="#1D2132" stroke-width="0.1" stroke-linecap="square" stroke-miterlimit="10" x1="78.48" y1="5.06" x2="78.48" y2="4.57"/>
			
				<line fill="none" stroke="#1D2132" stroke-width="0.1" stroke-linecap="square" stroke-miterlimit="10" x1="78.18" y1="5.06" x2="78.18" y2="4.57"/>
			
				<line fill="none" stroke="#1D2132" stroke-width="0.1" stroke-linecap="square" stroke-miterlimit="10" x1="77.29" y1="5.06" x2="77.29" y2="4.57"/>
			
				<line fill="none" stroke="#1D2132" stroke-width="0.1" stroke-linecap="square" stroke-miterlimit="10" x1="76.99" y1="5.06" x2="76.99" y2="4.57"/>
			
				<line fill="none" stroke="#1D2132" stroke-width="0.1" stroke-linecap="square" stroke-miterlimit="10" x1="76.7" y1="5.06" x2="76.7" y2="4.57"/>
			
				<line fill="none" stroke="#1D2132" stroke-width="0.1" stroke-linecap="square" stroke-miterlimit="10" x1="76.4" y1="5.06" x2="76.4" y2="4.57"/>
			
				<line fill="none" stroke="#1D2132" stroke-width="0.1" stroke-linecap="square" stroke-miterlimit="10" x1="76.1" y1="5.06" x2="76.1" y2="4.57"/>
			
				<line fill="none" stroke="#1D2132" stroke-width="0.1" stroke-linecap="square" stroke-miterlimit="10" x1="75.8" y1="5.06" x2="75.8" y2="4.57"/>
			
				<line fill="none" stroke="#1D2132" stroke-width="0.1" stroke-linecap="square" stroke-miterlimit="10" x1="74.91" y1="5.06" x2="74.91" y2="4.57"/>
			
				<line fill="none" stroke="#1D2132" stroke-width="0.1" stroke-linecap="square" stroke-miterlimit="10" x1="74.61" y1="5.06" x2="74.61" y2="4.57"/>
			
				<line fill="none" stroke="#1D2132" stroke-width="0.1" stroke-linecap="square" stroke-miterlimit="10" x1="75.51" y1="5.06" x2="75.51" y2="4.57"/>
			
				<line fill="none" stroke="#1D2132" stroke-width="0.1" stroke-linecap="square" stroke-miterlimit="10" x1="75.21" y1="5.06" x2="75.21" y2="4.57"/>
			
				<line fill="none" stroke="#1D2132" stroke-width="0.1" stroke-linecap="square" stroke-miterlimit="10" x1="74.32" y1="5.06" x2="74.32" y2="4.57"/>
			
				<line fill="none" stroke="#1D2132" stroke-width="0.1" stroke-linecap="square" stroke-miterlimit="10" x1="74.02" y1="5.06" x2="74.02" y2="4.57"/>
			
				<line fill="none" stroke="#1D2132" stroke-width="0.1" stroke-linecap="square" stroke-miterlimit="10" x1="73.72" y1="5.06" x2="73.72" y2="4.57"/>
			
				<line fill="none" stroke="#1D2132" stroke-width="0.1" stroke-linecap="square" stroke-miterlimit="10" x1="73.43" y1="5.06" x2="73.43" y2="4.57"/>
			
				<line fill="none" stroke="#1D2132" stroke-width="0.1" stroke-linecap="square" stroke-miterlimit="10" x1="73.13" y1="5.06" x2="73.13" y2="4.57"/>
			
				<line fill="none" stroke="#1D2132" stroke-width="0.1" stroke-linecap="square" stroke-miterlimit="10" x1="72.83" y1="5.06" x2="72.83" y2="4.57"/>
			
				<line fill="none" stroke="#1D2132" stroke-width="0.1" stroke-linecap="square" stroke-miterlimit="10" x1="71.94" y1="5.06" x2="71.94" y2="4.57"/>
			
				<line fill="none" stroke="#1D2132" stroke-width="0.1" stroke-linecap="square" stroke-miterlimit="10" x1="71.64" y1="5.06" x2="71.64" y2="4.57"/>
			
				<line fill="none" stroke="#1D2132" stroke-width="0.1" stroke-linecap="square" stroke-miterlimit="10" x1="72.53" y1="5.06" x2="72.53" y2="4.57"/>
			
				<line fill="none" stroke="#1D2132" stroke-width="0.1" stroke-linecap="square" stroke-miterlimit="10" x1="72.24" y1="5.06" x2="72.24" y2="4.57"/>
			
				<line fill="none" stroke="#1D2132" stroke-width="0.1" stroke-linecap="square" stroke-miterlimit="10" x1="71.34" y1="5.06" x2="71.34" y2="4.57"/>
			
				<line fill="none" stroke="#1D2132" stroke-width="0.1" stroke-linecap="square" stroke-miterlimit="10" x1="71.05" y1="5.06" x2="71.05" y2="4.57"/>
			
				<line fill="none" stroke="#1D2132" stroke-width="0.1" stroke-linecap="square" stroke-miterlimit="10" x1="70.75" y1="5.06" x2="70.75" y2="4.57"/>
			
				<line fill="none" stroke="#1D2132" stroke-width="0.1" stroke-linecap="square" stroke-miterlimit="10" x1="70.45" y1="5.06" x2="70.45" y2="4.57"/>
			
				<line fill="none" stroke="#1D2132" stroke-width="0.1" stroke-linecap="square" stroke-miterlimit="10" x1="70.15" y1="5.06" x2="70.15" y2="4.57"/>
			
				<line fill="none" stroke="#1D2132" stroke-width="0.1" stroke-linecap="square" stroke-miterlimit="10" x1="69.86" y1="5.06" x2="69.86" y2="4.57"/>
			
				<line fill="none" stroke="#1D2132" stroke-width="0.1" stroke-linecap="square" stroke-miterlimit="10" x1="68.97" y1="5.06" x2="68.97" y2="4.57"/>
			
				<line fill="none" stroke="#1D2132" stroke-width="0.1" stroke-linecap="square" stroke-miterlimit="10" x1="68.67" y1="5.06" x2="68.67" y2="4.57"/>
			
				<line fill="none" stroke="#1D2132" stroke-width="0.1" stroke-linecap="square" stroke-miterlimit="10" x1="69.56" y1="5.06" x2="69.56" y2="4.57"/>
			
				<line fill="none" stroke="#1D2132" stroke-width="0.1" stroke-linecap="square" stroke-miterlimit="10" x1="69.26" y1="5.06" x2="69.26" y2="4.57"/>
			
				<line fill="none" stroke="#1D2132" stroke-width="0.1" stroke-linecap="square" stroke-miterlimit="10" x1="68.37" y1="5.06" x2="68.37" y2="4.57"/>
			
				<line fill="none" stroke="#1D2132" stroke-width="0.1" stroke-linecap="square" stroke-miterlimit="10" x1="68.07" y1="5.06" x2="68.07" y2="4.57"/>
		</g>
		<path fill="none" stroke="#1D2132" stroke-width="0.1" stroke-linecap="square" stroke-miterlimit="10" d="M74.5,6.16
			c0.43,0,0-0.77,0.43-0.77s0,0.77,0.43,0.77s0-0.77,0.43-0.77s0,0.77,0.43,0.77s0-0.77,0.43-0.77s0,0.77,0.43,0.77
			s0-0.77,0.43-0.77s0,0.77,0.43,0.77s0-0.77,0.43-0.77s0,0.77,0.43,0.77s0-0.77,0.43-0.77s0,0.77,0.43,0.77s0-0.77,0.43-0.77
			s0,0.77,0.43,0.77s0-0.77,0.43-0.77s0,0.77,0.43,0.77s0-0.77,0.43-0.77s0,0.77,0.43,0.77s0-0.77,0.43-0.77s0,0.77,0.43,0.77
			s0-0.77,0.43-0.77s0,0.77,0.43,0.77s0-0.77,0.43-0.77s0,0.77,0.43,0.77s0-0.77,0.43-0.77s0,0.77,0.43,0.77s0-0.77,0.43-0.77
			s0,0.77,0.43,0.77s0-0.77,0.43-0.77s0,0.77,0.43,0.77s0-0.77,0.43-0.77s0,0.77,0.43,0.77s0-0.77,0.43-0.77"/>
		<path fill="none" stroke="#1D2132" stroke-width="0.1" stroke-linecap="square" stroke-miterlimit="10" d="M71.9,6.16
			c-0.43,0,0-0.77-0.43-0.77s0,0.77-0.43,0.77s0-0.77-0.43-0.77s0,0.77-0.43,0.77c-0.43,0,0-0.77-0.43-0.77
			c-0.43,0,0,0.77-0.43,0.77s0-0.77-0.43-0.77s0,0.77-0.43,0.77s0-0.77-0.43-0.77s0,0.77-0.43,0.77s0-0.77-0.43-0.77
			s0,0.77-0.43,0.77s0-0.77-0.43-0.77s0,0.77-0.43,0.77s0-0.77-0.43-0.77s0,0.77-0.43,0.77s0-0.77-0.43-0.77s0,0.77-0.43,0.77
			c-0.43,0,0-0.77-0.43-0.77c-0.43,0,0,0.77-0.43,0.77s0-0.77-0.43-0.77s0,0.77-0.43,0.77s0-0.77-0.43-0.77s0,0.77-0.43,0.77
			s0-0.77-0.43-0.77s0,0.77-0.43,0.77s0-0.77-0.43-0.77s0,0.77-0.43,0.77s0-0.77-0.43-0.77s0,0.77-0.43,0.77s0-0.77-0.43-0.77
			s0,0.77-0.43,0.77s0-0.77-0.43-0.77"/>
	</g>
	<g>
		<g>
			<path fill="none" stroke="#1D2132" stroke-width="0.1" stroke-linejoin="bevel" stroke-dasharray="0.492,0.492" d="M80.76,10.87
				H57.29c-0.74,0-1.34,0.6-1.34,1.34V28.8c0,0.74,0.6,1.34,1.34,1.34h23.48c0.74,0,1.34-0.6,1.34-1.34V12.21
				C82.11,11.47,81.51,10.87,80.76,10.87z"/>
		</g>
		<g>
			<path fill="#FFFFFF" stroke="#1D2132" stroke-width="0.1" stroke-linejoin="bevel" stroke-miterlimit="22.9256" d="M64.02,10.25
				V9.39c0-0.35-0.28-0.63-0.63-0.63h-8.93v23.51h8.93c0.35,0,0.63-0.28,0.63-0.63v-0.86c0-0.35-0.28-0.63-0.63-0.63h-6.32
				c-0.35,0-0.63-0.28-0.63-0.63V11.5c0-0.35,0.28-0.63,0.63-0.63h6.32C63.74,10.87,64.02,10.59,64.02,10.25z"/>
			<path fill="none" stroke="#1D2132" stroke-width="0.1" stroke-linejoin="bevel" stroke-miterlimit="22.9256" d="M54.46,32.26
				c0,0,0.99-0.48,1.53-1.36c0.54-0.87,0.45-1.38,0.45-1.38"/>
			<path fill="none" stroke="#1D2132" stroke-width="0.1" stroke-linejoin="bevel" stroke-miterlimit="22.9256" d="M56.45,32.26
				c0,0,0.53-0.27,0.64-1.06c0.1-0.79-0.13-1.06-0.13-1.06"/>
			<path fill="none" stroke="#1D2132" stroke-width="0.1" stroke-linejoin="bevel" stroke-miterlimit="22.9256" d="M54.46,8.76
				c0,0,1,0.48,1.53,1.36c0.54,0.87,0.45,1.38,0.45,1.38"/>
			<path fill="none" stroke="#1D2132" stroke-width="0.1" stroke-linejoin="bevel" stroke-miterlimit="22.9256" d="M56.45,8.76
				c0,0,0.53,0.26,0.64,1.05c0.1,0.79-0.13,1.06-0.13,1.06"/>
			<path fill="#FFFFFF" stroke="#1D2132" stroke-width="0.1" stroke-linejoin="bevel" stroke-miterlimit="22.9256" d="M57.58,20.51
				h5.98c0.63,0,1.14,0.51,1.14,1.14v7.36c0,0.63-0.51,1.14-1.14,1.14h-5.98c-0.63,0-1.14-0.51-1.14-1.14v-7.36
				C56.44,21.02,56.95,20.51,57.58,20.51z"/>
			<path fill="#FFFFFF" stroke="#1D2132" stroke-width="0.1" stroke-linejoin="bevel" stroke-miterlimit="22.9256" d="M57.58,10.87
				h5.98c0.63,0,1.14,0.51,1.14,1.14v7.36c0,0.63-0.51,1.14-1.14,1.14h-5.98c-0.63,0-1.14-0.51-1.14-1.14v-7.36
				C56.44,11.38,56.95,10.87,57.58,10.87z"/>
			<path fill="#FFFFFF" stroke="#1D2132" stroke-width="0.1" stroke-linejoin="bevel" stroke-miterlimit="22.9256" d="M56.75,20.5
				h0.43c0.44,0,0.8,0.36,0.8,0.8v8.05c0,0.44-0.36,0.8-0.8,0.8h-0.43c-0.44,0-0.8-0.36-0.8-0.8V21.3
				C55.95,20.86,56.3,20.51,56.75,20.5z"/>
			<path fill="#FFFFFF" stroke="#1D2132" stroke-width="0.1" stroke-linejoin="bevel" stroke-miterlimit="22.9256" d="M56.75,10.86
				h0.43c0.44,0,0.8,0.36,0.8,0.8v8.05c0,0.44-0.36,0.8-0.8,0.8h-0.43c-0.44,0-0.8-0.36-0.8-0.8v-8.05
				C55.95,11.22,56.3,10.87,56.75,10.86z"/>
		</g>
		<g>
			<path fill="#FFFFFF" stroke="#1D2132" stroke-width="0.1" stroke-linejoin="bevel" stroke-miterlimit="22.9256" d="M61.34,15.48
				c0.03-0.66,0.16-1.31,0.34-2.49s-0.19-1.33-0.12-1.5s-0.09-0.2-0.23-0.22c-0.14-0.03-0.14-0.21-1.13-0.33s-1.3,0.07-1.45-0.04
				c-0.15-0.12-0.15,0.07-0.27,0.38c-0.11,0.31-0.32,1.04-0.54,2.76c-0.21,1.72,0.07,2.46,0.11,2.68c0.04,0.22,0.25,0.1,0.85,0.31
				c0.6,0.22,1.07,0.08,1.27-0.01c0.2-0.09,0.56,0,0.67-0.23C60.84,16.79,61.31,16.14,61.34,15.48z"/>
			<path fill="#FFFFFF" stroke="#1D2132" stroke-width="0.1" stroke-linejoin="bevel" stroke-miterlimit="22.9256" d="M61.41,11.27
				c0,0-0.15,0.06-0.69-0.08s-1.8-0.09-1.98,0.03s-0.18,1.18-0.25,2.38s-0.32,1.92-0.36,2.46c-0.04,0.54,0.26,0.56,0.71,0.72
				c0.44,0.16,1.04,0.13,1.28,0.08c0.24-0.05,0.58,0.06,0.58,0.06"/>
		</g>
		<g>
			<path fill="#FFFFFF" stroke="#1D2132" stroke-width="0.1" stroke-linejoin="bevel" stroke-miterlimit="22.9256" d="M61.52,26.97
				c-0.05-0.72-0.01-1.43,0.01-2.72c0.02-1.29-0.37-1.4-0.32-1.59s-0.11-0.2-0.25-0.2s-0.16-0.19-1.16-0.18
				c-1,0.02-1.29,0.27-1.45,0.17c-0.16-0.1-0.14,0.1-0.22,0.45c-0.07,0.36-0.18,1.16-0.17,3.04c0.01,1.88,0.39,2.63,0.46,2.86
				c0.06,0.23,0.25,0.07,0.88,0.21c0.62,0.14,1.07-0.08,1.26-0.2s0.56-0.08,0.64-0.34C61.2,28.47,61.59,27.7,61.52,26.97z"/>
			<path fill="#FFFFFF" stroke="#1D2132" stroke-width="0.1" stroke-linejoin="bevel" stroke-miterlimit="22.9256" d="M61.04,22.48
				c0,0-0.14,0.1-0.7,0.02c-0.56-0.07-1.79,0.16-1.96,0.32c-0.16,0.16-0.02,1.29,0.07,2.59c0.09,1.29-0.07,2.1-0.03,2.68
				c0.03,0.58,0.34,0.55,0.8,0.66c0.46,0.11,1.04-0.01,1.28-0.1c0.23-0.09,0.58-0.02,0.58-0.02"/>
		</g>
	</g>
	<g>
		<g>
			
				<rect x="47.19" y="16.74" fill="#FFFFFF" stroke="#1D2132" stroke-width="0.1" stroke-linejoin="bevel" stroke-miterlimit="22.9256" width="6.31" height="13.09"/>
			
				<rect x="47.19" y="16.83" fill="#FFFFFF" stroke="#1D2132" stroke-width="0.1" stroke-linejoin="bevel" stroke-miterlimit="22.9256" width="6.31" height="13"/>
		</g>
		<g>
			<path fill="#FFFFFF" stroke="#1D2132" stroke-width="0.1" stroke-linecap="square" stroke-miterlimit="10" d="M51.73,22.5v2.01
				c0,0.5-0.41,0.91-0.91,0.91h-0.26c-0.5,0-0.91-0.41-0.91-0.91V22.5c0-0.5,0.41-0.91,0.91-0.91h0.26
				C51.32,21.59,51.73,21.99,51.73,22.5z"/>
			<path fill="#FFFFFF" stroke="#1D2132" stroke-width="0.1" stroke-linecap="square" stroke-miterlimit="10" d="M50.89,22.69v1.63
				c0,0.22-0.17,0.39-0.39,0.39h-0.08c-0.22,0-0.39-0.17-0.39-0.39v-1.63c0-0.22,0.17-0.39,0.39-0.39h0.08
				C50.72,22.3,50.89,22.47,50.89,22.69z"/>
			
				<rect x="50.03" y="16.74" fill="#FFFFFF" stroke="#1D2132" stroke-width="0.1" stroke-linecap="square" stroke-miterlimit="10" width="0.18" height="13.51"/>
			<polygon fill="#FFFFFF" stroke="#1D2132" stroke-width="0.1" stroke-linecap="square" stroke-miterlimit="10" points="
				50.55,28.31 50.2,30.26 50.2,16.74 50.55,18.7 			"/>
		</g>
	</g>
	<g>
		
			<rect x="53.39" y="61.38" fill="#FFFFFF" stroke="#1D2132" stroke-width="0.1" stroke-linecap="square" stroke-miterlimit="10" width="8.03" height="18.05"/>
		<g>
			<path fill="#FFFFFF" stroke="#1D2132" stroke-width="0.1" stroke-linecap="square" stroke-miterlimit="10" d="M58.25,70.11
				c0-0.06,0.05-0.11,0.11-0.11h0.38c0.13,0,0.2,0.11,0.28,0.22c0.1,0.15,0.23,0.33,0.49,0.37c0.18,0.03,0.34-0.03,0.44-0.16
				c0.11-0.15,0.12-0.35,0.03-0.52c-0.18-0.34-0.55-0.29-0.55-0.29c-0.06,0.01-0.12-0.03-0.13-0.1c-0.01-0.06,0.03-0.12,0.1-0.13
				c0.19-0.03,0.59,0.02,0.79,0.41c0.13,0.24,0.11,0.54-0.05,0.76c-0.15,0.2-0.4,0.3-0.66,0.25c-0.36-0.06-0.53-0.31-0.64-0.47
				c-0.03-0.05-0.07-0.11-0.1-0.12h-0.37C58.3,70.22,58.25,70.17,58.25,70.11z M58.74,70.22L58.74,70.22L58.74,70.22z"/>
			<path fill="#FFFFFF" stroke="#1D2132" stroke-width="0.1" stroke-linecap="square" stroke-miterlimit="10" d="M55.75,73.96v-7.72
				c0-0.29-0.07-0.61,0.21-0.68s0.56,0.05,0.7,0.31c0,0.01,0.01,0.01,0.01,0.02l1.67,3.53c0.01,0.03,0.02,0.06,0.02,0.09v1.19
				c0,0.03-0.01,0.06-0.02,0.09l-1.67,3.53c0,0.01-0.01,0.01-0.01,0.02c-0.14,0.26-0.42,0.38-0.7,0.31
				C55.67,74.57,55.75,74.25,55.75,73.96z M56.24,65.82c-0.06-0.1-0.15-0.08-0.18-0.07s-0.12,0.04-0.12,0.16v8.39
				c0,0.12,0.09,0.15,0.12,0.16s0.12,0.02,0.18-0.07l1.07-3.73v-1.1L56.24,65.82z"/>
		</g>
	</g>
	<g>
		
			<circle fill="#FFFFFF" stroke="#1D2132" stroke-width="0.1" stroke-linecap="square" stroke-miterlimit="22.9256" cx="57.84" cy="38.66" r="1.94"/>
		
			<circle fill="#FFFFFF" stroke="#1D2132" stroke-width="0.1" stroke-linecap="square" stroke-miterlimit="22.9256" cx="57.84" cy="38.66" r="0.41"/>
		<path fill="#FFFFFF" stroke="#1D2132" stroke-width="0.1" stroke-linecap="square" stroke-miterlimit="22.9256" d="M61.39,36.19
			l0.66,1.48c1.05,0,1.72-0.05,2.59-0.45l0,0c0.43-0.19,0.52-0.94,0.19-1.67s-0.94-1.17-1.37-0.98
			C62.57,34.92,62.08,35.38,61.39,36.19z"/>
		<path fill="#FFFFFF" stroke="#1D2132" stroke-width="0.1" stroke-linecap="square" stroke-miterlimit="22.9256" d="M61.39,36.19
			l-0.53,0.24l0.66,1.48l0.53-0.24c0.24-0.1,0.29-0.52,0.11-0.93S61.64,36.09,61.39,36.19z"/>
		
			<ellipse transform="matrix(0.9138 -0.4062 0.4062 0.9138 -9.8218 28.059)" fill="#FFFFFF" stroke="#1D2132" stroke-width="0.1" stroke-linecap="square" stroke-miterlimit="22.9256" cx="61.19" cy="37.17" rx="0.47" ry="0.81"/>
		<path fill="#FFFFFF" stroke="#1D2132" stroke-width="0.1" stroke-linecap="square" stroke-miterlimit="22.9256" d="M57.78,38.53
			l2.04-0.9c0.06-0.03,0.14,0,0.17,0.07L60,37.73c0.03,0.06,0,0.14-0.07,0.17l-2.04,0.9c-0.06,0.03-0.14,0-0.17-0.07l-0.01-0.03
			C57.68,38.63,57.71,38.56,57.78,38.53z"/>
		<path fill="#FFFFFF" stroke="#1D2132" stroke-width="0.1" stroke-linecap="square" stroke-miterlimit="22.9256" d="M58.92,38.02
			l2.04-0.9c0.06-0.03,0.14,0,0.17,0.07l0.01,0.03c0.03,0.06,0,0.14-0.07,0.17l-2.04,0.9c-0.06,0.03-0.14,0-0.17-0.07l-0.01-0.03
			C58.82,38.13,58.85,38.05,58.92,38.02z"/>
	</g>
</g>
<g id="Doors">
	<g>
		<polygon fill="none" stroke="#1D2132" stroke-width="0.1" stroke-miterlimit="10" points="36.01,81.21 36.01,80.03 36.6,80.03 
			36.6,81.21 		"/>
		<polygon fill="none" stroke="#1D2132" stroke-width="0.1" stroke-miterlimit="10" points="51.67,81.21 51.67,80.03 51.08,80.03 
			51.08,81.21 		"/>
		<polyline fill="none" stroke="#1D2132" stroke-width="0.1" stroke-miterlimit="10" points="51.08,80.11 51.07,79.85 51.06,79.58 
			51.05,79.32 51.02,79.06 51,78.79 50.96,78.53 50.94,78.27 50.89,78.01 50.86,77.75 50.8,77.49 50.75,77.23 50.69,76.97 
			50.63,76.71 50.56,76.45 50.49,76.21 50.42,75.95 50.34,75.7 50.26,75.45 50.17,75.2 50.08,74.96 49.99,74.71 49.88,74.46 
			49.77,74.23 49.67,73.98 49.55,73.74 49.43,73.51 49.31,73.27 49.18,73.05 49.05,72.81 48.92,72.59 48.78,72.36 48.64,72.14 
			48.5,71.91 48.35,71.7 48.19,71.48 48.04,71.27 47.87,71.07 47.71,70.85 47.54,70.65 47.37,70.45 47.19,70.25 47.01,70.06 
			46.84,69.86 		"/>
		<polygon fill="none" stroke="#1D2132" stroke-width="0.1" stroke-miterlimit="10" points="37.12,80.46 47.19,70.25 46.84,69.86 
			36.71,80.05 		"/>
	</g>
	<g>
		<polygon fill="none" stroke="#1D2132" stroke-width="0.1" stroke-miterlimit="10" points="51.32,46.69 51.32,45.61 50.76,45.61 
			50.76,46.69 		"/>
		<polygon fill="none" stroke="#1D2132" stroke-width="0.1" stroke-miterlimit="10" points="36.3,46.69 36.3,45.61 36.94,45.61 
			36.94,46.69 		"/>
		<polyline fill="none" stroke="#1D2132" stroke-width="0.1" stroke-miterlimit="10" points="36.94,45.65 36.95,45.4 36.96,45.14 
			36.97,44.89 36.99,44.64 37.01,44.38 37.05,44.14 37.07,43.89 37.12,43.64 37.15,43.39 37.21,43.15 37.25,42.9 37.31,42.65 
			37.36,42.4 37.43,42.16 37.5,41.92 37.57,41.67 37.64,41.43 37.72,41.2 37.8,40.96 37.89,40.73 37.98,40.49 38.08,40.25 
			38.19,40.03 38.29,39.79 38.4,39.57 38.51,39.34 38.62,39.12 38.75,38.9 38.87,38.68 39,38.46 39.13,38.25 39.27,38.04 
			39.4,37.82 39.55,37.62 39.69,37.4 39.84,37.2 40,37.01 40.16,36.81 40.31,36.62 40.48,36.43 40.65,36.23 40.82,36.05 
			40.99,35.86 		"/>
		<polygon fill="none" stroke="#1D2132" stroke-width="0.1" stroke-miterlimit="10" points="50.26,45.98 40.65,36.23 40.99,35.86 
			50.66,45.59 		"/>
	</g>
	<g>
		<polygon fill="none" stroke="#1D2132" stroke-width="0.1" stroke-miterlimit="10" points="33.58,66.98 34.68,66.98 34.68,66.55 
			33.58,66.55 		"/>
		<polygon fill="none" stroke="#1D2132" stroke-width="0.1" stroke-miterlimit="10" points="33.58,55.43 34.68,55.43 34.68,55.86 
			33.58,55.86 		"/>
		<polyline fill="none" stroke="#1D2132" stroke-width="0.1" stroke-miterlimit="10" points="34.64,55.86 34.84,55.87 35.04,55.88 
			35.23,55.89 35.42,55.91 35.62,55.92 35.81,55.95 36,55.97 36.19,56 36.38,56.03 36.58,56.07 36.77,56.11 36.96,56.15 
			37.15,56.19 37.34,56.25 37.52,56.3 37.72,56.35 37.9,56.41 38.08,56.47 38.26,56.53 38.45,56.6 38.63,56.67 38.81,56.75 
			38.99,56.83 39.17,56.91 39.34,56.99 39.52,57.08 39.69,57.17 39.86,57.26 40.03,57.36 40.19,57.46 40.36,57.56 40.52,57.66 
			40.69,57.77 40.85,57.88 41.01,58 41.17,58.11 41.32,58.23 41.47,58.35 41.62,58.47 41.77,58.6 41.92,58.73 42.06,58.86 42.2,59 
					"/>
		<polygon fill="none" stroke="#1D2132" stroke-width="0.1" stroke-miterlimit="10" points="34.38,66.16 41.92,58.73 42.2,59 
			34.69,66.47 		"/>
	</g>
</g>
<g id="Windows">
	<polyline fill="none" stroke="#1D2132" stroke-width="0.1" stroke-miterlimit="10" points="61.55,3.16 84.65,3.16 84.65,2.2 
		61.55,2.2 61.55,3.16 	"/>
	<polyline fill="none" stroke="#1D2132" stroke-width="0.1" stroke-miterlimit="10" points="86,4.37 60.19,4.37 60.19,2.2 86,2.2 
		86,4.37 	"/>
	<polyline fill="none" stroke="#1D2132" stroke-width="0.1" stroke-miterlimit="10" points="86.24,3.16 84.65,3.16 84.65,2.2 
		86.24,2.2 86.24,3.16 86.24,2.2 86.63,2.2 86.63,3.16 86.24,3.16 	"/>
	<polyline fill="none" stroke="#1D2132" stroke-width="0.1" stroke-miterlimit="10" points="61.55,3.16 59.63,3.16 59.63,2.2 
		61.55,2.2 61.55,3.16 	"/>
	<polyline fill="none" stroke="#1D2132" stroke-width="0.1" stroke-miterlimit="10" points="60.86,2.2 85.32,2.2 85.32,0.03 
		60.86,0.03 60.86,2.2 	"/>
	<polyline fill="none" stroke="#1D2132" stroke-width="0.1" stroke-miterlimit="10" points="16.31,3.16 39.4,3.16 39.4,2.2 
		16.31,2.2 16.31,3.16 	"/>
	<polyline fill="none" stroke="#1D2132" stroke-width="0.1" stroke-miterlimit="10" points="40.77,4.37 14.94,4.37 14.94,2.2 
		40.77,2.2 40.77,4.37 	"/>
	<polyline fill="none" stroke="#1D2132" stroke-width="0.1" stroke-miterlimit="10" points="41.17,3.16 39.4,3.16 39.4,2.2 
		41.17,2.2 41.17,3.16 41.17,2.2 41.63,2.2 41.63,3.16 41.17,3.16 	"/>
	<polyline fill="none" stroke="#1D2132" stroke-width="0.1" stroke-miterlimit="10" points="16.31,3.16 14.63,3.16 14.63,2.2 
		16.31,2.2 16.31,3.16 	"/>
	<polyline fill="none" stroke="#1D2132" stroke-width="0.1" stroke-miterlimit="10" points="15.62,2.2 40.08,2.2 40.08,0.03 
		15.62,0.03 15.62,2.2 	"/>
</g>
<g id="Text">
	
		<text id="TXT--" transform="matrix(1 0 0 1 33.887 25.4086)" opacity="0.7" fill="#1D2132" enable-background="new    " font-family="'Cannonade-Medium'" font-size="3px">16,73</text>
	
		<text id="TXT---" transform="matrix(1 0 0 1 73.6509 42.6666)" opacity="0.7" fill="#1D2132" enable-background="new    " font-family="'Cannonade-Medium'" font-size="3px">11,45</text>
	
		<text id="TXT--" transform="matrix(1 0 0 1 41.8044 65.9315)" opacity="0.7" fill="#1D2132" enable-background="new    " font-family="'Cannonade-Medium'" font-size="3px">4,27</text>
	
		<text id="TXT--" transform="matrix(1 0 0 1 16.9703 63.4554)" opacity="0.7" fill="#1D2132" enable-background="new    " font-family="'Cannonade-Medium'" font-size="3px">5,49</text>
</g>
<g id="Walls">
	<polyline fill="#1D2132" stroke="#1D2132" stroke-width="0.1" stroke-miterlimit="10" points="100,2.2 100,81.68 97.83,81.68 
		97.83,2.2 100,2.2 	"/>
	<polyline fill="#1D2132" stroke="#1D2132" stroke-width="0.1" stroke-miterlimit="10" points="2.17,2.2 2.17,81.68 0,81.68 0,2.2 
		2.17,2.2 	"/>
	<line fill="none" stroke="#1D2132" stroke-width="0.1" stroke-miterlimit="10" x1="100" y1="2.2" x2="100" y2="2.2"/>
	<polyline fill="#1D2132" stroke="#1D2132" stroke-width="0.1" stroke-miterlimit="10" points="97.83,2.2 97.83,4.37 86,4.37 
		86,2.2 97.83,2.2 	"/>
	<polyline fill="#1D2132" stroke="#1D2132" stroke-width="0.1" stroke-miterlimit="10" points="60.19,2.2 60.19,4.37 40.77,4.37 
		40.77,2.2 60.19,2.2 	"/>
	<polyline fill="#1D2132" stroke="#1D2132" stroke-width="0.1" stroke-miterlimit="10" points="14.94,2.2 14.94,4.37 2.17,4.37 
		2.17,2.2 14.94,2.2 	"/>
	<polyline fill="#1D2132" stroke="#1D2132" stroke-width="0.1" stroke-miterlimit="10" points="0,2.2 0,4.37 0,4.37 	"/>
	<line fill="none" stroke="#1D2132" stroke-width="0.1" stroke-miterlimit="10" x1="0" y1="2.2" x2="0" y2="2.2"/>
	<rect x="0" y="0.16" fill="#1D2132" stroke="#1D2132" stroke-width="0.1" stroke-miterlimit="10" width="15.62" height="2.04"/>
	<polyline fill="#1D2132" stroke="#1D2132" stroke-width="0.1" stroke-miterlimit="10" points="40.08,2.2 40.08,0.16 60.86,0.16 
		60.86,2.2 40.08,2.2 	"/>
	<polyline fill="#1D2132" stroke="#1D2132" stroke-width="0.1" stroke-miterlimit="10" points="85.32,2.2 100,2.2 100,0.16 
		85.32,0.16 85.32,2.2 	"/>
	<polyline fill="#1D2132" stroke="#1D2132" stroke-width="0.1" stroke-miterlimit="10" points="2.17,81.68 2.17,79.51 35.97,79.51 
		35.97,81.68 2.17,81.68 	"/>
	<polygon fill="#1D2132" stroke="#1D2132" stroke-width="0.1" stroke-miterlimit="10" points="51.77,81.68 97.83,81.68 97.83,79.51 
		51.77,79.51 	"/>
	<polyline fill="#1D2132" stroke="#1D2132" stroke-width="0.1" stroke-miterlimit="10" points="53.37,60.22 53.37,61.3 61.52,61.3 
		61.52,79.51 62.61,79.51 62.61,60.22 53.37,60.22 	"/>
	<polyline fill="#1D2132" stroke="#1D2132" stroke-width="0.1" stroke-miterlimit="10" points="51.32,46.69 51.32,45.61 
		53.52,45.61 53.52,4.4 54.61,4.4 54.61,46.69 51.32,46.69 	"/>
	<polyline fill="#1D2132" stroke="#1D2132" stroke-width="0.1" stroke-miterlimit="10" points="33.06,46.69 33.06,45.61 
		36.29,45.61 36.29,46.69 33.06,46.69 	"/>
	<polyline fill="#1D2132" stroke="#1D2132" stroke-width="0.1" stroke-miterlimit="10" points="34.68,46.69 34.68,46.69 
		34.68,55.52 33.58,55.52 33.58,46.69 0.86,46.69 0.86,45.61 34.68,45.61 34.68,46.69 	"/>
	<polyline fill="#1D2132" stroke="#1D2132" stroke-width="0.1" stroke-miterlimit="10" points="33.58,79.56 34.68,79.56 
		34.68,67.07 33.58,67.07 33.58,79.56 	"/>
</g>
<g id="Details">
	<g>
		
			<path fill="none" stroke="#1D2132" stroke-width="0.1" stroke-linecap="round" stroke-linejoin="round" stroke-miterlimit="10" d="
			M59.25,78.15c0,0.51,0.41,0.93,0.93,0.93s0.93-0.42,0.93-0.93c0-0.52-0.42-0.93-0.93-0.93C59.66,77.22,59.25,77.64,59.25,78.15"/>
		
			<path fill="none" stroke="#1D2132" stroke-width="0.1" stroke-linecap="round" stroke-linejoin="round" stroke-miterlimit="10" d="
			M59.42,78.15c0,0.41,0.34,0.75,0.75,0.75s0.75-0.34,0.75-0.75s-0.34-0.75-0.75-0.75C59.75,77.4,59.42,77.74,59.42,78.15"/>
		
			<path fill="none" stroke="#1D2132" stroke-width="0.1" stroke-linecap="round" stroke-linejoin="round" stroke-miterlimit="10" d="
			M59.47,78.15c0,0.39,0.32,0.7,0.7,0.7s0.7-0.32,0.7-0.7s-0.32-0.7-0.7-0.7S59.47,77.76,59.47,78.15"/>
		
			<line fill="none" stroke="#1D2132" stroke-width="0.1" stroke-linecap="round" stroke-linejoin="round" stroke-miterlimit="10" x1="60.17" y1="78.8" x2="60.17" y2="79.12"/>
		<polygon fill="#1D2132" points="60.12,78.67 60.09,78.69 60.07,78.73 60.07,78.78 60.09,78.82 60.12,78.84 60.17,78.85 
			60.21,78.84 60.24,78.82 60.27,78.78 60.27,78.73 60.24,78.69 60.21,78.67 60.17,78.65 		"/>
		
			<polygon fill="none" stroke="#1D2132" stroke-width="0.1" stroke-linecap="round" stroke-linejoin="round" stroke-miterlimit="10" points="
			60.12,78.67 60.09,78.69 60.07,78.73 60.07,78.78 60.09,78.82 60.12,78.84 60.17,78.85 60.21,78.84 60.24,78.82 60.27,78.78 
			60.27,78.73 60.24,78.69 60.21,78.67 60.17,78.65 		"/>
		
			<line fill="none" stroke="#1D2132" stroke-width="0.1" stroke-linecap="round" stroke-linejoin="round" stroke-miterlimit="10" x1="60.17" y1="78.39" x2="60.17" y2="78.71"/>
		<polygon fill="#1D2132" points="60.12,78.26 60.09,78.28 60.07,78.32 60.07,78.37 60.09,78.41 60.12,78.43 60.17,78.44 
			60.21,78.43 60.24,78.41 60.27,78.37 60.27,78.32 60.24,78.28 60.21,78.26 60.17,78.24 		"/>
		
			<polygon fill="none" stroke="#1D2132" stroke-width="0.1" stroke-linecap="round" stroke-linejoin="round" stroke-miterlimit="10" points="
			60.12,78.26 60.09,78.28 60.07,78.32 60.07,78.37 60.09,78.41 60.12,78.43 60.17,78.44 60.21,78.43 60.24,78.41 60.27,78.37 
			60.27,78.32 60.24,78.28 60.21,78.26 60.17,78.24 		"/>
		
			<line fill="none" stroke="#1D2132" stroke-width="0.1" stroke-linecap="round" stroke-linejoin="round" stroke-miterlimit="10" x1="60.17" y1="77.98" x2="60.17" y2="78.3"/>
		<polygon fill="#1D2132" points="60.12,77.85 60.09,77.87 60.07,77.91 60.07,77.96 60.09,78 60.12,78.02 60.17,78.03 60.21,78.02 
			60.24,78 60.27,77.96 60.27,77.91 60.24,77.87 60.21,77.85 60.17,77.83 		"/>
		
			<polygon fill="none" stroke="#1D2132" stroke-width="0.1" stroke-linecap="round" stroke-linejoin="round" stroke-miterlimit="10" points="
			60.12,77.85 60.09,77.87 60.07,77.91 60.07,77.96 60.09,78 60.12,78.02 60.17,78.03 60.21,78.02 60.24,78 60.27,77.96 
			60.27,77.91 60.24,77.87 60.21,77.85 60.17,77.83 		"/>
		
			<line fill="none" stroke="#1D2132" stroke-width="0.1" stroke-linecap="round" stroke-linejoin="round" stroke-miterlimit="10" x1="60.17" y1="77.57" x2="60.17" y2="77.9"/>
		<polygon fill="#1D2132" points="60.12,77.45 60.09,77.47 60.07,77.51 60.07,77.56 60.09,77.6 60.12,77.62 60.17,77.63 
			60.21,77.62 60.24,77.6 60.27,77.56 60.27,77.51 60.24,77.47 60.21,77.45 60.17,77.43 		"/>
		
			<polygon fill="none" stroke="#1D2132" stroke-width="0.1" stroke-linecap="round" stroke-linejoin="round" stroke-miterlimit="10" points="
			60.12,77.45 60.09,77.47 60.07,77.51 60.07,77.56 60.09,77.6 60.12,77.62 60.17,77.63 60.21,77.62 60.24,77.6 60.27,77.56 
			60.27,77.51 60.24,77.47 60.21,77.45 60.17,77.43 		"/>
		
			<line fill="none" stroke="#1D2132" stroke-width="0.1" stroke-linecap="round" stroke-linejoin="round" stroke-miterlimit="10" x1="60.17" y1="77.16" x2="60.17" y2="77.49"/>
		<polygon fill="#1D2132" points="60.12,77.04 60.09,77.06 60.07,77.1 60.07,77.15 60.09,77.19 60.12,77.21 60.17,77.22 
			60.21,77.21 60.24,77.19 60.27,77.15 60.27,77.1 60.24,77.06 60.21,77.04 60.17,77.02 		"/>
		
			<polygon fill="none" stroke="#1D2132" stroke-width="0.1" stroke-linecap="round" stroke-linejoin="round" stroke-miterlimit="10" points="
			60.12,77.04 60.09,77.06 60.07,77.1 60.07,77.15 60.09,77.19 60.12,77.21 60.17,77.22 60.21,77.21 60.24,77.19 60.27,77.15 
			60.27,77.1 60.24,77.06 60.21,77.04 60.17,77.02 		"/>
		
			<line fill="none" stroke="#1D2132" stroke-width="0.1" stroke-linecap="round" stroke-linejoin="round" stroke-miterlimit="10" x1="60.17" y1="76.85" x2="60.17" y2="77.08"/>
		<polygon fill="#1D2132" points="60.73,78.07 60.7,78.09 60.68,78.13 60.68,78.18 60.7,78.22 60.73,78.24 60.78,78.26 60.82,78.24 
			60.85,78.22 60.88,78.18 60.88,78.13 60.85,78.09 60.82,78.07 60.78,78.06 		"/>
		
			<polygon fill="none" stroke="#1D2132" stroke-width="0.1" stroke-linecap="round" stroke-linejoin="round" stroke-miterlimit="10" points="
			60.73,78.07 60.7,78.09 60.68,78.13 60.68,78.18 60.7,78.22 60.73,78.24 60.78,78.26 60.82,78.24 60.85,78.22 60.88,78.18 
			60.88,78.13 60.85,78.09 60.82,78.07 60.78,78.06 		"/>
		
			<line fill="none" stroke="#1D2132" stroke-width="0.1" stroke-linecap="round" stroke-linejoin="round" stroke-miterlimit="10" x1="60.41" y1="78.16" x2="60.73" y2="78.16"/>
		<polygon fill="#1D2132" points="60.32,78.07 60.29,78.09 60.27,78.13 60.27,78.18 60.29,78.22 60.32,78.24 60.37,78.26 
			60.41,78.24 60.44,78.22 60.47,78.18 60.47,78.13 60.44,78.09 60.41,78.07 60.37,78.06 		"/>
		
			<polygon fill="none" stroke="#1D2132" stroke-width="0.1" stroke-linecap="round" stroke-linejoin="round" stroke-miterlimit="10" points="
			60.32,78.07 60.29,78.09 60.27,78.13 60.27,78.18 60.29,78.22 60.32,78.24 60.37,78.26 60.41,78.24 60.44,78.22 60.47,78.18 
			60.47,78.13 60.44,78.09 60.41,78.07 60.37,78.06 		"/>
		
			<line fill="none" stroke="#1D2132" stroke-width="0.1" stroke-linecap="round" stroke-linejoin="round" stroke-miterlimit="10" x1="60" y1="78.16" x2="60.32" y2="78.16"/>
		<polygon fill="#1D2132" points="59.91,78.07 59.88,78.09 59.86,78.13 59.86,78.18 59.88,78.22 59.91,78.24 59.96,78.26 60,78.24 
			60.03,78.22 60.06,78.18 60.06,78.13 60.03,78.09 60,78.07 59.96,78.06 		"/>
		
			<polygon fill="none" stroke="#1D2132" stroke-width="0.1" stroke-linecap="round" stroke-linejoin="round" stroke-miterlimit="10" points="
			59.91,78.07 59.88,78.09 59.86,78.13 59.86,78.18 59.88,78.22 59.91,78.24 59.96,78.26 60,78.24 60.03,78.22 60.06,78.18 
			60.06,78.13 60.03,78.09 60,78.07 59.96,78.06 		"/>
		
			<line fill="none" stroke="#1D2132" stroke-width="0.1" stroke-linecap="round" stroke-linejoin="round" stroke-miterlimit="10" x1="59.59" y1="78.16" x2="59.92" y2="78.16"/>
		<polygon fill="#1D2132" points="59.5,78.07 59.47,78.09 59.45,78.13 59.45,78.18 59.47,78.22 59.5,78.24 59.55,78.26 59.59,78.24 
			59.62,78.22 59.65,78.18 59.65,78.13 59.62,78.09 59.59,78.07 59.55,78.06 		"/>
		
			<polygon fill="none" stroke="#1D2132" stroke-width="0.1" stroke-linecap="round" stroke-linejoin="round" stroke-miterlimit="10" points="
			59.5,78.07 59.47,78.09 59.45,78.13 59.45,78.18 59.47,78.22 59.5,78.24 59.55,78.26 59.59,78.24 59.62,78.22 59.65,78.18 
			59.65,78.13 59.62,78.09 59.59,78.07 59.55,78.06 		"/>
		
			<line fill="none" stroke="#1D2132" stroke-width="0.1" stroke-linecap="round" stroke-linejoin="round" stroke-miterlimit="10" x1="59.18" y1="78.16" x2="59.51" y2="78.16"/>
		<polygon fill="#1D2132" points="59.1,78.07 59.07,78.09 59.05,78.13 59.05,78.18 59.07,78.22 59.1,78.24 59.15,78.26 59.19,78.24 
			59.22,78.22 59.25,78.18 59.25,78.13 59.22,78.09 59.19,78.07 59.15,78.06 		"/>
		
			<polygon fill="none" stroke="#1D2132" stroke-width="0.1" stroke-linecap="round" stroke-linejoin="round" stroke-miterlimit="10" points="
			59.1,78.07 59.07,78.09 59.05,78.13 59.05,78.18 59.07,78.22 59.1,78.24 59.15,78.26 59.19,78.24 59.22,78.22 59.25,78.18 
			59.25,78.13 59.22,78.09 59.19,78.07 59.15,78.06 		"/>
		
			<line fill="none" stroke="#1D2132" stroke-width="0.1" stroke-linecap="round" stroke-linejoin="round" stroke-miterlimit="10" x1="58.87" y1="78.16" x2="59.1" y2="78.16"/>
		
			<polyline fill="none" stroke="#1D2132" stroke-width="0.1" stroke-linecap="round" stroke-linejoin="round" stroke-miterlimit="10" points="
			61.52,79.51 58.8,79.51 58.8,76.79 61.52,76.79 61.52,79.51 		"/>
		
			<path fill="none" stroke="#1D2132" stroke-width="0.1" stroke-linecap="round" stroke-linejoin="round" stroke-miterlimit="10" d="
			M59.2,78.15c0,0.54,0.44,0.97,0.97,0.97c0.54,0,0.97-0.43,0.97-0.97s-0.43-0.97-0.97-0.97S59.2,77.61,59.2,78.15"/>
		
			<line fill="none" stroke="#1D2132" stroke-width="0.1" stroke-linecap="round" stroke-linejoin="round" stroke-miterlimit="10" x1="60.17" y1="79.2" x2="60.17" y2="79.43"/>
		<polygon fill="#1D2132" points="60.12,79.08 60.09,79.1 60.07,79.14 60.07,79.19 60.09,79.23 60.12,79.25 60.17,79.26 
			60.21,79.25 60.24,79.23 60.27,79.19 60.27,79.14 60.24,79.1 60.21,79.08 60.17,79.06 		"/>
		
			<polygon fill="none" stroke="#1D2132" stroke-width="0.1" stroke-linecap="round" stroke-linejoin="round" stroke-miterlimit="10" points="
			60.12,79.08 60.09,79.1 60.07,79.14 60.07,79.19 60.09,79.23 60.12,79.25 60.17,79.26 60.21,79.25 60.24,79.23 60.27,79.19 
			60.27,79.14 60.24,79.1 60.21,79.08 60.17,79.06 		"/>
		
			<line fill="none" stroke="#1D2132" stroke-width="0.1" stroke-linecap="round" stroke-linejoin="round" stroke-miterlimit="10" x1="61.22" y1="78.16" x2="61.45" y2="78.16"/>
		<polygon fill="#1D2132" points="61.13,78.07 61.1,78.09 61.08,78.13 61.08,78.18 61.1,78.22 61.13,78.24 61.18,78.26 61.22,78.24 
			61.25,78.22 61.27,78.18 61.27,78.13 61.25,78.09 61.22,78.07 61.18,78.06 		"/>
		
			<polygon fill="none" stroke="#1D2132" stroke-width="0.1" stroke-linecap="round" stroke-linejoin="round" stroke-miterlimit="10" points="
			61.13,78.07 61.1,78.09 61.08,78.13 61.08,78.18 61.1,78.22 61.13,78.24 61.18,78.26 61.22,78.24 61.25,78.22 61.27,78.18 
			61.27,78.13 61.25,78.09 61.22,78.07 61.18,78.06 		"/>
		
			<line fill="none" stroke="#1D2132" stroke-width="0.1" stroke-linecap="round" stroke-linejoin="round" stroke-miterlimit="10" x1="60.81" y1="78.16" x2="61.14" y2="78.16"/>
	</g>
	<g>
		
			<path fill="none" stroke="#1D2132" stroke-width="0.1" stroke-linecap="round" stroke-linejoin="round" stroke-miterlimit="10" d="
			M5.04,78.16c0-0.52-0.42-0.93-0.93-0.93c-0.52,0-0.93,0.42-0.93,0.93c0,0.52,0.42,0.93,0.93,0.93
			C4.63,79.09,5.04,78.67,5.04,78.16"/>
		
			<path fill="none" stroke="#1D2132" stroke-width="0.1" stroke-linecap="round" stroke-linejoin="round" stroke-miterlimit="10" d="
			M4.86,78.16c0-0.42-0.33-0.75-0.75-0.75s-0.75,0.34-0.75,0.75c0,0.42,0.34,0.75,0.75,0.75S4.86,78.57,4.86,78.16"/>
		
			<path fill="none" stroke="#1D2132" stroke-width="0.1" stroke-linecap="round" stroke-linejoin="round" stroke-miterlimit="10" d="
			M4.82,78.16c0-0.39-0.32-0.71-0.7-0.7c-0.38,0-0.7,0.31-0.7,0.7c0,0.38,0.31,0.7,0.7,0.7C4.5,78.86,4.82,78.55,4.82,78.16"/>
		
			<line fill="none" stroke="#1D2132" stroke-width="0.1" stroke-linecap="round" stroke-linejoin="round" stroke-miterlimit="10" x1="4.11" y1="79.2" x2="4.11" y2="79.44"/>
		<polygon fill="#1D2132" points="4.06,79.08 4.03,79.1 4.01,79.15 4.01,79.19 4.03,79.24 4.06,79.26 4.11,79.27 4.15,79.26 
			4.19,79.24 4.21,79.19 4.21,79.15 4.19,79.1 4.15,79.08 4.11,79.07 		"/>
		
			<polygon fill="none" stroke="#1D2132" stroke-width="0.1" stroke-linecap="round" stroke-linejoin="round" stroke-miterlimit="10" points="
			4.06,79.08 4.03,79.1 4.01,79.15 4.01,79.19 4.03,79.24 4.06,79.26 4.11,79.27 4.15,79.26 4.19,79.24 4.21,79.19 4.21,79.15 
			4.19,79.1 4.15,79.08 4.11,79.07 		"/>
		
			<line fill="none" stroke="#1D2132" stroke-width="0.1" stroke-linecap="round" stroke-linejoin="round" stroke-miterlimit="10" x1="4.11" y1="78.8" x2="4.11" y2="79.13"/>
		<polygon fill="#1D2132" points="4.06,78.67 4.03,78.69 4.01,78.74 4.01,78.78 4.03,78.83 4.06,78.85 4.11,78.86 4.15,78.85 
			4.19,78.83 4.21,78.78 4.21,78.74 4.19,78.69 4.15,78.67 4.11,78.66 		"/>
		
			<polygon fill="none" stroke="#1D2132" stroke-width="0.1" stroke-linecap="round" stroke-linejoin="round" stroke-miterlimit="10" points="
			4.06,78.67 4.03,78.69 4.01,78.74 4.01,78.78 4.03,78.83 4.06,78.85 4.11,78.86 4.15,78.85 4.19,78.83 4.21,78.78 4.21,78.74 
			4.19,78.69 4.15,78.67 4.11,78.66 		"/>
		
			<line fill="none" stroke="#1D2132" stroke-width="0.1" stroke-linecap="round" stroke-linejoin="round" stroke-miterlimit="10" x1="4.11" y1="78.39" x2="4.11" y2="78.72"/>
		<polygon fill="#1D2132" points="4.06,78.26 4.03,78.28 4.01,78.33 4.01,78.37 4.03,78.42 4.06,78.44 4.11,78.45 4.15,78.44 
			4.19,78.42 4.21,78.37 4.21,78.33 4.19,78.28 4.15,78.26 4.11,78.25 		"/>
		
			<polygon fill="none" stroke="#1D2132" stroke-width="0.1" stroke-linecap="round" stroke-linejoin="round" stroke-miterlimit="10" points="
			4.06,78.26 4.03,78.28 4.01,78.33 4.01,78.37 4.03,78.42 4.06,78.44 4.11,78.45 4.15,78.44 4.19,78.42 4.21,78.37 4.21,78.33 
			4.19,78.28 4.15,78.26 4.11,78.25 		"/>
		
			<line fill="none" stroke="#1D2132" stroke-width="0.1" stroke-linecap="round" stroke-linejoin="round" stroke-miterlimit="10" x1="4.11" y1="77.98" x2="4.11" y2="78.31"/>
		<polygon fill="#1D2132" points="4.06,77.85 4.03,77.87 4.01,77.92 4.01,77.96 4.03,78.01 4.06,78.03 4.11,78.04 4.15,78.03 
			4.19,78.01 4.21,77.96 4.21,77.92 4.19,77.87 4.15,77.85 4.11,77.84 		"/>
		
			<polygon fill="none" stroke="#1D2132" stroke-width="0.1" stroke-linecap="round" stroke-linejoin="round" stroke-miterlimit="10" points="
			4.06,77.85 4.03,77.87 4.01,77.92 4.01,77.96 4.03,78.01 4.06,78.03 4.11,78.04 4.15,78.03 4.19,78.01 4.21,77.96 4.21,77.92 
			4.19,77.87 4.15,77.85 4.11,77.84 		"/>
		
			<line fill="none" stroke="#1D2132" stroke-width="0.1" stroke-linecap="round" stroke-linejoin="round" stroke-miterlimit="10" x1="4.11" y1="77.57" x2="4.11" y2="77.91"/>
		<polygon fill="#1D2132" points="4.06,77.45 4.03,77.47 4.01,77.52 4.01,77.56 4.03,77.61 4.06,77.63 4.11,77.64 4.15,77.63 
			4.19,77.61 4.21,77.56 4.21,77.52 4.19,77.47 4.15,77.45 4.11,77.44 		"/>
		
			<polygon fill="none" stroke="#1D2132" stroke-width="0.1" stroke-linecap="round" stroke-linejoin="round" stroke-miterlimit="10" points="
			4.06,77.45 4.03,77.47 4.01,77.52 4.01,77.56 4.03,77.61 4.06,77.63 4.11,77.64 4.15,77.63 4.19,77.61 4.21,77.56 4.21,77.52 
			4.19,77.47 4.15,77.45 4.11,77.44 		"/>
		
			<line fill="none" stroke="#1D2132" stroke-width="0.1" stroke-linecap="round" stroke-linejoin="round" stroke-miterlimit="10" x1="4.11" y1="77.16" x2="4.11" y2="77.5"/>
		<polygon fill="#1D2132" points="4.06,77.04 4.03,77.06 4.01,77.11 4.01,77.15 4.03,77.2 4.06,77.22 4.11,77.23 4.15,77.22 
			4.19,77.2 4.21,77.15 4.21,77.11 4.19,77.06 4.15,77.04 4.11,77.03 		"/>
		
			<polygon fill="none" stroke="#1D2132" stroke-width="0.1" stroke-linecap="round" stroke-linejoin="round" stroke-miterlimit="10" points="
			4.06,77.04 4.03,77.06 4.01,77.11 4.01,77.15 4.03,77.2 4.06,77.22 4.11,77.23 4.15,77.22 4.19,77.2 4.21,77.15 4.21,77.11 
			4.19,77.06 4.15,77.04 4.11,77.03 		"/>
		
			<line fill="none" stroke="#1D2132" stroke-width="0.1" stroke-linecap="round" stroke-linejoin="round" stroke-miterlimit="10" x1="4.11" y1="76.85" x2="4.11" y2="77.09"/>
		
			<line fill="none" stroke="#1D2132" stroke-width="0.1" stroke-linecap="round" stroke-linejoin="round" stroke-miterlimit="10" x1="3.04" y1="78.16" x2="2.81" y2="78.16"/>
		<polygon fill="#1D2132" points="3.04,78.07 3.01,78.09 2.99,78.14 2.99,78.18 3.01,78.23 3.04,78.25 3.09,78.26 3.13,78.25 
			3.17,78.23 3.19,78.18 3.19,78.14 3.17,78.09 3.13,78.07 3.09,78.06 		"/>
		
			<polygon fill="none" stroke="#1D2132" stroke-width="0.1" stroke-linecap="round" stroke-linejoin="round" stroke-miterlimit="10" points="
			3.04,78.07 3.01,78.09 2.99,78.14 2.99,78.18 3.01,78.23 3.04,78.25 3.09,78.26 3.13,78.25 3.17,78.23 3.19,78.18 3.19,78.14 
			3.17,78.09 3.13,78.07 3.09,78.06 		"/>
		
			<line fill="none" stroke="#1D2132" stroke-width="0.1" stroke-linecap="round" stroke-linejoin="round" stroke-miterlimit="10" x1="3.45" y1="78.16" x2="3.12" y2="78.16"/>
		<polygon fill="#1D2132" points="3.44,78.07 3.41,78.09 3.39,78.14 3.39,78.18 3.41,78.23 3.44,78.25 3.49,78.26 3.53,78.25 
			3.56,78.23 3.59,78.18 3.59,78.14 3.56,78.09 3.53,78.07 3.49,78.06 		"/>
		
			<polygon fill="none" stroke="#1D2132" stroke-width="0.1" stroke-linecap="round" stroke-linejoin="round" stroke-miterlimit="10" points="
			3.44,78.07 3.41,78.09 3.39,78.14 3.39,78.18 3.41,78.23 3.44,78.25 3.49,78.26 3.53,78.25 3.56,78.23 3.59,78.18 3.59,78.14 
			3.56,78.09 3.53,78.07 3.49,78.06 		"/>
		
			<line fill="none" stroke="#1D2132" stroke-width="0.1" stroke-linecap="round" stroke-linejoin="round" stroke-miterlimit="10" x1="3.86" y1="78.16" x2="3.53" y2="78.16"/>
		<polygon fill="#1D2132" points="3.85,78.07 3.82,78.09 3.8,78.14 3.8,78.18 3.82,78.23 3.85,78.25 3.9,78.26 3.94,78.25 
			3.97,78.23 4,78.18 4,78.14 3.97,78.09 3.94,78.07 3.9,78.06 		"/>
		
			<polygon fill="none" stroke="#1D2132" stroke-width="0.1" stroke-linecap="round" stroke-linejoin="round" stroke-miterlimit="10" points="
			3.85,78.07 3.82,78.09 3.8,78.14 3.8,78.18 3.82,78.23 3.85,78.25 3.9,78.26 3.94,78.25 3.97,78.23 4,78.18 4,78.14 3.97,78.09 
			3.94,78.07 3.9,78.06 		"/>
		
			<line fill="none" stroke="#1D2132" stroke-width="0.1" stroke-linecap="round" stroke-linejoin="round" stroke-miterlimit="10" x1="4.26" y1="78.16" x2="3.94" y2="78.16"/>
		<polygon fill="#1D2132" points="4.26,78.07 4.23,78.09 4.21,78.14 4.21,78.18 4.23,78.23 4.26,78.25 4.31,78.26 4.35,78.25 
			4.38,78.23 4.41,78.18 4.41,78.14 4.38,78.09 4.35,78.07 4.31,78.06 		"/>
		
			<polygon fill="none" stroke="#1D2132" stroke-width="0.1" stroke-linecap="round" stroke-linejoin="round" stroke-miterlimit="10" points="
			4.26,78.07 4.23,78.09 4.21,78.14 4.21,78.18 4.23,78.23 4.26,78.25 4.31,78.26 4.35,78.25 4.38,78.23 4.41,78.18 4.41,78.14 
			4.38,78.09 4.35,78.07 4.31,78.06 		"/>
		
			<line fill="none" stroke="#1D2132" stroke-width="0.1" stroke-linecap="round" stroke-linejoin="round" stroke-miterlimit="10" x1="4.67" y1="78.16" x2="4.35" y2="78.16"/>
		<polygon fill="#1D2132" points="4.67,78.07 4.64,78.09 4.62,78.14 4.62,78.18 4.64,78.23 4.67,78.25 4.72,78.26 4.76,78.25 
			4.79,78.23 4.82,78.18 4.82,78.14 4.79,78.09 4.76,78.07 4.72,78.06 		"/>
		
			<polygon fill="none" stroke="#1D2132" stroke-width="0.1" stroke-linecap="round" stroke-linejoin="round" stroke-miterlimit="10" points="
			4.67,78.07 4.64,78.09 4.62,78.14 4.62,78.18 4.64,78.23 4.67,78.25 4.72,78.26 4.76,78.25 4.79,78.23 4.82,78.18 4.82,78.14 
			4.79,78.09 4.76,78.07 4.72,78.06 		"/>
		
			<line fill="none" stroke="#1D2132" stroke-width="0.1" stroke-linecap="round" stroke-linejoin="round" stroke-miterlimit="10" x1="5.08" y1="78.16" x2="4.75" y2="78.16"/>
		<polygon fill="#1D2132" points="5.08,78.07 5.05,78.09 5.03,78.14 5.03,78.18 5.05,78.23 5.08,78.25 5.13,78.26 5.17,78.25 
			5.21,78.23 5.23,78.18 5.23,78.14 5.21,78.09 5.17,78.07 5.13,78.06 		"/>
		
			<polygon fill="none" stroke="#1D2132" stroke-width="0.1" stroke-linecap="round" stroke-linejoin="round" stroke-miterlimit="10" points="
			5.08,78.07 5.05,78.09 5.03,78.14 5.03,78.18 5.05,78.23 5.08,78.25 5.13,78.26 5.17,78.25 5.21,78.23 5.23,78.18 5.23,78.14 
			5.21,78.09 5.17,78.07 5.13,78.06 		"/>
		
			<line fill="none" stroke="#1D2132" stroke-width="0.1" stroke-linecap="round" stroke-linejoin="round" stroke-miterlimit="10" x1="5.39" y1="78.16" x2="5.16" y2="78.16"/>
		
			<polyline fill="none" stroke="#1D2132" stroke-width="0.1" stroke-linecap="round" stroke-linejoin="round" stroke-miterlimit="10" points="
			2.74,79.51 5.46,79.51 5.46,76.8 2.74,76.8 2.74,79.51 		"/>
		
			<path fill="none" stroke="#1D2132" stroke-width="0.1" stroke-linecap="round" stroke-linejoin="round" stroke-miterlimit="10" d="
			M5.08,78.16c0-0.54-0.43-0.97-0.97-0.97s-0.97,0.43-0.97,0.97s0.43,0.97,0.97,0.97S5.08,78.7,5.08,78.16"/>
	</g>
</g>
</svg>
