<?xml version="1.0" encoding="utf-8"?>
<!-- Generator: Adobe Illustrator 22.0.0, SVG Export Plug-In . SVG Version: 6.00 Build 0)  -->
<svg version="1.1" xmlns="http://www.w3.org/2000/svg" xmlns:xlink="http://www.w3.org/1999/xlink" x="0px" y="0px"
	 viewBox="0 0 100 73" enable-background="new 0 0 100 73" xml:space="preserve">
<g id="Background">
	<rect x="2.6" y="3" opacity="0.1" fill="#1D2132" enable-background="new    " width="94.8" height="64.4"/>
</g>
<g id="Plumbing">
	<g>
		<polyline fill="#FFFFFF" points="82.24,63.6 82.24,63.45 82.24,63.32 82.21,63.05 82.15,62.8 82.05,62.55 81.93,62.3 81.8,62.09 
			81.62,61.89 81.44,61.71 81.16,61.5 80.87,61.33 80.56,61.16 80.25,61.03 79.9,60.91 79.6,60.81 79.28,60.74 78.95,60.66 
			78.61,60.6 78.27,60.59 77.98,60.57 77.68,60.59 77.34,60.62 77.01,60.66 76.68,60.74 76.36,60.81 76.02,60.93 75.71,61.03 
			75.4,61.16 75.09,61.33 74.79,61.5 74.51,61.71 74.34,61.89 74.16,62.09 74.03,62.3 73.89,62.55 73.81,62.8 73.75,63.05 
			73.7,63.32 73.7,63.6 73.7,67.4 82.24,67.4 82.24,63.6 		"/>
		
			<line fill="none" stroke="#1D2132" stroke-width="0.1" stroke-linecap="square" stroke-miterlimit="10" x1="73.7" y1="67.4" x2="82.24" y2="67.4"/>
		
			<line fill="none" stroke="#1D2132" stroke-width="0.1" stroke-linecap="square" stroke-miterlimit="10" x1="73.7" y1="63.6" x2="73.7" y2="67.4"/>
		
			<line fill="none" stroke="#1D2132" stroke-width="0.1" stroke-linecap="square" stroke-miterlimit="10" x1="82.24" y1="63.6" x2="82.24" y2="67.4"/>
		
			<line fill="none" stroke="#1D2132" stroke-width="0.1" stroke-linecap="square" stroke-miterlimit="10" x1="79.32" y1="67.4" x2="76.64" y2="67.4"/>
		
			<line fill="none" stroke="#1D2132" stroke-width="0.1" stroke-linecap="square" stroke-miterlimit="10" x1="77.71" y1="64.35" x2="77.27" y2="64.35"/>
		
			<line fill="none" stroke="#1D2132" stroke-width="0.1" stroke-linecap="square" stroke-miterlimit="10" x1="77.98" y1="64.61" x2="77.98" y2="65.1"/>
		
			<line fill="none" stroke="#1D2132" stroke-width="0.1" stroke-linecap="square" stroke-miterlimit="10" x1="78.7" y1="64.35" x2="78.24" y2="64.35"/>
		
			<line fill="none" stroke="#1D2132" stroke-width="0.1" stroke-linecap="square" stroke-miterlimit="10" x1="77.98" y1="63.58" x2="77.98" y2="64.05"/>
		<path fill="none" stroke="#1D2132" stroke-width="0.1" stroke-linecap="square" stroke-miterlimit="10" d="M81.72,63.35
			c-0.29,0.78-0.81,1.45-1.47,1.9"/>
		<path fill="none" stroke="#1D2132" stroke-width="0.1" stroke-linecap="square" stroke-miterlimit="10" d="M80.24,65.25
			c-0.59,0.38-1.27,0.58-1.96,0.58c-0.09,0-0.21,0-0.29-0.01"/>
		<path fill="none" stroke="#1D2132" stroke-width="0.1" stroke-linecap="square" stroke-miterlimit="10" d="M75.71,65.26
			c-0.66-0.47-1.19-1.12-1.47-1.9"/>
		<path fill="none" stroke="#1D2132" stroke-width="0.1" stroke-linecap="square" stroke-miterlimit="10" d="M77.96,65.81
			c-0.09,0.01-0.21,0.01-0.29,0.01c-0.69,0-1.37-0.21-1.96-0.58"/>
		<path fill="none" stroke="#1D2132" stroke-width="0.1" stroke-linecap="square" stroke-miterlimit="10" d="M78.29,60.59
			c0.88,0.07,1.77,0.31,2.58,0.74"/>
		<path fill="none" stroke="#1D2132" stroke-width="0.1" stroke-linecap="square" stroke-miterlimit="10" d="M73.7,63.58
			c0-0.01,0-0.06,0-0.09c0-0.69,0.29-1.34,0.81-1.78"/>
		<path fill="none" stroke="#1D2132" stroke-width="0.1" stroke-linecap="square" stroke-miterlimit="10" d="M77.68,60.59
			c0.09-0.01,0.21-0.01,0.29-0.01c0.09,0,0.21,0,0.29,0.01"/>
		<path fill="none" stroke="#1D2132" stroke-width="0.1" stroke-linecap="square" stroke-miterlimit="10" d="M80.37,65.12
			c-0.78,0.12-1.59,0.19-2.39,0.19c-0.78,0-1.58-0.07-2.37-0.19"/>
		<path fill="none" stroke="#1D2132" stroke-width="0.1" stroke-linecap="square" stroke-miterlimit="10" d="M77.99,66.84
			c-0.8,0-1.61-0.06-2.4-0.18"/>
		<path fill="none" stroke="#1D2132" stroke-width="0.1" stroke-linecap="square" stroke-miterlimit="10" d="M75.13,66.44
			c-0.78-0.93-1.21-2.12-1.21-3.36c0-0.03,0-0.04,0-0.07"/>
		<path fill="none" stroke="#1D2132" stroke-width="0.1" stroke-linecap="square" stroke-miterlimit="10" d="M75.58,66.68
			c-0.16-0.03-0.34-0.12-0.44-0.25"/>
		<path fill="none" stroke="#1D2132" stroke-width="0.1" stroke-linecap="square" stroke-miterlimit="10" d="M82.03,63.02
			c0,0.01,0,0.04,0,0.06c0,1.24-0.43,2.43-1.21,3.36"/>
		<path fill="none" stroke="#1D2132" stroke-width="0.1" stroke-linecap="square" stroke-miterlimit="10" d="M80.38,66.68
			c-0.8,0.1-1.59,0.18-2.4,0.18"/>
		<path fill="none" stroke="#1D2132" stroke-width="0.1" stroke-linecap="square" stroke-miterlimit="10" d="M80.82,66.41
			c-0.12,0.15-0.28,0.22-0.44,0.25"/>
		<path fill="none" stroke="#1D2132" stroke-width="0.1" stroke-linecap="square" stroke-miterlimit="10" d="M81.43,61.72
			c0.52,0.43,0.81,1.09,0.81,1.78c0,0.01,0,0.06,0,0.09"/>
		<path fill="none" stroke="#1D2132" stroke-width="0.1" stroke-linecap="square" stroke-miterlimit="10" d="M80.88,61.33
			c0.19,0.1,0.38,0.24,0.56,0.38"/>
		<path fill="none" stroke="#1D2132" stroke-width="0.1" stroke-linecap="square" stroke-miterlimit="10" d="M74.53,61.71
			c0.16-0.15,0.35-0.28,0.56-0.38"/>
		<path fill="none" stroke="#1D2132" stroke-width="0.1" stroke-linecap="square" stroke-miterlimit="10" d="M75.1,61.33
			c0.8-0.41,1.68-0.66,2.58-0.74"/>
		<path fill="none" stroke="#1D2132" stroke-width="0.1" stroke-linecap="square" stroke-miterlimit="10" d="M76.8,61.21
			c0.38-0.09,0.78-0.15,1.18-0.15s0.8,0.06,1.18,0.15"/>
		<path fill="none" stroke="#1D2132" stroke-width="0.1" stroke-linecap="square" stroke-miterlimit="10" d="M81.3,62.24
			c0.28,0.27,0.44,0.63,0.44,1.03c0,0.03,0,0.06,0,0.09"/>
		<path fill="none" stroke="#1D2132" stroke-width="0.1" stroke-linecap="square" stroke-miterlimit="10" d="M79.16,61.21
			c0.78,0.16,1.5,0.52,2.12,1.03"/>
		<path fill="none" stroke="#1D2132" stroke-width="0.1" stroke-linecap="square" stroke-miterlimit="10" d="M74.23,63.36
			c0-0.03,0-0.06,0-0.09c0-0.4,0.16-0.77,0.44-1.03"/>
		<path fill="none" stroke="#1D2132" stroke-width="0.1" stroke-linecap="square" stroke-miterlimit="10" d="M74.66,62.24
			c0.62-0.55,1.36-0.88,2.14-1.03"/>
		<path fill="none" stroke="#1D2132" stroke-width="0.1" stroke-linecap="square" stroke-miterlimit="10" d="M77.98,64.92
			c0.29,0,0.56-0.27,0.55-0.59c0-0.32-0.25-0.59-0.55-0.59c-0.29,0-0.55,0.27-0.55,0.59C77.43,64.66,77.68,64.92,77.98,64.92"/>
		<path fill="none" stroke="#1D2132" stroke-width="0.1" stroke-linecap="square" stroke-miterlimit="10" d="M77.98,64.66
			c0.16,0,0.29-0.15,0.29-0.31c0-0.18-0.13-0.31-0.29-0.31s-0.29,0.13-0.29,0.31S77.82,64.66,77.98,64.66"/>
	</g>
	<g>
		<polygon fill="#FFFFFF" points="62.44,67.4 62.44,65.23 62.44,65.2 62.45,65.17 62.45,65.14 62.48,65.12 62.48,65.09 62.48,65.06 
			62.48,65.04 62.5,65.01 62.53,65 62.54,64.97 62.57,64.95 62.59,64.94 62.6,64.92 62.63,64.91 62.66,64.89 62.69,64.88 
			62.69,59.11 62.69,58.97 62.69,58.83 62.72,58.69 62.75,58.55 62.79,58.42 62.82,58.29 62.88,58.16 62.93,58.02 63,57.9 
			63.06,57.79 63.13,57.67 63.21,57.57 63.31,57.45 63.4,57.36 63.5,57.26 63.59,57.17 63.69,57.06 63.81,56.99 63.91,56.92 
			64.03,56.86 64.13,56.78 64.25,56.72 64.39,56.67 64.5,56.62 64.64,56.58 64.77,56.55 64.89,56.5 65.02,56.47 65.15,56.46 
			65.28,56.44 65.42,56.44 65.55,56.44 65.68,56.44 65.82,56.44 65.95,56.46 66.08,56.47 66.21,56.5 66.35,56.55 66.46,56.58 
			66.6,56.62 66.72,56.67 66.83,56.72 66.95,56.78 67.07,56.86 67.2,56.92 67.29,56.99 67.39,57.06 67.5,57.17 67.6,57.26 
			67.7,57.36 67.79,57.45 67.88,57.57 67.97,57.67 68.04,57.79 68.1,57.9 68.17,58.02 68.22,58.16 68.29,58.29 68.31,58.42 
			68.35,58.55 68.38,58.69 68.4,58.83 68.4,58.97 68.41,59.11 68.41,64.88 68.44,64.89 68.47,64.91 68.5,64.92 68.5,64.94 
			68.53,64.95 68.56,64.97 68.57,65 68.59,65.01 68.6,65.04 68.62,65.06 68.63,65.09 68.63,65.12 68.65,65.14 68.65,65.17 
			68.66,65.2 68.66,65.23 68.66,67.4 65.55,67.4 		"/>
		
			<line fill="none" stroke="#1D2132" stroke-width="0.1" stroke-linecap="square" stroke-miterlimit="10" x1="68.41" y1="59.11" x2="68.41" y2="64.88"/>
		
			<line fill="none" stroke="#1D2132" stroke-width="0.1" stroke-linecap="square" stroke-miterlimit="10" x1="62.44" y1="67.4" x2="68.66" y2="67.4"/>
		
			<line fill="none" stroke="#1D2132" stroke-width="0.1" stroke-linecap="square" stroke-miterlimit="10" x1="68.66" y1="65.23" x2="68.66" y2="67.4"/>
		
			<line fill="none" stroke="#1D2132" stroke-width="0.1" stroke-linecap="square" stroke-miterlimit="10" x1="63.24" y1="63.86" x2="65.55" y2="63.86"/>
		
			<line fill="none" stroke="#1D2132" stroke-width="0.1" stroke-linecap="square" stroke-miterlimit="10" x1="67.85" y1="63.86" x2="68.41" y2="59.11"/>
		
			<line fill="none" stroke="#1D2132" stroke-width="0.1" stroke-linecap="square" stroke-miterlimit="10" x1="67.85" y1="63.86" x2="65.55" y2="63.86"/>
		
			<line fill="none" stroke="#1D2132" stroke-width="0.1" stroke-linecap="square" stroke-miterlimit="10" x1="63.24" y1="63.86" x2="62.69" y2="59.11"/>
		
			<line fill="none" stroke="#1D2132" stroke-width="0.1" stroke-linecap="square" stroke-miterlimit="10" x1="62.69" y1="59.11" x2="62.69" y2="64.88"/>
		
			<line fill="none" stroke="#1D2132" stroke-width="0.1" stroke-linecap="square" stroke-miterlimit="10" x1="62.44" y1="65.23" x2="62.44" y2="67.4"/>
		<path fill="none" stroke="#1D2132" stroke-width="0.1" stroke-linecap="square" stroke-miterlimit="10" d="M68.34,64.88
			c-0.93-0.1-1.86-0.16-2.79-0.16s-1.86,0.04-2.79,0.15"/>
		<path fill="none" stroke="#1D2132" stroke-width="0.1" stroke-linecap="square" stroke-miterlimit="10" d="M68.66,65.23
			c0-0.18-0.15-0.34-0.32-0.37"/>
		<path fill="none" stroke="#1D2132" stroke-width="0.1" stroke-linecap="square" stroke-miterlimit="10" d="M68.41,59.11
			c0-1.47-1.28-2.67-2.86-2.67s-2.86,1.19-2.86,2.67"/>
		<path fill="none" stroke="#1D2132" stroke-width="0.1" stroke-linecap="square" stroke-miterlimit="10" d="M62.76,64.86
			c-0.18,0.01-0.32,0.19-0.32,0.37"/>
		<path fill="none" stroke="#1D2132" stroke-width="0.1" stroke-linecap="square" stroke-miterlimit="10" d="M65.55,66.32
			c-0.16,0-0.28-0.13-0.29-0.31c0-0.16,0.13-0.31,0.29-0.31s0.29,0.15,0.29,0.31S65.71,66.32,65.55,66.32"/>
	</g>
	<g>
		<path fill="#FFFFFF" d="M85.4,55.24h11.89c0.07,0,0.12,0.04,0.12,0.12v11.89c0,0.07-0.04,0.12-0.12,0.12H85.41
			c-0.07,0-0.12-0.04-0.12-0.12v-11.9C85.29,55.29,85.35,55.24,85.4,55.24z"/>
		
			<line fill="none" stroke="#1D2132" stroke-width="0.1" stroke-linecap="square" stroke-miterlimit="10" x1="94.33" y1="64.66" x2="94.33" y2="65.44"/>
		
			<line fill="none" stroke="#1D2132" stroke-width="0.1" stroke-linecap="square" stroke-miterlimit="10" x1="95.45" y1="64.33" x2="94.67" y2="64.33"/>
		
			<line fill="none" stroke="#1D2132" stroke-width="0.1" stroke-linecap="square" stroke-miterlimit="10" x1="94.33" y1="63.23" x2="94.33" y2="63.99"/>
		
			<line fill="none" stroke="#1D2132" stroke-width="0.1" stroke-linecap="square" stroke-miterlimit="10" x1="94.01" y1="64.33" x2="93.23" y2="64.33"/>
		
			<line fill="none" stroke="#1D2132" stroke-width="0.1" stroke-linecap="square" stroke-miterlimit="10" x1="85.97" y1="63.39" x2="85.97" y2="66.63"/>
		
			<line fill="none" stroke="#1D2132" stroke-width="0.1" stroke-linecap="square" stroke-miterlimit="10" x1="96.77" y1="56.11" x2="96.77" y2="63.52"/>
		<path fill="none" stroke="#1D2132" stroke-width="0.1" stroke-linecap="square" stroke-miterlimit="10" d="M96.63,55.97H86.16
			c-0.1,0-0.19,0.09-0.19,0.19v10.47"/>
		
			<line fill="none" stroke="#1D2132" stroke-width="0.1" stroke-linecap="square" stroke-miterlimit="10" x1="93.52" y1="66.77" x2="86.1" y2="66.77"/>
		<g>
			<path fill="none" stroke="#1D2132" stroke-width="0.1" stroke-linecap="square" stroke-miterlimit="10" d="M93.52,66.78
				c0.06,0,0.15-0.01,0.21-0.04"/>
		</g>
		<g>
			<path fill="none" stroke="#1D2132" stroke-width="0.1" stroke-linecap="square" stroke-miterlimit="10" d="M85.97,66.63
				c0,0.07,0.06,0.13,0.13,0.13"/>
		</g>
		<g>
			<path fill="none" stroke="#1D2132" stroke-width="0.1" stroke-linecap="square" stroke-miterlimit="10" d="M93.52,66.78
				c0.06,0,0.15-0.01,0.21-0.04"/>
		</g>
		<g>
			<path fill="none" stroke="#1D2132" stroke-width="0.1" stroke-linecap="square" stroke-miterlimit="10" d="M96.77,56.11
				c0-0.07-0.06-0.13-0.13-0.13"/>
		</g>
		<g>
			<path fill="none" stroke="#1D2132" stroke-width="0.1" stroke-linecap="square" stroke-miterlimit="10" d="M93.64,66.77
				c1.34-0.71,2.43-1.78,3.11-3.11"/>
		</g>
		<g>
			<path fill="none" stroke="#1D2132" stroke-width="0.1" stroke-linecap="square" stroke-miterlimit="10" d="M96.74,63.74
				c0.01-0.07,0.03-0.15,0.03-0.22"/>
		</g>
		<g>
			<path fill="none" stroke="#1D2132" stroke-width="0.1" stroke-linecap="square" stroke-miterlimit="10" d="M93.74,66.72
				c1.4-0.47,2.52-1.58,2.99-2.99"/>
		</g>
		<g>
			<path fill="none" stroke="#1D2132" stroke-width="0.1" stroke-linecap="square" stroke-miterlimit="10" d="M96.74,63.74
				c0.01-0.07,0.03-0.15,0.03-0.22"/>
		</g>
		<g>
			<path fill="none" stroke="#1D2132" stroke-width="0.1" stroke-linecap="square" stroke-miterlimit="10" d="M94.33,64.95
				c-0.32,0-0.6-0.29-0.6-0.6c0-0.32,0.28-0.6,0.6-0.6c0.34,0,0.62,0.27,0.6,0.6C94.94,64.67,94.66,64.95,94.33,64.95"/>
		</g>
		<g>
			<path fill="none" stroke="#1D2132" stroke-width="0.1" stroke-linecap="square" stroke-miterlimit="10" d="M94.33,65.19
				c-0.47,0-0.84-0.38-0.86-0.86c0-0.47,0.38-0.86,0.86-0.86s0.86,0.38,0.86,0.86C95.19,64.81,94.8,65.19,94.33,65.19"/>
		</g>
		<path fill="none" stroke="#1D2132" stroke-width="0.1" stroke-linecap="square" stroke-miterlimit="10" d="M85.62,55.31h11.46
			c0.18,0,0.32,0.15,0.32,0.32v11.44c0,0.18-0.15,0.32-0.32,0.32H85.62c-0.18,0-0.32-0.15-0.32-0.32V55.6
			C85.29,55.44,85.44,55.29,85.62,55.31z"/>
	</g>
	<g>
		<g>
			<path fill="#FFFFFF" stroke="#1D2132" stroke-width="0.1" stroke-linecap="square" stroke-miterlimit="10" d="M95.23,40.96
				c0,0.12,0.12,0.22,0.28,0.22c0.15,0,0.28-0.1,0.28-0.22s-0.12-0.22-0.28-0.22C95.35,40.74,95.23,40.84,95.23,40.96z"/>
			
				<ellipse fill="#FFFFFF" stroke="#1D2132" stroke-width="0.1" stroke-linecap="square" stroke-miterlimit="10" cx="94.32" cy="40.96" rx="0.28" ry="0.22"/>
			<path fill="#FFFFFF" stroke="#1D2132" stroke-width="0.1" stroke-linecap="square" stroke-miterlimit="10" d="M89.24,40.96
				c0,0.12,0.12,0.22,0.28,0.22c0.15,0,0.28-0.1,0.28-0.22c0-0.12-0.12-0.22-0.28-0.22C89.36,40.74,89.24,40.84,89.24,40.96z"/>
			<path fill="#FFFFFF" stroke="#1D2132" stroke-width="0.1" stroke-linecap="square" stroke-miterlimit="10" d="M89.25,40.96
				c-0.62,0-1.12-0.13-1.12-0.29v-0.75c0-0.16,0.5-0.29,1.12-0.29h6.53c0.62,0,1.12,0.13,1.12,0.29v0.75c0,0.16-0.5,0.29-1.12,0.29
				H89.25z"/>
			
				<rect x="87.6" y="34.02" fill="#FFFFFF" stroke="#1D2132" stroke-width="0.1" stroke-linecap="square" stroke-miterlimit="10" width="9.73" height="6.55"/>
			<path fill="#FFFFFF" stroke="#1D2132" stroke-width="0.1" stroke-linecap="square" stroke-miterlimit="10" d="M89.25,40.22
				c-0.62,0-1.12-1.07-1.12-2.39v-1.08c0-1.32,0.5-2.39,1.12-2.39h6.53c0.62,0,1.12,1.07,1.12,2.39v1.08c0,1.32-0.5,2.39-1.12,2.39
				H89.25z"/>
		</g>
		<g>
			<path fill="#FFFFFF" stroke="#1D2132" stroke-width="0.1" stroke-linecap="square" stroke-miterlimit="10" d="M89.38,35.18h6.28
				c0.09,0,0.16-0.07,0.16-0.16v-0.15c0-0.09-0.07-0.16-0.16-0.16h-6.28c-0.09,0-0.16,0.07-0.16,0.16v0.15
				C89.22,35.1,89.29,35.18,89.38,35.18z"/>
			<g>
				
					<rect x="95.15" y="33.68" fill="#FFFFFF" stroke="#1D2132" stroke-width="0.1" stroke-linecap="square" stroke-miterlimit="10" width="0.39" height="1.04"/>
				
					<rect x="89.46" y="33.68" fill="#FFFFFF" stroke="#1D2132" stroke-width="0.1" stroke-linecap="square" stroke-miterlimit="10" width="0.39" height="1.04"/>
			</g>
			<g>
				
					<rect x="94.94" y="33.47" fill="#FFFFFF" stroke="#1D2132" stroke-width="0.1" stroke-linecap="square" stroke-miterlimit="10" width="0.82" height="0.2"/>
				
					<rect x="89.25" y="33.47" fill="#FFFFFF" stroke="#1D2132" stroke-width="0.1" stroke-linecap="square" stroke-miterlimit="10" width="0.82" height="0.2"/>
			</g>
		</g>
	</g>
</g>
<g id="Furniture">
	<g>
		
			<rect x="48.67" y="45.3" fill="#FFFFFF" stroke="#1D2132" stroke-width="0.1" stroke-linecap="square" stroke-miterlimit="22.9256" width="9.22" height="19.47"/>
		
			<rect x="48.67" y="43.8" fill="#FFFFFF" stroke="#1D2132" stroke-width="0.1" stroke-linecap="square" stroke-miterlimit="22.9256" width="9.22" height="7.18"/>
		
			<rect x="48.67" y="57.04" fill="#FFFFFF" stroke="#1D2132" stroke-width="0.1" stroke-linecap="square" stroke-miterlimit="22.9256" width="9.22" height="7.76"/>
		
			<rect x="48.67" y="35.88" fill="#FFFFFF" stroke="#1D2132" stroke-width="0.1" stroke-linecap="square" stroke-miterlimit="22.9256" width="9.22" height="7.93"/>
		<g>
			
				<line fill="none" stroke="#1D2132" stroke-width="0.1" stroke-linecap="square" stroke-miterlimit="22.9256" x1="54.42" y1="39.94" x2="52.12" y2="39.94"/>
			
				<line fill="none" stroke="#1D2132" stroke-width="0.1" stroke-linecap="square" stroke-miterlimit="22.9256" x1="54.08" y1="39.13" x2="52.45" y2="40.76"/>
			
				<line fill="none" stroke="#1D2132" stroke-width="0.1" stroke-linecap="square" stroke-miterlimit="22.9256" x1="53.27" y1="38.79" x2="53.27" y2="41.11"/>
			
				<line fill="none" stroke="#1D2132" stroke-width="0.1" stroke-linecap="square" stroke-miterlimit="22.9256" x1="52.45" y1="39.13" x2="54.08" y2="40.76"/>
		</g>
		<g>
			
				<rect x="49.04" y="44.65" fill="#FFFFFF" stroke="#1D2132" stroke-width="0.1" stroke-linecap="square" stroke-miterlimit="22.9256" width="8.47" height="5.38"/>
			<g>
				<path fill="#FFFFFF" stroke="#1D2132" stroke-width="0.1" stroke-linecap="square" stroke-miterlimit="22.9256" d="M51.34,48.82
					c0.82,0,1.47-0.67,1.47-1.47c0-0.82-0.65-1.47-1.47-1.47c-0.82,0-1.47,0.65-1.47,1.47C49.87,48.15,50.53,48.82,51.34,48.82"/>
				<path fill="#FFFFFF" stroke="#1D2132" stroke-width="0.1" stroke-linecap="square" stroke-miterlimit="22.9256" d="M55.51,48.82
					c0.81,0,1.47-0.67,1.47-1.47c0-0.82-0.65-1.47-1.47-1.47c-0.82,0-1.47,0.65-1.47,1.47C54.04,48.15,54.7,48.82,55.51,48.82"/>
				<path fill="#FFFFFF" stroke="#1D2132" stroke-width="0.1" stroke-linecap="square" stroke-miterlimit="22.9256" d="M51.34,48.53
					c0.65,0,1.17-0.54,1.17-1.17c0-0.65-0.54-1.17-1.17-1.17c-0.65,0-1.17,0.54-1.17,1.17C50.16,48,50.7,48.53,51.34,48.53"/>
				<path fill="#FFFFFF" stroke="#1D2132" stroke-width="0.1" stroke-linecap="square" stroke-miterlimit="22.9256" d="M55.51,48.53
					c0.65,0,1.17-0.54,1.17-1.17c0-0.65-0.54-1.17-1.17-1.17c-0.65,0-1.17,0.54-1.17,1.17C54.34,47.99,54.86,48.53,55.51,48.53"/>
			</g>
		</g>
		<g>
			<path fill="#FFFFFF" stroke="#1D2132" stroke-width="0.1" stroke-linecap="square" stroke-miterlimit="22.9256" d="M56.16,59.11
				v3.56c0,0.3-0.23,0.54-0.54,0.54h-5.87c-0.3,0-0.54-0.23-0.54-0.54v-3.56c0-0.3,0.23-0.54,0.54-0.54h5.87
				C55.93,58.58,56.16,58.81,56.16,59.11z"/>
			<g>
				<path fill="#FFFFFF" stroke="#1D2132" stroke-width="0.1" stroke-linecap="square" stroke-miterlimit="22.9256" d="M54.84,61.26
					c-0.23,0-0.42-0.17-0.42-0.38c0-0.2,0.19-0.38,0.42-0.38s0.42,0.17,0.42,0.38C55.26,61.09,55.07,61.27,54.84,61.26z"/>
				<g>
					<path fill="#FFFFFF" stroke="#1D2132" stroke-width="0.1" stroke-linecap="square" stroke-miterlimit="22.9256" d="
						M56.74,61.52c-0.32-0.02-0.58-0.29-0.58-0.63c0-0.36,0.26-0.63,0.58-0.63c0.32,0,0.58,0.27,0.58,0.63
						C57.32,61.24,57.05,61.52,56.74,61.52z"/>
					<path fill="#FFFFFF" stroke="#1D2132" stroke-width="0.1" stroke-linecap="square" stroke-miterlimit="22.9256" d="
						M53.48,60.87c0-0.12,0.12-0.19,0.3-0.19l3,0.02c0.17,0,0.3,0.09,0.3,0.19l0,0c0,0.12-0.13,0.19-0.3,0.19l-3-0.02
						C53.61,61.06,53.48,60.99,53.48,60.87L53.48,60.87z"/>
					<path fill="#FFFFFF" stroke="#1D2132" stroke-width="0.1" stroke-linecap="square" stroke-miterlimit="22.9256" d="M56.7,61.76
						c-0.1,0-0.17-0.39-0.17-0.88c0-0.48,0.09-0.88,0.17-0.88c0.12,0,0.17,0.39,0.17,0.88C56.89,61.37,56.82,61.78,56.7,61.76z"/>
				</g>
			</g>
		</g>
	</g>
	<g>
		
			<rect x="88.37" y="3" fill="#FFFFFF" stroke="#1D2132" stroke-width="0.1" stroke-linecap="square" stroke-miterlimit="10" width="9.17" height="29.1"/>
		<g>
			<path fill="#FFFFFF" stroke="#1D2132" stroke-width="0.1" stroke-linecap="square" stroke-miterlimit="10" d="M94.01,17.69h0.42
				c0.02,0.02,0.07,0.09,0.11,0.14c0.13,0.19,0.32,0.47,0.74,0.54c0.3,0.05,0.59-0.06,0.76-0.29c0.18-0.25,0.2-0.59,0.06-0.87
				c-0.23-0.44-0.69-0.5-0.9-0.47c-0.07,0.01-0.12,0.08-0.11,0.15c0.01,0.07,0.08,0.12,0.15,0.11c0,0,0.43-0.06,0.63,0.33
				c0.1,0.19,0.09,0.43-0.04,0.59c-0.11,0.15-0.3,0.22-0.5,0.19c-0.31-0.05-0.45-0.26-0.56-0.43c-0.09-0.13-0.17-0.25-0.32-0.25
				h-0.43c-0.07,0-0.13,0.06-0.13,0.13S93.94,17.69,94.01,17.69z M94.44,17.69L94.44,17.69L94.44,17.69z"/>
			<path fill="#FFFFFF" stroke="#1D2132" stroke-width="0.1" stroke-linecap="square" stroke-miterlimit="10" d="M91.26,22.75
				c0.32,0.08,0.64-0.06,0.8-0.36c0-0.01,0.01-0.01,0.01-0.02l1.91-4.04c0.01-0.03,0.02-0.07,0.02-0.1v-1.36
				c0-0.04-0.01-0.07-0.02-0.1l-1.91-4.04c0-0.01-0.01-0.01-0.01-0.02c-0.16-0.29-0.48-0.44-0.8-0.36
				c-0.32,0.08-0.24,0.45-0.24,0.78l0,8.84C91.02,22.3,90.93,22.67,91.26,22.75z M92.81,16.93v1.25l-1.22,4.27
				c-0.06,0.11-0.17,0.09-0.2,0.09c-0.03-0.01-0.14-0.05-0.14-0.18l0-9.61c0-0.13,0.11-0.17,0.14-0.18c0.03-0.01,0.14-0.03,0.2,0.09
				L92.81,16.93z"/>
		</g>
	</g>
	<g>
		<g>
			<path fill="#FFFFFF" stroke="#1D2132" stroke-width="0.1" stroke-linecap="square" stroke-miterlimit="10" d="M34.21,56.83
				c1.46,0.12,3.44,0.08,4.17,0.36c0.65,0.25,0.16,1.66,0.17,3.32c0,1.66,0.49,3.07-0.16,3.32c-0.73,0.28-2.71,0.25-4.17,0.37
				c-1.46,0.12-1.9-0.24-2.11-1.09c-0.2-0.83-0.17-1.9-0.17-2.59c0-0.69-0.04-1.76,0.16-2.59C32.31,57.08,32.75,56.71,34.21,56.83z"
				/>
			<path fill="#FFFFFF" stroke="#1D2132" stroke-width="0.1" stroke-linecap="square" stroke-miterlimit="10" d="M33.81,57.1
				c1.2,0.11,2.83,0.07,3.43,0.33c0.53,0.23,1.03,1.54,1.03,3.07c0,1.54-0.5,2.84-1.03,3.07c-0.6,0.26-2.23,0.23-3.43,0.34
				c-1.2,0.11-1.56-0.22-1.73-1.01c-0.16-0.77-0.14-1.76-0.14-2.4c0-0.64-0.03-1.63,0.13-2.4C32.24,57.33,32.61,56.99,33.81,57.1z"
				/>
			<g>
				<path fill="#FFFFFF" stroke="#1D2132" stroke-width="0.1" stroke-linecap="square" stroke-miterlimit="10" d="M39.7,62.57
					c-0.09,0.49-0.22,0.96-0.37,1.42c-1.66-0.2-0.46-1.68-0.47-3.48c0-1.87-1.25-3.5,0.53-3.5C39.94,58.75,40.08,60.65,39.7,62.57z"
					/>
				<path fill="#FFFFFF" stroke="#1D2132" stroke-width="0.1" stroke-linecap="square" stroke-miterlimit="10" d="M39.69,56.82
					c0.03,0.11,0.07,0.21,0.1,0.32c0.51,1.73,0.62,3.61,0.25,5.5c-0.09,0.45-0.2,0.88-0.33,1.3c-0.03,0.08-0.05,0.17-0.08,0.25
					l-0.32-0.11c0.01-0.03,0.02-0.06,0.03-0.09c0.15-0.46,0.28-0.93,0.37-1.42c0.37-1.92,0.24-3.82-0.31-5.56
					c-0.01-0.03-0.02-0.06-0.03-0.08L39.69,56.82z"/>
			</g>
		</g>
		<g>
			<path fill="#FFFFFF" stroke="#1D2132" stroke-width="0.1" stroke-linecap="square" stroke-miterlimit="10" d="M17.09,56.83
				c-1.46,0.12-3.44,0.08-4.17,0.36c-0.65,0.25-0.16,1.66-0.17,3.32c0,1.66-0.49,3.07,0.16,3.32c0.73,0.28,2.71,0.25,4.17,0.37
				c1.46,0.12,1.9-0.24,2.11-1.09c0.2-0.83,0.17-1.9,0.17-2.59c0-0.69,0.04-1.76-0.16-2.59C19,57.08,18.55,56.71,17.09,56.83z"/>
			<path fill="#FFFFFF" stroke="#1D2132" stroke-width="0.1" stroke-linecap="square" stroke-miterlimit="10" d="M17.5,57.1
				c-1.2,0.11-2.83,0.07-3.43,0.33c-0.53,0.23-1.03,1.54-1.03,3.07c0,1.54,0.5,2.84,1.03,3.07c0.6,0.26,2.23,0.23,3.43,0.34
				c1.2,0.11,1.56-0.22,1.73-1.01c0.16-0.77,0.14-1.76,0.14-2.4c0-0.64,0.03-1.63-0.13-2.4C19.06,57.33,18.7,56.99,17.5,57.1z"/>
			<g>
				<path fill="#FFFFFF" stroke="#1D2132" stroke-width="0.1" stroke-linecap="square" stroke-miterlimit="10" d="M11.6,62.57
					c0.09,0.49,0.22,0.96,0.37,1.42c1.66-0.2,0.46-1.68,0.47-3.48c0-1.87,1.25-3.5-0.53-3.5C11.36,58.75,11.23,60.65,11.6,62.57z"/>
				<path fill="#FFFFFF" stroke="#1D2132" stroke-width="0.1" stroke-linecap="square" stroke-miterlimit="10" d="M11.61,56.82
					c-0.03,0.11-0.07,0.21-0.1,0.32c-0.51,1.73-0.62,3.61-0.25,5.5c0.09,0.45,0.2,0.88,0.33,1.3c0.03,0.08,0.05,0.17,0.08,0.25
					l0.32-0.11c-0.01-0.03-0.02-0.06-0.03-0.09c-0.15-0.46-0.28-0.93-0.37-1.42c-0.37-1.92-0.24-3.82,0.31-5.56
					c0.01-0.03,0.02-0.06,0.03-0.08L11.61,56.82z"/>
			</g>
		</g>
		
			<rect x="21.18" y="54.59" transform="matrix(-4.501129e-11 1 -1 -4.501129e-11 86.1415 34.8863)" fill="#FFFFFF" stroke="#1D2132" stroke-width="0.1" stroke-linecap="square" stroke-miterlimit="10" width="8.89" height="11.85"/>
	</g>
	<g>
		<g>
			<g>
				
					<rect x="4.16" y="32.02" transform="matrix(-1 -4.491042e-11 4.491042e-11 -1 14.1195 69.3758)" fill="#FFFFFF" stroke="#1D2132" stroke-width="0.1" stroke-linecap="square" stroke-miterlimit="10" width="5.79" height="5.33"/>
				<polygon fill="#FFFFFF" stroke="#1D2132" stroke-width="0.1" stroke-linecap="square" stroke-miterlimit="10" points="
					9.96,35.73 9.96,36.29 10.54,36.29 10.54,33.09 9.96,33.09 9.96,33.64 10.34,33.64 10.34,35.73 				"/>
			</g>
			<g>
				
					<rect x="4.16" y="4.69" transform="matrix(-1 -4.491042e-11 4.491042e-11 -1 14.1195 14.7207)" fill="#FFFFFF" stroke="#1D2132" stroke-width="0.1" stroke-linecap="square" stroke-miterlimit="10" width="5.79" height="5.33"/>
				<polygon fill="#FFFFFF" stroke="#1D2132" stroke-width="0.1" stroke-linecap="square" stroke-miterlimit="10" points="9.96,8.4 
					9.96,8.96 10.54,8.96 10.54,5.76 9.96,5.76 9.96,6.32 10.34,6.32 10.34,8.4 				"/>
			</g>
		</g>
		<g>
			<g>
				
					<rect x="3.94" y="10.36" fill="#FFFFFF" stroke="#1D2132" stroke-width="0.1" stroke-linecap="square" stroke-miterlimit="22.9256" width="30.48" height="21.34"/>
				<path fill="#FFFFFF" stroke="#1D2132" stroke-width="0.1" stroke-linecap="square" stroke-miterlimit="22.9256" d="M6.05,10.61
					c0,0,0.75-0.05,1.47,0c1.21,0.07,1.97,0.12,3.21,0.12c1.24,0,1.36-0.14,1.55-0.02c0.19,0.12,0.47,0.13,0.78,0
					c0.31-0.13,2.05-0.03,3.26-0.03c1.2,0,3.1-0.1,4.15-0.07c1.05,0.03,0.65,0.15,0.73,0.29c0.08,0.13,0.93-0.11,1.09-0.22
					c0.16-0.12,0.82-0.06,3.11-0.08c2.29-0.02,4.19,0.12,5.41,0.08c0.76-0.02,1.19,0,1.39,0.03c0.46,0.07,0.26-0.01,0.78-0.01
					c0.59,0.01-0.75,0.27-0.01,0.15c0.5-0.08,0.99-0.23,0.87-0.12c-0.12,0.12-0.6,0.32-0.68,0.39c-0.08,0.07-0.48,0.27-0.17,0.2
					c0.31-0.07,1-0.77,1.04-0.59c0.04,0.21,0.07,0.87,0.07,2.45c0,1.57,0,12.38-0.19,12.47c-0.19,0.08-0.12,0.08,0,0.18
					c0.12,0.1-0.04,2.01,0.12,2.39c0.16,0.38,0.12,0.96-0.08,1.04c-0.19,0.08-0.23,0.07-0.08,0.15c0.15,0.08,0.19,0.76,0.19,1.1
					c0,0.52,0.25,0.69-0.25,0.46c-0.5-0.23-0.89-0.21-0.58-0.06c0.31,0.15,0.73,0.19,0.81,0.29s0.37,0.08-0.45,0.09
					c-0.81,0.02-5.53,0.11-7.09,0.08c-1.55-0.03-2.76,0.01-2.98-0.03c-0.6-0.11-1.44,0.06-2.79,0.02c-1.68-0.05-4.29-0.04-6.19-0.05
					c-1.9-0.02-2.44-0.02-3.84,0c-1.4,0.02-1.93-0.22-2.37-0.11c-0.87,0.23-1.24,0.03-1.9-0.01c-0.66-0.03-1.64,0.09-1.98,0.06
					c-0.26-0.02,0.74-0.36,0.58-0.51s-0.62,0.62-0.72,0.34s0.1-3.9,0-4.18c-0.1-0.28,0-0.2,0-0.2s0-0.84,0-1.45
					c0-0.61,0-13.63,0-13.96s0.09-0.66,0.26-0.33c0.17,0.33-0.04-0.33,0.3-0.36C5.21,10.59,5.72,10.72,6.05,10.61z"/>
				<path fill="#FFFFFF" stroke="#1D2132" stroke-width="0.1" stroke-linecap="square" stroke-miterlimit="22.9256" d="M12.39,10.3
					c0.9-0.09,5.22-0.04,5.22,0.05s-1.48-0.22-2.34,0.37c-0.86,0.59-1.49,1.23-1.21,1.06c0.27-0.17,0.31-0.19,0.51-0.38
					c0.2-0.19,0.27-0.38,0.35-0.28c0.08,0.1-0.14,0.74-0.36,1.3c-0.28,0.71,0,2.5,0.07,3.3c0.18,2.04,0.65,13.48,1.82,14.74
					c1.17,1.27,1.36,1.16,1.75,1.23c0.39,0.07,1.6-0.07,0.98,0.05c-0.6,0.11-1.84,0.01-3.03,0.1c-1.21,0.09-1.6,0.19-1.68,0.05
					c-0.08-0.14-1.17-1.7-0.98-1.47c0.05,0.06,0.82,1.38,0.78,1.49c-0.04,0.1-0.42,0.03-0.86,0c-0.59-0.03-0.59-0.03-0.59-0.09
					c0-0.23-0.1-0.92-0.06-1.77c0.04-0.85-0.23-0.1-0.08,0.36c0.16,0.47-0.16,0.05-0.47-0.82C11.92,28.73,12.57,16,12.3,15.38
					c-0.27-0.63-0.63-2.74-0.16-3.53C12.61,11.07,11.72,10.37,12.39,10.3z"/>
				<g>
					<path fill="#FFFFFF" stroke="#1D2132" stroke-width="0.1" stroke-linecap="square" stroke-miterlimit="22.9256" d="M4.11,21.62
						c0-0.42,0.07-0.32,0.2-0.21c0.13,0.11,0.33,0.16,1.19,0c0.87-0.16,1.52-0.21,2.34,0.05c0.82,0.26,0.93,0.12,1.15,0.02
						c0.22-0.11,0.39-0.05,0.22,0.26c-0.17,0.32,0.08,1.23,0.11,1.98c0.13,2.89,0.01,4.16-0.1,6.18c-0.02,0.43-0.16,0.8-0.12,1.01
						c0.04,0.21-0.04,0.47-0.17,0.31c-0.13-0.16-1.56,0.21-2.6,0.11c-1.04-0.11-1.63-0.04-1.76,0.01c-0.13,0.05-0.52-0.11-0.35-0.31
						c0.17-0.21-0.09-1.06-0.14-1.48c-0.04-0.42-0.17-1.33-0.13-3.58c0.04-2.26,0.03-3.25,0.16-3.62
						C4.24,21.97,4.11,21.72,4.11,21.62z"/>
					<path fill="none" stroke="#1D2132" stroke-width="0.1" stroke-linecap="square" stroke-miterlimit="22.9256" d="M8.63,22.01
						c0,0,0.58,1.72,0.58,4.3c0,2.58-0.81,4.44-0.81,4.44"/>
				</g>
				<g>
					<path fill="#FFFFFF" stroke="#1D2132" stroke-width="0.1" stroke-linecap="square" stroke-miterlimit="22.9256" d="M6.89,22.9
						c0-0.31,0.06-0.23,0.16-0.15c0.11,0.08,0.26,0.11,0.97,0c0.7-0.11,1.23-0.15,1.89,0.04c0.67,0.19,0.75,0.09,0.93,0.01
						c0.18-0.08,0.32-0.04,0.18,0.19c-0.14,0.23,0.06,0.9,0.09,1.44c0.11,2.1,0.01,3.02-0.08,4.49c-0.02,0.31-0.13,0.58-0.1,0.73
						c0.03,0.15-0.03,0.34-0.14,0.23c-0.1-0.11-1.26,0.15-2.1,0.08c-0.84-0.08-1.32-0.03-1.42,0.01C7.15,30,6.84,29.88,6.98,29.73
						c0.14-0.15-0.07-0.77-0.11-1.07c-0.03-0.31-0.14-0.96-0.1-2.6c0.03-1.64,0.02-2.36,0.13-2.63C6.99,23.16,6.89,22.98,6.89,22.9z
						"/>
					<path fill="none" stroke="#1D2132" stroke-width="0.1" stroke-linecap="square" stroke-miterlimit="22.9256" d="M10.55,23.19
						c0,0,0.47,1.25,0.47,3.12c0,1.87-0.65,3.23-0.65,3.23"/>
				</g>
				<g>
					<path fill="#FFFFFF" stroke="#1D2132" stroke-width="0.1" stroke-linecap="square" stroke-miterlimit="22.9256" d="M4.11,11.21
						c0-0.42,0.07-0.32,0.2-0.21c0.13,0.11,0.33,0.16,1.19,0c0.87-0.16,1.52-0.21,2.34,0.05c0.82,0.26,0.93,0.12,1.15,0.02
						c0.22-0.11,0.39-0.05,0.22,0.26c-0.17,0.32,0.08,1.23,0.11,1.98c0.13,2.89,0.01,4.16-0.1,6.18c-0.02,0.43-0.16,0.8-0.12,1.01
						c0.04,0.21-0.04,0.47-0.17,0.31c-0.13-0.16-1.56,0.21-2.6,0.11c-1.04-0.11-1.63-0.04-1.76,0.01c-0.13,0.05-0.52-0.11-0.35-0.31
						c0.17-0.21-0.09-1.06-0.14-1.48c-0.04-0.42-0.17-1.33-0.13-3.58c0.04-2.26,0.03-3.25,0.16-3.62
						C4.24,11.57,4.11,11.32,4.11,11.21z"/>
					<path fill="none" stroke="#1D2132" stroke-width="0.1" stroke-linecap="square" stroke-miterlimit="22.9256" d="M8.63,11.61
						c0,0,0.58,1.72,0.58,4.3c0,2.58-0.81,4.44-0.81,4.44"/>
				</g>
				<g>
					<path fill="#FFFFFF" stroke="#1D2132" stroke-width="0.1" stroke-linecap="square" stroke-miterlimit="22.9256" d="M6.89,12.5
						c0-0.31,0.06-0.23,0.16-0.15c0.11,0.08,0.26,0.11,0.97,0c0.7-0.11,1.23-0.15,1.89,0.04c0.67,0.19,0.75,0.09,0.93,0.01
						c0.18-0.08,0.32-0.04,0.18,0.19c-0.14,0.23,0.06,0.9,0.09,1.44c0.11,2.1,0.01,3.02-0.08,4.49c-0.02,0.31-0.13,0.58-0.1,0.73
						c0.03,0.15-0.03,0.34-0.14,0.23c-0.1-0.11-1.26,0.15-2.1,0.08c-0.84-0.08-1.32-0.03-1.42,0.01c-0.11,0.04-0.42-0.08-0.28-0.23
						c0.14-0.15-0.07-0.77-0.11-1.07c-0.03-0.31-0.14-0.96-0.1-2.6c0.03-1.64,0.02-2.36,0.13-2.63C6.99,12.75,6.89,12.57,6.89,12.5z
						"/>
					<path fill="none" stroke="#1D2132" stroke-width="0.1" stroke-linecap="square" stroke-miterlimit="22.9256" d="M10.55,12.78
						c0,0,0.47,1.25,0.47,3.12c0,1.87-0.65,3.23-0.65,3.23"/>
				</g>
				<path fill="#FFFFFF" stroke="#1D2132" stroke-width="0.1" stroke-linecap="square" stroke-miterlimit="22.9256" d="M34.14,31.3
					V10.69c0-0.35-0.28-0.62-0.62-0.62h-8.67c-0.35,0-0.62,0.28-0.62,0.62V31.3c0,0.35,0.28,0.62,0.62,0.62h8.67
					C33.86,31.92,34.14,31.64,34.14,31.3z"/>
			</g>
			<g>
				
					<rect x="-13.87" y="20.71" transform="matrix(-4.489849e-11 1 -1 -4.489849e-11 24.0725 18.1104)" fill="#FFFFFF" stroke="#1D2132" stroke-width="0.1" stroke-linecap="square" stroke-miterlimit="22.9256" width="33.71" height="0.76"/>
				<path fill="#FFFFFF" stroke="#1D2132" stroke-width="0.1" stroke-linecap="square" stroke-miterlimit="22.9256" d="M3.94,37
					V5.04c0-0.32-0.26-0.58-0.58-0.58h0v33.12h0C3.68,37.58,3.94,37.32,3.94,37z"/>
				<g>
					<g>
						<g>
							<path fill="#FFFFFF" stroke="#1D2132" stroke-width="0.1" stroke-linecap="square" stroke-miterlimit="22.9256" d="
								M3.36,32.85V31.7H3.5c0.32,0,0.58,0.26,0.58,0.58v0c0,0.32-0.26,0.58-0.58,0.58H3.36z"/>
							<path fill="#FFFFFF" stroke="#1D2132" stroke-width="0.1" stroke-linecap="square" stroke-miterlimit="22.9256" d="
								M7.63,28.64l0.21,0.87c0.49,0.05,0.97,0.02,1.46-0.07l0,0c0.13-0.03,0.15-0.37,0.06-0.75c-0.09-0.38-0.27-0.67-0.39-0.64l0,0
								C8.5,28.16,8.06,28.36,7.63,28.64z"/>
							
								<ellipse transform="matrix(0.9728 -0.2315 0.2315 0.9728 -6.5206 2.5809)" fill="#FFFFFF" stroke="#1D2132" stroke-width="0.1" stroke-linecap="square" stroke-miterlimit="22.9256" cx="7.74" cy="29.07" rx="0.15" ry="0.44"/>
							<path fill="#FFFFFF" stroke="#1D2132" stroke-width="0.1" stroke-linecap="square" stroke-miterlimit="22.9256" d="
								M7.69,29.19L7.6,29.22c0,0-0.49,0.2-0.84,0.91c-0.07,0.14-0.13,0.28-0.19,0.44c-0.19,0.46-0.41,0.97-0.85,1.32
								c-0.58,0.46-1.5,0.46-1.54,0.46l-0.1,0l0-0.19l0.1,0c0.01,0,0.89,0,1.42-0.41c0.4-0.32,0.6-0.79,0.79-1.24
								c0.07-0.16,0.13-0.31,0.2-0.45c0.39-0.78,0.92-0.99,0.95-1l0.09-0.03C7.66,29.01,7.7,29.12,7.69,29.19z"/>
						</g>
					</g>
					<g>
						<g>
							<path fill="#FFFFFF" stroke="#1D2132" stroke-width="0.1" stroke-linecap="square" stroke-miterlimit="22.9256" d="
								M3.36,9.21v1.15H3.5c0.32,0,0.58-0.26,0.58-0.58v0c0-0.32-0.26-0.58-0.58-0.58H3.36z"/>
							<path fill="#FFFFFF" stroke="#1D2132" stroke-width="0.1" stroke-linecap="square" stroke-miterlimit="22.9256" d="
								M7.63,13.42l0.21-0.87c0.49-0.05,0.97-0.02,1.46,0.07l0,0c0.13,0.03,0.15,0.37,0.06,0.75c-0.09,0.38-0.27,0.67-0.39,0.64l0,0
								C8.5,13.89,8.06,13.69,7.63,13.42z"/>
							
								<ellipse transform="matrix(0.2315 -0.9728 0.9728 0.2315 -6.6842 17.5038)" fill="#FFFFFF" stroke="#1D2132" stroke-width="0.1" stroke-linecap="square" stroke-miterlimit="22.9256" cx="7.74" cy="12.98" rx="0.44" ry="0.15"/>
							<path fill="#FFFFFF" stroke="#1D2132" stroke-width="0.1" stroke-linecap="square" stroke-miterlimit="22.9256" d="
								M7.69,12.87L7.6,12.83c0,0-0.49-0.2-0.84-0.91c-0.07-0.14-0.13-0.28-0.19-0.44c-0.19-0.46-0.41-0.97-0.85-1.32
								c-0.58-0.46-1.5-0.46-1.54-0.46l-0.1,0l0,0.19l0.1,0c0.01,0,0.89,0,1.42,0.41c0.4,0.32,0.6,0.79,0.79,1.24
								c0.07,0.16,0.13,0.31,0.2,0.45c0.39,0.78,0.92,0.99,0.95,1l0.09,0.03C7.66,13.05,7.7,12.93,7.69,12.87z"/>
						</g>
					</g>
				</g>
			</g>
		</g>
	</g>
	<g>
		<path fill="#FFFFFF" stroke="#1D2132" stroke-width="0.1" stroke-linecap="square" stroke-miterlimit="10" d="M86.16,12.44
			c-0.86,0.14-1.8,0.13-2.8,0c-0.8,0-1.45-0.65-1.45-1.45c-0.3-1.72-0.47-3.54,0-5.89c0-0.8,0.65-1.45,1.45-1.45
			c0.93-0.23,1.86-0.23,2.8,0c0.8,0,1.45,0.65,1.45,1.45c0.28,1.91,0.22,3.89,0,5.89C87.61,11.79,86.96,12.44,86.16,12.44z"/>
		<g>
			<path fill="#FFFFFF" stroke="#1D2132" stroke-width="0.1" stroke-linecap="square" stroke-miterlimit="10" d="M82.22,4.8
				c0-0.44,0.39-0.81,0.87-0.81"/>
			<path fill="#FFFFFF" stroke="#1D2132" stroke-width="0.1" stroke-linecap="square" stroke-miterlimit="10" d="M83.1,12.09
				c-0.48,0-0.87-0.36-0.87-0.81"/>
			<path fill="#FFFFFF" stroke="#1D2132" stroke-width="0.1" stroke-linecap="square" stroke-miterlimit="10" d="M87.31,11.29
				c0,0.44-0.39,0.81-0.87,0.81"/>
			<path fill="#FFFFFF" stroke="#1D2132" stroke-width="0.1" stroke-linecap="square" stroke-miterlimit="10" d="M86.44,3.99
				c0.48,0,0.87,0.36,0.87,0.81"/>
		</g>
	</g>
	<g>
		<path fill="#FFFFFF" stroke="#1D2132" stroke-width="0.1" stroke-linecap="square" stroke-miterlimit="10" d="M5.12,41.75
			c-0.75,0.7-1.6,2.8-0.51,3.93c0.54,0.55,0.47,1.13,1.67,2.85c0.52,0.75,1.31,2.13,3.14,2.58s4.12-0.27,5.78-4.06
			s-0.38-6.88-2.66-7.17s-3.29,0.63-4.38,0.82S6.49,40.47,5.12,41.75z"/>
		<path fill="none" stroke="#1D2132" stroke-width="0.1" stroke-linecap="square" stroke-miterlimit="10" d="M9.43,51.11
			c0,0-1.43-0.7-1.87-1.43c-0.88-1.47-0.98-1.06-1.91-2.98c-0.28-0.58,0.08-0.87-0.01-0.96c-0.09-0.09-0.61-0.8-0.29-1.73
			c0.32-0.93,0.56-1.61,1.4-2.24c0.51-0.38,1.09-0.45,1.28-0.35c0.32,0.17,0.26-0.18,1.26-0.66c1.42-0.68,1.88-0.62,2.84-0.55
			s1.21-0.04,1.89,0.41c0.69,0.46,1.09,1.04,1.09,1.04"/>
		<path fill="none" stroke="#1D2132" stroke-width="0.1" stroke-linecap="square" stroke-miterlimit="10" d="M8.85,48.62
			c0,0,0.61-0.66,0.38-1.12s-0.31-0.79-0.37-0.94c-0.05-0.15-0.05-0.15-0.05-0.15s-0.8-0.38-1.38-0.51s-0.73-0.09-0.73-0.09"/>
		<path fill="none" stroke="#1D2132" stroke-width="0.1" stroke-linecap="square" stroke-miterlimit="10" d="M8.81,46.41
			c0,0,0.32-0.54,0.75-1.31c0.42-0.77,0.65-1.79,0.65-1.79s-0.54-0.39-1.03-0.77c-0.49-0.38-0.66-0.66-0.66-0.66"/>
		<path fill="none" stroke="#1D2132" stroke-width="0.1" stroke-linecap="square" stroke-miterlimit="10" d="M12.16,41.42
			c0,0,0.23,0.72,0.14,1.18c-0.09,0.46-0.31,0.56-0.96,0.67s-1.13,0.04-1.13,0.04"/>
		<path fill="none" stroke="#1D2132" stroke-width="0.1" stroke-linecap="square" stroke-miterlimit="10" d="M10.98,48.34
			c0,0,1.02-0.68,1.34-1.24c0.32-0.56,0.32-0.56,0.32-0.56s0.13-0.03,0.42,0.09c0.29,0.12,0.44,0.27,0.44,0.27"/>
		<path fill="none" stroke="#1D2132" stroke-width="0.1" stroke-linecap="square" stroke-miterlimit="10" d="M12.64,46.54
			c0,0,0.09-0.65,0.32-1.12c0.24-0.47,0.32-1.06,0.25-1.3c-0.07-0.23-0.07-0.23-0.07-0.23s0.18-0.24,0.45-0.27"/>
		<path fill="none" stroke="#1D2132" stroke-width="0.1" stroke-linecap="square" stroke-miterlimit="10" d="M10.98,48.34
			c0,0,0.09,0.41,0.26,0.55c0.18,0.13,0.37,0.21,0.37,0.21"/>
		<path fill="#FFFFFF" stroke="#1D2132" stroke-width="0.1" stroke-linecap="square" stroke-miterlimit="10" d="M5.52,44.44
			c0,0,0.05-0.13-0.03-0.13c-0.14,0-0.37-0.14-0.36-0.27c0.02-0.22,0.21-0.43,0.32-0.76s0.03-0.66,0.26-0.78
			c0.14-0.07,0.38,0.21,0.45,0.21c0.05,0,0.09-0.15,0.09-0.15l-0.52-0.26c0,0-0.35-0.01-0.49,0.35c-0.14,0.35-0.26,0.55-0.37,0.89
			s-0.23,0.58,0.06,0.77C5.23,44.5,5.52,44.44,5.52,44.44z"/>
	</g>
	<g>
		<g>
			
				<rect x="21.45" y="66.49" transform="matrix(-1 -3.268401e-07 3.268401e-07 -1 54.7558 133.8738)" fill="#FFFFFF" stroke="#1D2132" stroke-width="0.1" stroke-linecap="square" stroke-miterlimit="10" width="11.85" height="0.89"/>
			
				<line fill="none" stroke="#1D2132" stroke-width="0.1" stroke-linecap="square" stroke-miterlimit="10" x1="32.37" y1="67.2" x2="32.37" y2="66.67"/>
			
				<line fill="none" stroke="#1D2132" stroke-width="0.1" stroke-linecap="square" stroke-miterlimit="10" x1="32.05" y1="67.2" x2="32.05" y2="66.67"/>
			
				<line fill="none" stroke="#1D2132" stroke-width="0.1" stroke-linecap="square" stroke-miterlimit="10" x1="33.01" y1="67.2" x2="33.01" y2="66.67"/>
			
				<line fill="none" stroke="#1D2132" stroke-width="0.1" stroke-linecap="square" stroke-miterlimit="10" x1="32.69" y1="67.2" x2="32.69" y2="66.67"/>
			
				<line fill="none" stroke="#1D2132" stroke-width="0.1" stroke-linecap="square" stroke-miterlimit="10" x1="31.73" y1="67.2" x2="31.73" y2="66.67"/>
			
				<line fill="none" stroke="#1D2132" stroke-width="0.1" stroke-linecap="square" stroke-miterlimit="10" x1="31.41" y1="67.2" x2="31.41" y2="66.67"/>
			
				<line fill="none" stroke="#1D2132" stroke-width="0.1" stroke-linecap="square" stroke-miterlimit="10" x1="31.09" y1="67.2" x2="31.09" y2="66.67"/>
			
				<line fill="none" stroke="#1D2132" stroke-width="0.1" stroke-linecap="square" stroke-miterlimit="10" x1="30.77" y1="67.2" x2="30.77" y2="66.67"/>
			
				<line fill="none" stroke="#1D2132" stroke-width="0.1" stroke-linecap="square" stroke-miterlimit="10" x1="30.45" y1="67.2" x2="30.45" y2="66.67"/>
			
				<line fill="none" stroke="#1D2132" stroke-width="0.1" stroke-linecap="square" stroke-miterlimit="10" x1="30.13" y1="67.2" x2="30.13" y2="66.67"/>
			
				<line fill="none" stroke="#1D2132" stroke-width="0.1" stroke-linecap="square" stroke-miterlimit="10" x1="29.17" y1="67.2" x2="29.17" y2="66.67"/>
			
				<line fill="none" stroke="#1D2132" stroke-width="0.1" stroke-linecap="square" stroke-miterlimit="10" x1="28.85" y1="67.2" x2="28.85" y2="66.67"/>
			
				<line fill="none" stroke="#1D2132" stroke-width="0.1" stroke-linecap="square" stroke-miterlimit="10" x1="29.81" y1="67.2" x2="29.81" y2="66.67"/>
			
				<line fill="none" stroke="#1D2132" stroke-width="0.1" stroke-linecap="square" stroke-miterlimit="10" x1="29.49" y1="67.2" x2="29.49" y2="66.67"/>
			
				<line fill="none" stroke="#1D2132" stroke-width="0.1" stroke-linecap="square" stroke-miterlimit="10" x1="28.53" y1="67.2" x2="28.53" y2="66.67"/>
			
				<line fill="none" stroke="#1D2132" stroke-width="0.1" stroke-linecap="square" stroke-miterlimit="10" x1="28.21" y1="67.2" x2="28.21" y2="66.67"/>
			
				<line fill="none" stroke="#1D2132" stroke-width="0.1" stroke-linecap="square" stroke-miterlimit="10" x1="27.89" y1="67.2" x2="27.89" y2="66.67"/>
			
				<line fill="none" stroke="#1D2132" stroke-width="0.1" stroke-linecap="square" stroke-miterlimit="10" x1="27.57" y1="67.2" x2="27.57" y2="66.67"/>
			
				<line fill="none" stroke="#1D2132" stroke-width="0.1" stroke-linecap="square" stroke-miterlimit="10" x1="27.25" y1="67.2" x2="27.25" y2="66.67"/>
			
				<line fill="none" stroke="#1D2132" stroke-width="0.1" stroke-linecap="square" stroke-miterlimit="10" x1="26.93" y1="67.2" x2="26.93" y2="66.67"/>
			
				<line fill="none" stroke="#1D2132" stroke-width="0.1" stroke-linecap="square" stroke-miterlimit="10" x1="25.97" y1="67.2" x2="25.97" y2="66.67"/>
			
				<line fill="none" stroke="#1D2132" stroke-width="0.1" stroke-linecap="square" stroke-miterlimit="10" x1="25.65" y1="67.2" x2="25.65" y2="66.67"/>
			
				<line fill="none" stroke="#1D2132" stroke-width="0.1" stroke-linecap="square" stroke-miterlimit="10" x1="26.61" y1="67.2" x2="26.61" y2="66.67"/>
			
				<line fill="none" stroke="#1D2132" stroke-width="0.1" stroke-linecap="square" stroke-miterlimit="10" x1="26.29" y1="67.2" x2="26.29" y2="66.67"/>
			
				<line fill="none" stroke="#1D2132" stroke-width="0.1" stroke-linecap="square" stroke-miterlimit="10" x1="25.33" y1="67.2" x2="25.33" y2="66.67"/>
			
				<line fill="none" stroke="#1D2132" stroke-width="0.1" stroke-linecap="square" stroke-miterlimit="10" x1="25.01" y1="67.2" x2="25.01" y2="66.67"/>
			
				<line fill="none" stroke="#1D2132" stroke-width="0.1" stroke-linecap="square" stroke-miterlimit="10" x1="24.69" y1="67.2" x2="24.69" y2="66.67"/>
			
				<line fill="none" stroke="#1D2132" stroke-width="0.1" stroke-linecap="square" stroke-miterlimit="10" x1="24.37" y1="67.2" x2="24.37" y2="66.67"/>
			
				<line fill="none" stroke="#1D2132" stroke-width="0.1" stroke-linecap="square" stroke-miterlimit="10" x1="24.05" y1="67.2" x2="24.05" y2="66.67"/>
			
				<line fill="none" stroke="#1D2132" stroke-width="0.1" stroke-linecap="square" stroke-miterlimit="10" x1="23.73" y1="67.2" x2="23.73" y2="66.67"/>
			
				<line fill="none" stroke="#1D2132" stroke-width="0.1" stroke-linecap="square" stroke-miterlimit="10" x1="22.77" y1="67.2" x2="22.77" y2="66.67"/>
			
				<line fill="none" stroke="#1D2132" stroke-width="0.1" stroke-linecap="square" stroke-miterlimit="10" x1="22.45" y1="67.2" x2="22.45" y2="66.67"/>
			
				<line fill="none" stroke="#1D2132" stroke-width="0.1" stroke-linecap="square" stroke-miterlimit="10" x1="23.41" y1="67.2" x2="23.41" y2="66.67"/>
			
				<line fill="none" stroke="#1D2132" stroke-width="0.1" stroke-linecap="square" stroke-miterlimit="10" x1="23.09" y1="67.2" x2="23.09" y2="66.67"/>
			
				<line fill="none" stroke="#1D2132" stroke-width="0.1" stroke-linecap="square" stroke-miterlimit="10" x1="22.13" y1="67.2" x2="22.13" y2="66.67"/>
			
				<line fill="none" stroke="#1D2132" stroke-width="0.1" stroke-linecap="square" stroke-miterlimit="10" x1="21.81" y1="67.2" x2="21.81" y2="66.67"/>
		</g>
		<path fill="none" stroke="#1D2132" stroke-width="0.1" stroke-linecap="square" stroke-miterlimit="10" d="M41.65,66.32
			c-0.88,0,0-0.83-0.88-0.83c-0.88,0,0,0.83-0.88,0.83c-0.88,0,0-0.83-0.88-0.83s0,0.83-0.88,0.83s0-0.83-0.88-0.83
			c-0.88,0,0,0.83-0.88,0.83c-0.88,0,0-0.83-0.88-0.83s0,0.83-0.88,0.83s0-0.83-0.88-0.83c-0.88,0,0,0.83-0.88,0.83
			c-0.88,0,0-0.83-0.88-0.83c-0.88,0,0,0.83-0.88,0.83c-0.88,0,0-0.83-0.88-0.83c-0.88,0,0,0.83-0.88,0.83c-0.88,0,0-0.83-0.88-0.83
			c-0.88,0,0,0.83-0.88,0.83c-0.88,0,0-0.83-0.88-0.83c-0.88,0,0,0.83-0.88,0.83c-0.88,0,0-0.83-0.88-0.83c-0.88,0,0,0.83-0.88,0.83
			c-0.88,0,0-0.83-0.88-0.83c-0.88,0,0,0.83-0.88,0.83c-0.88,0,0-0.83-0.88-0.83c-0.88,0,0,0.83-0.88,0.83c-0.88,0,0-0.83-0.88-0.83
			c-0.88,0,0,0.83-0.88,0.83c-0.88,0,0-0.83-0.88-0.83c-0.88,0,0,0.83-0.88,0.83c-0.88,0,0-0.83-0.88-0.83c-0.88,0,0,0.83-0.88,0.83
			s0-0.83-0.88-0.83s0,0.83-0.88,0.83c-0.88,0,0-0.83-0.88-0.83"/>
	</g>
	<g>
		
			<circle fill="#FFFFFF" stroke="#1D2132" stroke-width="0.1" stroke-linecap="square" stroke-miterlimit="22.9256" cx="6.21" cy="52.13" r="2.06"/>
		
			<circle fill="#FFFFFF" stroke="#1D2132" stroke-width="0.1" stroke-linecap="square" stroke-miterlimit="22.9256" cx="6.21" cy="52.13" r="0.44"/>
		<path fill="#FFFFFF" stroke="#1D2132" stroke-width="0.1" stroke-linecap="square" stroke-miterlimit="22.9256" d="M13.53,51.21
			c0.47-0.16,0.63-0.95,0.35-1.75s-0.89-1.32-1.36-1.16l0,0c-0.96,0.32-1.52,0.76-2.33,1.53l0.56,1.62
			C11.88,51.6,12.59,51.59,13.53,51.21z"/>
		<path fill="#FFFFFF" stroke="#1D2132" stroke-width="0.1" stroke-linecap="square" stroke-miterlimit="22.9256" d="M10.95,50.48
			c-0.16-0.45-0.5-0.74-0.76-0.65l-0.58,0.2l0.56,1.62l0.58-0.2C11.02,51.37,11.1,50.93,10.95,50.48z"/>
		
			<ellipse transform="matrix(0.9447 -0.328 0.328 0.9447 -16.1328 6.0572)" fill="#FFFFFF" stroke="#1D2132" stroke-width="0.1" stroke-linecap="square" stroke-miterlimit="22.9256" cx="9.89" cy="50.85" rx="0.5" ry="0.86"/>
		<path fill="#FFFFFF" stroke="#1D2132" stroke-width="0.1" stroke-linecap="square" stroke-miterlimit="22.9256" d="M6.07,52.18
			L6.07,52.18c-0.03-0.08,0.01-0.17,0.1-0.2l2.2-0.77c0.08-0.03,0.17,0.01,0.2,0.1l0,0c0.03,0.08-0.01,0.17-0.1,0.2l-2.2,0.77
			C6.19,52.3,6.1,52.26,6.07,52.18z"/>
		<path fill="#FFFFFF" stroke="#1D2132" stroke-width="0.1" stroke-linecap="square" stroke-miterlimit="22.9256" d="M7.32,51.74
			L7.32,51.74c-0.03-0.08,0.01-0.17,0.1-0.2l2.2-0.77c0.08-0.03,0.17,0.01,0.2,0.1l0,0c0.03,0.08-0.01,0.17-0.1,0.2l-2.2,0.77
			C7.44,51.87,7.35,51.82,7.32,51.74z"/>
	</g>
	<g>
		
			<rect x="65.15" y="26.99" transform="matrix(-4.538877e-11 1 -1 -4.538877e-11 97.3505 -33.7495)" fill="#FFFFFF" stroke="#1D2132" stroke-width="0.1" stroke-linecap="square" stroke-miterlimit="10" width="0.8" height="9.62"/>
		
			<rect x="65.31" y="27.36" transform="matrix(-4.193109e-11 1 -1 -4.193109e-11 97.1883 -33.9117)" fill="#FFFFFF" stroke="#1D2132" stroke-width="0.1" stroke-linecap="square" stroke-miterlimit="10" width="0.48" height="8.55"/>
	</g>
	<g>
		
			<rect x="59.27" y="5.65" transform="matrix(-1 3.267516e-07 -3.267516e-07 -1 119.3391 17.7093)" fill="#FFFFFF" stroke="#1D2132" stroke-width="0.1" stroke-linecap="square" stroke-miterlimit="10" width="0.8" height="6.41"/>
		<g>
			
				<rect x="60.07" y="6.1" fill="#FFFFFF" stroke="#1D2132" stroke-width="0.1" stroke-linecap="square" stroke-miterlimit="10" width="1.22" height="0.36"/>
			
				<rect x="60.07" y="6.1" fill="#FFFFFF" stroke="#1D2132" stroke-width="0.1" stroke-linecap="square" stroke-miterlimit="10" width="0.23" height="0.36"/>
		</g>
		<g>
			
				<rect x="60.07" y="7.82" fill="#FFFFFF" stroke="#1D2132" stroke-width="0.1" stroke-linecap="square" stroke-miterlimit="10" width="1.22" height="0.36"/>
			
				<rect x="60.07" y="7.82" fill="#FFFFFF" stroke="#1D2132" stroke-width="0.1" stroke-linecap="square" stroke-miterlimit="10" width="0.23" height="0.36"/>
		</g>
		<g>
			
				<rect x="60.07" y="9.53" fill="#FFFFFF" stroke="#1D2132" stroke-width="0.1" stroke-linecap="square" stroke-miterlimit="10" width="1.22" height="0.36"/>
			
				<rect x="60.07" y="9.53" fill="#FFFFFF" stroke="#1D2132" stroke-width="0.1" stroke-linecap="square" stroke-miterlimit="10" width="0.23" height="0.36"/>
		</g>
		<g>
			
				<rect x="60.07" y="11.25" fill="#FFFFFF" stroke="#1D2132" stroke-width="0.1" stroke-linecap="square" stroke-miterlimit="10" width="1.22" height="0.36"/>
			
				<rect x="60.07" y="11.25" fill="#FFFFFF" stroke="#1D2132" stroke-width="0.1" stroke-linecap="square" stroke-miterlimit="10" width="0.23" height="0.36"/>
		</g>
	</g>
	<g>
		<g>
			<polygon fill="#FFFFFF" stroke="#1D2132" stroke-width="0.1" stroke-linecap="square" stroke-miterlimit="10" points="
				48.39,14.09 48.82,14.52 48.4,14.95 45.88,12.42 46.3,12 46.74,12.44 46.46,12.71 48.11,14.36 			"/>
			
				<circle fill="#FFFFFF" stroke="#1D2132" stroke-width="0.1" stroke-linecap="square" stroke-miterlimit="10" cx="50.9" cy="9.92" r="5.02"/>
		</g>
		<g>
			<path fill="#FFFFFF" stroke="#1D2132" stroke-width="0.1" stroke-linecap="square" stroke-miterlimit="10" d="M52.12,11.23
				l-0.44,0.39c-0.38,0.33-0.96,0.29-1.29-0.09l-1.72-1.97c-0.33-0.38-0.29-0.96,0.09-1.29l0.44-0.39c0.38-0.33,0.96-0.29,1.29,0.09
				l1.72,1.97C52.54,10.32,52.5,10.9,52.12,11.23z"/>
			<path fill="#FFFFFF" stroke="#1D2132" stroke-width="0.1" stroke-linecap="square" stroke-miterlimit="10" d="M51.16,10.97
				L51.16,10.97c-0.21,0.18-0.52,0.16-0.7-0.05l-1.19-1.36c-0.18-0.21-0.16-0.52,0.05-0.7v0c0.21-0.18,0.52-0.16,0.7,0.05l1.19,1.36
				C51.38,10.48,51.36,10.79,51.16,10.97z"/>
			
				<rect x="49.84" y="2.35" transform="matrix(0.7531 -0.6579 0.6579 0.7531 5.6275 35.3707)" fill="#FFFFFF" stroke="#1D2132" stroke-width="0.1" stroke-linecap="square" stroke-miterlimit="10" width="0.2" height="15.67"/>
			<polygon fill="#FFFFFF" stroke="#1D2132" stroke-width="0.1" stroke-linecap="square" stroke-miterlimit="10" points="
				53.98,14.05 55.17,16.02 44.86,4.22 46.65,5.66 			"/>
		</g>
	</g>
</g>
<g id="Doors">
	<g>
		<g>
			<g>
				<polygon fill="none" stroke="#1D2132" stroke-width="0.1" stroke-miterlimit="10" points="61.52,1.02 61.52,2.43 60.82,2.43 
					60.82,1.02 				"/>
				<polygon fill="none" stroke="#1D2132" stroke-width="0.1" stroke-miterlimit="10" points="78.81,1.02 78.81,2.43 79.51,2.43 
					79.51,1.02 				"/>
				<polyline fill="none" stroke="#1D2132" stroke-width="0.1" stroke-miterlimit="10" points="73.74,14.57 73.95,14.33 74.17,14.1 
					74.38,13.86 74.59,13.62 74.78,13.38 74.98,13.13 75.18,12.89 75.36,12.64 75.54,12.37 75.73,12.12 75.9,11.85 76.07,11.58 
					76.23,11.31 76.39,11.05 76.54,10.77 76.7,10.5 76.84,10.22 76.98,9.94 77.12,9.65 77.25,9.36 77.37,9.08 77.5,8.78 77.61,8.49 
					77.73,8.19 77.83,7.89 77.92,7.6 78.02,7.3 78.11,6.99 78.19,6.7 78.28,6.39 78.35,6.08 78.42,5.77 78.47,5.46 78.54,5.15 
					78.59,4.84 78.64,4.53 78.67,4.22 78.71,3.91 78.74,3.59 78.77,3.28 78.78,2.97 78.8,2.64 78.81,2.33 				"/>
				<polygon fill="none" stroke="#1D2132" stroke-width="0.1" stroke-miterlimit="10" points="61.65,2.4 73.74,14.57 74.17,14.1 
					62.14,1.91 				"/>
			</g>
		</g>
	</g>
	<g>
		<g>
			<g>
				<polygon fill="none" stroke="#1D2132" stroke-width="0.1" stroke-miterlimit="10" points="74.26,32.27 74.26,33.57 73.74,33.57 
					73.74,32.27 				"/>
				<polygon fill="none" stroke="#1D2132" stroke-width="0.1" stroke-miterlimit="10" points="86.97,32.27 86.97,33.57 87.49,33.57 
					87.49,32.27 				"/>
				<polyline fill="none" stroke="#1D2132" stroke-width="0.1" stroke-miterlimit="10" points="83.24,42.47 83.4,42.29 83.56,42.13 
					83.71,41.95 83.87,41.78 84.01,41.6 84.16,41.41 84.3,41.24 84.44,41.05 84.57,40.86 84.7,40.67 84.83,40.47 84.95,40.28 
					85.08,40.08 85.19,39.88 85.3,39.68 85.42,39.48 85.52,39.27 85.63,39.07 85.73,38.86 85.82,38.64 85.92,38.43 86.01,38.22 
					86.09,38 86.17,37.78 86.25,37.56 86.32,37.35 86.39,37.13 86.45,36.9 86.52,36.68 86.58,36.46 86.63,36.23 86.68,36 
					86.72,35.77 86.77,35.55 86.81,35.32 86.85,35.09 86.87,34.86 86.9,34.64 86.92,34.4 86.94,34.17 86.95,33.94 86.96,33.7 
					86.97,33.48 				"/>
				<polygon fill="none" stroke="#1D2132" stroke-width="0.1" stroke-miterlimit="10" points="74.35,33.53 83.24,42.47 83.56,42.13 
					74.72,33.17 				"/>
			</g>
		</g>
	</g>
</g>
<g id="Windows">
	<polyline fill="none" stroke="#1D2132" stroke-width="0.1" stroke-miterlimit="10" points="40.81,68.86 40.81,70 13.18,70 
		13.18,68.86 40.81,68.86 	"/>
	<polyline fill="none" stroke="#1D2132" stroke-width="0.1" stroke-miterlimit="10" points="11.54,67.4 11.54,70 42.44,70 
		42.44,67.4 11.54,67.4 	"/>
	<polyline fill="none" stroke="#1D2132" stroke-width="0.1" stroke-miterlimit="10" points="11.26,68.86 10.77,68.86 10.77,70 
		11.26,70 11.26,68.86 11.26,70 13.18,70 13.18,68.86 11.26,68.86 	"/>
	<polyline fill="none" stroke="#1D2132" stroke-width="0.1" stroke-miterlimit="10" points="40.81,68.86 40.81,70 43.5,70 
		43.5,68.86 40.81,68.86 	"/>
	<polyline fill="none" stroke="#1D2132" stroke-width="0.1" stroke-miterlimit="10" points="41.63,70 41.63,72.6 12.37,72.6 
		12.37,70 41.63,70 	"/>
</g>
<g id="Walls">
	<polyline fill="#1D2132" stroke="#1D2132" stroke-width="0.1" stroke-miterlimit="10" points="0,70 12.37,70 12.37,72.43 0,72.43 
		0,67.4 11.54,67.4 11.54,70 	"/>
	<polyline fill="#1D2132" stroke="#1D2132" stroke-width="0.1" stroke-miterlimit="10" points="41.63,70 41.63,72.43 100,72.43 
		100,67.4 42.44,67.4 42.44,70 100,70 	"/>
	<polyline fill="#1D2132" stroke="#1D2132" stroke-width="0.1" stroke-miterlimit="10" points="0,67.4 0,0.4 60.82,0.4 60.82,3 
		2.6,3 2.6,67.4 0,67.4 	"/>
	<polyline fill="#1D2132" stroke="#1D2132" stroke-width="0.1" stroke-miterlimit="10" points="98.83,67.4 97.4,67.4 97.4,3 
		79.51,3 79.51,0.4 100,0.4 100,67.4 98.83,67.4 	"/>
	<polyline fill="#1D2132" stroke="#1D2132" stroke-width="0.1" stroke-miterlimit="10" points="57.89,67.4 57.89,32.27 73.66,32.27 
		73.66,33.57 59.19,33.57 59.19,67.4 57.89,67.4 	"/>
	<polyline fill="#1D2132" stroke="#1D2132" stroke-width="0.1" stroke-miterlimit="10" points="87.49,32.27 97.4,32.27 97.4,33.57 
		87.49,33.57 87.49,32.27 	"/>
	<polyline fill="#1D2132" stroke="#1D2132" stroke-width="0.0949" stroke-miterlimit="10" points="59.19,14.71 57.89,14.71 57.89,3 
		59.19,3 59.19,14.71 	"/>
	<line fill="none" stroke="#1D2132" stroke-width="0.1" stroke-miterlimit="10" x1="11.54" y1="70" x2="0" y2="70"/>
</g>
<g id="Text">
	
		<text id="TXT---" transform="matrix(1 0 0 1 41.4011 32.4994)" opacity="0.7" fill="#1D2132" enable-background="new    " font-family="'Cannonade-Medium'" font-size="3px">13,46</text>
	
		<text id="TXT--" transform="matrix(1 0 0 1 69.9241 21.8307)" opacity="0.7" fill="#1D2132" enable-background="new    " font-family="'Cannonade-Medium'" font-size="3px">4,31</text>
	
		<text id="TXT--" transform="matrix(1 0 0 1 73.851 50.7454)" opacity="0.7" fill="#1D2132" enable-background="new    " font-family="'Cannonade-Medium'" font-size="3px">4,54</text>
</g>
<g id="Details">
	<path fill="none" stroke="#1D2132" stroke-width="0.1" stroke-linecap="round" stroke-linejoin="round" stroke-miterlimit="10" d="
		M61.92,42.34c0-0.61-0.5-1.11-1.11-1.11s-1.11,0.5-1.11,1.11s0.5,1.11,1.11,1.11C61.43,43.45,61.92,42.96,61.92,42.34"/>
	<path fill="none" stroke="#1D2132" stroke-width="0.1" stroke-linecap="round" stroke-linejoin="round" stroke-miterlimit="10" d="
		M61.71,42.34c0-0.49-0.4-0.9-0.9-0.9c-0.49,0-0.9,0.4-0.9,0.9c0,0.49,0.4,0.9,0.9,0.9C61.31,43.24,61.71,42.84,61.71,42.34"/>
	<path fill="none" stroke="#1D2132" stroke-width="0.1" stroke-linecap="round" stroke-linejoin="round" stroke-miterlimit="10" d="
		M61.66,42.34c0-0.47-0.38-0.84-0.84-0.84c-0.47,0-0.84,0.38-0.84,0.84c0,0.47,0.38,0.84,0.84,0.84
		C61.28,43.19,61.66,42.81,61.66,42.34"/>
	
		<line fill="none" stroke="#1D2132" stroke-width="0.1" stroke-linecap="round" stroke-linejoin="round" stroke-miterlimit="10" x1="60.82" y1="40.83" x2="60.82" y2="41.1"/>
	<polygon fill="#1D2132" points="60.82,41.02 60.77,41.04 60.73,41.06 60.7,41.12 60.7,41.17 60.73,41.22 60.77,41.25 60.82,41.26 
		60.87,41.25 60.91,41.22 60.94,41.17 60.94,41.12 60.91,41.06 60.87,41.04 	"/>
	
		<polygon fill="none" stroke="#1D2132" stroke-width="0.1" stroke-linecap="round" stroke-linejoin="round" stroke-miterlimit="10" points="
		60.82,41.02 60.77,41.04 60.73,41.06 60.7,41.12 60.7,41.17 60.73,41.22 60.77,41.25 60.82,41.26 60.87,41.25 60.91,41.22 
		60.94,41.17 60.94,41.12 60.91,41.06 60.87,41.04 	"/>
	
		<line fill="none" stroke="#1D2132" stroke-width="0.1" stroke-linecap="round" stroke-linejoin="round" stroke-miterlimit="10" x1="60.82" y1="41.2" x2="60.82" y2="41.58"/>
	<polygon fill="#1D2132" points="60.82,41.52 60.77,41.53 60.73,41.56 60.7,41.61 60.7,41.66 60.73,41.71 60.77,41.74 60.82,41.75 
		60.87,41.74 60.91,41.71 60.94,41.66 60.94,41.61 60.91,41.56 60.87,41.53 	"/>
	
		<polygon fill="none" stroke="#1D2132" stroke-width="0.1" stroke-linecap="round" stroke-linejoin="round" stroke-miterlimit="10" points="
		60.82,41.52 60.77,41.53 60.73,41.56 60.7,41.61 60.7,41.66 60.73,41.71 60.77,41.74 60.82,41.75 60.87,41.74 60.91,41.71 
		60.94,41.66 60.94,41.61 60.91,41.56 60.87,41.53 	"/>
	
		<line fill="none" stroke="#1D2132" stroke-width="0.1" stroke-linecap="round" stroke-linejoin="round" stroke-miterlimit="10" x1="60.82" y1="41.69" x2="60.82" y2="42.07"/>
	<polygon fill="#1D2132" points="60.82,42.01 60.77,42.02 60.73,42.05 60.7,42.1 60.7,42.15 60.73,42.21 60.77,42.23 60.82,42.24 
		60.87,42.23 60.91,42.21 60.94,42.15 60.94,42.1 60.91,42.05 60.87,42.02 	"/>
	
		<polygon fill="none" stroke="#1D2132" stroke-width="0.1" stroke-linecap="round" stroke-linejoin="round" stroke-miterlimit="10" points="
		60.82,42.01 60.77,42.02 60.73,42.05 60.7,42.1 60.7,42.15 60.73,42.21 60.77,42.23 60.82,42.24 60.87,42.23 60.91,42.21 
		60.94,42.15 60.94,42.1 60.91,42.05 60.87,42.02 	"/>
	
		<line fill="none" stroke="#1D2132" stroke-width="0.1" stroke-linecap="round" stroke-linejoin="round" stroke-miterlimit="10" x1="60.82" y1="42.18" x2="60.82" y2="42.56"/>
	<polygon fill="#1D2132" points="60.82,42.5 60.77,42.51 60.73,42.54 60.7,42.59 60.7,42.64 60.73,42.7 60.77,42.72 60.82,42.74 
		60.87,42.72 60.91,42.7 60.94,42.64 60.94,42.59 60.91,42.54 60.87,42.51 	"/>
	
		<polygon fill="none" stroke="#1D2132" stroke-width="0.1" stroke-linecap="round" stroke-linejoin="round" stroke-miterlimit="10" points="
		60.82,42.5 60.77,42.51 60.73,42.54 60.7,42.59 60.7,42.64 60.73,42.7 60.77,42.72 60.82,42.74 60.87,42.72 60.91,42.7 
		60.94,42.64 60.94,42.59 60.91,42.54 60.87,42.51 	"/>
	
		<line fill="none" stroke="#1D2132" stroke-width="0.1" stroke-linecap="round" stroke-linejoin="round" stroke-miterlimit="10" x1="60.82" y1="42.66" x2="60.82" y2="43.05"/>
	<polygon fill="#1D2132" points="60.82,42.97 60.77,42.99 60.73,43.01 60.7,43.07 60.7,43.12 60.73,43.17 60.77,43.2 60.82,43.21 
		60.87,43.2 60.91,43.17 60.94,43.12 60.94,43.07 60.91,43.01 60.87,42.99 	"/>
	
		<polygon fill="none" stroke="#1D2132" stroke-width="0.1" stroke-linecap="round" stroke-linejoin="round" stroke-miterlimit="10" points="
		60.82,42.97 60.77,42.99 60.73,43.01 60.7,43.07 60.7,43.12 60.73,43.17 60.77,43.2 60.82,43.21 60.87,43.2 60.91,43.17 
		60.94,43.12 60.94,43.07 60.91,43.01 60.87,42.99 	"/>
	
		<line fill="none" stroke="#1D2132" stroke-width="0.1" stroke-linecap="round" stroke-linejoin="round" stroke-miterlimit="10" x1="60.82" y1="43.15" x2="60.82" y2="43.55"/>
	<polygon fill="#1D2132" points="60.82,43.47 60.77,43.48 60.73,43.51 60.7,43.56 60.7,43.61 60.73,43.66 60.77,43.69 60.82,43.7 
		60.87,43.69 60.91,43.66 60.94,43.61 60.94,43.56 60.91,43.51 60.87,43.48 	"/>
	
		<polygon fill="none" stroke="#1D2132" stroke-width="0.1" stroke-linecap="round" stroke-linejoin="round" stroke-miterlimit="10" points="
		60.82,43.47 60.77,43.48 60.73,43.51 60.7,43.56 60.7,43.61 60.73,43.66 60.77,43.69 60.82,43.7 60.87,43.69 60.91,43.66 
		60.94,43.61 60.94,43.56 60.91,43.51 60.87,43.48 	"/>
	
		<line fill="none" stroke="#1D2132" stroke-width="0.1" stroke-linecap="round" stroke-linejoin="round" stroke-miterlimit="10" x1="60.82" y1="43.64" x2="60.82" y2="43.92"/>
	<polygon fill="#1D2132" points="60.09,42.23 60.04,42.24 60,42.27 59.97,42.32 59.97,42.38 60,42.43 60.04,42.46 60.09,42.47 
		60.14,42.46 60.18,42.43 60.21,42.38 60.21,42.32 60.18,42.27 60.14,42.24 	"/>
	
		<polygon fill="none" stroke="#1D2132" stroke-width="0.1" stroke-linecap="round" stroke-linejoin="round" stroke-miterlimit="10" points="
		60.09,42.23 60.04,42.24 60,42.27 59.97,42.32 59.97,42.38 60,42.43 60.04,42.46 60.09,42.47 60.14,42.46 60.18,42.43 60.21,42.38 
		60.21,42.32 60.18,42.27 60.14,42.24 	"/>
	
		<line fill="none" stroke="#1D2132" stroke-width="0.1" stroke-linecap="round" stroke-linejoin="round" stroke-miterlimit="10" x1="60.13" y1="42.35" x2="60.53" y2="42.35"/>
	<polygon fill="#1D2132" points="60.57,42.23 60.51,42.24 60.48,42.27 60.45,42.32 60.45,42.38 60.48,42.43 60.51,42.46 
		60.57,42.47 60.62,42.46 60.66,42.43 60.69,42.38 60.69,42.32 60.66,42.27 60.62,42.24 	"/>
	
		<polygon fill="none" stroke="#1D2132" stroke-width="0.1" stroke-linecap="round" stroke-linejoin="round" stroke-miterlimit="10" points="
		60.57,42.23 60.51,42.24 60.48,42.27 60.45,42.32 60.45,42.38 60.48,42.43 60.51,42.46 60.57,42.47 60.62,42.46 60.66,42.43 
		60.69,42.38 60.69,42.32 60.66,42.27 60.62,42.24 	"/>
	
		<line fill="none" stroke="#1D2132" stroke-width="0.1" stroke-linecap="round" stroke-linejoin="round" stroke-miterlimit="10" x1="60.62" y1="42.35" x2="61.02" y2="42.35"/>
	<polygon fill="#1D2132" points="61.06,42.23 61.01,42.24 60.97,42.27 60.94,42.32 60.94,42.38 60.97,42.43 61.01,42.46 
		61.06,42.47 61.11,42.46 61.15,42.43 61.18,42.38 61.18,42.32 61.15,42.27 61.11,42.24 	"/>
	
		<polygon fill="none" stroke="#1D2132" stroke-width="0.1" stroke-linecap="round" stroke-linejoin="round" stroke-miterlimit="10" points="
		61.06,42.23 61.01,42.24 60.97,42.27 60.94,42.32 60.94,42.38 60.97,42.43 61.01,42.46 61.06,42.47 61.11,42.46 61.15,42.43 
		61.18,42.38 61.18,42.32 61.15,42.27 61.11,42.24 	"/>
	
		<line fill="none" stroke="#1D2132" stroke-width="0.1" stroke-linecap="round" stroke-linejoin="round" stroke-miterlimit="10" x1="61.11" y1="42.35" x2="61.5" y2="42.35"/>
	<polygon fill="#1D2132" points="61.55,42.23 61.5,42.24 61.46,42.27 61.43,42.32 61.43,42.38 61.46,42.43 61.5,42.46 61.55,42.47 
		61.6,42.46 61.64,42.43 61.67,42.38 61.67,42.32 61.64,42.27 61.6,42.24 	"/>
	
		<polygon fill="none" stroke="#1D2132" stroke-width="0.1" stroke-linecap="round" stroke-linejoin="round" stroke-miterlimit="10" points="
		61.55,42.23 61.5,42.24 61.46,42.27 61.43,42.32 61.43,42.38 61.46,42.43 61.5,42.46 61.55,42.47 61.6,42.46 61.64,42.43 
		61.67,42.38 61.67,42.32 61.64,42.27 61.6,42.24 	"/>
	
		<line fill="none" stroke="#1D2132" stroke-width="0.1" stroke-linecap="round" stroke-linejoin="round" stroke-miterlimit="10" x1="61.6" y1="42.35" x2="61.99" y2="42.35"/>
	<polygon fill="#1D2132" points="62.04,42.23 61.99,42.24 61.95,42.27 61.92,42.32 61.92,42.38 61.95,42.43 61.99,42.46 
		62.04,42.47 62.09,42.46 62.13,42.43 62.16,42.38 62.16,42.32 62.13,42.27 62.09,42.24 	"/>
	
		<polygon fill="none" stroke="#1D2132" stroke-width="0.1" stroke-linecap="round" stroke-linejoin="round" stroke-miterlimit="10" points="
		62.04,42.23 61.99,42.24 61.95,42.27 61.92,42.32 61.92,42.38 61.95,42.43 61.99,42.46 62.04,42.47 62.09,42.46 62.13,42.43 
		62.16,42.38 62.16,42.32 62.13,42.27 62.09,42.24 	"/>
	
		<line fill="none" stroke="#1D2132" stroke-width="0.1" stroke-linecap="round" stroke-linejoin="round" stroke-miterlimit="10" x1="62.08" y1="42.35" x2="62.36" y2="42.35"/>
	
		<polyline fill="none" stroke="#1D2132" stroke-width="0.1" stroke-linecap="round" stroke-linejoin="round" stroke-miterlimit="10" points="
		59.19,40.73 59.19,43.98 62.44,43.98 62.44,40.73 59.19,40.73 	"/>
	<path fill="none" stroke="#1D2132" stroke-width="0.1" stroke-linecap="round" stroke-linejoin="round" stroke-miterlimit="10" d="
		M61.97,42.34c0-0.64-0.52-1.16-1.16-1.16s-1.16,0.52-1.16,1.16s0.52,1.16,1.16,1.16C61.45,43.51,61.97,42.99,61.97,42.34"/>
	
		<line fill="none" stroke="#1D2132" stroke-width="0.1" stroke-linecap="round" stroke-linejoin="round" stroke-miterlimit="10" x1="59.27" y1="42.35" x2="59.55" y2="42.35"/>
	<polygon fill="#1D2132" points="59.6,42.23 59.55,42.24 59.51,42.27 59.48,42.32 59.48,42.38 59.51,42.43 59.55,42.46 59.6,42.47 
		59.65,42.46 59.69,42.43 59.72,42.38 59.72,42.32 59.69,42.27 59.65,42.24 	"/>
	<polygon fill="none" points="59.6,42.23 59.55,42.24 59.51,42.27 59.48,42.32 59.48,42.38 59.51,42.43 59.55,42.46 59.6,42.47 
		59.65,42.46 59.69,42.43 59.72,42.38 59.72,42.32 59.69,42.27 59.65,42.24 	"/>
	
		<line fill="none" stroke="#1D2132" stroke-width="0.1" stroke-linecap="round" stroke-linejoin="round" stroke-miterlimit="10" x1="59.65" y1="42.35" x2="60.04" y2="42.35"/>
	<g>
		
			<rect x="59.12" y="33.67" fill="#FFFFFF" stroke="#1D2132" stroke-width="0.5" stroke-miterlimit="10" width="13.25" height="6.88"/>
		<g>
			
				<rect x="69.8" y="34.45" fill="#FFFFFF" stroke="#1D2132" stroke-width="0.1" stroke-linecap="square" stroke-miterlimit="22.9256" width="1.69" height="5.2"/>
			<polygon fill="#1D2132" points="71.47,34.45 70.44,34.98 69.8,39.63 69.8,34.45 			"/>
		</g>
		<g>
			
				<rect x="59.91" y="34.45" fill="#FFFFFF" stroke="#1D2132" stroke-width="0.1" stroke-linecap="square" stroke-miterlimit="22.9256" width="1.69" height="5.2"/>
			<polygon fill="#1D2132" points="61.46,34.45 60.41,34.98 59.91,39.63 59.91,34.45 			"/>
		</g>
		<g>
			
				<rect x="62.39" y="34.45" fill="#FFFFFF" stroke="#1D2132" stroke-width="0.1" stroke-linecap="square" stroke-miterlimit="22.9256" width="6.64" height="5.2"/>
			<polygon fill="#1D2132" points="68.86,34.45 63.29,34.98 62.39,39.63 62.39,34.45 			"/>
		</g>
	</g>
</g>
</svg>
