<?xml version="1.0" encoding="utf-8"?>
<!-- Generator: Adobe Illustrator 24.1.2, SVG Export Plug-In . SVG Version: 6.00 Build 0)  -->
<svg version="1.1" id="Слой_1" xmlns="http://www.w3.org/2000/svg" xmlns:xlink="http://www.w3.org/1999/xlink" x="0px" y="0px"
	 viewBox="0 0 100.1 72.3" style="enable-background:new 0 0 100.1 72.3;" xml:space="preserve">
<style type="text/css">
	.st0{opacity:0.1;fill:#1D2132;enable-background:new    ;}
	.st1{fill:#FFFFFF;}
	.st2{fill:none;stroke:#1D2132;stroke-width:0.1;stroke-linecap:square;stroke-miterlimit:10;}
	.st3{fill:#FFFFFF;stroke:#1D2132;stroke-width:0.1;stroke-linecap:square;stroke-miterlimit:10;}
	.st4{fill:#FFFFFF;stroke:#1D2132;stroke-width:0.1;stroke-linecap:square;stroke-miterlimit:22.926;}
	.st5{fill:none;stroke:#1D2132;stroke-width:0.1;stroke-linecap:square;stroke-miterlimit:22.926;}
	.st6{fill:#FFFFFF;stroke:#1D2132;stroke-width:0.1;stroke-linecap:square;stroke-miterlimit:22.925;}
	.st7{fill:none;stroke:#1D2132;stroke-width:0.1;stroke-miterlimit:10;}
	.st8{fill:#1D2132;stroke:#1D2132;stroke-width:0.1;stroke-miterlimit:10;}
	.st9{fill:#1D2132;stroke:#1D2132;stroke-width:9.500000e-02;stroke-miterlimit:10;}
	.st10{opacity:0.7;fill:#1D2132;enable-background:new    ;}
	.st11{font-family:'Cannonade-Medium';}
	.st12{font-size:3px;}
	.st13{fill:none;stroke:#1D2132;stroke-width:0.1;stroke-linecap:round;stroke-linejoin:round;}
	.st14{fill:#1D2132;}
	.st15{fill:none;}
	.st16{fill:#FFFFFF;stroke:#1D2132;stroke-width:0.5;stroke-miterlimit:10;}
</style>
<g id="Background">
	<rect x="2.7" y="2.7" class="st0" width="94.8" height="64.4"/>
</g>
<g id="Plumbing">
	<g>
		<polyline class="st1" points="17.8,63.3 17.8,67.1 26.4,67.1 26.4,63.3 26.4,63 26.3,62.7 26.2,62.5 26.2,62.2 26,62 25.9,61.7 
			25.7,61.5 25.5,61.4 25.3,61.2 25,61 24.6,60.8 24.3,60.7 24,60.6 23.7,60.5 23.4,60.4 23,60.3 22.7,60.3 22.4,60.2 22.1,60.2 
			21.8,60.2 21.4,60.3 21.1,60.3 20.8,60.4 20.5,60.5 20.1,60.6 19.8,60.7 19.5,60.8 19.2,61 18.9,61.2 18.6,61.4 18.4,61.5 
			18.3,61.7 18.1,62 18,62.2 17.9,62.5 17.8,62.7 17.8,63 17.8,63.1 17.8,63.3 		"/>
		<line class="st2" x1="17.8" y1="67.1" x2="26.4" y2="67.1"/>
		<line class="st2" x1="26.4" y1="67.1" x2="26.4" y2="63.3"/>
		<line class="st2" x1="17.8" y1="67.1" x2="17.8" y2="63.3"/>
		<line class="st2" x1="23.4" y1="67.1" x2="20.7" y2="67.1"/>
		<line class="st2" x1="22.8" y1="64" x2="22.3" y2="64"/>
		<line class="st2" x1="22.1" y1="64.8" x2="22.1" y2="64.3"/>
		<line class="st2" x1="21.8" y1="64" x2="21.4" y2="64"/>
		<line class="st2" x1="22.1" y1="63.7" x2="22.1" y2="63.2"/>
		<path class="st2" d="M19.8,64.9c-0.7-0.5-1.2-1.1-1.5-1.9"/>
		<path class="st2" d="M22.1,65.5c-0.1,0-0.2,0-0.3,0c-0.7,0-1.4-0.2-2-0.6"/>
		<path class="st2" d="M25.8,63c-0.3,0.8-0.8,1.4-1.5,1.9"/>
		<path class="st2" d="M24.3,64.9c-0.6,0.4-1.3,0.6-2,0.6c-0.1,0-0.2,0-0.3,0"/>
		<path class="st2" d="M19.2,61c0.8-0.4,1.7-0.7,2.6-0.7"/>
		<path class="st2" d="M25.5,61.4c0.5,0.4,0.8,1.1,0.8,1.8v0.1"/>
		<path class="st2" d="M21.8,60.2c0.1,0,0.2,0,0.3,0c0.1,0,0.2,0,0.3,0"/>
		<path class="st2" d="M24.4,64.8c-1.6,0.3-3.2,0.3-4.8,0"/>
		<path class="st2" d="M24.5,66.3c-0.8,0.1-1.6,0.2-2.4,0.2"/>
		<path class="st2" d="M26.1,62.7L26.1,62.7c0,1.3-0.4,2.5-1.2,3.4"/>
		<path class="st2" d="M24.9,66.1c-0.1,0.1-0.3,0.2-0.4,0.3"/>
		<path class="st2" d="M19.2,66.1C18.4,65.1,18,64,18,62.7v-0.1"/>
		<path class="st2" d="M22.1,66.5c-0.8,0-1.6-0.1-2.4-0.2"/>
		<path class="st2" d="M19.7,66.3c-0.2,0-0.3-0.1-0.4-0.3"/>
		<path class="st2" d="M17.8,63.2L17.8,63.2c0-0.8,0.3-1.4,0.8-1.9"/>
		<path class="st2" d="M18.6,61.4c0.2-0.1,0.4-0.3,0.6-0.4"/>
		<path class="st2" d="M25,61c0.2,0.1,0.4,0.2,0.6,0.4"/>
		<path class="st2" d="M22.4,60.2c0.9,0.1,1.8,0.3,2.6,0.7"/>
		<path class="st2" d="M20.9,60.9c0.8-0.2,1.6-0.2,2.4,0"/>
		<path class="st2" d="M18.3,63L18.3,63c0-0.5,0.2-0.9,0.4-1.1"/>
		<path class="st2" d="M18.8,61.9c0.6-0.5,1.3-0.9,2.1-1"/>
		<path class="st2" d="M25.4,61.9c0.3,0.3,0.4,0.6,0.4,1V63"/>
		<path class="st2" d="M23.3,60.9c0.8,0.1,1.5,0.5,2.1,1"/>
		<path class="st2" d="M22.1,64.6c0.3,0,0.6-0.3,0.5-0.6c0-0.3-0.2-0.6-0.5-0.6c-0.3,0-0.6,0.3-0.6,0.6
			C21.5,64.3,21.8,64.6,22.1,64.6"/>
		<path class="st2" d="M22.1,64.3c0.2,0,0.3-0.1,0.3-0.3c0-0.2-0.1-0.3-0.3-0.3c-0.2,0-0.3,0.1-0.3,0.3c0,0,0,0,0,0
			C21.8,64.2,21.9,64.3,22.1,64.3"/>
	</g>
	<g>
		<polygon class="st1" points="34.5,67.1 31.4,67.1 31.4,64.9 31.4,64.9 31.4,64.8 31.4,64.8 31.4,64.8 31.4,64.7 31.4,64.7 
			31.5,64.7 31.5,64.7 31.5,64.7 31.5,64.6 31.5,64.6 31.5,64.6 31.5,64.6 31.6,64.6 31.6,64.5 31.6,64.5 31.6,58.8 31.6,58.6 
			31.6,58.5 31.7,58.3 31.7,58.2 31.7,58.1 31.8,57.9 31.8,57.8 31.9,57.7 32,57.6 32,57.4 32.1,57.3 32.2,57.2 32.3,57.1 32.3,57 
			32.5,56.9 32.5,56.8 32.7,56.7 32.8,56.6 32.8,56.6 33,56.5 33.1,56.4 33.2,56.4 33.3,56.3 33.5,56.3 33.6,56.2 33.7,56.2 
			33.8,56.2 34,56.1 34.1,56.1 34.2,56.1 34.4,56.1 34.5,56.1 34.6,56.1 34.8,56.1 34.9,56.1 35,56.1 35.2,56.2 35.3,56.2 
			35.4,56.2 35.5,56.3 35.7,56.3 35.8,56.4 35.9,56.4 36,56.5 36.1,56.6 36.2,56.6 36.4,56.7 36.5,56.8 36.5,56.9 36.7,57 
			36.7,57.1 36.8,57.2 36.9,57.3 37,57.4 37,57.6 37.1,57.7 37.2,57.8 37.2,57.9 37.3,58.1 37.3,58.2 37.3,58.3 37.4,58.5 
			37.4,58.6 37.4,58.8 37.4,64.5 37.4,64.5 37.4,64.6 37.5,64.6 37.5,64.6 37.5,64.6 37.5,64.6 37.5,64.7 37.5,64.7 37.6,64.7 
			37.6,64.7 37.6,64.7 37.6,64.8 37.6,64.8 37.6,64.8 37.6,64.9 37.6,64.9 37.6,67.1 		"/>
		<line class="st2" x1="31.6" y1="64.5" x2="31.6" y2="58.8"/>
		<line class="st2" x1="31.4" y1="67.1" x2="37.6" y2="67.1"/>
		<line class="st2" x1="31.4" y1="67.1" x2="31.4" y2="64.9"/>
		<line class="st2" x1="34.5" y1="63.5" x2="36.8" y2="63.5"/>
		<line class="st2" x1="31.6" y1="58.8" x2="32.2" y2="63.5"/>
		<line class="st2" x1="34.5" y1="63.5" x2="32.2" y2="63.5"/>
		<line class="st2" x1="37.4" y1="58.8" x2="36.8" y2="63.5"/>
		<line class="st2" x1="37.4" y1="64.5" x2="37.4" y2="58.8"/>
		<line class="st2" x1="37.6" y1="67.1" x2="37.6" y2="64.9"/>
		<path class="st2" d="M37.3,64.5c-0.9-0.1-1.9-0.2-2.8-0.2c-0.9,0-1.9,0.1-2.8,0.2"/>
		<path class="st2" d="M31.7,64.5c-0.2,0-0.3,0.2-0.3,0.4"/>
		<path class="st2" d="M37.4,58.8c-0.1-1.6-1.5-2.8-3.1-2.7c-1.4,0.1-2.6,1.2-2.7,2.7"/>
		<path class="st2" d="M37.6,64.9c0-0.2-0.1-0.3-0.3-0.4"/>
		<path class="st2" d="M34.5,66c-0.2,0-0.3-0.1-0.3-0.3c0-0.2,0.1-0.3,0.3-0.3c0.2,0,0.3,0.1,0.3,0.3c0,0,0,0,0,0
			C34.8,65.8,34.7,66,34.5,66C34.5,66,34.5,66,34.5,66"/>
	</g>
	<g>
		<path class="st1" d="M14.8,55v11.9c0,0.1,0,0.1-0.1,0.1c0,0,0,0,0,0H2.8c-0.1,0-0.1,0-0.1-0.1c0,0,0,0,0,0V55c0-0.1,0-0.1,0.1-0.1
			c0,0,0,0,0,0h11.9C14.7,54.9,14.8,54.9,14.8,55z"/>
		<line class="st2" x1="5.7" y1="65.1" x2="5.7" y2="64.3"/>
		<line class="st2" x1="5.4" y1="64" x2="4.6" y2="64"/>
		<line class="st2" x1="5.7" y1="63.6" x2="5.7" y2="62.9"/>
		<line class="st2" x1="6.8" y1="64" x2="6" y2="64"/>
		<line class="st2" x1="14.1" y1="66.3" x2="14.1" y2="63"/>
		<line class="st2" x1="3.3" y1="63.2" x2="3.3" y2="55.8"/>
		<path class="st2" d="M14.1,66.3V55.8c0-0.1-0.1-0.2-0.2-0.2H3.4"/>
		<line class="st2" x1="13.9" y1="66.4" x2="6.5" y2="66.4"/>
		<path class="st2" d="M6.3,66.4c0.1,0,0.1,0,0.2,0"/>
		<path class="st2" d="M13.9,66.4c0.1,0,0.1-0.1,0.1-0.1"/>
		<path class="st2" d="M6.3,66.4c0.1,0,0.1,0,0.2,0"/>
		<path class="st2" d="M3.4,55.6c-0.1,0-0.1,0.1-0.1,0.1"/>
		<path class="st2" d="M3.3,63.3c0.7,1.3,1.8,2.4,3.1,3.1"/>
		<path class="st2" d="M3.3,63.2c0,0.1,0,0.1,0,0.2"/>
		<path class="st2" d="M3.3,63.4c0.5,1.4,1.6,2.5,3,3"/>
		<path class="st2" d="M3.3,63.2c0,0.1,0,0.1,0,0.2"/>
		<path class="st2" d="M5.7,64.6c-0.3,0-0.6-0.3-0.6-0.6c0-0.3,0.2-0.6,0.6-0.6c0,0,0,0,0,0c0.3,0,0.6,0.3,0.6,0.6
			C6.3,64.3,6,64.6,5.7,64.6"/>
		<path class="st2" d="M5.7,64.8c-0.5,0-0.9-0.4-0.9-0.9c0-0.5,0.4-0.9,0.9-0.9c0.5,0,0.9,0.4,0.9,0.9C6.6,64.5,6.2,64.8,5.7,64.8"
			/>
		<path class="st2" d="M14.8,55.3v11.5c0,0.2-0.1,0.3-0.3,0.3H3c-0.2,0-0.3-0.1-0.3-0.3V55.3C2.7,55.1,2.8,55,3,55h11.5
			C14.6,54.9,14.7,55.1,14.8,55.3C14.7,55.2,14.8,55.2,14.8,55.3z"/>
	</g>
	<g>
		<g>
			<path class="st3" d="M4.5,40.4c-0.1,0-0.3,0.1-0.3,0.2c0,0.1,0.1,0.2,0.3,0.2c0.1,0,0.2,0,0.3-0.2c0-0.1,0-0.2-0.2-0.3
				C4.6,40.4,4.6,40.4,4.5,40.4z"/>
			<ellipse class="st3" cx="5.7" cy="40.6" rx="0.3" ry="0.2"/>
			<path class="st3" d="M10.5,40.4c-0.1,0-0.3,0.1-0.3,0.2c0,0.1,0.1,0.2,0.3,0.2c0.1,0,0.2,0,0.3-0.2s0-0.2-0.2-0.3
				C10.6,40.4,10.6,40.4,10.5,40.4z"/>
			<path class="st3" d="M4.3,40.6c-0.6,0-1.1-0.1-1.1-0.3v-0.8c0-0.2,0.5-0.3,1.1-0.3h6.5c0.6,0,1.1,0.1,1.1,0.3v0.8
				c0,0.2-0.5,0.3-1.1,0.3H4.3z"/>
			<rect x="2.7" y="33.7" class="st3" width="9.7" height="6.5"/>
			<path class="st3" d="M4.3,39.9c-0.6,0-1.1-1.1-1.1-2.4v-1.1c0-1.3,0.5-2.4,1.1-2.4h6.5c0.6,0,1.1,1.1,1.1,2.4v1.1
				c0,1.3-0.5,2.4-1.1,2.4H4.3z"/>
		</g>
		<g>
			<path class="st3" d="M10.8,34.7v-0.2c0-0.1-0.1-0.2-0.2-0.2c0,0,0,0,0,0H4.4c-0.1,0-0.2,0.1-0.2,0.2c0,0,0,0,0,0v0.2
				c0,0.1,0.1,0.2,0.2,0.2c0,0,0,0,0,0h6.3C10.8,34.8,10.8,34.8,10.8,34.7z"/>
			<g>
				<rect x="4.5" y="33.3" class="st3" width="0.4" height="1"/>
				<rect x="10.2" y="33.3" class="st3" width="0.4" height="1"/>
			</g>
			<g>
				<rect x="4.3" y="33.1" class="st3" width="0.8" height="0.2"/>
				<rect x="10" y="33.1" class="st3" width="0.8" height="0.2"/>
			</g>
		</g>
	</g>
</g>
<g id="Furniture">
	<g>
		<rect x="42.2" y="45" class="st4" width="9.2" height="19.5"/>
		<rect x="42.2" y="43.5" class="st4" width="9.2" height="7.2"/>
		<rect x="42.2" y="56.7" class="st4" width="9.2" height="7.8"/>
		<rect x="42.2" y="35.5" class="st4" width="9.2" height="7.9"/>
		<g>
			<line class="st5" x1="47.9" y1="39.6" x2="45.6" y2="39.6"/>
			<line class="st5" x1="47.6" y1="40.4" x2="46" y2="38.8"/>
			<line class="st5" x1="46.8" y1="40.8" x2="46.8" y2="38.4"/>
			<line class="st5" x1="46" y1="40.4" x2="47.6" y2="38.8"/>
		</g>
		<g>
			<rect x="42.5" y="44.3" class="st4" width="8.5" height="5.4"/>
			<g>
				<path class="st4" d="M48.7,48.5c0.8,0,1.5-0.7,1.5-1.5c0-0.8-0.7-1.5-1.5-1.5c-0.8,0-1.5,0.7-1.5,1.5
					C47.2,47.8,47.9,48.5,48.7,48.5"/>
				<path class="st4" d="M44.5,48.5c0.8,0,1.5-0.7,1.5-1.5c0-0.8-0.7-1.5-1.5-1.5c-0.8,0-1.5,0.7-1.5,1.5
					C43.1,47.8,43.7,48.5,44.5,48.5"/>
				<path class="st4" d="M48.7,48.2c0.6,0,1.2-0.5,1.2-1.1c0,0,0,0,0,0c0-0.6-0.5-1.2-1.2-1.2s-1.2,0.5-1.2,1.2S48.1,48.2,48.7,48.2
					L48.7,48.2"/>
				<path class="st4" d="M44.5,48.2c0.6,0,1.2-0.5,1.2-1.2s-0.5-1.2-1.2-1.2s-1.2,0.5-1.2,1.2v0C43.4,47.7,43.9,48.2,44.5,48.2"/>
			</g>
		</g>
		<g>
			<path class="st4" d="M44.4,58.2h5.9c0.3,0,0.5,0.2,0.5,0.5c0,0,0,0,0,0v3.6c0,0.3-0.2,0.5-0.5,0.5c0,0,0,0,0,0h-5.9
				c-0.3,0-0.5-0.2-0.5-0.5c0,0,0,0,0,0v-3.6C43.9,58.5,44.1,58.2,44.4,58.2C44.4,58.2,44.4,58.2,44.4,58.2z"/>
			<g>
				<path class="st4" d="M44.8,60.5c0-0.2,0.2-0.4,0.4-0.4c0.2,0,0.4,0.2,0.4,0.4c0,0,0,0,0,0c0,0.2-0.2,0.4-0.4,0.4
					C45,60.9,44.8,60.8,44.8,60.5C44.8,60.5,44.8,60.5,44.8,60.5z"/>
				<g>
					<path class="st4" d="M42.7,60.5c0-0.3,0.2-0.6,0.5-0.6c0.3,0,0.6,0.2,0.6,0.5c0,0,0,0.1,0,0.1c0,0.3-0.3,0.6-0.6,0.6
						C43,61.1,42.7,60.9,42.7,60.5C42.7,60.5,42.7,60.5,42.7,60.5z"/>
					<path class="st4" d="M46.6,60.5c0,0.1-0.1,0.2-0.3,0.2l-3,0c-0.2,0-0.3-0.1-0.3-0.2l0,0c0-0.1,0.1-0.2,0.3-0.2l3,0
						C46.5,60.3,46.6,60.4,46.6,60.5z"/>
					<path class="st4" d="M43.2,60.5c0-0.5,0-0.9,0.2-0.9c0.1,0,0.2,0.4,0.2,0.9s-0.1,0.9-0.2,0.9C43.2,61.4,43.2,61,43.2,60.5z"/>
				</g>
			</g>
		</g>
	</g>
	<g>
		<rect x="2.5" y="2.7" class="st3" width="9.2" height="29.1"/>
		<g>
			<path class="st3" d="M6.2,17.2c0-0.1-0.1-0.1-0.1-0.1H5.6c-0.2,0-0.2,0.1-0.3,0.3c-0.1,0.2-0.3,0.4-0.6,0.4c-0.2,0-0.4,0-0.5-0.2
				c-0.1-0.2-0.1-0.4,0-0.6c0.1-0.2,0.4-0.4,0.6-0.3c0.1,0,0.1,0,0.2-0.1c0-0.1,0-0.1-0.1-0.2c0,0,0,0,0,0c-0.4,0-0.7,0.1-0.9,0.5
				c-0.1,0.3-0.1,0.6,0.1,0.9C4.2,18,4.5,18.1,4.8,18c0.3-0.1,0.6-0.3,0.7-0.5c0,0,0.1-0.1,0.1-0.1h0.4C6.1,17.3,6.2,17.3,6.2,17.2z
				"/>
			<path class="st3" d="M9,21.6v-8.8c0-0.3,0.1-0.7-0.2-0.8c-0.3-0.1-0.7,0.1-0.8,0.4c0,0,0,0,0,0l-1.9,4c0,0,0,0.1,0,0.1v1.4
				c0,0,0,0.1,0,0.1L8,22c0,0,0,0,0,0c0.2,0.3,0.5,0.4,0.8,0.4C9.1,22.3,9,22,9,21.6z M8.5,12.3c0-0.1,0.1-0.1,0.2-0.1
				c0.1,0,0.1,0.1,0.1,0.2V22c0,0.1-0.1,0.2-0.1,0.2c-0.1,0-0.2,0-0.2-0.1l-1.2-4.3v-1.3L8.5,12.3z"/>
		</g>
	</g>
	<g>
		<g>
			<path class="st3" d="M65.8,56.5c-1.4,0-2.8,0.1-4.2,0.4c-0.7,0.3-0.2,1.7-0.2,3.3s-0.5,3.1,0.2,3.3c1.4,0.2,2.8,0.4,4.2,0.4
				c1.5,0.1,1.9-0.2,2.1-1.1c0.2-0.9,0.2-1.7,0.2-2.6c0-0.9,0-1.7-0.2-2.6C67.7,56.7,67.3,56.4,65.8,56.5z"/>
			<path class="st3" d="M66.2,56.8c-1.2,0-2.3,0.1-3.4,0.3c-0.5,0.2-1,1.5-1,3.1s0.5,2.8,1,3.1c1.1,0.2,2.3,0.3,3.4,0.3
				c1.2,0.1,1.6-0.2,1.7-1c0.1-0.8,0.2-1.6,0.1-2.4c0-0.8,0-1.6-0.1-2.4C67.8,57,67.4,56.6,66.2,56.8z"/>
			<g>
				<path class="st3" d="M60.3,62.2c0.1,0.5,0.2,1,0.4,1.4c1.7-0.2,0.5-1.7,0.5-3.5c0-1.9,1.3-3.5-0.5-3.5
					C60.1,58.5,60,60.4,60.3,62.2z"/>
				<path class="st3" d="M60.4,56.5c0,0.1-0.1,0.2-0.1,0.3c-0.5,1.8-0.6,3.7-0.3,5.5c0.1,0.4,0.2,0.9,0.3,1.3c0,0.1,0,0.2,0.1,0.3
					l0.3-0.1l0-0.1c-0.2-0.5-0.3-0.9-0.4-1.4c-0.4-1.9-0.3-3.8,0.3-5.6c0,0,0-0.1,0-0.1L60.4,56.5z"/>
			</g>
		</g>
		<g>
			<path class="st3" d="M83,56.5c1.4,0,2.8,0.1,4.2,0.4c0.7,0.3,0.2,1.7,0.2,3.3s0.5,3.1-0.2,3.3c-1.4,0.2-2.8,0.4-4.2,0.4
				c-1.5,0.1-1.9-0.2-2.1-1.1c-0.2-0.9-0.2-1.7-0.2-2.6c0-0.9,0-1.7,0.2-2.6C81.1,56.7,81.5,56.4,83,56.5z"/>
			<path class="st3" d="M82.6,56.8c1.2,0,2.3,0.1,3.4,0.3c0.5,0.2,1,1.5,1,3.1s-0.5,2.8-1,3.1c-1.1,0.2-2.3,0.3-3.4,0.3
				c-1.2,0.1-1.6-0.2-1.7-1c-0.1-0.8-0.2-1.6-0.1-2.4c0-0.8,0-1.6,0.1-2.4C81,57,81.4,56.6,82.6,56.8z"/>
			<g>
				<path class="st3" d="M88.5,62.2c-0.1,0.5-0.2,1-0.4,1.4c-1.7-0.2-0.5-1.7-0.5-3.5c0-1.9-1.3-3.5,0.5-3.5
					C88.7,58.5,88.8,60.4,88.5,62.2z"/>
				<path class="st3" d="M88.4,56.5c0,0.1,0.1,0.2,0.1,0.3c0.5,1.8,0.6,3.7,0.3,5.5c-0.1,0.4-0.2,0.9-0.3,1.3c0,0.1-0.1,0.2-0.1,0.3
					l-0.3-0.1l0-0.1c0.2-0.5,0.3-0.9,0.4-1.4c0.4-1.9,0.3-3.8-0.3-5.6c0,0,0-0.1,0-0.1L88.4,56.5z"/>
			</g>
		</g>
		<rect x="68.5" y="55.7" class="st3" width="11.8" height="8.9"/>
	</g>
	<g>
		<g>
			<g>
				<rect x="90.1" y="31.7" class="st3" width="5.8" height="5.3"/>
				<polygon class="st3" points="90.1,35.4 90.1,35.9 89.5,35.9 89.5,32.7 90.1,32.7 90.1,33.3 89.7,33.3 89.7,35.4 				"/>
			</g>
			<g>
				<rect x="90.1" y="4.3" class="st3" width="5.8" height="5.3"/>
				<polygon class="st3" points="90.1,8.1 90.1,8.6 89.5,8.6 89.5,5.4 90.1,5.4 90.1,6 89.7,6 89.7,8.1 				"/>
			</g>
		</g>
		<g>
			<g>
				<rect x="65.6" y="10" class="st4" width="30.5" height="21.3"/>
				<path class="st4" d="M94,10.3c-0.5,0-1,0-1.5,0c-1.2,0.1-2,0.1-3.2,0.1s-1.4-0.1-1.6,0c-0.2,0.1-0.5,0.1-0.8,0
					c-1.1-0.1-2.2-0.1-3.3,0c-1.2,0-3.1-0.1-4.2-0.1s-0.7,0.1-0.7,0.3s-0.9-0.1-1.1-0.2c-1-0.1-2.1-0.2-3.1-0.1
					c-2.3,0-4.2,0.1-5.4,0.1c-0.5,0-0.9,0-1.4,0c-0.5,0.1-0.3,0-0.8,0c-0.6,0,0.8,0.3,0,0.1c-0.5-0.1-1-0.2-0.9-0.1s0.6,0.3,0.7,0.4
					s0.5,0.3,0.2,0.2s-1-0.8-1-0.6c-0.1,0.8-0.1,1.6-0.1,2.4c0,1.6,0,12.4,0.2,12.5s0.1,0.1,0,0.2s0,2-0.1,2.4s-0.1,1,0.1,1
					s0.2,0.1,0.1,0.1S66,29.8,66,30.2c0,0.5-0.3,0.7,0.3,0.5s0.9-0.2,0.6-0.1s-0.7,0.2-0.8,0.3s-0.4,0.1,0.4,0.1s5.5,0.1,7.1,0.1
					s2.8,0,3,0c0.6-0.1,1.4,0.1,2.8,0c1.7,0,4.3,0,6.2,0s2.4,0,3.8,0s1.9-0.2,2.4-0.1c0.6,0.1,1.3,0.1,1.9,0c0.7,0,1.6,0.1,2,0.1
					c0.3,0-0.7-0.4-0.6-0.5s0.6,0.6,0.7,0.3s-0.1-3.9,0-4.2s0-0.2,0-0.2V10.9c0-0.3-0.1-0.7-0.3-0.3s0-0.3-0.3-0.4
					C94.8,10.3,94.4,10.3,94,10.3z"/>
				<path class="st4" d="M87.7,10c-1.7-0.1-3.5-0.1-5.2,0.1c0,0.1,1.5-0.2,2.3,0.4s1.5,1.2,1.2,1.1c-0.2-0.1-0.4-0.2-0.5-0.4
					c-0.2-0.2-0.3-0.4-0.3-0.3c0,0.5,0.2,0.9,0.4,1.3c0.2,1.1,0.1,2.2-0.1,3.3c-0.2,2-0.7,13.5-1.8,14.7s-1.4,1.2-1.8,1.2
					s-1.6-0.1-1,0c0.6,0.1,1.8,0,3,0.1c1.2,0.1,1.6,0.2,1.7,0s1.2-1.7,1-1.5c-0.3,0.5-0.6,1-0.8,1.5c0,0.1,0.4,0,0.9,0
					c0.6,0,0.6,0,0.6-0.1c0.1-0.6,0.1-1.2,0.1-1.8c0-0.9,0.2-0.1,0.1,0.4s0.2,0,0.5-0.8S87.5,15.7,87.8,15s0.6-2.7,0.2-3.5
					C87.4,10.7,88.3,10,87.7,10z"/>
				<g>
					<path class="st4" d="M95.9,21.3c0-0.4-0.1-0.3-0.2-0.2s-0.3,0.2-1.2,0c-0.8-0.2-1.6-0.2-2.3,0c-0.8,0.3-0.9,0.1-1.2,0
						s-0.4,0-0.2,0.3s-0.1,1.2-0.1,2c-0.1,2.1-0.1,4.1,0.1,6.2c0.1,0.3,0.1,0.7,0.1,1c0,0.2,0,0.5,0.2,0.3s1.6,0.2,2.6,0.1
						c0.6-0.1,1.2-0.1,1.8,0c0.1,0,0.5-0.1,0.3-0.3s0.1-1.1,0.1-1.5c0.1-1.2,0.2-2.4,0.1-3.6c0-1.2,0-2.4-0.2-3.6
						C95.9,21.8,95.9,21.5,95.9,21.3z"/>
					<path class="st5" d="M91.4,21.7c-0.4,1.4-0.6,2.8-0.6,4.3c0,1.5,0.3,3,0.8,4.4"/>
				</g>
				<g>
					<path class="st4" d="M93.2,22.6c0-0.3-0.1-0.2-0.2-0.1s-0.3,0.1-1,0c-0.6-0.1-1.3-0.1-1.9,0c-0.7,0.2-0.8,0.1-0.9,0
						s-0.3,0-0.2,0.2s-0.1,0.9-0.1,1.4c-0.1,1.5-0.1,3,0.1,4.5c0,0.2,0.1,0.5,0.1,0.7c0,0.1,0,0.3,0.1,0.2s1.3,0.1,2.1,0.1
						c0.5-0.1,1-0.1,1.4,0c0.1,0,0.4-0.1,0.3-0.2s0.1-0.8,0.1-1.1c0.1-0.9,0.1-1.7,0.1-2.6c0-0.9,0-1.8-0.1-2.6
						C93.1,22.9,93.1,22.7,93.2,22.6z"/>
					<path class="st5" d="M89.5,22.8c-0.3,1-0.5,2.1-0.5,3.1c0,1.1,0.2,2.2,0.7,3.2"/>
				</g>
				<g>
					<path class="st4" d="M95.9,10.9c0-0.4-0.1-0.3-0.2-0.2s-0.3,0.2-1.2,0c-0.8-0.2-1.6-0.2-2.3,0.1c-0.8,0.3-0.9,0.1-1.2,0
						s-0.4-0.1-0.2,0.3s-0.1,1.2-0.1,2c-0.1,2.1-0.1,4.1,0.1,6.2c0.1,0.3,0.1,0.7,0.1,1c0,0.2,0,0.5,0.2,0.3s1.6,0.2,2.6,0.1
						c0.6-0.1,1.2-0.1,1.8,0c0.1,0,0.5-0.1,0.3-0.3s0.1-1.1,0.1-1.5c0.1-1.2,0.2-2.4,0.1-3.6c0-1.2,0-2.4-0.2-3.6
						C95.9,11.4,95.9,11.1,95.9,10.9z"/>
					<path class="st5" d="M91.4,11.3c-0.4,1.4-0.6,2.8-0.6,4.3c0,1.5,0.3,3,0.8,4.4"/>
				</g>
				<g>
					<path class="st4" d="M93.2,12.2c0-0.3-0.1-0.2-0.2-0.1s-0.3,0.1-1,0c-0.6-0.1-1.3-0.1-1.9,0c-0.7,0.2-0.8,0.1-0.9,0
						s-0.3,0-0.2,0.2s-0.1,0.9-0.1,1.4c-0.1,1.5-0.1,3,0.1,4.5c0,0.2,0.1,0.5,0.1,0.7c0,0.1,0,0.3,0.1,0.2s1.3,0.1,2.1,0.1
						c0.5-0.1,1-0.1,1.4,0c0.1,0,0.4-0.1,0.3-0.2s0.1-0.8,0.1-1.1c0.1-0.9,0.1-1.7,0.1-2.6c0-0.9,0-1.8-0.1-2.6
						C93.1,12.5,93.1,12.3,93.2,12.2z"/>
					<path class="st5" d="M89.5,12.4c-0.3,1-0.5,2.1-0.5,3.1c0,1.1,0.2,2.2,0.7,3.2"/>
				</g>
				<path class="st4" d="M65.9,31V10.3c0-0.3,0.3-0.6,0.6-0.6c0,0,0,0,0,0h8.7c0.3,0,0.6,0.3,0.6,0.6c0,0,0,0,0,0V31
					c0,0.3-0.3,0.6-0.6,0.6c0,0,0,0,0,0h-8.7C66.2,31.6,65.9,31.3,65.9,31z"/>
			</g>
			<g>
				<rect x="96.7" y="3.9" class="st4" width="0.8" height="33.7"/>
				<path class="st4" d="M96.1,36.7v-32c0-0.3,0.3-0.6,0.6-0.6l0,0l0,0v33.1l0,0C96.4,37.2,96.1,37,96.1,36.7L96.1,36.7z"/>
				<g>
					<g>
						<path class="st4" d="M96.7,32.5v-1.1h-0.1c-0.3,0-0.6,0.3-0.6,0.6v0l0,0c0,0.3,0.3,0.6,0.6,0.6l0,0L96.7,32.5L96.7,32.5z"/>
						<path class="st4" d="M92.4,28.3l-0.2,0.9c-0.5,0-1,0-1.5-0.1l0,0c-0.1,0-0.2-0.4-0.1-0.8s0.3-0.7,0.4-0.6l0,0
							C91.6,27.8,92,28,92.4,28.3z"/>
						
							<ellipse transform="matrix(0.2315 -0.9728 0.9728 0.2315 42.9883 111.878)" class="st6" cx="92.3" cy="28.7" rx="0.4" ry="0.1"/>
						<path class="st4" d="M92.4,28.8L92.4,28.8c0.5,0.2,0.8,0.5,0.9,0.9c0.1,0.1,0.1,0.3,0.2,0.4c0.2,0.5,0.5,1,0.8,1.3
							c0.5,0.3,1,0.5,1.5,0.5H96v-0.2h-0.1c-0.5,0-1-0.1-1.4-0.4c-0.4-0.3-0.6-0.8-0.8-1.2c-0.1-0.2-0.1-0.3-0.2-0.5
							c-0.2-0.4-0.5-0.8-0.9-1l-0.1,0C92.4,28.7,92.4,28.8,92.4,28.8z"/>
					</g>
					<g>
						<path class="st4" d="M96.7,8.9V10h-0.1C96.2,10,96,9.8,96,9.4c0,0,0,0,0,0l0,0c0-0.3,0.3-0.6,0.6-0.6l0,0L96.7,8.9L96.7,8.9z"
							/>
						<path class="st4" d="M92.4,13.1l-0.2-0.9c-0.5,0-1,0-1.5,0.1l0,0c-0.1,0-0.2,0.4-0.1,0.8s0.3,0.7,0.4,0.6l0,0
							C91.6,13.5,92,13.3,92.4,13.1z"/>
						
							<ellipse transform="matrix(0.9728 -0.2315 0.2315 0.9728 -0.4165 21.7129)" class="st6" cx="92.3" cy="12.6" rx="0.2" ry="0.4"/>
						<path class="st4" d="M92.4,12.5L92.4,12.5c0.5-0.2,0.8-0.5,0.9-0.9c0.1-0.1,0.1-0.3,0.2-0.4c0.2-0.5,0.5-1,0.8-1.3
							c0.5-0.3,1-0.5,1.5-0.5H96v0.2h-0.1c-0.5,0-1,0.1-1.4,0.4c-0.4,0.3-0.6,0.8-0.8,1.2c-0.1,0.2-0.1,0.3-0.2,0.4
							c-0.2,0.4-0.5,0.8-0.9,1l-0.1,0C92.4,12.7,92.4,12.6,92.4,12.5z"/>
					</g>
				</g>
			</g>
		</g>
	</g>
	<g>
		<path class="st3" d="M13.9,12.1c0.9,0.1,1.9,0.1,2.8,0c0.8,0,1.4-0.6,1.5-1.4c0.4-1.9,0.4-3.9,0-5.9c0-0.8-0.6-1.4-1.5-1.5
			c-0.9-0.2-1.9-0.2-2.8,0c-0.8,0-1.4,0.6-1.4,1.5c-0.3,2-0.3,3.9,0,5.9C12.4,11.4,13.1,12.1,13.9,12.1z"/>
		<g>
			<path class="st3" d="M17.8,4.5c0-0.5-0.4-0.8-0.9-0.8"/>
			<path class="st3" d="M16.9,11.7c0.5,0,0.9-0.3,0.9-0.8c0,0,0,0,0,0"/>
			<path class="st3" d="M12.7,10.9c0,0.5,0.4,0.8,0.9,0.8"/>
			<path class="st3" d="M13.6,3.6c-0.5,0-0.9,0.3-0.9,0.8c0,0,0,0,0,0"/>
		</g>
	</g>
	<g>
		<path class="st3" d="M94.9,41.4c0.8,0.7,1.6,2.8,0.5,3.9c-0.5,0.5-0.5,1.1-1.7,2.8c-0.7,1.2-1.8,2.2-3.1,2.6
			c-1.8,0.5-4.1-0.3-5.8-4.1s0.4-6.9,2.7-7.2s3.3,0.6,4.4,0.8S93.6,40.1,94.9,41.4z"/>
		<path class="st2" d="M90.6,50.8c0.7-0.3,1.4-0.8,1.9-1.4c0.7-0.9,1.4-1.9,1.9-3c0.3-0.6-0.1-0.9,0-1c0.4-0.5,0.5-1.1,0.3-1.7
			c-0.2-0.9-0.7-1.7-1.4-2.2c-0.4-0.3-0.8-0.4-1.3-0.3c-0.3,0.2-0.3-0.2-1.3-0.7c-0.9-0.5-1.9-0.7-2.8-0.5c-1,0.1-1.2,0-1.9,0.4
			c-0.4,0.3-0.8,0.6-1.1,1"/>
		<path class="st2" d="M91.2,48.3c0,0-0.6-0.7-0.4-1.1c0.1-0.3,0.3-0.6,0.4-0.9l0.1-0.2c0.4-0.2,0.9-0.4,1.4-0.5
			c0.2-0.1,0.5-0.1,0.7-0.1"/>
		<path class="st2" d="M91.2,46.1c0,0-0.3-0.5-0.8-1.3c-0.3-0.6-0.5-1.2-0.7-1.8c0,0,0.5-0.4,1-0.8c0.3-0.2,0.5-0.4,0.7-0.7"/>
		<path class="st2" d="M87.9,41.1c-0.1,0.4-0.2,0.8-0.1,1.2c0.1,0.5,0.3,0.6,1,0.7c0.4,0.1,0.8,0.1,1.1,0"/>
		<path class="st2" d="M89.1,48c-0.5-0.3-1-0.8-1.3-1.2l-0.3-0.6c-0.1,0-0.3,0-0.4,0.1c-0.2,0.1-0.3,0.2-0.4,0.3"/>
		<path class="st2" d="M87.4,46.2c-0.1-0.4-0.2-0.8-0.3-1.1c-0.2-0.4-0.3-0.9-0.3-1.3l0.1-0.2c-0.1-0.1-0.3-0.2-0.4-0.3"/>
		<path class="st2" d="M89.1,48c0,0.2-0.1,0.4-0.3,0.5c-0.1,0.1-0.2,0.2-0.4,0.2"/>
		<path class="st3" d="M94.5,44.1c0,0-0.1-0.1,0-0.1c0.1,0,0.4-0.1,0.4-0.3c-0.1-0.3-0.2-0.5-0.3-0.8c-0.1-0.3,0-0.7-0.3-0.8
			c-0.1-0.1-0.4,0.2-0.4,0.2c-0.1,0-0.1-0.2-0.1-0.2l0.5-0.3c0.2,0,0.4,0.1,0.5,0.3c0.1,0.3,0.3,0.5,0.4,0.9s0.2,0.6-0.1,0.8
			C94.9,44.1,94.7,44.1,94.5,44.1z"/>
	</g>
	<g>
		<g>
			<rect x="66.7" y="66.1" class="st3" width="11.8" height="0.9"/>
			<line class="st2" x1="67.7" y1="66.9" x2="67.7" y2="66.3"/>
			<line class="st2" x1="68" y1="66.9" x2="68" y2="66.3"/>
			<line class="st2" x1="67" y1="66.9" x2="67" y2="66.3"/>
			<line class="st2" x1="67.4" y1="66.9" x2="67.4" y2="66.3"/>
			<line class="st2" x1="68.3" y1="66.9" x2="68.3" y2="66.3"/>
			<line class="st2" x1="68.6" y1="66.9" x2="68.6" y2="66.3"/>
			<line class="st2" x1="69" y1="66.9" x2="69" y2="66.3"/>
			<line class="st2" x1="69.3" y1="66.9" x2="69.3" y2="66.3"/>
			<line class="st2" x1="69.6" y1="66.9" x2="69.6" y2="66.3"/>
			<line class="st2" x1="69.9" y1="66.9" x2="69.9" y2="66.3"/>
			<line class="st2" x1="70.9" y1="66.9" x2="70.9" y2="66.3"/>
			<line class="st2" x1="71.2" y1="66.9" x2="71.2" y2="66.3"/>
			<line class="st2" x1="70.2" y1="66.9" x2="70.2" y2="66.3"/>
			<line class="st2" x1="70.6" y1="66.9" x2="70.6" y2="66.3"/>
			<line class="st2" x1="71.5" y1="66.9" x2="71.5" y2="66.3"/>
			<line class="st2" x1="71.8" y1="66.9" x2="71.8" y2="66.3"/>
			<line class="st2" x1="72.2" y1="66.9" x2="72.2" y2="66.3"/>
			<line class="st2" x1="72.5" y1="66.9" x2="72.5" y2="66.3"/>
			<line class="st2" x1="72.8" y1="66.9" x2="72.8" y2="66.3"/>
			<line class="st2" x1="73.1" y1="66.9" x2="73.1" y2="66.3"/>
			<line class="st2" x1="74.1" y1="66.9" x2="74.1" y2="66.3"/>
			<line class="st2" x1="74.4" y1="66.9" x2="74.4" y2="66.3"/>
			<line class="st2" x1="73.4" y1="66.9" x2="73.4" y2="66.3"/>
			<line class="st2" x1="73.8" y1="66.9" x2="73.8" y2="66.3"/>
			<line class="st2" x1="74.7" y1="66.9" x2="74.7" y2="66.3"/>
			<line class="st2" x1="75" y1="66.9" x2="75" y2="66.3"/>
			<line class="st2" x1="75.4" y1="66.9" x2="75.4" y2="66.3"/>
			<line class="st2" x1="75.7" y1="66.9" x2="75.7" y2="66.3"/>
			<line class="st2" x1="76" y1="66.9" x2="76" y2="66.3"/>
			<line class="st2" x1="76.3" y1="66.9" x2="76.3" y2="66.3"/>
			<line class="st2" x1="77.3" y1="66.9" x2="77.3" y2="66.3"/>
			<line class="st2" x1="77.6" y1="66.9" x2="77.6" y2="66.3"/>
			<line class="st2" x1="76.6" y1="66.9" x2="76.6" y2="66.3"/>
			<line class="st2" x1="77" y1="66.9" x2="77" y2="66.3"/>
			<line class="st2" x1="77.9" y1="66.9" x2="77.9" y2="66.3"/>
			<line class="st2" x1="78.2" y1="66.9" x2="78.2" y2="66.3"/>
		</g>
		<path class="st2" d="M58.4,66c0.9,0,0-0.8,0.9-0.8s0,0.8,0.9,0.8s0-0.8,0.9-0.8s0,0.8,0.9,0.8s0-0.8,0.9-0.8s0,0.8,0.9,0.8
			c0.9,0,0-0.8,0.9-0.8c0.9,0,0,0.8,0.9,0.8s0-0.8,0.9-0.8s0,0.8,0.9,0.8s0-0.8,0.9-0.8s0,0.8,0.9,0.8s0-0.8,0.9-0.8s0,0.8,0.9,0.8
			s0-0.8,0.9-0.8s0,0.8,0.9,0.8s0-0.8,0.9-0.8s0,0.8,0.9,0.8s0-0.8,0.9-0.8s0,0.8,0.9,0.8s0-0.8,0.9-0.8s0,0.8,0.9,0.8
			s0-0.8,0.9-0.8s0,0.8,0.9,0.8s0-0.8,0.9-0.8s0,0.8,0.9,0.8s0-0.8,0.9-0.8s0,0.8,0.9,0.8s0-0.8,0.9-0.8s0,0.8,0.9,0.8
			s0-0.8,0.9-0.8s0,0.8,0.9,0.8s0-0.8,0.9-0.8"/>
	</g>
	<g>
		<circle class="st4" cx="93.8" cy="51.8" r="2.1"/>
		<circle class="st4" cx="93.8" cy="51.8" r="0.4"/>
		<path class="st4" d="M86.5,50.9c-0.5-0.2-0.6-1-0.3-1.8s0.9-1.3,1.4-1.2l0,0c0.9,0.3,1.7,0.8,2.3,1.5l-0.6,1.6
			C88.4,51.3,87.4,51.2,86.5,50.9z"/>
		<path class="st4" d="M89.1,50.1c0.2-0.5,0.5-0.7,0.8-0.7l0.6,0.2l-0.6,1.6l-0.6-0.2C89,51,89,50.6,89.1,50.1z"/>
		<ellipse transform="matrix(0.328 -0.9447 0.9447 0.328 12.8831 119.1085)" class="st4" cx="90.2" cy="50.5" rx="0.9" ry="0.5"/>
		<path class="st4" d="M94,51.8L94,51.8c0-0.1,0-0.2-0.1-0.2c0,0,0,0,0,0l-2.2-0.8c-0.1,0-0.2,0-0.2,0.1c0,0,0,0,0,0l0,0
			c0,0.1,0,0.2,0.1,0.2c0,0,0,0,0,0l2.2,0.8C93.9,52,93.9,51.9,94,51.8z"/>
		<path class="st4" d="M92.7,51.4L92.7,51.4c0-0.1,0-0.2-0.1-0.2c0,0,0,0,0,0l-2.2-0.8c-0.1,0-0.2,0-0.2,0.1c0,0,0,0,0,0l0,0
			c0,0.1,0,0.2,0.1,0.2c0,0,0,0,0,0l2.2,0.8C92.6,51.5,92.7,51.5,92.7,51.4z"/>
	</g>
	<g>
		<rect x="29.7" y="31.1" class="st3" width="9.6" height="0.8"/>
		<rect x="30.2" y="31" class="st3" width="8.5" height="0.5"/>
	</g>
	<g>
		<rect x="40" y="5.3" class="st3" width="0.8" height="6.4"/>
		<g>
			<rect x="38.8" y="5.8" class="st3" width="1.2" height="0.4"/>
			<rect x="39.8" y="5.8" class="st3" width="0.2" height="0.4"/>
		</g>
		<g>
			<rect x="38.8" y="7.5" class="st3" width="1.2" height="0.4"/>
			<rect x="39.8" y="7.5" class="st3" width="0.2" height="0.4"/>
		</g>
		<g>
			<rect x="38.8" y="9.2" class="st3" width="1.2" height="0.4"/>
			<rect x="39.8" y="9.2" class="st3" width="0.2" height="0.4"/>
		</g>
		<g>
			<rect x="38.8" y="10.9" class="st3" width="1.2" height="0.4"/>
			<rect x="39.8" y="10.9" class="st3" width="0.2" height="0.4"/>
		</g>
	</g>
	<g>
		<g>
			<polygon class="st3" points="51.7,13.7 51.2,14.2 51.7,14.6 54.2,12.1 53.8,11.7 53.3,12.1 53.6,12.4 51.9,14 			"/>
			<circle class="st3" cx="49.2" cy="9.6" r="5"/>
		</g>
		<g>
			<path class="st3" d="M47.9,10.9l0.4,0.4c0.4,0.3,1,0.3,1.3-0.1l1.7-2c0.3-0.4,0.3-1-0.1-1.3l-0.4-0.4c-0.4-0.3-1-0.3-1.3,0.1
				l-1.7,2C47.5,10,47.6,10.5,47.9,10.9z"/>
			<path class="st3" d="M48.9,10.6L48.9,10.6c0.2,0.2,0.5,0.2,0.7,0c0,0,0,0,0,0l1.2-1.4c0.2-0.2,0.2-0.5,0-0.7c0,0,0,0,0,0l0,0
				c-0.2-0.2-0.5-0.2-0.7,0c0,0,0,0,0,0l-1.2,1.4C48.7,10.1,48.7,10.4,48.9,10.6z"/>
			
				<rect x="42.3" y="9.7" transform="matrix(0.6579 -0.7531 0.7531 0.6579 9.7299 41.1071)" class="st3" width="15.7" height="0.2"/>
			<polygon class="st3" points="46.1,13.7 44.9,15.7 55.2,3.9 53.4,5.3 			"/>
		</g>
	</g>
</g>
<g id="Doors">
	<g>
		<polygon class="st7" points="39.2,0.7 39.2,2.1 38.5,2.1 38.5,0.7 		"/>
		<polygon class="st7" points="20.5,0.7 20.5,2.1 21.2,2.1 21.2,0.7 		"/>
		<polyline class="st7" points="21.2,2 21.3,2.3 21.3,2.6 21.3,2.9 21.3,3.2 21.3,3.6 21.4,3.9 21.4,4.2 21.5,4.5 21.5,4.8 
			21.6,5.1 21.6,5.4 21.7,5.7 21.8,6 21.9,6.4 21.9,6.6 22,7 22.1,7.3 22.2,7.5 22.3,7.8 22.4,8.1 22.5,8.4 22.7,8.7 22.8,9 
			22.9,9.3 23.1,9.6 23.2,9.9 23.4,10.2 23.5,10.4 23.7,10.7 23.8,11 24,11.2 24.1,11.5 24.3,11.8 24.5,12 24.7,12.3 24.9,12.5 
			25.1,12.8 25.3,13 25.5,13.3 25.7,13.5 25.9,13.8 26.1,14 26.3,14.2 		"/>
		<polygon class="st7" points="37.9,1.6 25.9,13.8 26.3,14.2 38.4,2.1 		"/>
	</g>
	<g>
		<polygon class="st7" points="26.3,31.9 26.3,33.2 25.8,33.2 25.8,31.9 		"/>
		<polygon class="st7" points="12.6,31.9 12.6,33.2 13.1,33.2 13.1,31.9 		"/>
		<polyline class="st7" points="13.1,33.1 13.1,33.4 13.1,33.6 13.1,33.8 13.1,34.1 13.1,34.3 13.2,34.5 13.2,34.7 13.2,35 
			13.3,35.2 13.3,35.4 13.4,35.7 13.4,35.9 13.5,36.1 13.5,36.3 13.6,36.6 13.7,36.8 13.7,37 13.8,37.2 13.9,37.4 14,37.7 14,37.9 
			14.1,38.1 14.2,38.3 14.3,38.5 14.4,38.7 14.5,38.9 14.6,39.1 14.8,39.3 14.9,39.5 15,39.7 15.1,39.9 15.2,40.1 15.4,40.3 
			15.5,40.5 15.6,40.7 15.8,40.9 15.9,41.1 16,41.3 16.2,41.4 16.3,41.6 16.5,41.8 16.6,41.9 16.8,42.1 		"/>
		<polygon class="st7" points="25.3,32.8 16.5,41.8 16.8,42.1 25.7,33.2 		"/>
	</g>
</g>
<g id="Windows">
	<polyline class="st7" points="59.2,68.5 86.9,68.5 86.9,69.7 59.2,69.7 59.2,68.5 	"/>
	<polyline class="st7" points="88.5,67.1 57.6,67.1 57.6,69.7 88.5,69.7 88.5,67.1 	"/>
	<polyline class="st7" points="88.8,68.5 86.9,68.5 86.9,69.7 88.8,69.7 88.8,68.5 88.8,69.7 89.3,69.7 89.3,68.5 88.8,68.5 	"/>
	<polyline class="st7" points="59.2,68.5 56.5,68.5 56.5,69.7 59.2,69.7 59.2,68.5 	"/>
	<polyline class="st7" points="58.4,69.7 87.7,69.7 87.7,72.3 58.4,72.3 58.4,69.7 	"/>
</g>
<g id="Walls">
	<polyline class="st8" points="88.5,69.7 88.5,67.1 100.1,67.1 100.1,72.1 87.7,72.1 87.7,69.7 100.1,69.7 	"/>
	<polyline class="st8" points="0.1,69.7 57.6,69.7 57.6,67.1 0.1,67.1 0.1,72.1 58.4,72.1 58.4,69.7 	"/>
	<polyline class="st8" points="100.1,67.1 97.4,67.1 97.4,2.7 39.2,2.7 39.2,0.1 100.1,0.1 100.1,67.1 	"/>
	<polyline class="st8" points="1.2,67.1 0.1,67.1 0.1,0.1 20.5,0.1 20.5,2.7 2.7,2.7 2.7,67.1 1.2,67.1 	"/>
	<polyline class="st8" points="42.2,67.1 40.9,67.1 40.9,33.2 26.4,33.2 26.4,31.9 42.2,31.9 42.2,67.1 	"/>
	<polyline class="st8" points="12.6,31.9 12.6,33.2 2.7,33.2 2.7,31.9 12.6,31.9 	"/>
	<polyline class="st9" points="40.9,14.4 40.9,2.7 42.2,2.7 42.2,14.4 40.9,14.4 	"/>
	<line class="st7" x1="100.1" y1="69.7" x2="88.5" y2="69.7"/>
</g>
<g id="Text">
	<text id="TXT-Кухня-гостинная-С" transform="matrix(1 0 0 1 50.1797 26.7345)" class="st10 st11 st12">17,80</text>
	<text id="TXT-Санузел-С" transform="matrix(1 0 0 1 20.9009 50.395)" class="st10 st11 st12">4,50</text>
</g>
<g id="Details">
	<path class="st13" d="M38.1,42c0,0.6,0.5,1.1,1.1,1.1c0,0,0,0,0,0c0.6,0,1.1-0.5,1.1-1.1s-0.5-1.1-1.1-1.1
		C38.6,40.9,38.1,41.4,38.1,42"/>
	<path class="st13" d="M38.3,42c0,0.5,0.4,0.9,0.9,0.9s0.9-0.4,0.9-0.9s-0.4-0.9-0.9-0.9S38.3,41.5,38.3,42L38.3,42"/>
	<path class="st13" d="M38.4,42c0,0.5,0.4,0.8,0.8,0.8s0.8-0.4,0.8-0.8s-0.4-0.8-0.8-0.8C38.8,41.1,38.4,41.5,38.4,42
		C38.4,42,38.4,42,38.4,42"/>
	<line class="st13" x1="39.2" y1="40.8" x2="39.2" y2="40.5"/>
	<polygon class="st14" points="39.2,40.7 39.1,40.7 39.1,40.8 39.1,40.8 39.1,40.9 39.2,40.9 39.2,40.9 39.3,40.9 39.3,40.9 
		39.3,40.8 39.3,40.8 39.3,40.7 39.3,40.7 39.2,40.7 	"/>
	<polygon class="st13" points="39.2,40.7 39.1,40.7 39.1,40.8 39.1,40.8 39.1,40.9 39.2,40.9 39.2,40.9 39.3,40.9 39.3,40.9 
		39.3,40.8 39.3,40.8 39.3,40.7 39.3,40.7 39.2,40.7 	"/>
	<line class="st13" x1="39.2" y1="41.2" x2="39.2" y2="40.9"/>
	<polygon class="st14" points="39.2,41.2 39.1,41.2 39.1,41.3 39.1,41.3 39.1,41.4 39.2,41.4 39.2,41.4 39.3,41.4 39.3,41.4 
		39.3,41.3 39.3,41.3 39.3,41.2 39.3,41.2 39.2,41.2 	"/>
	<polygon class="st13" points="39.2,41.2 39.1,41.2 39.1,41.3 39.1,41.3 39.1,41.4 39.2,41.4 39.2,41.4 39.3,41.4 39.3,41.4 
		39.3,41.3 39.3,41.3 39.3,41.2 39.3,41.2 39.2,41.2 	"/>
	<line class="st13" x1="39.2" y1="41.7" x2="39.2" y2="41.3"/>
	<polygon class="st14" points="39.2,41.7 39.1,41.7 39.1,41.8 39.1,41.8 39.1,41.9 39.2,41.9 39.2,41.9 39.3,41.9 39.3,41.9 
		39.3,41.8 39.3,41.8 39.3,41.7 39.3,41.7 39.2,41.7 	"/>
	<polygon class="st13" points="39.2,41.7 39.1,41.7 39.1,41.8 39.1,41.8 39.1,41.9 39.2,41.9 39.2,41.9 39.3,41.9 39.3,41.9 
		39.3,41.8 39.3,41.8 39.3,41.7 39.3,41.7 39.2,41.7 	"/>
	<line class="st13" x1="39.2" y1="42.2" x2="39.2" y2="41.8"/>
	<polygon class="st14" points="39.2,42.2 39.1,42.2 39.1,42.2 39.1,42.3 39.1,42.4 39.2,42.4 39.2,42.4 39.3,42.4 39.3,42.4 
		39.3,42.3 39.3,42.2 39.3,42.2 39.3,42.2 39.2,42.2 	"/>
	<polygon class="st13" points="39.2,42.2 39.1,42.2 39.1,42.2 39.1,42.3 39.1,42.4 39.2,42.4 39.2,42.4 39.3,42.4 39.3,42.4 
		39.3,42.3 39.3,42.2 39.3,42.2 39.3,42.2 39.2,42.2 	"/>
	<line class="st13" x1="39.2" y1="42.7" x2="39.2" y2="42.3"/>
	<polygon class="st14" points="39.2,42.6 39.1,42.7 39.1,42.7 39.1,42.8 39.1,42.8 39.2,42.9 39.2,42.9 39.3,42.9 39.3,42.8 
		39.3,42.8 39.3,42.7 39.3,42.7 39.3,42.6 39.2,42.6 	"/>
	<polygon class="st13" points="39.2,42.6 39.1,42.7 39.1,42.7 39.1,42.8 39.1,42.8 39.2,42.9 39.2,42.9 39.3,42.9 39.3,42.8 
		39.3,42.8 39.3,42.7 39.3,42.7 39.3,42.6 39.2,42.6 	"/>
	<line class="st13" x1="39.2" y1="43.2" x2="39.2" y2="42.8"/>
	<polygon class="st14" points="39.2,43.1 39.1,43.2 39.1,43.2 39.1,43.3 39.1,43.3 39.2,43.3 39.2,43.4 39.3,43.3 39.3,43.3 
		39.3,43.3 39.3,43.2 39.3,43.2 39.3,43.1 39.2,43.1 	"/>
	<polygon class="st13" points="39.2,43.1 39.1,43.2 39.1,43.2 39.1,43.3 39.1,43.3 39.2,43.3 39.2,43.4 39.3,43.3 39.3,43.3 
		39.3,43.3 39.3,43.2 39.3,43.2 39.3,43.1 39.2,43.1 	"/>
	<line class="st13" x1="39.2" y1="43.6" x2="39.2" y2="43.3"/>
	<polygon class="st14" points="39.9,41.9 39.9,41.9 39.8,42 39.8,42 39.9,42.1 39.9,42.1 40,42.1 40,42.1 40,42.1 40.1,42 40.1,42 
		40,41.9 40,41.9 40,41.9 	"/>
	<polygon class="st13" points="39.9,41.9 39.9,41.9 39.8,42 39.8,42 39.9,42.1 39.9,42.1 40,42.1 40,42.1 40,42.1 40.1,42 40.1,42 
		40,41.9 40,41.9 40,41.9 	"/>
	<line class="st13" x1="39.5" y1="42" x2="39.9" y2="42"/>
	<polygon class="st14" points="39.4,41.9 39.4,41.9 39.4,42 39.4,42 39.4,42.1 39.4,42.1 39.5,42.1 39.5,42.1 39.6,42.1 39.6,42 
		39.6,42 39.6,41.9 39.5,41.9 39.5,41.9 	"/>
	<polygon class="st13" points="39.4,41.9 39.4,41.9 39.4,42 39.4,42 39.4,42.1 39.4,42.1 39.5,42.1 39.5,42.1 39.6,42.1 39.6,42 
		39.6,42 39.6,41.9 39.5,41.9 39.5,41.9 	"/>
	<line class="st13" x1="39" y1="42" x2="39.4" y2="42"/>
	<polygon class="st14" points="38.9,41.9 38.9,41.9 38.9,42 38.9,42 38.9,42.1 38.9,42.1 39,42.1 39,42.1 39.1,42.1 39.1,42 
		39.1,42 39.1,41.9 39,41.9 39,41.9 	"/>
	<polygon class="st13" points="38.9,41.9 38.9,41.9 38.9,42 38.9,42 38.9,42.1 38.9,42.1 39,42.1 39,42.1 39.1,42.1 39.1,42 
		39.1,42 39.1,41.9 39,41.9 39,41.9 	"/>
	<line class="st13" x1="38.5" y1="42" x2="38.9" y2="42"/>
	<polygon class="st14" points="38.5,41.9 38.4,41.9 38.4,42 38.4,42 38.4,42.1 38.5,42.1 38.5,42.1 38.5,42.1 38.6,42.1 38.6,42 
		38.6,42 38.6,41.9 38.5,41.9 38.5,41.9 	"/>
	<polygon class="st13" points="38.5,41.9 38.4,41.9 38.4,42 38.4,42 38.4,42.1 38.5,42.1 38.5,42.1 38.5,42.1 38.6,42.1 38.6,42 
		38.6,42 38.6,41.9 38.5,41.9 38.5,41.9 	"/>
	<line class="st13" x1="38.1" y1="42" x2="38.5" y2="42"/>
	<polygon class="st14" points="38,41.9 37.9,41.9 37.9,42 37.9,42 37.9,42.1 38,42.1 38,42.1 38.1,42.1 38.1,42.1 38.1,42 38.1,42 
		38.1,41.9 38.1,41.9 38,41.9 	"/>
	<polygon class="st13" points="38,41.9 37.9,41.9 37.9,42 37.9,42 37.9,42.1 38,42.1 38,42.1 38.1,42.1 38.1,42.1 38.1,42 38.1,42 
		38.1,41.9 38.1,41.9 38,41.9 	"/>
	<line class="st13" x1="37.7" y1="42" x2="38" y2="42"/>
	<polyline class="st13" points="40.9,40.4 37.6,40.4 37.6,43.6 40.9,43.6 40.9,40.4 	"/>
	<path class="st13" d="M38.1,42c0,0.6,0.5,1.2,1.1,1.2c0,0,0,0,0,0c0.6,0,1.2-0.5,1.2-1.2s-0.5-1.2-1.2-1.2S38.1,41.3,38.1,42
		L38.1,42"/>
	<line class="st13" x1="40.5" y1="42" x2="40.8" y2="42"/>
	<polygon class="st14" points="40.4,41.9 40.4,41.9 40.3,42 40.3,42 40.4,42.1 40.4,42.1 40.5,42.1 40.5,42.1 40.5,42.1 40.6,42 
		40.6,42 40.5,41.9 40.5,41.9 40.5,41.9 	"/>
	<polygon class="st15" points="40.4,41.9 40.4,41.9 40.3,42 40.3,42 40.4,42.1 40.4,42.1 40.5,42.1 40.5,42.1 40.5,42.1 40.6,42 
		40.6,42 40.5,41.9 40.5,41.9 40.5,41.9 	"/>
	<line class="st13" x1="40" y1="42" x2="40.4" y2="42"/>
</g>
<g>
	<rect x="27.6" y="33.2" class="st16" width="13.3" height="6.9"/>
	<g>
		<rect x="38.3" y="34" class="st4" width="1.7" height="5.2"/>
		<polygon class="st14" points="40,34 38.9,34.5 38.3,39.2 38.3,34 		"/>
	</g>
	<g>
		<rect x="28.4" y="34" class="st4" width="1.7" height="5.2"/>
		<polygon class="st14" points="29.9,34 28.9,34.5 28.4,39.2 28.4,34 		"/>
	</g>
	<g>
		<rect x="30.9" y="34" class="st4" width="6.6" height="5.2"/>
		<polygon class="st14" points="37.3,34 31.8,34.5 30.9,39.2 30.9,34 		"/>
	</g>
</g>
</svg>
