<?xml version="1.0" encoding="utf-8"?>
<!-- Generator: Adobe Illustrator 22.0.0, SVG Export Plug-In . SVG Version: 6.00 Build 0)  -->
<svg version="1.1" id="Layer_1" xmlns="http://www.w3.org/2000/svg" xmlns:xlink="http://www.w3.org/1999/xlink" x="0px" y="0px"
	 viewBox="0 0 100 50" enable-background="new 0 0 100 50" xml:space="preserve">
<g id="Background">
	<rect x="4.3" y="0.95" opacity="0.1" fill="#1D2132" enable-background="new    " width="94.29" height="47.25"/>
</g>
<g id="Furniture">
	<g>
		
			<rect x="54.99" y="2.6" fill="#FFFFFF" stroke="#1D2132" stroke-width="0.1" stroke-linecap="square" stroke-miterlimit="22.9256" width="8.33" height="17.59"/>
		
			<rect x="54.99" y="13.73" fill="#FFFFFF" stroke="#1D2132" stroke-width="0.1" stroke-linecap="square" stroke-miterlimit="22.9256" width="8.33" height="6.48"/>
		
			<rect x="54.99" y="2.58" fill="#FFFFFF" stroke="#1D2132" stroke-width="0.1" stroke-linecap="square" stroke-miterlimit="22.9256" width="8.33" height="7.01"/>
		
			<rect x="54.99" y="20.19" fill="#FFFFFF" stroke="#1D2132" stroke-width="0.1" stroke-linecap="square" stroke-miterlimit="22.9256" width="8.33" height="5.32"/>
		<g>
			
				<line fill="none" stroke="#1D2132" stroke-width="0.1" stroke-linecap="square" stroke-miterlimit="22.9256" x1="58.11" y1="22.86" x2="60.19" y2="22.86"/>
			
				<line fill="none" stroke="#1D2132" stroke-width="0.1" stroke-linecap="square" stroke-miterlimit="22.9256" x1="58.42" y1="22.12" x2="59.89" y2="23.59"/>
			
				<line fill="none" stroke="#1D2132" stroke-width="0.1" stroke-linecap="square" stroke-miterlimit="22.9256" x1="59.16" y1="21.81" x2="59.16" y2="23.9"/>
			
				<line fill="none" stroke="#1D2132" stroke-width="0.1" stroke-linecap="square" stroke-miterlimit="22.9256" x1="59.89" y1="22.12" x2="58.42" y2="23.59"/>
		</g>
		<g>
			
				<rect x="55.33" y="14.58" fill="#FFFFFF" stroke="#1D2132" stroke-width="0.1" stroke-linecap="square" stroke-miterlimit="22.9256" width="7.64" height="4.86"/>
			<g>
				<path fill="#FFFFFF" stroke="#1D2132" stroke-width="0.1" stroke-linecap="square" stroke-miterlimit="22.9256" d="M57.41,15.67
					c-0.74,0-1.33,0.59-1.33,1.33s0.59,1.33,1.33,1.33s1.33-0.59,1.33-1.33C58.75,16.27,58.15,15.67,57.41,15.67"/>
				<path fill="#FFFFFF" stroke="#1D2132" stroke-width="0.1" stroke-linecap="square" stroke-miterlimit="22.9256" d="M61.18,15.67
					c-0.74,0-1.33,0.59-1.33,1.33s0.59,1.33,1.33,1.33s1.33-0.59,1.33-1.33C62.51,16.27,61.91,15.67,61.18,15.67"/>
				<path fill="#FFFFFF" stroke="#1D2132" stroke-width="0.1" stroke-linecap="square" stroke-miterlimit="22.9256" d="M57.41,15.94
					c-0.58,0-1.06,0.48-1.06,1.06s0.48,1.06,1.06,1.06s1.06-0.48,1.06-1.06C58.48,16.42,58,15.94,57.41,15.94"/>
				<path fill="#FFFFFF" stroke="#1D2132" stroke-width="0.1" stroke-linecap="square" stroke-miterlimit="22.9256" d="M61.18,15.94
					c-0.58,0-1.06,0.48-1.06,1.06s0.48,1.06,1.06,1.06s1.06-0.48,1.06-1.06S61.76,15.94,61.18,15.94"/>
			</g>
		</g>
		<g>
			<path fill="#FFFFFF" stroke="#1D2132" stroke-width="0.1" stroke-linecap="square" stroke-miterlimit="22.9256" d="M61.28,8.2
				h-5.3c-0.27,0-0.48-0.21-0.48-0.48V4.51c0-0.27,0.21-0.48,0.48-0.48h5.3c0.27,0,0.48,0.21,0.48,0.48v3.21
				C61.76,7.99,61.55,8.2,61.28,8.2z"/>
			<g>
				<path fill="#FFFFFF" stroke="#1D2132" stroke-width="0.1" stroke-linecap="square" stroke-miterlimit="22.9256" d="M60.96,6.12
					c0,0.19-0.17,0.34-0.38,0.34c-0.21,0-0.38-0.15-0.38-0.34s0.17-0.34,0.38-0.34C60.79,5.77,60.96,5.93,60.96,6.12z"/>
				<g>
					<path fill="#FFFFFF" stroke="#1D2132" stroke-width="0.1" stroke-linecap="square" stroke-miterlimit="22.9256" d="M62.8,6.12
						c0,0.32-0.23,0.57-0.52,0.57s-0.52-0.25-0.52-0.57s0.23-0.57,0.52-0.57C62.57,5.55,62.8,5.8,62.8,6.12z"/>
					<path fill="#FFFFFF" stroke="#1D2132" stroke-width="0.1" stroke-linecap="square" stroke-miterlimit="22.9256" d="M59.34,6.13
						c0-0.1,0.12-0.17,0.27-0.17l2.71-0.01c0.14,0,0.27,0.08,0.27,0.17l0,0c0,0.1-0.11,0.17-0.27,0.17L59.61,6.3
						C59.45,6.3,59.34,6.23,59.34,6.13L59.34,6.13z"/>
					<path fill="#FFFFFF" stroke="#1D2132" stroke-width="0.1" stroke-linecap="square" stroke-miterlimit="22.9256" d="M62.43,6.12
						c0,0.43-0.07,0.79-0.16,0.79s-0.16-0.35-0.16-0.79c0-0.43,0.07-0.79,0.15-0.79C62.36,5.32,62.43,5.68,62.43,6.12z"/>
				</g>
			</g>
		</g>
	</g>
	<g>
		
			<rect x="54.99" y="2.6" fill="#FFFFFF" stroke="#1D2132" stroke-width="0.1" stroke-linecap="square" stroke-miterlimit="22.9256" width="8.33" height="17.59"/>
		
			<rect x="54.99" y="13.73" fill="#FFFFFF" stroke="#1D2132" stroke-width="0.1" stroke-linecap="square" stroke-miterlimit="22.9256" width="8.33" height="6.48"/>
		
			<rect x="54.99" y="2.58" fill="#FFFFFF" stroke="#1D2132" stroke-width="0.1" stroke-linecap="square" stroke-miterlimit="22.9256" width="8.33" height="7.01"/>
		
			<rect x="54.99" y="20.19" fill="#FFFFFF" stroke="#1D2132" stroke-width="0.1" stroke-linecap="square" stroke-miterlimit="22.9256" width="8.33" height="5.32"/>
		<g>
			
				<line fill="none" stroke="#1D2132" stroke-width="0.1" stroke-linecap="square" stroke-miterlimit="22.9256" x1="58.11" y1="22.86" x2="60.19" y2="22.86"/>
			
				<line fill="none" stroke="#1D2132" stroke-width="0.1" stroke-linecap="square" stroke-miterlimit="22.9256" x1="58.42" y1="22.12" x2="59.89" y2="23.59"/>
			
				<line fill="none" stroke="#1D2132" stroke-width="0.1" stroke-linecap="square" stroke-miterlimit="22.9256" x1="59.16" y1="21.81" x2="59.16" y2="23.9"/>
			
				<line fill="none" stroke="#1D2132" stroke-width="0.1" stroke-linecap="square" stroke-miterlimit="22.9256" x1="59.89" y1="22.12" x2="58.42" y2="23.59"/>
		</g>
		<g>
			
				<rect x="55.33" y="14.58" fill="#FFFFFF" stroke="#1D2132" stroke-width="0.1" stroke-linecap="square" stroke-miterlimit="22.9256" width="7.64" height="4.86"/>
			<g>
				<path fill="#FFFFFF" stroke="#1D2132" stroke-width="0.1" stroke-linecap="square" stroke-miterlimit="22.9256" d="M57.41,15.67
					c-0.74,0-1.33,0.59-1.33,1.33s0.59,1.33,1.33,1.33s1.33-0.59,1.33-1.33C58.75,16.27,58.15,15.67,57.41,15.67"/>
				<path fill="#FFFFFF" stroke="#1D2132" stroke-width="0.1" stroke-linecap="square" stroke-miterlimit="22.9256" d="M61.18,15.67
					c-0.74,0-1.33,0.59-1.33,1.33s0.59,1.33,1.33,1.33s1.33-0.59,1.33-1.33C62.51,16.27,61.91,15.67,61.18,15.67"/>
				<path fill="#FFFFFF" stroke="#1D2132" stroke-width="0.1" stroke-linecap="square" stroke-miterlimit="22.9256" d="M57.41,15.94
					c-0.58,0-1.06,0.48-1.06,1.06s0.48,1.06,1.06,1.06s1.06-0.48,1.06-1.06C58.48,16.42,58,15.94,57.41,15.94"/>
				<path fill="#FFFFFF" stroke="#1D2132" stroke-width="0.1" stroke-linecap="square" stroke-miterlimit="22.9256" d="M61.18,15.94
					c-0.58,0-1.06,0.48-1.06,1.06s0.48,1.06,1.06,1.06s1.06-0.48,1.06-1.06S61.76,15.94,61.18,15.94"/>
			</g>
		</g>
		<g>
			<path fill="#FFFFFF" stroke="#1D2132" stroke-width="0.1" stroke-linecap="square" stroke-miterlimit="22.9256" d="M61.28,8.2
				h-5.3c-0.27,0-0.48-0.21-0.48-0.48V4.51c0-0.27,0.21-0.48,0.48-0.48h5.3c0.27,0,0.48,0.21,0.48,0.48v3.21
				C61.76,7.99,61.55,8.2,61.28,8.2z"/>
			<g>
				<path fill="#FFFFFF" stroke="#1D2132" stroke-width="0.1" stroke-linecap="square" stroke-miterlimit="22.9256" d="M60.96,6.12
					c0,0.19-0.17,0.34-0.38,0.34c-0.21,0-0.38-0.15-0.38-0.34s0.17-0.34,0.38-0.34C60.79,5.77,60.96,5.93,60.96,6.12z"/>
				<g>
					<path fill="#FFFFFF" stroke="#1D2132" stroke-width="0.1" stroke-linecap="square" stroke-miterlimit="22.9256" d="M62.8,6.12
						c0,0.32-0.23,0.57-0.52,0.57s-0.52-0.25-0.52-0.57s0.23-0.57,0.52-0.57C62.57,5.55,62.8,5.8,62.8,6.12z"/>
					<path fill="#FFFFFF" stroke="#1D2132" stroke-width="0.1" stroke-linecap="square" stroke-miterlimit="22.9256" d="M59.34,6.13
						c0-0.1,0.12-0.17,0.27-0.17l2.71-0.01c0.14,0,0.27,0.08,0.27,0.17l0,0c0,0.1-0.11,0.17-0.27,0.17L59.61,6.3
						C59.45,6.3,59.34,6.23,59.34,6.13L59.34,6.13z"/>
					<path fill="#FFFFFF" stroke="#1D2132" stroke-width="0.1" stroke-linecap="square" stroke-miterlimit="22.9256" d="M62.43,6.12
						c0,0.43-0.07,0.79-0.16,0.79s-0.16-0.35-0.16-0.79c0-0.43,0.07-0.79,0.15-0.79C62.36,5.32,62.43,5.68,62.43,6.12z"/>
				</g>
			</g>
		</g>
	</g>
	<g>
		
			<rect x="56.51" y="39.4" fill="#FFFFFF" stroke="#1D2132" stroke-width="0.1" stroke-linecap="square" stroke-miterlimit="10" width="23.94" height="7.81"/>
		<g>
			<path fill="#FFFFFF" stroke="#1D2132" stroke-width="0.1" stroke-linecap="square" stroke-miterlimit="10" d="M68.49,42.29
				c-0.06,0-0.11-0.05-0.11-0.11v-0.36c0-0.12,0.1-0.19,0.22-0.27c0.14-0.1,0.32-0.21,0.37-0.47c0.03-0.17-0.03-0.32-0.16-0.42
				c-0.14-0.1-0.34-0.11-0.51-0.03C67.95,40.81,68,41.17,68,41.17c0.01,0.06-0.03,0.11-0.09,0.12c-0.06,0.01-0.12-0.03-0.13-0.09
				c-0.03-0.18,0.02-0.56,0.4-0.75c0.24-0.12,0.53-0.1,0.74,0.05c0.2,0.14,0.29,0.38,0.25,0.63c-0.06,0.34-0.3,0.51-0.46,0.61
				c-0.04,0.03-0.11,0.07-0.12,0.09v0.35C68.6,42.25,68.55,42.29,68.49,42.29z M68.6,41.83L68.6,41.83L68.6,41.83z"/>
			<path fill="#FFFFFF" stroke="#1D2132" stroke-width="0.1" stroke-linecap="square" stroke-miterlimit="10" d="M72.27,44.68h-7.58
				c-0.28,0-0.6,0.07-0.67-0.2c-0.07-0.27,0.05-0.53,0.3-0.66c0.01,0,0.01-0.01,0.02-0.01l3.46-1.59c0.03-0.01,0.06-0.02,0.09-0.02
				h1.17c0.03,0,0.06,0.01,0.09,0.02l3.46,1.59c0.01,0,0.01,0,0.02,0.01c0.25,0.13,0.37,0.4,0.3,0.66
				C72.87,44.74,72.55,44.68,72.27,44.68z M64.28,44.2c-0.09,0.05-0.08,0.14-0.07,0.17c0.01,0.03,0.04,0.12,0.15,0.12h8.24
				c0.12,0,0.15-0.09,0.15-0.12c0.01-0.03,0.02-0.12-0.07-0.17l-3.66-1.02h-1.08L64.28,44.2z"/>
		</g>
	</g>
	<g>
		<g>
			
				<rect x="20.74" y="29.14" transform="matrix(-1.836970e-16 1 -1 -1.836970e-16 68.0042 21.4675)" fill="#FFFFFF" stroke="#1D2132" stroke-width="0.1" stroke-linecap="square" stroke-miterlimit="10" width="5.06" height="31.19"/>
			<g>
				<polygon fill="#FFFFFF" stroke="#1D2132" stroke-width="0.1" stroke-linecap="square" stroke-miterlimit="10" points="
					35.74,42.13 36.3,42.13 36.3,41.59 33.07,41.59 33.07,42.13 33.63,42.13 33.63,41.78 35.74,41.78 				"/>
				<polygon fill="#FFFFFF" stroke="#1D2132" stroke-width="0.1" stroke-linecap="square" stroke-miterlimit="10" points="
					12.91,42.13 13.47,42.13 13.47,41.59 10.24,41.59 10.24,42.13 10.8,42.13 10.8,41.78 12.91,41.78 				"/>
			</g>
			<g>
				<polygon fill="#FFFFFF" stroke="#1D2132" stroke-width="0.1" stroke-linecap="square" stroke-miterlimit="10" points="
					29.74,42.13 30.3,42.13 30.3,41.59 27.07,41.59 27.07,42.13 27.63,42.13 27.63,41.78 29.74,41.78 				"/>
				<polygon fill="#FFFFFF" stroke="#1D2132" stroke-width="0.1" stroke-linecap="square" stroke-miterlimit="10" points="
					18.91,42.13 19.47,42.13 19.47,41.59 16.24,41.59 16.24,42.13 16.8,42.13 16.8,41.78 18.91,41.78 				"/>
			</g>
		</g>
		<g>
			<path fill="#FFFFFF" stroke="#1D2132" stroke-width="0.1" stroke-linecap="square" stroke-miterlimit="10" d="M21.26,45.29v-0.36
				c0-0.5,0.41-0.91,0.91-0.91h2.19c0.5,0,0.91,0.41,0.91,0.91v0.36c0,0.5-0.41,0.91-0.91,0.91h-2.19
				C21.67,46.2,21.26,45.79,21.26,45.29z"/>
			<path fill="#FFFFFF" stroke="#1D2132" stroke-width="0.1" stroke-linecap="square" stroke-miterlimit="10" d="M22.01,44.93v-0.11
				c0-0.22,0.18-0.39,0.39-0.39h1.74c0.22,0,0.39,0.18,0.39,0.39v0.11c0,0.22-0.18,0.39-0.39,0.39H22.4
				C22.18,45.32,22.01,45.14,22.01,44.93z"/>
			
				<rect x="23.18" y="37.42" transform="matrix(-1.836970e-16 1 -1 -1.836970e-16 67.7755 21.2387)" fill="#FFFFFF" stroke="#1D2132" stroke-width="0.1" stroke-linecap="square" stroke-miterlimit="10" width="0.18" height="14.18"/>
			<polygon fill="#FFFFFF" stroke="#1D2132" stroke-width="0.1" stroke-linecap="square" stroke-miterlimit="10" points="
				18.23,44.97 16.18,44.6 30.36,44.6 28.31,44.97 			"/>
		</g>
	</g>
	<g>
		<g>
			<path fill="#FFFFFF" stroke="#1D2132" stroke-width="0.1" stroke-linecap="square" stroke-miterlimit="10" d="M46.45,10.13
				c-0.14-0.58-0.12-1.33-0.12-1.82c0-0.48-0.03-1.23,0.11-1.82c0.14-0.6,0.45-0.85,1.48-0.77c1.02,0.08,3.52,0.24,4.03,0.44
				c0.45,0.18,0.48,0.98,0.48,2.15c0,1.16-0.03,1.97-0.48,2.15c-0.51,0.2-3.01,0.36-4.03,0.44C46.91,10.99,46.6,10.73,46.45,10.13z
				 M51.13,9.02c0.04-0.05,0.07-0.35,0.07-0.71c0-0.35-0.03-0.65-0.07-0.71c-0.04-0.06-0.15-0.08-0.24-0.08
				c-0.09,0,0.03,0.21,0.03,0.79c0,0.59-0.13,0.79-0.03,0.78C50.98,9.1,51.09,9.08,51.13,9.02z"/>
			<path fill="#FFFFFF" stroke="#1D2132" stroke-width="0.1" stroke-linecap="square" stroke-miterlimit="10" d="M46.45,10.13
				c-0.14-0.58-0.11-1.33-0.11-1.82c0-0.48-0.03-1.23,0.11-1.82c0.14-0.6,0.44-0.85,1.44-0.77c0.99,0.08,3.42,0.24,3.92,0.44
				c0.44,0.18,0.47,0.98,0.47,2.15c0,1.16-0.03,1.97-0.47,2.15c-0.5,0.2-2.92,0.36-3.92,0.44C46.89,10.99,46.59,10.73,46.45,10.13z
				 M50.99,9.02c0.04-0.05,0.07-0.35,0.07-0.71c0-0.35-0.03-0.65-0.07-0.71c-0.04-0.06-0.15-0.08-0.23-0.08
				c-0.09,0,0.03,0.21,0.03,0.79c0,0.59-0.13,0.79-0.03,0.78C50.85,9.1,50.95,9.08,50.99,9.02z"/>
			<path fill="#FFFFFF" stroke="#1D2132" stroke-width="0.1" stroke-linecap="square" stroke-miterlimit="10" d="M47.57,5.92
				c0.79,0.08,1.87,0.05,2.27,0.23c0.35,0.16,0.68,1.08,0.69,2.16c0,1.08-0.33,1.99-0.68,2.16c-0.4,0.18-1.48,0.16-2.27,0.24
				c-0.79,0.08-1.04-0.16-1.15-0.71c-0.11-0.54-0.09-1.24-0.09-1.68c0-0.45-0.02-1.14,0.09-1.68C46.53,6.08,46.78,5.84,47.57,5.92z"
				/>
		</g>
		<g>
			<path fill="#FFFFFF" stroke="#1D2132" stroke-width="0.1" stroke-linecap="square" stroke-miterlimit="10" d="M45.99,16.86
				c0.05-0.6,0.3-1.3,0.45-1.76c0.15-0.46,0.35-1.18,0.66-1.7c0.32-0.52,0.69-0.67,1.64-0.28c0.95,0.39,3.28,1.31,3.7,1.65
				c0.38,0.31,0.16,1.08-0.2,2.19c-0.36,1.11-0.63,1.87-1.11,1.89c-0.55,0.03-2.97-0.58-3.97-0.82
				C46.16,17.81,45.94,17.47,45.99,16.86z M50.78,17.24c0.05-0.04,0.18-0.31,0.28-0.65c0.11-0.34,0.17-0.63,0.15-0.7
				c-0.02-0.07-0.12-0.12-0.2-0.15c-0.09-0.03-0.04,0.2-0.22,0.76c-0.18,0.56-0.36,0.71-0.27,0.74
				C50.61,17.26,50.72,17.28,50.78,17.24z"/>
			<path fill="#FFFFFF" stroke="#1D2132" stroke-width="0.1" stroke-linecap="square" stroke-miterlimit="10" d="M45.98,16.86
				c0.05-0.6,0.3-1.3,0.45-1.76c0.15-0.46,0.35-1.18,0.66-1.7c0.31-0.53,0.68-0.68,1.6-0.29c0.92,0.39,3.18,1.28,3.59,1.62
				c0.37,0.3,0.14,1.08-0.21,2.19c-0.36,1.11-0.63,1.87-1.1,1.9c-0.53,0.04-2.89-0.56-3.86-0.78
				C46.14,17.81,45.93,17.47,45.98,16.86z M50.65,17.2c0.05-0.04,0.17-0.32,0.28-0.65c0.11-0.34,0.17-0.63,0.15-0.69
				c-0.02-0.07-0.12-0.12-0.2-0.14c-0.08-0.03-0.04,0.2-0.22,0.76c-0.18,0.56-0.36,0.71-0.27,0.74
				C50.48,17.22,50.59,17.24,50.65,17.2z"/>
			<path fill="#FFFFFF" stroke="#1D2132" stroke-width="0.1" stroke-linecap="square" stroke-miterlimit="10" d="M48.34,13.19
				c0.73,0.32,1.77,0.62,2.09,0.92c0.28,0.26,0.32,1.24-0.01,2.26c-0.33,1.03-0.93,1.8-1.31,1.84c-0.43,0.05-1.45-0.3-2.23-0.47
				c-0.78-0.17-0.94-0.47-0.87-1.03c0.06-0.55,0.29-1.2,0.43-1.63c0.14-0.43,0.33-1.09,0.6-1.58
				C47.31,13.03,47.61,12.88,48.34,13.19z"/>
		</g>
		
			<rect x="31.53" y="12.84" transform="matrix(-1.836970e-16 1 -1 -1.836970e-16 59.6164 -28.9058)" fill="#FFFFFF" stroke="#1D2132" stroke-width="0.1" stroke-linecap="square" stroke-miterlimit="10" width="25.47" height="5.02"/>
	</g>
	<g>
		<path fill="#FFFFFF" stroke="#1D2132" stroke-width="0.1" stroke-linecap="square" stroke-miterlimit="10" d="M46.54,45.74
			c0.81,0.09,2.52-0.48,2.64-1.72c0.06-0.61,0.44-0.87,0.86-2.49c0.18-0.7,0.61-1.89-0.06-3.23c-0.67-1.34-2.29-2.35-5.45-1.4
			c-3.16,0.96-3.96,3.79-2.96,5.32c1,1.53,2.09,1.66,2.76,2.22S45.06,45.57,46.54,45.74z"/>
		<path fill="none" stroke="#1D2132" stroke-width="0.1" stroke-linecap="square" stroke-miterlimit="10" d="M49.98,38.29
			c0,0,0.32,1.23,0.1,1.87c-0.44,1.29-0.13,1.14-0.82,2.7c-0.21,0.47-0.57,0.4-0.58,0.5s-0.17,0.78-0.89,1.07
			c-0.72,0.29-1.26,0.5-2.08,0.31c-0.49-0.11-0.83-0.43-0.87-0.59c-0.06-0.28-0.24-0.07-1.05-0.42c-1.15-0.51-1.35-0.82-1.81-1.43
			s-0.65-0.71-0.73-1.36c-0.08-0.65,0.07-1.2,0.07-1.2"/>
		<path fill="none" stroke="#1D2132" stroke-width="0.1" stroke-linecap="square" stroke-miterlimit="10" d="M48.77,39.93
			c0,0-0.72-0.03-0.88,0.35s-0.32,0.6-0.38,0.71c-0.06,0.11-0.06,0.11-0.06,0.11s0.19,0.68,0.41,1.1s0.32,0.49,0.32,0.49"/>
		<path fill="none" stroke="#1D2132" stroke-width="0.1" stroke-linecap="square" stroke-miterlimit="10" d="M47.45,41.1
			c0,0-0.49,0.08-1.18,0.23c-0.69,0.15-1.42,0.54-1.42,0.54s0.04,0.53,0.07,1.02c0.02,0.49-0.06,0.75-0.06,0.75"/>
		<path fill="none" stroke="#1D2132" stroke-width="0.1" stroke-linecap="square" stroke-miterlimit="10" d="M42.7,41.65
			c0,0,0.32-0.51,0.64-0.69c0.32-0.18,0.49-0.1,0.9,0.24s0.61,0.66,0.61,0.66"/>
		<path fill="none" stroke="#1D2132" stroke-width="0.1" stroke-linecap="square" stroke-miterlimit="10" d="M47.5,38.79
			c0,0-0.94-0.27-1.44-0.17c-0.5,0.1-0.5,0.1-0.5,0.1s-0.08-0.07-0.16-0.3c-0.08-0.24-0.06-0.4-0.06-0.4"/>
		<path fill="none" stroke="#1D2132" stroke-width="0.1" stroke-linecap="square" stroke-miterlimit="10" d="M45.55,38.71
			c0,0-0.44,0.29-0.85,0.38c-0.41,0.1-0.81,0.36-0.92,0.52s-0.11,0.16-0.11,0.16s-0.24,0.02-0.4-0.13"/>
		<path fill="none" stroke="#1D2132" stroke-width="0.1" stroke-linecap="square" stroke-miterlimit="10" d="M47.5,38.79
			c0,0,0.2-0.26,0.19-0.44c-0.01-0.18-0.06-0.33-0.06-0.33"/>
		<path fill="#FFFFFF" stroke="#1D2132" stroke-width="0.1" stroke-linecap="square" stroke-miterlimit="10" d="M47.96,44.11
			c0,0-0.11,0.04-0.06,0.09c0.07,0.08,0.11,0.3,0.03,0.36c-0.15,0.1-0.37,0.09-0.63,0.2s-0.42,0.32-0.61,0.25
			c-0.11-0.05-0.07-0.34-0.11-0.39c-0.03-0.03-0.14,0.02-0.14,0.02l0.12,0.45c0,0,0.18,0.21,0.46,0.11s0.47-0.13,0.73-0.24
			s0.47-0.16,0.44-0.43C48.15,44.25,47.96,44.11,47.96,44.11z"/>
	</g>
	<g>
		<path fill="#FFFFFF" stroke="#1D2132" stroke-width="0.1" stroke-linecap="square" stroke-miterlimit="10" d="M83.15,44.14
			c-0.11-0.7-0.1-1.45,0-2.25c0-0.64,0.52-1.17,1.17-1.17c1.38-0.24,2.85-0.38,4.75,0c0.64,0,1.17,0.52,1.17,1.17
			c0.18,0.75,0.18,1.5,0,2.25c0,0.64-0.52,1.17-1.17,1.17c-1.54,0.23-3.13,0.18-4.75,0C83.67,45.31,83.15,44.79,83.15,44.14z"/>
		<g>
			<path fill="#FFFFFF" stroke="#1D2132" stroke-width="0.1" stroke-linecap="square" stroke-miterlimit="10" d="M89.31,40.97
				c0.36,0,0.65,0.32,0.65,0.7"/>
			<path fill="#FFFFFF" stroke="#1D2132" stroke-width="0.1" stroke-linecap="square" stroke-miterlimit="10" d="M83.43,41.67
				c0-0.39,0.29-0.7,0.65-0.7"/>
			<path fill="#FFFFFF" stroke="#1D2132" stroke-width="0.1" stroke-linecap="square" stroke-miterlimit="10" d="M84.08,45.07
				c-0.36,0-0.65-0.32-0.65-0.7"/>
			<path fill="#FFFFFF" stroke="#1D2132" stroke-width="0.1" stroke-linecap="square" stroke-miterlimit="10" d="M89.96,44.36
				c0,0.39-0.29,0.7-0.65,0.7"/>
		</g>
	</g>
	<g>
		<g>
			
				<rect x="86.66" y="43.09" transform="matrix(-6.731565e-07 1 -1 -6.731565e-07 133.7647 -40.1718)" fill="#FFFFFF" stroke="#1D2132" stroke-width="0.1" stroke-linecap="square" stroke-miterlimit="10" width="0.62" height="7.41"/>
			
				<rect x="86.78" y="43.38" transform="matrix(-6.731687e-07 1 -1 -6.731687e-07 133.6397 -40.2967)" fill="#FFFFFF" stroke="#1D2132" stroke-width="0.1" stroke-linecap="square" stroke-miterlimit="10" width="0.37" height="6.59"/>
		</g>
		
			<rect x="92.84" y="44.33" transform="matrix(-6.731683e-07 1 -1 -6.731683e-07 139.9406 -46.3477)" fill="#FFFFFF" stroke="#1D2132" stroke-width="0.1" stroke-linecap="square" stroke-miterlimit="10" width="0.62" height="4.94"/>
		<g>
			
				<rect x="94.99" y="45.55" fill="#FFFFFF" stroke="#1D2132" stroke-width="0.1" stroke-linecap="square" stroke-miterlimit="10" width="0.27" height="0.94"/>
			
				<rect x="94.99" y="46.31" fill="#FFFFFF" stroke="#1D2132" stroke-width="0.1" stroke-linecap="square" stroke-miterlimit="10" width="0.27" height="0.17"/>
		</g>
		<g>
			
				<rect x="93.67" y="45.55" fill="#FFFFFF" stroke="#1D2132" stroke-width="0.1" stroke-linecap="square" stroke-miterlimit="10" width="0.27" height="0.94"/>
			
				<rect x="93.67" y="46.31" fill="#FFFFFF" stroke="#1D2132" stroke-width="0.1" stroke-linecap="square" stroke-miterlimit="10" width="0.27" height="0.17"/>
		</g>
		<g>
			
				<rect x="92.35" y="45.55" fill="#FFFFFF" stroke="#1D2132" stroke-width="0.1" stroke-linecap="square" stroke-miterlimit="10" width="0.27" height="0.94"/>
			
				<rect x="92.35" y="46.31" fill="#FFFFFF" stroke="#1D2132" stroke-width="0.1" stroke-linecap="square" stroke-miterlimit="10" width="0.27" height="0.17"/>
		</g>
		<g>
			
				<rect x="91.03" y="45.55" fill="#FFFFFF" stroke="#1D2132" stroke-width="0.1" stroke-linecap="square" stroke-miterlimit="10" width="0.27" height="0.94"/>
			
				<rect x="91.03" y="46.31" fill="#FFFFFF" stroke="#1D2132" stroke-width="0.1" stroke-linecap="square" stroke-miterlimit="10" width="0.27" height="0.17"/>
		</g>
	</g>
	<g>
		
			<circle fill="#FFFFFF" stroke="#1D2132" stroke-width="0.1" stroke-linecap="square" stroke-miterlimit="22.9256" cx="52.85" cy="43.8" r="1.64"/>
		
			<circle fill="#FFFFFF" stroke="#1D2132" stroke-width="0.1" stroke-linecap="square" stroke-miterlimit="22.9256" cx="52.85" cy="43.8" r="0.35"/>
		<path fill="#FFFFFF" stroke="#1D2132" stroke-width="0.1" stroke-linecap="square" stroke-miterlimit="22.9256" d="M51.62,38.05
			c-0.16-0.36-0.8-0.43-1.41-0.15c-0.62,0.28-0.99,0.8-0.82,1.16l0,0c0.32,0.74,0.71,1.15,1.38,1.74L52,40.24
			C52.04,39.34,51.98,38.78,51.62,38.05z"/>
		<path fill="#FFFFFF" stroke="#1D2132" stroke-width="0.1" stroke-linecap="square" stroke-miterlimit="22.9256" d="M51.22,40.15
			c-0.34,0.15-0.55,0.44-0.46,0.65l0.2,0.45l1.25-0.56l-0.2-0.45C51.92,40.04,51.56,40,51.22,40.15z"/>
		
			<ellipse transform="matrix(0.9125 -0.4092 0.4092 0.9125 -12.2471 24.6924)" fill="#FFFFFF" stroke="#1D2132" stroke-width="0.1" stroke-linecap="square" stroke-miterlimit="22.9256" cx="51.58" cy="40.97" rx="0.68" ry="0.4"/>
		<path fill="#FFFFFF" stroke="#1D2132" stroke-width="0.1" stroke-linecap="square" stroke-miterlimit="22.9256" d="M52.9,43.9
			L52.9,43.9c-0.06,0.03-0.13,0-0.16-0.06l-0.76-1.69c-0.03-0.06,0-0.13,0.06-0.16l0,0c0.06-0.03,0.13,0,0.16,0.06l0.76,1.69
			C52.99,43.8,52.96,43.87,52.9,43.9z"/>
		<path fill="#FFFFFF" stroke="#1D2132" stroke-width="0.1" stroke-linecap="square" stroke-miterlimit="22.9256" d="M52.47,42.94
			L52.47,42.94c-0.06,0.03-0.13,0-0.16-0.06l-0.76-1.69c-0.03-0.06,0-0.13,0.06-0.16l0,0c0.06-0.03,0.13,0,0.16,0.06l0.76,1.69
			C52.56,42.84,52.53,42.91,52.47,42.94z"/>
	</g>
	<g>
		<g>
			<g>
				
					<rect x="11.79" y="3.74" fill="#FFFFFF" stroke="#1D2132" stroke-width="0.1" stroke-linecap="square" stroke-miterlimit="22.9256" width="22.97" height="26.51"/>
				<path fill="#FFFFFF" stroke="#1D2132" stroke-width="0.1" stroke-linecap="square" stroke-miterlimit="22.9256" d="M34.5,5.51
					c0,0,0.05,0.63,0,1.23c-0.08,1.01-0.13,1.65-0.13,2.69c0,1.04,0.15,1.14,0.02,1.3c-0.12,0.16-0.14,0.39,0,0.65
					c0.14,0.26,0.03,1.72,0.03,2.73c0,1.01,0.11,2.6,0.08,3.47c-0.04,0.88-0.17,0.55-0.31,0.61c-0.14,0.06,0.12,0.78,0.24,0.91
					c0.12,0.13,0.07,0.69,0.09,2.61c0.02,1.92-0.13,4.49-0.09,5.52c0.02,0.64,0,1-0.03,1.16c-0.07,0.38,0.01,0.22,0.01,0.65
					c-0.01,0.49-0.29-0.63-0.16-0.01c0.08,0.42,0.25,0.83,0.13,0.73c-0.12-0.1-0.35-0.51-0.42-0.57c-0.07-0.06-0.29-0.4-0.22-0.14
					c0.07,0.26,0.84,0.83,0.64,0.87c-0.23,0.04-0.94,0.06-2.66,0.06c-1.69,0-13.41,0-13.49-0.16c-0.09-0.16-0.09-0.1-0.2,0
					c-0.11,0.1-2.18-0.03-2.59,0.1c-0.41,0.13-1.03,0.1-1.12-0.06c-0.09-0.16-0.07-0.2-0.16-0.06c-0.09,0.13-0.82,0.16-1.2,0.16
					c-0.56,0-0.75,0.21-0.5-0.21c0.25-0.42,0.22-0.75,0.06-0.49c-0.16,0.26-0.2,0.61-0.31,0.68c-0.11,0.06-0.08,0.31-0.1-0.38
					c-0.02-0.68-0.12-5.62-0.08-6.92c0.04-1.3-0.01-2.31,0.03-2.5c0.11-0.5-0.07-1.21-0.03-2.33c0.05-1.41,0.04-3.59,0.06-5.18
					c0.02-1.59,0.02-2.04,0-3.21c-0.02-1.17,0.24-1.61,0.12-1.98c-0.25-0.73-0.03-1.04,0.01-1.59c0.04-0.55-0.09-1.38-0.07-1.65
					c0.02-0.22,0.39,0.62,0.55,0.49c0.16-0.13-0.67-0.52-0.36-0.6c0.31-0.08,4.22,0.08,4.53,0c0.3-0.08,0.22,0,0.22,0s0.91,0,1.56,0
					c0.66,0,14.75,0,15.11,0c0.36,0,0.71,0.07,0.36,0.22s0.36-0.03,0.39,0.25C34.52,4.81,34.38,5.23,34.5,5.51z"/>
				<path fill="#FFFFFF" stroke="#1D2132" stroke-width="0.1" stroke-linecap="square" stroke-miterlimit="22.9256" d="M34.82,10.82
					c0.1,0.75,0.04,4.37-0.05,4.37s0.24-1.24-0.4-1.96c-0.64-0.72-1.33-1.24-1.14-1.01c0.19,0.23,0.21,0.26,0.41,0.43
					c0.21,0.16,0.41,0.23,0.3,0.29c-0.11,0.07-0.8-0.11-1.4-0.3c-0.76-0.23-2.69,0-3.55,0.06c-2.19,0.15-14.51,0.54-15.87,1.52
					c-1.37,0.98-1.24,1.14-1.32,1.47c-0.07,0.33,0.07,1.34-0.05,0.82c-0.12-0.5-0.02-1.54-0.11-2.54c-0.09-1.01-0.21-1.34-0.06-1.41
					c0.15-0.07,1.83-0.98,1.58-0.82c-0.06,0.04-1.49,0.69-1.6,0.66c-0.11-0.03-0.03-0.35,0-0.72c0.04-0.49,0.04-0.49,0.09-0.49
					c0.24,0,0.99-0.08,1.91-0.05c0.92,0.03,0.11-0.2-0.39-0.07c-0.5,0.13-0.06-0.13,0.88-0.39c0.93-0.26,14.63,0.29,15.31,0.06
					c0.67-0.23,2.95-0.52,3.8-0.13C33.99,11,34.74,10.26,34.82,10.82z"/>
				<g>
					<path fill="#FFFFFF" stroke="#1D2132" stroke-width="0.1" stroke-linecap="square" stroke-miterlimit="22.9256" d="M22.11,3.88
						c0.35,0,0.27,0.06,0.18,0.17c-0.09,0.11-0.13,0.27,0,1c0.13,0.73,0.18,1.27-0.04,1.96c-0.22,0.69-0.1,0.78-0.01,0.96
						c0.09,0.18,0.04,0.33-0.22,0.18C21.75,8,20.98,8.21,20.35,8.24c-2.42,0.11-3.48,0.01-5.17-0.08c-0.36-0.02-0.67-0.14-0.85-0.1
						c-0.18,0.04-0.4-0.04-0.26-0.15c0.13-0.11-0.18-1.31-0.09-2.18c0.09-0.87,0.04-1.36-0.01-1.47c-0.04-0.11,0.09-0.44,0.26-0.29
						c0.18,0.15,0.89-0.08,1.24-0.11c0.35-0.04,1.11-0.15,3-0.11c1.89,0.04,2.72,0.02,3.03,0.13C21.81,3.99,22.02,3.88,22.11,3.88z"
						/>
					<path fill="none" stroke="#1D2132" stroke-width="0.1" stroke-linecap="square" stroke-miterlimit="22.9256" d="M21.78,7.67
						c0,0-1.44,0.49-3.6,0.49c-2.16,0-3.72-0.67-3.72-0.67"/>
				</g>
				<g>
					<path fill="#FFFFFF" stroke="#1D2132" stroke-width="0.1" stroke-linecap="square" stroke-miterlimit="22.9256" d="M21.04,6.21
						c0.26,0,0.19,0.05,0.13,0.13c-0.06,0.09-0.1,0.22,0,0.81c0.1,0.59,0.13,1.03-0.03,1.59c-0.16,0.56-0.07,0.63-0.01,0.78
						c0.06,0.15,0.03,0.26-0.16,0.15c-0.19-0.12-0.75,0.05-1.21,0.07C18,9.83,17.23,9.74,16,9.67c-0.26-0.01-0.49-0.11-0.62-0.08
						c-0.13,0.03-0.29-0.03-0.19-0.12c0.1-0.09-0.13-1.06-0.06-1.76c0.06-0.7,0.03-1.1-0.01-1.19c-0.03-0.09,0.06-0.35,0.19-0.23
						c0.13,0.12,0.64-0.06,0.9-0.09c0.26-0.03,0.81-0.12,2.18-0.09c1.37,0.03,1.98,0.02,2.2,0.11C20.82,6.3,20.97,6.21,21.04,6.21z"
						/>
					<path fill="none" stroke="#1D2132" stroke-width="0.1" stroke-linecap="square" stroke-miterlimit="22.9256" d="M20.8,9.28
						c0,0-1.05,0.4-2.62,0.4c-1.57,0-2.7-0.55-2.7-0.55"/>
				</g>
				<g>
					<path fill="#FFFFFF" stroke="#1D2132" stroke-width="0.1" stroke-linecap="square" stroke-miterlimit="22.9256" d="M32.17,3.88
						c0.35,0,0.27,0.06,0.18,0.17c-0.09,0.11-0.13,0.27,0,1c0.13,0.73,0.18,1.27-0.04,1.96c-0.22,0.69-0.1,0.78-0.01,0.96
						c0.09,0.18,0.04,0.33-0.22,0.18C31.81,8,31.04,8.21,30.42,8.24c-2.42,0.11-3.48,0.01-5.17-0.08c-0.36-0.02-0.67-0.14-0.85-0.1
						c-0.18,0.04-0.4-0.04-0.26-0.15c0.13-0.11-0.18-1.31-0.09-2.18c0.09-0.87,0.04-1.36-0.01-1.47c-0.04-0.11,0.09-0.44,0.26-0.29
						c0.18,0.15,0.89-0.08,1.24-0.11c0.35-0.04,1.11-0.15,3-0.11c1.89,0.04,2.72,0.02,3.03,0.13C31.87,3.99,32.08,3.88,32.17,3.88z"
						/>
					<path fill="none" stroke="#1D2132" stroke-width="0.1" stroke-linecap="square" stroke-miterlimit="22.9256" d="M31.84,7.67
						c0,0-1.44,0.49-3.6,0.49c-2.16,0-3.72-0.67-3.72-0.67"/>
				</g>
				<g>
					<path fill="#FFFFFF" stroke="#1D2132" stroke-width="0.1" stroke-linecap="square" stroke-miterlimit="22.9256" d="M31.1,6.21
						c0.26,0,0.19,0.05,0.13,0.13c-0.06,0.09-0.1,0.22,0,0.81c0.1,0.59,0.13,1.03-0.03,1.59c-0.16,0.56-0.07,0.63-0.01,0.78
						c0.06,0.15,0.03,0.26-0.16,0.15c-0.19-0.12-0.75,0.05-1.21,0.07c-1.76,0.09-2.53,0-3.76-0.07c-0.26-0.01-0.49-0.11-0.62-0.08
						c-0.13,0.03-0.29-0.03-0.19-0.12c0.1-0.09-0.13-1.06-0.06-1.76c0.06-0.7,0.03-1.1-0.01-1.19c-0.03-0.09,0.06-0.35,0.19-0.23
						c0.13,0.12,0.64-0.06,0.9-0.09c0.26-0.03,0.81-0.12,2.18-0.09c1.37,0.03,1.98,0.02,2.2,0.11C30.88,6.3,31.03,6.21,31.1,6.21z"
						/>
					<path fill="none" stroke="#1D2132" stroke-width="0.1" stroke-linecap="square" stroke-miterlimit="22.9256" d="M30.86,9.28
						c0,0-1.05,0.4-2.62,0.4c-1.57,0-2.7-0.55-2.7-0.55"/>
				</g>
				<path fill="#FFFFFF" stroke="#1D2132" stroke-width="0.1" stroke-linecap="square" stroke-miterlimit="22.9256" d="M12.3,30.02
					h22.12c0.35,0,0.62-0.28,0.62-0.62v-8.04c0-0.35-0.28-0.62-0.62-0.62H12.3c-0.35,0-0.62,0.28-0.62,0.62v8.04
					C11.68,29.74,11.96,30.02,12.3,30.02z"/>
			</g>
			<g>
				
					<rect x="7.96" y="2.62" transform="matrix(-1 4.498656e-11 -4.498656e-11 -1 46.545 5.8781)" fill="#FFFFFF" stroke="#1D2132" stroke-width="0.1" stroke-linecap="square" stroke-miterlimit="22.9256" width="30.63" height="0.64"/>
				<path fill="#FFFFFF" stroke="#1D2132" stroke-width="0.1" stroke-linecap="square" stroke-miterlimit="22.9256" d="M8.7,3.74
					h29.15c0.26,0,0.47-0.21,0.47-0.47V3.26H8.23v0.01C8.23,3.53,8.44,3.74,8.7,3.74z"/>
				<g>
					<g>
						<g>
							<path fill="#FFFFFF" stroke="#1D2132" stroke-width="0.1" stroke-linecap="square" stroke-miterlimit="22.9256" d="
								M8.98,3.26h0.96v0.13c0,0.26-0.21,0.47-0.47,0.47H9.45c-0.26,0-0.47-0.21-0.47-0.47V3.26z"/>
							<path fill="#FFFFFF" stroke="#1D2132" stroke-width="0.1" stroke-linecap="square" stroke-miterlimit="22.9256" d="
								M12.51,6.83l-0.72,0.17c-0.04,0.41-0.02,0.81,0.06,1.22l0,0c0.03,0.11,0.31,0.13,0.63,0.05c0.32-0.08,0.56-0.22,0.54-0.33
								l0,0C12.91,7.56,12.74,7.19,12.51,6.83z"/>
							
								<ellipse transform="matrix(0.9728 -0.2315 0.2315 0.9728 -1.2723 2.9997)" fill="#FFFFFF" stroke="#1D2132" stroke-width="0.1" stroke-linecap="square" stroke-miterlimit="22.9256" cx="12.15" cy="6.92" rx="0.37" ry="0.12"/>
							<path fill="#FFFFFF" stroke="#1D2132" stroke-width="0.1" stroke-linecap="square" stroke-miterlimit="22.9256" d="
								M12.05,6.88l-0.03-0.07c0,0-0.16-0.41-0.76-0.71c-0.11-0.06-0.24-0.11-0.37-0.16c-0.38-0.16-0.81-0.34-1.1-0.71
								C9.4,4.74,9.41,3.97,9.41,3.94l0-0.08l0.16,0l0,0.08c0,0.01,0,0.74,0.35,1.19c0.26,0.34,0.66,0.5,1.04,0.66
								c0.13,0.06,0.26,0.11,0.38,0.17c0.66,0.33,0.83,0.77,0.84,0.79l0.03,0.07C12.2,6.86,12.1,6.89,12.05,6.88z"/>
						</g>
					</g>
					<g>
						<g>
							<path fill="#FFFFFF" stroke="#1D2132" stroke-width="0.1" stroke-linecap="square" stroke-miterlimit="22.9256" d="
								M37.56,3.26H36.6v0.13c0,0.26,0.21,0.47,0.47,0.47h0.03c0.26,0,0.47-0.21,0.47-0.47V3.26z"/>
							<path fill="#FFFFFF" stroke="#1D2132" stroke-width="0.1" stroke-linecap="square" stroke-miterlimit="22.9256" d="
								M34.04,6.83l0.72,0.17c0.04,0.41,0.02,0.81-0.06,1.22l0,0c-0.03,0.11-0.31,0.13-0.63,0.05c-0.32-0.08-0.56-0.22-0.54-0.33
								l0,0C33.64,7.56,33.8,7.19,34.04,6.83z"/>
							
								<ellipse transform="matrix(0.2315 -0.9728 0.9728 0.2315 19.703 38.7841)" fill="#FFFFFF" stroke="#1D2132" stroke-width="0.1" stroke-linecap="square" stroke-miterlimit="22.9256" cx="34.4" cy="6.92" rx="0.12" ry="0.37"/>
							<path fill="#FFFFFF" stroke="#1D2132" stroke-width="0.1" stroke-linecap="square" stroke-miterlimit="22.9256" d="
								M34.5,6.88l0.03-0.07c0,0,0.16-0.41,0.76-0.71c0.11-0.06,0.24-0.11,0.37-0.16c0.38-0.16,0.81-0.34,1.1-0.71
								c0.38-0.49,0.38-1.25,0.38-1.29l0-0.08l-0.16,0l0,0.08c0,0.01,0,0.74-0.35,1.19c-0.26,0.34-0.66,0.5-1.04,0.66
								c-0.13,0.06-0.26,0.11-0.38,0.17c-0.66,0.33-0.83,0.77-0.84,0.79l-0.03,0.07C34.35,6.86,34.44,6.89,34.5,6.88z"/>
						</g>
					</g>
				</g>
			</g>
		</g>
	</g>
	<g>
		<g>
			
				<rect x="-0.24" y="24.37" transform="matrix(4.500762e-11 -1 1 4.500762e-11 -20.0355 29.4408)" fill="#FFFFFF" stroke="#1D2132" stroke-width="0.1" stroke-linecap="square" stroke-miterlimit="10" width="9.88" height="0.74"/>
			
				<line fill="none" stroke="#1D2132" stroke-width="0.1" stroke-linecap="square" stroke-miterlimit="10" x1="4.48" y1="28.9" x2="4.93" y2="28.9"/>
			
				<line fill="none" stroke="#1D2132" stroke-width="0.1" stroke-linecap="square" stroke-miterlimit="10" x1="4.48" y1="28.63" x2="4.93" y2="28.63"/>
			
				<line fill="none" stroke="#1D2132" stroke-width="0.1" stroke-linecap="square" stroke-miterlimit="10" x1="4.48" y1="29.43" x2="4.93" y2="29.43"/>
			
				<line fill="none" stroke="#1D2132" stroke-width="0.1" stroke-linecap="square" stroke-miterlimit="10" x1="4.48" y1="29.17" x2="4.93" y2="29.17"/>
			
				<line fill="none" stroke="#1D2132" stroke-width="0.1" stroke-linecap="square" stroke-miterlimit="10" x1="4.48" y1="28.37" x2="4.93" y2="28.37"/>
			
				<line fill="none" stroke="#1D2132" stroke-width="0.1" stroke-linecap="square" stroke-miterlimit="10" x1="4.48" y1="28.1" x2="4.93" y2="28.1"/>
			
				<line fill="none" stroke="#1D2132" stroke-width="0.1" stroke-linecap="square" stroke-miterlimit="10" x1="4.48" y1="27.83" x2="4.93" y2="27.83"/>
			
				<line fill="none" stroke="#1D2132" stroke-width="0.1" stroke-linecap="square" stroke-miterlimit="10" x1="4.48" y1="27.57" x2="4.93" y2="27.57"/>
			
				<line fill="none" stroke="#1D2132" stroke-width="0.1" stroke-linecap="square" stroke-miterlimit="10" x1="4.48" y1="27.3" x2="4.93" y2="27.3"/>
			
				<line fill="none" stroke="#1D2132" stroke-width="0.1" stroke-linecap="square" stroke-miterlimit="10" x1="4.48" y1="27.03" x2="4.93" y2="27.03"/>
			
				<line fill="none" stroke="#1D2132" stroke-width="0.1" stroke-linecap="square" stroke-miterlimit="10" x1="4.48" y1="26.23" x2="4.93" y2="26.23"/>
			
				<line fill="none" stroke="#1D2132" stroke-width="0.1" stroke-linecap="square" stroke-miterlimit="10" x1="4.48" y1="25.97" x2="4.93" y2="25.97"/>
			
				<line fill="none" stroke="#1D2132" stroke-width="0.1" stroke-linecap="square" stroke-miterlimit="10" x1="4.48" y1="26.77" x2="4.93" y2="26.77"/>
			
				<line fill="none" stroke="#1D2132" stroke-width="0.1" stroke-linecap="square" stroke-miterlimit="10" x1="4.48" y1="26.5" x2="4.93" y2="26.5"/>
			
				<line fill="none" stroke="#1D2132" stroke-width="0.1" stroke-linecap="square" stroke-miterlimit="10" x1="4.48" y1="25.7" x2="4.93" y2="25.7"/>
			
				<line fill="none" stroke="#1D2132" stroke-width="0.1" stroke-linecap="square" stroke-miterlimit="10" x1="4.48" y1="25.43" x2="4.93" y2="25.43"/>
			
				<line fill="none" stroke="#1D2132" stroke-width="0.1" stroke-linecap="square" stroke-miterlimit="10" x1="4.48" y1="25.17" x2="4.93" y2="25.17"/>
			
				<line fill="none" stroke="#1D2132" stroke-width="0.1" stroke-linecap="square" stroke-miterlimit="10" x1="4.48" y1="24.9" x2="4.93" y2="24.9"/>
			
				<line fill="none" stroke="#1D2132" stroke-width="0.1" stroke-linecap="square" stroke-miterlimit="10" x1="4.48" y1="24.63" x2="4.93" y2="24.63"/>
			
				<line fill="none" stroke="#1D2132" stroke-width="0.1" stroke-linecap="square" stroke-miterlimit="10" x1="4.48" y1="24.37" x2="4.93" y2="24.37"/>
			
				<line fill="none" stroke="#1D2132" stroke-width="0.1" stroke-linecap="square" stroke-miterlimit="10" x1="4.48" y1="23.57" x2="4.93" y2="23.57"/>
			
				<line fill="none" stroke="#1D2132" stroke-width="0.1" stroke-linecap="square" stroke-miterlimit="10" x1="4.48" y1="23.3" x2="4.93" y2="23.3"/>
			
				<line fill="none" stroke="#1D2132" stroke-width="0.1" stroke-linecap="square" stroke-miterlimit="10" x1="4.48" y1="24.1" x2="4.93" y2="24.1"/>
			
				<line fill="none" stroke="#1D2132" stroke-width="0.1" stroke-linecap="square" stroke-miterlimit="10" x1="4.48" y1="23.83" x2="4.93" y2="23.83"/>
			
				<line fill="none" stroke="#1D2132" stroke-width="0.1" stroke-linecap="square" stroke-miterlimit="10" x1="4.48" y1="23.03" x2="4.93" y2="23.03"/>
			
				<line fill="none" stroke="#1D2132" stroke-width="0.1" stroke-linecap="square" stroke-miterlimit="10" x1="4.48" y1="22.77" x2="4.93" y2="22.77"/>
			
				<line fill="none" stroke="#1D2132" stroke-width="0.1" stroke-linecap="square" stroke-miterlimit="10" x1="4.48" y1="22.5" x2="4.93" y2="22.5"/>
			
				<line fill="none" stroke="#1D2132" stroke-width="0.1" stroke-linecap="square" stroke-miterlimit="10" x1="4.48" y1="22.23" x2="4.93" y2="22.23"/>
			
				<line fill="none" stroke="#1D2132" stroke-width="0.1" stroke-linecap="square" stroke-miterlimit="10" x1="4.48" y1="21.97" x2="4.93" y2="21.97"/>
			
				<line fill="none" stroke="#1D2132" stroke-width="0.1" stroke-linecap="square" stroke-miterlimit="10" x1="4.48" y1="21.7" x2="4.93" y2="21.7"/>
			
				<line fill="none" stroke="#1D2132" stroke-width="0.1" stroke-linecap="square" stroke-miterlimit="10" x1="4.48" y1="20.9" x2="4.93" y2="20.9"/>
			
				<line fill="none" stroke="#1D2132" stroke-width="0.1" stroke-linecap="square" stroke-miterlimit="10" x1="4.48" y1="20.63" x2="4.93" y2="20.63"/>
			
				<line fill="none" stroke="#1D2132" stroke-width="0.1" stroke-linecap="square" stroke-miterlimit="10" x1="4.48" y1="21.43" x2="4.93" y2="21.43"/>
			
				<line fill="none" stroke="#1D2132" stroke-width="0.1" stroke-linecap="square" stroke-miterlimit="10" x1="4.48" y1="21.17" x2="4.93" y2="21.17"/>
			
				<line fill="none" stroke="#1D2132" stroke-width="0.1" stroke-linecap="square" stroke-miterlimit="10" x1="4.48" y1="20.37" x2="4.93" y2="20.37"/>
			
				<line fill="none" stroke="#1D2132" stroke-width="0.1" stroke-linecap="square" stroke-miterlimit="10" x1="4.48" y1="20.1" x2="4.93" y2="20.1"/>
		</g>
		<path fill="none" stroke="#1D2132" stroke-width="0.1" stroke-linecap="square" stroke-miterlimit="10" d="M5.22,38.6
			c0-0.39,0.69,0,0.69-0.39c0-0.39-0.69,0-0.69-0.39s0.69,0,0.69-0.39c0-0.39-0.69,0-0.69-0.39c0-0.39,0.69,0,0.69-0.39
			s-0.69,0-0.69-0.39c0-0.39,0.69,0,0.69-0.39c0-0.39-0.69,0-0.69-0.39c0-0.39,0.69,0,0.69-0.39c0-0.39-0.69,0-0.69-0.39
			s0.69,0,0.69-0.39c0-0.39-0.69,0-0.69-0.39c0-0.39,0.69,0,0.69-0.39s-0.69,0-0.69-0.39c0-0.39,0.69,0,0.69-0.39
			c0-0.39-0.69,0-0.69-0.39c0-0.39,0.69,0,0.69-0.39s-0.69,0-0.69-0.39c0-0.39,0.69,0,0.69-0.39c0-0.39-0.69,0-0.69-0.39
			s0.69,0,0.69-0.39s-0.69,0-0.69-0.39c0-0.39,0.69,0,0.69-0.39c0-0.39-0.69,0-0.69-0.39s0.69,0,0.69-0.39s-0.69,0-0.69-0.39
			c0-0.39,0.69,0,0.69-0.39c0-0.39-0.69,0-0.69-0.39s0.69,0,0.69-0.39c0-0.39-0.69,0-0.69-0.39c0-0.39,0.69,0,0.69-0.39
			s-0.69,0-0.69-0.39s0.69,0,0.69-0.39"/>
		<path fill="none" stroke="#1D2132" stroke-width="0.1" stroke-linecap="square" stroke-miterlimit="10" d="M5.22,10.8
			c0,0.39,0.69,0,0.69,0.39c0,0.39-0.69,0-0.69,0.39c0,0.39,0.69,0,0.69,0.39s-0.69,0-0.69,0.39c0,0.39,0.69,0,0.69,0.39
			c0,0.39-0.69,0-0.69,0.39c0,0.39,0.69,0,0.69,0.39c0,0.39-0.69,0-0.69,0.39c0,0.39,0.69,0,0.69,0.39c0,0.39-0.69,0-0.69,0.39
			c0,0.39,0.69,0,0.69,0.39c0,0.39-0.69,0-0.69,0.39c0,0.39,0.69,0,0.69,0.39s-0.69,0-0.69,0.39c0,0.39,0.69,0,0.69,0.39
			c0,0.39-0.69,0-0.69,0.39s0.69,0,0.69,0.39c0,0.39-0.69,0-0.69,0.39c0,0.39,0.69,0,0.69,0.39s-0.69,0-0.69,0.39s0.69,0,0.69,0.39
			c0,0.39-0.69,0-0.69,0.39c0,0.39,0.69,0,0.69,0.39s-0.69,0-0.69,0.39s0.69,0,0.69,0.39c0,0.39-0.69,0-0.69,0.39
			c0,0.39,0.69,0,0.69,0.39s-0.69,0-0.69,0.39s0.69,0,0.69,0.39c0,0.39-0.69,0-0.69,0.39c0,0.39,0.69,0,0.69,0.39s-0.69,0-0.69,0.39
			c0,0.39,0.69,0,0.69,0.39"/>
	</g>
</g>
<g id="Plumbing">
	<g>
		<polyline fill="#FFFFFF" points="79.07,5.54 79.07,5.64 79.07,5.74 79.1,5.93 79.14,6.12 79.21,6.3 79.3,6.48 79.4,6.64 
			79.53,6.79 79.66,6.92 79.86,7.07 80.08,7.2 80.3,7.31 80.53,7.41 80.79,7.5 81,7.57 81.24,7.63 81.48,7.68 81.73,7.72 
			81.97,7.74 82.19,7.75 82.41,7.74 82.65,7.71 82.9,7.68 83.14,7.63 83.38,7.57 83.62,7.49 83.85,7.41 84.08,7.31 84.3,7.2 
			84.52,7.07 84.72,6.92 84.85,6.79 84.98,6.64 85.08,6.48 85.17,6.3 85.24,6.12 85.28,5.93 85.31,5.74 85.31,5.54 85.31,2.76 
			79.07,2.76 79.07,5.54 		"/>
		
			<line fill="none" stroke="#1D2132" stroke-width="0.1" stroke-linecap="square" stroke-miterlimit="10" x1="85.31" y1="2.76" x2="79.07" y2="2.76"/>
		
			<line fill="none" stroke="#1D2132" stroke-width="0.1" stroke-linecap="square" stroke-miterlimit="10" x1="85.31" y1="5.54" x2="85.31" y2="2.76"/>
		
			<line fill="none" stroke="#1D2132" stroke-width="0.1" stroke-linecap="square" stroke-miterlimit="10" x1="79.07" y1="5.54" x2="79.07" y2="2.76"/>
		
			<line fill="none" stroke="#1D2132" stroke-width="0.1" stroke-linecap="square" stroke-miterlimit="10" x1="81.21" y1="2.76" x2="83.17" y2="2.76"/>
		
			<line fill="none" stroke="#1D2132" stroke-width="0.1" stroke-linecap="square" stroke-miterlimit="10" x1="82.38" y1="4.99" x2="82.71" y2="4.99"/>
		
			<line fill="none" stroke="#1D2132" stroke-width="0.1" stroke-linecap="square" stroke-miterlimit="10" x1="82.19" y1="4.79" x2="82.19" y2="4.44"/>
		
			<line fill="none" stroke="#1D2132" stroke-width="0.1" stroke-linecap="square" stroke-miterlimit="10" x1="81.66" y1="4.99" x2="82" y2="4.99"/>
		
			<line fill="none" stroke="#1D2132" stroke-width="0.1" stroke-linecap="square" stroke-miterlimit="10" x1="82.19" y1="5.55" x2="82.19" y2="5.2"/>
		<path fill="none" stroke="#1D2132" stroke-width="0.1" stroke-linecap="square" stroke-miterlimit="10" d="M79.44,5.72
			c0.22-0.57,0.59-1.06,1.08-1.39"/>
		<path fill="none" stroke="#1D2132" stroke-width="0.1" stroke-linecap="square" stroke-miterlimit="10" d="M80.54,4.33
			c0.43-0.28,0.92-0.42,1.43-0.42c0.07,0,0.15,0,0.22,0.01"/>
		<path fill="none" stroke="#1D2132" stroke-width="0.1" stroke-linecap="square" stroke-miterlimit="10" d="M83.85,4.32
			c0.49,0.34,0.87,0.82,1.08,1.39"/>
		<path fill="none" stroke="#1D2132" stroke-width="0.1" stroke-linecap="square" stroke-miterlimit="10" d="M82.19,3.92
			c0.07-0.01,0.15-0.01,0.22-0.01c0.5,0,1,0.15,1.43,0.42"/>
		<path fill="none" stroke="#1D2132" stroke-width="0.1" stroke-linecap="square" stroke-miterlimit="10" d="M81.97,7.74
			c-0.65-0.05-1.3-0.23-1.89-0.54"/>
		<path fill="none" stroke="#1D2132" stroke-width="0.1" stroke-linecap="square" stroke-miterlimit="10" d="M85.31,5.55
			c0,0.02,0,0.05,0,0.07c0,0.5-0.21,0.98-0.59,1.3"/>
		<path fill="none" stroke="#1D2132" stroke-width="0.1" stroke-linecap="square" stroke-miterlimit="10" d="M82.41,7.74
			c-0.07,0.01-0.15,0.01-0.22,0.01s-0.15,0-0.22-0.01"/>
		<path fill="none" stroke="#1D2132" stroke-width="0.1" stroke-linecap="square" stroke-miterlimit="10" d="M80.44,4.43
			c0.58-0.09,1.17-0.14,1.75-0.14s1.16,0.05,1.74,0.14"/>
		<path fill="none" stroke="#1D2132" stroke-width="0.1" stroke-linecap="square" stroke-miterlimit="10" d="M82.19,3.16
			c0.59,0,1.18,0.04,1.76,0.13"/>
		<path fill="none" stroke="#1D2132" stroke-width="0.1" stroke-linecap="square" stroke-miterlimit="10" d="M84.27,3.46
			c0.57,0.68,0.88,1.56,0.88,2.46c0,0.02,0,0.03,0,0.05"/>
		<path fill="none" stroke="#1D2132" stroke-width="0.1" stroke-linecap="square" stroke-miterlimit="10" d="M83.94,3.29
			c0.12,0.02,0.24,0.08,0.32,0.18"/>
		<path fill="none" stroke="#1D2132" stroke-width="0.1" stroke-linecap="square" stroke-miterlimit="10" d="M79.23,5.96
			c0-0.01,0-0.03,0-0.04c0-0.91,0.31-1.78,0.88-2.46"/>
		<path fill="none" stroke="#1D2132" stroke-width="0.1" stroke-linecap="square" stroke-miterlimit="10" d="M80.43,3.28
			c0.58-0.08,1.17-0.13,1.76-0.13"/>
		<path fill="none" stroke="#1D2132" stroke-width="0.1" stroke-linecap="square" stroke-miterlimit="10" d="M80.11,3.47
			c0.08-0.1,0.2-0.16,0.32-0.18"/>
		<path fill="none" stroke="#1D2132" stroke-width="0.1" stroke-linecap="square" stroke-miterlimit="10" d="M79.66,6.91
			c-0.37-0.31-0.59-0.79-0.59-1.3c0-0.02,0-0.05,0-0.07"/>
		<path fill="none" stroke="#1D2132" stroke-width="0.1" stroke-linecap="square" stroke-miterlimit="10" d="M80.07,7.2
			c-0.14-0.08-0.28-0.17-0.41-0.28"/>
		<path fill="none" stroke="#1D2132" stroke-width="0.1" stroke-linecap="square" stroke-miterlimit="10" d="M84.71,6.92
			c-0.12,0.11-0.26,0.2-0.41,0.28"/>
		<path fill="none" stroke="#1D2132" stroke-width="0.1" stroke-linecap="square" stroke-miterlimit="10" d="M84.3,7.2
			c-0.59,0.3-1.23,0.49-1.89,0.54"/>
		<path fill="none" stroke="#1D2132" stroke-width="0.1" stroke-linecap="square" stroke-miterlimit="10" d="M83.05,7.28
			c-0.28,0.07-0.57,0.11-0.86,0.11s-0.58-0.04-0.86-0.11"/>
		<path fill="none" stroke="#1D2132" stroke-width="0.1" stroke-linecap="square" stroke-miterlimit="10" d="M79.76,6.53
			c-0.2-0.19-0.32-0.46-0.32-0.75c0-0.03,0-0.05,0-0.07"/>
		<path fill="none" stroke="#1D2132" stroke-width="0.1" stroke-linecap="square" stroke-miterlimit="10" d="M81.33,7.28
			c-0.57-0.11-1.1-0.37-1.55-0.75"/>
		<path fill="none" stroke="#1D2132" stroke-width="0.1" stroke-linecap="square" stroke-miterlimit="10" d="M84.92,5.71
			c0,0.03,0,0.05,0,0.07c0,0.29-0.11,0.56-0.32,0.75"/>
		<path fill="none" stroke="#1D2132" stroke-width="0.1" stroke-linecap="square" stroke-miterlimit="10" d="M84.61,6.53
			c-0.45,0.39-0.99,0.64-1.56,0.75"/>
		<path fill="none" stroke="#1D2132" stroke-width="0.1" stroke-linecap="square" stroke-miterlimit="10" d="M82.19,4.57
			c-0.22,0-0.41,0.19-0.4,0.43c0,0.24,0.18,0.43,0.4,0.43s0.4-0.19,0.4-0.43S82.41,4.57,82.19,4.57"/>
		<path fill="none" stroke="#1D2132" stroke-width="0.1" stroke-linecap="square" stroke-miterlimit="10" d="M82.19,4.76
			c-0.12,0-0.22,0.11-0.22,0.23c0,0.13,0.1,0.23,0.22,0.23s0.22-0.1,0.22-0.23S82.31,4.76,82.19,4.76"/>
	</g>
	<g>
		<polygon fill="#FFFFFF" points="97.39,14.88 95.71,14.88 95.69,14.88 95.67,14.87 95.64,14.87 95.62,14.85 95.6,14.85 
			95.58,14.85 95.56,14.84 95.54,14.83 95.53,14.81 95.51,14.8 95.5,14.78 95.48,14.76 95.47,14.75 95.46,14.73 95.45,14.71 
			95.44,14.69 90.97,14.69 90.86,14.68 90.75,14.68 90.64,14.66 90.54,14.64 90.43,14.6 90.33,14.58 90.23,14.53 90.13,14.5 
			90.04,14.44 89.94,14.4 89.85,14.34 89.77,14.28 89.68,14.21 89.61,14.14 89.53,14.06 89.46,13.99 89.39,13.91 89.33,13.82 
			89.27,13.74 89.22,13.65 89.17,13.56 89.12,13.47 89.08,13.37 89.04,13.28 89.01,13.18 88.98,13.08 88.95,12.98 88.93,12.88 
			88.92,12.78 88.91,12.68 88.9,12.57 88.9,12.47 88.9,12.37 88.91,12.26 88.92,12.16 88.93,12.06 88.95,11.96 88.98,11.85 
			89.01,11.76 89.04,11.66 89.08,11.57 89.12,11.47 89.17,11.38 89.22,11.28 89.27,11.19 89.33,11.12 89.39,11.03 89.46,10.96 
			89.53,10.88 89.61,10.8 89.68,10.73 89.77,10.66 89.85,10.6 89.94,10.53 90.04,10.49 90.13,10.44 90.23,10.4 90.33,10.35 
			90.43,10.33 90.54,10.3 90.64,10.28 90.75,10.27 90.86,10.26 90.97,10.25 95.44,10.25 95.45,10.23 95.46,10.21 95.47,10.19 
			95.48,10.18 95.5,10.16 95.51,10.14 95.53,10.12 95.54,10.12 95.56,10.1 95.58,10.09 95.6,10.08 95.62,10.08 95.64,10.07 
			95.67,10.07 95.69,10.06 95.71,10.06 97.39,10.06 97.39,12.47 		"/>
		
			<line fill="none" stroke="#1D2132" stroke-width="0.1" stroke-linecap="square" stroke-miterlimit="10" x1="90.97" y1="10.25" x2="95.44" y2="10.25"/>
		
			<line fill="none" stroke="#1D2132" stroke-width="0.1" stroke-linecap="square" stroke-miterlimit="10" x1="97.39" y1="14.88" x2="97.39" y2="10.06"/>
		
			<line fill="none" stroke="#1D2132" stroke-width="0.1" stroke-linecap="square" stroke-miterlimit="10" x1="95.71" y1="10.06" x2="97.39" y2="10.06"/>
		
			<line fill="none" stroke="#1D2132" stroke-width="0.1" stroke-linecap="square" stroke-miterlimit="10" x1="94.65" y1="14.26" x2="94.65" y2="12.47"/>
		
			<line fill="none" stroke="#1D2132" stroke-width="0.1" stroke-linecap="square" stroke-miterlimit="10" x1="94.65" y1="10.69" x2="90.97" y2="10.25"/>
		
			<line fill="none" stroke="#1D2132" stroke-width="0.1" stroke-linecap="square" stroke-miterlimit="10" x1="94.65" y1="10.69" x2="94.65" y2="12.47"/>
		
			<line fill="none" stroke="#1D2132" stroke-width="0.1" stroke-linecap="square" stroke-miterlimit="10" x1="94.65" y1="14.26" x2="90.97" y2="14.69"/>
		
			<line fill="none" stroke="#1D2132" stroke-width="0.1" stroke-linecap="square" stroke-miterlimit="10" x1="90.97" y1="14.69" x2="95.44" y2="14.69"/>
		
			<line fill="none" stroke="#1D2132" stroke-width="0.1" stroke-linecap="square" stroke-miterlimit="10" x1="95.71" y1="14.88" x2="97.39" y2="14.88"/>
		<path fill="none" stroke="#1D2132" stroke-width="0.1" stroke-linecap="square" stroke-miterlimit="10" d="M95.44,10.31
			c-0.08,0.72-0.12,1.44-0.12,2.16s0.03,1.44,0.11,2.16"/>
		<path fill="none" stroke="#1D2132" stroke-width="0.1" stroke-linecap="square" stroke-miterlimit="10" d="M95.71,10.06
			c-0.14,0-0.26,0.11-0.28,0.25"/>
		<path fill="none" stroke="#1D2132" stroke-width="0.1" stroke-linecap="square" stroke-miterlimit="10" d="M90.97,10.25
			c-1.14,0-2.07,1-2.07,2.22c0,1.23,0.93,2.22,2.07,2.22"/>
		<path fill="none" stroke="#1D2132" stroke-width="0.1" stroke-linecap="square" stroke-miterlimit="10" d="M95.43,14.62
			c0.01,0.14,0.14,0.25,0.28,0.25"/>
		<path fill="none" stroke="#1D2132" stroke-width="0.1" stroke-linecap="square" stroke-miterlimit="10" d="M96.56,12.47
			c0,0.13-0.1,0.23-0.24,0.23c-0.13,0-0.24-0.1-0.24-0.23s0.11-0.23,0.24-0.23C96.45,12.24,96.56,12.34,96.56,12.47"/>
	</g>
	<g>
		<path fill="#FFFFFF" d="M74.96,13.22h-10.4c-0.06,0-0.1-0.04-0.1-0.1V2.72c0-0.06,0.04-0.1,0.1-0.1h10.41c0.06,0,0.1,0.04,0.1,0.1
			v10.41C75.06,13.17,75.01,13.22,74.96,13.22z"/>
		
			<line fill="none" stroke="#1D2132" stroke-width="0.1" stroke-linecap="square" stroke-miterlimit="10" x1="67.14" y1="4.97" x2="67.14" y2="4.28"/>
		
			<line fill="none" stroke="#1D2132" stroke-width="0.1" stroke-linecap="square" stroke-miterlimit="10" x1="66.17" y1="5.26" x2="66.85" y2="5.26"/>
		
			<line fill="none" stroke="#1D2132" stroke-width="0.1" stroke-linecap="square" stroke-miterlimit="10" x1="67.14" y1="6.22" x2="67.14" y2="5.56"/>
		
			<line fill="none" stroke="#1D2132" stroke-width="0.1" stroke-linecap="square" stroke-miterlimit="10" x1="67.43" y1="5.26" x2="68.11" y2="5.26"/>
		
			<line fill="none" stroke="#1D2132" stroke-width="0.1" stroke-linecap="square" stroke-miterlimit="10" x1="74.47" y1="6.08" x2="74.47" y2="3.24"/>
		
			<line fill="none" stroke="#1D2132" stroke-width="0.1" stroke-linecap="square" stroke-miterlimit="10" x1="65.01" y1="12.47" x2="65.01" y2="5.97"/>
		<path fill="none" stroke="#1D2132" stroke-width="0.1" stroke-linecap="square" stroke-miterlimit="10" d="M65.13,12.58h9.17
			c0.09,0,0.17-0.08,0.17-0.17V3.24"/>
		
			<line fill="none" stroke="#1D2132" stroke-width="0.1" stroke-linecap="square" stroke-miterlimit="10" x1="67.85" y1="3.13" x2="74.35" y2="3.13"/>
		<g>
			<path fill="none" stroke="#1D2132" stroke-width="0.1" stroke-linecap="square" stroke-miterlimit="10" d="M67.85,3.13
				c-0.06,0-0.13,0.01-0.19,0.03"/>
		</g>
		<g>
			<path fill="none" stroke="#1D2132" stroke-width="0.1" stroke-linecap="square" stroke-miterlimit="10" d="M74.47,3.24
				c0-0.07-0.05-0.12-0.12-0.12"/>
		</g>
		<g>
			<path fill="none" stroke="#1D2132" stroke-width="0.1" stroke-linecap="square" stroke-miterlimit="10" d="M67.85,3.13
				c-0.06,0-0.13,0.01-0.19,0.03"/>
		</g>
		<g>
			<path fill="none" stroke="#1D2132" stroke-width="0.1" stroke-linecap="square" stroke-miterlimit="10" d="M65.01,12.47
				c0,0.07,0.05,0.12,0.12,0.12"/>
		</g>
		<g>
			<path fill="none" stroke="#1D2132" stroke-width="0.1" stroke-linecap="square" stroke-miterlimit="10" d="M67.74,3.13
				c-1.17,0.61-2.12,1.56-2.72,2.72"/>
		</g>
		<g>
			<path fill="none" stroke="#1D2132" stroke-width="0.1" stroke-linecap="square" stroke-miterlimit="10" d="M65.04,5.78
				c-0.02,0.06-0.03,0.12-0.03,0.19"/>
		</g>
		<g>
			<path fill="none" stroke="#1D2132" stroke-width="0.1" stroke-linecap="square" stroke-miterlimit="10" d="M67.67,3.15
				c-1.23,0.42-2.21,1.39-2.62,2.63"/>
		</g>
		<g>
			<path fill="none" stroke="#1D2132" stroke-width="0.1" stroke-linecap="square" stroke-miterlimit="10" d="M65.04,5.78
				c-0.02,0.06-0.03,0.12-0.03,0.19"/>
		</g>
		<g>
			<path fill="none" stroke="#1D2132" stroke-width="0.1" stroke-linecap="square" stroke-miterlimit="10" d="M67.14,4.72
				c0.29,0,0.53,0.24,0.53,0.53c0,0.29-0.24,0.53-0.53,0.53c-0.3,0-0.54-0.23-0.53-0.53C66.61,4.97,66.85,4.72,67.14,4.72"/>
		</g>
		<g>
			<path fill="none" stroke="#1D2132" stroke-width="0.1" stroke-linecap="square" stroke-miterlimit="10" d="M67.14,4.51
				c0.41,0,0.74,0.33,0.75,0.75c0,0.42-0.34,0.75-0.75,0.75c-0.42,0-0.75-0.34-0.75-0.75C66.39,4.85,66.74,4.51,67.14,4.51"/>
		</g>
		<path fill="none" stroke="#1D2132" stroke-width="0.1" stroke-linecap="square" stroke-miterlimit="10" d="M74.77,13.17H64.74
			c-0.16,0-0.29-0.13-0.29-0.29V2.85c0-0.16,0.13-0.29,0.29-0.29h10.03c0.16,0,0.29,0.13,0.29,0.29V12.9
			C75.06,13.04,74.93,13.17,74.77,13.17z"/>
	</g>
	<g>
		<g>
			<path fill="#FFFFFF" stroke="#1D2132" stroke-width="0.1" stroke-linecap="square" stroke-miterlimit="10" d="M70.57,19.78
				c0.11,0,0.21-0.08,0.21-0.17s-0.09-0.17-0.21-0.17c-0.11,0-0.21,0.08-0.21,0.17C70.36,19.71,70.46,19.78,70.57,19.78z"/>
			
				<ellipse fill="#FFFFFF" stroke="#1D2132" stroke-width="0.1" stroke-linecap="square" stroke-miterlimit="10" cx="69.67" cy="19.61" rx="0.21" ry="0.17"/>
			<path fill="#FFFFFF" stroke="#1D2132" stroke-width="0.1" stroke-linecap="square" stroke-miterlimit="10" d="M65.93,19.78
				c0.11,0,0.21-0.08,0.21-0.17s-0.1-0.17-0.21-0.17s-0.21,0.08-0.21,0.17C65.72,19.71,65.82,19.78,65.93,19.78z"/>
			<path fill="#FFFFFF" stroke="#1D2132" stroke-width="0.1" stroke-linecap="square" stroke-miterlimit="10" d="M70.79,19.61
				c0.48,0,0.87,0.1,0.87,0.23v0.58c0,0.13-0.39,0.23-0.87,0.23h-5.06c-0.48,0-0.87-0.1-0.87-0.23v-0.58c0-0.13,0.39-0.23,0.87-0.23
				H70.79z"/>
			
				<rect x="64.46" y="19.91" fill="#FFFFFF" stroke="#1D2132" stroke-width="0.1" stroke-linecap="square" stroke-miterlimit="10" width="7.53" height="5.07"/>
			<path fill="#FFFFFF" stroke="#1D2132" stroke-width="0.1" stroke-linecap="square" stroke-miterlimit="10" d="M70.79,20.19
				c0.47,0,0.86,0.83,0.86,1.85v0.83c0,1.02-0.38,1.85-0.86,1.85h-5.06c-0.47,0-0.86-0.83-0.86-1.85v-0.83
				c0-1.02,0.38-1.85,0.86-1.85H70.79z"/>
		</g>
		<g>
			<path fill="#FFFFFF" stroke="#1D2132" stroke-width="0.1" stroke-linecap="square" stroke-miterlimit="10" d="M65.68,24.29
				L65.68,24.29c0,0.09,0.07,0.17,0.17,0.17h4.6c0.09,0,0.17-0.07,0.17-0.17l0,0c0-0.09-0.07-0.17-0.17-0.17h-4.6
				C65.75,24.12,65.68,24.2,65.68,24.29z"/>
			<g>
				
					<rect x="70.12" y="24.47" fill="#FFFFFF" stroke="#1D2132" stroke-width="0.1" stroke-linecap="square" stroke-miterlimit="10" width="0.29" height="0.78"/>
				
					<rect x="65.86" y="24.47" fill="#FFFFFF" stroke="#1D2132" stroke-width="0.1" stroke-linecap="square" stroke-miterlimit="10" width="0.29" height="0.78"/>
			</g>
			<g>
				
					<rect x="69.96" y="25.25" fill="#FFFFFF" stroke="#1D2132" stroke-width="0.1" stroke-linecap="square" stroke-miterlimit="10" width="0.62" height="0.15"/>
				
					<rect x="65.68" y="25.25" fill="#FFFFFF" stroke="#1D2132" stroke-width="0.1" stroke-linecap="square" stroke-miterlimit="10" width="0.62" height="0.15"/>
			</g>
		</g>
	</g>
</g>
<g id="Windows">
	<g id="Windows_4_1_">
		<path fill="#1D2132" d="M0.28,38.37H4.4V13.9H0.28V38.37z M0.38,38.26V13.99H4.3v24.28H0.38V38.26z"/>
		<g>
			<rect x="1.31" y="14.55" fill="#1D2132" width="1.03" height="23.09"/>
			<rect x="1.44" y="14.55" fill="#FFFFFF" width="0.82" height="22.89"/>
			<line fill="none" stroke="#1D2132" stroke-width="0.1" stroke-miterlimit="10" x1="1.4" y1="34.1" x2="2.27" y2="34.1"/>
			<line fill="none" stroke="#1D2132" stroke-width="0.1" stroke-miterlimit="10" x1="1.38" y1="15.65" x2="2.26" y2="15.65"/>
			<line fill="none" stroke="#1D2132" stroke-width="0.1" stroke-miterlimit="10" x1="1.84" y1="15.64" x2="1.84" y2="25.59"/>
			<line fill="none" stroke="#1D2132" stroke-width="0.1" stroke-miterlimit="10" x1="1.84" y1="25.51" x2="1.84" y2="34.1"/>
		</g>
	</g>
</g>
<g id="Doors">
	<g id="XMLID_20">
		<g>
			<polygon fill="none" stroke="#1D2132" stroke-width="0.1438" stroke-miterlimit="10" points="99.05,27.9 98,27.9 98,27.38 
				99.05,27.38 			"/>
			<polygon fill="none" stroke="#1D2132" stroke-width="0.1438" stroke-miterlimit="10" points="99.05,40.81 98,40.81 98,41.33 
				99.05,41.33 			"/>
			<polyline fill="none" stroke="#1D2132" stroke-width="0.1438" stroke-miterlimit="10" points="88.95,37.03 89.13,37.19 
				89.3,37.35 89.47,37.5 89.64,37.65 89.83,37.81 90.02,37.95 90.21,38.09 90.39,38.24 90.58,38.37 90.78,38.5 90.97,38.63 
				91.17,38.76 91.37,38.88 91.57,39 91.77,39.11 91.99,39.23 92.19,39.33 92.41,39.45 92.62,39.55 92.84,39.65 93.05,39.73 
				93.27,39.82 93.48,39.91 93.7,39.99 93.93,40.06 94.14,40.15 94.37,40.22 94.59,40.28 94.82,40.35 95.05,40.41 95.28,40.47 
				95.51,40.51 95.74,40.55 95.97,40.6 96.2,40.64 96.43,40.67 96.68,40.71 96.91,40.73 97.14,40.75 97.37,40.77 97.61,40.78 
				97.84,40.8 98.07,40.8 			"/>
			<polygon fill="none" stroke="#1D2132" stroke-width="0.1438" stroke-miterlimit="10" points="98.03,28 88.95,37.03 89.3,37.35 
				98.39,28.37 			"/>
		</g>
	</g>
	<g id="XMLID_19">
		<g>
			<g>
				<polygon fill="none" stroke="#1D2132" stroke-width="0.1" stroke-miterlimit="10" points="86.35,25.48 86.35,26.51 86.76,26.51 
					86.76,25.48 				"/>
				<polygon fill="none" stroke="#1D2132" stroke-width="0.1" stroke-miterlimit="10" points="75.94,25.48 75.94,26.51 75.51,26.51 
					75.51,25.48 				"/>
				<polyline fill="none" stroke="#1D2132" stroke-width="0.1" stroke-miterlimit="10" points="79,33.88 78.86,33.74 78.74,33.6 
					78.61,33.46 78.49,33.32 78.36,33.17 78.25,33.01 78.14,32.87 78.01,32.72 77.9,32.57 77.81,32.41 77.69,32.24 77.6,32.08 
					77.5,31.92 77.4,31.76 77.31,31.59 77.22,31.42 77.12,31.25 77.04,31.08 76.97,30.91 76.89,30.74 76.81,30.57 76.74,30.4 
					76.67,30.22 76.6,30.05 76.54,29.86 76.47,29.68 76.42,29.49 76.36,29.32 76.32,29.14 76.26,28.94 76.22,28.76 76.18,28.58 
					76.15,28.4 76.11,28.2 76.08,28.01 76.04,27.83 76.03,27.65 76,27.45 75.99,27.26 75.97,27.08 75.96,26.89 75.94,26.69 
					75.94,26.5 				"/>
				<polygon fill="none" stroke="#1D2132" stroke-width="0.1" stroke-miterlimit="10" points="86.29,26.55 79,33.88 78.74,33.6 
					85.99,26.25 				"/>
			</g>
		</g>
	</g>
</g>
<g id="Text">
	
		<text id="TXT---" transform="matrix(1 0 0 1 19.2967 36.025)" opacity="0.7" fill="#1D2132" enable-background="new    " font-family="'Cannonade-Medium'" font-size="3px">15,10</text>
	
		<text id="TXT--" transform="matrix(1 0 0 1 65.3952 34.1154)" opacity="0.7" fill="#1D2132" enable-background="new    " font-family="'Cannonade-Medium'" font-size="3px">4,16</text>
	
		<text id="TXT--" transform="matrix(1 0 0 1 77.4697 18.02)" opacity="0.7" fill="#1D2132" enable-background="new    " font-family="'Cannonade-Medium'" font-size="3px">4,32</text>
</g>
<g id="Walls">
	<polygon fill="#1D2132" stroke="#1D2132" stroke-width="0.1" stroke-miterlimit="10" points="2.29,14.55 0.33,14.53 0.33,0.28 
		99.71,0.28 99.71,27.33 97.38,27.33 97.38,2.58 4.35,2.58 4.35,13.89 2.29,13.9 	"/>
	<polygon fill="#1D2132" stroke="#1D2132" stroke-width="0.1" stroke-miterlimit="10" points="99.71,49.28 99.71,41.37 97.38,41.37 
		97.38,47.21 4.35,47.21 4.35,35.96 2.3,35.96 2.3,35.24 0.33,35.24 0.33,49.28 	"/>
	<rect x="80.33" y="39.4" fill="#1D2132" stroke="#1D2132" stroke-width="0.1" stroke-miterlimit="10" width="1.04" height="7.81"/>
	<rect x="55.61" y="39.4" fill="#1D2132" stroke="#1D2132" stroke-width="0.1" stroke-miterlimit="10" width="1.04" height="7.81"/>
	<polygon fill="#1D2132" stroke="#1D2132" stroke-width="0.1" stroke-miterlimit="10" points="63.42,2.58 63.42,26.51 75.51,26.51 
		75.51,25.48 64.46,25.48 64.46,2.58 	"/>
	
		<rect x="86.76" y="25.47" fill="#1D2132" stroke="#1D2132" stroke-width="0.1" stroke-miterlimit="10" width="10.61" height="1.04"/>
</g>
<g id="Details">
	<g>
		
			<rect x="95.08" y="2.68" fill="#FFFFFF" stroke="#1D2132" stroke-width="0.5" stroke-linecap="square" stroke-miterlimit="10" width="2" height="2"/>
		<polygon fill="#1D2132" stroke="#1D2132" stroke-width="0.1" stroke-miterlimit="10" points="95.08,2.8 96.3,3.46 96.97,4.67 
			96.97,2.8 		"/>
	</g>
</g>
</svg>
