<?xml version="1.0" encoding="utf-8"?>
<!-- Generator: Adobe Illustrator 22.0.0, SVG Export Plug-In . SVG Version: 6.00 Build 0)  -->
<svg version="1.1" id="Layer_1" xmlns="http://www.w3.org/2000/svg" xmlns:xlink="http://www.w3.org/1999/xlink" x="0px" y="0px"
	 viewBox="0 0 100 50" enable-background="new 0 0 100 50" xml:space="preserve">
<symbol  id="Doors_x5F_2" viewBox="-4.9 -3.57 9.8 7.14">
	<g>
		<polygon fill="none" stroke="#1D2132" stroke-width="0.1" stroke-miterlimit="10" points="-4.49,-3.52 -4.49,-2.79 -4.85,-2.79 
			-4.85,-3.52 		"/>
		<polygon fill="none" stroke="#1D2132" stroke-width="0.1" stroke-miterlimit="10" points="4.49,-3.52 4.49,-2.79 4.85,-2.79 
			4.85,-3.52 		"/>
		<polyline fill="none" stroke="#1D2132" stroke-width="0.1" stroke-miterlimit="10" points="1.86,3.5 1.97,3.38 2.08,3.26 
			2.19,3.14 2.29,3.02 2.4,2.89 2.5,2.76 2.6,2.63 2.7,2.5 2.79,2.37 2.88,2.23 2.97,2.1 3.06,1.96 3.15,1.82 3.23,1.68 3.31,1.54 
			3.39,1.39 3.46,1.25 3.54,1.1 3.61,0.95 3.68,0.8 3.74,0.65 3.8,0.5 3.86,0.35 3.92,0.2 3.97,0.04 4.03,-0.11 4.08,-0.27 
			4.12,-0.42 4.17,-0.58 4.21,-0.74 4.25,-0.9 4.28,-1.06 4.31,-1.22 4.34,-1.38 4.37,-1.54 4.39,-1.7 4.42,-1.87 4.43,-2.03 
			4.45,-2.19 4.46,-2.35 4.47,-2.52 4.48,-2.68 4.48,-2.84 		"/>
		<polygon fill="none" stroke="#1D2132" stroke-width="0.1" stroke-miterlimit="10" points="-4.42,-2.81 1.86,3.5 2.08,3.26 
			-4.16,-3.06 		"/>
	</g>
</symbol>
<g id="Background">
	<rect x="4.3" y="1.37" opacity="0.1" fill="#1D2132" enable-background="new    " width="94.29" height="47.25"/>
</g>
<g id="Furniture">
	<g>
		
			<rect x="54.99" y="29.38" fill="#FFFFFF" stroke="#1D2132" stroke-width="0.1" stroke-linecap="square" stroke-miterlimit="22.9256" width="8.33" height="17.59"/>
		
			<rect x="54.99" y="29.37" fill="#FFFFFF" stroke="#1D2132" stroke-width="0.1" stroke-linecap="square" stroke-miterlimit="22.9256" width="8.33" height="6.48"/>
		
			<rect x="54.99" y="39.97" fill="#FFFFFF" stroke="#1D2132" stroke-width="0.1" stroke-linecap="square" stroke-miterlimit="22.9256" width="8.33" height="7.01"/>
		
			<rect x="54.99" y="24.06" fill="#FFFFFF" stroke="#1D2132" stroke-width="0.1" stroke-linecap="square" stroke-miterlimit="22.9256" width="8.33" height="5.32"/>
		<g>
			
				<line fill="none" stroke="#1D2132" stroke-width="0.1" stroke-linecap="square" stroke-miterlimit="22.9256" x1="60.19" y1="26.71" x2="58.11" y2="26.71"/>
			
				<line fill="none" stroke="#1D2132" stroke-width="0.1" stroke-linecap="square" stroke-miterlimit="22.9256" x1="59.89" y1="25.98" x2="58.42" y2="27.45"/>
			
				<line fill="none" stroke="#1D2132" stroke-width="0.1" stroke-linecap="square" stroke-miterlimit="22.9256" x1="59.16" y1="25.67" x2="59.16" y2="27.76"/>
			
				<line fill="none" stroke="#1D2132" stroke-width="0.1" stroke-linecap="square" stroke-miterlimit="22.9256" x1="58.42" y1="25.98" x2="59.89" y2="27.45"/>
		</g>
		<g>
			
				<rect x="55.33" y="30.13" fill="#FFFFFF" stroke="#1D2132" stroke-width="0.1" stroke-linecap="square" stroke-miterlimit="22.9256" width="7.64" height="4.86"/>
			<g>
				<path fill="#FFFFFF" stroke="#1D2132" stroke-width="0.1" stroke-linecap="square" stroke-miterlimit="22.9256" d="M57.41,33.9
					c0.74,0,1.33-0.6,1.33-1.33c0-0.74-0.59-1.33-1.33-1.33s-1.33,0.59-1.33,1.33C56.08,33.3,56.68,33.9,57.41,33.9"/>
				<path fill="#FFFFFF" stroke="#1D2132" stroke-width="0.1" stroke-linecap="square" stroke-miterlimit="22.9256" d="M61.18,33.9
					c0.73,0,1.33-0.6,1.33-1.33c0-0.74-0.59-1.33-1.33-1.33s-1.33,0.59-1.33,1.33C59.85,33.3,60.44,33.9,61.18,33.9"/>
				<path fill="#FFFFFF" stroke="#1D2132" stroke-width="0.1" stroke-linecap="square" stroke-miterlimit="22.9256" d="M57.41,33.63
					c0.58,0,1.06-0.48,1.06-1.06c0-0.58-0.48-1.06-1.06-1.06s-1.06,0.48-1.06,1.06C56.35,33.15,56.83,33.63,57.41,33.63"/>
				<path fill="#FFFFFF" stroke="#1D2132" stroke-width="0.1" stroke-linecap="square" stroke-miterlimit="22.9256" d="M61.18,33.63
					c0.58,0,1.06-0.48,1.06-1.06c0-0.58-0.48-1.06-1.06-1.06s-1.06,0.48-1.06,1.06C60.12,33.15,60.59,33.63,61.18,33.63"/>
			</g>
		</g>
		<g>
			<path fill="#FFFFFF" stroke="#1D2132" stroke-width="0.1" stroke-linecap="square" stroke-miterlimit="22.9256" d="M61.76,41.85
				v3.21c0,0.27-0.21,0.48-0.48,0.48h-5.3c-0.27,0-0.48-0.21-0.48-0.48v-3.21c0-0.27,0.21-0.48,0.48-0.48h5.3
				C61.55,41.37,61.76,41.58,61.76,41.85z"/>
			<g>
				<path fill="#FFFFFF" stroke="#1D2132" stroke-width="0.1" stroke-linecap="square" stroke-miterlimit="22.9256" d="M60.58,43.79
					c-0.21,0-0.38-0.15-0.38-0.34s0.17-0.34,0.38-0.34c0.21,0,0.38,0.15,0.38,0.34C60.96,43.64,60.79,43.8,60.58,43.79z"/>
				<g>
					<path fill="#FFFFFF" stroke="#1D2132" stroke-width="0.1" stroke-linecap="square" stroke-miterlimit="22.9256" d="
						M62.28,44.02c-0.29-0.01-0.52-0.26-0.52-0.57c0-0.32,0.23-0.57,0.52-0.57s0.52,0.25,0.52,0.57S62.57,44.02,62.28,44.02z"/>
					<path fill="#FFFFFF" stroke="#1D2132" stroke-width="0.1" stroke-linecap="square" stroke-miterlimit="22.9256" d="
						M59.34,43.44c0-0.1,0.11-0.17,0.27-0.17l2.71,0.01c0.15,0,0.27,0.08,0.27,0.17l0,0c0,0.1-0.12,0.17-0.27,0.17l-2.71-0.01
						C59.46,43.61,59.34,43.54,59.34,43.44L59.34,43.44z"/>
					<path fill="#FFFFFF" stroke="#1D2132" stroke-width="0.1" stroke-linecap="square" stroke-miterlimit="22.9256" d="
						M62.26,44.24c-0.09,0-0.15-0.35-0.15-0.79c0-0.43,0.08-0.79,0.16-0.79c0.1,0,0.16,0.35,0.16,0.79
						C62.43,43.89,62.36,44.25,62.26,44.24z"/>
				</g>
			</g>
		</g>
	</g>
	<g>
		
			<rect x="56.04" y="2.22" fill="#FFFFFF" stroke="#1D2132" stroke-width="0.1" stroke-linecap="square" stroke-miterlimit="10" width="24.23" height="8"/>
		<g>
			<path fill="#FFFFFF" stroke="#1D2132" stroke-width="0.1" stroke-linecap="square" stroke-miterlimit="10" d="M68.27,7.31v0.37
				c0.01,0.02,0.08,0.06,0.12,0.09c0.16,0.11,0.41,0.28,0.47,0.64c0.04,0.26-0.05,0.51-0.25,0.66c-0.21,0.16-0.51,0.17-0.75,0.05
				c-0.38-0.2-0.43-0.6-0.41-0.78c0.01-0.06,0.07-0.1,0.13-0.1c0.06,0.01,0.1,0.07,0.1,0.13c0,0-0.05,0.38,0.29,0.55
				c0.17,0.09,0.37,0.07,0.51-0.03c0.13-0.1,0.19-0.26,0.16-0.44c-0.04-0.27-0.23-0.39-0.37-0.49c-0.11-0.08-0.22-0.15-0.22-0.28
				V7.31c0-0.06,0.05-0.11,0.11-0.11C68.22,7.2,68.27,7.25,68.27,7.31z M68.27,7.69L68.27,7.69L68.27,7.69z"/>
			<path fill="#FFFFFF" stroke="#1D2132" stroke-width="0.1" stroke-linecap="square" stroke-miterlimit="10" d="M72.66,4.92
				c0.07,0.28-0.05,0.56-0.31,0.69c-0.01,0-0.01,0.01-0.02,0.01l-3.51,1.66C68.8,7.29,68.77,7.3,68.74,7.3h-1.18
				c-0.03,0-0.06-0.01-0.09-0.02l-3.51-1.66c-0.01,0-0.01-0.01-0.02-0.01c-0.25-0.13-0.38-0.41-0.31-0.69
				c0.07-0.28,0.39-0.21,0.68-0.21h7.67C72.27,4.71,72.59,4.64,72.66,4.92z M67.61,6.27h1.09l3.71-1.06
				c0.1-0.06,0.08-0.15,0.07-0.18C72.47,5,72.44,4.91,72.32,4.91h-8.34c-0.12,0-0.15,0.09-0.16,0.12c-0.01,0.03-0.02,0.12,0.07,0.18
				L67.61,6.27z"/>
		</g>
	</g>
	<g>
		<g>
			
				<rect x="20.35" y="-10.38" transform="matrix(6.123234e-17 -1 1 6.123234e-17 17.9052 28.156)" fill="#FFFFFF" stroke="#1D2132" stroke-width="0.1" stroke-linecap="square" stroke-miterlimit="10" width="5.36" height="31.02"/>
			<g>
				<polygon fill="#FFFFFF" stroke="#1D2132" stroke-width="0.1" stroke-linecap="square" stroke-miterlimit="10" points="
					35.44,7.8 35.99,7.8 35.99,8.34 32.78,8.34 32.78,7.8 33.34,7.8 33.34,8.16 35.44,8.16 				"/>
				<polygon fill="#FFFFFF" stroke="#1D2132" stroke-width="0.1" stroke-linecap="square" stroke-miterlimit="10" points="
					12.72,7.8 13.28,7.8 13.28,8.34 10.07,8.34 10.07,7.8 10.63,7.8 10.63,8.16 12.72,8.16 				"/>
			</g>
			<g>
				<polygon fill="#FFFFFF" stroke="#1D2132" stroke-width="0.1" stroke-linecap="square" stroke-miterlimit="10" points="
					29.47,7.8 30.02,7.8 30.02,8.34 26.81,8.34 26.81,7.8 27.37,7.8 27.37,8.16 29.47,8.16 				"/>
				<polygon fill="#FFFFFF" stroke="#1D2132" stroke-width="0.1" stroke-linecap="square" stroke-miterlimit="10" points="
					18.69,7.8 19.25,7.8 19.25,8.34 16.04,8.34 16.04,7.8 16.59,7.8 16.59,8.16 18.69,8.16 				"/>
			</g>
		</g>
		<g>
			<path fill="#FFFFFF" stroke="#1D2132" stroke-width="0.1" stroke-linecap="square" stroke-miterlimit="10" d="M21.03,4.42v0.35
				c0,0.5,0.41,0.91,0.91,0.91h2.17c0.5,0,0.91-0.41,0.91-0.91V4.42c0-0.5-0.41-0.91-0.91-0.91h-2.17
				C21.44,3.51,21.03,3.91,21.03,4.42z"/>
			<path fill="#FFFFFF" stroke="#1D2132" stroke-width="0.1" stroke-linecap="square" stroke-miterlimit="10" d="M21.77,4.78v0.11
				c0,0.22,0.18,0.39,0.39,0.39h1.73c0.22,0,0.39-0.18,0.39-0.39V4.78c0-0.22-0.18-0.39-0.39-0.39h-1.73
				C21.95,4.38,21.77,4.56,21.77,4.78z"/>
			
				<rect x="22.94" y="-1.86" transform="matrix(6.123234e-17 -1 1 6.123234e-17 17.8387 28.2224)" fill="#FFFFFF" stroke="#1D2132" stroke-width="0.1" stroke-linecap="square" stroke-miterlimit="10" width="0.18" height="14.1"/>
			<polygon fill="#FFFFFF" stroke="#1D2132" stroke-width="0.1" stroke-linecap="square" stroke-miterlimit="10" points="
				18.02,4.73 15.98,5.1 30.08,5.1 28.04,4.73 			"/>
		</g>
	</g>
	<g>
		<g>
			<path fill="#FFFFFF" stroke="#1D2132" stroke-width="0.1" stroke-linecap="square" stroke-miterlimit="10" d="M46.03,35.89
				c1.01,0.09,3.47,0.24,3.98,0.44c0.45,0.17,0.47,0.97,0.47,2.12c0,1.15-0.03,1.94-0.48,2.12c-0.51,0.2-2.97,0.35-3.98,0.43
				c-1.01,0.08-1.32-0.17-1.46-0.76c-0.14-0.58-0.11-1.32-0.11-1.79c0-0.48-0.02-1.22,0.11-1.79
				C44.71,36.06,45.02,35.81,46.03,35.89z M48.95,37.67c-0.1,0,0.03,0.19,0.03,0.77c0,0.57-0.12,0.78-0.03,0.77
				c0.08,0,0.19-0.02,0.23-0.08c0.04-0.05,0.07-0.35,0.07-0.7c0-0.35-0.03-0.65-0.07-0.7C49.14,37.68,49.03,37.67,48.95,37.67z"/>
			<path fill="#FFFFFF" stroke="#1D2132" stroke-width="0.1" stroke-linecap="square" stroke-miterlimit="10" d="M45.98,35.89
				c0.98,0.09,3.37,0.24,3.86,0.44c0.43,0.17,0.46,0.97,0.46,2.12c0,1.15-0.03,1.94-0.46,2.12c-0.49,0.2-2.88,0.35-3.86,0.43
				c-0.98,0.08-1.28-0.17-1.42-0.76c-0.13-0.58-0.11-1.32-0.11-1.79c0-0.48-0.02-1.22,0.11-1.79C44.7,36.06,45,35.81,45.98,35.89z
				 M48.82,37.67c-0.1,0,0.03,0.19,0.03,0.77c0,0.57-0.11,0.78-0.03,0.77c0.08,0,0.19-0.02,0.23-0.08c0.04-0.05,0.07-0.35,0.07-0.7
				c0-0.35-0.03-0.65-0.07-0.7C49.01,37.68,48.9,37.67,48.82,37.67z"/>
			<path fill="#FFFFFF" stroke="#1D2132" stroke-width="0.1" stroke-linecap="square" stroke-miterlimit="10" d="M45.67,40.8
				c0.78-0.08,1.85-0.05,2.24-0.23c0.35-0.16,0.68-1.06,0.68-2.13c0-1.06-0.33-1.97-0.67-2.13c-0.39-0.18-1.46-0.16-2.24-0.24
				c-0.78-0.08-1.02,0.15-1.13,0.7c-0.11,0.53-0.09,1.22-0.09,1.66c0,0.44-0.02,1.13,0.09,1.66C44.65,40.65,44.89,40.88,45.67,40.8z
				"/>
		</g>
		<g>
			<path fill="#FFFFFF" stroke="#1D2132" stroke-width="0.1" stroke-linecap="square" stroke-miterlimit="10" d="M45.26,28.84
				c0.99-0.23,3.38-0.84,3.92-0.8c0.48,0.03,0.75,0.78,1.1,1.87c0.35,1.09,0.57,1.86,0.2,2.16c-0.42,0.34-2.72,1.24-3.65,1.63
				c-0.94,0.39-1.31,0.24-1.62-0.27c-0.31-0.51-0.51-1.22-0.66-1.67c-0.15-0.45-0.4-1.15-0.44-1.74
				C44.06,29.41,44.28,29.07,45.26,28.84z M48.59,29.64c-0.1,0.03,0.08,0.18,0.26,0.73c0.18,0.54,0.13,0.77,0.21,0.75
				c0.08-0.03,0.18-0.07,0.2-0.14c0.02-0.06-0.04-0.35-0.15-0.69c-0.11-0.33-0.23-0.6-0.28-0.64
				C48.78,29.59,48.67,29.61,48.59,29.64z"/>
			<path fill="#FFFFFF" stroke="#1D2132" stroke-width="0.1" stroke-linecap="square" stroke-miterlimit="10" d="M45.22,28.86
				c0.96-0.22,3.28-0.81,3.81-0.77c0.47,0.03,0.73,0.78,1.09,1.87c0.35,1.09,0.57,1.86,0.21,2.16c-0.41,0.34-2.64,1.21-3.55,1.59
				c-0.91,0.38-1.27,0.23-1.58-0.29c-0.3-0.51-0.51-1.22-0.65-1.67c-0.15-0.45-0.4-1.15-0.44-1.74
				C44.05,29.41,44.26,29.08,45.22,28.86z M48.47,29.68c-0.09,0.03,0.08,0.18,0.26,0.73c0.18,0.54,0.13,0.77,0.21,0.75
				c0.08-0.03,0.17-0.07,0.19-0.14c0.02-0.06-0.04-0.35-0.15-0.69c-0.11-0.33-0.23-0.6-0.28-0.64
				C48.65,29.64,48.54,29.65,48.47,29.68z"/>
			<path fill="#FFFFFF" stroke="#1D2132" stroke-width="0.1" stroke-linecap="square" stroke-miterlimit="10" d="M46.43,33.63
				c0.72-0.31,1.74-0.61,2.06-0.91c0.28-0.26,0.32-1.22-0.01-2.23c-0.33-1.01-0.91-1.77-1.29-1.82c-0.43-0.05-1.43,0.3-2.2,0.46
				c-0.77,0.17-0.92,0.46-0.86,1.01c0.06,0.54,0.29,1.19,0.42,1.61c0.14,0.42,0.33,1.08,0.59,1.56
				C45.41,33.79,45.71,33.94,46.43,33.63z"/>
		</g>
		
			<rect x="29.48" y="31.66" transform="matrix(6.123234e-17 -1 1 6.123234e-17 8.2678 76.5411)" fill="#FFFFFF" stroke="#1D2132" stroke-width="0.1" stroke-linecap="square" stroke-miterlimit="10" width="25.85" height="4.95"/>
	</g>
	<g>
		<path fill="#FFFFFF" stroke="#1D2132" stroke-width="0.1" stroke-linecap="square" stroke-miterlimit="10" d="M46.59,3.56
			c0.76-0.08,2.35,0.44,2.45,1.6c0.05,0.57,0.41,0.81,0.8,2.31c0.17,0.66,0.57,1.76-0.06,3.01s-2.13,2.19-5.07,1.3
			c-2.94-0.89-3.69-3.52-2.75-4.95s1.94-1.55,2.57-2.07S45.21,3.71,46.59,3.56z"/>
		<path fill="none" stroke="#1D2132" stroke-width="0.1" stroke-linecap="square" stroke-miterlimit="10" d="M49.79,10.49
			c0,0,0.3-1.14,0.1-1.74c-0.41-1.21-0.12-1.06-0.76-2.51c-0.19-0.44-0.53-0.37-0.54-0.47c-0.01-0.1-0.16-0.73-0.83-1
			s-1.18-0.46-1.93-0.29c-0.46,0.11-0.78,0.4-0.81,0.55c-0.06,0.26-0.22,0.06-0.98,0.39c-1.07,0.47-1.26,0.76-1.68,1.33
			c-0.42,0.57-0.61,0.66-0.68,1.27c-0.07,0.61,0.06,1.11,0.06,1.11"/>
		<path fill="none" stroke="#1D2132" stroke-width="0.1" stroke-linecap="square" stroke-miterlimit="10" d="M48.67,8.97
			c0,0-0.67,0.03-0.82-0.32c-0.15-0.35-0.29-0.55-0.35-0.66s-0.06-0.1-0.06-0.1s0.17-0.63,0.38-1.02c0.21-0.39,0.3-0.45,0.3-0.45"/>
		<path fill="none" stroke="#1D2132" stroke-width="0.1" stroke-linecap="square" stroke-miterlimit="10" d="M47.44,7.88
			c0,0-0.46-0.08-1.1-0.21c-0.64-0.14-1.32-0.5-1.32-0.5s0.04-0.49,0.06-0.95s-0.05-0.69-0.05-0.69"/>
		<path fill="none" stroke="#1D2132" stroke-width="0.1" stroke-linecap="square" stroke-miterlimit="10" d="M43.02,7.36
			c0,0,0.3,0.48,0.6,0.64c0.3,0.17,0.46,0.1,0.84-0.22c0.38-0.32,0.57-0.62,0.57-0.62"/>
		<path fill="none" stroke="#1D2132" stroke-width="0.1" stroke-linecap="square" stroke-miterlimit="10" d="M47.48,10.03
			c0,0-0.88,0.25-1.34,0.16c-0.47-0.09-0.47-0.09-0.47-0.09s-0.08,0.06-0.15,0.28c-0.07,0.22-0.06,0.38-0.06,0.38"/>
		<path fill="none" stroke="#1D2132" stroke-width="0.1" stroke-linecap="square" stroke-miterlimit="10" d="M45.67,10.1
			c0,0-0.41-0.27-0.79-0.36s-0.75-0.33-0.85-0.48c-0.1-0.15-0.1-0.15-0.1-0.15s-0.22-0.02-0.37,0.12"/>
		<path fill="none" stroke="#1D2132" stroke-width="0.1" stroke-linecap="square" stroke-miterlimit="10" d="M47.48,10.03
			c0,0,0.19,0.25,0.18,0.41s-0.06,0.31-0.06,0.31"/>
		<path fill="#FFFFFF" stroke="#1D2132" stroke-width="0.1" stroke-linecap="square" stroke-miterlimit="10" d="M47.92,5.08
			c0,0-0.1-0.04-0.06-0.08c0.07-0.08,0.1-0.28,0.02-0.33c-0.14-0.09-0.34-0.08-0.58-0.19c-0.24-0.1-0.39-0.3-0.57-0.23
			c-0.11,0.04-0.06,0.32-0.1,0.36c-0.02,0.03-0.13-0.02-0.13-0.02l0.11-0.42c0,0,0.16-0.2,0.43-0.11c0.26,0.09,0.44,0.12,0.68,0.22
			c0.24,0.1,0.44,0.15,0.41,0.4C48.09,4.94,47.92,5.08,47.92,5.08z"/>
	</g>
	<g>
		<path fill="#FFFFFF" stroke="#1D2132" stroke-width="0.1" stroke-linecap="square" stroke-miterlimit="10" d="M83.03,5.37
			c-0.11,0.7-0.11,1.47,0,2.28c0,0.65,0.53,1.18,1.18,1.18c1.4,0.25,2.89,0.39,4.8,0c0.65,0,1.18-0.53,1.18-1.18
			c0.18-0.76,0.18-1.52,0-2.28c0-0.65-0.53-1.18-1.18-1.18c-1.56-0.23-3.17-0.18-4.8,0C83.56,4.19,83.03,4.71,83.03,5.37z"/>
		<g>
			<path fill="#FFFFFF" stroke="#1D2132" stroke-width="0.1" stroke-linecap="square" stroke-miterlimit="10" d="M89.27,8.58
				c0.36,0,0.66-0.32,0.66-0.71"/>
			<path fill="#FFFFFF" stroke="#1D2132" stroke-width="0.1" stroke-linecap="square" stroke-miterlimit="10" d="M83.31,7.87
				c0,0.39,0.3,0.71,0.66,0.71"/>
			<path fill="#FFFFFF" stroke="#1D2132" stroke-width="0.1" stroke-linecap="square" stroke-miterlimit="10" d="M83.97,4.43
				c-0.36,0-0.66,0.32-0.66,0.71"/>
			<path fill="#FFFFFF" stroke="#1D2132" stroke-width="0.1" stroke-linecap="square" stroke-miterlimit="10" d="M89.92,5.15
				c0-0.39-0.3-0.71-0.66-0.71"/>
		</g>
	</g>
	<g>
		<g>
			
				<rect x="86.59" y="-1.07" transform="matrix(-6.731578e-07 -1 1 -6.731578e-07 84.2164 89.5814)" fill="#FFFFFF" stroke="#1D2132" stroke-width="0.1" stroke-linecap="square" stroke-miterlimit="10" width="0.63" height="7.5"/>
			
				<rect x="86.71" y="-0.53" transform="matrix(-6.731682e-07 -1 1 -6.731682e-07 84.0899 89.7079)" fill="#FFFFFF" stroke="#1D2132" stroke-width="0.1" stroke-linecap="square" stroke-miterlimit="10" width="0.37" height="6.67"/>
		</g>
		
			<rect x="92.84" y="0.18" transform="matrix(-6.731665e-07 -1 1 -6.731665e-07 90.4672 95.8322)" fill="#FFFFFF" stroke="#1D2132" stroke-width="0.1" stroke-linecap="square" stroke-miterlimit="10" width="0.63" height="5"/>
		<g>
			
				<rect x="95.02" y="3" fill="#FFFFFF" stroke="#1D2132" stroke-width="0.1" stroke-linecap="square" stroke-miterlimit="10" width="0.28" height="0.95"/>
			
				<rect x="95.02" y="3" fill="#FFFFFF" stroke="#1D2132" stroke-width="0.1" stroke-linecap="square" stroke-miterlimit="10" width="0.28" height="0.18"/>
		</g>
		<g>
			
				<rect x="93.68" y="3" fill="#FFFFFF" stroke="#1D2132" stroke-width="0.1" stroke-linecap="square" stroke-miterlimit="10" width="0.28" height="0.95"/>
			
				<rect x="93.68" y="3" fill="#FFFFFF" stroke="#1D2132" stroke-width="0.1" stroke-linecap="square" stroke-miterlimit="10" width="0.28" height="0.18"/>
		</g>
		<g>
			
				<rect x="92.34" y="3" fill="#FFFFFF" stroke="#1D2132" stroke-width="0.1" stroke-linecap="square" stroke-miterlimit="10" width="0.28" height="0.95"/>
			
				<rect x="92.34" y="3" fill="#FFFFFF" stroke="#1D2132" stroke-width="0.1" stroke-linecap="square" stroke-miterlimit="10" width="0.28" height="0.18"/>
		</g>
		<g>
			
				<rect x="91.01" y="3" fill="#FFFFFF" stroke="#1D2132" stroke-width="0.1" stroke-linecap="square" stroke-miterlimit="10" width="0.28" height="0.95"/>
			
				<rect x="91.01" y="3" fill="#FFFFFF" stroke="#1D2132" stroke-width="0.1" stroke-linecap="square" stroke-miterlimit="10" width="0.28" height="0.18"/>
		</g>
	</g>
	<g>
		
			<circle fill="#FFFFFF" stroke="#1D2132" stroke-width="0.1" stroke-linecap="square" stroke-miterlimit="22.9256" cx="52.47" cy="5.37" r="1.53"/>
		
			<circle fill="#FFFFFF" stroke="#1D2132" stroke-width="0.1" stroke-linecap="square" stroke-miterlimit="22.9256" cx="52.47" cy="5.37" r="0.32"/>
		<path fill="#FFFFFF" stroke="#1D2132" stroke-width="0.1" stroke-linecap="square" stroke-miterlimit="22.9256" d="M51.32,10.71
			c-0.15,0.34-0.74,0.4-1.32,0.14s-0.92-0.74-0.77-1.08l0,0c0.3-0.69,0.66-1.07,1.28-1.62l1.16,0.52
			C51.71,9.52,51.66,10.04,51.32,10.71z"/>
		<path fill="#FFFFFF" stroke="#1D2132" stroke-width="0.1" stroke-linecap="square" stroke-miterlimit="22.9256" d="M50.95,8.76
			c-0.32-0.14-0.51-0.41-0.43-0.6l0.19-0.42l1.16,0.52l-0.19,0.42C51.6,8.87,51.27,8.9,50.95,8.76z"/>
		
			<ellipse transform="matrix(0.4092 -0.9125 0.9125 0.4092 23.0024 51.5231)" fill="#FFFFFF" stroke="#1D2132" stroke-width="0.1" stroke-linecap="square" stroke-miterlimit="22.9256" cx="51.29" cy="8" rx="0.37" ry="0.64"/>
		<path fill="#FFFFFF" stroke="#1D2132" stroke-width="0.1" stroke-linecap="square" stroke-miterlimit="22.9256" d="M52.51,5.27
			L52.51,5.27c-0.06-0.03-0.13,0-0.15,0.06l-0.71,1.58c-0.03,0.06,0,0.13,0.06,0.15l0,0c0.06,0.03,0.13,0,0.15-0.06l0.71-1.58
			C52.59,5.36,52.57,5.3,52.51,5.27z"/>
		<path fill="#FFFFFF" stroke="#1D2132" stroke-width="0.1" stroke-linecap="square" stroke-miterlimit="22.9256" d="M52.11,6.16
			L52.11,6.16c-0.06-0.03-0.13,0-0.15,0.06L51.25,7.8c-0.03,0.06,0,0.13,0.06,0.15v0c0.06,0.03,0.13,0,0.15-0.06l0.71-1.58
			C52.19,6.26,52.17,6.19,52.11,6.16z"/>
	</g>
	<g>
		<g>
			<g>
				
					<rect x="10.74" y="19.75" fill="#FFFFFF" stroke="#1D2132" stroke-width="0.1" stroke-linecap="square" stroke-miterlimit="22.9256" width="22.58" height="26.06"/>
				<path fill="#FFFFFF" stroke="#1D2132" stroke-width="0.1" stroke-linecap="square" stroke-miterlimit="22.9256" d="M33.07,44.08
					c0,0,0.05-0.62,0-1.21c-0.08-1-0.13-1.62-0.13-2.65c0-1.02,0.14-1.12,0.02-1.28c-0.12-0.16-0.14-0.39,0-0.64
					C33.1,38.05,33,36.62,33,35.63c0-0.99,0.11-2.55,0.07-3.41c-0.04-0.86-0.16-0.54-0.3-0.6c-0.14-0.06,0.11-0.77,0.24-0.89
					c0.12-0.13,0.07-0.68,0.08-2.56c0.02-1.88-0.13-4.42-0.09-5.42c0.02-0.62,0-0.98-0.03-1.14c-0.07-0.38,0.01-0.22,0.01-0.64
					c-0.01-0.48-0.28,0.62-0.16,0.01c0.08-0.41,0.25-0.82,0.13-0.72c-0.12,0.1-0.34,0.5-0.41,0.56c-0.07,0.06-0.28,0.39-0.21,0.14
					c0.07-0.26,0.82-0.82,0.63-0.85c-0.22-0.04-0.92-0.06-2.61-0.06c-1.67,0-13.18,0-13.27,0.16c-0.09,0.16-0.09,0.1-0.19,0
					c-0.11-0.1-2.14,0.03-2.54-0.1c-0.4-0.13-1.02-0.1-1.1,0.06c-0.09,0.16-0.07,0.19-0.16,0.06c-0.09-0.13-0.81-0.16-1.17-0.16
					c-0.55,0-0.74-0.21-0.49,0.21c0.25,0.42,0.22,0.73,0.06,0.48c-0.16-0.26-0.2-0.6-0.31-0.67c-0.11-0.06-0.08-0.3-0.1,0.37
					c-0.02,0.67-0.12,5.53-0.08,6.8c0.04,1.28-0.01,2.27,0.03,2.45c0.11,0.5-0.07,1.19-0.03,2.29c0.05,1.38,0.04,3.53,0.06,5.1
					c0.02,1.57,0.02,2.01,0,3.16c-0.02,1.15,0.24,1.58,0.11,1.95c-0.24,0.72-0.03,1.02,0.01,1.57c0.04,0.54-0.09,1.35-0.07,1.63
					c0.02,0.22,0.39-0.61,0.54-0.48c0.15,0.13-0.66,0.51-0.36,0.59c0.3,0.08,4.15-0.08,4.45,0c0.3,0.08,0.22,0,0.22,0s0.89,0,1.54,0
					s14.5,0,14.85,0s0.7-0.07,0.35-0.21c-0.35-0.14,0.36,0.03,0.38-0.25S32.95,44.35,33.07,44.08z"/>
				<path fill="#FFFFFF" stroke="#1D2132" stroke-width="0.1" stroke-linecap="square" stroke-miterlimit="22.9256" d="M33.38,38.86
					c0.1-0.74,0.04-4.3-0.05-4.3c-0.09,0,0.24,1.22-0.39,1.93c-0.62,0.71-1.31,1.22-1.12,1c0.18-0.23,0.2-0.26,0.4-0.42
					c0.2-0.16,0.4-0.22,0.29-0.29c-0.11-0.06-0.79,0.11-1.37,0.29c-0.75,0.23-2.65,0-3.49-0.06c-2.16-0.15-14.26-0.53-15.6-1.5
					c-1.34-0.96-1.22-1.12-1.3-1.44c-0.07-0.32,0.07-1.31-0.05-0.81c-0.12,0.49-0.02,1.51-0.11,2.49c-0.09,1-0.2,1.32-0.06,1.38
					c0.15,0.06,1.79,0.96,1.56,0.81c-0.06-0.04-1.46-0.68-1.57-0.65c-0.11,0.03-0.03,0.34,0,0.71c0.04,0.48,0.04,0.48,0.09,0.48
					c0.24,0,0.98,0.08,1.88,0.05c0.9-0.03,0.11,0.19-0.39,0.06c-0.5-0.13-0.06,0.13,0.86,0.39c0.92,0.26,14.39-0.28,15.05-0.06
					c0.66,0.23,2.9,0.51,3.73,0.13C32.57,38.68,33.3,39.41,33.38,38.86z"/>
				<g>
					<path fill="#FFFFFF" stroke="#1D2132" stroke-width="0.1" stroke-linecap="square" stroke-miterlimit="22.9256" d="
						M20.89,45.68c0.35,0,0.26-0.06,0.18-0.16c-0.09-0.11-0.13-0.27,0-0.98c0.13-0.71,0.17-1.25-0.04-1.93
						c-0.22-0.68-0.1-0.77-0.01-0.94c0.09-0.18,0.04-0.32-0.22-0.18c-0.26,0.14-1.01-0.06-1.63-0.09c-2.38-0.11-3.43-0.01-5.09,0.08
						c-0.36,0.02-0.66,0.13-0.83,0.1c-0.17-0.04-0.39,0.04-0.26,0.14c0.13,0.11-0.17,1.28-0.09,2.14c0.09,0.86,0.04,1.34-0.01,1.45
						c-0.04,0.11,0.09,0.43,0.26,0.29c0.17-0.14,0.87,0.08,1.22,0.11c0.35,0.04,1.09,0.14,2.95,0.11c1.86-0.04,2.67-0.02,2.98-0.13
						C20.6,45.57,20.8,45.68,20.89,45.68z"/>
					<path fill="none" stroke="#1D2132" stroke-width="0.1" stroke-linecap="square" stroke-miterlimit="22.9256" d="M20.56,41.95
						c0,0-1.42-0.48-3.54-0.48c-2.12,0-3.66,0.66-3.66,0.66"/>
				</g>
				<g>
					<path fill="#FFFFFF" stroke="#1D2132" stroke-width="0.1" stroke-linecap="square" stroke-miterlimit="22.9256" d="
						M19.83,43.39c0.25,0,0.19-0.05,0.13-0.13c-0.06-0.09-0.09-0.22,0-0.79c0.09-0.58,0.13-1.01-0.03-1.56
						c-0.16-0.55-0.07-0.62-0.01-0.76c0.06-0.14,0.03-0.26-0.16-0.14c-0.19,0.11-0.74-0.05-1.18-0.07c-1.73-0.09-2.49,0-3.7,0.06
						c-0.26,0.01-0.48,0.11-0.6,0.08c-0.13-0.03-0.28,0.03-0.19,0.12c0.09,0.09-0.13,1.04-0.06,1.73c0.06,0.69,0.03,1.09-0.01,1.17
						c-0.03,0.09,0.06,0.35,0.19,0.23c0.13-0.12,0.63,0.06,0.88,0.09c0.25,0.03,0.79,0.12,2.14,0.09c1.35-0.03,1.94-0.02,2.16-0.1
						C19.62,43.3,19.77,43.39,19.83,43.39z"/>
					<path fill="none" stroke="#1D2132" stroke-width="0.1" stroke-linecap="square" stroke-miterlimit="22.9256" d="M19.6,40.37
						c0,0-1.03-0.39-2.57-0.39c-1.54,0-2.66,0.54-2.66,0.54"/>
				</g>
				<g>
					<path fill="#FFFFFF" stroke="#1D2132" stroke-width="0.1" stroke-linecap="square" stroke-miterlimit="22.9256" d="
						M30.78,45.68c0.35,0,0.26-0.06,0.18-0.16c-0.09-0.11-0.13-0.27,0-0.98c0.13-0.71,0.17-1.25-0.04-1.93
						c-0.22-0.68-0.1-0.77-0.01-0.94c0.09-0.18,0.04-0.32-0.22-0.18c-0.26,0.14-1.01-0.06-1.63-0.09c-2.38-0.11-3.43-0.01-5.09,0.08
						c-0.36,0.02-0.66,0.13-0.83,0.1c-0.17-0.04-0.39,0.04-0.26,0.14c0.13,0.11-0.17,1.28-0.09,2.14c0.09,0.86,0.04,1.34-0.01,1.45
						c-0.04,0.11,0.09,0.43,0.26,0.29c0.17-0.14,0.87,0.08,1.22,0.11c0.35,0.04,1.09,0.14,2.95,0.11c1.86-0.04,2.67-0.02,2.98-0.13
						C30.49,45.57,30.69,45.68,30.78,45.68z"/>
					<path fill="none" stroke="#1D2132" stroke-width="0.1" stroke-linecap="square" stroke-miterlimit="22.9256" d="M30.45,41.95
						c0,0-1.42-0.48-3.54-0.48c-2.12,0-3.66,0.66-3.66,0.66"/>
				</g>
				<g>
					<path fill="#FFFFFF" stroke="#1D2132" stroke-width="0.1" stroke-linecap="square" stroke-miterlimit="22.9256" d="
						M29.72,43.39c0.25,0,0.19-0.05,0.13-0.13c-0.06-0.09-0.09-0.22,0-0.79c0.09-0.58,0.13-1.01-0.03-1.56
						c-0.16-0.55-0.07-0.62-0.01-0.76c0.06-0.14,0.03-0.26-0.16-0.14c-0.19,0.11-0.74-0.05-1.18-0.07c-1.73-0.09-2.49,0-3.7,0.06
						c-0.26,0.01-0.48,0.11-0.6,0.08c-0.13-0.03-0.28,0.03-0.19,0.12c0.09,0.09-0.13,1.04-0.06,1.73c0.06,0.69,0.03,1.09-0.01,1.17
						c-0.03,0.09,0.06,0.35,0.19,0.23c0.13-0.12,0.63,0.06,0.88,0.09c0.25,0.03,0.79,0.12,2.14,0.09c1.35-0.03,1.94-0.02,2.16-0.1
						C29.51,43.3,29.66,43.39,29.72,43.39z"/>
					<path fill="none" stroke="#1D2132" stroke-width="0.1" stroke-linecap="square" stroke-miterlimit="22.9256" d="M29.49,40.37
						c0,0-1.03-0.39-2.57-0.39c-1.54,0-2.66,0.54-2.66,0.54"/>
				</g>
				<path fill="#FFFFFF" stroke="#1D2132" stroke-width="0.1" stroke-linecap="square" stroke-miterlimit="22.9256" d="M11.25,19.98
					h21.72c0.35,0,0.62,0.28,0.62,0.62v7.89c0,0.35-0.28,0.62-0.62,0.62H11.25c-0.35,0-0.62-0.28-0.62-0.62v-7.89
					C10.63,20.26,10.91,19.98,11.25,19.98z"/>
			</g>
			<g>
				
					<rect x="6.98" y="46.29" transform="matrix(-1 -4.500767e-11 4.500767e-11 -1 44.0611 93.2073)" fill="#FFFFFF" stroke="#1D2132" stroke-width="0.1" stroke-linecap="square" stroke-miterlimit="22.9256" width="30.11" height="0.63"/>
				<path fill="#FFFFFF" stroke="#1D2132" stroke-width="0.1" stroke-linecap="square" stroke-miterlimit="22.9256" d="M7.71,45.81
					h28.64c0.26,0,0.47,0.21,0.47,0.47v0.01H7.24v-0.01C7.24,46.02,7.45,45.81,7.71,45.81z"/>
				<g>
					<g>
						<g>
							<path fill="#FFFFFF" stroke="#1D2132" stroke-width="0.1" stroke-linecap="square" stroke-miterlimit="22.9256" d="
								M7.98,46.29h0.95v-0.12c0-0.26-0.21-0.47-0.47-0.47H8.45c-0.26,0-0.47,0.21-0.47,0.47V46.29z"/>
							<path fill="#FFFFFF" stroke="#1D2132" stroke-width="0.1" stroke-linecap="square" stroke-miterlimit="22.9256" d="
								M11.45,42.77l-0.71-0.17c-0.04-0.4-0.02-0.8,0.06-1.2l0,0c0.02-0.1,0.3-0.13,0.62-0.05c0.32,0.08,0.55,0.22,0.53,0.32l0,0
								C11.84,42.06,11.68,42.42,11.45,42.77z"/>
							
								<ellipse transform="matrix(0.2315 -0.9728 0.9728 0.2315 -33.0054 43.597)" fill="#FFFFFF" stroke="#1D2132" stroke-width="0.1" stroke-linecap="square" stroke-miterlimit="22.9256" cx="11.09" cy="42.69" rx="0.12" ry="0.37"/>
							<path fill="#FFFFFF" stroke="#1D2132" stroke-width="0.1" stroke-linecap="square" stroke-miterlimit="22.9256" d="M11,42.73
								l-0.03,0.07c0,0-0.16,0.4-0.75,0.69c-0.11,0.06-0.23,0.11-0.36,0.16c-0.38,0.16-0.8,0.34-1.09,0.7
								C8.4,44.83,8.4,45.59,8.4,45.62l0,0.08l0.16,0l0-0.08c0-0.01,0-0.73,0.34-1.17c0.26-0.33,0.65-0.49,1.02-0.65
								c0.13-0.05,0.25-0.11,0.37-0.16c0.64-0.32,0.82-0.76,0.82-0.78l0.03-0.07C11.14,42.75,11.05,42.72,11,42.73z"/>
						</g>
					</g>
					<g>
						<g>
							<path fill="#FFFFFF" stroke="#1D2132" stroke-width="0.1" stroke-linecap="square" stroke-miterlimit="22.9256" d="
								M36.08,46.29h-0.95v-0.12c0-0.26,0.21-0.47,0.47-0.47h0.01c0.26,0,0.47,0.21,0.47,0.47V46.29z"/>
							<path fill="#FFFFFF" stroke="#1D2132" stroke-width="0.1" stroke-linecap="square" stroke-miterlimit="22.9256" d="
								M32.61,42.77l0.71-0.17c0.04-0.4,0.02-0.8-0.06-1.2l0,0c-0.02-0.1-0.3-0.13-0.62-0.05c-0.32,0.08-0.55,0.22-0.53,0.32l0,0
								C32.22,42.06,32.38,42.42,32.61,42.77z"/>
							
								<ellipse transform="matrix(0.9728 -0.2315 0.2315 0.9728 -8.9871 8.7922)" fill="#FFFFFF" stroke="#1D2132" stroke-width="0.1" stroke-linecap="square" stroke-miterlimit="22.9256" cx="32.97" cy="42.69" rx="0.37" ry="0.12"/>
							<path fill="#FFFFFF" stroke="#1D2132" stroke-width="0.1" stroke-linecap="square" stroke-miterlimit="22.9256" d="
								M33.06,42.73l0.03,0.07c0,0,0.16,0.4,0.75,0.69c0.11,0.06,0.23,0.11,0.36,0.16c0.38,0.16,0.8,0.34,1.09,0.7
								c0.38,0.48,0.38,1.23,0.38,1.27l0,0.08l-0.16,0l0-0.08c0-0.01,0-0.73-0.34-1.17c-0.26-0.33-0.65-0.49-1.02-0.65
								c-0.13-0.05-0.25-0.11-0.37-0.16c-0.64-0.32-0.82-0.76-0.82-0.78l-0.03-0.07C32.92,42.75,33.01,42.72,33.06,42.73z"/>
						</g>
					</g>
				</g>
			</g>
		</g>
	</g>
	<g>
		<g>
			
				<rect x="-0.23" y="24.29" transform="matrix(4.501359e-11 1 -1 4.501359e-11 29.4364 19.8863)" fill="#FFFFFF" stroke="#1D2132" stroke-width="0.1" stroke-linecap="square" stroke-miterlimit="10" width="10" height="0.75"/>
			
				<line fill="none" stroke="#1D2132" stroke-width="0.1" stroke-linecap="square" stroke-miterlimit="10" x1="4.55" y1="20.45" x2="5" y2="20.45"/>
			
				<line fill="none" stroke="#1D2132" stroke-width="0.1" stroke-linecap="square" stroke-miterlimit="10" x1="4.55" y1="20.72" x2="5" y2="20.72"/>
			
				<line fill="none" stroke="#1D2132" stroke-width="0.1" stroke-linecap="square" stroke-miterlimit="10" x1="4.55" y1="19.91" x2="5" y2="19.91"/>
			
				<line fill="none" stroke="#1D2132" stroke-width="0.1" stroke-linecap="square" stroke-miterlimit="10" x1="4.55" y1="20.18" x2="5" y2="20.18"/>
			
				<line fill="none" stroke="#1D2132" stroke-width="0.1" stroke-linecap="square" stroke-miterlimit="10" x1="4.55" y1="20.99" x2="5" y2="20.99"/>
			
				<line fill="none" stroke="#1D2132" stroke-width="0.1" stroke-linecap="square" stroke-miterlimit="10" x1="4.55" y1="21.26" x2="5" y2="21.26"/>
			
				<line fill="none" stroke="#1D2132" stroke-width="0.1" stroke-linecap="square" stroke-miterlimit="10" x1="4.55" y1="21.53" x2="5" y2="21.53"/>
			
				<line fill="none" stroke="#1D2132" stroke-width="0.1" stroke-linecap="square" stroke-miterlimit="10" x1="4.55" y1="21.8" x2="5" y2="21.8"/>
			
				<line fill="none" stroke="#1D2132" stroke-width="0.1" stroke-linecap="square" stroke-miterlimit="10" x1="4.55" y1="22.07" x2="5" y2="22.07"/>
			
				<line fill="none" stroke="#1D2132" stroke-width="0.1" stroke-linecap="square" stroke-miterlimit="10" x1="4.55" y1="22.34" x2="5" y2="22.34"/>
			
				<line fill="none" stroke="#1D2132" stroke-width="0.1" stroke-linecap="square" stroke-miterlimit="10" x1="4.55" y1="23.15" x2="5" y2="23.15"/>
			
				<line fill="none" stroke="#1D2132" stroke-width="0.1" stroke-linecap="square" stroke-miterlimit="10" x1="4.55" y1="23.42" x2="5" y2="23.42"/>
			
				<line fill="none" stroke="#1D2132" stroke-width="0.1" stroke-linecap="square" stroke-miterlimit="10" x1="4.55" y1="22.61" x2="5" y2="22.61"/>
			
				<line fill="none" stroke="#1D2132" stroke-width="0.1" stroke-linecap="square" stroke-miterlimit="10" x1="4.55" y1="22.88" x2="5" y2="22.88"/>
			
				<line fill="none" stroke="#1D2132" stroke-width="0.1" stroke-linecap="square" stroke-miterlimit="10" x1="4.55" y1="23.69" x2="5" y2="23.69"/>
			
				<line fill="none" stroke="#1D2132" stroke-width="0.1" stroke-linecap="square" stroke-miterlimit="10" x1="4.55" y1="23.96" x2="5" y2="23.96"/>
			
				<line fill="none" stroke="#1D2132" stroke-width="0.1" stroke-linecap="square" stroke-miterlimit="10" x1="4.55" y1="24.23" x2="5" y2="24.23"/>
			
				<line fill="none" stroke="#1D2132" stroke-width="0.1" stroke-linecap="square" stroke-miterlimit="10" x1="4.55" y1="24.5" x2="5" y2="24.5"/>
			
				<line fill="none" stroke="#1D2132" stroke-width="0.1" stroke-linecap="square" stroke-miterlimit="10" x1="4.55" y1="24.77" x2="5" y2="24.77"/>
			
				<line fill="none" stroke="#1D2132" stroke-width="0.1" stroke-linecap="square" stroke-miterlimit="10" x1="4.55" y1="25.04" x2="5" y2="25.04"/>
			
				<line fill="none" stroke="#1D2132" stroke-width="0.1" stroke-linecap="square" stroke-miterlimit="10" x1="4.55" y1="25.85" x2="5" y2="25.85"/>
			
				<line fill="none" stroke="#1D2132" stroke-width="0.1" stroke-linecap="square" stroke-miterlimit="10" x1="4.55" y1="26.12" x2="5" y2="26.12"/>
			
				<line fill="none" stroke="#1D2132" stroke-width="0.1" stroke-linecap="square" stroke-miterlimit="10" x1="4.55" y1="25.31" x2="5" y2="25.31"/>
			
				<line fill="none" stroke="#1D2132" stroke-width="0.1" stroke-linecap="square" stroke-miterlimit="10" x1="4.55" y1="25.58" x2="5" y2="25.58"/>
			
				<line fill="none" stroke="#1D2132" stroke-width="0.1" stroke-linecap="square" stroke-miterlimit="10" x1="4.55" y1="26.39" x2="5" y2="26.39"/>
			
				<line fill="none" stroke="#1D2132" stroke-width="0.1" stroke-linecap="square" stroke-miterlimit="10" x1="4.55" y1="26.66" x2="5" y2="26.66"/>
			
				<line fill="none" stroke="#1D2132" stroke-width="0.1" stroke-linecap="square" stroke-miterlimit="10" x1="4.55" y1="26.93" x2="5" y2="26.93"/>
			
				<line fill="none" stroke="#1D2132" stroke-width="0.1" stroke-linecap="square" stroke-miterlimit="10" x1="4.55" y1="27.2" x2="5" y2="27.2"/>
			
				<line fill="none" stroke="#1D2132" stroke-width="0.1" stroke-linecap="square" stroke-miterlimit="10" x1="4.55" y1="27.47" x2="5" y2="27.47"/>
			
				<line fill="none" stroke="#1D2132" stroke-width="0.1" stroke-linecap="square" stroke-miterlimit="10" x1="4.55" y1="27.74" x2="5" y2="27.74"/>
			
				<line fill="none" stroke="#1D2132" stroke-width="0.1" stroke-linecap="square" stroke-miterlimit="10" x1="4.55" y1="28.55" x2="5" y2="28.55"/>
			
				<line fill="none" stroke="#1D2132" stroke-width="0.1" stroke-linecap="square" stroke-miterlimit="10" x1="4.55" y1="28.82" x2="5" y2="28.82"/>
			
				<line fill="none" stroke="#1D2132" stroke-width="0.1" stroke-linecap="square" stroke-miterlimit="10" x1="4.55" y1="28.01" x2="5" y2="28.01"/>
			
				<line fill="none" stroke="#1D2132" stroke-width="0.1" stroke-linecap="square" stroke-miterlimit="10" x1="4.55" y1="28.28" x2="5" y2="28.28"/>
			
				<line fill="none" stroke="#1D2132" stroke-width="0.1" stroke-linecap="square" stroke-miterlimit="10" x1="4.55" y1="29.09" x2="5" y2="29.09"/>
			
				<line fill="none" stroke="#1D2132" stroke-width="0.1" stroke-linecap="square" stroke-miterlimit="10" x1="4.55" y1="29.36" x2="5" y2="29.36"/>
		</g>
		<path fill="none" stroke="#1D2132" stroke-width="0.1" stroke-linecap="square" stroke-miterlimit="10" d="M5.29,10.64
			c0,0.39,0.7,0,0.7,0.39c0,0.39-0.7,0-0.7,0.39c0,0.39,0.7,0,0.7,0.39s-0.7,0-0.7,0.39s0.7,0,0.7,0.39s-0.7,0-0.7,0.39
			s0.7,0,0.7,0.39s-0.7,0-0.7,0.39s0.7,0,0.7,0.39s-0.7,0-0.7,0.39s0.7,0,0.7,0.39s-0.7,0-0.7,0.39s0.7,0,0.7,0.39
			c0,0.39-0.7,0-0.7,0.39c0,0.39,0.7,0,0.7,0.39s-0.7,0-0.7,0.39s0.7,0,0.7,0.39s-0.7,0-0.7,0.39s0.7,0,0.7,0.39s-0.7,0-0.7,0.39
			s0.7,0,0.7,0.39s-0.7,0-0.7,0.39s0.7,0,0.7,0.39s-0.7,0-0.7,0.39s0.7,0,0.7,0.39s-0.7,0-0.7,0.39s0.7,0,0.7,0.39s-0.7,0-0.7,0.39
			s0.7,0,0.7,0.39s-0.7,0-0.7,0.39s0.7,0,0.7,0.39s-0.7,0-0.7,0.39s0.7,0,0.7,0.39"/>
		<path fill="none" stroke="#1D2132" stroke-width="0.1" stroke-linecap="square" stroke-miterlimit="10" d="M5.29,38.76
			c0-0.39,0.7,0,0.7-0.39c0-0.39-0.7,0-0.7-0.39c0-0.39,0.7,0,0.7-0.39c0-0.39-0.7,0-0.7-0.39c0-0.39,0.7,0,0.7-0.39
			c0-0.39-0.7,0-0.7-0.39c0-0.39,0.7,0,0.7-0.39c0-0.39-0.7,0-0.7-0.39c0-0.39,0.7,0,0.7-0.39c0-0.39-0.7,0-0.7-0.39
			c0-0.39,0.7,0,0.7-0.39c0-0.39-0.7,0-0.7-0.39c0-0.39,0.7,0,0.7-0.39c0-0.39-0.7,0-0.7-0.39c0-0.39,0.7,0,0.7-0.39
			c0-0.39-0.7,0-0.7-0.39c0-0.39,0.7,0,0.7-0.39c0-0.39-0.7,0-0.7-0.39c0-0.39,0.7,0,0.7-0.39s-0.7,0-0.7-0.39s0.7,0,0.7-0.39
			s-0.7,0-0.7-0.39s0.7,0,0.7-0.39s-0.7,0-0.7-0.39s0.7,0,0.7-0.39s-0.7,0-0.7-0.39s0.7,0,0.7-0.39s-0.7,0-0.7-0.39s0.7,0,0.7-0.39
			s-0.7,0-0.7-0.39s0.7,0,0.7-0.39s-0.7,0-0.7-0.39s0.7,0,0.7-0.39"/>
	</g>
</g>
<g id="Plumbing">
	<g>
		<polyline fill="#FFFFFF" points="79.07,44.03 79.07,46.81 85.31,46.81 85.31,44.03 85.31,43.83 85.28,43.64 85.24,43.45 
			85.17,43.27 85.08,43.09 84.98,42.93 84.85,42.78 84.72,42.65 84.52,42.5 84.3,42.37 84.08,42.26 83.85,42.16 83.62,42.08 
			83.38,42 83.14,41.94 82.9,41.89 82.65,41.86 82.41,41.83 82.19,41.82 81.97,41.83 81.73,41.85 81.48,41.89 81.24,41.94 81,42 
			80.79,42.07 80.53,42.16 80.3,42.26 80.08,42.37 79.86,42.5 79.66,42.65 79.53,42.78 79.4,42.93 79.3,43.09 79.21,43.27 
			79.14,43.45 79.1,43.64 79.07,43.83 79.07,43.93 79.07,44.03 		"/>
		
			<line fill="none" stroke="#1D2132" stroke-width="0.1" stroke-linecap="square" stroke-miterlimit="10" x1="79.07" y1="46.81" x2="85.31" y2="46.81"/>
		
			<line fill="none" stroke="#1D2132" stroke-width="0.1" stroke-linecap="square" stroke-miterlimit="10" x1="85.31" y1="46.81" x2="85.31" y2="44.03"/>
		
			<line fill="none" stroke="#1D2132" stroke-width="0.1" stroke-linecap="square" stroke-miterlimit="10" x1="79.07" y1="46.81" x2="79.07" y2="44.03"/>
		
			<line fill="none" stroke="#1D2132" stroke-width="0.1" stroke-linecap="square" stroke-miterlimit="10" x1="83.17" y1="46.81" x2="81.21" y2="46.81"/>
		
			<line fill="none" stroke="#1D2132" stroke-width="0.1" stroke-linecap="square" stroke-miterlimit="10" x1="82.71" y1="44.58" x2="82.38" y2="44.58"/>
		
			<line fill="none" stroke="#1D2132" stroke-width="0.1" stroke-linecap="square" stroke-miterlimit="10" x1="82.19" y1="45.13" x2="82.19" y2="44.78"/>
		
			<line fill="none" stroke="#1D2132" stroke-width="0.1" stroke-linecap="square" stroke-miterlimit="10" x1="82" y1="44.58" x2="81.66" y2="44.58"/>
		
			<line fill="none" stroke="#1D2132" stroke-width="0.1" stroke-linecap="square" stroke-miterlimit="10" x1="82.19" y1="44.37" x2="82.19" y2="44.02"/>
		<path fill="none" stroke="#1D2132" stroke-width="0.1" stroke-linecap="square" stroke-miterlimit="10" d="M80.53,45.24
			c-0.49-0.33-0.86-0.82-1.08-1.39"/>
		<path fill="none" stroke="#1D2132" stroke-width="0.1" stroke-linecap="square" stroke-miterlimit="10" d="M82.19,45.65
			c-0.07,0.01-0.15,0.01-0.22,0.01c-0.51,0-1-0.14-1.43-0.42"/>
		<path fill="none" stroke="#1D2132" stroke-width="0.1" stroke-linecap="square" stroke-miterlimit="10" d="M84.93,43.86
			c-0.21,0.57-0.59,1.05-1.08,1.39"/>
		<path fill="none" stroke="#1D2132" stroke-width="0.1" stroke-linecap="square" stroke-miterlimit="10" d="M83.85,45.24
			c-0.43,0.27-0.93,0.42-1.43,0.42c-0.07,0-0.15,0-0.22-0.01"/>
		<path fill="none" stroke="#1D2132" stroke-width="0.1" stroke-linecap="square" stroke-miterlimit="10" d="M80.08,42.37
			c0.59-0.31,1.24-0.49,1.89-0.54"/>
		<path fill="none" stroke="#1D2132" stroke-width="0.1" stroke-linecap="square" stroke-miterlimit="10" d="M84.72,42.65
			c0.38,0.32,0.59,0.8,0.59,1.3c0,0.02,0,0.05,0,0.07"/>
		<path fill="none" stroke="#1D2132" stroke-width="0.1" stroke-linecap="square" stroke-miterlimit="10" d="M81.97,41.83
			c0.07-0.01,0.15-0.01,0.22-0.01s0.15,0,0.22,0.01"/>
		<path fill="none" stroke="#1D2132" stroke-width="0.1" stroke-linecap="square" stroke-miterlimit="10" d="M83.93,45.14
			c-0.58,0.09-1.16,0.14-1.74,0.14c-0.58,0-1.17-0.05-1.75-0.14"/>
		<path fill="none" stroke="#1D2132" stroke-width="0.1" stroke-linecap="square" stroke-miterlimit="10" d="M83.94,46.28
			c-0.58,0.09-1.17,0.13-1.76,0.13"/>
		<path fill="none" stroke="#1D2132" stroke-width="0.1" stroke-linecap="square" stroke-miterlimit="10" d="M85.15,43.6
			c0,0.02,0,0.03,0,0.05c0,0.9-0.31,1.78-0.88,2.46"/>
		<path fill="none" stroke="#1D2132" stroke-width="0.1" stroke-linecap="square" stroke-miterlimit="10" d="M84.27,46.1
			c-0.08,0.1-0.2,0.16-0.32,0.18"/>
		<path fill="none" stroke="#1D2132" stroke-width="0.1" stroke-linecap="square" stroke-miterlimit="10" d="M80.11,46.11
			c-0.57-0.68-0.88-1.55-0.88-2.46c0-0.01,0-0.03,0-0.04"/>
		<path fill="none" stroke="#1D2132" stroke-width="0.1" stroke-linecap="square" stroke-miterlimit="10" d="M82.19,46.42
			c-0.59,0-1.18-0.05-1.76-0.13"/>
		<path fill="none" stroke="#1D2132" stroke-width="0.1" stroke-linecap="square" stroke-miterlimit="10" d="M80.43,46.28
			c-0.12-0.02-0.24-0.08-0.32-0.18"/>
		<path fill="none" stroke="#1D2132" stroke-width="0.1" stroke-linecap="square" stroke-miterlimit="10" d="M79.07,44.03
			c0-0.02,0-0.05,0-0.07c0-0.51,0.22-0.99,0.59-1.3"/>
		<path fill="none" stroke="#1D2132" stroke-width="0.1" stroke-linecap="square" stroke-miterlimit="10" d="M79.66,42.65
			c0.13-0.11,0.27-0.2,0.41-0.28"/>
		<path fill="none" stroke="#1D2132" stroke-width="0.1" stroke-linecap="square" stroke-miterlimit="10" d="M84.3,42.37
			c0.15,0.08,0.29,0.17,0.41,0.28"/>
		<path fill="none" stroke="#1D2132" stroke-width="0.1" stroke-linecap="square" stroke-miterlimit="10" d="M82.41,41.83
			c0.66,0.05,1.3,0.24,1.89,0.54"/>
		<path fill="none" stroke="#1D2132" stroke-width="0.1" stroke-linecap="square" stroke-miterlimit="10" d="M81.33,42.29
			c0.28-0.07,0.57-0.11,0.86-0.11s0.58,0.04,0.86,0.11"/>
		<path fill="none" stroke="#1D2132" stroke-width="0.1" stroke-linecap="square" stroke-miterlimit="10" d="M79.44,43.86
			c0-0.02,0-0.04,0-0.07c0-0.29,0.12-0.56,0.32-0.75"/>
		<path fill="none" stroke="#1D2132" stroke-width="0.1" stroke-linecap="square" stroke-miterlimit="10" d="M79.78,43.04
			c0.45-0.38,0.98-0.64,1.55-0.75"/>
		<path fill="none" stroke="#1D2132" stroke-width="0.1" stroke-linecap="square" stroke-miterlimit="10" d="M84.6,43.04
			c0.21,0.19,0.32,0.46,0.32,0.75c0,0.02,0,0.04,0,0.07"/>
		<path fill="none" stroke="#1D2132" stroke-width="0.1" stroke-linecap="square" stroke-miterlimit="10" d="M83.05,42.29
			c0.57,0.11,1.11,0.36,1.56,0.75"/>
		<path fill="none" stroke="#1D2132" stroke-width="0.1" stroke-linecap="square" stroke-miterlimit="10" d="M82.19,45
			c0.22,0,0.4-0.19,0.4-0.43s-0.18-0.43-0.4-0.43s-0.4,0.19-0.4,0.43C81.78,44.81,81.97,45,82.19,45"/>
		<path fill="none" stroke="#1D2132" stroke-width="0.1" stroke-linecap="square" stroke-miterlimit="10" d="M82.19,44.81
			c0.12,0,0.22-0.1,0.22-0.23s-0.1-0.23-0.22-0.23s-0.22,0.1-0.22,0.23C81.97,44.7,82.07,44.81,82.19,44.81"/>
	</g>
	<g>
		<polygon fill="#FFFFFF" points="97.39,37.1 97.39,39.51 95.71,39.51 95.69,39.51 95.67,39.5 95.64,39.5 95.62,39.49 95.6,39.49 
			95.58,39.48 95.56,39.47 95.54,39.45 95.53,39.44 95.51,39.43 95.5,39.41 95.48,39.39 95.47,39.38 95.46,39.36 95.45,39.34 
			95.44,39.32 90.97,39.32 90.86,39.31 90.75,39.3 90.64,39.29 90.54,39.27 90.43,39.24 90.33,39.22 90.23,39.17 90.13,39.13 
			90.04,39.08 89.94,39.03 89.85,38.97 89.77,38.91 89.68,38.84 89.61,38.77 89.53,38.69 89.46,38.61 89.39,38.53 89.33,38.45 
			89.27,38.38 89.22,38.28 89.17,38.19 89.12,38.1 89.08,38 89.04,37.91 89.01,37.81 88.98,37.72 88.95,37.61 88.93,37.51 
			88.92,37.41 88.91,37.31 88.9,37.2 88.9,37.1 88.9,37 88.91,36.89 88.92,36.79 88.93,36.69 88.95,36.59 88.98,36.49 89.01,36.39 
			89.04,36.29 89.08,36.2 89.12,36.1 89.17,36.01 89.22,35.92 89.27,35.83 89.33,35.75 89.39,35.66 89.46,35.58 89.53,35.51 
			89.61,35.43 89.68,35.36 89.77,35.29 89.85,35.23 89.94,35.17 90.04,35.12 90.13,35.07 90.23,35.03 90.33,34.99 90.43,34.97 
			90.54,34.93 90.64,34.91 90.75,34.89 90.86,34.89 90.97,34.88 95.44,34.88 95.45,34.86 95.46,34.84 95.47,34.82 95.48,34.81 
			95.5,34.79 95.51,34.77 95.53,34.76 95.54,34.74 95.56,34.73 95.58,34.72 95.6,34.72 95.62,34.72 95.64,34.7 95.67,34.7 
			95.69,34.69 95.71,34.69 97.39,34.69 		"/>
		
			<line fill="none" stroke="#1D2132" stroke-width="0.1" stroke-linecap="square" stroke-miterlimit="10" x1="95.44" y1="39.32" x2="90.97" y2="39.32"/>
		
			<line fill="none" stroke="#1D2132" stroke-width="0.1" stroke-linecap="square" stroke-miterlimit="10" x1="97.39" y1="39.51" x2="97.39" y2="34.69"/>
		
			<line fill="none" stroke="#1D2132" stroke-width="0.1" stroke-linecap="square" stroke-miterlimit="10" x1="97.39" y1="39.51" x2="95.71" y2="39.51"/>
		
			<line fill="none" stroke="#1D2132" stroke-width="0.1" stroke-linecap="square" stroke-miterlimit="10" x1="94.65" y1="37.1" x2="94.65" y2="35.31"/>
		
			<line fill="none" stroke="#1D2132" stroke-width="0.1" stroke-linecap="square" stroke-miterlimit="10" x1="90.97" y1="39.32" x2="94.65" y2="38.88"/>
		
			<line fill="none" stroke="#1D2132" stroke-width="0.1" stroke-linecap="square" stroke-miterlimit="10" x1="94.65" y1="37.1" x2="94.65" y2="38.88"/>
		
			<line fill="none" stroke="#1D2132" stroke-width="0.1" stroke-linecap="square" stroke-miterlimit="10" x1="90.97" y1="34.88" x2="94.65" y2="35.31"/>
		
			<line fill="none" stroke="#1D2132" stroke-width="0.1" stroke-linecap="square" stroke-miterlimit="10" x1="95.44" y1="34.88" x2="90.97" y2="34.88"/>
		
			<line fill="none" stroke="#1D2132" stroke-width="0.1" stroke-linecap="square" stroke-miterlimit="10" x1="97.39" y1="34.69" x2="95.71" y2="34.69"/>
		<path fill="none" stroke="#1D2132" stroke-width="0.1" stroke-linecap="square" stroke-miterlimit="10" d="M95.43,34.94
			c-0.08,0.72-0.11,1.44-0.11,2.16s0.04,1.44,0.12,2.16"/>
		<path fill="none" stroke="#1D2132" stroke-width="0.1" stroke-linecap="square" stroke-miterlimit="10" d="M95.43,39.26
			c0.02,0.14,0.14,0.25,0.28,0.25"/>
		<path fill="none" stroke="#1D2132" stroke-width="0.1" stroke-linecap="square" stroke-miterlimit="10" d="M90.97,34.88
			c-1.14,0-2.07,0.99-2.07,2.22c0,1.22,0.93,2.22,2.07,2.22"/>
		<path fill="none" stroke="#1D2132" stroke-width="0.1" stroke-linecap="square" stroke-miterlimit="10" d="M95.71,34.69
			c-0.14,0-0.27,0.11-0.28,0.25"/>
		<path fill="none" stroke="#1D2132" stroke-width="0.1" stroke-linecap="square" stroke-miterlimit="10" d="M96.56,37.1
			c0,0.13-0.11,0.23-0.24,0.23s-0.24-0.1-0.24-0.23s0.11-0.23,0.24-0.23C96.46,36.88,96.56,36.97,96.56,37.1"/>
	</g>
	<g>
		<path fill="#FFFFFF" d="M75.06,36.44v10.41c0,0.06-0.04,0.1-0.1,0.1h-10.4c-0.06,0-0.1-0.04-0.1-0.1V36.44
			c0-0.06,0.04-0.1,0.1-0.1h10.41C75.01,36.35,75.06,36.4,75.06,36.44z"/>
		
			<line fill="none" stroke="#1D2132" stroke-width="0.1" stroke-linecap="square" stroke-miterlimit="10" x1="67.14" y1="45.28" x2="67.14" y2="44.6"/>
		
			<line fill="none" stroke="#1D2132" stroke-width="0.1" stroke-linecap="square" stroke-miterlimit="10" x1="66.85" y1="44.31" x2="66.17" y2="44.31"/>
		
			<line fill="none" stroke="#1D2132" stroke-width="0.1" stroke-linecap="square" stroke-miterlimit="10" x1="67.14" y1="44.01" x2="67.14" y2="43.35"/>
		
			<line fill="none" stroke="#1D2132" stroke-width="0.1" stroke-linecap="square" stroke-miterlimit="10" x1="68.11" y1="44.31" x2="67.43" y2="44.31"/>
		
			<line fill="none" stroke="#1D2132" stroke-width="0.1" stroke-linecap="square" stroke-miterlimit="10" x1="74.47" y1="46.33" x2="74.47" y2="43.49"/>
		
			<line fill="none" stroke="#1D2132" stroke-width="0.1" stroke-linecap="square" stroke-miterlimit="10" x1="65.01" y1="43.6" x2="65.01" y2="37.1"/>
		<path fill="none" stroke="#1D2132" stroke-width="0.1" stroke-linecap="square" stroke-miterlimit="10" d="M74.47,46.33v-9.17
			c0-0.09-0.08-0.17-0.17-0.17h-9.17"/>
		
			<line fill="none" stroke="#1D2132" stroke-width="0.1" stroke-linecap="square" stroke-miterlimit="10" x1="74.35" y1="46.44" x2="67.85" y2="46.44"/>
		<g>
			<path fill="none" stroke="#1D2132" stroke-width="0.1" stroke-linecap="square" stroke-miterlimit="10" d="M67.67,46.42
				c0.06,0.02,0.13,0.03,0.19,0.03"/>
		</g>
		<g>
			<path fill="none" stroke="#1D2132" stroke-width="0.1" stroke-linecap="square" stroke-miterlimit="10" d="M74.35,46.44
				c0.07,0,0.12-0.05,0.12-0.12"/>
		</g>
		<g>
			<path fill="none" stroke="#1D2132" stroke-width="0.1" stroke-linecap="square" stroke-miterlimit="10" d="M67.67,46.42
				c0.06,0.02,0.13,0.03,0.19,0.03"/>
		</g>
		<g>
			<path fill="none" stroke="#1D2132" stroke-width="0.1" stroke-linecap="square" stroke-miterlimit="10" d="M65.13,36.99
				c-0.07,0-0.12,0.05-0.12,0.12"/>
		</g>
		<g>
			<path fill="none" stroke="#1D2132" stroke-width="0.1" stroke-linecap="square" stroke-miterlimit="10" d="M65.03,43.72
				c0.6,1.16,1.55,2.11,2.72,2.72"/>
		</g>
		<g>
			<path fill="none" stroke="#1D2132" stroke-width="0.1" stroke-linecap="square" stroke-miterlimit="10" d="M65.01,43.6
				c0,0.07,0.01,0.13,0.03,0.19"/>
		</g>
		<g>
			<path fill="none" stroke="#1D2132" stroke-width="0.1" stroke-linecap="square" stroke-miterlimit="10" d="M65.04,43.78
				c0.41,1.24,1.39,2.21,2.62,2.63"/>
		</g>
		<g>
			<path fill="none" stroke="#1D2132" stroke-width="0.1" stroke-linecap="square" stroke-miterlimit="10" d="M65.01,43.6
				c0,0.07,0.01,0.13,0.03,0.19"/>
		</g>
		<g>
			<path fill="none" stroke="#1D2132" stroke-width="0.1" stroke-linecap="square" stroke-miterlimit="10" d="M67.14,44.85
				c-0.29,0-0.53-0.24-0.53-0.53c-0.01-0.3,0.23-0.53,0.53-0.53c0.29,0,0.53,0.24,0.53,0.53C67.67,44.6,67.43,44.85,67.14,44.85"/>
		</g>
		<g>
			<path fill="none" stroke="#1D2132" stroke-width="0.1" stroke-linecap="square" stroke-miterlimit="10" d="M67.14,45.06
				c-0.41,0-0.75-0.33-0.75-0.75c0-0.41,0.33-0.75,0.75-0.75c0.41,0,0.75,0.33,0.75,0.75C67.88,44.72,67.56,45.06,67.14,45.06"/>
		</g>
		<path fill="none" stroke="#1D2132" stroke-width="0.1" stroke-linecap="square" stroke-miterlimit="10" d="M75.06,36.67v10.04
			c0,0.16-0.13,0.29-0.29,0.29H64.74c-0.16,0-0.29-0.13-0.29-0.29V36.69c0-0.16,0.13-0.29,0.29-0.29h10.03
			C74.93,36.4,75.06,36.53,75.06,36.67z"/>
	</g>
	<g>
		<g>
			<path fill="#FFFFFF" stroke="#1D2132" stroke-width="0.1" stroke-linecap="square" stroke-miterlimit="10" d="M70.36,29.96
				c0,0.09,0.1,0.17,0.21,0.17c0.12,0,0.21-0.08,0.21-0.17s-0.1-0.17-0.21-0.17S70.36,29.86,70.36,29.96z"/>
			
				<ellipse fill="#FFFFFF" stroke="#1D2132" stroke-width="0.1" stroke-linecap="square" stroke-miterlimit="10" cx="69.67" cy="29.96" rx="0.21" ry="0.17"/>
			<path fill="#FFFFFF" stroke="#1D2132" stroke-width="0.1" stroke-linecap="square" stroke-miterlimit="10" d="M65.72,29.96
				c0,0.09,0.1,0.17,0.21,0.17s0.21-0.08,0.21-0.17s-0.1-0.17-0.21-0.17S65.72,29.86,65.72,29.96z"/>
			<path fill="#FFFFFF" stroke="#1D2132" stroke-width="0.1" stroke-linecap="square" stroke-miterlimit="10" d="M65.74,29.96
				c-0.48,0-0.87-0.1-0.87-0.23v-0.58c0-0.13,0.39-0.23,0.87-0.23h5.06c0.48,0,0.87,0.1,0.87,0.23v0.58c0,0.13-0.39,0.23-0.87,0.23
				H65.74z"/>
			
				<rect x="64.46" y="24.59" fill="#FFFFFF" stroke="#1D2132" stroke-width="0.1" stroke-linecap="square" stroke-miterlimit="10" width="7.53" height="5.07"/>
			<path fill="#FFFFFF" stroke="#1D2132" stroke-width="0.1" stroke-linecap="square" stroke-miterlimit="10" d="M65.74,29.38
				c-0.48,0-0.86-0.83-0.86-1.85V26.7c0-1.02,0.39-1.85,0.86-1.85h5.06c0.48,0,0.86,0.83,0.86,1.85v0.83c0,1.02-0.39,1.85-0.86,1.85
				L65.74,29.38z"/>
		</g>
		<g>
			<path fill="#FFFFFF" stroke="#1D2132" stroke-width="0.1" stroke-linecap="square" stroke-miterlimit="10" d="M65.85,25.45h4.6
				c0.1,0,0.17-0.08,0.17-0.17l0,0c0-0.1-0.08-0.17-0.17-0.17h-4.6c-0.1,0-0.17,0.08-0.17,0.17l0,0
				C65.68,25.37,65.75,25.45,65.85,25.45z"/>
			<g>
				
					<rect x="70.12" y="24.32" fill="#FFFFFF" stroke="#1D2132" stroke-width="0.1" stroke-linecap="square" stroke-miterlimit="10" width="0.29" height="0.78"/>
				
					<rect x="65.86" y="24.32" fill="#FFFFFF" stroke="#1D2132" stroke-width="0.1" stroke-linecap="square" stroke-miterlimit="10" width="0.29" height="0.78"/>
			</g>
			<g>
				
					<rect x="69.96" y="24.17" fill="#FFFFFF" stroke="#1D2132" stroke-width="0.1" stroke-linecap="square" stroke-miterlimit="10" width="0.62" height="0.15"/>
				
					<rect x="65.68" y="24.17" fill="#FFFFFF" stroke="#1D2132" stroke-width="0.1" stroke-linecap="square" stroke-miterlimit="10" width="0.62" height="0.15"/>
			</g>
		</g>
	</g>
</g>
<g id="Windows">
	<g id="Windows_4_1_">
		<path fill="#1D2132" d="M0.28,35.67H4.4V11.2H0.28V35.67z M0.38,11.31H4.3v24.28H0.38V11.31L0.38,11.31z"/>
		<g>
			<rect x="1.31" y="11.94" fill="#1D2132" width="1.03" height="23.09"/>
			<rect x="1.44" y="12.14" fill="#FFFFFF" width="0.82" height="22.89"/>
			<line fill="none" stroke="#1D2132" stroke-width="0.1" stroke-miterlimit="10" x1="2.27" y1="15.47" x2="1.4" y2="15.47"/>
			<line fill="none" stroke="#1D2132" stroke-width="0.1" stroke-miterlimit="10" x1="2.26" y1="33.92" x2="1.38" y2="33.92"/>
			<line fill="none" stroke="#1D2132" stroke-width="0.1" stroke-miterlimit="10" x1="1.84" y1="23.98" x2="1.84" y2="33.92"/>
			<line fill="none" stroke="#1D2132" stroke-width="0.1" stroke-miterlimit="10" x1="1.84" y1="15.47" x2="1.84" y2="24.06"/>
		</g>
	</g>
</g>
<g id="Doors">
	
		<use xlink:href="#Doors_x5F_2"  width="9.8" height="7.14" id="XMLID_20" x="-4.9" y="-3.57" transform="matrix(0 -1.4377 -1.4377 0 93.9848 15.2141)" overflow="visible"/>
	<g id="XMLID_19">
		<g>
			<g>
				<polygon fill="none" stroke="#1D2132" stroke-width="0.1" stroke-miterlimit="10" points="86.76,24.09 86.76,23.06 86.35,23.06 
					86.35,24.09 				"/>
				<polygon fill="none" stroke="#1D2132" stroke-width="0.1" stroke-miterlimit="10" points="75.51,24.09 75.51,23.06 75.94,23.06 
					75.94,24.09 				"/>
				<polyline fill="none" stroke="#1D2132" stroke-width="0.1" stroke-miterlimit="10" points="75.94,23.07 75.94,22.88 
					75.96,22.68 75.97,22.49 75.99,22.31 76,22.11 76.03,21.92 76.04,21.74 76.08,21.56 76.11,21.36 76.15,21.17 76.18,20.99 
					76.22,20.81 76.26,20.62 76.32,20.43 76.36,20.25 76.42,20.08 76.47,19.89 76.54,19.7 76.6,19.52 76.67,19.35 76.74,19.17 
					76.81,19 76.89,18.83 76.97,18.66 77.04,18.49 77.12,18.32 77.22,18.15 77.31,17.98 77.4,17.81 77.5,17.65 77.6,17.49 
					77.69,17.33 77.81,17.16 77.9,17 78.01,16.85 78.14,16.7 78.25,16.56 78.36,16.41 78.49,16.25 78.61,16.11 78.74,15.97 
					78.86,15.83 79,15.69 				"/>
				<polygon fill="none" stroke="#1D2132" stroke-width="0.1" stroke-miterlimit="10" points="85.99,23.32 78.74,15.97 79,15.69 
					86.29,23.02 				"/>
			</g>
		</g>
	</g>
</g>
<g id="Text">
	
		<text id="TXT---" transform="matrix(1 0 0 1 18.9634 15.4536)" opacity="0.7" fill="#1D2132" enable-background="new    " font-family="'Cannonade-Medium'" font-size="3px">15,88</text>
	
		<text id="TXT--" transform="matrix(1 0 0 1 65.6747 17.0508)" opacity="0.7" fill="#1D2132" enable-background="new    " font-family="'Cannonade-Medium'" font-size="3px">4,16</text>
	
		<text id="TXT--" transform="matrix(1 0 0 1 77.8866 34.8988)" opacity="0.7" fill="#1D2132" enable-background="new    " font-family="'Cannonade-Medium'" font-size="3px">4,32</text>
</g>
<g id="Walls">
	<polygon fill="#1D2132" stroke="#1D2132" stroke-width="0.1" stroke-miterlimit="10" points="2.29,35.67 4.35,35.69 4.35,46.99 
		97.38,46.99 97.38,22.24 99.71,22.24 99.71,49.28 0.33,49.28 0.33,35.03 2.29,35.03 	"/>
	<polygon fill="#1D2132" stroke="#1D2132" stroke-width="0.1" stroke-miterlimit="10" points="0.33,0.28 0.33,14.34 2.3,14.34 
		2.3,13.61 4.35,13.61 4.35,2.37 97.38,2.37 97.38,8.2 99.71,8.2 99.71,0.28 	"/>
	<rect x="80.33" y="2.37" fill="#1D2132" stroke="#1D2132" stroke-width="0.1" stroke-miterlimit="10" width="1.04" height="7.81"/>
	<rect x="55.61" y="2.37" fill="#1D2132" stroke="#1D2132" stroke-width="0.1" stroke-miterlimit="10" width="1.04" height="7.81"/>
	<polygon fill="#1D2132" stroke="#1D2132" stroke-width="0.1" stroke-miterlimit="10" points="64.46,46.99 64.46,24.09 75.51,24.09 
		75.51,23.06 63.42,23.06 63.42,46.99 	"/>
	
		<rect x="86.76" y="23.06" fill="#1D2132" stroke="#1D2132" stroke-width="0.1" stroke-miterlimit="10" width="10.61" height="1.04"/>
</g>
<g id="Details">
	<g>
		
			<rect x="95.08" y="44.9" fill="#FFFFFF" stroke="#1D2132" stroke-width="0.5" stroke-linecap="square" stroke-miterlimit="10" width="2" height="2"/>
		<polygon fill="#1D2132" stroke="#1D2132" stroke-width="0.1" stroke-miterlimit="10" points="96.97,46.78 96.97,44.9 96.3,46.11 
			95.08,46.78 		"/>
	</g>
</g>
</svg>
