<?xml version="1.0" encoding="utf-8"?>
<!-- Generator: Adobe Illustrator 22.0.0, SVG Export Plug-In . SVG Version: 6.00 Build 0)  -->
<svg version="1.1" id="Layer_1" xmlns="http://www.w3.org/2000/svg" xmlns:xlink="http://www.w3.org/1999/xlink" x="0px" y="0px"
	 viewBox="0 0 102 50" enable-background="new 0 0 102 50" xml:space="preserve">
<symbol  id="Doors_x5F_2" viewBox="-4.9 -3.57 9.8 7.14">
	<g>
		<polygon fill="none" stroke="#1D2132" stroke-width="0.1" stroke-miterlimit="10" points="-4.49,-3.52 -4.49,-2.79 -4.85,-2.79 
			-4.85,-3.52 		"/>
		<polygon fill="none" stroke="#1D2132" stroke-width="0.1" stroke-miterlimit="10" points="4.49,-3.52 4.49,-2.79 4.85,-2.79 
			4.85,-3.52 		"/>
		<polyline fill="none" stroke="#1D2132" stroke-width="0.1" stroke-miterlimit="10" points="1.86,3.5 1.97,3.38 2.08,3.26 
			2.19,3.14 2.29,3.02 2.4,2.89 2.5,2.76 2.6,2.63 2.7,2.5 2.79,2.37 2.88,2.23 2.97,2.1 3.06,1.96 3.15,1.82 3.23,1.68 3.31,1.54 
			3.39,1.39 3.46,1.25 3.54,1.1 3.61,0.95 3.68,0.8 3.74,0.65 3.8,0.5 3.86,0.35 3.92,0.2 3.97,0.04 4.03,-0.11 4.08,-0.27 
			4.12,-0.42 4.17,-0.58 4.21,-0.74 4.25,-0.9 4.28,-1.06 4.31,-1.22 4.34,-1.38 4.37,-1.54 4.39,-1.7 4.42,-1.87 4.43,-2.03 
			4.45,-2.19 4.46,-2.35 4.47,-2.52 4.48,-2.68 4.48,-2.84 		"/>
		<polygon fill="none" stroke="#1D2132" stroke-width="0.1" stroke-miterlimit="10" points="-4.42,-2.81 1.86,3.5 2.08,3.26 
			-4.16,-3.06 		"/>
	</g>
</symbol>
<g id="Background">
	<rect x="1.41" y="0.95" opacity="0.1" fill="#1D2132" enable-background="new    " width="96.29" height="47.25"/>
</g>
<g id="Furniture">
	<g>
		
			<rect x="36.69" y="2.6" fill="#FFFFFF" stroke="#1D2132" stroke-width="0.1" stroke-linecap="square" stroke-miterlimit="22.9256" width="8.33" height="17.59"/>
		
			<rect x="36.69" y="13.73" fill="#FFFFFF" stroke="#1D2132" stroke-width="0.1" stroke-linecap="square" stroke-miterlimit="22.9256" width="8.33" height="6.48"/>
		
			<rect x="36.69" y="2.58" fill="#FFFFFF" stroke="#1D2132" stroke-width="0.1" stroke-linecap="square" stroke-miterlimit="22.9256" width="8.33" height="7.01"/>
		
			<rect x="36.69" y="20.19" fill="#FFFFFF" stroke="#1D2132" stroke-width="0.1" stroke-linecap="square" stroke-miterlimit="22.9256" width="8.33" height="5.32"/>
		<g>
			
				<line fill="none" stroke="#1D2132" stroke-width="0.1" stroke-linecap="square" stroke-miterlimit="22.9256" x1="39.81" y1="22.86" x2="41.89" y2="22.86"/>
			
				<line fill="none" stroke="#1D2132" stroke-width="0.1" stroke-linecap="square" stroke-miterlimit="22.9256" x1="40.11" y1="23.59" x2="41.58" y2="22.12"/>
			
				<line fill="none" stroke="#1D2132" stroke-width="0.1" stroke-linecap="square" stroke-miterlimit="22.9256" x1="40.84" y1="23.9" x2="40.84" y2="21.81"/>
			
				<line fill="none" stroke="#1D2132" stroke-width="0.1" stroke-linecap="square" stroke-miterlimit="22.9256" x1="41.58" y1="23.59" x2="40.11" y2="22.12"/>
		</g>
		<g>
			
				<rect x="37.03" y="14.58" fill="#FFFFFF" stroke="#1D2132" stroke-width="0.1" stroke-linecap="square" stroke-miterlimit="22.9256" width="7.64" height="4.86"/>
			<g>
				<path fill="#FFFFFF" stroke="#1D2132" stroke-width="0.1" stroke-linecap="square" stroke-miterlimit="22.9256" d="M42.59,15.67
					c-0.74,0-1.33,0.6-1.33,1.33c0,0.74,0.59,1.33,1.33,1.33s1.33-0.59,1.33-1.33C43.92,16.27,43.32,15.67,42.59,15.67"/>
				<path fill="#FFFFFF" stroke="#1D2132" stroke-width="0.1" stroke-linecap="square" stroke-miterlimit="22.9256" d="M38.82,15.67
					c-0.73,0-1.33,0.6-1.33,1.33c0,0.74,0.59,1.33,1.33,1.33s1.33-0.59,1.33-1.33C40.15,16.27,39.56,15.67,38.82,15.67"/>
				<path fill="#FFFFFF" stroke="#1D2132" stroke-width="0.1" stroke-linecap="square" stroke-miterlimit="22.9256" d="M42.59,15.94
					c-0.58,0-1.06,0.48-1.06,1.06s0.48,1.06,1.06,1.06s1.06-0.48,1.06-1.06S43.17,15.94,42.59,15.94"/>
				<path fill="#FFFFFF" stroke="#1D2132" stroke-width="0.1" stroke-linecap="square" stroke-miterlimit="22.9256" d="M38.82,15.94
					c-0.58,0-1.06,0.48-1.06,1.06s0.48,1.06,1.06,1.06s1.06-0.48,1.06-1.06S39.41,15.94,38.82,15.94"/>
			</g>
		</g>
		<g>
			<path fill="#FFFFFF" stroke="#1D2132" stroke-width="0.1" stroke-linecap="square" stroke-miterlimit="22.9256" d="M38.24,7.72
				V4.51c0-0.27,0.21-0.48,0.48-0.48h5.3c0.27,0,0.48,0.21,0.48,0.48v3.21c0,0.27-0.21,0.48-0.48,0.48h-5.3
				C38.45,8.2,38.24,7.99,38.24,7.72z"/>
			<g>
				<path fill="#FFFFFF" stroke="#1D2132" stroke-width="0.1" stroke-linecap="square" stroke-miterlimit="22.9256" d="M39.42,5.78
					c0.21,0,0.38,0.15,0.38,0.34s-0.17,0.34-0.38,0.34c-0.21,0-0.38-0.15-0.38-0.34C39.04,5.93,39.21,5.77,39.42,5.78z"/>
				<g>
					<path fill="#FFFFFF" stroke="#1D2132" stroke-width="0.1" stroke-linecap="square" stroke-miterlimit="22.9256" d="M37.72,5.55
						c0.29,0.01,0.52,0.26,0.52,0.57c0,0.32-0.23,0.57-0.52,0.57S37.2,6.44,37.2,6.12S37.43,5.55,37.72,5.55z"/>
					<path fill="#FFFFFF" stroke="#1D2132" stroke-width="0.1" stroke-linecap="square" stroke-miterlimit="22.9256" d="M40.66,6.13
						c0,0.1-0.11,0.17-0.27,0.17l-2.71-0.01c-0.15,0-0.27-0.08-0.27-0.17l0,0c0-0.1,0.12-0.17,0.27-0.17l2.71,0.01
						C40.54,5.96,40.66,6.03,40.66,6.13L40.66,6.13z"/>
					<path fill="#FFFFFF" stroke="#1D2132" stroke-width="0.1" stroke-linecap="square" stroke-miterlimit="22.9256" d="M37.74,5.33
						c0.09,0,0.15,0.35,0.15,0.79c0,0.43-0.08,0.79-0.16,0.79c-0.1,0-0.16-0.35-0.16-0.79C37.57,5.68,37.64,5.32,37.74,5.33z"/>
				</g>
			</g>
		</g>
	</g>
</g>
<g id="Plumbing">
	<g>
		<polyline fill="#FFFFFF" points="20.93,5.54 20.93,2.76 14.69,2.76 14.69,5.54 14.69,5.74 14.72,5.93 14.76,6.12 14.83,6.3 
			14.92,6.48 15.02,6.64 15.15,6.79 15.28,6.92 15.48,7.07 15.7,7.2 15.92,7.31 16.15,7.41 16.37,7.49 16.62,7.57 16.86,7.63 
			17.1,7.68 17.35,7.71 17.59,7.74 17.81,7.75 18.03,7.74 18.27,7.72 18.52,7.68 18.76,7.63 19,7.57 19.21,7.5 19.47,7.41 
			19.7,7.31 19.92,7.2 20.14,7.07 20.34,6.92 20.47,6.79 20.6,6.64 20.7,6.48 20.79,6.3 20.86,6.12 20.9,5.93 20.93,5.74 
			20.93,5.64 20.93,5.54 		"/>
		
			<line fill="none" stroke="#1D2132" stroke-width="0.1" stroke-linecap="square" stroke-miterlimit="10" x1="20.93" y1="2.76" x2="14.69" y2="2.76"/>
		
			<line fill="none" stroke="#1D2132" stroke-width="0.1" stroke-linecap="square" stroke-miterlimit="10" x1="14.69" y1="2.76" x2="14.69" y2="5.54"/>
		
			<line fill="none" stroke="#1D2132" stroke-width="0.1" stroke-linecap="square" stroke-miterlimit="10" x1="20.93" y1="2.76" x2="20.93" y2="5.54"/>
		
			<line fill="none" stroke="#1D2132" stroke-width="0.1" stroke-linecap="square" stroke-miterlimit="10" x1="16.83" y1="2.76" x2="18.79" y2="2.76"/>
		
			<line fill="none" stroke="#1D2132" stroke-width="0.1" stroke-linecap="square" stroke-miterlimit="10" x1="17.29" y1="4.99" x2="17.62" y2="4.99"/>
		
			<line fill="none" stroke="#1D2132" stroke-width="0.1" stroke-linecap="square" stroke-miterlimit="10" x1="17.81" y1="4.44" x2="17.81" y2="4.79"/>
		
			<line fill="none" stroke="#1D2132" stroke-width="0.1" stroke-linecap="square" stroke-miterlimit="10" x1="18" y1="4.99" x2="18.34" y2="4.99"/>
		
			<line fill="none" stroke="#1D2132" stroke-width="0.1" stroke-linecap="square" stroke-miterlimit="10" x1="17.81" y1="5.2" x2="17.81" y2="5.55"/>
		<path fill="none" stroke="#1D2132" stroke-width="0.1" stroke-linecap="square" stroke-miterlimit="10" d="M19.47,4.33
			c0.49,0.33,0.86,0.82,1.08,1.39"/>
		<path fill="none" stroke="#1D2132" stroke-width="0.1" stroke-linecap="square" stroke-miterlimit="10" d="M17.81,3.92
			c0.07-0.01,0.15-0.01,0.22-0.01c0.51,0,1,0.14,1.43,0.42"/>
		<path fill="none" stroke="#1D2132" stroke-width="0.1" stroke-linecap="square" stroke-miterlimit="10" d="M15.07,5.71
			c0.21-0.57,0.59-1.05,1.08-1.39"/>
		<path fill="none" stroke="#1D2132" stroke-width="0.1" stroke-linecap="square" stroke-miterlimit="10" d="M16.15,4.33
			c0.43-0.27,0.93-0.42,1.43-0.42c0.07,0,0.15,0,0.22,0.01"/>
		<path fill="none" stroke="#1D2132" stroke-width="0.1" stroke-linecap="square" stroke-miterlimit="10" d="M19.92,7.2
			c-0.59,0.31-1.24,0.49-1.89,0.54"/>
		<path fill="none" stroke="#1D2132" stroke-width="0.1" stroke-linecap="square" stroke-miterlimit="10" d="M15.28,6.92
			c-0.38-0.32-0.59-0.8-0.59-1.3c0-0.02,0-0.05,0-0.07"/>
		<path fill="none" stroke="#1D2132" stroke-width="0.1" stroke-linecap="square" stroke-miterlimit="10" d="M18.03,7.74
			c-0.07,0.01-0.15,0.01-0.22,0.01s-0.15,0-0.22-0.01"/>
		<path fill="none" stroke="#1D2132" stroke-width="0.1" stroke-linecap="square" stroke-miterlimit="10" d="M16.07,4.43
			c0.58-0.09,1.16-0.14,1.74-0.14s1.17,0.05,1.75,0.14"/>
		<path fill="none" stroke="#1D2132" stroke-width="0.1" stroke-linecap="square" stroke-miterlimit="10" d="M16.05,3.29
			c0.58-0.09,1.17-0.13,1.76-0.13"/>
		<path fill="none" stroke="#1D2132" stroke-width="0.1" stroke-linecap="square" stroke-miterlimit="10" d="M14.85,5.97
			c0-0.02,0-0.03,0-0.05c0-0.9,0.31-1.78,0.88-2.46"/>
		<path fill="none" stroke="#1D2132" stroke-width="0.1" stroke-linecap="square" stroke-miterlimit="10" d="M15.73,3.47
			c0.08-0.1,0.2-0.16,0.32-0.18"/>
		<path fill="none" stroke="#1D2132" stroke-width="0.1" stroke-linecap="square" stroke-miterlimit="10" d="M19.89,3.46
			c0.57,0.68,0.88,1.55,0.88,2.46c0,0.01,0,0.03,0,0.04"/>
		<path fill="none" stroke="#1D2132" stroke-width="0.1" stroke-linecap="square" stroke-miterlimit="10" d="M17.81,3.15
			c0.59,0,1.18,0.05,1.76,0.13"/>
		<path fill="none" stroke="#1D2132" stroke-width="0.1" stroke-linecap="square" stroke-miterlimit="10" d="M19.57,3.29
			c0.12,0.02,0.24,0.08,0.32,0.18"/>
		<path fill="none" stroke="#1D2132" stroke-width="0.1" stroke-linecap="square" stroke-miterlimit="10" d="M20.93,5.54
			c0,0.02,0,0.05,0,0.07c0,0.51-0.22,0.99-0.59,1.3"/>
		<path fill="none" stroke="#1D2132" stroke-width="0.1" stroke-linecap="square" stroke-miterlimit="10" d="M20.34,6.92
			c-0.13,0.11-0.27,0.2-0.41,0.28"/>
		<path fill="none" stroke="#1D2132" stroke-width="0.1" stroke-linecap="square" stroke-miterlimit="10" d="M15.7,7.2
			c-0.15-0.08-0.29-0.17-0.41-0.28"/>
		<path fill="none" stroke="#1D2132" stroke-width="0.1" stroke-linecap="square" stroke-miterlimit="10" d="M17.59,7.74
			c-0.66-0.05-1.3-0.24-1.89-0.54"/>
		<path fill="none" stroke="#1D2132" stroke-width="0.1" stroke-linecap="square" stroke-miterlimit="10" d="M18.67,7.28
			c-0.28,0.07-0.57,0.11-0.86,0.11s-0.58-0.04-0.86-0.11"/>
		<path fill="none" stroke="#1D2132" stroke-width="0.1" stroke-linecap="square" stroke-miterlimit="10" d="M20.55,5.71
			c0,0.02,0,0.04,0,0.07c0,0.29-0.12,0.56-0.32,0.75"/>
		<path fill="none" stroke="#1D2132" stroke-width="0.1" stroke-linecap="square" stroke-miterlimit="10" d="M20.22,6.53
			c-0.45,0.38-0.98,0.64-1.55,0.75"/>
		<path fill="none" stroke="#1D2132" stroke-width="0.1" stroke-linecap="square" stroke-miterlimit="10" d="M15.4,6.53
			c-0.21-0.19-0.32-0.46-0.32-0.75c0-0.02,0-0.04,0-0.07"/>
		<path fill="none" stroke="#1D2132" stroke-width="0.1" stroke-linecap="square" stroke-miterlimit="10" d="M16.95,7.28
			c-0.57-0.11-1.11-0.36-1.56-0.75"/>
		<path fill="none" stroke="#1D2132" stroke-width="0.1" stroke-linecap="square" stroke-miterlimit="10" d="M17.81,4.57
			c-0.22,0-0.4,0.19-0.4,0.43s0.18,0.43,0.4,0.43s0.4-0.19,0.4-0.43C18.22,4.76,18.03,4.57,17.81,4.57"/>
		<path fill="none" stroke="#1D2132" stroke-width="0.1" stroke-linecap="square" stroke-miterlimit="10" d="M17.81,4.76
			c-0.12,0-0.22,0.1-0.22,0.23s0.1,0.23,0.22,0.23c0.12,0,0.22-0.1,0.22-0.23C18.03,4.87,17.93,4.76,17.81,4.76"/>
	</g>
	<g>
		<polygon fill="#FFFFFF" points="2.61,12.47 2.61,10.06 4.29,10.06 4.31,10.06 4.33,10.07 4.36,10.07 4.38,10.08 4.4,10.08 
			4.42,10.09 4.44,10.1 4.46,10.12 4.47,10.12 4.49,10.14 4.5,10.16 4.52,10.18 4.53,10.19 4.54,10.21 4.55,10.23 4.56,10.25 
			9.03,10.25 9.14,10.26 9.25,10.27 9.36,10.28 9.46,10.3 9.57,10.33 9.67,10.35 9.77,10.4 9.87,10.44 9.96,10.49 10.06,10.53 
			10.15,10.6 10.23,10.66 10.32,10.73 10.39,10.8 10.47,10.88 10.54,10.96 10.61,11.03 10.67,11.12 10.73,11.19 10.78,11.28 
			10.83,11.38 10.88,11.47 10.92,11.57 10.96,11.66 10.99,11.76 11.02,11.85 11.05,11.96 11.07,12.06 11.08,12.16 11.09,12.26 
			11.1,12.37 11.1,12.47 11.1,12.57 11.09,12.68 11.08,12.78 11.07,12.88 11.05,12.98 11.02,13.08 10.99,13.18 10.96,13.28 
			10.92,13.37 10.88,13.47 10.83,13.56 10.78,13.65 10.73,13.74 10.67,13.82 10.61,13.91 10.54,13.99 10.47,14.06 10.39,14.14 
			10.32,14.21 10.23,14.28 10.15,14.34 10.06,14.4 9.96,14.44 9.87,14.5 9.77,14.53 9.67,14.58 9.57,14.6 9.46,14.64 9.36,14.66 
			9.25,14.68 9.14,14.68 9.03,14.69 4.56,14.69 4.55,14.71 4.54,14.73 4.53,14.75 4.52,14.76 4.5,14.78 4.49,14.8 4.47,14.81 
			4.46,14.83 4.44,14.84 4.42,14.85 4.4,14.85 4.38,14.85 4.36,14.87 4.33,14.87 4.31,14.88 4.29,14.88 2.61,14.88 		"/>
		
			<line fill="none" stroke="#1D2132" stroke-width="0.1" stroke-linecap="square" stroke-miterlimit="10" x1="4.56" y1="10.25" x2="9.03" y2="10.25"/>
		
			<line fill="none" stroke="#1D2132" stroke-width="0.1" stroke-linecap="square" stroke-miterlimit="10" x1="2.61" y1="10.06" x2="2.61" y2="14.88"/>
		
			<line fill="none" stroke="#1D2132" stroke-width="0.1" stroke-linecap="square" stroke-miterlimit="10" x1="2.61" y1="10.06" x2="4.29" y2="10.06"/>
		
			<line fill="none" stroke="#1D2132" stroke-width="0.1" stroke-linecap="square" stroke-miterlimit="10" x1="5.35" y1="12.47" x2="5.35" y2="14.26"/>
		
			<line fill="none" stroke="#1D2132" stroke-width="0.1" stroke-linecap="square" stroke-miterlimit="10" x1="9.03" y1="10.25" x2="5.35" y2="10.69"/>
		
			<line fill="none" stroke="#1D2132" stroke-width="0.1" stroke-linecap="square" stroke-miterlimit="10" x1="5.35" y1="12.47" x2="5.35" y2="10.69"/>
		
			<line fill="none" stroke="#1D2132" stroke-width="0.1" stroke-linecap="square" stroke-miterlimit="10" x1="9.03" y1="14.69" x2="5.35" y2="14.26"/>
		
			<line fill="none" stroke="#1D2132" stroke-width="0.1" stroke-linecap="square" stroke-miterlimit="10" x1="4.56" y1="14.69" x2="9.03" y2="14.69"/>
		
			<line fill="none" stroke="#1D2132" stroke-width="0.1" stroke-linecap="square" stroke-miterlimit="10" x1="2.61" y1="14.88" x2="4.29" y2="14.88"/>
		<path fill="none" stroke="#1D2132" stroke-width="0.1" stroke-linecap="square" stroke-miterlimit="10" d="M4.57,14.62
			c0.08-0.72,0.11-1.44,0.11-2.16s-0.04-1.44-0.12-2.16"/>
		<path fill="none" stroke="#1D2132" stroke-width="0.1" stroke-linecap="square" stroke-miterlimit="10" d="M4.57,10.31
			c-0.02-0.14-0.14-0.25-0.28-0.25"/>
		<path fill="none" stroke="#1D2132" stroke-width="0.1" stroke-linecap="square" stroke-miterlimit="10" d="M9.03,14.69
			c1.14,0,2.07-0.99,2.07-2.22c0-1.22-0.93-2.22-2.07-2.22"/>
		<path fill="none" stroke="#1D2132" stroke-width="0.1" stroke-linecap="square" stroke-miterlimit="10" d="M4.29,14.88
			c0.14,0,0.27-0.11,0.28-0.25"/>
		<path fill="none" stroke="#1D2132" stroke-width="0.1" stroke-linecap="square" stroke-miterlimit="10" d="M3.44,12.47
			c0-0.13,0.11-0.23,0.24-0.23s0.24,0.1,0.24,0.23S3.81,12.7,3.68,12.7C3.53,12.69,3.44,12.6,3.44,12.47"/>
	</g>
	<g>
		<path fill="#FFFFFF" d="M24.94,13.12V2.72c0-0.06,0.04-0.1,0.1-0.1h10.41c0.06,0,0.1,0.04,0.1,0.1v10.41c0,0.06-0.04,0.1-0.1,0.1
			H25.04C24.99,13.22,24.94,13.17,24.94,13.12z"/>
		
			<line fill="none" stroke="#1D2132" stroke-width="0.1" stroke-linecap="square" stroke-miterlimit="10" x1="32.86" y1="4.28" x2="32.86" y2="4.97"/>
		
			<line fill="none" stroke="#1D2132" stroke-width="0.1" stroke-linecap="square" stroke-miterlimit="10" x1="33.16" y1="5.26" x2="33.83" y2="5.26"/>
		
			<line fill="none" stroke="#1D2132" stroke-width="0.1" stroke-linecap="square" stroke-miterlimit="10" x1="32.86" y1="5.56" x2="32.86" y2="6.22"/>
		
			<line fill="none" stroke="#1D2132" stroke-width="0.1" stroke-linecap="square" stroke-miterlimit="10" x1="31.89" y1="5.26" x2="32.57" y2="5.26"/>
		
			<line fill="none" stroke="#1D2132" stroke-width="0.1" stroke-linecap="square" stroke-miterlimit="10" x1="25.53" y1="3.24" x2="25.53" y2="6.08"/>
		
			<line fill="none" stroke="#1D2132" stroke-width="0.1" stroke-linecap="square" stroke-miterlimit="10" x1="34.99" y1="5.97" x2="34.99" y2="12.47"/>
		<path fill="none" stroke="#1D2132" stroke-width="0.1" stroke-linecap="square" stroke-miterlimit="10" d="M25.53,3.24v9.17
			c0,0.09,0.08,0.17,0.17,0.17h9.17"/>
		
			<line fill="none" stroke="#1D2132" stroke-width="0.1" stroke-linecap="square" stroke-miterlimit="10" x1="25.65" y1="3.13" x2="32.15" y2="3.13"/>
		<g>
			<path fill="none" stroke="#1D2132" stroke-width="0.1" stroke-linecap="square" stroke-miterlimit="10" d="M32.34,3.15
				c-0.06-0.02-0.13-0.03-0.19-0.03"/>
		</g>
		<g>
			<path fill="none" stroke="#1D2132" stroke-width="0.1" stroke-linecap="square" stroke-miterlimit="10" d="M25.65,3.13
				c-0.07,0-0.12,0.05-0.12,0.12"/>
		</g>
		<g>
			<path fill="none" stroke="#1D2132" stroke-width="0.1" stroke-linecap="square" stroke-miterlimit="10" d="M32.34,3.15
				c-0.06-0.02-0.13-0.03-0.19-0.03"/>
		</g>
		<g>
			<path fill="none" stroke="#1D2132" stroke-width="0.1" stroke-linecap="square" stroke-miterlimit="10" d="M34.87,12.58
				c0.07,0,0.12-0.05,0.12-0.12"/>
		</g>
		<g>
			<path fill="none" stroke="#1D2132" stroke-width="0.1" stroke-linecap="square" stroke-miterlimit="10" d="M34.98,5.85
				c-0.6-1.16-1.55-2.11-2.72-2.72"/>
		</g>
		<g>
			<path fill="none" stroke="#1D2132" stroke-width="0.1" stroke-linecap="square" stroke-miterlimit="10" d="M34.99,5.97
				c0-0.07-0.01-0.13-0.03-0.19"/>
		</g>
		<g>
			<path fill="none" stroke="#1D2132" stroke-width="0.1" stroke-linecap="square" stroke-miterlimit="10" d="M34.96,5.78
				c-0.41-1.24-1.39-2.21-2.62-2.63"/>
		</g>
		<g>
			<path fill="none" stroke="#1D2132" stroke-width="0.1" stroke-linecap="square" stroke-miterlimit="10" d="M34.99,5.97
				c0-0.07-0.01-0.13-0.03-0.19"/>
		</g>
		<g>
			<path fill="none" stroke="#1D2132" stroke-width="0.1" stroke-linecap="square" stroke-miterlimit="10" d="M32.86,4.72
				c0.29,0,0.53,0.24,0.53,0.53c0.01,0.3-0.23,0.53-0.53,0.53c-0.29,0-0.53-0.24-0.53-0.53C32.33,4.97,32.57,4.72,32.86,4.72"/>
		</g>
		<g>
			<path fill="none" stroke="#1D2132" stroke-width="0.1" stroke-linecap="square" stroke-miterlimit="10" d="M32.86,4.51
				c0.41,0,0.75,0.33,0.75,0.75c0,0.41-0.33,0.75-0.75,0.75c-0.41,0-0.75-0.33-0.75-0.75C32.12,4.85,32.45,4.51,32.86,4.51"/>
		</g>
		<path fill="none" stroke="#1D2132" stroke-width="0.1" stroke-linecap="square" stroke-miterlimit="10" d="M24.94,12.9V2.85
			c0-0.16,0.13-0.29,0.29-0.29h10.03c0.16,0,0.29,0.13,0.29,0.29v10.03c0,0.16-0.13,0.29-0.29,0.29H25.23
			C25.07,13.17,24.94,13.04,24.94,12.9z"/>
	</g>
	<g>
		<g>
			<path fill="#FFFFFF" stroke="#1D2132" stroke-width="0.1" stroke-linecap="square" stroke-miterlimit="10" d="M29.64,19.61
				c0-0.09-0.1-0.17-0.21-0.17c-0.12,0-0.21,0.08-0.21,0.17s0.1,0.17,0.21,0.17S29.64,19.71,29.64,19.61z"/>
			
				<ellipse fill="#FFFFFF" stroke="#1D2132" stroke-width="0.1" stroke-linecap="square" stroke-miterlimit="10" cx="30.34" cy="19.61" rx="0.21" ry="0.17"/>
			<path fill="#FFFFFF" stroke="#1D2132" stroke-width="0.1" stroke-linecap="square" stroke-miterlimit="10" d="M34.27,19.61
				c0-0.09-0.1-0.17-0.21-0.17s-0.21,0.08-0.21,0.17s0.1,0.17,0.21,0.17S34.28,19.71,34.27,19.61z"/>
			<path fill="#FFFFFF" stroke="#1D2132" stroke-width="0.1" stroke-linecap="square" stroke-miterlimit="10" d="M34.26,19.61
				c0.48,0,0.87,0.1,0.87,0.23v0.58c0,0.13-0.39,0.23-0.87,0.23H29.2c-0.48,0-0.87-0.1-0.87-0.23v-0.58c0-0.13,0.39-0.23,0.87-0.23
				H34.26z"/>
			
				<rect x="28.02" y="19.91" fill="#FFFFFF" stroke="#1D2132" stroke-width="0.1" stroke-linecap="square" stroke-miterlimit="10" width="7.53" height="5.07"/>
			<path fill="#FFFFFF" stroke="#1D2132" stroke-width="0.1" stroke-linecap="square" stroke-miterlimit="10" d="M34.26,20.19
				c0.48,0,0.86,0.83,0.86,1.85v0.83c0,1.02-0.39,1.85-0.86,1.85H29.2c-0.48,0-0.86-0.83-0.86-1.85v-0.83
				c0-1.02,0.39-1.85,0.86-1.85H34.26z"/>
		</g>
		<g>
			<path fill="#FFFFFF" stroke="#1D2132" stroke-width="0.1" stroke-linecap="square" stroke-miterlimit="10" d="M34.15,24.12h-4.6
				c-0.1,0-0.17,0.08-0.17,0.17l0,0c0,0.1,0.08,0.17,0.17,0.17h4.6c0.1,0,0.17-0.08,0.17-0.17l0,0
				C34.33,24.2,34.26,24.12,34.15,24.12z"/>
			<g>
				
					<rect x="29.59" y="24.47" fill="#FFFFFF" stroke="#1D2132" stroke-width="0.1" stroke-linecap="square" stroke-miterlimit="10" width="0.29" height="0.78"/>
				
					<rect x="33.85" y="24.47" fill="#FFFFFF" stroke="#1D2132" stroke-width="0.1" stroke-linecap="square" stroke-miterlimit="10" width="0.29" height="0.78"/>
			</g>
			<g>
				
					<rect x="29.42" y="25.25" fill="#FFFFFF" stroke="#1D2132" stroke-width="0.1" stroke-linecap="square" stroke-miterlimit="10" width="0.62" height="0.15"/>
				
					<rect x="33.69" y="25.25" fill="#FFFFFF" stroke="#1D2132" stroke-width="0.1" stroke-linecap="square" stroke-miterlimit="10" width="0.62" height="0.15"/>
			</g>
		</g>
	</g>
</g>
<g id="Windows">
	<g id="Windows_4_1_">
		<path fill="#1D2132" d="M101.71,8.9h-4.12v24.47h4.12V8.9z M101.61,33.26H97.7V8.99h3.91V33.26L101.61,33.26z"/>
		<g>
			<rect x="99.65" y="9.55" fill="#1D2132" width="1.03" height="23.09"/>
			<rect x="99.74" y="9.55" fill="#FFFFFF" width="0.82" height="22.89"/>
			<line fill="none" stroke="#1D2132" stroke-width="0.1" stroke-miterlimit="10" x1="99.73" y1="29.1" x2="100.6" y2="29.1"/>
			<line fill="none" stroke="#1D2132" stroke-width="0.1" stroke-miterlimit="10" x1="99.74" y1="10.65" x2="100.61" y2="10.65"/>
			<line fill="none" stroke="#1D2132" stroke-width="0.1" stroke-miterlimit="10" x1="100.16" y1="20.59" x2="100.16" y2="10.64"/>
			<line fill="none" stroke="#1D2132" stroke-width="0.1" stroke-miterlimit="10" x1="100.16" y1="29.1" x2="100.16" y2="20.51"/>
		</g>
	</g>
</g>
<g id="Doors">
	
		<use xlink:href="#Doors_x5F_2"  width="9.8" height="7.14" id="XMLID_20" x="-4.9" y="-3.57" transform="matrix(6.455000e-11 1.4377 1.4377 -6.455000e-11 6.0152 34.3559)" overflow="visible"/>
	<g id="XMLID_19">
		<g>
			<g>
				<polygon fill="none" stroke="#1D2132" stroke-width="0.1" stroke-miterlimit="10" points="13.24,25.48 13.24,26.51 13.65,26.51 
					13.65,25.48 				"/>
				<polygon fill="none" stroke="#1D2132" stroke-width="0.1" stroke-miterlimit="10" points="24.49,25.48 24.49,26.51 24.06,26.51 
					24.06,25.48 				"/>
				<polyline fill="none" stroke="#1D2132" stroke-width="0.1" stroke-miterlimit="10" points="24.06,26.5 24.06,26.69 24.05,26.89 
					24.03,27.08 24.01,27.26 24,27.45 23.98,27.65 23.95,27.83 23.92,28.01 23.9,28.2 23.85,28.4 23.83,28.58 23.78,28.76 
					23.74,28.94 23.68,29.14 23.64,29.32 23.59,29.49 23.52,29.68 23.47,29.86 23.41,30.05 23.34,30.22 23.26,30.4 23.19,30.57 
					23.11,30.74 23.03,30.91 22.95,31.08 22.88,31.25 22.78,31.42 22.69,31.59 22.6,31.76 22.51,31.92 22.41,32.08 22.31,32.24 
					22.19,32.41 22.09,32.57 21.99,32.72 21.86,32.87 21.76,33.01 21.64,33.17 21.51,33.32 21.39,33.46 21.26,33.6 21.14,33.74 
					21.01,33.88 				"/>
				<polygon fill="none" stroke="#1D2132" stroke-width="0.1" stroke-miterlimit="10" points="14.02,26.25 21.26,33.6 21.01,33.88 
					13.72,26.55 				"/>
			</g>
		</g>
	</g>
</g>
<g id="Text">
	
		<text id="TXT-Кухня-гостинная-С" transform="matrix(1 0 0 1 74.3633 36.9762)" opacity="0.7" fill="#1D2132" enable-background="new    " font-family="'Cannonade-Medium'" font-size="3px">20,88</text>
	
		<text id="TXT-Коридор-С" transform="matrix(1 0 0 1 29.015 34.395)" opacity="0.7" fill="#1D2132" enable-background="new    " font-family="'Cannonade-Medium'" font-size="3px">4,77</text>
	
		<text id="TXT-Санузел-С" transform="matrix(1 0 0 1 15.895 17.0078)" opacity="0.7" fill="#1D2132" enable-background="new    " font-family="'Cannonade-Medium'" font-size="3px">4,81</text>
</g>
<g id="Walls">
	<polygon fill="#1D2132" stroke="#1D2132" stroke-width="0.1" stroke-miterlimit="10" points="99.71,8.9 97.64,8.89 97.64,2.58 
		2.62,2.58 2.62,27.33 0.28,27.33 0.28,0.28 101.67,0.28 101.67,9.53 99.71,9.55 	"/>
	<polygon fill="#1D2132" stroke="#1D2132" stroke-width="0.1" stroke-miterlimit="10" points="101.67,49.28 101.67,30.24 
		99.69,30.24 99.69,30.95 97.64,30.95 97.64,47.21 2.62,47.21 2.62,41.37 0.28,41.37 0.28,49.28 	"/>
	<rect x="18.62" y="39.4" fill="#1D2132" stroke="#1D2132" stroke-width="0.1" stroke-miterlimit="10" width="1.04" height="7.81"/>
	<rect x="43.35" y="39.4" fill="#1D2132" stroke="#1D2132" stroke-width="0.1" stroke-miterlimit="10" width="1.04" height="7.81"/>
	<polygon fill="#1D2132" stroke="#1D2132" stroke-width="0.1" stroke-miterlimit="10" points="35.55,2.58 35.55,25.48 24.49,25.48 
		24.49,26.51 36.58,26.51 36.58,2.58 	"/>
	
		<rect x="2.62" y="25.47" fill="#1D2132" stroke="#1D2132" stroke-width="0.1" stroke-miterlimit="10" width="10.61" height="1.04"/>
</g>
<g id="Details">
	<g>
		
			<rect x="2.92" y="2.68" fill="#FFFFFF" stroke="#1D2132" stroke-width="0.5" stroke-linecap="square" stroke-miterlimit="10" width="2" height="2"/>
		<polygon fill="#1D2132" stroke="#1D2132" stroke-width="0.1" stroke-miterlimit="10" points="3.03,2.8 3.03,4.67 3.7,3.46 
			4.92,2.8 		"/>
	</g>
	<g>
		
			<rect x="2.69" y="21.46" fill="#FFFFFF" stroke="#1D2132" stroke-width="0.5" stroke-miterlimit="10" width="8.21" height="4.26"/>
		<g>
			
				<rect x="9.3" y="22.02" fill="#FFFFFF" stroke="#1D2132" stroke-width="0.1" stroke-linecap="square" stroke-miterlimit="22.9256" width="1.05" height="3.22"/>
			<polygon fill="#1D2132" points="9.3,25.24 9.3,22.01 9.7,24.91 10.35,25.24 			"/>
		</g>
		<g>
			
				<rect x="3.18" y="22.02" fill="#FFFFFF" stroke="#1D2132" stroke-width="0.1" stroke-linecap="square" stroke-miterlimit="22.9256" width="1.05" height="3.22"/>
			<polygon fill="#1D2132" points="3.18,25.24 3.18,22.01 3.5,24.91 4.14,25.24 			"/>
		</g>
		<g>
			
				<rect x="4.71" y="22.02" fill="#FFFFFF" stroke="#1D2132" stroke-width="0.1" stroke-linecap="square" stroke-miterlimit="22.9256" width="4.11" height="3.22"/>
			<polygon fill="#1D2132" points="4.71,25.24 4.71,22.01 5.27,24.91 8.73,25.24 			"/>
		</g>
	</g>
</g>
<g id="Furniture_1_">
	<g>
		
			<rect x="36.69" y="2.6" fill="#FFFFFF" stroke="#1D2132" stroke-width="0.1" stroke-linecap="square" stroke-miterlimit="22.9256" width="8.33" height="17.59"/>
		
			<rect x="36.69" y="13.73" fill="#FFFFFF" stroke="#1D2132" stroke-width="0.1" stroke-linecap="square" stroke-miterlimit="22.9256" width="8.33" height="6.48"/>
		
			<rect x="36.69" y="2.58" fill="#FFFFFF" stroke="#1D2132" stroke-width="0.1" stroke-linecap="square" stroke-miterlimit="22.9256" width="8.33" height="7.01"/>
		
			<rect x="36.69" y="20.19" fill="#FFFFFF" stroke="#1D2132" stroke-width="0.1" stroke-linecap="square" stroke-miterlimit="22.9256" width="8.33" height="5.32"/>
		<g>
			
				<line fill="none" stroke="#1D2132" stroke-width="0.1" stroke-linecap="square" stroke-miterlimit="22.9256" x1="39.81" y1="22.86" x2="41.89" y2="22.86"/>
			
				<line fill="none" stroke="#1D2132" stroke-width="0.1" stroke-linecap="square" stroke-miterlimit="22.9256" x1="40.11" y1="23.59" x2="41.58" y2="22.12"/>
			
				<line fill="none" stroke="#1D2132" stroke-width="0.1" stroke-linecap="square" stroke-miterlimit="22.9256" x1="40.84" y1="23.9" x2="40.84" y2="21.81"/>
			
				<line fill="none" stroke="#1D2132" stroke-width="0.1" stroke-linecap="square" stroke-miterlimit="22.9256" x1="41.58" y1="23.59" x2="40.11" y2="22.12"/>
		</g>
		<g>
			
				<rect x="37.03" y="14.58" fill="#FFFFFF" stroke="#1D2132" stroke-width="0.1" stroke-linecap="square" stroke-miterlimit="22.9256" width="7.64" height="4.86"/>
			<g>
				<path fill="#FFFFFF" stroke="#1D2132" stroke-width="0.1" stroke-linecap="square" stroke-miterlimit="22.9256" d="M42.59,15.67
					c-0.74,0-1.33,0.6-1.33,1.33c0,0.74,0.59,1.33,1.33,1.33s1.33-0.59,1.33-1.33C43.92,16.27,43.32,15.67,42.59,15.67"/>
				<path fill="#FFFFFF" stroke="#1D2132" stroke-width="0.1" stroke-linecap="square" stroke-miterlimit="22.9256" d="M38.82,15.67
					c-0.73,0-1.33,0.6-1.33,1.33c0,0.74,0.59,1.33,1.33,1.33s1.33-0.59,1.33-1.33C40.15,16.27,39.56,15.67,38.82,15.67"/>
				<path fill="#FFFFFF" stroke="#1D2132" stroke-width="0.1" stroke-linecap="square" stroke-miterlimit="22.9256" d="M42.59,15.94
					c-0.58,0-1.06,0.48-1.06,1.06s0.48,1.06,1.06,1.06s1.06-0.48,1.06-1.06S43.17,15.94,42.59,15.94"/>
				<path fill="#FFFFFF" stroke="#1D2132" stroke-width="0.1" stroke-linecap="square" stroke-miterlimit="22.9256" d="M38.82,15.94
					c-0.58,0-1.06,0.48-1.06,1.06s0.48,1.06,1.06,1.06s1.06-0.48,1.06-1.06S39.41,15.94,38.82,15.94"/>
			</g>
		</g>
		<g>
			<path fill="#FFFFFF" stroke="#1D2132" stroke-width="0.1" stroke-linecap="square" stroke-miterlimit="22.9256" d="M38.24,7.72
				V4.51c0-0.27,0.21-0.48,0.48-0.48h5.3c0.27,0,0.48,0.21,0.48,0.48v3.21c0,0.27-0.21,0.48-0.48,0.48h-5.3
				C38.45,8.2,38.24,7.99,38.24,7.72z"/>
			<g>
				<path fill="#FFFFFF" stroke="#1D2132" stroke-width="0.1" stroke-linecap="square" stroke-miterlimit="22.9256" d="M39.42,5.78
					c0.21,0,0.38,0.15,0.38,0.34s-0.17,0.34-0.38,0.34c-0.21,0-0.38-0.15-0.38-0.34C39.04,5.93,39.21,5.77,39.42,5.78z"/>
				<g>
					<path fill="#FFFFFF" stroke="#1D2132" stroke-width="0.1" stroke-linecap="square" stroke-miterlimit="22.9256" d="M37.72,5.55
						c0.29,0.01,0.52,0.26,0.52,0.57c0,0.32-0.23,0.57-0.52,0.57S37.2,6.44,37.2,6.12S37.43,5.55,37.72,5.55z"/>
					<path fill="#FFFFFF" stroke="#1D2132" stroke-width="0.1" stroke-linecap="square" stroke-miterlimit="22.9256" d="M40.66,6.13
						c0,0.1-0.11,0.17-0.27,0.17l-2.71-0.01c-0.15,0-0.27-0.08-0.27-0.17l0,0c0-0.1,0.12-0.17,0.27-0.17l2.71,0.01
						C40.54,5.96,40.66,6.03,40.66,6.13L40.66,6.13z"/>
					<path fill="#FFFFFF" stroke="#1D2132" stroke-width="0.1" stroke-linecap="square" stroke-miterlimit="22.9256" d="M37.74,5.33
						c0.09,0,0.15,0.35,0.15,0.79c0,0.43-0.08,0.79-0.16,0.79c-0.1,0-0.16-0.35-0.16-0.79C37.57,5.68,37.64,5.32,37.74,5.33z"/>
				</g>
			</g>
		</g>
	</g>
	<g>
		
			<rect x="19.47" y="39.4" transform="matrix(-1 -4.483803e-11 4.483803e-11 -1 62.8701 86.61)" fill="#FFFFFF" stroke="#1D2132" stroke-width="0.1" stroke-linecap="square" stroke-miterlimit="10" width="23.94" height="7.81"/>
		<g>
			<path fill="#FFFFFF" stroke="#1D2132" stroke-width="0.1" stroke-linecap="square" stroke-miterlimit="10" d="M31.32,42.19v-0.35
				c-0.01-0.02-0.07-0.06-0.12-0.09c-0.16-0.11-0.4-0.27-0.46-0.61c-0.04-0.25,0.05-0.49,0.25-0.63c0.21-0.15,0.5-0.17,0.74-0.05
				c0.38,0.19,0.43,0.57,0.4,0.75c-0.01,0.06-0.07,0.1-0.13,0.09c-0.06-0.01-0.1-0.06-0.09-0.12c0,0,0.05-0.36-0.28-0.53
				c-0.17-0.08-0.37-0.07-0.51,0.03c-0.13,0.09-0.19,0.25-0.16,0.42c0.04,0.25,0.22,0.37,0.37,0.47c0.11,0.07,0.22,0.14,0.22,0.27
				v0.36c0,0.06-0.05,0.11-0.11,0.11C31.37,42.29,31.32,42.25,31.32,42.19z M31.32,41.83L31.32,41.83L31.32,41.83z"/>
			<path fill="#FFFFFF" stroke="#1D2132" stroke-width="0.1" stroke-linecap="square" stroke-miterlimit="10" d="M26.98,44.48
				c-0.07-0.27,0.05-0.53,0.3-0.66c0.01,0,0.01-0.01,0.02-0.01l3.46-1.59c0.03-0.01,0.06-0.02,0.09-0.02h1.17
				c0.03,0,0.06,0.01,0.09,0.02l3.46,1.59c0.01,0,0.01,0,0.02,0.01c0.25,0.13,0.37,0.4,0.3,0.66c-0.07,0.27-0.38,0.2-0.67,0.2h-7.58
				C27.36,44.68,27.05,44.74,26.98,44.48z M31.97,43.18H30.9l-3.66,1.02c-0.09,0.05-0.08,0.14-0.07,0.17
				c0.01,0.03,0.04,0.12,0.15,0.12h8.24c0.12,0,0.15-0.09,0.15-0.12c0.01-0.03,0.02-0.12-0.07-0.17L31.97,43.18z"/>
		</g>
	</g>
	<g>
		<g>
			
				<rect x="75.95" y="28.98" transform="matrix(-4.524399e-11 1 -1 -4.524399e-11 123.2201 -34.0722)" fill="#FFFFFF" stroke="#1D2132" stroke-width="0.1" stroke-linecap="square" stroke-miterlimit="10" width="5.39" height="31.19"/>
			<g>
				<polygon fill="#FFFFFF" stroke="#1D2132" stroke-width="0.1" stroke-linecap="square" stroke-miterlimit="10" points="
					66.17,41.88 65.61,41.88 65.61,41.34 68.84,41.34 68.84,41.88 68.28,41.88 68.28,41.53 66.17,41.53 				"/>
				<polygon fill="#FFFFFF" stroke="#1D2132" stroke-width="0.1" stroke-linecap="square" stroke-miterlimit="10" points="
					89.01,41.88 88.45,41.88 88.45,41.34 91.68,41.34 91.68,41.88 91.12,41.88 91.12,41.53 89.01,41.53 				"/>
			</g>
			<g>
				<polygon fill="#FFFFFF" stroke="#1D2132" stroke-width="0.1" stroke-linecap="square" stroke-miterlimit="10" points="
					72.17,41.88 71.61,41.88 71.61,41.34 74.84,41.34 74.84,41.88 74.28,41.88 74.28,41.53 72.17,41.53 				"/>
				<polygon fill="#FFFFFF" stroke="#1D2132" stroke-width="0.1" stroke-linecap="square" stroke-miterlimit="10" points="
					83.01,41.88 82.45,41.88 82.45,41.34 85.68,41.34 85.68,41.88 85.12,41.88 85.12,41.53 83.01,41.53 				"/>
			</g>
		</g>
		<g>
			<path fill="#FFFFFF" stroke="#1D2132" stroke-width="0.1" stroke-linecap="square" stroke-miterlimit="10" d="M80.65,45.29v-0.36
				c0-0.5-0.41-0.91-0.91-0.91h-2.19c-0.5,0-0.91,0.41-0.91,0.91v0.36c0,0.5,0.41,0.91,0.91,0.91h2.19
				C80.25,46.2,80.65,45.79,80.65,45.29z"/>
			<path fill="#FFFFFF" stroke="#1D2132" stroke-width="0.1" stroke-linecap="square" stroke-miterlimit="10" d="M79.91,44.93v-0.11
				c0-0.22-0.18-0.39-0.39-0.39h-1.74c-0.22,0-0.39,0.18-0.39,0.39v0.11c0,0.22,0.18,0.39,0.39,0.39h1.74
				C79.73,45.32,79.91,45.14,79.91,44.93z"/>
			
				<rect x="78.55" y="37.42" transform="matrix(-4.946639e-11 1 -1 -4.946639e-11 123.1532 -34.139)" fill="#FFFFFF" stroke="#1D2132" stroke-width="0.1" stroke-linecap="square" stroke-miterlimit="10" width="0.18" height="14.18"/>
			<polygon fill="#FFFFFF" stroke="#1D2132" stroke-width="0.1" stroke-linecap="square" stroke-miterlimit="10" points="
				83.69,44.97 85.73,44.6 71.56,44.6 73.61,44.97 			"/>
		</g>
	</g>
	<g>
		<g>
			<path fill="#FFFFFF" stroke="#1D2132" stroke-width="0.1" stroke-linecap="square" stroke-miterlimit="10" d="M52.98,10.9
				c-1.02-0.09-3.52-0.24-4.03-0.44c-0.45-0.18-0.48-0.98-0.48-2.15c0-1.16,0.03-1.97,0.48-2.15c0.51-0.2,3.01-0.35,4.03-0.44
				c1.02-0.08,1.34,0.17,1.48,0.77c0.14,0.59,0.11,1.33,0.11,1.82c0,0.48,0.02,1.23-0.12,1.82C54.32,10.73,54.01,10.99,52.98,10.9z
				 M50.02,9.1c0.1,0-0.03-0.2-0.03-0.78c0-0.58,0.12-0.79,0.03-0.79c-0.09,0-0.2,0.02-0.24,0.08c-0.04,0.05-0.07,0.35-0.07,0.71
				c0,0.35,0.03,0.65,0.07,0.71C49.82,9.08,49.93,9.1,50.02,9.1z"/>
			<path fill="#FFFFFF" stroke="#1D2132" stroke-width="0.1" stroke-linecap="square" stroke-miterlimit="10" d="M53.03,10.9
				c-1-0.09-3.42-0.24-3.92-0.44c-0.44-0.18-0.47-0.98-0.47-2.15c0-1.16,0.03-1.97,0.47-2.15c0.5-0.2,2.92-0.35,3.92-0.44
				c0.99-0.08,1.3,0.17,1.44,0.77c0.14,0.59,0.11,1.33,0.11,1.82c0,0.48,0.02,1.23-0.11,1.82C54.33,10.73,54.02,10.99,53.03,10.9z
				 M50.15,9.1c0.1,0-0.03-0.2-0.03-0.78c0-0.58,0.11-0.79,0.03-0.79c-0.08,0-0.19,0.02-0.23,0.08c-0.04,0.05-0.07,0.35-0.07,0.71
				c0,0.35,0.03,0.65,0.07,0.71C49.96,9.08,50.07,9.1,50.15,9.1z"/>
			<path fill="#FFFFFF" stroke="#1D2132" stroke-width="0.1" stroke-linecap="square" stroke-miterlimit="10" d="M53.34,5.92
				C52.55,6,51.47,5.97,51.07,6.16c-0.35,0.16-0.68,1.08-0.69,2.16c0,1.08,0.33,1.99,0.68,2.16c0.4,0.18,1.48,0.16,2.27,0.24
				c0.79,0.08,1.04-0.16,1.15-0.71c0.11-0.54,0.09-1.24,0.09-1.68c0-0.45,0.02-1.14-0.09-1.68C54.38,6.08,54.14,5.84,53.34,5.92z"/>
		</g>
		<g>
			<path fill="#FFFFFF" stroke="#1D2132" stroke-width="0.1" stroke-linecap="square" stroke-miterlimit="10" d="M53.76,18.04
				c-1,0.23-3.42,0.85-3.97,0.82c-0.49-0.03-0.76-0.79-1.11-1.89c-0.36-1.11-0.58-1.88-0.2-2.19c0.43-0.35,2.75-1.26,3.7-1.65
				c0.95-0.39,1.33-0.25,1.64,0.28c0.31,0.51,0.52,1.23,0.66,1.7c0.15,0.46,0.4,1.17,0.45,1.76C54.98,17.47,54.76,17.81,53.76,18.04
				z M50.39,17.24c0.1-0.03-0.09-0.18-0.27-0.74c-0.18-0.55-0.13-0.79-0.22-0.76c-0.08,0.03-0.18,0.08-0.2,0.15
				c-0.02,0.06,0.04,0.36,0.15,0.7c0.11,0.34,0.23,0.61,0.28,0.65C50.19,17.28,50.3,17.26,50.39,17.24z"/>
			<path fill="#FFFFFF" stroke="#1D2132" stroke-width="0.1" stroke-linecap="square" stroke-miterlimit="10" d="M53.8,18.03
				c-0.97,0.22-3.33,0.82-3.86,0.78c-0.47-0.03-0.74-0.79-1.1-1.9c-0.36-1.11-0.58-1.88-0.21-2.19c0.41-0.34,2.67-1.23,3.59-1.62
				c0.92-0.39,1.29-0.23,1.6,0.29c0.31,0.52,0.51,1.24,0.66,1.7c0.15,0.46,0.4,1.17,0.45,1.76C54.98,17.47,54.77,17.81,53.8,18.03z
				 M50.51,17.2c0.1-0.03-0.08-0.18-0.27-0.74c-0.18-0.55-0.13-0.78-0.22-0.76c-0.08,0.03-0.18,0.07-0.2,0.14
				c-0.02,0.06,0.04,0.36,0.15,0.69c0.11,0.34,0.23,0.61,0.28,0.65C50.32,17.24,50.43,17.22,50.51,17.2z"/>
			<path fill="#FFFFFF" stroke="#1D2132" stroke-width="0.1" stroke-linecap="square" stroke-miterlimit="10" d="M52.57,13.19
				c-0.73,0.32-1.77,0.62-2.09,0.92c-0.28,0.26-0.32,1.24,0.01,2.26c0.33,1.03,0.93,1.8,1.31,1.84c0.43,0.05,1.45-0.3,2.23-0.47
				c0.78-0.17,0.94-0.47,0.87-1.03c-0.06-0.55-0.29-1.2-0.43-1.63c-0.14-0.43-0.33-1.09-0.6-1.58
				C53.61,13.03,53.31,12.88,52.57,13.19z"/>
		</g>
		
			<rect x="43.92" y="12.84" transform="matrix(-4.477770e-11 1 -1 -4.477770e-11 72.0087 -41.2981)" fill="#FFFFFF" stroke="#1D2132" stroke-width="0.1" stroke-linecap="square" stroke-miterlimit="10" width="25.47" height="5.02"/>
	</g>
	<g>
		<path fill="#FFFFFF" stroke="#1D2132" stroke-width="0.1" stroke-linecap="square" stroke-miterlimit="10" d="M53.37,45.74
			c-0.81,0.09-2.52-0.48-2.64-1.72c-0.06-0.61-0.44-0.87-0.86-2.49c-0.18-0.7-0.61-1.89,0.06-3.23s2.29-2.35,5.45-1.4
			c3.16,0.96,3.96,3.79,2.96,5.32c-1,1.53-2.09,1.66-2.76,2.22S54.85,45.57,53.37,45.74z"/>
		<path fill="none" stroke="#1D2132" stroke-width="0.1" stroke-linecap="square" stroke-miterlimit="10" d="M49.94,38.29
			c0,0-0.32,1.23-0.1,1.87c0.44,1.29,0.13,1.14,0.82,2.7c0.21,0.47,0.57,0.4,0.58,0.5s0.17,0.78,0.89,1.07
			c0.72,0.29,1.26,0.5,2.08,0.31c0.49-0.11,0.83-0.43,0.87-0.59c0.06-0.28,0.24-0.07,1.05-0.42c1.15-0.51,1.35-0.82,1.81-1.43
			c0.46-0.62,0.65-0.71,0.73-1.36c0.08-0.65-0.07-1.2-0.07-1.2"/>
		<path fill="none" stroke="#1D2132" stroke-width="0.1" stroke-linecap="square" stroke-miterlimit="10" d="M51.14,39.93
			c0,0,0.72-0.03,0.88,0.35c0.16,0.37,0.32,0.6,0.38,0.71c0.06,0.11,0.06,0.11,0.06,0.11s-0.19,0.68-0.41,1.1s-0.32,0.49-0.32,0.49"
			/>
		<path fill="none" stroke="#1D2132" stroke-width="0.1" stroke-linecap="square" stroke-miterlimit="10" d="M52.46,41.1
			c0,0,0.49,0.08,1.18,0.23c0.69,0.15,1.42,0.54,1.42,0.54s-0.04,0.53-0.07,1.02s0.06,0.75,0.06,0.75"/>
		<path fill="none" stroke="#1D2132" stroke-width="0.1" stroke-linecap="square" stroke-miterlimit="10" d="M57.21,41.65
			c0,0-0.32-0.51-0.64-0.69c-0.32-0.18-0.49-0.1-0.9,0.24c-0.41,0.34-0.61,0.66-0.61,0.66"/>
		<path fill="none" stroke="#1D2132" stroke-width="0.1" stroke-linecap="square" stroke-miterlimit="10" d="M52.41,38.79
			c0,0,0.94-0.27,1.44-0.17c0.5,0.1,0.5,0.1,0.5,0.1s0.08-0.07,0.16-0.3c0.08-0.24,0.06-0.4,0.06-0.4"/>
		<path fill="none" stroke="#1D2132" stroke-width="0.1" stroke-linecap="square" stroke-miterlimit="10" d="M54.36,38.71
			c0,0,0.44,0.29,0.85,0.38s0.81,0.36,0.92,0.52s0.11,0.16,0.11,0.16s0.24,0.02,0.4-0.13"/>
		<path fill="none" stroke="#1D2132" stroke-width="0.1" stroke-linecap="square" stroke-miterlimit="10" d="M52.41,38.79
			c0,0-0.2-0.26-0.19-0.44c0.01-0.18,0.06-0.33,0.06-0.33"/>
		<path fill="#FFFFFF" stroke="#1D2132" stroke-width="0.1" stroke-linecap="square" stroke-miterlimit="10" d="M51.95,44.11
			c0,0,0.11,0.04,0.06,0.09c-0.07,0.08-0.11,0.3-0.03,0.36c0.15,0.1,0.37,0.09,0.63,0.2c0.26,0.11,0.42,0.32,0.61,0.25
			c0.11-0.05,0.07-0.34,0.11-0.39c0.03-0.03,0.14,0.02,0.14,0.02l-0.12,0.45c0,0-0.18,0.21-0.46,0.11s-0.47-0.13-0.73-0.24
			s-0.47-0.16-0.44-0.43C51.76,44.25,51.95,44.11,51.95,44.11z"/>
	</g>
	<g>
		<path fill="#FFFFFF" stroke="#1D2132" stroke-width="0.1" stroke-linecap="square" stroke-miterlimit="10" d="M16.76,44.14
			c0.11-0.7,0.1-1.45,0-2.25c0-0.64-0.52-1.17-1.17-1.17c-1.38-0.24-2.85-0.38-4.75,0c-0.64,0-1.17,0.52-1.17,1.17
			c-0.18,0.75-0.18,1.5,0,2.25c0,0.64,0.52,1.17,1.17,1.17c1.54,0.23,3.13,0.18,4.75,0C16.24,45.31,16.76,44.79,16.76,44.14z"/>
		<g>
			<path fill="#FFFFFF" stroke="#1D2132" stroke-width="0.1" stroke-linecap="square" stroke-miterlimit="10" d="M10.61,40.97
				c-0.36,0-0.65,0.32-0.65,0.7"/>
			<path fill="#FFFFFF" stroke="#1D2132" stroke-width="0.1" stroke-linecap="square" stroke-miterlimit="10" d="M16.49,41.67
				c0-0.39-0.29-0.7-0.65-0.7"/>
			<path fill="#FFFFFF" stroke="#1D2132" stroke-width="0.1" stroke-linecap="square" stroke-miterlimit="10" d="M15.84,45.07
				c0.36,0,0.65-0.32,0.65-0.7"/>
			<path fill="#FFFFFF" stroke="#1D2132" stroke-width="0.1" stroke-linecap="square" stroke-miterlimit="10" d="M9.96,44.36
				c0,0.39,0.29,0.7,0.65,0.7"/>
		</g>
	</g>
	<g>
		<g>
			
				<rect x="12.64" y="43.09" transform="matrix(6.731094e-07 1 -1 6.731094e-07 59.7427 33.8501)" fill="#FFFFFF" stroke="#1D2132" stroke-width="0.1" stroke-linecap="square" stroke-miterlimit="10" width="0.62" height="7.41"/>
			
				<rect x="12.76" y="43.38" transform="matrix(6.731242e-07 1 -1 6.731242e-07 59.6177 33.7251)" fill="#FFFFFF" stroke="#1D2132" stroke-width="0.1" stroke-linecap="square" stroke-miterlimit="10" width="0.37" height="6.59"/>
		</g>
		
			<rect x="6.46" y="44.33" transform="matrix(6.731212e-07 1 -1 6.731212e-07 53.5668 40.026)" fill="#FFFFFF" stroke="#1D2132" stroke-width="0.1" stroke-linecap="square" stroke-miterlimit="10" width="0.62" height="4.94"/>
		<g>
			
				<rect x="4.65" y="45.55" fill="#FFFFFF" stroke="#1D2132" stroke-width="0.1" stroke-linecap="square" stroke-miterlimit="10" width="0.27" height="0.94"/>
			
				<rect x="4.65" y="46.31" fill="#FFFFFF" stroke="#1D2132" stroke-width="0.1" stroke-linecap="square" stroke-miterlimit="10" width="0.27" height="0.17"/>
		</g>
		<g>
			
				<rect x="5.97" y="45.55" fill="#FFFFFF" stroke="#1D2132" stroke-width="0.1" stroke-linecap="square" stroke-miterlimit="10" width="0.27" height="0.94"/>
			
				<rect x="5.97" y="46.31" fill="#FFFFFF" stroke="#1D2132" stroke-width="0.1" stroke-linecap="square" stroke-miterlimit="10" width="0.27" height="0.17"/>
		</g>
		<g>
			
				<rect x="7.29" y="45.55" fill="#FFFFFF" stroke="#1D2132" stroke-width="0.1" stroke-linecap="square" stroke-miterlimit="10" width="0.27" height="0.94"/>
			
				<rect x="7.29" y="46.31" fill="#FFFFFF" stroke="#1D2132" stroke-width="0.1" stroke-linecap="square" stroke-miterlimit="10" width="0.27" height="0.17"/>
		</g>
		<g>
			
				<rect x="8.62" y="45.55" fill="#FFFFFF" stroke="#1D2132" stroke-width="0.1" stroke-linecap="square" stroke-miterlimit="10" width="0.27" height="0.94"/>
			
				<rect x="8.62" y="46.31" fill="#FFFFFF" stroke="#1D2132" stroke-width="0.1" stroke-linecap="square" stroke-miterlimit="10" width="0.27" height="0.17"/>
		</g>
	</g>
	<g>
		
			<circle fill="#FFFFFF" stroke="#1D2132" stroke-width="0.1" stroke-linecap="square" stroke-miterlimit="22.9256" cx="47.06" cy="43.8" r="1.64"/>
		
			<circle fill="#FFFFFF" stroke="#1D2132" stroke-width="0.1" stroke-linecap="square" stroke-miterlimit="22.9256" cx="47.06" cy="43.8" r="0.35"/>
		<path fill="#FFFFFF" stroke="#1D2132" stroke-width="0.1" stroke-linecap="square" stroke-miterlimit="22.9256" d="M48.3,38.05
			c0.16-0.36,0.8-0.43,1.41-0.15c0.62,0.28,0.99,0.8,0.82,1.16l0,0c-0.32,0.74-0.71,1.15-1.38,1.74l-1.25-0.56
			C47.88,39.34,47.93,38.78,48.3,38.05z"/>
		<path fill="#FFFFFF" stroke="#1D2132" stroke-width="0.1" stroke-linecap="square" stroke-miterlimit="22.9256" d="M48.7,40.15
			c0.34,0.15,0.55,0.44,0.46,0.65l-0.2,0.45l-1.25-0.56l0.2-0.45C48,40.04,48.35,40,48.7,40.15z"/>
		
			<ellipse transform="matrix(0.4092 -0.9125 0.9125 0.4092 -8.8264 68.3056)" fill="#FFFFFF" stroke="#1D2132" stroke-width="0.1" stroke-linecap="square" stroke-miterlimit="22.9256" cx="48.33" cy="40.97" rx="0.4" ry="0.68"/>
		<path fill="#FFFFFF" stroke="#1D2132" stroke-width="0.1" stroke-linecap="square" stroke-miterlimit="22.9256" d="M47.02,43.9
			L47.02,43.9c0.06,0.03,0.13,0,0.16-0.06l0.76-1.69c0.03-0.06,0-0.13-0.06-0.16l0,0c-0.06-0.03-0.13,0-0.16,0.06l-0.76,1.69
			C46.93,43.8,46.95,43.87,47.02,43.9z"/>
		<path fill="#FFFFFF" stroke="#1D2132" stroke-width="0.1" stroke-linecap="square" stroke-miterlimit="22.9256" d="M47.45,42.94
			L47.45,42.94c0.06,0.03,0.13,0,0.16-0.06l0.76-1.69c0.03-0.06,0-0.13-0.06-0.16l0,0c-0.06-0.03-0.13,0-0.16,0.06l-0.76,1.69
			C47.36,42.84,47.38,42.91,47.45,42.94z"/>
	</g>
	<g>
		<g>
			<g>
				
					<rect x="67.15" y="3.74" fill="#FFFFFF" stroke="#1D2132" stroke-width="0.1" stroke-linecap="square" stroke-miterlimit="22.9256" width="22.97" height="26.51"/>
				<path fill="#FFFFFF" stroke="#1D2132" stroke-width="0.1" stroke-linecap="square" stroke-miterlimit="22.9256" d="M67.42,5.51
					c0,0-0.05,0.63,0,1.23c0.08,1.01,0.13,1.65,0.13,2.69c0,1.04-0.15,1.14-0.02,1.3c0.12,0.16,0.14,0.39,0,0.65
					c-0.14,0.26-0.03,1.72-0.03,2.73c0,1.01-0.11,2.6-0.08,3.47c0.04,0.88,0.17,0.55,0.31,0.61c0.14,0.06-0.12,0.78-0.24,0.91
					c-0.12,0.13-0.07,0.69-0.09,2.61c-0.02,1.92,0.13,4.49,0.09,5.52c-0.02,0.64,0,1,0.03,1.16c0.07,0.38-0.01,0.22-0.01,0.65
					c0.01,0.49,0.29-0.63,0.16-0.01c-0.08,0.42-0.25,0.83-0.13,0.73c0.12-0.1,0.35-0.51,0.42-0.57c0.07-0.06,0.29-0.4,0.22-0.14
					c-0.07,0.26-0.84,0.83-0.64,0.87c0.23,0.04,0.94,0.06,2.66,0.06c1.69,0,13.41,0,13.49-0.16c0.09-0.16,0.09-0.1,0.2,0
					c0.11,0.1,2.18-0.03,2.59,0.1c0.41,0.13,1.03,0.1,1.12-0.06c0.09-0.16,0.07-0.2,0.16-0.06c0.09,0.13,0.82,0.16,1.2,0.16
					c0.56,0,0.75,0.21,0.5-0.21c-0.25-0.42-0.22-0.75-0.06-0.49c0.16,0.26,0.2,0.61,0.31,0.68c0.11,0.06,0.08,0.31,0.1-0.38
					c0.02-0.68,0.12-5.62,0.08-6.92c-0.04-1.3,0.01-2.31-0.03-2.5c-0.11-0.5,0.07-1.21,0.03-2.33c-0.05-1.41-0.04-3.59-0.06-5.18
					c-0.02-1.59-0.02-2.04,0-3.21c0.02-1.17-0.24-1.61-0.12-1.98c0.25-0.73,0.03-1.04-0.01-1.59c-0.04-0.55,0.1-1.38,0.07-1.65
					c-0.02-0.22-0.39,0.62-0.55,0.49c-0.16-0.13,0.67-0.52,0.36-0.6c-0.31-0.08-4.22,0.08-4.53,0c-0.3-0.08-0.22,0-0.22,0
					s-0.91,0-1.56,0c-0.66,0-14.75,0-15.11,0c-0.36,0-0.71,0.07-0.36,0.22c0.35,0.14-0.36-0.03-0.39,0.25
					C67.39,4.81,67.53,5.23,67.42,5.51z"/>
				<path fill="#FFFFFF" stroke="#1D2132" stroke-width="0.1" stroke-linecap="square" stroke-miterlimit="22.9256" d="M67.1,10.82
					c-0.1,0.75-0.04,4.37,0.05,4.37s-0.24-1.24,0.4-1.96c0.64-0.72,1.33-1.24,1.14-1.01c-0.19,0.23-0.21,0.26-0.41,0.43
					c-0.21,0.16-0.41,0.23-0.3,0.29c0.11,0.07,0.8-0.11,1.4-0.3c0.76-0.23,2.69,0,3.55,0.06c2.19,0.15,14.51,0.54,15.87,1.52
					c1.37,0.98,1.24,1.14,1.32,1.47c0.07,0.33-0.07,1.34,0.05,0.82c0.12-0.5,0.02-1.54,0.11-2.54c0.09-1.01,0.21-1.34,0.06-1.41
					c-0.15-0.07-1.83-0.98-1.58-0.82c0.06,0.04,1.49,0.69,1.6,0.66c0.11-0.03,0.03-0.35,0-0.72c-0.04-0.49-0.04-0.49-0.09-0.49
					c-0.24,0-0.99-0.08-1.91-0.05c-0.92,0.03-0.11-0.2,0.39-0.07c0.5,0.13,0.06-0.13-0.88-0.39c-0.93-0.26-14.63,0.29-15.31,0.06
					c-0.67-0.23-2.95-0.52-3.8-0.13C67.92,11,67.17,10.26,67.1,10.82z"/>
				<g>
					<path fill="#FFFFFF" stroke="#1D2132" stroke-width="0.1" stroke-linecap="square" stroke-miterlimit="22.9256" d="M79.8,3.88
						c-0.35,0-0.27,0.06-0.18,0.17c0.09,0.11,0.13,0.27,0,1c-0.13,0.73-0.18,1.27,0.04,1.96c0.22,0.69,0.1,0.78,0.01,0.96
						c-0.09,0.18-0.04,0.33,0.22,0.18c0.26-0.14,1.03,0.06,1.66,0.09c2.42,0.11,3.48,0.01,5.17-0.08c0.36-0.02,0.67-0.14,0.85-0.1
						c0.18,0.04,0.4-0.04,0.26-0.15c-0.13-0.11,0.18-1.31,0.09-2.18c-0.09-0.87-0.04-1.36,0.01-1.47c0.04-0.11-0.09-0.44-0.26-0.29
						c-0.18,0.15-0.89-0.08-1.24-0.11c-0.35-0.04-1.11-0.15-3-0.11c-1.89,0.04-2.72,0.02-3.03,0.13C80.1,3.99,79.89,3.88,79.8,3.88z
						"/>
					<path fill="none" stroke="#1D2132" stroke-width="0.1" stroke-linecap="square" stroke-miterlimit="22.9256" d="M80.14,7.67
						c0,0,1.44,0.49,3.6,0.49c2.16,0,3.72-0.67,3.72-0.67"/>
				</g>
				<g>
					<path fill="#FFFFFF" stroke="#1D2132" stroke-width="0.1" stroke-linecap="square" stroke-miterlimit="22.9256" d="M80.88,6.21
						c-0.26,0-0.19,0.05-0.13,0.13c0.06,0.09,0.1,0.22,0,0.81c-0.1,0.59-0.13,1.03,0.03,1.59c0.16,0.56,0.07,0.63,0.01,0.78
						c-0.06,0.15-0.03,0.26,0.16,0.15c0.19-0.12,0.75,0.05,1.21,0.07c1.76,0.09,2.53,0,3.76-0.07c0.26-0.01,0.49-0.11,0.62-0.08
						c0.13,0.03,0.29-0.03,0.19-0.12c-0.1-0.09,0.13-1.06,0.06-1.76c-0.06-0.7-0.03-1.1,0.01-1.19c0.03-0.09-0.06-0.35-0.19-0.23
						c-0.13,0.12-0.64-0.06-0.9-0.09c-0.26-0.03-0.81-0.12-2.18-0.09c-1.37,0.03-1.98,0.02-2.2,0.11
						C81.09,6.3,80.94,6.21,80.88,6.21z"/>
					<path fill="none" stroke="#1D2132" stroke-width="0.1" stroke-linecap="square" stroke-miterlimit="22.9256" d="M81.12,9.28
						c0,0,1.05,0.4,2.62,0.4c1.57,0,2.7-0.55,2.7-0.55"/>
				</g>
				<g>
					<path fill="#FFFFFF" stroke="#1D2132" stroke-width="0.1" stroke-linecap="square" stroke-miterlimit="22.9256" d="M69.74,3.88
						c-0.35,0-0.27,0.06-0.18,0.17c0.09,0.11,0.13,0.27,0,1c-0.13,0.73-0.18,1.27,0.04,1.96c0.22,0.69,0.1,0.78,0.01,0.96
						c-0.09,0.18-0.04,0.33,0.22,0.18C70.1,8,70.87,8.21,71.5,8.24c2.42,0.11,3.48,0.01,5.17-0.08c0.36-0.02,0.67-0.14,0.85-0.1
						c0.18,0.04,0.4-0.04,0.26-0.15c-0.13-0.11,0.18-1.31,0.09-2.18c-0.09-0.87-0.04-1.36,0.01-1.47c0.04-0.11-0.09-0.44-0.26-0.29
						c-0.18,0.15-0.89-0.08-1.24-0.11c-0.35-0.04-1.11-0.15-3-0.11c-1.89,0.04-2.72,0.02-3.03,0.13
						C70.04,3.99,69.83,3.88,69.74,3.88z"/>
					<path fill="none" stroke="#1D2132" stroke-width="0.1" stroke-linecap="square" stroke-miterlimit="22.9256" d="M70.07,7.67
						c0,0,1.44,0.49,3.6,0.49c2.16,0,3.72-0.67,3.72-0.67"/>
				</g>
				<g>
					<path fill="#FFFFFF" stroke="#1D2132" stroke-width="0.1" stroke-linecap="square" stroke-miterlimit="22.9256" d="M70.82,6.21
						c-0.26,0-0.19,0.05-0.13,0.13c0.06,0.09,0.1,0.22,0,0.81c-0.1,0.59-0.13,1.03,0.03,1.59c0.16,0.56,0.07,0.63,0.01,0.78
						c-0.06,0.15-0.03,0.26,0.16,0.15c0.19-0.12,0.75,0.05,1.21,0.07c1.76,0.09,2.53,0,3.76-0.07c0.26-0.01,0.49-0.11,0.62-0.08
						c0.13,0.03,0.29-0.03,0.19-0.12c-0.1-0.09,0.13-1.06,0.06-1.76c-0.06-0.7-0.03-1.1,0.01-1.19c0.03-0.09-0.06-0.35-0.19-0.23
						c-0.13,0.12-0.64-0.06-0.9-0.09c-0.26-0.03-0.81-0.12-2.18-0.09c-1.37,0.03-1.98,0.02-2.2,0.11
						C71.03,6.3,70.88,6.21,70.82,6.21z"/>
					<path fill="none" stroke="#1D2132" stroke-width="0.1" stroke-linecap="square" stroke-miterlimit="22.9256" d="M71.06,9.28
						c0,0,1.05,0.4,2.62,0.4c1.57,0,2.7-0.55,2.7-0.55"/>
				</g>
				<path fill="#FFFFFF" stroke="#1D2132" stroke-width="0.1" stroke-linecap="square" stroke-miterlimit="22.9256" d="M89.61,30.02
					H67.5c-0.35,0-0.62-0.28-0.62-0.62v-8.04c0-0.35,0.28-0.62,0.62-0.62h22.12c0.35,0,0.62,0.28,0.62,0.62v8.04
					C90.24,29.74,89.96,30.02,89.61,30.02z"/>
			</g>
			<g>
				
					<rect x="63.33" y="2.62" fill="#FFFFFF" stroke="#1D2132" stroke-width="0.1" stroke-linecap="square" stroke-miterlimit="22.9256" width="30.63" height="0.64"/>
				<path fill="#FFFFFF" stroke="#1D2132" stroke-width="0.1" stroke-linecap="square" stroke-miterlimit="22.9256" d="M93.21,3.74
					H64.07c-0.26,0-0.47-0.21-0.47-0.47V3.26h30.09v0.01C93.69,3.53,93.48,3.74,93.21,3.74z"/>
				<g>
					<g>
						<g>
							<path fill="#FFFFFF" stroke="#1D2132" stroke-width="0.1" stroke-linecap="square" stroke-miterlimit="22.9256" d="
								M92.93,3.26h-0.96v0.13c0,0.26,0.21,0.47,0.47,0.47h0.03c0.26,0,0.47-0.21,0.47-0.47V3.26z"/>
							<path fill="#FFFFFF" stroke="#1D2132" stroke-width="0.1" stroke-linecap="square" stroke-miterlimit="22.9256" d="
								M89.41,6.83l0.72,0.17c0.04,0.41,0.02,0.81-0.06,1.22l0,0c-0.03,0.11-0.31,0.13-0.63,0.05c-0.32-0.08-0.56-0.22-0.54-0.33
								l0,0C89.01,7.56,89.17,7.19,89.41,6.83z"/>
							
								<ellipse transform="matrix(0.2315 -0.9728 0.9728 0.2315 62.2543 92.6495)" fill="#FFFFFF" stroke="#1D2132" stroke-width="0.1" stroke-linecap="square" stroke-miterlimit="22.9256" cx="89.77" cy="6.92" rx="0.12" ry="0.37"/>
							<path fill="#FFFFFF" stroke="#1D2132" stroke-width="0.1" stroke-linecap="square" stroke-miterlimit="22.9256" d="
								M89.87,6.88l0.03-0.07c0,0,0.16-0.41,0.76-0.71c0.11-0.06,0.24-0.11,0.37-0.16c0.38-0.16,0.81-0.34,1.1-0.71
								c0.38-0.49,0.38-1.25,0.38-1.29l0-0.08l-0.16,0l0,0.08c0,0.01,0,0.74-0.35,1.19c-0.26,0.34-0.66,0.5-1.04,0.66
								c-0.13,0.06-0.26,0.11-0.38,0.17c-0.66,0.33-0.83,0.77-0.84,0.79l-0.03,0.07C89.72,6.86,89.81,6.89,89.87,6.88z"/>
						</g>
					</g>
					<g>
						<g>
							<path fill="#FFFFFF" stroke="#1D2132" stroke-width="0.1" stroke-linecap="square" stroke-miterlimit="22.9256" d="
								M64.35,3.26h0.96v0.13c0,0.26-0.21,0.47-0.47,0.47h-0.03c-0.26,0-0.47-0.21-0.47-0.47V3.26z"/>
							<path fill="#FFFFFF" stroke="#1D2132" stroke-width="0.1" stroke-linecap="square" stroke-miterlimit="22.9256" d="
								M67.88,6.83l-0.72,0.17c-0.04,0.41-0.02,0.81,0.06,1.22l0,0c0.03,0.11,0.31,0.13,0.63,0.05c0.32-0.08,0.56-0.22,0.54-0.33
								l0,0C68.28,7.56,68.11,7.19,67.88,6.83z"/>
							
								<ellipse transform="matrix(0.9728 -0.2315 0.2315 0.9728 0.2318 15.818)" fill="#FFFFFF" stroke="#1D2132" stroke-width="0.1" stroke-linecap="square" stroke-miterlimit="22.9256" cx="67.51" cy="6.92" rx="0.37" ry="0.12"/>
							<path fill="#FFFFFF" stroke="#1D2132" stroke-width="0.1" stroke-linecap="square" stroke-miterlimit="22.9256" d="
								M67.42,6.88l-0.03-0.07c0,0-0.16-0.41-0.76-0.71c-0.11-0.06-0.24-0.11-0.37-0.16c-0.38-0.16-0.81-0.34-1.1-0.71
								c-0.38-0.49-0.38-1.25-0.38-1.29l0-0.08l0.16,0l0,0.08c0,0.01,0,0.74,0.35,1.19c0.26,0.34,0.66,0.5,1.04,0.66
								c0.13,0.06,0.26,0.11,0.38,0.17c0.66,0.33,0.83,0.77,0.84,0.79l0.03,0.07C67.57,6.86,67.47,6.89,67.42,6.88z"/>
						</g>
					</g>
				</g>
			</g>
		</g>
	</g>
	<g>
		<g>
			
				<rect x="92.3" y="19.77" transform="matrix(6.123234e-17 -1 1 6.123234e-17 77.1058 117.3821)" fill="#FFFFFF" stroke="#1D2132" stroke-width="0.1" stroke-linecap="square" stroke-miterlimit="10" width="9.88" height="0.74"/>
			
				<line fill="none" stroke="#1D2132" stroke-width="0.1" stroke-linecap="square" stroke-miterlimit="10" x1="97.47" y1="24.3" x2="97.02" y2="24.3"/>
			
				<line fill="none" stroke="#1D2132" stroke-width="0.1" stroke-linecap="square" stroke-miterlimit="10" x1="97.47" y1="24.03" x2="97.02" y2="24.03"/>
			
				<line fill="none" stroke="#1D2132" stroke-width="0.1" stroke-linecap="square" stroke-miterlimit="10" x1="97.47" y1="24.83" x2="97.02" y2="24.83"/>
			
				<line fill="none" stroke="#1D2132" stroke-width="0.1" stroke-linecap="square" stroke-miterlimit="10" x1="97.47" y1="24.57" x2="97.02" y2="24.57"/>
			
				<line fill="none" stroke="#1D2132" stroke-width="0.1" stroke-linecap="square" stroke-miterlimit="10" x1="97.47" y1="23.77" x2="97.02" y2="23.77"/>
			
				<line fill="none" stroke="#1D2132" stroke-width="0.1" stroke-linecap="square" stroke-miterlimit="10" x1="97.47" y1="23.5" x2="97.02" y2="23.5"/>
			
				<line fill="none" stroke="#1D2132" stroke-width="0.1" stroke-linecap="square" stroke-miterlimit="10" x1="97.47" y1="23.23" x2="97.02" y2="23.23"/>
			
				<line fill="none" stroke="#1D2132" stroke-width="0.1" stroke-linecap="square" stroke-miterlimit="10" x1="97.47" y1="22.97" x2="97.02" y2="22.97"/>
			
				<line fill="none" stroke="#1D2132" stroke-width="0.1" stroke-linecap="square" stroke-miterlimit="10" x1="97.47" y1="22.7" x2="97.02" y2="22.7"/>
			
				<line fill="none" stroke="#1D2132" stroke-width="0.1" stroke-linecap="square" stroke-miterlimit="10" x1="97.47" y1="22.43" x2="97.02" y2="22.43"/>
			
				<line fill="none" stroke="#1D2132" stroke-width="0.1" stroke-linecap="square" stroke-miterlimit="10" x1="97.47" y1="21.63" x2="97.02" y2="21.63"/>
			
				<line fill="none" stroke="#1D2132" stroke-width="0.1" stroke-linecap="square" stroke-miterlimit="10" x1="97.47" y1="21.37" x2="97.02" y2="21.37"/>
			
				<line fill="none" stroke="#1D2132" stroke-width="0.1" stroke-linecap="square" stroke-miterlimit="10" x1="97.47" y1="22.17" x2="97.02" y2="22.17"/>
			
				<line fill="none" stroke="#1D2132" stroke-width="0.1" stroke-linecap="square" stroke-miterlimit="10" x1="97.47" y1="21.9" x2="97.02" y2="21.9"/>
			
				<line fill="none" stroke="#1D2132" stroke-width="0.1" stroke-linecap="square" stroke-miterlimit="10" x1="97.47" y1="21.1" x2="97.02" y2="21.1"/>
			
				<line fill="none" stroke="#1D2132" stroke-width="0.1" stroke-linecap="square" stroke-miterlimit="10" x1="97.47" y1="20.83" x2="97.02" y2="20.83"/>
			
				<line fill="none" stroke="#1D2132" stroke-width="0.1" stroke-linecap="square" stroke-miterlimit="10" x1="97.47" y1="20.57" x2="97.02" y2="20.57"/>
			
				<line fill="none" stroke="#1D2132" stroke-width="0.1" stroke-linecap="square" stroke-miterlimit="10" x1="97.47" y1="20.3" x2="97.02" y2="20.3"/>
			
				<line fill="none" stroke="#1D2132" stroke-width="0.1" stroke-linecap="square" stroke-miterlimit="10" x1="97.47" y1="20.03" x2="97.02" y2="20.03"/>
			
				<line fill="none" stroke="#1D2132" stroke-width="0.1" stroke-linecap="square" stroke-miterlimit="10" x1="97.47" y1="19.77" x2="97.02" y2="19.77"/>
			
				<line fill="none" stroke="#1D2132" stroke-width="0.1" stroke-linecap="square" stroke-miterlimit="10" x1="97.47" y1="18.97" x2="97.02" y2="18.97"/>
			
				<line fill="none" stroke="#1D2132" stroke-width="0.1" stroke-linecap="square" stroke-miterlimit="10" x1="97.47" y1="18.7" x2="97.02" y2="18.7"/>
			
				<line fill="none" stroke="#1D2132" stroke-width="0.1" stroke-linecap="square" stroke-miterlimit="10" x1="97.47" y1="19.5" x2="97.02" y2="19.5"/>
			
				<line fill="none" stroke="#1D2132" stroke-width="0.1" stroke-linecap="square" stroke-miterlimit="10" x1="97.47" y1="19.23" x2="97.02" y2="19.23"/>
			
				<line fill="none" stroke="#1D2132" stroke-width="0.1" stroke-linecap="square" stroke-miterlimit="10" x1="97.47" y1="18.43" x2="97.02" y2="18.43"/>
			
				<line fill="none" stroke="#1D2132" stroke-width="0.1" stroke-linecap="square" stroke-miterlimit="10" x1="97.47" y1="18.17" x2="97.02" y2="18.17"/>
			
				<line fill="none" stroke="#1D2132" stroke-width="0.1" stroke-linecap="square" stroke-miterlimit="10" x1="97.47" y1="17.9" x2="97.02" y2="17.9"/>
			
				<line fill="none" stroke="#1D2132" stroke-width="0.1" stroke-linecap="square" stroke-miterlimit="10" x1="97.47" y1="17.63" x2="97.02" y2="17.63"/>
			
				<line fill="none" stroke="#1D2132" stroke-width="0.1" stroke-linecap="square" stroke-miterlimit="10" x1="97.47" y1="17.37" x2="97.02" y2="17.37"/>
			
				<line fill="none" stroke="#1D2132" stroke-width="0.1" stroke-linecap="square" stroke-miterlimit="10" x1="97.47" y1="17.1" x2="97.02" y2="17.1"/>
			
				<line fill="none" stroke="#1D2132" stroke-width="0.1" stroke-linecap="square" stroke-miterlimit="10" x1="97.47" y1="16.3" x2="97.02" y2="16.3"/>
			
				<line fill="none" stroke="#1D2132" stroke-width="0.1" stroke-linecap="square" stroke-miterlimit="10" x1="97.47" y1="16.03" x2="97.02" y2="16.03"/>
			
				<line fill="none" stroke="#1D2132" stroke-width="0.1" stroke-linecap="square" stroke-miterlimit="10" x1="97.47" y1="16.83" x2="97.02" y2="16.83"/>
			
				<line fill="none" stroke="#1D2132" stroke-width="0.1" stroke-linecap="square" stroke-miterlimit="10" x1="97.47" y1="16.57" x2="97.02" y2="16.57"/>
			
				<line fill="none" stroke="#1D2132" stroke-width="0.1" stroke-linecap="square" stroke-miterlimit="10" x1="97.47" y1="15.77" x2="97.02" y2="15.77"/>
			
				<line fill="none" stroke="#1D2132" stroke-width="0.1" stroke-linecap="square" stroke-miterlimit="10" x1="97.47" y1="15.5" x2="97.02" y2="15.5"/>
		</g>
		<path fill="none" stroke="#1D2132" stroke-width="0.1" stroke-linecap="square" stroke-miterlimit="10" d="M96.73,34
			c0-0.39-0.69,0-0.69-0.39c0-0.39,0.69,0,0.69-0.39c0-0.39-0.69,0-0.69-0.39s0.69,0,0.69-0.39c0-0.39-0.69,0-0.69-0.39
			c0-0.39,0.69,0,0.69-0.39c0-0.39-0.69,0-0.69-0.39s0.69,0,0.69-0.39c0-0.39-0.69,0-0.69-0.39c0-0.39,0.69,0,0.69-0.39
			s-0.69,0-0.69-0.39c0-0.39,0.69,0,0.69-0.39c0-0.39-0.69,0-0.69-0.39s0.69,0,0.69-0.39s-0.69,0-0.69-0.39c0-0.39,0.69,0,0.69-0.39
			c0-0.39-0.69,0-0.69-0.39s0.69,0,0.69-0.39s-0.69,0-0.69-0.39c0-0.39,0.69,0,0.69-0.39c0-0.39-0.69,0-0.69-0.39s0.69,0,0.69-0.39
			s-0.69,0-0.69-0.39c0-0.39,0.69,0,0.69-0.39c0-0.39-0.69,0-0.69-0.39s0.69,0,0.69-0.39c0-0.39-0.69,0-0.69-0.39
			c0-0.39,0.69,0,0.69-0.39s-0.69,0-0.69-0.39s0.69,0,0.69-0.39c0-0.39-0.69,0-0.69-0.39c0-0.39,0.69,0,0.69-0.39s-0.69,0-0.69-0.39
			"/>
		<path fill="none" stroke="#1D2132" stroke-width="0.1" stroke-linecap="square" stroke-miterlimit="10" d="M96.73,6.2
			c0,0.39-0.69,0-0.69,0.39s0.69,0,0.69,0.39s-0.69,0-0.69,0.39s0.69,0,0.69,0.39c0,0.39-0.69,0-0.69,0.39c0,0.39,0.69,0,0.69,0.39
			s-0.69,0-0.69,0.39c0,0.39,0.69,0,0.69,0.39c0,0.39-0.69,0-0.69,0.39c0,0.39,0.69,0,0.69,0.39c0,0.39-0.69,0-0.69,0.39
			c0,0.39,0.69,0,0.69,0.39c0,0.39-0.69,0-0.69,0.39c0,0.39,0.69,0,0.69,0.39c0,0.39-0.69,0-0.69,0.39c0,0.39,0.69,0,0.69,0.39
			c0,0.39-0.69,0-0.69,0.39c0,0.39,0.69,0,0.69,0.39c0,0.39-0.69,0-0.69,0.39c0,0.39,0.69,0,0.69,0.39c0,0.39-0.69,0-0.69,0.39
			s0.69,0,0.69,0.39c0,0.39-0.69,0-0.69,0.39c0,0.39,0.69,0,0.69,0.39c0,0.39-0.69,0-0.69,0.39c0,0.39,0.69,0,0.69,0.39
			c0,0.39-0.69,0-0.69,0.39s0.69,0,0.69,0.39c0,0.39-0.69,0-0.69,0.39c0,0.39,0.69,0,0.69,0.39s-0.69,0-0.69,0.39s0.69,0,0.69,0.39
			c0,0.39-0.69,0-0.69,0.39"/>
	</g>
</g>
</svg>
