<?xml version="1.0" encoding="utf-8"?>
<!-- Generator: Adobe Illustrator 22.0.0, SVG Export Plug-In . SVG Version: 6.00 Build 0)  -->
<svg version="1.1" id="Layer_1" xmlns="http://www.w3.org/2000/svg" xmlns:xlink="http://www.w3.org/1999/xlink" x="0px" y="0px"
	 viewBox="0 0 102 50" enable-background="new 0 0 102 50" xml:space="preserve">
<symbol  id="Doors_x5F_2" viewBox="-4.9 -3.57 9.8 7.14">
	<g>
		<polygon fill="none" stroke="#1D2132" stroke-width="0.1" stroke-miterlimit="10" points="-4.49,-3.52 -4.49,-2.79 -4.85,-2.79 
			-4.85,-3.52 		"/>
		<polygon fill="none" stroke="#1D2132" stroke-width="0.1" stroke-miterlimit="10" points="4.49,-3.52 4.49,-2.79 4.85,-2.79 
			4.85,-3.52 		"/>
		<polyline fill="none" stroke="#1D2132" stroke-width="0.1" stroke-miterlimit="10" points="1.86,3.5 1.97,3.38 2.08,3.26 
			2.19,3.14 2.29,3.02 2.4,2.89 2.5,2.76 2.6,2.63 2.7,2.5 2.79,2.37 2.88,2.23 2.97,2.1 3.06,1.96 3.15,1.82 3.23,1.68 3.31,1.54 
			3.39,1.39 3.46,1.25 3.54,1.1 3.61,0.95 3.68,0.8 3.74,0.65 3.8,0.5 3.86,0.35 3.92,0.2 3.97,0.04 4.03,-0.11 4.08,-0.27 
			4.12,-0.42 4.17,-0.58 4.21,-0.74 4.25,-0.9 4.28,-1.06 4.31,-1.22 4.34,-1.38 4.37,-1.54 4.39,-1.7 4.42,-1.87 4.43,-2.03 
			4.45,-2.19 4.46,-2.35 4.47,-2.52 4.48,-2.68 4.48,-2.84 		"/>
		<polygon fill="none" stroke="#1D2132" stroke-width="0.1" stroke-miterlimit="10" points="-4.42,-2.81 1.86,3.5 2.08,3.26 
			-4.16,-3.06 		"/>
	</g>
</symbol>
<g id="Background">
	<rect x="1.41" y="0.95" opacity="0.1" fill="#1D2132" enable-background="new    " width="96.29" height="47.25"/>
</g>
<g id="Furniture">
	<g>
		
			<rect x="36.69" y="2.6" fill="#FFFFFF" stroke="#1D2132" stroke-width="0.1" stroke-linecap="square" stroke-miterlimit="22.9256" width="8.33" height="17.59"/>
		
			<rect x="36.69" y="13.73" fill="#FFFFFF" stroke="#1D2132" stroke-width="0.1" stroke-linecap="square" stroke-miterlimit="22.9256" width="8.33" height="6.48"/>
		
			<rect x="36.69" y="2.58" fill="#FFFFFF" stroke="#1D2132" stroke-width="0.1" stroke-linecap="square" stroke-miterlimit="22.9256" width="8.33" height="7.01"/>
		
			<rect x="36.69" y="20.19" fill="#FFFFFF" stroke="#1D2132" stroke-width="0.1" stroke-linecap="square" stroke-miterlimit="22.9256" width="8.33" height="5.32"/>
		<g>
			
				<line fill="none" stroke="#1D2132" stroke-width="0.1" stroke-linecap="square" stroke-miterlimit="22.9256" x1="39.81" y1="22.86" x2="41.89" y2="22.86"/>
			
				<line fill="none" stroke="#1D2132" stroke-width="0.1" stroke-linecap="square" stroke-miterlimit="22.9256" x1="40.11" y1="23.59" x2="41.58" y2="22.12"/>
			
				<line fill="none" stroke="#1D2132" stroke-width="0.1" stroke-linecap="square" stroke-miterlimit="22.9256" x1="40.84" y1="23.9" x2="40.84" y2="21.81"/>
			
				<line fill="none" stroke="#1D2132" stroke-width="0.1" stroke-linecap="square" stroke-miterlimit="22.9256" x1="41.58" y1="23.59" x2="40.11" y2="22.12"/>
		</g>
		<g>
			
				<rect x="37.03" y="14.58" fill="#FFFFFF" stroke="#1D2132" stroke-width="0.1" stroke-linecap="square" stroke-miterlimit="22.9256" width="7.64" height="4.86"/>
			<g>
				<path fill="#FFFFFF" stroke="#1D2132" stroke-width="0.1" stroke-linecap="square" stroke-miterlimit="22.9256" d="M42.59,15.67
					c-0.74,0-1.33,0.6-1.33,1.33c0,0.74,0.59,1.33,1.33,1.33s1.33-0.59,1.33-1.33C43.92,16.27,43.32,15.67,42.59,15.67"/>
				<path fill="#FFFFFF" stroke="#1D2132" stroke-width="0.1" stroke-linecap="square" stroke-miterlimit="22.9256" d="M38.82,15.67
					c-0.73,0-1.33,0.6-1.33,1.33c0,0.74,0.59,1.33,1.33,1.33s1.33-0.59,1.33-1.33C40.15,16.27,39.56,15.67,38.82,15.67"/>
				<path fill="#FFFFFF" stroke="#1D2132" stroke-width="0.1" stroke-linecap="square" stroke-miterlimit="22.9256" d="M42.59,15.94
					c-0.58,0-1.06,0.48-1.06,1.06s0.48,1.06,1.06,1.06s1.06-0.48,1.06-1.06S43.17,15.94,42.59,15.94"/>
				<path fill="#FFFFFF" stroke="#1D2132" stroke-width="0.1" stroke-linecap="square" stroke-miterlimit="22.9256" d="M38.82,15.94
					c-0.58,0-1.06,0.48-1.06,1.06s0.48,1.06,1.06,1.06s1.06-0.48,1.06-1.06S39.41,15.94,38.82,15.94"/>
			</g>
		</g>
		<g>
			<path fill="#FFFFFF" stroke="#1D2132" stroke-width="0.1" stroke-linecap="square" stroke-miterlimit="22.9256" d="M38.24,7.72
				V4.51c0-0.27,0.21-0.48,0.48-0.48h5.3c0.27,0,0.48,0.21,0.48,0.48v3.21c0,0.27-0.21,0.48-0.48,0.48h-5.3
				C38.45,8.2,38.24,7.99,38.24,7.72z"/>
			<g>
				<path fill="#FFFFFF" stroke="#1D2132" stroke-width="0.1" stroke-linecap="square" stroke-miterlimit="22.9256" d="M39.42,5.78
					c0.21,0,0.38,0.15,0.38,0.34s-0.17,0.34-0.38,0.34c-0.21,0-0.38-0.15-0.38-0.34C39.04,5.93,39.21,5.77,39.42,5.78z"/>
				<g>
					<path fill="#FFFFFF" stroke="#1D2132" stroke-width="0.1" stroke-linecap="square" stroke-miterlimit="22.9256" d="M37.72,5.55
						c0.29,0.01,0.52,0.26,0.52,0.57c0,0.32-0.23,0.57-0.52,0.57S37.2,6.44,37.2,6.12S37.43,5.55,37.72,5.55z"/>
					<path fill="#FFFFFF" stroke="#1D2132" stroke-width="0.1" stroke-linecap="square" stroke-miterlimit="22.9256" d="M40.66,6.13
						c0,0.1-0.11,0.17-0.27,0.17l-2.71-0.01c-0.15,0-0.27-0.08-0.27-0.17l0,0c0-0.1,0.12-0.17,0.27-0.17l2.71,0.01
						C40.54,5.96,40.66,6.03,40.66,6.13L40.66,6.13z"/>
					<path fill="#FFFFFF" stroke="#1D2132" stroke-width="0.1" stroke-linecap="square" stroke-miterlimit="22.9256" d="M37.74,5.33
						c0.09,0,0.15,0.35,0.15,0.79c0,0.43-0.08,0.79-0.16,0.79c-0.1,0-0.16-0.35-0.16-0.79C37.57,5.68,37.64,5.32,37.74,5.33z"/>
				</g>
			</g>
		</g>
	</g>
	<g>
		
			<rect x="19.47" y="39.4" transform="matrix(-1 -4.483803e-11 4.483803e-11 -1 62.8701 86.61)" fill="#FFFFFF" stroke="#1D2132" stroke-width="0.1" stroke-linecap="square" stroke-miterlimit="10" width="23.94" height="7.81"/>
		<g>
			<path fill="#FFFFFF" stroke="#1D2132" stroke-width="0.1" stroke-linecap="square" stroke-miterlimit="10" d="M31.32,42.19v-0.35
				c-0.01-0.02-0.07-0.06-0.12-0.09c-0.16-0.11-0.4-0.27-0.46-0.61c-0.04-0.25,0.05-0.49,0.25-0.63c0.21-0.15,0.5-0.17,0.74-0.05
				c0.38,0.19,0.43,0.57,0.4,0.75c-0.01,0.06-0.07,0.1-0.13,0.09c-0.06-0.01-0.1-0.06-0.09-0.12c0,0,0.05-0.36-0.28-0.53
				c-0.17-0.08-0.37-0.07-0.51,0.03c-0.13,0.09-0.19,0.25-0.16,0.42c0.04,0.25,0.22,0.37,0.37,0.47c0.11,0.07,0.22,0.14,0.22,0.27
				v0.36c0,0.06-0.05,0.11-0.11,0.11C31.37,42.29,31.32,42.25,31.32,42.19z M31.32,41.83L31.32,41.83L31.32,41.83z"/>
			<path fill="#FFFFFF" stroke="#1D2132" stroke-width="0.1" stroke-linecap="square" stroke-miterlimit="10" d="M26.98,44.48
				c-0.07-0.27,0.05-0.53,0.3-0.66c0.01,0,0.01-0.01,0.02-0.01l3.46-1.59c0.03-0.01,0.06-0.02,0.09-0.02h1.17
				c0.03,0,0.06,0.01,0.09,0.02l3.46,1.59c0.01,0,0.01,0,0.02,0.01c0.25,0.13,0.37,0.4,0.3,0.66c-0.07,0.27-0.38,0.2-0.67,0.2h-7.58
				C27.36,44.68,27.05,44.74,26.98,44.48z M31.97,43.18H30.9l-3.66,1.02c-0.09,0.05-0.08,0.14-0.07,0.17
				c0.01,0.03,0.04,0.12,0.15,0.12h8.24c0.12,0,0.15-0.09,0.15-0.12c0.01-0.03,0.02-0.12-0.07-0.17L31.97,43.18z"/>
		</g>
	</g>
	<g>
		<g>
			
				<rect x="75.78" y="30.05" transform="matrix(-4.502905e-11 1 -1 -4.502905e-11 122.8411 -33.7313)" fill="#FFFFFF" stroke="#1D2132" stroke-width="0.1" stroke-linecap="square" stroke-miterlimit="10" width="5.01" height="29"/>
			<g>
				<polygon fill="#FFFFFF" stroke="#1D2132" stroke-width="0.1" stroke-linecap="square" stroke-miterlimit="10" points="
					66.69,42.05 66.17,42.05 66.17,41.55 69.17,41.55 69.17,42.05 68.65,42.05 68.65,41.72 66.69,41.72 				"/>
				<polygon fill="#FFFFFF" stroke="#1D2132" stroke-width="0.1" stroke-linecap="square" stroke-miterlimit="10" points="
					87.92,42.05 87.4,42.05 87.4,41.55 90.41,41.55 90.41,42.05 89.88,42.05 89.88,41.72 87.92,41.72 				"/>
			</g>
			<g>
				<polygon fill="#FFFFFF" stroke="#1D2132" stroke-width="0.1" stroke-linecap="square" stroke-miterlimit="10" points="
					72.27,42.05 71.75,42.05 71.75,41.55 74.75,41.55 74.75,42.05 74.23,42.05 74.23,41.72 72.27,41.72 				"/>
				<polygon fill="#FFFFFF" stroke="#1D2132" stroke-width="0.1" stroke-linecap="square" stroke-miterlimit="10" points="
					82.34,42.05 81.82,42.05 81.82,41.55 84.82,41.55 84.82,42.05 84.3,42.05 84.3,41.72 82.34,41.72 				"/>
			</g>
		</g>
		<g>
			<path fill="#FFFFFF" stroke="#1D2132" stroke-width="0.1" stroke-linecap="square" stroke-miterlimit="10" d="M80.15,45.16v-0.2
				c0-0.5-0.41-0.91-0.91-0.91h-1.91c-0.5,0-0.91,0.41-0.91,0.91v0.2c0,0.5,0.41,0.91,0.91,0.91h1.91
				C79.75,46.07,80.15,45.66,80.15,45.16z"/>
			<path fill="#FFFFFF" stroke="#1D2132" stroke-width="0.1" stroke-linecap="square" stroke-miterlimit="10" d="M79.46,44.86v-0.05
				c0-0.22-0.18-0.39-0.39-0.39H77.5c-0.22,0-0.39,0.18-0.39,0.39v0.05c0,0.22,0.18,0.39,0.39,0.39h1.57
				C79.29,45.25,79.46,45.07,79.46,44.86z"/>
			
				<rect x="78.2" y="37.9" transform="matrix(-5.320118e-11 1 -1 -5.320118e-11 122.779 -33.7934)" fill="#FFFFFF" stroke="#1D2132" stroke-width="0.1" stroke-linecap="square" stroke-miterlimit="10" width="0.17" height="13.18"/>
			<polygon fill="#FFFFFF" stroke="#1D2132" stroke-width="0.1" stroke-linecap="square" stroke-miterlimit="10" points="
				82.97,44.92 84.88,44.58 71.7,44.58 73.6,44.92 			"/>
		</g>
	</g>
	<g>
		<g>
			<path fill="#FFFFFF" stroke="#1D2132" stroke-width="0.1" stroke-linecap="square" stroke-miterlimit="10" d="M51.44,11.37
				c-0.96-0.08-3.3-0.23-3.78-0.41c-0.42-0.17-0.45-0.92-0.45-2.01c0-1.09,0.03-1.85,0.45-2.01c0.48-0.19,2.82-0.33,3.78-0.41
				c0.96-0.08,1.25,0.16,1.38,0.72c0.13,0.55,0.11,1.25,0.11,1.7c0,0.45,0.02,1.15-0.11,1.7C52.69,11.21,52.4,11.45,51.44,11.37z
				 M48.67,9.69c0.1,0-0.02-0.18-0.02-0.73c0-0.54,0.11-0.74,0.03-0.74c-0.08,0-0.18,0.02-0.22,0.07c-0.03,0.05-0.07,0.33-0.07,0.66
				c0,0.33,0.03,0.61,0.07,0.66C48.49,9.67,48.59,9.68,48.67,9.69z"/>
			<path fill="#FFFFFF" stroke="#1D2132" stroke-width="0.1" stroke-linecap="square" stroke-miterlimit="10" d="M51.49,11.37
				c-0.93-0.08-3.2-0.23-3.67-0.41c-0.41-0.17-0.44-0.92-0.44-2.01c0-1.09,0.03-1.85,0.44-2.01c0.47-0.19,2.74-0.33,3.67-0.41
				c0.93-0.08,1.22,0.16,1.35,0.72c0.13,0.55,0.1,1.25,0.1,1.7c0,0.45,0.02,1.15-0.11,1.7C52.7,11.21,52.42,11.45,51.49,11.37z
				 M48.79,9.69c0.09,0-0.02-0.18-0.02-0.73c0-0.54,0.11-0.74,0.02-0.74c-0.08,0-0.18,0.02-0.22,0.07
				c-0.03,0.05-0.07,0.33-0.07,0.66c0,0.33,0.03,0.61,0.06,0.66C48.61,9.67,48.71,9.68,48.79,9.69z"/>
			<path fill="#FFFFFF" stroke="#1D2132" stroke-width="0.1" stroke-linecap="square" stroke-miterlimit="10" d="M51.78,6.71
				c-0.74,0.07-1.76,0.05-2.13,0.22c-0.33,0.15-0.64,1.01-0.64,2.02c0,1.01,0.31,1.87,0.64,2.02c0.37,0.17,1.38,0.15,2.13,0.22
				c0.74,0.07,0.97-0.15,1.07-0.66c0.1-0.51,0.08-1.16,0.08-1.58c0-0.42,0.02-1.07-0.08-1.58C52.75,6.86,52.53,6.63,51.78,6.71z"/>
		</g>
		<g>
			<path fill="#FFFFFF" stroke="#1D2132" stroke-width="0.1" stroke-linecap="square" stroke-miterlimit="10" d="M59.61,14.05
				c0.82,0.51,2.83,1.71,3.17,2.09c0.3,0.34-0.02,1.02-0.52,1.99c-0.5,0.97-0.87,1.63-1.32,1.58c-0.51-0.05-2.66-0.99-3.55-1.36
				c-0.89-0.37-1.04-0.71-0.9-1.27c0.13-0.55,0.47-1.16,0.68-1.56c0.21-0.4,0.51-1.04,0.87-1.46C58.43,13.62,58.8,13.54,59.61,14.05
				z M61.31,16.81c-0.09-0.05-0.06,0.17-0.31,0.67c-0.25,0.48-0.43,0.61-0.36,0.64c0.07,0.03,0.17,0.07,0.23,0.04
				c0.05-0.03,0.21-0.26,0.36-0.56c0.15-0.29,0.25-0.56,0.24-0.62C61.47,16.91,61.38,16.85,61.31,16.81z"/>
			<path fill="#FFFFFF" stroke="#1D2132" stroke-width="0.1" stroke-linecap="square" stroke-miterlimit="10" d="M59.58,14.03
				c0.79,0.5,2.75,1.66,3.08,2.04c0.29,0.33-0.03,1.02-0.53,1.99c-0.5,0.97-0.87,1.63-1.31,1.59c-0.5-0.05-2.59-0.95-3.45-1.31
				c-0.87-0.36-1.01-0.7-0.87-1.25c0.14-0.55,0.48-1.16,0.69-1.56c0.21-0.4,0.51-1.04,0.87-1.47
				C58.42,13.61,58.78,13.53,59.58,14.03z M61.2,16.76c-0.08-0.04-0.06,0.17-0.31,0.67c-0.25,0.48-0.43,0.61-0.36,0.64
				c0.07,0.03,0.17,0.07,0.22,0.03c0.05-0.03,0.21-0.26,0.36-0.56c0.15-0.29,0.25-0.56,0.24-0.62
				C61.36,16.85,61.27,16.79,61.2,16.76z"/>
			<path fill="#FFFFFF" stroke="#1D2132" stroke-width="0.1" stroke-linecap="square" stroke-miterlimit="10" d="M57.18,18.04
				c0.7,0.27,1.58,0.76,1.99,0.77c0.36,0.01,1.03-0.61,1.49-1.5c0.46-0.9,0.58-1.8,0.35-2.09c-0.25-0.32-1.16-0.76-1.79-1.17
				c-0.63-0.4-0.93-0.31-1.26,0.1c-0.32,0.41-0.6,0.99-0.79,1.36c-0.19,0.37-0.5,0.94-0.65,1.44
				C56.39,17.47,56.49,17.77,57.18,18.04z"/>
		</g>
		
			<rect x="43.52" y="11.63" transform="matrix(-4.707098e-11 1 -1 -4.707098e-11 68.8593 -40.9048)" fill="#FFFFFF" stroke="#1D2132" stroke-width="0.1" stroke-linecap="square" stroke-miterlimit="10" width="22.72" height="4.7"/>
	</g>
	<g>
		<path fill="#FFFFFF" stroke="#1D2132" stroke-width="0.1" stroke-linecap="square" stroke-miterlimit="10" d="M55.79,45.02
			c-0.67,0.07-2.08-0.39-2.18-1.42c-0.05-0.51-0.36-0.72-0.71-2.05c-0.15-0.58-0.51-1.56,0.05-2.67s1.89-1.94,4.5-1.15
			c2.61,0.79,3.27,3.12,2.44,4.39c-0.83,1.26-1.72,1.37-2.28,1.83C57.06,44.41,57.02,44.88,55.79,45.02z"/>
		<path fill="none" stroke="#1D2132" stroke-width="0.1" stroke-linecap="square" stroke-miterlimit="10" d="M52.96,38.87
			c0,0-0.26,1.01-0.08,1.54c0.36,1.07,0.11,0.94,0.67,2.22c0.17,0.39,0.47,0.33,0.48,0.42c0.01,0.09,0.14,0.65,0.74,0.88
			s1.04,0.41,1.71,0.26c0.41-0.09,0.69-0.35,0.72-0.49c0.05-0.23,0.2-0.05,0.87-0.35c0.95-0.42,1.11-0.67,1.49-1.18
			c0.38-0.51,0.54-0.59,0.6-1.12c0.06-0.54-0.06-0.99-0.06-0.99"/>
		<path fill="none" stroke="#1D2132" stroke-width="0.1" stroke-linecap="square" stroke-miterlimit="10" d="M53.95,40.22
			c0,0,0.59-0.02,0.72,0.29s0.26,0.49,0.31,0.58s0.05,0.09,0.05,0.09s-0.15,0.56-0.34,0.91c-0.18,0.34-0.26,0.4-0.26,0.4"/>
		<path fill="none" stroke="#1D2132" stroke-width="0.1" stroke-linecap="square" stroke-miterlimit="10" d="M55.04,41.19
			c0,0,0.41,0.07,0.97,0.19c0.57,0.12,1.17,0.44,1.17,0.44s-0.04,0.44-0.05,0.84s0.05,0.62,0.05,0.62"/>
		<path fill="none" stroke="#1D2132" stroke-width="0.1" stroke-linecap="square" stroke-miterlimit="10" d="M58.96,41.64
			c0,0-0.26-0.42-0.53-0.57s-0.41-0.08-0.74,0.2c-0.34,0.28-0.5,0.55-0.5,0.55"/>
		<path fill="none" stroke="#1D2132" stroke-width="0.1" stroke-linecap="square" stroke-miterlimit="10" d="M55,39.28
			c0,0,0.78-0.22,1.19-0.14c0.41,0.08,0.41,0.08,0.41,0.08s0.07-0.05,0.13-0.25c0.06-0.2,0.05-0.33,0.05-0.33"/>
		<path fill="none" stroke="#1D2132" stroke-width="0.1" stroke-linecap="square" stroke-miterlimit="10" d="M56.61,39.22
			c0,0,0.36,0.24,0.7,0.32c0.34,0.08,0.67,0.29,0.76,0.43s0.09,0.13,0.09,0.13s0.2,0.01,0.33-0.11"/>
		<path fill="none" stroke="#1D2132" stroke-width="0.1" stroke-linecap="square" stroke-miterlimit="10" d="M55,39.28
			c0,0-0.17-0.22-0.16-0.36c0.01-0.15,0.05-0.27,0.05-0.27"/>
		<path fill="#FFFFFF" stroke="#1D2132" stroke-width="0.1" stroke-linecap="square" stroke-miterlimit="10" d="M54.62,43.67
			c0,0,0.09,0.03,0.05,0.07c-0.06,0.07-0.09,0.25-0.02,0.29c0.12,0.08,0.3,0.07,0.52,0.16c0.21,0.09,0.34,0.27,0.5,0.2
			c0.09-0.04,0.06-0.28,0.09-0.32c0.02-0.03,0.11,0.02,0.11,0.02l-0.1,0.37c0,0-0.15,0.18-0.38,0.09s-0.39-0.11-0.6-0.2
			c-0.21-0.09-0.39-0.13-0.36-0.36C54.46,43.79,54.62,43.67,54.62,43.67z"/>
	</g>
	<g>
		<path fill="#FFFFFF" stroke="#1D2132" stroke-width="0.1" stroke-linecap="square" stroke-miterlimit="10" d="M16.76,44.14
			c0.11-0.7,0.1-1.45,0-2.25c0-0.64-0.52-1.17-1.17-1.17c-1.38-0.24-2.85-0.38-4.75,0c-0.64,0-1.17,0.52-1.17,1.17
			c-0.18,0.75-0.18,1.5,0,2.25c0,0.64,0.52,1.17,1.17,1.17c1.54,0.23,3.13,0.18,4.75,0C16.24,45.31,16.76,44.79,16.76,44.14z"/>
		<g>
			<path fill="#FFFFFF" stroke="#1D2132" stroke-width="0.1" stroke-linecap="square" stroke-miterlimit="10" d="M10.61,40.97
				c-0.36,0-0.65,0.32-0.65,0.7"/>
			<path fill="#FFFFFF" stroke="#1D2132" stroke-width="0.1" stroke-linecap="square" stroke-miterlimit="10" d="M16.49,41.67
				c0-0.39-0.29-0.7-0.65-0.7"/>
			<path fill="#FFFFFF" stroke="#1D2132" stroke-width="0.1" stroke-linecap="square" stroke-miterlimit="10" d="M15.84,45.07
				c0.36,0,0.65-0.32,0.65-0.7"/>
			<path fill="#FFFFFF" stroke="#1D2132" stroke-width="0.1" stroke-linecap="square" stroke-miterlimit="10" d="M9.96,44.36
				c0,0.39,0.29,0.7,0.65,0.7"/>
		</g>
	</g>
	<g>
		<g>
			
				<rect x="12.64" y="43.09" transform="matrix(6.731094e-07 1 -1 6.731094e-07 59.7427 33.8501)" fill="#FFFFFF" stroke="#1D2132" stroke-width="0.1" stroke-linecap="square" stroke-miterlimit="10" width="0.62" height="7.41"/>
			
				<rect x="12.76" y="43.38" transform="matrix(6.731242e-07 1 -1 6.731242e-07 59.6177 33.7251)" fill="#FFFFFF" stroke="#1D2132" stroke-width="0.1" stroke-linecap="square" stroke-miterlimit="10" width="0.37" height="6.59"/>
		</g>
		
			<rect x="6.46" y="44.33" transform="matrix(6.731212e-07 1 -1 6.731212e-07 53.5668 40.026)" fill="#FFFFFF" stroke="#1D2132" stroke-width="0.1" stroke-linecap="square" stroke-miterlimit="10" width="0.62" height="4.94"/>
		<g>
			
				<rect x="4.65" y="45.55" fill="#FFFFFF" stroke="#1D2132" stroke-width="0.1" stroke-linecap="square" stroke-miterlimit="10" width="0.27" height="0.94"/>
			
				<rect x="4.65" y="46.31" fill="#FFFFFF" stroke="#1D2132" stroke-width="0.1" stroke-linecap="square" stroke-miterlimit="10" width="0.27" height="0.17"/>
		</g>
		<g>
			
				<rect x="5.97" y="45.55" fill="#FFFFFF" stroke="#1D2132" stroke-width="0.1" stroke-linecap="square" stroke-miterlimit="10" width="0.27" height="0.94"/>
			
				<rect x="5.97" y="46.31" fill="#FFFFFF" stroke="#1D2132" stroke-width="0.1" stroke-linecap="square" stroke-miterlimit="10" width="0.27" height="0.17"/>
		</g>
		<g>
			
				<rect x="7.29" y="45.55" fill="#FFFFFF" stroke="#1D2132" stroke-width="0.1" stroke-linecap="square" stroke-miterlimit="10" width="0.27" height="0.94"/>
			
				<rect x="7.29" y="46.31" fill="#FFFFFF" stroke="#1D2132" stroke-width="0.1" stroke-linecap="square" stroke-miterlimit="10" width="0.27" height="0.17"/>
		</g>
		<g>
			
				<rect x="8.62" y="45.55" fill="#FFFFFF" stroke="#1D2132" stroke-width="0.1" stroke-linecap="square" stroke-miterlimit="10" width="0.27" height="0.94"/>
			
				<rect x="8.62" y="46.31" fill="#FFFFFF" stroke="#1D2132" stroke-width="0.1" stroke-linecap="square" stroke-miterlimit="10" width="0.27" height="0.17"/>
		</g>
	</g>
	<g>
		
			<circle fill="#FFFFFF" stroke="#1D2132" stroke-width="0.1" stroke-linecap="square" stroke-miterlimit="22.9256" cx="50.59" cy="43.41" r="1.35"/>
		
			<circle fill="#FFFFFF" stroke="#1D2132" stroke-width="0.1" stroke-linecap="square" stroke-miterlimit="22.9256" cx="50.59" cy="43.41" r="0.29"/>
		<path fill="#FFFFFF" stroke="#1D2132" stroke-width="0.1" stroke-linecap="square" stroke-miterlimit="22.9256" d="M51.6,38.68
			c0.13-0.3,0.66-0.36,1.17-0.13c0.51,0.23,0.81,0.66,0.68,0.96l0,0c-0.26,0.61-0.59,0.95-1.14,1.44l-1.03-0.46
			C51.26,39.74,51.3,39.27,51.6,38.68z"/>
		<path fill="#FFFFFF" stroke="#1D2132" stroke-width="0.1" stroke-linecap="square" stroke-miterlimit="22.9256" d="M51.94,40.41
			c0.28,0.13,0.45,0.37,0.38,0.53l-0.17,0.37l-1.03-0.46l0.17-0.37C51.36,40.31,51.65,40.28,51.94,40.41z"/>
		
			<ellipse transform="matrix(0.4092 -0.9125 0.9125 0.4092 -6.9774 71.3855)" fill="#FFFFFF" stroke="#1D2132" stroke-width="0.1" stroke-linecap="square" stroke-miterlimit="22.9256" cx="51.63" cy="41.08" rx="0.33" ry="0.56"/>
		<path fill="#FFFFFF" stroke="#1D2132" stroke-width="0.1" stroke-linecap="square" stroke-miterlimit="22.9256" d="M50.55,43.5
			L50.55,43.5c0.05,0.02,0.11,0,0.13-0.05l0.63-1.4c0.02-0.05,0-0.11-0.05-0.13l0,0c-0.05-0.02-0.11,0-0.13,0.05l-0.63,1.4
			C50.47,43.42,50.5,43.48,50.55,43.5z"/>
		<path fill="#FFFFFF" stroke="#1D2132" stroke-width="0.1" stroke-linecap="square" stroke-miterlimit="22.9256" d="M50.9,42.71
			L50.9,42.71c0.05,0.02,0.11,0,0.13-0.05l0.63-1.4c0.02-0.05,0-0.11-0.05-0.13l0,0c-0.05-0.02-0.11,0-0.13,0.05l-0.63,1.4
			C50.83,42.63,50.85,42.69,50.9,42.71z"/>
	</g>
	<g>
		<g>
			<g>
				
					<rect x="67.41" y="3.62" fill="#FFFFFF" stroke="#1D2132" stroke-width="0.1" stroke-linecap="square" stroke-miterlimit="22.9256" width="21.75" height="23.21"/>
				<path fill="#FFFFFF" stroke="#1D2132" stroke-width="0.1" stroke-linecap="square" stroke-miterlimit="22.9256" d="M67.66,5.29
					c0,0-0.05,0.59,0,1.16c0.08,0.96,0.12,1.56,0.12,2.55c0,0.98-0.14,1.08-0.02,1.23c0.12,0.15,0.13,0.37,0,0.62
					c-0.14,0.25-0.03,1.63-0.03,2.58c0,0.95-0.11,2.46-0.07,3.29c0.03,0.83,0.16,0.52,0.29,0.58c0.13,0.06-0.11,0.74-0.23,0.86
					c-0.12,0.12-0.06,0.65-0.08,2.47c-0.02,1.82,0.12,2.36,0.09,3.33c-0.02,0.6,0,0.95,0.03,1.1c0.07,0.36-0.01,0.21-0.01,0.62
					c0.01,0.47,0.27-0.59,0.15-0.01c-0.08,0.4-0.24,0.79-0.12,0.69c0.12-0.09,0.33-0.48,0.4-0.54c0.07-0.06,0.27-0.38,0.21-0.13
					c-0.07,0.25-0.79,0.79-0.61,0.82c0.21,0.03,0.89,0.06,2.52,0.06c1.6,0,12.69,0,12.78-0.15c0.08-0.15,0.08-0.09,0.19,0
					c0.1,0.09,2.06-0.03,2.45,0.09c0.39,0.12,0.98,0.09,1.06-0.06c0.08-0.15,0.07-0.18,0.15-0.06c0.08,0.12,0.78,0.15,1.13,0.15
					c0.53,0,0.71,0.2,0.47-0.2c-0.24-0.4-0.21-0.71-0.06-0.46c0.15,0.25,0.19,0.58,0.3,0.64s0.08,0.29,0.09-0.36
					c0.02-0.65,0.11-3.43,0.08-4.66c-0.03-1.23,0.01-2.19-0.03-2.36c-0.11-0.48,0.06-1.15,0.02-2.21c-0.05-1.33-0.04-3.4-0.05-4.91
					c-0.02-1.51-0.02-1.94,0-3.04c0.02-1.11-0.23-1.53-0.11-1.88C89,6.4,88.79,6.11,88.76,5.58c-0.03-0.52,0.09-1.3,0.07-1.57
					c-0.02-0.21-0.37,0.59-0.52,0.46c-0.15-0.13,0.63-0.49,0.34-0.57c-0.29-0.08-4,0.08-4.29,0c-0.29-0.08-0.21,0-0.21,0
					s-0.86,0-1.48,0c-0.62,0-13.97,0-14.31,0c-0.34,0-0.67,0.07-0.34,0.21c0.33,0.14-0.34-0.03-0.37,0.24
					C67.63,4.63,67.77,5.03,67.66,5.29z"/>
				<path fill="#FFFFFF" stroke="#1D2132" stroke-width="0.1" stroke-linecap="square" stroke-miterlimit="22.9256" d="M67.36,10.31
					c-0.1,0.71-0.04,4.14,0.05,4.14s-0.23-1.17,0.37-1.86c0.6-0.68,1.26-1.18,1.08-0.96c-0.18,0.22-0.19,0.25-0.39,0.4
					c-0.2,0.15-0.39,0.22-0.28,0.28c0.11,0.06,0.76-0.11,1.32-0.28c0.72-0.22,2.55,0,3.37,0.05c2.08,0.14,13.74,0.51,15.03,1.44
					c1.29,0.93,1.18,1.08,1.25,1.39c0.07,0.31-0.07,1.27,0.05,0.78c0.12-0.48,0.01-1.46,0.1-2.4c0.09-0.96,0.19-1.27,0.05-1.33
					c-0.14-0.06-1.73-0.92-1.5-0.78c0.06,0.04,1.41,0.65,1.52,0.62c0.11-0.03,0.03-0.33,0-0.68c-0.04-0.46-0.04-0.46-0.09-0.46
					c-0.23,0-0.94-0.08-1.81-0.05c-0.87,0.03-0.11-0.19,0.37-0.06c0.48,0.12,0.05-0.12-0.83-0.37c-0.88-0.25-13.86,0.27-14.49,0.06
					c-0.64-0.22-2.8-0.5-3.59-0.12C68.14,10.49,67.43,9.79,67.36,10.31z"/>
				<g>
					<path fill="#FFFFFF" stroke="#1D2132" stroke-width="0.1" stroke-linecap="square" stroke-miterlimit="22.9256" d="M79.39,3.75
						c-0.34,0-0.25,0.05-0.17,0.16c0.08,0.1,0.12,0.26,0,0.95c-0.12,0.69-0.17,1.2,0.04,1.85c0.21,0.65,0.1,0.74,0.01,0.91
						c-0.08,0.17-0.04,0.31,0.21,0.17c0.25-0.14,0.98,0.06,1.57,0.09c2.29,0.1,3.3,0.01,4.9-0.08c0.34-0.02,0.64-0.13,0.8-0.09
						c0.17,0.03,0.37-0.03,0.25-0.14c-0.12-0.1,0.17-1.24,0.08-2.06c-0.08-0.82-0.03-1.29,0.01-1.4c0.04-0.1-0.08-0.41-0.25-0.27
						C86.67,3.97,86,3.76,85.67,3.73c-0.33-0.03-1.05-0.14-2.84-0.1c-1.79,0.03-2.58,0.02-2.87,0.12
						C79.67,3.85,79.47,3.75,79.39,3.75z"/>
					<path fill="none" stroke="#1D2132" stroke-width="0.1" stroke-linecap="square" stroke-miterlimit="22.9256" d="M79.7,7.33
						c0,0,1.36,0.46,3.41,0.46c2.04,0,3.52-0.64,3.52-0.64"/>
				</g>
				<g>
					<path fill="#FFFFFF" stroke="#1D2132" stroke-width="0.1" stroke-linecap="square" stroke-miterlimit="22.9256" d="M80.4,5.95
						c-0.24,0-0.18,0.04-0.12,0.13c0.06,0.08,0.09,0.21,0,0.77c-0.09,0.56-0.12,0.97,0.03,1.5c0.15,0.53,0.07,0.6,0.01,0.74
						c-0.06,0.14-0.03,0.25,0.15,0.14c0.18-0.11,0.71,0.05,1.14,0.07c1.67,0.08,2.4,0,3.56-0.06c0.25-0.01,0.46-0.1,0.58-0.08
						c0.12,0.03,0.27-0.03,0.18-0.11c-0.09-0.08,0.12-1,0.06-1.67C85.93,6.71,85.97,6.33,86,6.25c0.03-0.08-0.06-0.33-0.18-0.22
						c-0.12,0.11-0.61-0.06-0.85-0.09c-0.24-0.03-0.76-0.11-2.06-0.08c-1.3,0.03-1.87,0.02-2.08,0.1
						C80.61,6.04,80.46,5.95,80.4,5.95z"/>
					<path fill="none" stroke="#1D2132" stroke-width="0.1" stroke-linecap="square" stroke-miterlimit="22.9256" d="M80.63,8.86
						c0,0,0.99,0.37,2.48,0.37c1.49,0,2.56-0.52,2.56-0.52"/>
				</g>
				<g>
					<path fill="#FFFFFF" stroke="#1D2132" stroke-width="0.1" stroke-linecap="square" stroke-miterlimit="22.9256" d="M69.86,3.75
						c-0.34,0-0.25,0.05-0.17,0.16c0.08,0.1,0.12,0.26,0,0.95c-0.12,0.69-0.17,1.2,0.04,1.85c0.21,0.65,0.1,0.74,0.01,0.91
						c-0.08,0.17-0.04,0.31,0.21,0.17c0.25-0.14,0.98,0.06,1.57,0.09c2.29,0.1,3.3,0.01,4.9-0.08c0.34-0.02,0.64-0.13,0.8-0.09
						c0.17,0.03,0.37-0.03,0.25-0.14c-0.12-0.1,0.17-1.24,0.08-2.06c-0.08-0.82-0.03-1.29,0.01-1.4c0.04-0.1-0.08-0.41-0.25-0.27
						c-0.17,0.14-0.84-0.07-1.17-0.11c-0.33-0.03-1.05-0.14-2.84-0.1c-1.79,0.03-2.58,0.02-2.87,0.12
						C70.14,3.85,69.94,3.75,69.86,3.75z"/>
					<path fill="none" stroke="#1D2132" stroke-width="0.1" stroke-linecap="square" stroke-miterlimit="22.9256" d="M70.17,7.33
						c0,0,1.36,0.46,3.41,0.46c2.04,0,3.52-0.64,3.52-0.64"/>
				</g>
				<g>
					<path fill="#FFFFFF" stroke="#1D2132" stroke-width="0.1" stroke-linecap="square" stroke-miterlimit="22.9256" d="M70.88,5.95
						c-0.24,0-0.18,0.04-0.12,0.13c0.06,0.08,0.09,0.21,0,0.77c-0.09,0.56-0.12,0.97,0.03,1.5c0.15,0.53,0.07,0.6,0.01,0.74
						c-0.06,0.14-0.03,0.25,0.15,0.14c0.18-0.11,0.71,0.05,1.14,0.07c1.67,0.08,2.4,0,3.56-0.06c0.25-0.01,0.46-0.1,0.58-0.08
						c0.12,0.03,0.27-0.03,0.18-0.11c-0.09-0.08,0.12-1,0.06-1.67c-0.06-0.67-0.03-1.05,0.01-1.13c0.03-0.08-0.06-0.33-0.18-0.22
						c-0.12,0.11-0.61-0.06-0.85-0.09c-0.24-0.03-0.76-0.11-2.06-0.08c-1.3,0.03-1.87,0.02-2.08,0.1
						C71.08,6.04,70.94,5.95,70.88,5.95z"/>
					<path fill="none" stroke="#1D2132" stroke-width="0.1" stroke-linecap="square" stroke-miterlimit="22.9256" d="M71.1,8.86
						c0,0,0.99,0.37,2.48,0.37c1.49,0,2.56-0.52,2.56-0.52"/>
				</g>
				<path fill="#FFFFFF" stroke="#1D2132" stroke-width="0.1" stroke-linecap="square" stroke-miterlimit="22.9256" d="M88.64,26.6
					H67.77c-0.35,0-0.62-0.28-0.62-0.62v-5.66c0-0.35,0.28-0.62,0.62-0.62h20.88c0.35,0,0.62,0.28,0.62,0.62v5.66
					C89.27,26.32,88.99,26.6,88.64,26.6z"/>
			</g>
			<g>
				
					<rect x="63.79" y="2.55" fill="#FFFFFF" stroke="#1D2132" stroke-width="0.1" stroke-linecap="square" stroke-miterlimit="22.9256" width="29" height="0.6"/>
				<path fill="#FFFFFF" stroke="#1D2132" stroke-width="0.1" stroke-linecap="square" stroke-miterlimit="22.9256" d="M92.07,3.62
					H64.5c-0.25,0-0.46-0.21-0.46-0.46v0h28.49v0C92.53,3.41,92.32,3.62,92.07,3.62z"/>
				<g>
					<g>
						<g>
							<path fill="#FFFFFF" stroke="#1D2132" stroke-width="0.1" stroke-linecap="square" stroke-miterlimit="22.9256" d="
								M91.81,3.16H90.9v0.11c0,0.25,0.2,0.46,0.46,0.46l0,0c0.25,0,0.46-0.2,0.46-0.46V3.16z"/>
							<path fill="#FFFFFF" stroke="#1D2132" stroke-width="0.1" stroke-linecap="square" stroke-miterlimit="22.9256" d="
								M88.48,6.54l0.69,0.16c0.04,0.39,0.02,0.77-0.05,1.16l0,0c-0.02,0.1-0.29,0.12-0.6,0.05c-0.31-0.07-0.53-0.21-0.51-0.31l0,0
								C88.1,7.23,88.26,6.88,88.48,6.54z"/>
							
								<ellipse transform="matrix(0.2315 -0.9728 0.9728 0.2315 61.813 91.5012)" fill="#FFFFFF" stroke="#1D2132" stroke-width="0.1" stroke-linecap="square" stroke-miterlimit="22.9256" cx="88.82" cy="6.63" rx="0.12" ry="0.35"/>
							<path fill="#FFFFFF" stroke="#1D2132" stroke-width="0.1" stroke-linecap="square" stroke-miterlimit="22.9256" d="
								M88.91,6.59l0.03-0.07c0,0,0.16-0.39,0.72-0.67c0.11-0.05,0.22-0.1,0.35-0.15c0.36-0.15,0.77-0.32,1.05-0.67
								c0.36-0.46,0.36-1.19,0.36-1.22l0-0.08l-0.15,0l0,0.08c0,0.01,0,0.7-0.33,1.12c-0.25,0.32-0.62,0.48-0.99,0.63
								c-0.13,0.05-0.24,0.1-0.36,0.16c-0.62,0.31-0.79,0.73-0.79,0.75l-0.03,0.07C88.77,6.57,88.86,6.6,88.91,6.59z"/>
						</g>
					</g>
					<g>
						<g>
							<path fill="#FFFFFF" stroke="#1D2132" stroke-width="0.1" stroke-linecap="square" stroke-miterlimit="22.9256" d="
								M64.76,3.16h0.91v0.11c0,0.25-0.2,0.46-0.46,0.46l0,0c-0.25,0-0.46-0.2-0.46-0.46V3.16z"/>
							<path fill="#FFFFFF" stroke="#1D2132" stroke-width="0.1" stroke-linecap="square" stroke-miterlimit="22.9256" d="
								M68.09,6.54l-0.69,0.16c-0.04,0.39-0.02,0.77,0.05,1.16l0,0c0.02,0.1,0.29,0.12,0.6,0.05c0.31-0.07,0.53-0.21,0.51-0.31l0,0
								C68.47,7.23,68.32,6.88,68.09,6.54z"/>
							
								<ellipse transform="matrix(0.9728 -0.2315 0.2315 0.9728 0.3065 15.8645)" fill="#FFFFFF" stroke="#1D2132" stroke-width="0.1" stroke-linecap="square" stroke-miterlimit="22.9256" cx="67.75" cy="6.63" rx="0.35" ry="0.12"/>
							<path fill="#FFFFFF" stroke="#1D2132" stroke-width="0.1" stroke-linecap="square" stroke-miterlimit="22.9256" d="
								M67.66,6.59l-0.03-0.07c0,0-0.16-0.39-0.72-0.67c-0.11-0.05-0.22-0.1-0.35-0.15c-0.36-0.15-0.77-0.32-1.05-0.67
								c-0.36-0.46-0.36-1.19-0.36-1.22l0-0.08l0.15,0l0,0.08c0,0.01,0,0.7,0.33,1.12c0.25,0.32,0.62,0.48,0.99,0.63
								c0.13,0.05,0.24,0.1,0.36,0.16c0.62,0.31,0.79,0.73,0.79,0.75l0.03,0.07C67.8,6.57,67.71,6.6,67.66,6.59z"/>
						</g>
					</g>
				</g>
			</g>
		</g>
	</g>
	<g>
		<g>
			
				<rect x="92.3" y="19.77" transform="matrix(6.123234e-17 -1 1 6.123234e-17 77.1058 117.3821)" fill="#FFFFFF" stroke="#1D2132" stroke-width="0.1" stroke-linecap="square" stroke-miterlimit="10" width="9.88" height="0.74"/>
			
				<line fill="none" stroke="#1D2132" stroke-width="0.1" stroke-linecap="square" stroke-miterlimit="10" x1="97.47" y1="24.3" x2="97.02" y2="24.3"/>
			
				<line fill="none" stroke="#1D2132" stroke-width="0.1" stroke-linecap="square" stroke-miterlimit="10" x1="97.47" y1="24.03" x2="97.02" y2="24.03"/>
			
				<line fill="none" stroke="#1D2132" stroke-width="0.1" stroke-linecap="square" stroke-miterlimit="10" x1="97.47" y1="24.83" x2="97.02" y2="24.83"/>
			
				<line fill="none" stroke="#1D2132" stroke-width="0.1" stroke-linecap="square" stroke-miterlimit="10" x1="97.47" y1="24.57" x2="97.02" y2="24.57"/>
			
				<line fill="none" stroke="#1D2132" stroke-width="0.1" stroke-linecap="square" stroke-miterlimit="10" x1="97.47" y1="23.77" x2="97.02" y2="23.77"/>
			
				<line fill="none" stroke="#1D2132" stroke-width="0.1" stroke-linecap="square" stroke-miterlimit="10" x1="97.47" y1="23.5" x2="97.02" y2="23.5"/>
			
				<line fill="none" stroke="#1D2132" stroke-width="0.1" stroke-linecap="square" stroke-miterlimit="10" x1="97.47" y1="23.23" x2="97.02" y2="23.23"/>
			
				<line fill="none" stroke="#1D2132" stroke-width="0.1" stroke-linecap="square" stroke-miterlimit="10" x1="97.47" y1="22.97" x2="97.02" y2="22.97"/>
			
				<line fill="none" stroke="#1D2132" stroke-width="0.1" stroke-linecap="square" stroke-miterlimit="10" x1="97.47" y1="22.7" x2="97.02" y2="22.7"/>
			
				<line fill="none" stroke="#1D2132" stroke-width="0.1" stroke-linecap="square" stroke-miterlimit="10" x1="97.47" y1="22.43" x2="97.02" y2="22.43"/>
			
				<line fill="none" stroke="#1D2132" stroke-width="0.1" stroke-linecap="square" stroke-miterlimit="10" x1="97.47" y1="21.63" x2="97.02" y2="21.63"/>
			
				<line fill="none" stroke="#1D2132" stroke-width="0.1" stroke-linecap="square" stroke-miterlimit="10" x1="97.47" y1="21.37" x2="97.02" y2="21.37"/>
			
				<line fill="none" stroke="#1D2132" stroke-width="0.1" stroke-linecap="square" stroke-miterlimit="10" x1="97.47" y1="22.17" x2="97.02" y2="22.17"/>
			
				<line fill="none" stroke="#1D2132" stroke-width="0.1" stroke-linecap="square" stroke-miterlimit="10" x1="97.47" y1="21.9" x2="97.02" y2="21.9"/>
			
				<line fill="none" stroke="#1D2132" stroke-width="0.1" stroke-linecap="square" stroke-miterlimit="10" x1="97.47" y1="21.1" x2="97.02" y2="21.1"/>
			
				<line fill="none" stroke="#1D2132" stroke-width="0.1" stroke-linecap="square" stroke-miterlimit="10" x1="97.47" y1="20.83" x2="97.02" y2="20.83"/>
			
				<line fill="none" stroke="#1D2132" stroke-width="0.1" stroke-linecap="square" stroke-miterlimit="10" x1="97.47" y1="20.57" x2="97.02" y2="20.57"/>
			
				<line fill="none" stroke="#1D2132" stroke-width="0.1" stroke-linecap="square" stroke-miterlimit="10" x1="97.47" y1="20.3" x2="97.02" y2="20.3"/>
			
				<line fill="none" stroke="#1D2132" stroke-width="0.1" stroke-linecap="square" stroke-miterlimit="10" x1="97.47" y1="20.03" x2="97.02" y2="20.03"/>
			
				<line fill="none" stroke="#1D2132" stroke-width="0.1" stroke-linecap="square" stroke-miterlimit="10" x1="97.47" y1="19.77" x2="97.02" y2="19.77"/>
			
				<line fill="none" stroke="#1D2132" stroke-width="0.1" stroke-linecap="square" stroke-miterlimit="10" x1="97.47" y1="18.97" x2="97.02" y2="18.97"/>
			
				<line fill="none" stroke="#1D2132" stroke-width="0.1" stroke-linecap="square" stroke-miterlimit="10" x1="97.47" y1="18.7" x2="97.02" y2="18.7"/>
			
				<line fill="none" stroke="#1D2132" stroke-width="0.1" stroke-linecap="square" stroke-miterlimit="10" x1="97.47" y1="19.5" x2="97.02" y2="19.5"/>
			
				<line fill="none" stroke="#1D2132" stroke-width="0.1" stroke-linecap="square" stroke-miterlimit="10" x1="97.47" y1="19.23" x2="97.02" y2="19.23"/>
			
				<line fill="none" stroke="#1D2132" stroke-width="0.1" stroke-linecap="square" stroke-miterlimit="10" x1="97.47" y1="18.43" x2="97.02" y2="18.43"/>
			
				<line fill="none" stroke="#1D2132" stroke-width="0.1" stroke-linecap="square" stroke-miterlimit="10" x1="97.47" y1="18.17" x2="97.02" y2="18.17"/>
			
				<line fill="none" stroke="#1D2132" stroke-width="0.1" stroke-linecap="square" stroke-miterlimit="10" x1="97.47" y1="17.9" x2="97.02" y2="17.9"/>
			
				<line fill="none" stroke="#1D2132" stroke-width="0.1" stroke-linecap="square" stroke-miterlimit="10" x1="97.47" y1="17.63" x2="97.02" y2="17.63"/>
			
				<line fill="none" stroke="#1D2132" stroke-width="0.1" stroke-linecap="square" stroke-miterlimit="10" x1="97.47" y1="17.37" x2="97.02" y2="17.37"/>
			
				<line fill="none" stroke="#1D2132" stroke-width="0.1" stroke-linecap="square" stroke-miterlimit="10" x1="97.47" y1="17.1" x2="97.02" y2="17.1"/>
			
				<line fill="none" stroke="#1D2132" stroke-width="0.1" stroke-linecap="square" stroke-miterlimit="10" x1="97.47" y1="16.3" x2="97.02" y2="16.3"/>
			
				<line fill="none" stroke="#1D2132" stroke-width="0.1" stroke-linecap="square" stroke-miterlimit="10" x1="97.47" y1="16.03" x2="97.02" y2="16.03"/>
			
				<line fill="none" stroke="#1D2132" stroke-width="0.1" stroke-linecap="square" stroke-miterlimit="10" x1="97.47" y1="16.83" x2="97.02" y2="16.83"/>
			
				<line fill="none" stroke="#1D2132" stroke-width="0.1" stroke-linecap="square" stroke-miterlimit="10" x1="97.47" y1="16.57" x2="97.02" y2="16.57"/>
			
				<line fill="none" stroke="#1D2132" stroke-width="0.1" stroke-linecap="square" stroke-miterlimit="10" x1="97.47" y1="15.77" x2="97.02" y2="15.77"/>
			
				<line fill="none" stroke="#1D2132" stroke-width="0.1" stroke-linecap="square" stroke-miterlimit="10" x1="97.47" y1="15.5" x2="97.02" y2="15.5"/>
		</g>
		<path fill="none" stroke="#1D2132" stroke-width="0.1" stroke-linecap="square" stroke-miterlimit="10" d="M96.73,34
			c0-0.39-0.69,0-0.69-0.39c0-0.39,0.69,0,0.69-0.39c0-0.39-0.69,0-0.69-0.39s0.69,0,0.69-0.39c0-0.39-0.69,0-0.69-0.39
			c0-0.39,0.69,0,0.69-0.39c0-0.39-0.69,0-0.69-0.39s0.69,0,0.69-0.39c0-0.39-0.69,0-0.69-0.39c0-0.39,0.69,0,0.69-0.39
			s-0.69,0-0.69-0.39c0-0.39,0.69,0,0.69-0.39c0-0.39-0.69,0-0.69-0.39s0.69,0,0.69-0.39s-0.69,0-0.69-0.39c0-0.39,0.69,0,0.69-0.39
			c0-0.39-0.69,0-0.69-0.39s0.69,0,0.69-0.39s-0.69,0-0.69-0.39c0-0.39,0.69,0,0.69-0.39c0-0.39-0.69,0-0.69-0.39s0.69,0,0.69-0.39
			s-0.69,0-0.69-0.39c0-0.39,0.69,0,0.69-0.39c0-0.39-0.69,0-0.69-0.39s0.69,0,0.69-0.39c0-0.39-0.69,0-0.69-0.39
			c0-0.39,0.69,0,0.69-0.39s-0.69,0-0.69-0.39s0.69,0,0.69-0.39c0-0.39-0.69,0-0.69-0.39c0-0.39,0.69,0,0.69-0.39s-0.69,0-0.69-0.39
			"/>
		<path fill="none" stroke="#1D2132" stroke-width="0.1" stroke-linecap="square" stroke-miterlimit="10" d="M96.73,6.2
			c0,0.39-0.69,0-0.69,0.39s0.69,0,0.69,0.39s-0.69,0-0.69,0.39s0.69,0,0.69,0.39c0,0.39-0.69,0-0.69,0.39c0,0.39,0.69,0,0.69,0.39
			s-0.69,0-0.69,0.39c0,0.39,0.69,0,0.69,0.39c0,0.39-0.69,0-0.69,0.39c0,0.39,0.69,0,0.69,0.39c0,0.39-0.69,0-0.69,0.39
			c0,0.39,0.69,0,0.69,0.39c0,0.39-0.69,0-0.69,0.39c0,0.39,0.69,0,0.69,0.39c0,0.39-0.69,0-0.69,0.39c0,0.39,0.69,0,0.69,0.39
			c0,0.39-0.69,0-0.69,0.39c0,0.39,0.69,0,0.69,0.39c0,0.39-0.69,0-0.69,0.39c0,0.39,0.69,0,0.69,0.39c0,0.39-0.69,0-0.69,0.39
			s0.69,0,0.69,0.39c0,0.39-0.69,0-0.69,0.39c0,0.39,0.69,0,0.69,0.39c0,0.39-0.69,0-0.69,0.39c0,0.39,0.69,0,0.69,0.39
			c0,0.39-0.69,0-0.69,0.39s0.69,0,0.69,0.39c0,0.39-0.69,0-0.69,0.39c0,0.39,0.69,0,0.69,0.39s-0.69,0-0.69,0.39s0.69,0,0.69,0.39
			c0,0.39-0.69,0-0.69,0.39"/>
	</g>
</g>
<g id="Plumbing">
	<g>
		<polyline fill="#FFFFFF" points="21.82,6.2 21.82,2.64 13.82,2.64 13.82,6.2 13.82,6.46 13.85,6.7 13.91,6.95 14,7.18 14.11,7.41 
			14.24,7.61 14.41,7.81 14.57,7.97 14.83,8.17 15.11,8.33 15.39,8.47 15.69,8.6 15.97,8.7 16.29,8.81 16.6,8.88 16.91,8.95 
			17.23,8.99 17.53,9.02 17.82,9.04 18.1,9.02 18.41,9 18.73,8.95 19.03,8.88 19.34,8.81 19.61,8.72 19.94,8.6 20.24,8.47 
			20.52,8.33 20.8,8.17 21.06,7.97 21.23,7.81 21.39,7.61 21.52,7.41 21.64,7.18 21.73,6.95 21.78,6.7 21.82,6.46 21.82,6.33 
			21.82,6.2 		"/>
		
			<line fill="none" stroke="#1D2132" stroke-width="0.1" stroke-linecap="square" stroke-miterlimit="10" x1="21.82" y1="2.64" x2="13.82" y2="2.64"/>
		
			<line fill="none" stroke="#1D2132" stroke-width="0.1" stroke-linecap="square" stroke-miterlimit="10" x1="13.82" y1="2.64" x2="13.82" y2="6.2"/>
		
			<line fill="none" stroke="#1D2132" stroke-width="0.1" stroke-linecap="square" stroke-miterlimit="10" x1="21.82" y1="2.64" x2="21.82" y2="6.2"/>
		
			<line fill="none" stroke="#1D2132" stroke-width="0.1" stroke-linecap="square" stroke-miterlimit="10" x1="16.56" y1="2.64" x2="19.07" y2="2.64"/>
		
			<line fill="none" stroke="#1D2132" stroke-width="0.1" stroke-linecap="square" stroke-miterlimit="10" x1="17.15" y1="5.5" x2="17.57" y2="5.5"/>
		
			<line fill="none" stroke="#1D2132" stroke-width="0.1" stroke-linecap="square" stroke-miterlimit="10" x1="17.82" y1="4.79" x2="17.82" y2="5.24"/>
		
			<line fill="none" stroke="#1D2132" stroke-width="0.1" stroke-linecap="square" stroke-miterlimit="10" x1="18.06" y1="5.5" x2="18.5" y2="5.5"/>
		
			<line fill="none" stroke="#1D2132" stroke-width="0.1" stroke-linecap="square" stroke-miterlimit="10" x1="17.82" y1="5.77" x2="17.82" y2="6.22"/>
		<path fill="none" stroke="#1D2132" stroke-width="0.1" stroke-linecap="square" stroke-miterlimit="10" d="M19.94,4.65
			c0.63,0.42,1.1,1.05,1.38,1.78"/>
		<path fill="none" stroke="#1D2132" stroke-width="0.1" stroke-linecap="square" stroke-miterlimit="10" d="M17.82,4.13
			c0.09-0.01,0.19-0.01,0.28-0.01c0.65,0,1.28,0.18,1.83,0.54"/>
		<path fill="none" stroke="#1D2132" stroke-width="0.1" stroke-linecap="square" stroke-miterlimit="10" d="M14.3,6.42
			c0.27-0.73,0.76-1.35,1.38-1.78"/>
		<path fill="none" stroke="#1D2132" stroke-width="0.1" stroke-linecap="square" stroke-miterlimit="10" d="M15.69,4.65
			c0.55-0.35,1.19-0.54,1.83-0.54c0.09,0,0.19,0,0.28,0.01"/>
		<path fill="none" stroke="#1D2132" stroke-width="0.1" stroke-linecap="square" stroke-miterlimit="10" d="M20.52,8.33
			c-0.76,0.4-1.59,0.63-2.42,0.69"/>
		<path fill="none" stroke="#1D2132" stroke-width="0.1" stroke-linecap="square" stroke-miterlimit="10" d="M14.57,7.97
			c-0.49-0.41-0.76-1.03-0.76-1.67c0-0.03,0-0.06,0-0.09"/>
		<path fill="none" stroke="#1D2132" stroke-width="0.1" stroke-linecap="square" stroke-miterlimit="10" d="M18.1,9.02
			c-0.09,0.01-0.19,0.01-0.28,0.01s-0.19,0-0.28-0.01"/>
		<path fill="none" stroke="#1D2132" stroke-width="0.1" stroke-linecap="square" stroke-miterlimit="10" d="M15.59,4.78
			c0.74-0.12,1.49-0.18,2.23-0.18c0.74,0,1.5,0.06,2.24,0.18"/>
		<path fill="none" stroke="#1D2132" stroke-width="0.1" stroke-linecap="square" stroke-miterlimit="10" d="M15.56,3.32
			c0.74-0.12,1.5-0.17,2.26-0.17"/>
		<path fill="none" stroke="#1D2132" stroke-width="0.1" stroke-linecap="square" stroke-miterlimit="10" d="M14.02,6.75
			c0-0.03,0-0.04,0-0.06c0-1.15,0.4-2.28,1.13-3.15"/>
		<path fill="none" stroke="#1D2132" stroke-width="0.1" stroke-linecap="square" stroke-miterlimit="10" d="M15.15,3.55
			c0.1-0.13,0.26-0.21,0.41-0.23"/>
		<path fill="none" stroke="#1D2132" stroke-width="0.1" stroke-linecap="square" stroke-miterlimit="10" d="M20.48,3.54
			c0.73,0.87,1.13,1.99,1.13,3.15c0,0.01,0,0.04,0,0.05"/>
		<path fill="none" stroke="#1D2132" stroke-width="0.1" stroke-linecap="square" stroke-miterlimit="10" d="M17.82,3.14
			c0.76,0,1.51,0.06,2.26,0.17"/>
		<path fill="none" stroke="#1D2132" stroke-width="0.1" stroke-linecap="square" stroke-miterlimit="10" d="M20.07,3.32
			c0.15,0.03,0.31,0.1,0.41,0.23"/>
		<path fill="none" stroke="#1D2132" stroke-width="0.1" stroke-linecap="square" stroke-miterlimit="10" d="M21.82,6.2
			c0,0.03,0,0.06,0,0.09c0,0.65-0.28,1.27-0.76,1.67"/>
		<path fill="none" stroke="#1D2132" stroke-width="0.1" stroke-linecap="square" stroke-miterlimit="10" d="M21.06,7.97
			c-0.17,0.14-0.35,0.26-0.53,0.36"/>
		<path fill="none" stroke="#1D2132" stroke-width="0.1" stroke-linecap="square" stroke-miterlimit="10" d="M15.11,8.33
			c-0.19-0.1-0.37-0.22-0.53-0.36"/>
		<path fill="none" stroke="#1D2132" stroke-width="0.1" stroke-linecap="square" stroke-miterlimit="10" d="M17.53,9.02
			c-0.85-0.06-1.67-0.31-2.42-0.69"/>
		<path fill="none" stroke="#1D2132" stroke-width="0.1" stroke-linecap="square" stroke-miterlimit="10" d="M18.92,8.43
			c-0.36,0.09-0.73,0.14-1.1,0.14c-0.37,0-0.74-0.05-1.1-0.14"/>
		<path fill="none" stroke="#1D2132" stroke-width="0.1" stroke-linecap="square" stroke-miterlimit="10" d="M21.33,6.42
			c0,0.03,0,0.05,0,0.09c0,0.37-0.15,0.72-0.41,0.96"/>
		<path fill="none" stroke="#1D2132" stroke-width="0.1" stroke-linecap="square" stroke-miterlimit="10" d="M20.91,7.47
			c-0.58,0.49-1.26,0.82-1.99,0.96"/>
		<path fill="none" stroke="#1D2132" stroke-width="0.1" stroke-linecap="square" stroke-miterlimit="10" d="M14.73,7.47
			c-0.27-0.24-0.41-0.59-0.41-0.96c0-0.03,0-0.05,0-0.09"/>
		<path fill="none" stroke="#1D2132" stroke-width="0.1" stroke-linecap="square" stroke-miterlimit="10" d="M16.71,8.43
			c-0.73-0.14-1.42-0.46-2-0.96"/>
		<path fill="none" stroke="#1D2132" stroke-width="0.1" stroke-linecap="square" stroke-miterlimit="10" d="M17.82,4.96
			c-0.28,0-0.51,0.24-0.51,0.55s0.23,0.55,0.51,0.55c0.28,0,0.51-0.24,0.51-0.55C18.34,5.2,18.1,4.96,17.82,4.96"/>
		<path fill="none" stroke="#1D2132" stroke-width="0.1" stroke-linecap="square" stroke-miterlimit="10" d="M17.82,5.2
			c-0.15,0-0.28,0.13-0.28,0.29c0,0.17,0.13,0.29,0.28,0.29c0.15,0,0.28-0.13,0.28-0.29C18.1,5.34,17.97,5.2,17.82,5.2"/>
	</g>
	<g>
		<polygon fill="#FFFFFF" points="2.6,13 2.6,10.16 4.58,10.16 4.61,10.16 4.63,10.18 4.67,10.18 4.69,10.19 4.71,10.19 4.74,10.2 
			4.76,10.21 4.78,10.23 4.8,10.23 4.82,10.26 4.83,10.28 4.85,10.31 4.87,10.32 4.88,10.34 4.89,10.36 4.9,10.39 10.17,10.39 
			10.3,10.4 10.43,10.41 10.56,10.42 10.67,10.45 10.8,10.48 10.92,10.51 11.04,10.56 11.16,10.61 11.26,10.67 11.38,10.72 
			11.49,10.8 11.58,10.87 11.69,10.95 11.77,11.04 11.86,11.13 11.95,11.22 12.03,11.31 12.1,11.41 12.17,11.5 12.23,11.6 
			12.29,11.72 12.35,11.83 12.39,11.94 12.44,12.05 12.48,12.17 12.51,12.27 12.55,12.4 12.57,12.52 12.58,12.64 12.59,12.76 
			12.6,12.89 12.6,13 12.6,13.12 12.59,13.25 12.58,13.37 12.57,13.49 12.55,13.6 12.51,13.72 12.48,13.84 12.44,13.96 12.39,14.06 
			12.35,14.18 12.29,14.29 12.23,14.39 12.17,14.5 12.1,14.59 12.03,14.7 11.95,14.79 11.86,14.88 11.77,14.97 11.69,15.05 
			11.58,15.13 11.49,15.21 11.38,15.28 11.26,15.32 11.16,15.39 11.04,15.43 10.92,15.49 10.8,15.51 10.67,15.56 10.56,15.58 
			10.43,15.61 10.3,15.61 10.17,15.62 4.9,15.62 4.89,15.64 4.88,15.66 4.87,15.69 4.85,15.7 4.83,15.72 4.82,15.75 4.8,15.76 
			4.78,15.78 4.76,15.79 4.74,15.81 4.71,15.81 4.69,15.81 4.67,15.83 4.63,15.83 4.61,15.84 4.58,15.84 2.6,15.84 		"/>
		
			<line fill="none" stroke="#1D2132" stroke-width="0.1" stroke-linecap="square" stroke-miterlimit="10" x1="4.9" y1="10.39" x2="10.17" y2="10.39"/>
		
			<line fill="none" stroke="#1D2132" stroke-width="0.1" stroke-linecap="square" stroke-miterlimit="10" x1="2.6" y1="10.16" x2="2.6" y2="15.84"/>
		
			<line fill="none" stroke="#1D2132" stroke-width="0.1" stroke-linecap="square" stroke-miterlimit="10" x1="2.6" y1="10.16" x2="4.58" y2="10.16"/>
		
			<line fill="none" stroke="#1D2132" stroke-width="0.1" stroke-linecap="square" stroke-miterlimit="10" x1="5.83" y1="13" x2="5.83" y2="15.11"/>
		
			<line fill="none" stroke="#1D2132" stroke-width="0.1" stroke-linecap="square" stroke-miterlimit="10" x1="10.17" y1="10.39" x2="5.83" y2="10.91"/>
		
			<line fill="none" stroke="#1D2132" stroke-width="0.1" stroke-linecap="square" stroke-miterlimit="10" x1="5.83" y1="13" x2="5.83" y2="10.91"/>
		
			<line fill="none" stroke="#1D2132" stroke-width="0.1" stroke-linecap="square" stroke-miterlimit="10" x1="10.17" y1="15.62" x2="5.83" y2="15.11"/>
		
			<line fill="none" stroke="#1D2132" stroke-width="0.1" stroke-linecap="square" stroke-miterlimit="10" x1="4.9" y1="15.62" x2="10.17" y2="15.62"/>
		
			<line fill="none" stroke="#1D2132" stroke-width="0.1" stroke-linecap="square" stroke-miterlimit="10" x1="2.6" y1="15.84" x2="4.58" y2="15.84"/>
		<path fill="none" stroke="#1D2132" stroke-width="0.1" stroke-linecap="square" stroke-miterlimit="10" d="M4.91,15.54
			c0.09-0.85,0.13-1.7,0.13-2.54S5,11.3,4.9,10.45"/>
		<path fill="none" stroke="#1D2132" stroke-width="0.1" stroke-linecap="square" stroke-miterlimit="10" d="M4.91,10.46
			c-0.02-0.16-0.16-0.29-0.33-0.29"/>
		<path fill="none" stroke="#1D2132" stroke-width="0.1" stroke-linecap="square" stroke-miterlimit="10" d="M10.17,15.62
			c1.34,0,2.44-1.17,2.44-2.61c0-1.44-1.1-2.61-2.44-2.61"/>
		<path fill="none" stroke="#1D2132" stroke-width="0.1" stroke-linecap="square" stroke-miterlimit="10" d="M4.58,15.84
			c0.16,0,0.32-0.13,0.33-0.29"/>
		<path fill="none" stroke="#1D2132" stroke-width="0.1" stroke-linecap="square" stroke-miterlimit="10" d="M3.58,13
			c0-0.15,0.13-0.27,0.28-0.27S4.15,12.85,4.15,13s-0.13,0.27-0.28,0.27C3.69,13.26,3.58,13.16,3.58,13"/>
	</g>
	<g>
		<path fill="#FFFFFF" d="M24.54,13.62V2.83c0-0.06,0.04-0.1,0.1-0.1h10.79c0.06,0,0.1,0.04,0.1,0.1v10.79c0,0.06-0.04,0.1-0.1,0.1
			H24.64C24.59,13.72,24.54,13.67,24.54,13.62z"/>
		
			<line fill="none" stroke="#1D2132" stroke-width="0.1" stroke-linecap="square" stroke-miterlimit="10" x1="32.75" y1="4.45" x2="32.75" y2="5.17"/>
		
			<line fill="none" stroke="#1D2132" stroke-width="0.1" stroke-linecap="square" stroke-miterlimit="10" x1="33.06" y1="5.47" x2="33.76" y2="5.47"/>
		
			<line fill="none" stroke="#1D2132" stroke-width="0.1" stroke-linecap="square" stroke-miterlimit="10" x1="32.75" y1="5.78" x2="32.75" y2="6.46"/>
		
			<line fill="none" stroke="#1D2132" stroke-width="0.1" stroke-linecap="square" stroke-miterlimit="10" x1="31.75" y1="5.47" x2="32.45" y2="5.47"/>
		
			<line fill="none" stroke="#1D2132" stroke-width="0.1" stroke-linecap="square" stroke-miterlimit="10" x1="25.15" y1="3.37" x2="25.15" y2="6.32"/>
		
			<line fill="none" stroke="#1D2132" stroke-width="0.1" stroke-linecap="square" stroke-miterlimit="10" x1="34.96" y1="6.2" x2="34.96" y2="12.94"/>
		<path fill="none" stroke="#1D2132" stroke-width="0.1" stroke-linecap="square" stroke-miterlimit="10" d="M25.15,3.37v9.51
			c0,0.09,0.08,0.18,0.18,0.18h9.51"/>
		
			<line fill="none" stroke="#1D2132" stroke-width="0.1" stroke-linecap="square" stroke-miterlimit="10" x1="25.28" y1="3.26" x2="32.02" y2="3.26"/>
		<g>
			<path fill="none" stroke="#1D2132" stroke-width="0.1" stroke-linecap="square" stroke-miterlimit="10" d="M32.21,3.28
				c-0.06-0.02-0.13-0.03-0.2-0.03"/>
		</g>
		<g>
			<path fill="none" stroke="#1D2132" stroke-width="0.1" stroke-linecap="square" stroke-miterlimit="10" d="M25.28,3.26
				c-0.07,0-0.12,0.05-0.12,0.12"/>
		</g>
		<g>
			<path fill="none" stroke="#1D2132" stroke-width="0.1" stroke-linecap="square" stroke-miterlimit="10" d="M32.21,3.28
				c-0.06-0.02-0.13-0.03-0.2-0.03"/>
		</g>
		<g>
			<path fill="none" stroke="#1D2132" stroke-width="0.1" stroke-linecap="square" stroke-miterlimit="10" d="M34.84,13.06
				c0.07,0,0.12-0.05,0.12-0.12"/>
		</g>
		<g>
			<path fill="none" stroke="#1D2132" stroke-width="0.1" stroke-linecap="square" stroke-miterlimit="10" d="M34.95,6.08
				c-0.62-1.2-1.61-2.19-2.82-2.82"/>
		</g>
		<g>
			<path fill="none" stroke="#1D2132" stroke-width="0.1" stroke-linecap="square" stroke-miterlimit="10" d="M34.96,6.2
				c0-0.07-0.01-0.13-0.03-0.2"/>
		</g>
		<g>
			<path fill="none" stroke="#1D2132" stroke-width="0.1" stroke-linecap="square" stroke-miterlimit="10" d="M34.93,6.01
				c-0.43-1.29-1.44-2.29-2.72-2.73"/>
		</g>
		<g>
			<path fill="none" stroke="#1D2132" stroke-width="0.1" stroke-linecap="square" stroke-miterlimit="10" d="M34.96,6.2
				c0-0.07-0.01-0.13-0.03-0.2"/>
		</g>
		<g>
			<path fill="none" stroke="#1D2132" stroke-width="0.1" stroke-linecap="square" stroke-miterlimit="10" d="M32.75,4.91
				c0.3,0,0.55,0.25,0.55,0.55c0.01,0.31-0.24,0.55-0.55,0.55c-0.3,0-0.55-0.25-0.55-0.55C32.2,5.17,32.45,4.91,32.75,4.91"/>
		</g>
		<g>
			<path fill="none" stroke="#1D2132" stroke-width="0.1" stroke-linecap="square" stroke-miterlimit="10" d="M32.75,4.69
				c0.43,0,0.78,0.34,0.78,0.78c0,0.43-0.34,0.78-0.78,0.78c-0.43,0-0.78-0.34-0.78-0.78C31.98,5.04,32.33,4.69,32.75,4.69"/>
		</g>
		<path fill="none" stroke="#1D2132" stroke-width="0.1" stroke-linecap="square" stroke-miterlimit="10" d="M24.54,13.39V2.97
			c0-0.17,0.13-0.3,0.3-0.3h10.4c0.17,0,0.3,0.13,0.3,0.3v10.4c0,0.17-0.13,0.3-0.3,0.3h-10.4C24.67,13.67,24.54,13.53,24.54,13.39z
			"/>
	</g>
	<g>
		<g>
			<path fill="#FFFFFF" stroke="#1D2132" stroke-width="0.1" stroke-linecap="square" stroke-miterlimit="10" d="M29.16,19.23
				c0-0.1-0.11-0.18-0.22-0.18c-0.13,0-0.22,0.08-0.22,0.18s0.11,0.18,0.22,0.18C29.05,19.41,29.16,19.33,29.16,19.23z"/>
			
				<ellipse fill="#FFFFFF" stroke="#1D2132" stroke-width="0.1" stroke-linecap="square" stroke-miterlimit="10" cx="29.9" cy="19.23" rx="0.22" ry="0.18"/>
			<path fill="#FFFFFF" stroke="#1D2132" stroke-width="0.1" stroke-linecap="square" stroke-miterlimit="10" d="M34.08,19.23
				c0-0.1-0.11-0.18-0.22-0.18c-0.12,0-0.22,0.08-0.22,0.18s0.11,0.18,0.22,0.18C33.97,19.41,34.09,19.33,34.08,19.23z"/>
			<path fill="#FFFFFF" stroke="#1D2132" stroke-width="0.1" stroke-linecap="square" stroke-miterlimit="10" d="M34.06,19.23
				c0.51,0,0.92,0.11,0.92,0.24v0.62c0,0.14-0.41,0.24-0.92,0.24h-5.38c-0.51,0-0.92-0.11-0.92-0.24v-0.62
				c0-0.14,0.41-0.24,0.92-0.24H34.06z"/>
			
				<rect x="27.44" y="19.54" fill="#FFFFFF" stroke="#1D2132" stroke-width="0.1" stroke-linecap="square" stroke-miterlimit="10" width="8" height="5.39"/>
			<path fill="#FFFFFF" stroke="#1D2132" stroke-width="0.1" stroke-linecap="square" stroke-miterlimit="10" d="M34.06,19.84
				c0.51,0,0.91,0.88,0.91,1.97v0.88c0,1.08-0.41,1.97-0.91,1.97h-5.38c-0.51,0-0.91-0.88-0.91-1.97v-0.88
				c0-1.08,0.41-1.97,0.91-1.97H34.06z"/>
		</g>
		<g>
			<path fill="#FFFFFF" stroke="#1D2132" stroke-width="0.1" stroke-linecap="square" stroke-miterlimit="10" d="M33.95,24.02h-4.89
				c-0.11,0-0.18,0.08-0.18,0.18l0,0c0,0.11,0.08,0.18,0.18,0.18h4.89c0.11,0,0.18-0.08,0.18-0.18l0,0
				C34.14,24.1,34.06,24.02,33.95,24.02z"/>
			<g>
				
					<rect x="29.1" y="24.39" fill="#FFFFFF" stroke="#1D2132" stroke-width="0.1" stroke-linecap="square" stroke-miterlimit="10" width="0.31" height="0.83"/>
				
					<rect x="33.63" y="24.39" fill="#FFFFFF" stroke="#1D2132" stroke-width="0.1" stroke-linecap="square" stroke-miterlimit="10" width="0.31" height="0.83"/>
			</g>
			<g>
				
					<rect x="28.92" y="25.22" fill="#FFFFFF" stroke="#1D2132" stroke-width="0.1" stroke-linecap="square" stroke-miterlimit="10" width="0.66" height="0.16"/>
				
					<rect x="33.46" y="25.22" fill="#FFFFFF" stroke="#1D2132" stroke-width="0.1" stroke-linecap="square" stroke-miterlimit="10" width="0.66" height="0.16"/>
			</g>
		</g>
	</g>
</g>
<g id="Windows">
	<g id="Windows_4_1_">
		<path fill="#1D2132" d="M101.71,8.9h-4.12v24.47h4.12V8.9z M101.61,33.26H97.7V8.99h3.91V33.26L101.61,33.26z"/>
		<g>
			<rect x="99.65" y="9.55" fill="#1D2132" width="1.03" height="23.09"/>
			<rect x="99.74" y="9.55" fill="#FFFFFF" width="0.82" height="22.89"/>
			<line fill="none" stroke="#1D2132" stroke-width="0.1" stroke-miterlimit="10" x1="99.73" y1="29.1" x2="100.6" y2="29.1"/>
			<line fill="none" stroke="#1D2132" stroke-width="0.1" stroke-miterlimit="10" x1="99.74" y1="10.65" x2="100.61" y2="10.65"/>
			<line fill="none" stroke="#1D2132" stroke-width="0.1" stroke-miterlimit="10" x1="100.16" y1="20.59" x2="100.16" y2="10.64"/>
			<line fill="none" stroke="#1D2132" stroke-width="0.1" stroke-miterlimit="10" x1="100.16" y1="29.1" x2="100.16" y2="20.51"/>
		</g>
	</g>
</g>
<g id="Doors">
	
		<use xlink:href="#Doors_x5F_2"  width="9.8" height="7.14" id="XMLID_20" x="-4.9" y="-3.57" transform="matrix(6.455000e-11 1.4377 1.4377 -6.455000e-11 6.0152 34.3559)" overflow="visible"/>
	<g id="XMLID_19">
		<g>
			<g>
				<polygon fill="none" stroke="#1D2132" stroke-width="0.1" stroke-miterlimit="10" points="13.24,25.48 13.24,26.51 13.65,26.51 
					13.65,25.48 				"/>
				<polygon fill="none" stroke="#1D2132" stroke-width="0.1" stroke-miterlimit="10" points="24.49,25.48 24.49,26.51 24.06,26.51 
					24.06,25.48 				"/>
				<polyline fill="none" stroke="#1D2132" stroke-width="0.1" stroke-miterlimit="10" points="24.06,26.5 24.06,26.69 24.05,26.89 
					24.03,27.08 24.01,27.26 24,27.45 23.98,27.65 23.95,27.83 23.92,28.01 23.9,28.2 23.85,28.4 23.83,28.58 23.78,28.76 
					23.74,28.94 23.68,29.14 23.64,29.32 23.59,29.49 23.52,29.68 23.47,29.86 23.41,30.05 23.34,30.22 23.26,30.4 23.19,30.57 
					23.11,30.74 23.03,30.91 22.95,31.08 22.88,31.25 22.78,31.42 22.69,31.59 22.6,31.76 22.51,31.92 22.41,32.08 22.31,32.24 
					22.19,32.41 22.09,32.57 21.99,32.72 21.86,32.87 21.76,33.01 21.64,33.17 21.51,33.32 21.39,33.46 21.26,33.6 21.14,33.74 
					21.01,33.88 				"/>
				<polygon fill="none" stroke="#1D2132" stroke-width="0.1" stroke-miterlimit="10" points="14.02,26.25 21.26,33.6 21.01,33.88 
					13.72,26.55 				"/>
			</g>
		</g>
	</g>
</g>
<g id="Text">
	
		<text id="TXT---" transform="matrix(1 0 0 1 73.6391 34.8095)" opacity="0.7" fill="#1D2132" enable-background="new    " font-family="'Cannonade-Medium'" font-size="3px">20,88</text>
	
		<text id="TXT--" transform="matrix(1 0 0 1 29.015 34.395)" opacity="0.7" fill="#1D2132" enable-background="new    " font-family="'Cannonade-Medium'" font-size="3px">4,77</text>
	
		<text id="TXT--" transform="matrix(1 0 0 1 15.895 18.6297)" opacity="0.7" fill="#1D2132" enable-background="new    " font-family="'Cannonade-Medium'" font-size="3px">4,81</text>
</g>
<g id="Walls">
	<polygon fill="#1D2132" stroke="#1D2132" stroke-width="0.1" stroke-miterlimit="10" points="99.71,8.9 97.64,8.89 97.64,2.58 
		2.62,2.58 2.62,27.33 0.28,27.33 0.28,0.28 101.67,0.28 101.67,9.53 99.71,9.55 	"/>
	<polygon fill="#1D2132" stroke="#1D2132" stroke-width="0.1" stroke-miterlimit="10" points="101.67,49.28 101.67,30.24 
		99.69,30.24 99.69,30.95 97.64,30.95 97.64,47.21 2.62,47.21 2.62,41.37 0.28,41.37 0.28,49.28 	"/>
	<rect x="18.62" y="39.4" fill="#1D2132" stroke="#1D2132" stroke-width="0.1" stroke-miterlimit="10" width="1.04" height="7.81"/>
	<rect x="43.35" y="39.4" fill="#1D2132" stroke="#1D2132" stroke-width="0.1" stroke-miterlimit="10" width="1.04" height="7.81"/>
	<polygon fill="#1D2132" stroke="#1D2132" stroke-width="0.1" stroke-miterlimit="10" points="35.55,2.58 35.55,25.48 24.49,25.48 
		24.49,26.51 36.58,26.51 36.58,2.58 	"/>
	
		<rect x="2.62" y="25.47" fill="#1D2132" stroke="#1D2132" stroke-width="0.1" stroke-miterlimit="10" width="10.61" height="1.04"/>
</g>
<g id="Details">
	<g>
		
			<rect x="2.92" y="2.68" fill="#FFFFFF" stroke="#1D2132" stroke-width="0.1" stroke-linecap="square" stroke-miterlimit="10" width="2" height="2"/>
		<polygon fill="#1D2132" stroke="#1D2132" stroke-width="0.1" stroke-miterlimit="10" points="3.03,2.8 3.03,4.67 3.7,3.46 
			4.92,2.8 		"/>
	</g>
</g>
</svg>
