<?xml version="1.0" encoding="utf-8"?>
<!-- Generator: Adobe Illustrator 22.0.0, SVG Export Plug-In . SVG Version: 6.00 Build 0)  -->
<svg version="1.1" id="Layer_1" xmlns="http://www.w3.org/2000/svg" xmlns:xlink="http://www.w3.org/1999/xlink" x="0px" y="0px"
	 viewBox="0 0 100 52" enable-background="new 0 0 100 52" xml:space="preserve">
<symbol  id="Doors_x5F_2" viewBox="-4.9 -3.57 9.8 7.14">
	<g>
		<polygon fill="none" stroke="#1D2132" stroke-width="0.1" stroke-miterlimit="10" points="-4.49,-3.52 -4.49,-2.79 -4.85,-2.79 
			-4.85,-3.52 		"/>
		<polygon fill="none" stroke="#1D2132" stroke-width="0.1" stroke-miterlimit="10" points="4.49,-3.52 4.49,-2.79 4.85,-2.79 
			4.85,-3.52 		"/>
		<polyline fill="none" stroke="#1D2132" stroke-width="0.1" stroke-miterlimit="10" points="1.86,3.5 1.97,3.38 2.08,3.26 
			2.19,3.14 2.29,3.02 2.4,2.89 2.5,2.76 2.6,2.63 2.7,2.5 2.79,2.37 2.88,2.23 2.97,2.1 3.06,1.96 3.15,1.82 3.23,1.68 3.31,1.54 
			3.39,1.39 3.46,1.25 3.54,1.1 3.61,0.95 3.68,0.8 3.74,0.65 3.8,0.5 3.86,0.35 3.92,0.2 3.97,0.04 4.03,-0.11 4.08,-0.27 
			4.12,-0.42 4.17,-0.58 4.21,-0.74 4.25,-0.9 4.28,-1.06 4.31,-1.22 4.34,-1.38 4.37,-1.54 4.39,-1.7 4.42,-1.87 4.43,-2.03 
			4.45,-2.19 4.46,-2.35 4.47,-2.52 4.48,-2.68 4.48,-2.84 		"/>
		<polygon fill="none" stroke="#1D2132" stroke-width="0.1" stroke-miterlimit="10" points="-4.42,-2.81 1.86,3.5 2.08,3.26 
			-4.16,-3.06 		"/>
	</g>
</symbol>
<g id="Background">
	<rect x="2.66" y="2.37" opacity="0.1" fill="#1D2132" enable-background="new    " width="93.07" height="47.25"/>
</g>
<g id="Furniture">
	<g>
		
			<rect x="36.73" y="29.38" fill="#FFFFFF" stroke="#1D2132" stroke-width="0.1" stroke-linecap="square" stroke-miterlimit="22.9256" width="8.33" height="17.59"/>
		
			<rect x="36.73" y="29.37" fill="#FFFFFF" stroke="#1D2132" stroke-width="0.1" stroke-linecap="square" stroke-miterlimit="22.9256" width="8.33" height="6.48"/>
		
			<rect x="36.73" y="39.97" fill="#FFFFFF" stroke="#1D2132" stroke-width="0.1" stroke-linecap="square" stroke-miterlimit="22.9256" width="8.33" height="7.01"/>
		
			<rect x="36.73" y="24.06" fill="#FFFFFF" stroke="#1D2132" stroke-width="0.1" stroke-linecap="square" stroke-miterlimit="22.9256" width="8.33" height="5.32"/>
		<g>
			
				<line fill="none" stroke="#1D2132" stroke-width="0.1" stroke-linecap="square" stroke-miterlimit="22.9256" x1="41.94" y1="26.71" x2="39.86" y2="26.71"/>
			
				<line fill="none" stroke="#1D2132" stroke-width="0.1" stroke-linecap="square" stroke-miterlimit="22.9256" x1="41.63" y1="27.45" x2="40.16" y2="25.98"/>
			
				<line fill="none" stroke="#1D2132" stroke-width="0.1" stroke-linecap="square" stroke-miterlimit="22.9256" x1="40.89" y1="27.76" x2="40.89" y2="25.67"/>
			
				<line fill="none" stroke="#1D2132" stroke-width="0.1" stroke-linecap="square" stroke-miterlimit="22.9256" x1="40.16" y1="27.45" x2="41.63" y2="25.98"/>
		</g>
		<g>
			
				<rect x="37.08" y="30.13" fill="#FFFFFF" stroke="#1D2132" stroke-width="0.1" stroke-linecap="square" stroke-miterlimit="22.9256" width="7.64" height="4.86"/>
			<g>
				<path fill="#FFFFFF" stroke="#1D2132" stroke-width="0.1" stroke-linecap="square" stroke-miterlimit="22.9256" d="M42.64,33.9
					c0.73,0,1.33-0.6,1.33-1.33c0-0.74-0.59-1.33-1.33-1.33s-1.33,0.59-1.33,1.33C41.31,33.3,41.9,33.9,42.64,33.9"/>
				<path fill="#FFFFFF" stroke="#1D2132" stroke-width="0.1" stroke-linecap="square" stroke-miterlimit="22.9256" d="M38.87,33.9
					c0.74,0,1.33-0.6,1.33-1.33c0-0.74-0.59-1.33-1.33-1.33s-1.33,0.59-1.33,1.33C37.54,33.3,38.14,33.9,38.87,33.9"/>
				<path fill="#FFFFFF" stroke="#1D2132" stroke-width="0.1" stroke-linecap="square" stroke-miterlimit="22.9256" d="M42.64,33.63
					c0.58,0,1.06-0.48,1.06-1.06c0-0.58-0.48-1.06-1.06-1.06s-1.06,0.48-1.06,1.06C41.58,33.15,42.06,33.63,42.64,33.63"/>
				<path fill="#FFFFFF" stroke="#1D2132" stroke-width="0.1" stroke-linecap="square" stroke-miterlimit="22.9256" d="M38.87,33.63
					c0.59,0,1.06-0.48,1.06-1.06c0-0.58-0.48-1.06-1.06-1.06s-1.06,0.48-1.06,1.06C37.81,33.15,38.29,33.63,38.87,33.63"/>
			</g>
		</g>
		<g>
			<path fill="#FFFFFF" stroke="#1D2132" stroke-width="0.1" stroke-linecap="square" stroke-miterlimit="22.9256" d="M38.77,41.37
				h5.3c0.27,0,0.48,0.21,0.48,0.48v3.21c0,0.27-0.21,0.48-0.48,0.48h-5.3c-0.27,0-0.48-0.21-0.48-0.48v-3.21
				C38.29,41.58,38.5,41.37,38.77,41.37z"/>
			<g>
				<path fill="#FFFFFF" stroke="#1D2132" stroke-width="0.1" stroke-linecap="square" stroke-miterlimit="22.9256" d="M39.09,43.45
					c0-0.19,0.17-0.34,0.38-0.34c0.21,0,0.38,0.15,0.38,0.34s-0.17,0.34-0.38,0.34C39.26,43.8,39.09,43.64,39.09,43.45z"/>
				<g>
					<path fill="#FFFFFF" stroke="#1D2132" stroke-width="0.1" stroke-linecap="square" stroke-miterlimit="22.9256" d="
						M37.25,43.45c0-0.32,0.23-0.57,0.52-0.57s0.52,0.25,0.52,0.57c0,0.31-0.23,0.56-0.52,0.57C37.48,44.02,37.25,43.77,37.25,43.45
						z"/>
					<path fill="#FFFFFF" stroke="#1D2132" stroke-width="0.1" stroke-linecap="square" stroke-miterlimit="22.9256" d="
						M40.71,43.44c0,0.1-0.12,0.17-0.27,0.17l-2.71,0.01c-0.15,0-0.27-0.07-0.27-0.17l0,0c0-0.09,0.12-0.17,0.27-0.17l2.71-0.01
						C40.6,43.27,40.71,43.34,40.71,43.44L40.71,43.44z"/>
					<path fill="#FFFFFF" stroke="#1D2132" stroke-width="0.1" stroke-linecap="square" stroke-miterlimit="22.9256" d="
						M37.62,43.45c0-0.44,0.06-0.79,0.16-0.79c0.08,0,0.16,0.36,0.16,0.79c0,0.44-0.06,0.79-0.15,0.79
						C37.69,44.25,37.62,43.89,37.62,43.45z"/>
				</g>
			</g>
		</g>
	</g>
	<g>
		
			<rect x="19.79" y="2.22" transform="matrix(-1 -4.490154e-11 4.490154e-11 -1 63.8001 12.4456)" fill="#FFFFFF" stroke="#1D2132" stroke-width="0.1" stroke-linecap="square" stroke-miterlimit="10" width="24.23" height="8"/>
		<g>
			<path fill="#FFFFFF" stroke="#1D2132" stroke-width="0.1" stroke-linecap="square" stroke-miterlimit="10" d="M31.89,7.2
				c0.06,0,0.11,0.05,0.11,0.11v0.37c0,0.13-0.11,0.2-0.22,0.28c-0.15,0.1-0.33,0.22-0.37,0.49c-0.03,0.18,0.03,0.34,0.16,0.44
				c0.14,0.11,0.35,0.12,0.51,0.03c0.34-0.17,0.29-0.55,0.29-0.55c-0.01-0.06,0.03-0.12,0.1-0.13c0.06-0.01,0.12,0.03,0.13,0.1
				c0.03,0.18-0.02,0.59-0.41,0.78c-0.24,0.13-0.54,0.11-0.75-0.05c-0.2-0.15-0.3-0.39-0.25-0.66c0.06-0.36,0.31-0.53,0.47-0.64
				c0.05-0.03,0.11-0.07,0.12-0.09V7.31C31.78,7.25,31.83,7.2,31.89,7.2z M31.78,7.69L31.78,7.69L31.78,7.69z"/>
			<path fill="#FFFFFF" stroke="#1D2132" stroke-width="0.1" stroke-linecap="square" stroke-miterlimit="10" d="M28.06,4.71h7.67
				c0.29,0,0.61-0.07,0.68,0.21c0.07,0.28-0.05,0.56-0.31,0.69c-0.01,0-0.01,0.01-0.02,0.01l-3.51,1.66
				c-0.03,0.01-0.06,0.02-0.09,0.02h-1.18c-0.03,0-0.06-0.01-0.09-0.02l-3.51-1.66c-0.01,0-0.01-0.01-0.02-0.01
				c-0.25-0.13-0.38-0.41-0.31-0.69C27.46,4.64,27.78,4.71,28.06,4.71z M36.15,5.21c0.1-0.06,0.08-0.15,0.07-0.18
				C36.22,5,36.19,4.91,36.07,4.91h-8.34c-0.12,0-0.15,0.09-0.16,0.12c-0.01,0.03-0.02,0.12,0.07,0.18l3.71,1.06h1.09L36.15,5.21z"
				/>
		</g>
	</g>
	<g>
		<g>
			
				<rect x="74.34" y="-10.38" transform="matrix(4.481488e-11 -1 1 4.481488e-11 71.8941 82.1448)" fill="#FFFFFF" stroke="#1D2132" stroke-width="0.1" stroke-linecap="square" stroke-miterlimit="10" width="5.36" height="31.02"/>
			<g>
				<polygon fill="#FFFFFF" stroke="#1D2132" stroke-width="0.1" stroke-linecap="square" stroke-miterlimit="10" points="
					64.61,7.8 64.06,7.8 64.06,8.34 67.27,8.34 67.27,7.8 66.71,7.8 66.71,8.16 64.61,8.16 				"/>
				<polygon fill="#FFFFFF" stroke="#1D2132" stroke-width="0.1" stroke-linecap="square" stroke-miterlimit="10" points="
					87.33,7.8 86.77,7.8 86.77,8.34 89.98,8.34 89.98,7.8 89.42,7.8 89.42,8.16 87.33,8.16 				"/>
			</g>
			<g>
				<polygon fill="#FFFFFF" stroke="#1D2132" stroke-width="0.1" stroke-linecap="square" stroke-miterlimit="10" points="
					70.58,7.8 70.03,7.8 70.03,8.34 73.24,8.34 73.24,7.8 72.68,7.8 72.68,8.16 70.58,8.16 				"/>
				<polygon fill="#FFFFFF" stroke="#1D2132" stroke-width="0.1" stroke-linecap="square" stroke-miterlimit="10" points="
					81.36,7.8 80.8,7.8 80.8,8.34 84.01,8.34 84.01,7.8 83.46,7.8 83.46,8.16 81.36,8.16 				"/>
			</g>
		</g>
		<g>
			<path fill="#FFFFFF" stroke="#1D2132" stroke-width="0.1" stroke-linecap="square" stroke-miterlimit="10" d="M79.02,4.42v0.35
				c0,0.5-0.41,0.91-0.91,0.91h-2.17c-0.5,0-0.91-0.41-0.91-0.91V4.42c0-0.5,0.41-0.91,0.91-0.91h2.17
				C78.61,3.51,79.02,3.91,79.02,4.42z"/>
			<path fill="#FFFFFF" stroke="#1D2132" stroke-width="0.1" stroke-linecap="square" stroke-miterlimit="10" d="M78.28,4.78v0.11
				c0,0.22-0.18,0.39-0.39,0.39h-1.73c-0.22,0-0.39-0.18-0.39-0.39V4.78c0-0.22,0.18-0.39,0.39-0.39h1.73
				C78.1,4.38,78.28,4.56,78.28,4.78z"/>
			
				<rect x="76.93" y="-1.86" transform="matrix(4.973983e-11 -1 1 4.973983e-11 71.8276 82.2113)" fill="#FFFFFF" stroke="#1D2132" stroke-width="0.1" stroke-linecap="square" stroke-miterlimit="10" width="0.18" height="14.1"/>
			<polygon fill="#FFFFFF" stroke="#1D2132" stroke-width="0.1" stroke-linecap="square" stroke-miterlimit="10" points="
				82.03,4.73 84.07,5.1 69.97,5.1 72.01,4.73 			"/>
		</g>
	</g>
	<g>
		<g>
			<path fill="#FFFFFF" stroke="#1D2132" stroke-width="0.1" stroke-linecap="square" stroke-miterlimit="10" d="M55.48,36.65
				c0.14,0.58,0.12,1.32,0.11,1.79c0,0.48,0.03,1.22-0.11,1.79c-0.14,0.59-0.45,0.84-1.46,0.76c-1.01-0.08-3.47-0.24-3.98-0.43
				c-0.45-0.17-0.48-0.97-0.48-2.12c0-1.15,0.03-1.94,0.47-2.12c0.5-0.2,2.97-0.35,3.98-0.44C55.03,35.81,55.34,36.06,55.48,36.65z
				 M50.87,37.74c-0.04,0.05-0.07,0.35-0.07,0.7c0,0.35,0.03,0.64,0.07,0.7c0.04,0.06,0.15,0.07,0.23,0.08
				c0.09,0-0.03-0.2-0.03-0.77c0-0.58,0.13-0.78,0.03-0.77C51.02,37.67,50.91,37.68,50.87,37.74z"/>
			<path fill="#FFFFFF" stroke="#1D2132" stroke-width="0.1" stroke-linecap="square" stroke-miterlimit="10" d="M55.49,36.65
				c0.13,0.58,0.11,1.32,0.11,1.79c0,0.48,0.03,1.22-0.11,1.79c-0.14,0.59-0.44,0.84-1.42,0.76c-0.98-0.08-3.37-0.24-3.86-0.43
				c-0.43-0.17-0.46-0.97-0.46-2.12c0-1.15,0.02-1.94,0.46-2.12c0.49-0.2,2.88-0.35,3.86-0.44C55.05,35.81,55.35,36.06,55.49,36.65z
				 M51,37.74c-0.04,0.05-0.07,0.35-0.07,0.7c0,0.35,0.03,0.64,0.07,0.7c0.04,0.06,0.15,0.07,0.23,0.08c0.09,0-0.03-0.2-0.03-0.77
				c0-0.58,0.12-0.78,0.03-0.77C51.15,37.67,51.04,37.68,51,37.74z"/>
			<path fill="#FFFFFF" stroke="#1D2132" stroke-width="0.1" stroke-linecap="square" stroke-miterlimit="10" d="M54.38,40.8
				c-0.78-0.08-1.85-0.05-2.24-0.23c-0.35-0.16-0.68-1.06-0.68-2.13c0-1.06,0.33-1.97,0.67-2.13c0.39-0.18,1.46-0.16,2.24-0.24
				c0.78-0.08,1.02,0.15,1.13,0.7c0.11,0.53,0.09,1.22,0.09,1.66c0,0.44,0.02,1.13-0.09,1.66C55.4,40.65,55.16,40.88,54.38,40.8z"/>
		</g>
		<g>
			<path fill="#FFFFFF" stroke="#1D2132" stroke-width="0.1" stroke-linecap="square" stroke-miterlimit="10" d="M55.94,30.01
				c-0.04,0.59-0.29,1.29-0.44,1.74c-0.15,0.46-0.35,1.17-0.66,1.67c-0.31,0.52-0.68,0.66-1.62,0.27c-0.94-0.39-3.23-1.29-3.65-1.63
				c-0.37-0.3-0.16-1.07,0.2-2.16c0.35-1.09,0.62-1.84,1.1-1.87c0.54-0.03,2.93,0.58,3.92,0.8C55.77,29.07,55.99,29.41,55.94,30.01z
				 M51.22,29.64c-0.05,0.04-0.17,0.31-0.28,0.64c-0.11,0.33-0.17,0.62-0.15,0.69c0.02,0.07,0.12,0.12,0.2,0.14
				c0.08,0.03,0.04-0.2,0.21-0.75c0.18-0.55,0.36-0.7,0.26-0.73C51.38,29.61,51.27,29.59,51.22,29.64z"/>
			<path fill="#FFFFFF" stroke="#1D2132" stroke-width="0.1" stroke-linecap="square" stroke-miterlimit="10" d="M55.95,30.01
				c-0.05,0.59-0.3,1.29-0.44,1.74c-0.15,0.46-0.35,1.17-0.65,1.67c-0.31,0.52-0.67,0.67-1.58,0.29c-0.91-0.38-3.14-1.26-3.55-1.59
				c-0.36-0.3-0.14-1.06,0.21-2.16c0.35-1.09,0.62-1.84,1.09-1.87c0.53-0.04,2.85,0.55,3.81,0.77C55.79,29.08,56,29.41,55.95,30.01z
				 M51.35,29.68c-0.05,0.04-0.17,0.31-0.28,0.64c-0.11,0.33-0.17,0.62-0.15,0.69c0.02,0.07,0.12,0.12,0.19,0.14
				c0.08,0.03,0.04-0.2,0.21-0.75c0.18-0.55,0.36-0.7,0.26-0.73C51.51,29.65,51.4,29.64,51.35,29.68z"/>
			<path fill="#FFFFFF" stroke="#1D2132" stroke-width="0.1" stroke-linecap="square" stroke-miterlimit="10" d="M53.62,33.63
				c-0.72-0.31-1.74-0.61-2.06-0.91c-0.28-0.26-0.32-1.22,0.01-2.23c0.33-1.01,0.91-1.77,1.29-1.82c0.43-0.05,1.43,0.3,2.2,0.46
				c0.77,0.17,0.92,0.46,0.86,1.01c-0.06,0.54-0.29,1.19-0.42,1.61c-0.14,0.42-0.33,1.08-0.59,1.56
				C54.64,33.79,54.34,33.94,53.62,33.63z"/>
		</g>
		
			<rect x="44.72" y="31.66" transform="matrix(4.490015e-11 -1 1 4.490015e-11 23.5089 91.7822)" fill="#FFFFFF" stroke="#1D2132" stroke-width="0.1" stroke-linecap="square" stroke-miterlimit="10" width="25.85" height="4.95"/>
	</g>
	<g>
		<path fill="#FFFFFF" stroke="#1D2132" stroke-width="0.1" stroke-linecap="square" stroke-miterlimit="10" d="M53.46,3.56
			C52.7,3.48,51.11,4.01,51,5.16c-0.05,0.57-0.41,0.81-0.8,2.31c-0.17,0.66-0.57,1.76,0.06,3.01c0.63,1.25,2.13,2.19,5.07,1.3
			c2.94-0.89,3.69-3.52,2.75-4.95s-1.94-1.55-2.57-2.07C54.89,4.25,54.84,3.71,53.46,3.56z"/>
		<path fill="none" stroke="#1D2132" stroke-width="0.1" stroke-linecap="square" stroke-miterlimit="10" d="M50.26,10.49
			c0,0-0.3-1.14-0.1-1.74c0.41-1.21,0.12-1.06,0.76-2.51c0.19-0.44,0.53-0.37,0.54-0.47c0.01-0.1,0.16-0.73,0.83-1
			s1.18-0.46,1.93-0.29c0.46,0.11,0.78,0.4,0.81,0.55c0.06,0.26,0.22,0.06,0.98,0.39c1.07,0.47,1.26,0.76,1.68,1.33
			c0.42,0.57,0.61,0.66,0.68,1.27c0.07,0.61-0.06,1.11-0.06,1.11"/>
		<path fill="none" stroke="#1D2132" stroke-width="0.1" stroke-linecap="square" stroke-miterlimit="10" d="M51.38,8.97
			c0,0,0.67,0.03,0.82-0.32c0.15-0.35,0.29-0.55,0.35-0.66c0.06-0.1,0.06-0.1,0.06-0.1s-0.17-0.63-0.38-1.02
			c-0.21-0.39-0.3-0.45-0.3-0.45"/>
		<path fill="none" stroke="#1D2132" stroke-width="0.1" stroke-linecap="square" stroke-miterlimit="10" d="M52.61,7.88
			c0,0,0.46-0.08,1.1-0.21s1.32-0.5,1.32-0.5s-0.04-0.49-0.06-0.95s0.05-0.69,0.05-0.69"/>
		<path fill="none" stroke="#1D2132" stroke-width="0.1" stroke-linecap="square" stroke-miterlimit="10" d="M57.03,7.36
			c0,0-0.3,0.48-0.6,0.64s-0.46,0.1-0.84-0.22c-0.38-0.32-0.57-0.62-0.57-0.62"/>
		<path fill="none" stroke="#1D2132" stroke-width="0.1" stroke-linecap="square" stroke-miterlimit="10" d="M52.57,10.03
			c0,0,0.88,0.25,1.34,0.16c0.47-0.09,0.47-0.09,0.47-0.09s0.08,0.06,0.15,0.28c0.07,0.22,0.06,0.38,0.06,0.38"/>
		<path fill="none" stroke="#1D2132" stroke-width="0.1" stroke-linecap="square" stroke-miterlimit="10" d="M54.38,10.1
			c0,0,0.41-0.27,0.79-0.36s0.75-0.33,0.85-0.48c0.1-0.15,0.1-0.15,0.1-0.15s0.22-0.02,0.37,0.12"/>
		<path fill="none" stroke="#1D2132" stroke-width="0.1" stroke-linecap="square" stroke-miterlimit="10" d="M52.57,10.03
			c0,0-0.19,0.25-0.18,0.41s0.06,0.31,0.06,0.31"/>
		<path fill="#FFFFFF" stroke="#1D2132" stroke-width="0.1" stroke-linecap="square" stroke-miterlimit="10" d="M52.13,5.08
			c0,0,0.1-0.04,0.06-0.08c-0.07-0.08-0.1-0.28-0.02-0.33c0.14-0.09,0.34-0.08,0.58-0.19c0.24-0.1,0.39-0.3,0.57-0.23
			c0.11,0.04,0.06,0.32,0.1,0.36c0.02,0.03,0.13-0.02,0.13-0.02l-0.11-0.42c0,0-0.16-0.2-0.43-0.11c-0.26,0.09-0.44,0.12-0.68,0.22
			c-0.24,0.1-0.44,0.15-0.41,0.4C51.96,4.94,52.13,5.08,52.13,5.08z"/>
	</g>
	<g>
		<path fill="#FFFFFF" stroke="#1D2132" stroke-width="0.1" stroke-linecap="square" stroke-miterlimit="10" d="M6.36,8.67
			c0.7-0.11,1.47-0.11,2.28,0c0.65,0,1.18,0.53,1.18,1.18c0.25,1.4,0.39,2.89,0,4.8c0,0.65-0.53,1.18-1.18,1.18
			c-0.76,0.18-1.52,0.18-2.28,0c-0.65,0-1.18-0.53-1.18-1.18c-0.23-1.56-0.18-3.17,0-4.8C5.18,9.2,5.7,8.67,6.36,8.67z"/>
		<g>
			<path fill="#FFFFFF" stroke="#1D2132" stroke-width="0.1" stroke-linecap="square" stroke-miterlimit="10" d="M9.57,14.9
				c0,0.36-0.32,0.66-0.71,0.66"/>
			<path fill="#FFFFFF" stroke="#1D2132" stroke-width="0.1" stroke-linecap="square" stroke-miterlimit="10" d="M8.86,8.95
				c0.39,0,0.71,0.3,0.71,0.66"/>
			<path fill="#FFFFFF" stroke="#1D2132" stroke-width="0.1" stroke-linecap="square" stroke-miterlimit="10" d="M5.42,9.6
				c0-0.36,0.32-0.66,0.71-0.66"/>
			<path fill="#FFFFFF" stroke="#1D2132" stroke-width="0.1" stroke-linecap="square" stroke-miterlimit="10" d="M6.14,15.56
				c-0.39,0-0.71-0.3-0.71-0.66"/>
		</g>
	</g>
	<g>
		<g>
			
				<rect x="3.36" y="8.78" transform="matrix(-1 -6.732014e-07 6.732014e-07 -1 7.3465 25.0644)" fill="#FFFFFF" stroke="#1D2132" stroke-width="0.1" stroke-linecap="square" stroke-miterlimit="10" width="0.63" height="7.5"/>
			
				<rect x="3.61" y="9.2" transform="matrix(-1 -6.732122e-07 6.732122e-07 -1 7.5994 25.0644)" fill="#FFFFFF" stroke="#1D2132" stroke-width="0.1" stroke-linecap="square" stroke-miterlimit="10" width="0.37" height="6.67"/>
		</g>
		
			<rect x="3.36" y="16.28" transform="matrix(-1 -6.732102e-07 6.732102e-07 -1 7.3465 37.566)" fill="#FFFFFF" stroke="#1D2132" stroke-width="0.1" stroke-linecap="square" stroke-miterlimit="10" width="0.63" height="5"/>
		<g>
			
				<rect x="3.99" y="20.65" fill="#FFFFFF" stroke="#1D2132" stroke-width="0.1" stroke-linecap="square" stroke-miterlimit="10" width="0.95" height="0.28"/>
			
				<rect x="3.99" y="20.65" fill="#FFFFFF" stroke="#1D2132" stroke-width="0.1" stroke-linecap="square" stroke-miterlimit="10" width="0.18" height="0.28"/>
		</g>
		<g>
			
				<rect x="3.99" y="19.31" fill="#FFFFFF" stroke="#1D2132" stroke-width="0.1" stroke-linecap="square" stroke-miterlimit="10" width="0.95" height="0.28"/>
			
				<rect x="3.99" y="19.31" fill="#FFFFFF" stroke="#1D2132" stroke-width="0.1" stroke-linecap="square" stroke-miterlimit="10" width="0.18" height="0.28"/>
		</g>
		<g>
			
				<rect x="3.99" y="17.98" fill="#FFFFFF" stroke="#1D2132" stroke-width="0.1" stroke-linecap="square" stroke-miterlimit="10" width="0.95" height="0.28"/>
			
				<rect x="3.99" y="17.98" fill="#FFFFFF" stroke="#1D2132" stroke-width="0.1" stroke-linecap="square" stroke-miterlimit="10" width="0.18" height="0.28"/>
		</g>
		<g>
			
				<rect x="3.99" y="16.64" fill="#FFFFFF" stroke="#1D2132" stroke-width="0.1" stroke-linecap="square" stroke-miterlimit="10" width="0.95" height="0.28"/>
			
				<rect x="3.99" y="16.64" fill="#FFFFFF" stroke="#1D2132" stroke-width="0.1" stroke-linecap="square" stroke-miterlimit="10" width="0.18" height="0.28"/>
		</g>
	</g>
	<g>
		
			<circle fill="#FFFFFF" stroke="#1D2132" stroke-width="0.1" stroke-linecap="square" stroke-miterlimit="22.9256" cx="47.58" cy="5.37" r="1.53"/>
		
			<circle fill="#FFFFFF" stroke="#1D2132" stroke-width="0.1" stroke-linecap="square" stroke-miterlimit="22.9256" cx="47.58" cy="5.37" r="0.32"/>
		<path fill="#FFFFFF" stroke="#1D2132" stroke-width="0.1" stroke-linecap="square" stroke-miterlimit="22.9256" d="M48.73,10.71
			c0.15,0.34,0.74,0.4,1.32,0.14s0.92-0.74,0.77-1.08l0,0c-0.3-0.69-0.66-1.07-1.28-1.62l-1.16,0.52
			C48.34,9.52,48.39,10.04,48.73,10.71z"/>
		<path fill="#FFFFFF" stroke="#1D2132" stroke-width="0.1" stroke-linecap="square" stroke-miterlimit="22.9256" d="M49.1,8.76
			c0.32-0.14,0.51-0.41,0.43-0.6l-0.19-0.42l-1.16,0.52l0.19,0.42C48.45,8.87,48.78,8.9,49.1,8.76z"/>
		
			<ellipse transform="matrix(0.9125 -0.4092 0.4092 0.9125 0.9956 20.6526)" fill="#FFFFFF" stroke="#1D2132" stroke-width="0.1" stroke-linecap="square" stroke-miterlimit="22.9256" cx="48.76" cy="8" rx="0.64" ry="0.37"/>
		<path fill="#FFFFFF" stroke="#1D2132" stroke-width="0.1" stroke-linecap="square" stroke-miterlimit="22.9256" d="M47.54,5.27
			L47.54,5.27c0.06-0.03,0.13,0,0.15,0.06l0.71,1.58c0.03,0.06,0,0.13-0.06,0.15l0,0c-0.06,0.03-0.13,0-0.15-0.06l-0.71-1.58
			C47.46,5.36,47.48,5.3,47.54,5.27z"/>
		<path fill="#FFFFFF" stroke="#1D2132" stroke-width="0.1" stroke-linecap="square" stroke-miterlimit="22.9256" d="M47.94,6.16
			L47.94,6.16c0.06-0.03,0.13,0,0.15,0.06L48.8,7.8c0.03,0.06,0,0.13-0.06,0.15l0,0c-0.06,0.03-0.13,0-0.15-0.06l-0.71-1.58
			C47.86,6.26,47.88,6.19,47.94,6.16z"/>
	</g>
	<g>
		<g>
			<g>
				
					<rect x="66.72" y="19.75" fill="#FFFFFF" stroke="#1D2132" stroke-width="0.1" stroke-linecap="square" stroke-miterlimit="22.9256" width="22.58" height="26.06"/>
				<path fill="#FFFFFF" stroke="#1D2132" stroke-width="0.1" stroke-linecap="square" stroke-miterlimit="22.9256" d="M66.98,44.08
					c0,0-0.05-0.62,0-1.21c0.08-1,0.13-1.62,0.13-2.65c0-1.02-0.14-1.12-0.02-1.28c0.12-0.16,0.14-0.39,0-0.64
					c-0.14-0.26-0.03-1.69-0.03-2.68c0-0.99-0.11-2.55-0.07-3.41c0.04-0.86,0.16-0.54,0.3-0.6c0.14-0.06-0.11-0.77-0.24-0.89
					c-0.12-0.13-0.07-0.68-0.08-2.56c-0.02-1.88,0.13-4.42,0.09-5.42c-0.02-0.62,0-0.98,0.03-1.14c0.07-0.38-0.01-0.22-0.01-0.64
					c0.01-0.48,0.28,0.62,0.16,0.01c-0.08-0.41-0.25-0.82-0.13-0.72c0.12,0.1,0.34,0.5,0.41,0.56c0.07,0.06,0.28,0.39,0.21,0.14
					c-0.07-0.26-0.82-0.82-0.63-0.85c0.22-0.04,0.92-0.06,2.61-0.06c1.67,0,13.18,0,13.27,0.16c0.09,0.16,0.09,0.1,0.19,0
					c0.11-0.1,2.14,0.03,2.54-0.1c0.4-0.13,1.02-0.1,1.1,0.06c0.09,0.16,0.07,0.19,0.16,0.06c0.09-0.13,0.81-0.16,1.17-0.16
					c0.55,0,0.74-0.21,0.49,0.21c-0.25,0.42-0.22,0.73-0.06,0.48c0.16-0.26,0.2-0.6,0.31-0.67c0.11-0.06,0.08-0.3,0.1,0.37
					c0.02,0.67,0.12,5.53,0.08,6.8c-0.04,1.28,0.01,2.27-0.03,2.45c-0.11,0.5,0.07,1.19,0.03,2.29c-0.05,1.38-0.04,3.53-0.06,5.1
					c-0.02,1.57-0.02,2.01,0,3.16c0.02,1.15-0.24,1.58-0.11,1.95c0.24,0.72,0.03,1.02-0.01,1.57c-0.04,0.54,0.09,1.35,0.07,1.63
					c-0.02,0.22-0.39-0.61-0.54-0.48c-0.15,0.13,0.66,0.51,0.36,0.59c-0.3,0.08-4.15-0.08-4.45,0c-0.3,0.08-0.22,0-0.22,0
					s-0.89,0-1.54,0c-0.65,0-14.5,0-14.85,0c-0.35,0-0.7-0.07-0.35-0.21c0.35-0.14-0.36,0.03-0.38-0.25
					C66.96,44.77,67.1,44.35,66.98,44.08z"/>
				<path fill="#FFFFFF" stroke="#1D2132" stroke-width="0.1" stroke-linecap="square" stroke-miterlimit="22.9256" d="M66.67,38.86
					c-0.1-0.74-0.04-4.3,0.05-4.3s-0.24,1.22,0.39,1.93c0.62,0.71,1.31,1.22,1.12,1c-0.18-0.23-0.2-0.26-0.4-0.42
					c-0.2-0.16-0.4-0.22-0.29-0.29c0.11-0.06,0.79,0.11,1.37,0.29c0.75,0.23,2.65,0,3.49-0.06c2.16-0.15,14.26-0.53,15.6-1.5
					c1.34-0.96,1.22-1.12,1.3-1.44c0.07-0.32-0.07-1.31,0.05-0.81c0.12,0.49,0.02,1.51,0.11,2.49c0.09,1,0.2,1.32,0.06,1.38
					c-0.15,0.06-1.79,0.96-1.56,0.81c0.06-0.04,1.46-0.68,1.57-0.65c0.11,0.03,0.03,0.34,0,0.71c-0.04,0.48-0.04,0.48-0.09,0.48
					c-0.24,0-0.98,0.08-1.88,0.05c-0.9-0.03-0.11,0.19,0.39,0.06c0.5-0.13,0.06,0.13-0.86,0.39c-0.92,0.26-14.39-0.28-15.05-0.06
					c-0.66,0.23-2.9,0.51-3.73,0.13C67.48,38.68,66.75,39.41,66.67,38.86z"/>
				<g>
					<path fill="#FFFFFF" stroke="#1D2132" stroke-width="0.1" stroke-linecap="square" stroke-miterlimit="22.9256" d="
						M79.16,45.68c-0.35,0-0.26-0.06-0.18-0.16c0.09-0.11,0.13-0.27,0-0.98c-0.13-0.71-0.17-1.25,0.04-1.93
						c0.22-0.68,0.1-0.77,0.01-0.94c-0.09-0.18-0.04-0.32,0.22-0.18c0.26,0.14,1.01-0.06,1.63-0.09c2.38-0.11,3.43-0.01,5.09,0.08
						c0.36,0.02,0.66,0.13,0.83,0.1c0.17-0.04,0.39,0.04,0.26,0.14c-0.13,0.11,0.17,1.28,0.09,2.14c-0.09,0.86-0.04,1.34,0.01,1.45
						c0.04,0.11-0.09,0.43-0.26,0.29c-0.17-0.14-0.87,0.08-1.22,0.11c-0.35,0.04-1.09,0.14-2.95,0.11
						c-1.86-0.04-2.67-0.02-2.98-0.13C79.45,45.57,79.25,45.68,79.16,45.68z"/>
					<path fill="none" stroke="#1D2132" stroke-width="0.1" stroke-linecap="square" stroke-miterlimit="22.9256" d="M79.49,41.95
						c0,0,1.42-0.48,3.54-0.48c2.12,0,3.66,0.66,3.66,0.66"/>
				</g>
				<g>
					<path fill="#FFFFFF" stroke="#1D2132" stroke-width="0.1" stroke-linecap="square" stroke-miterlimit="22.9256" d="
						M80.22,43.39c-0.25,0-0.19-0.05-0.13-0.13c0.06-0.09,0.09-0.22,0-0.79c-0.09-0.58-0.13-1.01,0.03-1.56
						c0.16-0.55,0.07-0.62,0.01-0.76c-0.06-0.14-0.03-0.26,0.16-0.14c0.19,0.11,0.74-0.05,1.18-0.07c1.73-0.09,2.49,0,3.7,0.06
						c0.26,0.01,0.48,0.11,0.6,0.08c0.13-0.03,0.28,0.03,0.19,0.12c-0.09,0.09,0.13,1.04,0.06,1.73C85.96,42.6,86,43,86.03,43.08
						c0.03,0.09-0.06,0.35-0.19,0.23c-0.13-0.12-0.63,0.06-0.88,0.09c-0.25,0.03-0.79,0.12-2.14,0.09c-1.35-0.03-1.94-0.02-2.16-0.1
						C80.43,43.3,80.28,43.39,80.22,43.39z"/>
					<path fill="none" stroke="#1D2132" stroke-width="0.1" stroke-linecap="square" stroke-miterlimit="22.9256" d="M80.45,40.37
						c0,0,1.03-0.39,2.57-0.39c1.54,0,2.66,0.54,2.66,0.54"/>
				</g>
				<g>
					<path fill="#FFFFFF" stroke="#1D2132" stroke-width="0.1" stroke-linecap="square" stroke-miterlimit="22.9256" d="
						M69.27,45.68c-0.35,0-0.26-0.06-0.18-0.16c0.09-0.11,0.13-0.27,0-0.98c-0.13-0.71-0.17-1.25,0.04-1.93
						c0.22-0.68,0.1-0.77,0.01-0.94c-0.09-0.18-0.04-0.32,0.22-0.18c0.26,0.14,1.01-0.06,1.63-0.09c2.38-0.11,3.43-0.01,5.09,0.08
						c0.36,0.02,0.66,0.13,0.83,0.1c0.17-0.04,0.39,0.04,0.26,0.14c-0.13,0.11,0.17,1.28,0.09,2.14c-0.09,0.86-0.04,1.34,0.01,1.45
						c0.04,0.11-0.09,0.43-0.26,0.29c-0.17-0.14-0.87,0.08-1.22,0.11c-0.35,0.04-1.09,0.14-2.95,0.11
						c-1.86-0.04-2.67-0.02-2.98-0.13C69.56,45.57,69.36,45.68,69.27,45.68z"/>
					<path fill="none" stroke="#1D2132" stroke-width="0.1" stroke-linecap="square" stroke-miterlimit="22.9256" d="M69.6,41.95
						c0,0,1.42-0.48,3.54-0.48c2.12,0,3.66,0.66,3.66,0.66"/>
				</g>
				<g>
					<path fill="#FFFFFF" stroke="#1D2132" stroke-width="0.1" stroke-linecap="square" stroke-miterlimit="22.9256" d="
						M70.33,43.39c-0.25,0-0.19-0.05-0.13-0.13c0.06-0.09,0.09-0.22,0-0.79c-0.09-0.58-0.13-1.01,0.03-1.56
						c0.16-0.55,0.07-0.62,0.01-0.76c-0.06-0.14-0.03-0.26,0.16-0.14c0.19,0.11,0.74-0.05,1.18-0.07c1.73-0.09,2.49,0,3.7,0.06
						c0.26,0.01,0.48,0.11,0.6,0.08c0.13-0.03,0.28,0.03,0.19,0.12c-0.09,0.09,0.13,1.04,0.06,1.73c-0.06,0.69-0.03,1.09,0.01,1.17
						c0.03,0.09-0.06,0.35-0.19,0.23c-0.13-0.12-0.63,0.06-0.88,0.09c-0.25,0.03-0.79,0.12-2.14,0.09c-1.35-0.03-1.94-0.02-2.16-0.1
						C70.54,43.3,70.39,43.39,70.33,43.39z"/>
					<path fill="none" stroke="#1D2132" stroke-width="0.1" stroke-linecap="square" stroke-miterlimit="22.9256" d="M70.56,40.37
						c0,0,1.03-0.39,2.57-0.39c1.54,0,2.66,0.54,2.66,0.54"/>
				</g>
				<path fill="#FFFFFF" stroke="#1D2132" stroke-width="0.1" stroke-linecap="square" stroke-miterlimit="22.9256" d="M88.8,19.98
					H67.07c-0.35,0-0.62,0.28-0.62,0.62v7.89c0,0.35,0.28,0.62,0.62,0.62H88.8c0.35,0,0.62-0.28,0.62-0.62v-7.89
					C89.42,20.26,89.14,19.98,88.8,19.98z"/>
			</g>
			<g>
				
					<rect x="62.96" y="46.29" fill="#FFFFFF" stroke="#1D2132" stroke-width="0.1" stroke-linecap="square" stroke-miterlimit="22.9256" width="30.11" height="0.63"/>
				<path fill="#FFFFFF" stroke="#1D2132" stroke-width="0.1" stroke-linecap="square" stroke-miterlimit="22.9256" d="M92.34,45.81
					H63.7c-0.26,0-0.47,0.21-0.47,0.47v0.01h29.58v-0.01C92.81,46.02,92.6,45.81,92.34,45.81z"/>
				<g>
					<g>
						<g>
							<path fill="#FFFFFF" stroke="#1D2132" stroke-width="0.1" stroke-linecap="square" stroke-miterlimit="22.9256" d="
								M92.07,46.29h-0.95v-0.12c0-0.26,0.21-0.47,0.47-0.47h0.01c0.26,0,0.47,0.21,0.47,0.47V46.29z"/>
							<path fill="#FFFFFF" stroke="#1D2132" stroke-width="0.1" stroke-linecap="square" stroke-miterlimit="22.9256" d="
								M88.6,42.77l0.71-0.17c0.04-0.4,0.02-0.8-0.06-1.2l0,0c-0.02-0.1-0.3-0.13-0.62-0.05c-0.32,0.08-0.55,0.22-0.53,0.32l0,0
								C88.21,42.06,88.37,42.42,88.6,42.77z"/>
							
								<ellipse transform="matrix(0.9728 -0.2315 0.2315 0.9728 -7.4661 21.7539)" fill="#FFFFFF" stroke="#1D2132" stroke-width="0.1" stroke-linecap="square" stroke-miterlimit="22.9256" cx="88.96" cy="42.69" rx="0.37" ry="0.12"/>
							<path fill="#FFFFFF" stroke="#1D2132" stroke-width="0.1" stroke-linecap="square" stroke-miterlimit="22.9256" d="
								M89.05,42.73l0.03,0.07c0,0,0.16,0.4,0.75,0.69c0.11,0.06,0.23,0.11,0.36,0.16c0.38,0.16,0.8,0.34,1.09,0.7
								c0.38,0.48,0.38,1.23,0.38,1.27l0,0.08l-0.16,0l0-0.08c0-0.01,0-0.73-0.34-1.17c-0.26-0.33-0.65-0.49-1.02-0.65
								c-0.13-0.05-0.25-0.11-0.37-0.16c-0.64-0.32-0.82-0.76-0.82-0.78l-0.03-0.07C88.91,42.75,89,42.72,89.05,42.73z"/>
						</g>
					</g>
					<g>
						<g>
							<path fill="#FFFFFF" stroke="#1D2132" stroke-width="0.1" stroke-linecap="square" stroke-miterlimit="22.9256" d="
								M63.97,46.29h0.95v-0.12c0-0.26-0.21-0.47-0.47-0.47h-0.01c-0.26,0-0.47,0.21-0.47,0.47V46.29z"/>
							<path fill="#FFFFFF" stroke="#1D2132" stroke-width="0.1" stroke-linecap="square" stroke-miterlimit="22.9256" d="
								M67.44,42.77l-0.71-0.17c-0.04-0.4-0.02-0.8,0.06-1.2l0,0c0.02-0.1,0.3-0.13,0.62-0.05c0.32,0.08,0.55,0.22,0.53,0.32l0,0
								C67.83,42.06,67.67,42.42,67.44,42.77z"/>
							
								<ellipse transform="matrix(0.2315 -0.9728 0.9728 0.2315 10.0219 98.0649)" fill="#FFFFFF" stroke="#1D2132" stroke-width="0.1" stroke-linecap="square" stroke-miterlimit="22.9256" cx="67.08" cy="42.69" rx="0.12" ry="0.37"/>
							<path fill="#FFFFFF" stroke="#1D2132" stroke-width="0.1" stroke-linecap="square" stroke-miterlimit="22.9256" d="
								M66.99,42.73l-0.03,0.07c0,0-0.16,0.4-0.75,0.69c-0.11,0.06-0.23,0.11-0.36,0.16c-0.38,0.16-0.8,0.34-1.09,0.7
								c-0.38,0.48-0.38,1.23-0.38,1.27l0,0.08l0.16,0l0-0.08c0-0.01,0-0.73,0.34-1.17c0.26-0.33,0.65-0.49,1.02-0.65
								c0.13-0.05,0.25-0.11,0.37-0.16c0.64-0.32,0.82-0.76,0.82-0.78l0.03-0.07C67.13,42.75,67.04,42.72,66.99,42.73z"/>
						</g>
					</g>
				</g>
			</g>
		</g>
	</g>
	<g>
		<g>
			
				<rect x="90.27" y="19.89" transform="matrix(-8.984653e-11 1 -1 -8.984653e-11 115.5364 -75.0136)" fill="#FFFFFF" stroke="#1D2132" stroke-width="0.1" stroke-linecap="square" stroke-miterlimit="10" width="10" height="0.75"/>
			
				<line fill="none" stroke="#1D2132" stroke-width="0.1" stroke-linecap="square" stroke-miterlimit="10" x1="95.5" y1="16.05" x2="95.05" y2="16.05"/>
			
				<line fill="none" stroke="#1D2132" stroke-width="0.1" stroke-linecap="square" stroke-miterlimit="10" x1="95.5" y1="16.32" x2="95.05" y2="16.32"/>
			
				<line fill="none" stroke="#1D2132" stroke-width="0.1" stroke-linecap="square" stroke-miterlimit="10" x1="95.5" y1="15.51" x2="95.05" y2="15.51"/>
			
				<line fill="none" stroke="#1D2132" stroke-width="0.1" stroke-linecap="square" stroke-miterlimit="10" x1="95.5" y1="15.78" x2="95.05" y2="15.78"/>
			
				<line fill="none" stroke="#1D2132" stroke-width="0.1" stroke-linecap="square" stroke-miterlimit="10" x1="95.5" y1="16.59" x2="95.05" y2="16.59"/>
			
				<line fill="none" stroke="#1D2132" stroke-width="0.1" stroke-linecap="square" stroke-miterlimit="10" x1="95.5" y1="16.86" x2="95.05" y2="16.86"/>
			
				<line fill="none" stroke="#1D2132" stroke-width="0.1" stroke-linecap="square" stroke-miterlimit="10" x1="95.5" y1="17.13" x2="95.05" y2="17.13"/>
			
				<line fill="none" stroke="#1D2132" stroke-width="0.1" stroke-linecap="square" stroke-miterlimit="10" x1="95.5" y1="17.4" x2="95.05" y2="17.4"/>
			
				<line fill="none" stroke="#1D2132" stroke-width="0.1" stroke-linecap="square" stroke-miterlimit="10" x1="95.5" y1="17.67" x2="95.05" y2="17.67"/>
			
				<line fill="none" stroke="#1D2132" stroke-width="0.1" stroke-linecap="square" stroke-miterlimit="10" x1="95.5" y1="17.94" x2="95.05" y2="17.94"/>
			
				<line fill="none" stroke="#1D2132" stroke-width="0.1" stroke-linecap="square" stroke-miterlimit="10" x1="95.5" y1="18.75" x2="95.05" y2="18.75"/>
			
				<line fill="none" stroke="#1D2132" stroke-width="0.1" stroke-linecap="square" stroke-miterlimit="10" x1="95.5" y1="19.02" x2="95.05" y2="19.02"/>
			
				<line fill="none" stroke="#1D2132" stroke-width="0.1" stroke-linecap="square" stroke-miterlimit="10" x1="95.5" y1="18.21" x2="95.05" y2="18.21"/>
			
				<line fill="none" stroke="#1D2132" stroke-width="0.1" stroke-linecap="square" stroke-miterlimit="10" x1="95.5" y1="18.48" x2="95.05" y2="18.48"/>
			
				<line fill="none" stroke="#1D2132" stroke-width="0.1" stroke-linecap="square" stroke-miterlimit="10" x1="95.5" y1="19.29" x2="95.05" y2="19.29"/>
			
				<line fill="none" stroke="#1D2132" stroke-width="0.1" stroke-linecap="square" stroke-miterlimit="10" x1="95.5" y1="19.56" x2="95.05" y2="19.56"/>
			
				<line fill="none" stroke="#1D2132" stroke-width="0.1" stroke-linecap="square" stroke-miterlimit="10" x1="95.5" y1="19.83" x2="95.05" y2="19.83"/>
			
				<line fill="none" stroke="#1D2132" stroke-width="0.1" stroke-linecap="square" stroke-miterlimit="10" x1="95.5" y1="20.1" x2="95.05" y2="20.1"/>
			
				<line fill="none" stroke="#1D2132" stroke-width="0.1" stroke-linecap="square" stroke-miterlimit="10" x1="95.5" y1="20.37" x2="95.05" y2="20.37"/>
			
				<line fill="none" stroke="#1D2132" stroke-width="0.1" stroke-linecap="square" stroke-miterlimit="10" x1="95.5" y1="20.64" x2="95.05" y2="20.64"/>
			
				<line fill="none" stroke="#1D2132" stroke-width="0.1" stroke-linecap="square" stroke-miterlimit="10" x1="95.5" y1="21.45" x2="95.05" y2="21.45"/>
			
				<line fill="none" stroke="#1D2132" stroke-width="0.1" stroke-linecap="square" stroke-miterlimit="10" x1="95.5" y1="21.72" x2="95.05" y2="21.72"/>
			
				<line fill="none" stroke="#1D2132" stroke-width="0.1" stroke-linecap="square" stroke-miterlimit="10" x1="95.5" y1="20.91" x2="95.05" y2="20.91"/>
			
				<line fill="none" stroke="#1D2132" stroke-width="0.1" stroke-linecap="square" stroke-miterlimit="10" x1="95.5" y1="21.18" x2="95.05" y2="21.18"/>
			
				<line fill="none" stroke="#1D2132" stroke-width="0.1" stroke-linecap="square" stroke-miterlimit="10" x1="95.5" y1="21.99" x2="95.05" y2="21.99"/>
			
				<line fill="none" stroke="#1D2132" stroke-width="0.1" stroke-linecap="square" stroke-miterlimit="10" x1="95.5" y1="22.26" x2="95.05" y2="22.26"/>
			
				<line fill="none" stroke="#1D2132" stroke-width="0.1" stroke-linecap="square" stroke-miterlimit="10" x1="95.5" y1="22.53" x2="95.05" y2="22.53"/>
			
				<line fill="none" stroke="#1D2132" stroke-width="0.1" stroke-linecap="square" stroke-miterlimit="10" x1="95.5" y1="22.8" x2="95.05" y2="22.8"/>
			
				<line fill="none" stroke="#1D2132" stroke-width="0.1" stroke-linecap="square" stroke-miterlimit="10" x1="95.5" y1="23.07" x2="95.05" y2="23.07"/>
			
				<line fill="none" stroke="#1D2132" stroke-width="0.1" stroke-linecap="square" stroke-miterlimit="10" x1="95.5" y1="23.34" x2="95.05" y2="23.34"/>
			
				<line fill="none" stroke="#1D2132" stroke-width="0.1" stroke-linecap="square" stroke-miterlimit="10" x1="95.5" y1="24.15" x2="95.05" y2="24.15"/>
			
				<line fill="none" stroke="#1D2132" stroke-width="0.1" stroke-linecap="square" stroke-miterlimit="10" x1="95.5" y1="24.42" x2="95.05" y2="24.42"/>
			
				<line fill="none" stroke="#1D2132" stroke-width="0.1" stroke-linecap="square" stroke-miterlimit="10" x1="95.5" y1="23.61" x2="95.05" y2="23.61"/>
			
				<line fill="none" stroke="#1D2132" stroke-width="0.1" stroke-linecap="square" stroke-miterlimit="10" x1="95.5" y1="23.88" x2="95.05" y2="23.88"/>
			
				<line fill="none" stroke="#1D2132" stroke-width="0.1" stroke-linecap="square" stroke-miterlimit="10" x1="95.5" y1="24.69" x2="95.05" y2="24.69"/>
			
				<line fill="none" stroke="#1D2132" stroke-width="0.1" stroke-linecap="square" stroke-miterlimit="10" x1="95.5" y1="24.96" x2="95.05" y2="24.96"/>
		</g>
		<path fill="none" stroke="#1D2132" stroke-width="0.1" stroke-linecap="square" stroke-miterlimit="10" d="M94.76,6.24
			c0,0.39-0.7,0-0.7,0.39s0.7,0,0.7,0.39s-0.7,0-0.7,0.39s0.7,0,0.7,0.39s-0.7,0-0.7,0.39s0.7,0,0.7,0.39s-0.7,0-0.7,0.39
			s0.7,0,0.7,0.39s-0.7,0-0.7,0.39s0.7,0,0.7,0.39s-0.7,0-0.7,0.39s0.7,0,0.7,0.39c0,0.39-0.7,0-0.7,0.39c0,0.39,0.7,0,0.7,0.39
			s-0.7,0-0.7,0.39s0.7,0,0.7,0.39s-0.7,0-0.7,0.39s0.7,0,0.7,0.39s-0.7,0-0.7,0.39s0.7,0,0.7,0.39s-0.7,0-0.7,0.39s0.7,0,0.7,0.39
			s-0.7,0-0.7,0.39s0.7,0,0.7,0.39s-0.7,0-0.7,0.39s0.7,0,0.7,0.39s-0.7,0-0.7,0.39s0.7,0,0.7,0.39s-0.7,0-0.7,0.39s0.7,0,0.7,0.39
			s-0.7,0-0.7,0.39s0.7,0,0.7,0.39s-0.7,0-0.7,0.39"/>
		<path fill="none" stroke="#1D2132" stroke-width="0.1" stroke-linecap="square" stroke-miterlimit="10" d="M94.76,34.36
			c0-0.39-0.7,0-0.7-0.39c0-0.39,0.7,0,0.7-0.39c0-0.39-0.7,0-0.7-0.39c0-0.39,0.7,0,0.7-0.39c0-0.39-0.7,0-0.7-0.39
			c0-0.39,0.7,0,0.7-0.39c0-0.39-0.7,0-0.7-0.39s0.7,0,0.7-0.39s-0.7,0-0.7-0.39s0.7,0,0.7-0.39c0-0.39-0.7,0-0.7-0.39
			c0-0.39,0.7,0,0.7-0.39s-0.7,0-0.7-0.39s0.7,0,0.7-0.39s-0.7,0-0.7-0.39s0.7,0,0.7-0.39s-0.7,0-0.7-0.39s0.7,0,0.7-0.39
			s-0.7,0-0.7-0.39s0.7,0,0.7-0.39s-0.7,0-0.7-0.39s0.7,0,0.7-0.39s-0.7,0-0.7-0.39s0.7,0,0.7-0.39s-0.7,0-0.7-0.39s0.7,0,0.7-0.39
			s-0.7,0-0.7-0.39s0.7,0,0.7-0.39s-0.7,0-0.7-0.39s0.7,0,0.7-0.39s-0.7,0-0.7-0.39s0.7,0,0.7-0.39s-0.7,0-0.7-0.39"/>
	</g>
</g>
<g id="Plumbing">
	<g>
		<polyline fill="#FFFFFF" points="20.93,44.03 20.93,43.93 20.93,43.83 20.9,43.64 20.86,43.45 20.79,43.27 20.7,43.09 20.6,42.93 
			20.47,42.78 20.34,42.65 20.14,42.5 19.92,42.37 19.7,42.26 19.47,42.16 19.21,42.07 19,42 18.76,41.94 18.52,41.89 18.27,41.85 
			18.03,41.83 17.81,41.82 17.59,41.83 17.35,41.86 17.1,41.89 16.86,41.94 16.62,42 16.37,42.08 16.15,42.16 15.92,42.26 
			15.7,42.37 15.48,42.5 15.28,42.65 15.15,42.78 15.02,42.93 14.92,43.09 14.83,43.27 14.76,43.45 14.72,43.64 14.69,43.83 
			14.69,44.03 14.69,46.81 20.93,46.81 20.93,44.03 		"/>
		
			<line fill="none" stroke="#1D2132" stroke-width="0.1" stroke-linecap="square" stroke-miterlimit="10" x1="14.69" y1="46.81" x2="20.93" y2="46.81"/>
		
			<line fill="none" stroke="#1D2132" stroke-width="0.1" stroke-linecap="square" stroke-miterlimit="10" x1="14.69" y1="44.03" x2="14.69" y2="46.81"/>
		
			<line fill="none" stroke="#1D2132" stroke-width="0.1" stroke-linecap="square" stroke-miterlimit="10" x1="20.93" y1="44.03" x2="20.93" y2="46.81"/>
		
			<line fill="none" stroke="#1D2132" stroke-width="0.1" stroke-linecap="square" stroke-miterlimit="10" x1="18.79" y1="46.81" x2="16.83" y2="46.81"/>
		
			<line fill="none" stroke="#1D2132" stroke-width="0.1" stroke-linecap="square" stroke-miterlimit="10" x1="17.62" y1="44.58" x2="17.29" y2="44.58"/>
		
			<line fill="none" stroke="#1D2132" stroke-width="0.1" stroke-linecap="square" stroke-miterlimit="10" x1="17.81" y1="44.78" x2="17.81" y2="45.13"/>
		
			<line fill="none" stroke="#1D2132" stroke-width="0.1" stroke-linecap="square" stroke-miterlimit="10" x1="18.34" y1="44.58" x2="18" y2="44.58"/>
		
			<line fill="none" stroke="#1D2132" stroke-width="0.1" stroke-linecap="square" stroke-miterlimit="10" x1="17.81" y1="44.02" x2="17.81" y2="44.37"/>
		<path fill="none" stroke="#1D2132" stroke-width="0.1" stroke-linecap="square" stroke-miterlimit="10" d="M20.55,43.85
			c-0.22,0.57-0.59,1.06-1.08,1.39"/>
		<path fill="none" stroke="#1D2132" stroke-width="0.1" stroke-linecap="square" stroke-miterlimit="10" d="M19.46,45.24
			c-0.43,0.28-0.92,0.42-1.43,0.42c-0.07,0-0.15,0-0.22-0.01"/>
		<path fill="none" stroke="#1D2132" stroke-width="0.1" stroke-linecap="square" stroke-miterlimit="10" d="M16.15,45.25
			c-0.49-0.34-0.87-0.82-1.08-1.39"/>
		<path fill="none" stroke="#1D2132" stroke-width="0.1" stroke-linecap="square" stroke-miterlimit="10" d="M17.8,45.65
			c-0.07,0.01-0.15,0.01-0.22,0.01c-0.5,0-1-0.15-1.43-0.42"/>
		<path fill="none" stroke="#1D2132" stroke-width="0.1" stroke-linecap="square" stroke-miterlimit="10" d="M18.03,41.83
			c0.65,0.05,1.3,0.23,1.89,0.54"/>
		<path fill="none" stroke="#1D2132" stroke-width="0.1" stroke-linecap="square" stroke-miterlimit="10" d="M14.69,44.02
			c0-0.02,0-0.05,0-0.07c0-0.5,0.21-0.98,0.59-1.3"/>
		<path fill="none" stroke="#1D2132" stroke-width="0.1" stroke-linecap="square" stroke-miterlimit="10" d="M17.59,41.83
			c0.07-0.01,0.15-0.01,0.22-0.01s0.15,0,0.22,0.01"/>
		<path fill="none" stroke="#1D2132" stroke-width="0.1" stroke-linecap="square" stroke-miterlimit="10" d="M19.56,45.14
			c-0.58,0.09-1.17,0.14-1.75,0.14s-1.16-0.05-1.74-0.14"/>
		<path fill="none" stroke="#1D2132" stroke-width="0.1" stroke-linecap="square" stroke-miterlimit="10" d="M17.81,46.41
			c-0.59,0-1.18-0.04-1.76-0.13"/>
		<path fill="none" stroke="#1D2132" stroke-width="0.1" stroke-linecap="square" stroke-miterlimit="10" d="M15.73,46.11
			c-0.57-0.68-0.88-1.56-0.88-2.46c0-0.02,0-0.03,0-0.05"/>
		<path fill="none" stroke="#1D2132" stroke-width="0.1" stroke-linecap="square" stroke-miterlimit="10" d="M16.05,46.28
			c-0.12-0.02-0.24-0.08-0.32-0.18"/>
		<path fill="none" stroke="#1D2132" stroke-width="0.1" stroke-linecap="square" stroke-miterlimit="10" d="M20.77,43.61
			c0,0.01,0,0.03,0,0.04c0,0.91-0.31,1.78-0.88,2.46"/>
		<path fill="none" stroke="#1D2132" stroke-width="0.1" stroke-linecap="square" stroke-miterlimit="10" d="M19.57,46.29
			c-0.58,0.08-1.17,0.13-1.76,0.13"/>
		<path fill="none" stroke="#1D2132" stroke-width="0.1" stroke-linecap="square" stroke-miterlimit="10" d="M19.89,46.1
			c-0.08,0.1-0.2,0.16-0.32,0.18"/>
		<path fill="none" stroke="#1D2132" stroke-width="0.1" stroke-linecap="square" stroke-miterlimit="10" d="M20.34,42.66
			c0.37,0.31,0.59,0.79,0.59,1.3c0,0.02,0,0.05,0,0.07"/>
		<path fill="none" stroke="#1D2132" stroke-width="0.1" stroke-linecap="square" stroke-miterlimit="10" d="M19.93,42.37
			c0.14,0.08,0.28,0.17,0.41,0.28"/>
		<path fill="none" stroke="#1D2132" stroke-width="0.1" stroke-linecap="square" stroke-miterlimit="10" d="M15.29,42.65
			c0.12-0.11,0.26-0.2,0.41-0.28"/>
		<path fill="none" stroke="#1D2132" stroke-width="0.1" stroke-linecap="square" stroke-miterlimit="10" d="M15.7,42.37
			c0.59-0.3,1.23-0.49,1.89-0.54"/>
		<path fill="none" stroke="#1D2132" stroke-width="0.1" stroke-linecap="square" stroke-miterlimit="10" d="M16.95,42.29
			c0.28-0.07,0.57-0.11,0.86-0.11s0.58,0.04,0.86,0.11"/>
		<path fill="none" stroke="#1D2132" stroke-width="0.1" stroke-linecap="square" stroke-miterlimit="10" d="M20.23,43.04
			c0.2,0.19,0.32,0.46,0.32,0.75c0,0.03,0,0.05,0,0.07"/>
		<path fill="none" stroke="#1D2132" stroke-width="0.1" stroke-linecap="square" stroke-miterlimit="10" d="M18.67,42.29
			c0.57,0.11,1.1,0.37,1.55,0.75"/>
		<path fill="none" stroke="#1D2132" stroke-width="0.1" stroke-linecap="square" stroke-miterlimit="10" d="M15.08,43.86
			c0-0.03,0-0.05,0-0.07c0-0.29,0.11-0.56,0.32-0.75"/>
		<path fill="none" stroke="#1D2132" stroke-width="0.1" stroke-linecap="square" stroke-miterlimit="10" d="M15.39,43.04
			c0.45-0.39,0.99-0.64,1.56-0.75"/>
		<path fill="none" stroke="#1D2132" stroke-width="0.1" stroke-linecap="square" stroke-miterlimit="10" d="M17.81,45
			c0.22,0,0.41-0.19,0.4-0.43c0-0.24-0.18-0.43-0.4-0.43s-0.4,0.19-0.4,0.43S17.59,45,17.81,45"/>
		<path fill="none" stroke="#1D2132" stroke-width="0.1" stroke-linecap="square" stroke-miterlimit="10" d="M17.81,44.81
			c0.12,0,0.22-0.11,0.22-0.23c0-0.13-0.1-0.23-0.22-0.23c-0.12,0-0.22,0.1-0.22,0.23C17.59,44.71,17.69,44.81,17.81,44.81"/>
	</g>
	<g>
		<polygon fill="#FFFFFF" points="2.61,34.69 4.29,34.69 4.31,34.69 4.33,34.7 4.36,34.7 4.38,34.72 4.4,34.72 4.42,34.72 
			4.44,34.73 4.46,34.74 4.47,34.76 4.49,34.77 4.5,34.79 4.52,34.81 4.53,34.82 4.54,34.84 4.55,34.86 4.56,34.88 9.03,34.88 
			9.14,34.89 9.25,34.89 9.36,34.91 9.46,34.93 9.57,34.97 9.67,34.99 9.77,35.03 9.87,35.07 9.96,35.12 10.06,35.17 10.15,35.23 
			10.23,35.29 10.32,35.36 10.39,35.43 10.47,35.51 10.54,35.58 10.61,35.66 10.67,35.75 10.73,35.83 10.78,35.92 10.83,36.01 
			10.88,36.1 10.92,36.2 10.96,36.29 10.99,36.39 11.02,36.49 11.05,36.59 11.07,36.69 11.08,36.79 11.09,36.89 11.1,37 11.1,37.1 
			11.1,37.2 11.09,37.31 11.08,37.41 11.07,37.51 11.05,37.61 11.02,37.72 10.99,37.81 10.96,37.91 10.92,38 10.88,38.1 
			10.83,38.19 10.78,38.28 10.73,38.38 10.67,38.45 10.61,38.53 10.54,38.61 10.47,38.69 10.39,38.77 10.32,38.84 10.23,38.91 
			10.15,38.97 10.06,39.03 9.96,39.08 9.87,39.13 9.77,39.17 9.67,39.22 9.57,39.24 9.46,39.27 9.36,39.29 9.25,39.3 9.14,39.31 
			9.03,39.32 4.56,39.32 4.55,39.34 4.54,39.36 4.53,39.38 4.52,39.39 4.5,39.41 4.49,39.43 4.47,39.44 4.46,39.45 4.44,39.47 
			4.42,39.48 4.4,39.49 4.38,39.49 4.36,39.5 4.33,39.5 4.31,39.51 4.29,39.51 2.61,39.51 2.61,37.1 		"/>
		
			<line fill="none" stroke="#1D2132" stroke-width="0.1" stroke-linecap="square" stroke-miterlimit="10" x1="9.03" y1="39.32" x2="4.56" y2="39.32"/>
		
			<line fill="none" stroke="#1D2132" stroke-width="0.1" stroke-linecap="square" stroke-miterlimit="10" x1="2.61" y1="34.69" x2="2.61" y2="39.51"/>
		
			<line fill="none" stroke="#1D2132" stroke-width="0.1" stroke-linecap="square" stroke-miterlimit="10" x1="4.29" y1="39.51" x2="2.61" y2="39.51"/>
		
			<line fill="none" stroke="#1D2132" stroke-width="0.1" stroke-linecap="square" stroke-miterlimit="10" x1="5.35" y1="35.31" x2="5.35" y2="37.1"/>
		
			<line fill="none" stroke="#1D2132" stroke-width="0.1" stroke-linecap="square" stroke-miterlimit="10" x1="5.35" y1="38.88" x2="9.03" y2="39.32"/>
		
			<line fill="none" stroke="#1D2132" stroke-width="0.1" stroke-linecap="square" stroke-miterlimit="10" x1="5.35" y1="38.88" x2="5.35" y2="37.1"/>
		
			<line fill="none" stroke="#1D2132" stroke-width="0.1" stroke-linecap="square" stroke-miterlimit="10" x1="5.35" y1="35.31" x2="9.03" y2="34.88"/>
		
			<line fill="none" stroke="#1D2132" stroke-width="0.1" stroke-linecap="square" stroke-miterlimit="10" x1="9.03" y1="34.88" x2="4.56" y2="34.88"/>
		
			<line fill="none" stroke="#1D2132" stroke-width="0.1" stroke-linecap="square" stroke-miterlimit="10" x1="4.29" y1="34.69" x2="2.61" y2="34.69"/>
		<path fill="none" stroke="#1D2132" stroke-width="0.1" stroke-linecap="square" stroke-miterlimit="10" d="M4.56,39.26
			c0.08-0.72,0.12-1.44,0.12-2.16s-0.03-1.44-0.11-2.16"/>
		<path fill="none" stroke="#1D2132" stroke-width="0.1" stroke-linecap="square" stroke-miterlimit="10" d="M4.29,39.51
			c0.14,0,0.26-0.11,0.28-0.25"/>
		<path fill="none" stroke="#1D2132" stroke-width="0.1" stroke-linecap="square" stroke-miterlimit="10" d="M9.03,39.32
			c1.14,0,2.07-1,2.07-2.22c0-1.23-0.93-2.22-2.07-2.22"/>
		<path fill="none" stroke="#1D2132" stroke-width="0.1" stroke-linecap="square" stroke-miterlimit="10" d="M4.57,34.94
			c-0.01-0.14-0.14-0.25-0.28-0.25"/>
		<path fill="none" stroke="#1D2132" stroke-width="0.1" stroke-linecap="square" stroke-miterlimit="10" d="M3.44,37.1
			c0-0.13,0.1-0.23,0.24-0.23c0.13,0,0.24,0.1,0.24,0.23s-0.11,0.23-0.24,0.23S3.44,37.23,3.44,37.1"/>
	</g>
	<g>
		<path fill="#FFFFFF" d="M25.04,36.35h10.41c0.06,0,0.1,0.04,0.1,0.1v10.41c0,0.06-0.04,0.1-0.1,0.1H25.04
			c-0.06,0-0.1-0.04-0.1-0.1V36.44C24.94,36.4,24.99,36.35,25.04,36.35z"/>
		
			<line fill="none" stroke="#1D2132" stroke-width="0.1" stroke-linecap="square" stroke-miterlimit="10" x1="32.86" y1="44.6" x2="32.86" y2="45.28"/>
		
			<line fill="none" stroke="#1D2132" stroke-width="0.1" stroke-linecap="square" stroke-miterlimit="10" x1="33.83" y1="44.31" x2="33.16" y2="44.31"/>
		
			<line fill="none" stroke="#1D2132" stroke-width="0.1" stroke-linecap="square" stroke-miterlimit="10" x1="32.86" y1="43.35" x2="32.86" y2="44.01"/>
		
			<line fill="none" stroke="#1D2132" stroke-width="0.1" stroke-linecap="square" stroke-miterlimit="10" x1="32.57" y1="44.31" x2="31.89" y2="44.31"/>
		
			<line fill="none" stroke="#1D2132" stroke-width="0.1" stroke-linecap="square" stroke-miterlimit="10" x1="25.53" y1="43.49" x2="25.53" y2="46.33"/>
		
			<line fill="none" stroke="#1D2132" stroke-width="0.1" stroke-linecap="square" stroke-miterlimit="10" x1="34.99" y1="37.1" x2="34.99" y2="43.6"/>
		<path fill="none" stroke="#1D2132" stroke-width="0.1" stroke-linecap="square" stroke-miterlimit="10" d="M34.87,36.99H25.7
			c-0.09,0-0.17,0.08-0.17,0.17v9.17"/>
		
			<line fill="none" stroke="#1D2132" stroke-width="0.1" stroke-linecap="square" stroke-miterlimit="10" x1="32.15" y1="46.44" x2="25.65" y2="46.44"/>
		<g>
			<path fill="none" stroke="#1D2132" stroke-width="0.1" stroke-linecap="square" stroke-miterlimit="10" d="M32.15,46.44
				c0.06,0,0.13-0.01,0.19-0.03"/>
		</g>
		<g>
			<path fill="none" stroke="#1D2132" stroke-width="0.1" stroke-linecap="square" stroke-miterlimit="10" d="M25.53,46.33
				c0,0.07,0.05,0.12,0.12,0.12"/>
		</g>
		<g>
			<path fill="none" stroke="#1D2132" stroke-width="0.1" stroke-linecap="square" stroke-miterlimit="10" d="M32.15,46.44
				c0.06,0,0.13-0.01,0.19-0.03"/>
		</g>
		<g>
			<path fill="none" stroke="#1D2132" stroke-width="0.1" stroke-linecap="square" stroke-miterlimit="10" d="M34.99,37.1
				c0-0.07-0.05-0.12-0.12-0.12"/>
		</g>
		<g>
			<path fill="none" stroke="#1D2132" stroke-width="0.1" stroke-linecap="square" stroke-miterlimit="10" d="M32.26,46.44
				c1.17-0.61,2.12-1.56,2.72-2.72"/>
		</g>
		<g>
			<path fill="none" stroke="#1D2132" stroke-width="0.1" stroke-linecap="square" stroke-miterlimit="10" d="M34.96,43.78
				c0.02-0.06,0.03-0.12,0.03-0.19"/>
		</g>
		<g>
			<path fill="none" stroke="#1D2132" stroke-width="0.1" stroke-linecap="square" stroke-miterlimit="10" d="M32.34,46.42
				c1.23-0.42,2.21-1.39,2.62-2.63"/>
		</g>
		<g>
			<path fill="none" stroke="#1D2132" stroke-width="0.1" stroke-linecap="square" stroke-miterlimit="10" d="M34.96,43.78
				c0.02-0.06,0.03-0.12,0.03-0.19"/>
		</g>
		<g>
			<path fill="none" stroke="#1D2132" stroke-width="0.1" stroke-linecap="square" stroke-miterlimit="10" d="M32.86,44.85
				c-0.29,0-0.53-0.24-0.53-0.53c0-0.29,0.24-0.53,0.53-0.53c0.3,0,0.54,0.23,0.53,0.53C33.39,44.6,33.15,44.85,32.86,44.85"/>
		</g>
		<g>
			<path fill="none" stroke="#1D2132" stroke-width="0.1" stroke-linecap="square" stroke-miterlimit="10" d="M32.86,45.06
				c-0.41,0-0.74-0.33-0.75-0.75c0-0.42,0.34-0.75,0.75-0.75c0.42,0,0.75,0.34,0.75,0.75S33.27,45.06,32.86,45.06"/>
		</g>
		<path fill="none" stroke="#1D2132" stroke-width="0.1" stroke-linecap="square" stroke-miterlimit="10" d="M25.23,36.4h10.03
			c0.16,0,0.29,0.13,0.29,0.29v10.03c0,0.16-0.13,0.29-0.29,0.29H25.23c-0.16,0-0.29-0.13-0.29-0.29V36.67
			C24.94,36.53,25.07,36.4,25.23,36.4z"/>
	</g>
	<g>
		<g>
			<path fill="#FFFFFF" stroke="#1D2132" stroke-width="0.1" stroke-linecap="square" stroke-miterlimit="10" d="M29.43,29.79
				c-0.11,0-0.21,0.08-0.21,0.17s0.09,0.17,0.21,0.17c0.11,0,0.21-0.08,0.21-0.17C29.64,29.86,29.54,29.79,29.43,29.79z"/>
			
				<ellipse fill="#FFFFFF" stroke="#1D2132" stroke-width="0.1" stroke-linecap="square" stroke-miterlimit="10" cx="30.34" cy="29.96" rx="0.21" ry="0.17"/>
			<path fill="#FFFFFF" stroke="#1D2132" stroke-width="0.1" stroke-linecap="square" stroke-miterlimit="10" d="M34.06,29.79
				c-0.11,0-0.21,0.08-0.21,0.17s0.1,0.17,0.21,0.17s0.21-0.08,0.21-0.17C34.28,29.86,34.17,29.79,34.06,29.79z"/>
			<path fill="#FFFFFF" stroke="#1D2132" stroke-width="0.1" stroke-linecap="square" stroke-miterlimit="10" d="M29.21,29.96
				c-0.48,0-0.87-0.1-0.87-0.23v-0.58c0-0.13,0.39-0.23,0.87-0.23h5.06c0.48,0,0.87,0.1,0.87,0.23v0.58c0,0.13-0.39,0.23-0.87,0.23
				H29.21z"/>
			
				<rect x="28.02" y="24.59" fill="#FFFFFF" stroke="#1D2132" stroke-width="0.1" stroke-linecap="square" stroke-miterlimit="10" width="7.53" height="5.07"/>
			<path fill="#FFFFFF" stroke="#1D2132" stroke-width="0.1" stroke-linecap="square" stroke-miterlimit="10" d="M29.21,29.38
				c-0.47,0-0.86-0.83-0.86-1.85V26.7c0-1.02,0.38-1.85,0.86-1.85h5.06c0.47,0,0.86,0.83,0.86,1.85v0.83c0,1.02-0.38,1.85-0.86,1.85
				L29.21,29.38z"/>
		</g>
		<g>
			<path fill="#FFFFFF" stroke="#1D2132" stroke-width="0.1" stroke-linecap="square" stroke-miterlimit="10" d="M34.33,25.28
				L34.33,25.28c0-0.09-0.07-0.17-0.17-0.17h-4.6c-0.09,0-0.17,0.07-0.17,0.17l0,0c0,0.09,0.07,0.17,0.17,0.17h4.6
				C34.26,25.45,34.33,25.37,34.33,25.28z"/>
			<g>
				
					<rect x="29.59" y="24.32" fill="#FFFFFF" stroke="#1D2132" stroke-width="0.1" stroke-linecap="square" stroke-miterlimit="10" width="0.29" height="0.78"/>
				
					<rect x="33.85" y="24.32" fill="#FFFFFF" stroke="#1D2132" stroke-width="0.1" stroke-linecap="square" stroke-miterlimit="10" width="0.29" height="0.78"/>
			</g>
			<g>
				
					<rect x="29.42" y="24.17" fill="#FFFFFF" stroke="#1D2132" stroke-width="0.1" stroke-linecap="square" stroke-miterlimit="10" width="0.62" height="0.15"/>
				
					<rect x="33.69" y="24.17" fill="#FFFFFF" stroke="#1D2132" stroke-width="0.1" stroke-linecap="square" stroke-miterlimit="10" width="0.62" height="0.15"/>
			</g>
		</g>
	</g>
</g>
<g id="Windows">
	<g id="Windows_4_1_">
		<path fill="#1D2132" d="M99.71,7.2h-4.12v24.47h4.12V7.2z M99.61,7.3v24.28H95.7V7.3H99.61L99.61,7.3z"/>
		<g>
			<rect x="97.65" y="7.93" fill="#1D2132" width="1.03" height="23.09"/>
			<rect x="97.74" y="8.14" fill="#FFFFFF" width="0.82" height="22.89"/>
			<line fill="none" stroke="#1D2132" stroke-width="0.1" stroke-miterlimit="10" x1="98.6" y1="11.47" x2="97.73" y2="11.47"/>
			<line fill="none" stroke="#1D2132" stroke-width="0.1" stroke-miterlimit="10" x1="98.61" y1="29.92" x2="97.74" y2="29.92"/>
			<line fill="none" stroke="#1D2132" stroke-width="0.1" stroke-miterlimit="10" x1="98.16" y1="29.93" x2="98.16" y2="19.98"/>
			<line fill="none" stroke="#1D2132" stroke-width="0.1" stroke-miterlimit="10" x1="98.16" y1="20.06" x2="98.16" y2="11.47"/>
		</g>
	</g>
</g>
<g id="Doors">
	
		<use xlink:href="#Doors_x5F_2"  width="9.8" height="7.14" id="XMLID_20" x="-4.9" y="-3.57" transform="matrix(1.4377 0 0 1.4377 10.6738 5.9624)" overflow="visible"/>
	<g id="XMLID_19">
		<g>
			<g>
				<polygon fill="none" stroke="#1D2132" stroke-width="0.1" stroke-miterlimit="10" points="13.65,24.09 13.65,23.06 13.24,23.06 
					13.24,24.09 				"/>
				<polygon fill="none" stroke="#1D2132" stroke-width="0.1" stroke-miterlimit="10" points="24.06,24.09 24.06,23.06 24.49,23.06 
					24.49,24.09 				"/>
				<polyline fill="none" stroke="#1D2132" stroke-width="0.1" stroke-miterlimit="10" points="21.01,15.69 21.14,15.83 
					21.26,15.97 21.39,16.11 21.51,16.25 21.64,16.41 21.76,16.56 21.86,16.7 21.99,16.85 22.09,17 22.19,17.16 22.31,17.33 
					22.41,17.49 22.51,17.65 22.6,17.81 22.69,17.98 22.78,18.15 22.88,18.32 22.95,18.49 23.03,18.66 23.11,18.83 23.19,19 
					23.26,19.17 23.34,19.35 23.41,19.52 23.47,19.7 23.52,19.89 23.59,20.08 23.64,20.25 23.68,20.43 23.74,20.62 23.78,20.81 
					23.83,20.99 23.85,21.17 23.9,21.36 23.92,21.56 23.95,21.74 23.98,21.92 24,22.11 24.01,22.31 24.03,22.49 24.05,22.68 
					24.06,22.88 24.06,23.07 				"/>
				<polygon fill="none" stroke="#1D2132" stroke-width="0.1" stroke-miterlimit="10" points="13.72,23.02 21.01,15.69 21.26,15.97 
					14.02,23.32 				"/>
			</g>
		</g>
	</g>
</g>
<g id="Text">
	
		<text id="TXT---" transform="matrix(1 0 0 1 74.0107 15.3203)" opacity="0.7" fill="#1D2132" enable-background="new    " font-family="'Cannonade-Medium'" font-size="3px">15,90</text>
	
		<text id="TXT--" transform="matrix(1 0 0 1 28.6621 17.7383)" opacity="0.7" fill="#1D2132" enable-background="new    " font-family="'Cannonade-Medium'" font-size="3px">4,71</text>
	
		<text id="TXT--" transform="matrix(1 0 0 1 15.542 33.3516)" opacity="0.7" fill="#1D2132" enable-background="new    " font-family="'Cannonade-Medium'" font-size="3px">4,06</text>
</g>
<g id="Walls">
	<polygon fill="#1D2132" stroke="#1D2132" stroke-width="0.1" stroke-miterlimit="10" points="97.71,31.02 99.67,31.03 99.67,49.28 
		0.28,49.28 0.28,0.24 2.62,0.24 2.62,46.99 95.64,46.99 95.64,31.68 97.71,31.67 	"/>
	<polygon fill="#1D2132" stroke="#1D2132" stroke-width="0.1" stroke-miterlimit="10" points="17.62,0.28 17.62,2.37 95.64,2.37 
		95.64,8.61 97.69,8.61 97.69,9.34 99.67,9.34 99.67,0.28 	"/>
	<polygon fill="#1D2132" stroke="#1D2132" stroke-width="0.1" stroke-miterlimit="10" points="1.63,0.24 1.63,2.32 3.68,2.32 
		3.68,0.24 	"/>
	<rect x="18.62" y="2.37" fill="#1D2132" stroke="#1D2132" stroke-width="0.1" stroke-miterlimit="10" width="1.04" height="7.81"/>
	<rect x="43.35" y="2.37" fill="#1D2132" stroke="#1D2132" stroke-width="0.1" stroke-miterlimit="10" width="1.04" height="7.81"/>
	<polygon fill="#1D2132" stroke="#1D2132" stroke-width="0.1" stroke-miterlimit="10" points="36.58,46.99 36.58,23.06 24.49,23.06 
		24.49,24.09 35.55,24.09 35.55,46.99 	"/>
	
		<rect x="2.62" y="23.06" fill="#1D2132" stroke="#1D2132" stroke-width="0.1" stroke-miterlimit="10" width="10.61" height="1.04"/>
	
		<rect x="0.28" y="46.99" fill="#1D2132" stroke="#1D2132" stroke-width="0.1" stroke-miterlimit="10" width="10.17" height="5.04"/>
	<polygon fill="#E9E9EB" points="8.75,50 2.67,49.99 2.67,46.8 8.75,46.81 	"/>
</g>
<g id="Details">
	<g>
		
			<rect x="6.09" y="47.35" fill="#FFFFFF" stroke="#1D2132" stroke-width="0.5" stroke-linecap="square" stroke-miterlimit="10" width="2" height="2"/>
		<polygon fill="#1D2132" stroke="#1D2132" stroke-width="0.1" stroke-miterlimit="10" points="6.09,47.47 7.31,48.13 7.98,49.35 
			7.98,47.47 		"/>
	</g>
	<g>
		
			<rect x="3.33" y="47.35" fill="#FFFFFF" stroke="#1D2132" stroke-width="0.5" stroke-linecap="square" stroke-miterlimit="10" width="2" height="2"/>
		<polygon fill="#1D2132" stroke="#1D2132" stroke-width="0.1" stroke-miterlimit="10" points="3.33,47.47 4.55,48.13 5.22,49.35 
			5.22,47.47 		"/>
	</g>
</g>
</svg>
