<?xml version="1.0" encoding="utf-8"?>
<!-- Generator: Adobe Illustrator 22.0.0, SVG Export Plug-In . SVG Version: 6.00 Build 0)  -->
<svg version="1.1" id="Layer_1" xmlns="http://www.w3.org/2000/svg" xmlns:xlink="http://www.w3.org/1999/xlink" x="0px" y="0px"
	 viewBox="0 0 100 40" enable-background="new 0 0 100 40" xml:space="preserve">
<g id="Background">
	<polygon opacity="0.1" fill="#1D2132" enable-background="new    " points="0.77,1.03 21.52,1.03 21.52,6.03 31.77,6.03 
		31.77,1.03 96.43,1.03 96.43,37.75 0.77,37.75 	"/>
</g>
<g id="Plumbing">
	<g>
		<polyline fill="#FFFFFF" points="21.24,5.64 21.24,2.52 14.24,2.52 14.24,5.64 14.24,5.87 14.28,6.09 14.33,6.29 14.4,6.5 
			14.51,6.7 14.62,6.87 14.76,7.04 14.91,7.19 15.14,7.36 15.38,7.5 15.63,7.64 15.89,7.74 16.14,7.83 16.42,7.93 16.69,7.99 
			16.95,8.05 17.23,8.08 17.51,8.11 17.75,8.12 17.99,8.11 18.27,8.1 18.55,8.05 18.81,7.99 19.08,7.93 19.32,7.84 19.61,7.74 
			19.87,7.64 20.12,7.5 20.36,7.36 20.59,7.19 20.74,7.04 20.88,6.87 20.99,6.7 21.09,6.5 21.17,6.29 21.22,6.09 21.24,5.87 
			21.24,5.76 21.24,5.64 		"/>
		
			<line fill="none" stroke="#1D2132" stroke-width="0.1209" stroke-linecap="square" stroke-miterlimit="10" x1="21.24" y1="2.52" x2="14.24" y2="2.52"/>
		
			<line fill="none" stroke="#1D2132" stroke-width="0.1209" stroke-linecap="square" stroke-miterlimit="10" x1="14.24" y1="2.52" x2="14.24" y2="5.64"/>
		
			<line fill="none" stroke="#1D2132" stroke-width="0.1209" stroke-linecap="square" stroke-miterlimit="10" x1="21.24" y1="2.52" x2="21.24" y2="5.64"/>
		
			<line fill="none" stroke="#1D2132" stroke-width="0.1209" stroke-linecap="square" stroke-miterlimit="10" x1="16.65" y1="2.52" x2="18.85" y2="2.52"/>
		
			<line fill="none" stroke="#1D2132" stroke-width="0.1209" stroke-linecap="square" stroke-miterlimit="10" x1="17.17" y1="5.02" x2="17.53" y2="5.02"/>
		
			<line fill="none" stroke="#1D2132" stroke-width="0.1209" stroke-linecap="square" stroke-miterlimit="10" x1="17.75" y1="4.41" x2="17.75" y2="4.81"/>
		
			<line fill="none" stroke="#1D2132" stroke-width="0.1209" stroke-linecap="square" stroke-miterlimit="10" x1="17.97" y1="5.02" x2="18.34" y2="5.02"/>
		
			<line fill="none" stroke="#1D2132" stroke-width="0.1209" stroke-linecap="square" stroke-miterlimit="10" x1="17.75" y1="5.27" x2="17.75" y2="5.65"/>
		<path fill="none" stroke="#1D2132" stroke-width="0.1209" stroke-linecap="square" stroke-miterlimit="10" d="M19.61,4.29
			c0.54,0.37,0.97,0.92,1.21,1.56"/>
		<path fill="none" stroke="#1D2132" stroke-width="0.1209" stroke-linecap="square" stroke-miterlimit="10" d="M17.75,3.83
			c0.07-0.01,0.17-0.01,0.24-0.01c0.57,0,1.12,0.16,1.61,0.47"/>
		<path fill="none" stroke="#1D2132" stroke-width="0.1209" stroke-linecap="square" stroke-miterlimit="10" d="M14.68,5.83
			c0.23-0.64,0.66-1.17,1.21-1.56"/>
		<path fill="none" stroke="#1D2132" stroke-width="0.1209" stroke-linecap="square" stroke-miterlimit="10" d="M15.89,4.29
			c0.48-0.3,1.04-0.47,1.61-0.47c0.07,0,0.17,0,0.24,0.01"/>
		<path fill="none" stroke="#1D2132" stroke-width="0.1209" stroke-linecap="square" stroke-miterlimit="10" d="M20.12,7.5
			c-0.66,0.35-1.39,0.54-2.12,0.6"/>
		<path fill="none" stroke="#1D2132" stroke-width="0.1209" stroke-linecap="square" stroke-miterlimit="10" d="M14.91,7.19
			c-0.42-0.36-0.66-0.89-0.66-1.46c0-0.02,0-0.06,0-0.07"/>
		<path fill="none" stroke="#1D2132" stroke-width="0.1209" stroke-linecap="square" stroke-miterlimit="10" d="M17.99,8.11
			c-0.07,0.01-0.17,0.01-0.24,0.01c-0.07,0-0.17,0-0.24-0.01"/>
		<path fill="none" stroke="#1D2132" stroke-width="0.1209" stroke-linecap="square" stroke-miterlimit="10" d="M15.8,4.4
			c0.65-0.1,1.31-0.16,1.95-0.16c0.65,0,1.32,0.06,1.96,0.16"/>
		<path fill="none" stroke="#1D2132" stroke-width="0.1209" stroke-linecap="square" stroke-miterlimit="10" d="M15.79,3.13
			c0.65-0.1,1.32-0.15,1.97-0.15"/>
		<path fill="none" stroke="#1D2132" stroke-width="0.1209" stroke-linecap="square" stroke-miterlimit="10" d="M14.43,6.12
			c0-0.02,0-0.04,0-0.06c0-1.02,0.35-1.99,0.99-2.76"/>
		<path fill="none" stroke="#1D2132" stroke-width="0.1209" stroke-linecap="square" stroke-miterlimit="10" d="M15.42,3.32
			c0.08-0.11,0.23-0.18,0.36-0.21"/>
		<path fill="none" stroke="#1D2132" stroke-width="0.1209" stroke-linecap="square" stroke-miterlimit="10" d="M20.08,3.31
			c0.64,0.76,0.99,1.74,0.99,2.76c0,0.01,0,0.04,0,0.05"/>
		<path fill="none" stroke="#1D2132" stroke-width="0.1209" stroke-linecap="square" stroke-miterlimit="10" d="M17.75,2.97
			c0.66,0,1.32,0.06,1.97,0.15"/>
		<path fill="none" stroke="#1D2132" stroke-width="0.1209" stroke-linecap="square" stroke-miterlimit="10" d="M19.72,3.13
			c0.13,0.02,0.27,0.08,0.36,0.21"/>
		<path fill="none" stroke="#1D2132" stroke-width="0.1209" stroke-linecap="square" stroke-miterlimit="10" d="M21.24,5.64
			c0,0.02,0,0.06,0,0.07c0,0.57-0.24,1.11-0.66,1.46"/>
		<path fill="none" stroke="#1D2132" stroke-width="0.1209" stroke-linecap="square" stroke-miterlimit="10" d="M20.59,7.19
			c-0.15,0.12-0.3,0.23-0.46,0.31"/>
		<path fill="none" stroke="#1D2132" stroke-width="0.1209" stroke-linecap="square" stroke-miterlimit="10" d="M15.38,7.5
			c-0.17-0.08-0.33-0.19-0.46-0.31"/>
		<path fill="none" stroke="#1D2132" stroke-width="0.1209" stroke-linecap="square" stroke-miterlimit="10" d="M17.51,8.11
			c-0.74-0.06-1.46-0.27-2.12-0.6"/>
		<path fill="none" stroke="#1D2132" stroke-width="0.1209" stroke-linecap="square" stroke-miterlimit="10" d="M18.72,7.6
			c-0.31,0.07-0.64,0.12-0.97,0.12c-0.33,0-0.65-0.05-0.97-0.12"/>
		<path fill="none" stroke="#1D2132" stroke-width="0.1209" stroke-linecap="square" stroke-miterlimit="10" d="M20.83,5.83
			c0,0.02,0,0.05,0,0.07c0,0.33-0.13,0.63-0.36,0.85"/>
		<path fill="none" stroke="#1D2132" stroke-width="0.1209" stroke-linecap="square" stroke-miterlimit="10" d="M20.46,6.75
			c-0.51,0.42-1.1,0.71-1.74,0.85"/>
		<path fill="none" stroke="#1D2132" stroke-width="0.1209" stroke-linecap="square" stroke-miterlimit="10" d="M15.04,6.75
			c-0.23-0.22-0.36-0.52-0.36-0.85c0-0.02,0-0.05,0-0.07"/>
		<path fill="none" stroke="#1D2132" stroke-width="0.1209" stroke-linecap="square" stroke-miterlimit="10" d="M16.78,7.6
			c-0.64-0.12-1.25-0.4-1.75-0.85"/>
		<path fill="none" stroke="#1D2132" stroke-width="0.1209" stroke-linecap="square" stroke-miterlimit="10" d="M17.75,4.55
			c-0.24,0-0.45,0.22-0.45,0.48c0,0.27,0.21,0.48,0.45,0.48c0.24,0,0.45-0.22,0.45-0.48C18.21,4.77,17.99,4.55,17.75,4.55"/>
		<path fill="none" stroke="#1D2132" stroke-width="0.1209" stroke-linecap="square" stroke-miterlimit="10" d="M17.75,4.77
			c-0.13,0-0.24,0.11-0.24,0.25c0,0.15,0.11,0.25,0.24,0.25c0.13,0,0.24-0.11,0.24-0.25C17.99,4.89,17.88,4.77,17.75,4.77"/>
	</g>
	<g>
		<polygon fill="#FFFFFF" points="1.87,8.25 1.87,5.98 3.46,5.98 3.48,5.98 3.5,5.99 3.52,5.99 3.54,6 3.56,6 3.58,6.01 3.6,6.03 
			3.62,6.04 3.63,6.05 3.65,6.06 3.66,6.08 3.67,6.1 3.68,6.1 3.69,6.12 3.7,6.14 3.71,6.17 7.92,6.17 8.03,6.18 8.13,6.18 
			8.24,6.19 8.33,6.21 8.43,6.24 8.53,6.25 8.62,6.31 8.72,6.34 8.81,6.39 8.89,6.43 8.98,6.49 9.05,6.55 9.14,6.62 9.21,6.68 
			9.28,6.76 9.35,6.83 9.42,6.91 9.47,6.98 9.53,7.05 9.57,7.14 9.63,7.23 9.67,7.32 9.71,7.4 9.74,7.49 9.78,7.59 9.8,7.67 
			9.83,7.77 9.85,7.87 9.86,7.96 9.87,8.06 9.87,8.16 9.87,8.25 9.87,8.35 9.87,8.45 9.86,8.54 9.85,8.64 9.83,8.74 9.8,8.82 
			9.78,8.92 9.74,9.02 9.71,9.1 9.67,9.2 9.63,9.29 9.57,9.36 9.53,9.45 9.47,9.52 9.42,9.61 9.35,9.69 9.28,9.75 9.21,9.83 
			9.14,9.89 9.05,9.97 8.98,10.02 8.89,10.07 8.81,10.12 8.72,10.17 8.62,10.2 8.53,10.25 8.43,10.27 8.33,10.3 8.24,10.32 
			8.13,10.34 8.03,10.34 7.92,10.34 3.71,10.34 3.7,10.36 3.69,10.39 3.68,10.41 3.67,10.42 3.66,10.43 3.65,10.45 3.63,10.46 
			3.62,10.48 3.6,10.49 3.58,10.49 3.56,10.49 3.54,10.49 3.52,10.52 3.5,10.52 3.48,10.53 3.46,10.53 1.87,10.53 		"/>
		
			<line fill="none" stroke="#1D2132" stroke-width="0.1077" stroke-linecap="square" stroke-miterlimit="10" x1="3.71" y1="6.17" x2="7.92" y2="6.17"/>
		
			<line fill="none" stroke="#1D2132" stroke-width="0.1077" stroke-linecap="square" stroke-miterlimit="10" x1="1.87" y1="5.98" x2="1.87" y2="10.53"/>
		
			<line fill="none" stroke="#1D2132" stroke-width="0.1077" stroke-linecap="square" stroke-miterlimit="10" x1="1.87" y1="5.98" x2="3.46" y2="5.98"/>
		
			<line fill="none" stroke="#1D2132" stroke-width="0.1077" stroke-linecap="square" stroke-miterlimit="10" x1="4.46" y1="8.25" x2="4.46" y2="9.94"/>
		
			<line fill="none" stroke="#1D2132" stroke-width="0.1077" stroke-linecap="square" stroke-miterlimit="10" x1="7.92" y1="6.17" x2="4.46" y2="6.57"/>
		
			<line fill="none" stroke="#1D2132" stroke-width="0.1077" stroke-linecap="square" stroke-miterlimit="10" x1="4.46" y1="8.25" x2="4.46" y2="6.57"/>
		
			<line fill="none" stroke="#1D2132" stroke-width="0.1077" stroke-linecap="square" stroke-miterlimit="10" x1="7.92" y1="10.34" x2="4.46" y2="9.94"/>
		
			<line fill="none" stroke="#1D2132" stroke-width="0.1077" stroke-linecap="square" stroke-miterlimit="10" x1="3.71" y1="10.34" x2="7.92" y2="10.34"/>
		
			<line fill="none" stroke="#1D2132" stroke-width="0.1077" stroke-linecap="square" stroke-miterlimit="10" x1="1.87" y1="10.53" x2="3.46" y2="10.53"/>
		<path fill="none" stroke="#1D2132" stroke-width="0.1077" stroke-linecap="square" stroke-miterlimit="10" d="M3.72,10.29
			C3.8,9.61,3.83,8.93,3.83,8.25c0-0.68-0.04-1.36-0.12-2.03"/>
		<path fill="none" stroke="#1D2132" stroke-width="0.1077" stroke-linecap="square" stroke-miterlimit="10" d="M3.72,6.22
			C3.7,6.09,3.58,5.98,3.46,5.98"/>
		<path fill="none" stroke="#1D2132" stroke-width="0.1077" stroke-linecap="square" stroke-miterlimit="10" d="M7.92,10.34
			c1.08,0,1.95-0.94,1.95-2.09S9,6.17,7.92,6.17"/>
		<path fill="none" stroke="#1D2132" stroke-width="0.1077" stroke-linecap="square" stroke-miterlimit="10" d="M3.46,10.53
			c0.13,0,0.26-0.11,0.27-0.24"/>
		<path fill="none" stroke="#1D2132" stroke-width="0.1077" stroke-linecap="square" stroke-miterlimit="10" d="M2.66,8.25
			c0-0.12,0.11-0.22,0.23-0.22c0.12,0,0.23,0.1,0.23,0.22c0,0.12-0.11,0.22-0.23,0.22C2.76,8.46,2.66,8.37,2.66,8.25"/>
	</g>
	<g>
		<path fill="#FFFFFF" d="M22.26,15.45V6.6c0-0.05,0.03-0.09,0.09-0.09h8.82c0.05,0,0.09,0.03,0.09,0.09v8.84
			c0,0.05-0.03,0.09-0.09,0.09h-8.84C22.31,15.52,22.26,15.48,22.26,15.45z"/>
		
			<line fill="none" stroke="#1D2132" stroke-width="0.1096" stroke-linecap="square" stroke-miterlimit="10" x1="28.98" y1="7.94" x2="28.98" y2="8.52"/>
		
			<line fill="none" stroke="#1D2132" stroke-width="0.1096" stroke-linecap="square" stroke-miterlimit="10" x1="29.24" y1="8.76" x2="29.82" y2="8.76"/>
		
			<line fill="none" stroke="#1D2132" stroke-width="0.1096" stroke-linecap="square" stroke-miterlimit="10" x1="28.98" y1="9.01" x2="28.98" y2="9.58"/>
		
			<line fill="none" stroke="#1D2132" stroke-width="0.1096" stroke-linecap="square" stroke-miterlimit="10" x1="28.16" y1="8.76" x2="28.74" y2="8.76"/>
		
			<line fill="none" stroke="#1D2132" stroke-width="0.1096" stroke-linecap="square" stroke-miterlimit="10" x1="22.77" y1="7.05" x2="22.77" y2="9.46"/>
		
			<line fill="none" stroke="#1D2132" stroke-width="0.1096" stroke-linecap="square" stroke-miterlimit="10" x1="30.79" y1="9.36" x2="30.79" y2="14.88"/>
		<path fill="none" stroke="#1D2132" stroke-width="0.1096" stroke-linecap="square" stroke-miterlimit="10" d="M22.77,7.05v7.78
			c0,0.08,0.07,0.14,0.14,0.14h7.78"/>
		
			<line fill="none" stroke="#1D2132" stroke-width="0.1096" stroke-linecap="square" stroke-miterlimit="10" x1="22.87" y1="6.95" x2="28.38" y2="6.95"/>
		<g>
			<path fill="none" stroke="#1D2132" stroke-width="0.1096" stroke-linecap="square" stroke-miterlimit="10" d="M28.54,6.97
				c-0.04-0.02-0.11-0.03-0.15-0.03"/>
		</g>
		<g>
			<path fill="none" stroke="#1D2132" stroke-width="0.1096" stroke-linecap="square" stroke-miterlimit="10" d="M22.87,6.95
				c-0.05,0-0.1,0.04-0.1,0.1"/>
		</g>
		<g>
			<path fill="none" stroke="#1D2132" stroke-width="0.1096" stroke-linecap="square" stroke-miterlimit="10" d="M28.54,6.97
				c-0.04-0.02-0.11-0.03-0.15-0.03"/>
		</g>
		<g>
			<path fill="none" stroke="#1D2132" stroke-width="0.1096" stroke-linecap="square" stroke-miterlimit="10" d="M30.69,14.97
				c0.05,0,0.1-0.04,0.1-0.1"/>
		</g>
		<g>
			<path fill="none" stroke="#1D2132" stroke-width="0.1096" stroke-linecap="square" stroke-miterlimit="10" d="M30.78,9.26
				c-0.5-0.99-1.32-1.79-2.31-2.31"/>
		</g>
		<g>
			<path fill="none" stroke="#1D2132" stroke-width="0.1096" stroke-linecap="square" stroke-miterlimit="10" d="M30.79,9.36
				c0-0.05-0.01-0.11-0.02-0.16"/>
		</g>
		<g>
			<path fill="none" stroke="#1D2132" stroke-width="0.1096" stroke-linecap="square" stroke-miterlimit="10" d="M30.77,9.21
				c-0.35-1.05-1.18-1.87-2.23-2.23"/>
		</g>
		<g>
			<path fill="none" stroke="#1D2132" stroke-width="0.1096" stroke-linecap="square" stroke-miterlimit="10" d="M30.79,9.36
				c0-0.05-0.01-0.11-0.02-0.16"/>
		</g>
		<g>
			<path fill="none" stroke="#1D2132" stroke-width="0.1096" stroke-linecap="square" stroke-miterlimit="10" d="M28.98,8.3
				c0.24,0,0.45,0.21,0.45,0.45C29.45,9,29.24,9.2,28.98,9.2c-0.24,0-0.45-0.21-0.45-0.45C28.54,8.52,28.74,8.3,28.98,8.3"/>
		</g>
		<g>
			<path fill="none" stroke="#1D2132" stroke-width="0.1096" stroke-linecap="square" stroke-miterlimit="10" d="M28.98,8.12
				c0.35,0,0.64,0.29,0.64,0.64s-0.29,0.64-0.64,0.64s-0.64-0.29-0.64-0.64C28.36,8.41,28.63,8.12,28.98,8.12"/>
		</g>
		<path fill="none" stroke="#1D2132" stroke-width="0.1096" stroke-linecap="square" stroke-miterlimit="10" d="M22.26,15.25V6.72
			c0-0.13,0.11-0.24,0.24-0.24h8.52c0.13,0,0.24,0.11,0.24,0.24v8.51c0,0.13-0.11,0.24-0.24,0.24h-8.52
			C22.37,15.48,22.26,15.37,22.26,15.25z"/>
	</g>
	<g>
		<g>
			<path fill="#FFFFFF" stroke="#1D2132" stroke-width="0.1107" stroke-linecap="square" stroke-miterlimit="10" d="M7.65,13.96
				c0.09,0,0.17-0.1,0.17-0.21c0-0.12-0.08-0.21-0.17-0.21s-0.17,0.1-0.17,0.21S7.55,13.96,7.65,13.96z"/>
			
				<ellipse fill="#FFFFFF" stroke="#1D2132" stroke-width="0.1107" stroke-linecap="square" stroke-miterlimit="10" cx="7.65" cy="14.66" rx="0.17" ry="0.21"/>
			<path fill="#FFFFFF" stroke="#1D2132" stroke-width="0.1107" stroke-linecap="square" stroke-miterlimit="10" d="M7.65,18.63
				c0.09,0,0.17-0.1,0.17-0.21c0-0.11-0.08-0.21-0.17-0.21s-0.17,0.1-0.17,0.21C7.48,18.53,7.55,18.63,7.65,18.63z"/>
			<path fill="#FFFFFF" stroke="#1D2132" stroke-width="0.1107" stroke-linecap="square" stroke-miterlimit="10" d="M7.65,18.61
				c0,0.49-0.1,0.87-0.23,0.87H6.83c-0.13,0-0.23-0.39-0.23-0.87v-5.09c0-0.49,0.1-0.87,0.23-0.87h0.59c0.13,0,0.23,0.39,0.23,0.87
				V18.61z"/>
			
				<rect x="2.24" y="12.32" fill="#FFFFFF" stroke="#1D2132" stroke-width="0.1107" stroke-linecap="square" stroke-miterlimit="10" width="5.1" height="7.58"/>
			<path fill="#FFFFFF" stroke="#1D2132" stroke-width="0.1107" stroke-linecap="square" stroke-miterlimit="10" d="M7.07,18.61
				c0,0.49-0.83,0.86-1.86,0.86H4.37c-1.03,0-1.86-0.39-1.86-0.86v-5.09c0-0.49,0.83-0.86,1.86-0.86H5.2c1.03,0,1.86,0.39,1.86,0.86
				L7.07,18.61z"/>
		</g>
		<g>
			<path fill="#FFFFFF" stroke="#1D2132" stroke-width="0.1107" stroke-linecap="square" stroke-miterlimit="10" d="M3.12,18.5
				v-4.63c0-0.1-0.08-0.17-0.17-0.17l0,0c-0.1,0-0.17,0.08-0.17,0.17v4.63c0,0.1,0.08,0.17,0.17,0.17l0,0
				C3.03,18.66,3.12,18.6,3.12,18.5z"/>
			<g>
				
					<rect x="1.97" y="13.9" fill="#FFFFFF" stroke="#1D2132" stroke-width="0.1107" stroke-linecap="square" stroke-miterlimit="10" width="0.79" height="0.29"/>
				
					<rect x="1.97" y="18.2" fill="#FFFFFF" stroke="#1D2132" stroke-width="0.1107" stroke-linecap="square" stroke-miterlimit="10" width="0.79" height="0.29"/>
			</g>
			<g>
				
					<rect x="1.82" y="13.74" fill="#FFFFFF" stroke="#1D2132" stroke-width="0.1107" stroke-linecap="square" stroke-miterlimit="10" width="0.15" height="0.62"/>
				
					<rect x="1.82" y="18.04" fill="#FFFFFF" stroke="#1D2132" stroke-width="0.1107" stroke-linecap="square" stroke-miterlimit="10" width="0.15" height="0.62"/>
			</g>
		</g>
	</g>
</g>
<g id="Furniture">
	<g>
		
			<rect x="32.5" y="2.41" fill="#FFFFFF" stroke="#1D2132" stroke-width="0.1" stroke-linecap="square" stroke-miterlimit="22.9256" width="7.28" height="15.36"/>
		
			<rect x="32.5" y="8.49" fill="#FFFFFF" stroke="#1D2132" stroke-width="0.1" stroke-linecap="square" stroke-miterlimit="22.9256" width="7.28" height="6.34"/>
		
			<rect x="32.5" y="2.39" fill="#FFFFFF" stroke="#1D2132" stroke-width="0.1" stroke-linecap="square" stroke-miterlimit="22.9256" width="7.28" height="6.12"/>
		
			<rect x="32.5" y="14.85" fill="#FFFFFF" stroke="#1D2132" stroke-width="0.1" stroke-linecap="square" stroke-miterlimit="22.9256" width="7.28" height="4.86"/>
		<g>
			
				<line fill="none" stroke="#1D2132" stroke-width="0.1" stroke-linecap="square" stroke-miterlimit="22.9256" x1="35.21" y1="11.7" x2="37.03" y2="11.7"/>
			
				<line fill="none" stroke="#1D2132" stroke-width="0.1" stroke-linecap="square" stroke-miterlimit="22.9256" x1="35.47" y1="12.33" x2="36.76" y2="11.05"/>
			
				<line fill="none" stroke="#1D2132" stroke-width="0.1" stroke-linecap="square" stroke-miterlimit="22.9256" x1="36.11" y1="12.6" x2="36.11" y2="10.78"/>
			
				<line fill="none" stroke="#1D2132" stroke-width="0.1" stroke-linecap="square" stroke-miterlimit="22.9256" x1="36.76" y1="12.33" x2="35.47" y2="11.05"/>
		</g>
		<g>
			
				<rect x="33.16" y="15.28" fill="#FFFFFF" stroke="#1D2132" stroke-width="0.1" stroke-linecap="square" stroke-miterlimit="22.9256" width="5.92" height="3.77"/>
			<g>
				<path fill="#FFFFFF" stroke="#1D2132" stroke-width="0.1" stroke-linecap="square" stroke-miterlimit="22.9256" d="M37.46,16.12
					c-0.57,0-1.03,0.46-1.03,1.03c0,0.57,0.46,1.03,1.03,1.03s1.03-0.46,1.03-1.03C38.5,16.59,38.03,16.12,37.46,16.12"/>
				<path fill="#FFFFFF" stroke="#1D2132" stroke-width="0.1" stroke-linecap="square" stroke-miterlimit="22.9256" d="M34.54,16.12
					c-0.57,0-1.03,0.46-1.03,1.03c0,0.57,0.46,1.03,1.03,1.03s1.03-0.46,1.03-1.03C35.57,16.59,35.12,16.12,34.54,16.12"/>
				<path fill="#FFFFFF" stroke="#1D2132" stroke-width="0.1" stroke-linecap="square" stroke-miterlimit="22.9256" d="M37.46,16.33
					c-0.45,0-0.82,0.37-0.82,0.82s0.37,0.82,0.82,0.82s0.82-0.37,0.82-0.82S37.91,16.33,37.46,16.33"/>
				<path fill="#FFFFFF" stroke="#1D2132" stroke-width="0.1" stroke-linecap="square" stroke-miterlimit="22.9256" d="M34.54,16.33
					c-0.45,0-0.82,0.37-0.82,0.82s0.37,0.82,0.82,0.82s0.82-0.37,0.82-0.82S35,16.33,34.54,16.33"/>
			</g>
		</g>
		<g>
			<path fill="#FFFFFF" stroke="#1D2132" stroke-width="0.1" stroke-linecap="square" stroke-miterlimit="22.9256" d="M33.85,6.88
				v-2.8c0-0.24,0.18-0.42,0.42-0.42h4.63c0.24,0,0.42,0.18,0.42,0.42v2.8c0,0.24-0.18,0.42-0.42,0.42h-4.63
				C34.03,7.3,33.85,7.12,33.85,6.88z"/>
			<g>
				<path fill="#FFFFFF" stroke="#1D2132" stroke-width="0.1" stroke-linecap="square" stroke-miterlimit="22.9256" d="M34.88,5.19
					c0.18,0,0.33,0.13,0.33,0.3c0,0.17-0.15,0.3-0.33,0.3c-0.18,0-0.33-0.13-0.33-0.3C34.55,5.32,34.7,5.18,34.88,5.19z"/>
				<g>
					<path fill="#FFFFFF" stroke="#1D2132" stroke-width="0.1" stroke-linecap="square" stroke-miterlimit="22.9256" d="M33.39,4.98
						c0.25,0.01,0.45,0.23,0.45,0.5c0,0.28-0.2,0.5-0.45,0.5s-0.45-0.22-0.45-0.5S33.14,4.98,33.39,4.98z"/>
					<path fill="#FFFFFF" stroke="#1D2132" stroke-width="0.1" stroke-linecap="square" stroke-miterlimit="22.9256" d="M35.96,5.49
						c0,0.09-0.1,0.15-0.24,0.15l-2.37-0.01c-0.13,0-0.24-0.07-0.24-0.15l0,0c0-0.09,0.1-0.15,0.24-0.15l2.37,0.01
						C35.86,5.34,35.96,5.4,35.96,5.49L35.96,5.49z"/>
					<path fill="#FFFFFF" stroke="#1D2132" stroke-width="0.1" stroke-linecap="square" stroke-miterlimit="22.9256" d="M33.41,4.79
						c0.08,0,0.13,0.31,0.13,0.69c0,0.38-0.07,0.69-0.14,0.69c-0.09,0-0.14-0.31-0.14-0.69C33.26,5.1,33.33,4.78,33.41,4.79z"/>
				</g>
			</g>
		</g>
	</g>
	<g>
		
			<rect x="18.09" y="31.08" transform="matrix(-1 -4.481583e-11 4.481583e-11 -1 56.19 68.6842)" fill="#FFFFFF" stroke="#1D2132" stroke-width="0.1" stroke-linecap="square" stroke-miterlimit="10" width="20.01" height="6.53"/>
		<g>
			<path fill="#FFFFFF" stroke="#1D2132" stroke-width="0.1" stroke-linecap="square" stroke-miterlimit="10" d="M28,33.41v-0.3
				c-0.01-0.02-0.06-0.05-0.1-0.08c-0.13-0.09-0.34-0.22-0.39-0.51c-0.04-0.21,0.04-0.41,0.21-0.53c0.18-0.12,0.42-0.14,0.62-0.04
				c0.32,0.16,0.36,0.48,0.34,0.63c-0.01,0.05-0.06,0.08-0.11,0.08c-0.05-0.01-0.09-0.05-0.08-0.1c0,0,0.04-0.3-0.24-0.44
				c-0.14-0.07-0.31-0.06-0.42,0.02c-0.11,0.08-0.16,0.21-0.13,0.35c0.04,0.21,0.19,0.31,0.31,0.39c0.09,0.06,0.18,0.12,0.18,0.22
				v0.3c0,0.05-0.04,0.09-0.09,0.09C28.04,33.5,28,33.46,28,33.41z M28,33.11L28,33.11L28,33.11z"/>
			<path fill="#FFFFFF" stroke="#1D2132" stroke-width="0.1" stroke-linecap="square" stroke-miterlimit="10" d="M24.37,35.32
				c-0.06-0.22,0.04-0.45,0.25-0.55c0,0,0.01,0,0.01-0.01l2.9-1.33c0.02-0.01,0.05-0.01,0.07-0.01h0.98c0.03,0,0.05,0.01,0.07,0.01
				l2.9,1.33c0,0,0.01,0,0.01,0.01c0.21,0.11,0.31,0.33,0.25,0.55c-0.06,0.22-0.32,0.17-0.56,0.17h-6.34
				C24.69,35.49,24.43,35.54,24.37,35.32z M28.54,34.24h-0.9l-3.06,0.85c-0.08,0.04-0.07,0.12-0.06,0.14
				c0.01,0.02,0.03,0.1,0.13,0.1h6.89c0.1,0,0.12-0.07,0.13-0.1c0.01-0.02,0.02-0.1-0.06-0.14L28.54,34.24z"/>
		</g>
	</g>
	<g>
		<g>
			
				<rect x="73.19" y="21.76" transform="matrix(-4.485408e-11 1 -1 -4.485408e-11 110.7859 -40.2631)" fill="#FFFFFF" stroke="#1D2132" stroke-width="0.1" stroke-linecap="square" stroke-miterlimit="10" width="4.66" height="27"/>
			<g>
				<polygon fill="#FFFFFF" stroke="#1D2132" stroke-width="0.1" stroke-linecap="square" stroke-miterlimit="10" points="
					64.73,32.93 64.24,32.93 64.24,32.46 67.04,32.46 67.04,32.93 66.55,32.93 66.55,32.62 64.73,32.62 				"/>
				<polygon fill="#FFFFFF" stroke="#1D2132" stroke-width="0.1" stroke-linecap="square" stroke-miterlimit="10" points="
					84.5,32.93 84.01,32.93 84.01,32.46 86.81,32.46 86.81,32.93 86.32,32.93 86.32,32.62 84.5,32.62 				"/>
			</g>
			<g>
				<polygon fill="#FFFFFF" stroke="#1D2132" stroke-width="0.1" stroke-linecap="square" stroke-miterlimit="10" points="
					69.92,32.93 69.44,32.93 69.44,32.46 72.23,32.46 72.23,32.93 71.75,32.93 71.75,32.62 69.92,32.62 				"/>
				<polygon fill="#FFFFFF" stroke="#1D2132" stroke-width="0.1" stroke-linecap="square" stroke-miterlimit="10" points="
					79.3,32.93 78.82,32.93 78.82,32.46 81.61,32.46 81.61,32.93 81.13,32.93 81.13,32.62 79.3,32.62 				"/>
			</g>
		</g>
		<g>
			<path fill="#FFFFFF" stroke="#1D2132" stroke-width="0.1" stroke-linecap="square" stroke-miterlimit="10" d="M77.26,35.79v-0.12
				c0-0.49-0.39-0.88-0.88-0.88h-1.71c-0.49,0-0.88,0.39-0.88,0.88v0.12c0,0.49,0.39,0.88,0.88,0.88h1.71
				C76.87,36.67,77.26,36.28,77.26,35.79z"/>
			<path fill="#FFFFFF" stroke="#1D2132" stroke-width="0.1" stroke-linecap="square" stroke-miterlimit="10" d="M76.62,35.54v-0.05
				c0-0.2-0.16-0.36-0.36-0.36h-1.46c-0.2,0-0.36,0.16-0.36,0.36v0.05c0,0.2,0.16,0.36,0.36,0.36h1.46
				C76.46,35.91,76.62,35.74,76.62,35.54z"/>
			
				<rect x="75.44" y="29.07" transform="matrix(-4.571384e-11 1 -1 -4.571384e-11 110.7281 -40.3209)" fill="#FFFFFF" stroke="#1D2132" stroke-width="0.1" stroke-linecap="square" stroke-miterlimit="10" width="0.16" height="12.27"/>
			<polygon fill="#FFFFFF" stroke="#1D2132" stroke-width="0.1" stroke-linecap="square" stroke-miterlimit="10" points="
				79.89,35.6 81.66,35.28 69.39,35.28 71.16,35.6 			"/>
		</g>
	</g>
	<g>
		<g>
			<path fill="#FFFFFF" stroke="#1D2132" stroke-width="0.1" stroke-linecap="square" stroke-miterlimit="10" d="M47.41,10.97
				c-0.94-0.08-3.23-0.22-3.7-0.41c-0.42-0.16-0.44-0.9-0.44-1.97c0-1.07,0.03-1.81,0.44-1.97c0.47-0.18,2.76-0.32,3.7-0.4
				c0.94-0.08,1.23,0.16,1.36,0.71c0.13,0.54,0.1,1.22,0.1,1.67c0,0.44,0.02,1.13-0.11,1.67C48.64,10.81,48.35,11.05,47.41,10.97z
				 M44.69,9.31c0.09,0-0.02-0.18-0.02-0.72c0-0.53,0.11-0.72,0.02-0.72c-0.08,0-0.18,0.02-0.22,0.07
				c-0.03,0.05-0.07,0.32-0.07,0.65c0,0.32,0.03,0.6,0.07,0.65C44.51,9.3,44.62,9.31,44.69,9.31z"/>
			<path fill="#FFFFFF" stroke="#1D2132" stroke-width="0.1" stroke-linecap="square" stroke-miterlimit="10" d="M47.46,10.97
				c-0.91-0.08-3.14-0.22-3.6-0.41c-0.4-0.16-0.43-0.9-0.43-1.97c0-1.07,0.03-1.81,0.43-1.97c0.46-0.18,2.68-0.32,3.6-0.4
				c0.91-0.08,1.19,0.16,1.32,0.71c0.12,0.54,0.1,1.22,0.1,1.67c0,0.44,0.02,1.13-0.1,1.67C48.65,10.81,48.37,11.05,47.46,10.97z
				 M44.81,9.31c0.09,0-0.02-0.18-0.02-0.72c0-0.53,0.1-0.72,0.02-0.72c-0.08,0-0.17,0.02-0.21,0.07c-0.03,0.05-0.06,0.32-0.06,0.65
				c0,0.32,0.03,0.6,0.06,0.65C44.64,9.3,44.74,9.31,44.81,9.31z"/>
			<path fill="#FFFFFF" stroke="#1D2132" stroke-width="0.1" stroke-linecap="square" stroke-miterlimit="10" d="M47.75,6.4
				c-0.73,0.07-1.72,0.05-2.09,0.22c-0.32,0.15-0.63,0.99-0.63,1.98c0,0.99,0.3,1.83,0.63,1.98c0.36,0.17,1.36,0.15,2.08,0.22
				c0.73,0.07,0.95-0.14,1.05-0.65c0.1-0.5,0.08-1.13,0.08-1.55c0-0.41,0.02-1.05-0.08-1.55C48.7,6.54,48.48,6.32,47.75,6.4z"/>
		</g>
		<g>
			<path fill="#FFFFFF" stroke="#1D2132" stroke-width="0.1" stroke-linecap="square" stroke-miterlimit="10" d="M55.79,12.68
				c0.8,0.5,2.77,1.67,3.11,2.05c0.3,0.33-0.02,1-0.51,1.95c-0.49,0.95-0.85,1.6-1.29,1.55c-0.5-0.05-2.6-0.97-3.48-1.33
				c-0.87-0.36-1.02-0.7-0.89-1.25c0.13-0.54,0.47-1.14,0.67-1.53c0.2-0.4,0.5-1.02,0.86-1.44C54.62,12.25,54.99,12.18,55.79,12.68z
				 M57.45,15.39c-0.08-0.04-0.06,0.17-0.31,0.65c-0.24,0.47-0.43,0.59-0.35,0.63c0.07,0.03,0.17,0.07,0.23,0.04
				c0.05-0.03,0.21-0.26,0.35-0.55c0.15-0.29,0.25-0.55,0.24-0.61C57.61,15.48,57.52,15.42,57.45,15.39z"/>
			<path fill="#FFFFFF" stroke="#1D2132" stroke-width="0.1" stroke-linecap="square" stroke-miterlimit="10" d="M55.75,12.66
				c0.78,0.49,2.69,1.63,3.01,2c0.29,0.33-0.03,1-0.52,1.95c-0.49,0.95-0.85,1.6-1.28,1.56c-0.49-0.05-2.53-0.94-3.38-1.28
				c-0.85-0.35-0.99-0.68-0.85-1.23c0.13-0.54,0.47-1.14,0.67-1.53c0.2-0.4,0.5-1.02,0.85-1.44C54.62,12.25,54.97,12.17,55.75,12.66
				z M57.35,15.33c-0.08-0.04-0.06,0.17-0.31,0.65c-0.24,0.47-0.42,0.6-0.35,0.63c0.07,0.03,0.16,0.07,0.22,0.03
				c0.05-0.03,0.2-0.26,0.35-0.55c0.15-0.29,0.25-0.55,0.24-0.61C57.49,15.43,57.41,15.37,57.35,15.33z"/>
			<path fill="#FFFFFF" stroke="#1D2132" stroke-width="0.1" stroke-linecap="square" stroke-miterlimit="10" d="M53.41,16.59
				c0.68,0.27,1.55,0.74,1.95,0.76c0.35,0.01,1.01-0.59,1.46-1.48c0.45-0.88,0.57-1.77,0.35-2.05c-0.25-0.32-1.14-0.75-1.75-1.15
				c-0.61-0.4-0.91-0.31-1.23,0.1c-0.32,0.4-0.59,0.97-0.78,1.34c-0.19,0.37-0.49,0.92-0.63,1.41
				C52.63,16.03,52.72,16.32,53.41,16.59z"/>
		</g>
		
			<rect x="40.57" y="10.27" transform="matrix(-5.714558e-11 1 -1 -5.714558e-11 64.0714 -38.2073)" fill="#FFFFFF" stroke="#1D2132" stroke-width="0.1" stroke-linecap="square" stroke-miterlimit="10" width="21.14" height="5.32"/>
	</g>
	<g>
		<path fill="#FFFFFF" stroke="#1D2132" stroke-width="0.1" stroke-linecap="square" stroke-miterlimit="10" d="M48.11,36.61
			c-0.73,0.08-2.27-0.43-2.37-1.55c-0.05-0.55-0.39-0.78-0.77-2.24c-0.17-0.63-0.55-1.7,0.05-2.91c0.61-1.21,2.06-2.12,4.91-1.26
			c2.84,0.86,3.57,3.41,2.66,4.78s-1.88,1.5-2.49,2S49.45,36.46,48.11,36.61z"/>
		<path fill="none" stroke="#1D2132" stroke-width="0.1" stroke-linecap="square" stroke-miterlimit="10" d="M45.02,29.9
			c0,0-0.29,1.1-0.09,1.68c0.39,1.17,0.12,1.03,0.74,2.43c0.19,0.42,0.51,0.36,0.52,0.45c0.01,0.09,0.15,0.71,0.8,0.96
			s1.14,0.45,1.87,0.28c0.45-0.1,0.75-0.39,0.78-0.53c0.06-0.25,0.22-0.06,0.95-0.38c1.03-0.45,1.22-0.74,1.63-1.29
			c0.41-0.56,0.59-0.64,0.66-1.22c0.07-0.59-0.06-1.08-0.06-1.08"/>
		<path fill="none" stroke="#1D2132" stroke-width="0.1" stroke-linecap="square" stroke-miterlimit="10" d="M46.11,31.38
			c0,0,0.65-0.03,0.79,0.31c0.14,0.34,0.28,0.54,0.34,0.64c0.06,0.1,0.06,0.1,0.06,0.1s-0.17,0.61-0.37,0.99
			c-0.2,0.38-0.29,0.44-0.29,0.44"/>
		<path fill="none" stroke="#1D2132" stroke-width="0.1" stroke-linecap="square" stroke-miterlimit="10" d="M47.3,32.43
			c0,0,0.44,0.07,1.06,0.2c0.62,0.13,1.28,0.48,1.28,0.48s-0.04,0.48-0.06,0.92c-0.02,0.44,0.05,0.67,0.05,0.67"/>
		<path fill="none" stroke="#1D2132" stroke-width="0.1" stroke-linecap="square" stroke-miterlimit="10" d="M51.57,32.93
			c0,0-0.29-0.46-0.58-0.62c-0.29-0.16-0.44-0.09-0.81,0.21c-0.37,0.31-0.55,0.6-0.55,0.6"/>
		<path fill="none" stroke="#1D2132" stroke-width="0.1" stroke-linecap="square" stroke-miterlimit="10" d="M47.25,30.35
			c0,0,0.85-0.24,1.3-0.15C49,30.28,49,30.28,49,30.28s0.08-0.06,0.15-0.27c0.07-0.21,0.06-0.36,0.06-0.36"/>
		<path fill="none" stroke="#1D2132" stroke-width="0.1" stroke-linecap="square" stroke-miterlimit="10" d="M49,30.28
			c0,0,0.4,0.26,0.76,0.34c0.37,0.09,0.73,0.32,0.82,0.47c0.1,0.15,0.1,0.15,0.1,0.15s0.22,0.02,0.36-0.12"/>
		<path fill="none" stroke="#1D2132" stroke-width="0.1" stroke-linecap="square" stroke-miterlimit="10" d="M47.25,30.35
			c0,0-0.18-0.24-0.17-0.4c0.01-0.16,0.06-0.3,0.06-0.3"/>
		<path fill="#FFFFFF" stroke="#1D2132" stroke-width="0.1" stroke-linecap="square" stroke-miterlimit="10" d="M46.83,35.14
			c0,0,0.1,0.04,0.06,0.08c-0.06,0.07-0.1,0.27-0.02,0.32c0.13,0.09,0.33,0.08,0.57,0.18c0.23,0.1,0.38,0.29,0.55,0.22
			c0.1-0.04,0.06-0.31,0.09-0.35c0.02-0.03,0.12,0.02,0.12,0.02l-0.1,0.4c0,0-0.16,0.19-0.41,0.1c-0.26-0.09-0.42-0.12-0.66-0.22
			c-0.23-0.1-0.42-0.14-0.39-0.39C46.66,35.27,46.83,35.14,46.83,35.14z"/>
	</g>
	<g>
		<path fill="#FFFFFF" stroke="#1D2132" stroke-width="0.1" stroke-linecap="square" stroke-miterlimit="10" d="M14.85,34.92
			c0.1-0.63,0.09-1.32,0-2.05c0-0.59-0.48-1.06-1.06-1.06c-1.26-0.22-2.6-0.35-4.32,0c-0.59,0-1.06,0.48-1.06,1.06
			c-0.17,0.68-0.17,1.37,0,2.05c0,0.59,0.48,1.06,1.06,1.06c1.4,0.21,2.85,0.16,4.32,0C14.37,35.98,14.85,35.51,14.85,34.92z"/>
		<g>
			<path fill="#FFFFFF" stroke="#1D2132" stroke-width="0.1" stroke-linecap="square" stroke-miterlimit="10" d="M9.25,32.03
				c-0.33,0-0.59,0.29-0.59,0.64"/>
			<path fill="#FFFFFF" stroke="#1D2132" stroke-width="0.1" stroke-linecap="square" stroke-miterlimit="10" d="M14.6,32.67
				c0-0.35-0.27-0.64-0.59-0.64"/>
			<path fill="#FFFFFF" stroke="#1D2132" stroke-width="0.1" stroke-linecap="square" stroke-miterlimit="10" d="M14.01,35.76
				c0.33,0,0.59-0.29,0.59-0.64"/>
			<path fill="#FFFFFF" stroke="#1D2132" stroke-width="0.1" stroke-linecap="square" stroke-miterlimit="10" d="M8.66,35.12
				c0,0.35,0.27,0.64,0.59,0.64"/>
		</g>
	</g>
	<g>
		<g>
			
				<rect x="11.09" y="33.96" transform="matrix(6.731079e-07 1 -1 6.731079e-07 48.7084 25.9589)" fill="#FFFFFF" stroke="#1D2132" stroke-width="0.1" stroke-linecap="square" stroke-miterlimit="10" width="0.56" height="6.74"/>
			
				<rect x="11.21" y="34.22" transform="matrix(6.731210e-07 1 -1 6.731210e-07 48.5948 25.8452)" fill="#FFFFFF" stroke="#1D2132" stroke-width="0.1" stroke-linecap="square" stroke-miterlimit="10" width="0.33" height="6"/>
		</g>
		
			<rect x="5.48" y="35.09" transform="matrix(6.731192e-07 1 -1 6.731192e-07 43.0907 31.5766)" fill="#FFFFFF" stroke="#1D2132" stroke-width="0.1" stroke-linecap="square" stroke-miterlimit="10" width="0.56" height="4.49"/>
		<g>
			
				<rect x="3.83" y="36.2" fill="#FFFFFF" stroke="#1D2132" stroke-width="0.1" stroke-linecap="square" stroke-miterlimit="10" width="0.25" height="0.85"/>
			
				<rect x="3.83" y="36.89" fill="#FFFFFF" stroke="#1D2132" stroke-width="0.1" stroke-linecap="square" stroke-miterlimit="10" width="0.25" height="0.16"/>
		</g>
		<g>
			
				<rect x="5.03" y="36.2" fill="#FFFFFF" stroke="#1D2132" stroke-width="0.1" stroke-linecap="square" stroke-miterlimit="10" width="0.25" height="0.85"/>
			
				<rect x="5.03" y="36.89" fill="#FFFFFF" stroke="#1D2132" stroke-width="0.1" stroke-linecap="square" stroke-miterlimit="10" width="0.25" height="0.16"/>
		</g>
		<g>
			
				<rect x="6.23" y="36.2" fill="#FFFFFF" stroke="#1D2132" stroke-width="0.1" stroke-linecap="square" stroke-miterlimit="10" width="0.25" height="0.85"/>
			
				<rect x="6.23" y="36.89" fill="#FFFFFF" stroke="#1D2132" stroke-width="0.1" stroke-linecap="square" stroke-miterlimit="10" width="0.25" height="0.16"/>
		</g>
		<g>
			
				<rect x="7.44" y="36.2" fill="#FFFFFF" stroke="#1D2132" stroke-width="0.1" stroke-linecap="square" stroke-miterlimit="10" width="0.25" height="0.85"/>
			
				<rect x="7.44" y="36.89" fill="#FFFFFF" stroke="#1D2132" stroke-width="0.1" stroke-linecap="square" stroke-miterlimit="10" width="0.25" height="0.16"/>
		</g>
	</g>
	<g>
		
			<circle fill="#FFFFFF" stroke="#1D2132" stroke-width="0.1" stroke-linecap="square" stroke-miterlimit="22.9256" cx="42.43" cy="34.86" r="1.48"/>
		
			<circle fill="#FFFFFF" stroke="#1D2132" stroke-width="0.1" stroke-linecap="square" stroke-miterlimit="22.9256" cx="42.43" cy="34.86" r="0.31"/>
		<path fill="#FFFFFF" stroke="#1D2132" stroke-width="0.1" stroke-linecap="square" stroke-miterlimit="22.9256" d="M43.54,29.69
			c0.15-0.33,0.72-0.39,1.27-0.14c0.56,0.25,0.89,0.72,0.74,1.04l0,0c-0.29,0.67-0.64,1.04-1.24,1.57l-1.12-0.5
			C43.17,30.85,43.21,30.34,43.54,29.69z"/>
		<path fill="#FFFFFF" stroke="#1D2132" stroke-width="0.1" stroke-linecap="square" stroke-miterlimit="22.9256" d="M43.9,31.58
			c0.31,0.14,0.5,0.4,0.41,0.58l-0.18,0.4l-1.12-0.5l0.18-0.4C43.28,31.47,43.59,31.44,43.9,31.58z"/>
		
			<ellipse transform="matrix(0.4092 -0.9125 0.9125 0.4092 -3.7385 58.8522)" fill="#FFFFFF" stroke="#1D2132" stroke-width="0.1" stroke-linecap="square" stroke-miterlimit="22.9256" cx="43.57" cy="32.31" rx="0.36" ry="0.62"/>
		<path fill="#FFFFFF" stroke="#1D2132" stroke-width="0.1" stroke-linecap="square" stroke-miterlimit="22.9256" d="M42.38,34.95
			l0.02,0.01c0.05,0.02,0.11,0,0.13-0.05l0.69-1.55c0.02-0.05,0-0.11-0.05-0.13l-0.02-0.01c-0.05-0.02-0.11,0-0.13,0.05l-0.69,1.55
			C42.31,34.87,42.33,34.93,42.38,34.95z"/>
		<path fill="#FFFFFF" stroke="#1D2132" stroke-width="0.1" stroke-linecap="square" stroke-miterlimit="22.9256" d="M42.77,34.08
			l0.02,0.01c0.05,0.02,0.11,0,0.13-0.05l0.69-1.55c0.02-0.05,0-0.11-0.05-0.13l-0.02-0.01c-0.05-0.02-0.11,0-0.13,0.05l-0.69,1.55
			C42.7,34,42.72,34.06,42.77,34.08z"/>
	</g>
	<g>
		<g>
			<g>
				
					<rect x="65.41" y="3.4" fill="#FFFFFF" stroke="#1D2132" stroke-width="0.1" stroke-linecap="square" stroke-miterlimit="22.9256" width="20.23" height="21.27"/>
				<path fill="#FFFFFF" stroke="#1D2132" stroke-width="0.1" stroke-linecap="square" stroke-miterlimit="22.9256" d="M65.64,4.95
					c0,0-0.04,0.55,0,1.08c0.07,0.89,0.11,1.45,0.11,2.37c0,0.92-0.13,1-0.02,1.14c0.11,0.14,0.13,0.35,0,0.57
					c-0.13,0.23-0.03,1.51-0.03,2.4c0,0.89-0.1,2.29-0.07,3.06c0.03,0.77,0.15,0.48,0.27,0.54c0.13,0.06-0.1,0.69-0.21,0.8
					c-0.11,0.11-0.06,0.61-0.08,2.3C65.6,20.9,65.73,21.1,65.7,22c-0.02,0.56,0,0.88,0.03,1.03c0.06,0.34-0.01,0.19-0.01,0.57
					c0.01,0.43,0.25-0.55,0.14-0.01c-0.07,0.37-0.22,0.73-0.11,0.64c0.11-0.09,0.31-0.45,0.37-0.5c0.06-0.06,0.25-0.35,0.19-0.12
					c-0.06,0.23-0.74,0.73-0.56,0.76c0.2,0.03,0.83,0.05,2.34,0.05c1.49,0,11.81,0,11.88-0.14c0.08-0.14,0.08-0.09,0.17,0
					c0.09,0.09,1.92-0.03,2.28,0.09c0.36,0.11,0.91,0.09,0.99-0.06c0.08-0.14,0.06-0.17,0.14-0.06c0.08,0.11,0.72,0.14,1.05,0.14
					c0.49,0,0.66,0.18,0.44-0.19c-0.22-0.37-0.2-0.66-0.05-0.43c0.14,0.23,0.18,0.54,0.27,0.6c0.09,0.06,0.07,0.27,0.09-0.33
					c0.02-0.6,0.1-2.88,0.07-4.02c-0.03-1.14,0.01-2.04-0.03-2.2c-0.1-0.44,0.06-1.07,0.02-2.06c-0.05-1.24-0.03-3.16-0.05-4.56
					c-0.02-1.4-0.02-1.8,0-2.83c0.02-1.03-0.21-1.42-0.1-1.75c0.22-0.64,0.03-0.92,0-1.4c-0.03-0.49,0.08-1.21,0.06-1.46
					c-0.02-0.19-0.35,0.55-0.49,0.43c-0.14-0.12,0.59-0.46,0.32-0.53c-0.27-0.07-3.72,0.07-3.99,0c-0.27-0.07-0.19,0-0.19,0
					s-0.8,0-1.38,0c-0.58,0-12.99,0-13.31,0c-0.31,0-0.63,0.06-0.31,0.19s-0.32-0.03-0.34,0.22C65.62,4.33,65.74,4.71,65.64,4.95z"
					/>
				<path fill="#FFFFFF" stroke="#1D2132" stroke-width="0.1" stroke-linecap="square" stroke-miterlimit="22.9256" d="M65.36,9.62
					c-0.09,0.66-0.04,3.85,0.05,3.85c0.08,0-0.21-1.09,0.35-1.73c0.56-0.63,1.17-1.1,1-0.89c-0.16,0.2-0.18,0.23-0.36,0.37
					c-0.18,0.14-0.36,0.2-0.26,0.26c0.1,0.06,0.7-0.1,1.23-0.26c0.67-0.21,2.37,0,3.13,0.05c1.93,0.13,12.78,0.48,13.98,1.34
					c1.2,0.86,1.1,1.01,1.16,1.29c0.07,0.29-0.06,1.18,0.05,0.72c0.11-0.44,0.01-1.36,0.09-2.23c0.08-0.89,0.18-1.18,0.05-1.24
					c-0.13-0.06-1.61-0.86-1.39-0.72c0.05,0.03,1.31,0.61,1.41,0.58c0.1-0.03,0.02-0.31,0-0.63c-0.03-0.43-0.03-0.43-0.08-0.43
					c-0.21,0-0.88-0.07-1.68-0.04c-0.81,0.03-0.1-0.17,0.35-0.06c0.44,0.11,0.05-0.12-0.77-0.35c-0.82-0.23-12.89,0.25-13.48,0.05
					c-0.59-0.2-2.6-0.46-3.34-0.12C66.08,9.79,65.42,9.13,65.36,9.62z"/>
				<g>
					<path fill="#FFFFFF" stroke="#1D2132" stroke-width="0.1" stroke-linecap="square" stroke-miterlimit="22.9256" d="M76.55,3.52
						c-0.31,0-0.23,0.05-0.16,0.15c0.08,0.1,0.12,0.24,0,0.88c-0.12,0.64-0.15,1.12,0.04,1.73c0.19,0.61,0.09,0.69,0.01,0.85
						c-0.08,0.16-0.04,0.29,0.19,0.16c0.23-0.13,0.91,0.06,1.46,0.08c2.13,0.1,3.07,0,4.56-0.07c0.32-0.02,0.59-0.12,0.75-0.09
						c0.15,0.03,0.35-0.03,0.23-0.13c-0.12-0.1,0.15-1.15,0.08-1.92c-0.08-0.77-0.03-1.2,0.01-1.3c0.04-0.1-0.08-0.38-0.23-0.26
						c-0.16,0.13-0.78-0.07-1.09-0.1c-0.31-0.03-0.98-0.13-2.64-0.1c-1.66,0.03-2.4,0.02-2.67,0.12
						C76.81,3.61,76.63,3.52,76.55,3.52z"/>
					<path fill="none" stroke="#1D2132" stroke-width="0.1" stroke-linecap="square" stroke-miterlimit="22.9256" d="M76.84,6.85
						c0,0,1.27,0.43,3.17,0.43c1.9,0,3.28-0.59,3.28-0.59"/>
				</g>
				<g>
					<path fill="#FFFFFF" stroke="#1D2132" stroke-width="0.1" stroke-linecap="square" stroke-miterlimit="22.9256" d="M77.49,5.57
						c-0.23,0-0.17,0.04-0.11,0.12c0.06,0.08,0.08,0.2,0,0.71c-0.08,0.52-0.11,0.91,0.03,1.4c0.14,0.49,0.06,0.56,0.01,0.68
						c-0.06,0.13-0.03,0.23,0.14,0.13c0.17-0.1,0.66,0.05,1.06,0.07c1.55,0.08,2.23,0,3.31-0.06c0.23-0.01,0.43-0.1,0.54-0.07
						c0.11,0.03,0.25-0.03,0.17-0.1c-0.08-0.08,0.11-0.93,0.06-1.55c-0.06-0.62-0.02-0.97,0-1.05c0.03-0.08-0.06-0.31-0.17-0.21
						c-0.11,0.1-0.57-0.06-0.79-0.08c-0.23-0.03-0.71-0.1-1.92-0.08c-1.21,0.03-1.74,0.02-1.94,0.09
						C77.68,5.65,77.55,5.57,77.49,5.57z"/>
					<path fill="none" stroke="#1D2132" stroke-width="0.1" stroke-linecap="square" stroke-miterlimit="22.9256" d="M77.71,8.27
						c0,0,0.92,0.35,2.3,0.35c1.38,0,2.38-0.48,2.38-0.48"/>
				</g>
				<g>
					<path fill="#FFFFFF" stroke="#1D2132" stroke-width="0.1" stroke-linecap="square" stroke-miterlimit="22.9256" d="M67.69,3.52
						c-0.31,0-0.23,0.05-0.16,0.15c0.08,0.1,0.12,0.24,0,0.88c-0.12,0.64-0.15,1.12,0.04,1.73c0.19,0.61,0.09,0.69,0.01,0.85
						c-0.08,0.16-0.04,0.29,0.19,0.16c0.23-0.13,0.91,0.06,1.46,0.08c2.13,0.1,3.07,0,4.56-0.07c0.32-0.02,0.59-0.12,0.75-0.09
						c0.15,0.03,0.35-0.03,0.23-0.13c-0.12-0.1,0.15-1.15,0.08-1.92c-0.08-0.77-0.03-1.2,0.01-1.3c0.04-0.1-0.08-0.38-0.23-0.26
						c-0.16,0.13-0.78-0.07-1.09-0.1c-0.31-0.03-0.98-0.13-2.64-0.1c-1.66,0.03-2.4,0.02-2.67,0.12
						C67.95,3.61,67.76,3.52,67.69,3.52z"/>
					<path fill="none" stroke="#1D2132" stroke-width="0.1" stroke-linecap="square" stroke-miterlimit="22.9256" d="M67.98,6.85
						c0,0,1.27,0.43,3.17,0.43c1.9,0,3.28-0.59,3.28-0.59"/>
				</g>
				<g>
					<path fill="#FFFFFF" stroke="#1D2132" stroke-width="0.1" stroke-linecap="square" stroke-miterlimit="22.9256" d="M68.63,5.57
						c-0.23,0-0.17,0.04-0.11,0.12c0.06,0.08,0.08,0.2,0,0.71c-0.08,0.52-0.11,0.91,0.03,1.4c0.14,0.49,0.06,0.56,0.01,0.68
						c-0.06,0.13-0.03,0.23,0.14,0.13c0.17-0.1,0.66,0.05,1.06,0.07c1.55,0.08,2.23,0,3.31-0.06c0.23-0.01,0.43-0.1,0.54-0.07
						c0.11,0.03,0.25-0.03,0.17-0.1c-0.08-0.08,0.11-0.93,0.06-1.55c-0.06-0.62-0.02-0.97,0-1.05c0.03-0.08-0.06-0.31-0.17-0.21
						c-0.11,0.1-0.57-0.06-0.79-0.08c-0.23-0.03-0.71-0.1-1.92-0.08c-1.21,0.03-1.74,0.02-1.94,0.09
						C68.82,5.65,68.69,5.57,68.63,5.57z"/>
					<path fill="none" stroke="#1D2132" stroke-width="0.1" stroke-linecap="square" stroke-miterlimit="22.9256" d="M68.84,8.27
						c0,0,0.92,0.35,2.3,0.35c1.38,0,2.38-0.48,2.38-0.48"/>
				</g>
				<path fill="#FFFFFF" stroke="#1D2132" stroke-width="0.1" stroke-linecap="square" stroke-miterlimit="22.9256" d="M85.11,24.46
					H65.78c-0.35,0-0.62-0.28-0.62-0.62v-4.86c0-0.35,0.28-0.62,0.62-0.62h19.33c0.35,0,0.62,0.28,0.62,0.62v4.86
					C85.74,24.18,85.46,24.46,85.11,24.46z"/>
			</g>
			<g>
				
					<rect x="62.04" y="2.41" fill="#FFFFFF" stroke="#1D2132" stroke-width="0.1" stroke-linecap="square" stroke-miterlimit="22.9256" width="26.97" height="0.56"/>
				<path fill="#FFFFFF" stroke="#1D2132" stroke-width="0.1" stroke-linecap="square" stroke-miterlimit="22.9256" d="M88.38,3.4
					H62.67c-0.22,0-0.39-0.18-0.39-0.39V2.97h26.5V3C88.77,3.22,88.6,3.4,88.38,3.4z"/>
				<g>
					<g>
						<g>
							<path fill="#FFFFFF" stroke="#1D2132" stroke-width="0.1" stroke-linecap="square" stroke-miterlimit="22.9256" d="
								M88.11,2.97h-0.85v0.14c0,0.22,0.17,0.39,0.39,0.39h0.07c0.22,0,0.39-0.17,0.39-0.39V2.97z"/>
							<path fill="#FFFFFF" stroke="#1D2132" stroke-width="0.1" stroke-linecap="square" stroke-miterlimit="22.9256" d="
								M85.01,6.12l0.64,0.15c0.03,0.36,0.02,0.72-0.05,1.07l0,0c-0.02,0.09-0.27,0.11-0.55,0.05c-0.28-0.07-0.5-0.2-0.47-0.29l0,0
								C84.65,6.76,84.8,6.43,85.01,6.12z"/>
							
								<ellipse transform="matrix(0.2315 -0.9728 0.9728 0.2315 59.5448 87.7667)" fill="#FFFFFF" stroke="#1D2132" stroke-width="0.1" stroke-linecap="square" stroke-miterlimit="22.9256" cx="85.32" cy="6.19" rx="0.11" ry="0.33"/>
							<path fill="#FFFFFF" stroke="#1D2132" stroke-width="0.1" stroke-linecap="square" stroke-miterlimit="22.9256" d="
								M85.41,6.16l0.03-0.07c0,0,0.15-0.36,0.67-0.62c0.1-0.05,0.21-0.1,0.32-0.14c0.34-0.14,0.72-0.3,0.97-0.63
								c0.34-0.43,0.34-1.11,0.34-1.13l0-0.07l-0.14,0l0,0.07c0,0.01,0,0.66-0.31,1.05c-0.23,0.3-0.58,0.44-0.92,0.58
								c-0.12,0.05-0.23,0.1-0.33,0.15c-0.58,0.29-0.73,0.68-0.74,0.7l-0.03,0.07C85.28,6.14,85.36,6.17,85.41,6.16z"/>
						</g>
					</g>
					<g>
						<g>
							<path fill="#FFFFFF" stroke="#1D2132" stroke-width="0.1" stroke-linecap="square" stroke-miterlimit="22.9256" d="
								M62.94,2.97h0.85v0.14c0,0.22-0.17,0.39-0.39,0.39h-0.07c-0.22,0-0.39-0.17-0.39-0.39V2.97z"/>
							<path fill="#FFFFFF" stroke="#1D2132" stroke-width="0.1" stroke-linecap="square" stroke-miterlimit="22.9256" d="
								M66.04,6.12l-0.64,0.15c-0.03,0.36-0.02,0.72,0.05,1.07l0,0c0.02,0.09,0.27,0.11,0.55,0.05c0.28-0.07,0.5-0.2,0.47-0.29l0,0
								C66.4,6.76,66.25,6.43,66.04,6.12z"/>
							
								<ellipse transform="matrix(0.9728 -0.2315 0.2315 0.9728 0.3514 15.3839)" fill="#FFFFFF" stroke="#1D2132" stroke-width="0.1" stroke-linecap="square" stroke-miterlimit="22.9256" cx="65.72" cy="6.19" rx="0.33" ry="0.11"/>
							<path fill="#FFFFFF" stroke="#1D2132" stroke-width="0.1" stroke-linecap="square" stroke-miterlimit="22.9256" d="
								M65.64,6.16l-0.03-0.07c0,0-0.15-0.36-0.67-0.62c-0.1-0.05-0.21-0.1-0.32-0.14c-0.34-0.14-0.72-0.3-0.97-0.63
								c-0.34-0.43-0.34-1.11-0.34-1.13l0-0.07l0.14,0l0,0.07c0,0.01,0,0.66,0.31,1.05c0.23,0.3,0.58,0.44,0.92,0.58
								c0.12,0.05,0.23,0.1,0.33,0.15c0.58,0.29,0.73,0.68,0.74,0.7l0.03,0.07C65.77,6.14,65.69,6.17,65.64,6.16z"/>
						</g>
					</g>
				</g>
			</g>
		</g>
	</g>
	<g>
		<g>
			
				<rect x="92.14" y="17.53" transform="matrix(6.123234e-17 -1 1 6.123234e-17 78.2995 113.9612)" fill="#FFFFFF" stroke="#1D2132" stroke-width="0.1" stroke-linecap="square" stroke-miterlimit="10" width="7.99" height="0.6"/>
			
				<line fill="none" stroke="#1D2132" stroke-width="0.1" stroke-linecap="square" stroke-miterlimit="10" x1="96.31" y1="21.2" x2="95.95" y2="21.2"/>
			
				<line fill="none" stroke="#1D2132" stroke-width="0.1" stroke-linecap="square" stroke-miterlimit="10" x1="96.31" y1="20.98" x2="95.95" y2="20.98"/>
			
				<line fill="none" stroke="#1D2132" stroke-width="0.1" stroke-linecap="square" stroke-miterlimit="10" x1="96.31" y1="21.63" x2="95.95" y2="21.63"/>
			
				<line fill="none" stroke="#1D2132" stroke-width="0.1" stroke-linecap="square" stroke-miterlimit="10" x1="96.31" y1="21.41" x2="95.95" y2="21.41"/>
			
				<line fill="none" stroke="#1D2132" stroke-width="0.1" stroke-linecap="square" stroke-miterlimit="10" x1="96.31" y1="20.77" x2="95.95" y2="20.77"/>
			
				<line fill="none" stroke="#1D2132" stroke-width="0.1" stroke-linecap="square" stroke-miterlimit="10" x1="96.31" y1="20.55" x2="95.95" y2="20.55"/>
			
				<line fill="none" stroke="#1D2132" stroke-width="0.1" stroke-linecap="square" stroke-miterlimit="10" x1="96.31" y1="20.33" x2="95.95" y2="20.33"/>
			
				<line fill="none" stroke="#1D2132" stroke-width="0.1" stroke-linecap="square" stroke-miterlimit="10" x1="96.31" y1="20.12" x2="95.95" y2="20.12"/>
			
				<line fill="none" stroke="#1D2132" stroke-width="0.1" stroke-linecap="square" stroke-miterlimit="10" x1="96.31" y1="19.9" x2="95.95" y2="19.9"/>
			
				<line fill="none" stroke="#1D2132" stroke-width="0.1" stroke-linecap="square" stroke-miterlimit="10" x1="96.31" y1="19.69" x2="95.95" y2="19.69"/>
			
				<line fill="none" stroke="#1D2132" stroke-width="0.1" stroke-linecap="square" stroke-miterlimit="10" x1="96.31" y1="19.04" x2="95.95" y2="19.04"/>
			
				<line fill="none" stroke="#1D2132" stroke-width="0.1" stroke-linecap="square" stroke-miterlimit="10" x1="96.31" y1="18.82" x2="95.95" y2="18.82"/>
			
				<line fill="none" stroke="#1D2132" stroke-width="0.1" stroke-linecap="square" stroke-miterlimit="10" x1="96.31" y1="19.47" x2="95.95" y2="19.47"/>
			
				<line fill="none" stroke="#1D2132" stroke-width="0.1" stroke-linecap="square" stroke-miterlimit="10" x1="96.31" y1="19.26" x2="95.95" y2="19.26"/>
			
				<line fill="none" stroke="#1D2132" stroke-width="0.1" stroke-linecap="square" stroke-miterlimit="10" x1="96.31" y1="18.61" x2="95.95" y2="18.61"/>
			
				<line fill="none" stroke="#1D2132" stroke-width="0.1" stroke-linecap="square" stroke-miterlimit="10" x1="96.31" y1="18.39" x2="95.95" y2="18.39"/>
			
				<line fill="none" stroke="#1D2132" stroke-width="0.1" stroke-linecap="square" stroke-miterlimit="10" x1="96.31" y1="18.18" x2="95.95" y2="18.18"/>
			
				<line fill="none" stroke="#1D2132" stroke-width="0.1" stroke-linecap="square" stroke-miterlimit="10" x1="96.31" y1="17.96" x2="95.95" y2="17.96"/>
			
				<line fill="none" stroke="#1D2132" stroke-width="0.1" stroke-linecap="square" stroke-miterlimit="10" x1="96.31" y1="17.75" x2="95.95" y2="17.75"/>
			
				<line fill="none" stroke="#1D2132" stroke-width="0.1" stroke-linecap="square" stroke-miterlimit="10" x1="96.31" y1="17.53" x2="95.95" y2="17.53"/>
			
				<line fill="none" stroke="#1D2132" stroke-width="0.1" stroke-linecap="square" stroke-miterlimit="10" x1="96.31" y1="16.88" x2="95.95" y2="16.88"/>
			
				<line fill="none" stroke="#1D2132" stroke-width="0.1" stroke-linecap="square" stroke-miterlimit="10" x1="96.31" y1="16.67" x2="95.95" y2="16.67"/>
			
				<line fill="none" stroke="#1D2132" stroke-width="0.1" stroke-linecap="square" stroke-miterlimit="10" x1="96.31" y1="17.31" x2="95.95" y2="17.31"/>
			
				<line fill="none" stroke="#1D2132" stroke-width="0.1" stroke-linecap="square" stroke-miterlimit="10" x1="96.31" y1="17.1" x2="95.95" y2="17.1"/>
			
				<line fill="none" stroke="#1D2132" stroke-width="0.1" stroke-linecap="square" stroke-miterlimit="10" x1="96.31" y1="16.45" x2="95.95" y2="16.45"/>
			
				<line fill="none" stroke="#1D2132" stroke-width="0.1" stroke-linecap="square" stroke-miterlimit="10" x1="96.31" y1="16.24" x2="95.95" y2="16.24"/>
			
				<line fill="none" stroke="#1D2132" stroke-width="0.1" stroke-linecap="square" stroke-miterlimit="10" x1="96.31" y1="16.02" x2="95.95" y2="16.02"/>
			
				<line fill="none" stroke="#1D2132" stroke-width="0.1" stroke-linecap="square" stroke-miterlimit="10" x1="96.31" y1="15.81" x2="95.95" y2="15.81"/>
			
				<line fill="none" stroke="#1D2132" stroke-width="0.1" stroke-linecap="square" stroke-miterlimit="10" x1="96.31" y1="15.59" x2="95.95" y2="15.59"/>
			
				<line fill="none" stroke="#1D2132" stroke-width="0.1" stroke-linecap="square" stroke-miterlimit="10" x1="96.31" y1="15.37" x2="95.95" y2="15.37"/>
			
				<line fill="none" stroke="#1D2132" stroke-width="0.1" stroke-linecap="square" stroke-miterlimit="10" x1="96.31" y1="14.73" x2="95.95" y2="14.73"/>
			
				<line fill="none" stroke="#1D2132" stroke-width="0.1" stroke-linecap="square" stroke-miterlimit="10" x1="96.31" y1="14.51" x2="95.95" y2="14.51"/>
			
				<line fill="none" stroke="#1D2132" stroke-width="0.1" stroke-linecap="square" stroke-miterlimit="10" x1="96.31" y1="15.16" x2="95.95" y2="15.16"/>
			
				<line fill="none" stroke="#1D2132" stroke-width="0.1" stroke-linecap="square" stroke-miterlimit="10" x1="96.31" y1="14.94" x2="95.95" y2="14.94"/>
			
				<line fill="none" stroke="#1D2132" stroke-width="0.1" stroke-linecap="square" stroke-miterlimit="10" x1="96.31" y1="14.3" x2="95.95" y2="14.3"/>
			
				<line fill="none" stroke="#1D2132" stroke-width="0.1" stroke-linecap="square" stroke-miterlimit="10" x1="96.31" y1="14.08" x2="95.95" y2="14.08"/>
		</g>
		<path fill="none" stroke="#1D2132" stroke-width="0.1" stroke-linecap="square" stroke-miterlimit="10" d="M95.72,29.04
			c0-0.32-0.56,0-0.56-0.32c0-0.32,0.56,0,0.56-0.32c0-0.32-0.56,0-0.56-0.32c0-0.32,0.56,0,0.56-0.32s-0.56,0-0.56-0.32
			c0-0.32,0.56,0,0.56-0.32c0-0.32-0.56,0-0.56-0.32c0-0.32,0.56,0,0.56-0.32c0-0.32-0.56,0-0.56-0.32s0.56,0,0.56-0.32
			c0-0.32-0.56,0-0.56-0.32c0-0.32,0.56,0,0.56-0.32s-0.56,0-0.56-0.32c0-0.32,0.56,0,0.56-0.32c0-0.32-0.56,0-0.56-0.32
			c0-0.32,0.56,0,0.56-0.32c0-0.32-0.56,0-0.56-0.32s0.56,0,0.56-0.32c0-0.32-0.56,0-0.56-0.32c0-0.32,0.56,0,0.56-0.32
			c0-0.32-0.56,0-0.56-0.32c0-0.32,0.56,0,0.56-0.32s-0.56,0-0.56-0.32c0-0.32,0.56,0,0.56-0.32c0-0.32-0.56,0-0.56-0.32
			c0-0.32,0.56,0,0.56-0.32c0-0.32-0.56,0-0.56-0.32s0.56,0,0.56-0.32c0-0.32-0.56,0-0.56-0.32c0-0.32,0.56,0,0.56-0.32
			c0-0.32-0.56,0-0.56-0.32c0-0.32,0.56,0,0.56-0.32s-0.56,0-0.56-0.32"/>
		<path fill="none" stroke="#1D2132" stroke-width="0.1" stroke-linecap="square" stroke-miterlimit="10" d="M95.72,6.56
			c0,0.32-0.56,0-0.56,0.32c0,0.32,0.56,0,0.56,0.32c0,0.32-0.56,0-0.56,0.32c0,0.32,0.56,0,0.56,0.32c0,0.32-0.56,0-0.56,0.32
			c0,0.32,0.56,0,0.56,0.32s-0.56,0-0.56,0.32s0.56,0,0.56,0.32c0,0.32-0.56,0-0.56,0.32c0,0.32,0.56,0,0.56,0.32s-0.56,0-0.56,0.32
			s0.56,0,0.56,0.32s-0.56,0-0.56,0.32c0,0.32,0.56,0,0.56,0.32c0,0.32-0.56,0-0.56,0.32s0.56,0,0.56,0.32s-0.56,0-0.56,0.32
			s0.56,0,0.56,0.32c0,0.32-0.56,0-0.56,0.32c0,0.32,0.56,0,0.56,0.32s-0.56,0-0.56,0.32s0.56,0,0.56,0.32c0,0.32-0.56,0-0.56,0.32
			c0,0.32,0.56,0,0.56,0.32s-0.56,0-0.56,0.32s0.56,0,0.56,0.32s-0.56,0-0.56,0.32c0,0.32,0.56,0,0.56,0.32c0,0.32-0.56,0-0.56,0.32
			s0.56,0,0.56,0.32c0,0.32-0.56,0-0.56,0.32c0,0.32,0.56,0,0.56,0.32c0,0.32-0.56,0-0.56,0.32"/>
	</g>
</g>
<g id="Doors">
	<g>
		<g>
			<g>
				<polygon fill="none" stroke="#1D2132" stroke-width="0.1" stroke-miterlimit="10" points="0.35,35.68 1.3,35.68 1.3,35.2 
					0.35,35.2 				"/>
				<polygon fill="none" stroke="#1D2132" stroke-width="0.1" stroke-miterlimit="10" points="0.35,23.03 1.3,23.03 1.3,23.5 
					0.35,23.5 				"/>
				<polyline fill="none" stroke="#1D2132" stroke-width="0.1" stroke-miterlimit="10" points="1.23,23.5 1.45,23.51 1.66,23.52 
					1.87,23.54 2.08,23.55 2.3,23.57 2.51,23.59 2.72,23.62 2.93,23.65 3.14,23.69 3.36,23.73 3.57,23.77 3.77,23.81 3.98,23.86 
					4.19,23.92 4.39,23.97 4.59,24.04 4.8,24.1 5,24.17 5.2,24.24 5.4,24.32 5.6,24.39 5.8,24.48 5.99,24.56 6.18,24.65 6.38,24.74 
					6.57,24.83 6.76,24.93 6.95,25.03 7.14,25.14 7.31,25.25 7.5,25.36 7.68,25.47 7.86,25.59 8.03,25.72 8.21,25.83 8.37,25.97 
					8.55,26.09 8.71,26.23 8.88,26.36 9.04,26.5 9.2,26.64 9.36,26.79 9.51,26.94 				"/>
				<polygon fill="none" stroke="#1D2132" stroke-width="0.1" stroke-miterlimit="10" points="0.95,34.78 9.2,26.64 9.51,26.94 
					1.28,35.12 				"/>
			</g>
		</g>
	</g>
	<g>
		<g>
			<g>
				<polygon fill="none" stroke="#1D2132" stroke-width="0.1" stroke-miterlimit="10" points="11.3,20.05 11.3,20.94 10.94,20.94 
					10.94,20.05 				"/>
				<polygon fill="none" stroke="#1D2132" stroke-width="0.1" stroke-miterlimit="10" points="19.94,20.05 19.94,20.94 20.29,20.94 
					20.29,20.05 				"/>
				<polyline fill="none" stroke="#1D2132" stroke-width="0.1" stroke-miterlimit="10" points="17.4,27.01 17.51,26.89 17.62,26.78 
					17.72,26.66 17.82,26.53 17.92,26.41 18.02,26.29 18.12,26.17 18.21,26.04 18.3,25.91 18.4,25.78 18.48,25.65 18.57,25.52 
					18.65,25.38 18.73,25.25 18.8,25.11 18.88,24.97 18.95,24.83 19.02,24.69 19.09,24.55 19.16,24.4 19.22,24.26 19.28,24.11 
					19.33,23.96 19.39,23.82 19.44,23.67 19.5,23.52 19.55,23.37 19.59,23.22 19.63,23.07 19.67,22.91 19.71,22.76 19.74,22.61 
					19.77,22.45 19.8,22.3 19.83,22.13 19.85,21.98 19.87,21.83 19.88,21.67 19.9,21.51 19.92,21.36 19.93,21.2 19.94,21.04 
					19.94,20.88 				"/>
				<polygon fill="none" stroke="#1D2132" stroke-width="0.1" stroke-miterlimit="10" points="11.34,20.92 17.4,27.01 17.62,26.78 
					11.6,20.67 				"/>
			</g>
		</g>
	</g>
</g>
<g id="Windows">
	<path fill="#1D2132" d="M99.94,6.57h-3.5v22.66h3.5V6.57z M96.52,29.07V6.74h3.32v22.34h-3.32V29.07z"/>
	<rect x="98.19" y="6.57" fill="#1D2132" width="0.92" height="22.66"/>
	<rect x="98.28" y="6.97" fill="#FFFFFF" width="0.73" height="22.18"/>
	<line fill="none" stroke="#1D2132" stroke-width="0.1" stroke-miterlimit="10" x1="99.04" y1="26.72" x2="98.26" y2="26.72"/>
	<line fill="none" stroke="#1D2132" stroke-width="0.1" stroke-miterlimit="10" x1="99.01" y1="9.19" x2="98.24" y2="9.19"/>
	<line fill="none" stroke="#1D2132" stroke-width="0.1" stroke-miterlimit="10" x1="98.64" y1="9.19" x2="98.64" y2="26.72"/>
</g>
<g id="Wall">
	<line fill="none" stroke="#1D2132" stroke-width="0.1" stroke-miterlimit="10" x1="23.14" y1="0.16" x2="21.39" y2="0.16"/>
	<polyline fill="#1D2132" stroke="#1D2132" stroke-width="0.1" stroke-miterlimit="10" points="79.21,39.84 98.23,39.84 
		98.23,27.86 99.87,27.86 99.87,39.84 99.87,39.84 80.86,39.84 	"/>
	<polyline fill="#1D2132" stroke="#1D2132" stroke-width="0.1" stroke-miterlimit="10" points="99.87,2.36 99.87,4.01 99.87,4.01 
		99.87,8.07 98.23,8.07 	"/>
	<polyline fill="#1D2132" stroke="#1D2132" stroke-width="0.1" stroke-miterlimit="10" points="98.23,8.07 98.23,2.36 99.87,2.36 	
		"/>
	<polyline fill="#1D2132" stroke="#1D2132" stroke-width="0.1" stroke-miterlimit="10" points="99.87,2.36 99.87,0.16 30.62,0.16 
		30.62,2.36 99.87,2.36 	"/>
	<polyline fill="#1D2132" stroke="#1D2132" stroke-width="0.1" stroke-miterlimit="10" points="21.52,2.36 21.52,0.16 0.06,0.16 
		0.06,2.36 21.52,2.36 	"/>
	<polyline fill="#1D2132" stroke="#1D2132" stroke-width="0.1" stroke-miterlimit="10" points="98.23,38.75 98.23,39.84 
		21.39,39.84 21.39,37.67 98.23,37.67 98.23,38.75 98.23,37.64 	"/>
	<line fill="none" stroke="#1D2132" stroke-width="0.1" stroke-miterlimit="10" x1="99.87" y1="0.16" x2="99.87" y2="0.16"/>
	<path fill="#1D2132" stroke="#1D2132" stroke-width="0.1" stroke-miterlimit="10" d="M99.87,0.16"/>
	<polyline fill="#1D2132" stroke="#1D2132" stroke-width="0.1" stroke-miterlimit="10" points="98.23,37.64 98.23,28.41 
		96.47,28.41 96.47,37.64 98.23,37.64 	"/>
	<polyline fill="#1D2132" stroke="#1D2132" stroke-width="0.1" stroke-miterlimit="10" points="98.23,7.52 98.23,2.36 96.47,2.36 
		96.47,7.52 98.23,7.52 	"/>
	<polyline fill="#1D2132" stroke="#1D2132" stroke-width="0.1" stroke-miterlimit="10" points="1.82,35.66 1.82,39.84 0.06,39.84 
		0.06,35.66 1.82,35.66 	"/>
	<polyline fill="#1D2132" stroke="#1D2132" stroke-width="0.1" stroke-miterlimit="10" points="17.21,37.64 17.21,31.05 
		18.09,31.05 18.09,37.64 17.21,37.64 	"/>
	<polyline fill="#1D2132" stroke="#1D2132" stroke-width="0.1" stroke-miterlimit="10" points="38.1,31.05 38.98,31.05 38.98,37.64 
		38.1,37.64 38.1,31.05 	"/>
	<polyline fill="#1D2132" stroke="#1D2132" stroke-width="0.1" stroke-miterlimit="10" points="21.39,39.84 1.82,39.84 1.82,38.96 
		21.39,38.96 21.39,39.84 	"/>
	<polyline fill="#1D2132" stroke="#1D2132" stroke-width="0.1" stroke-miterlimit="10" points="21.39,37.67 1.82,37.67 1.82,38.94 
		21.39,38.94 21.39,37.67 	"/>
	<polyline fill="#1D2132" stroke="#1D2132" stroke-width="0.1" stroke-miterlimit="10" points="0.06,2.03 1.82,2.03 1.82,23.02 
		0.06,23.02 0.06,2.03 	"/>
	<polyline fill="#1D2132" stroke="#1D2132" stroke-width="0.1" stroke-miterlimit="10" points="17.21,37.64 17.21,31.05 
		18.09,31.05 18.09,37.64 17.21,37.64 	"/>
	<polyline fill="#1D2132" stroke="#1D2132" stroke-width="0.1" stroke-miterlimit="10" points="38.1,31.05 38.98,31.05 38.98,37.64 
		38.1,37.64 38.1,31.05 	"/>
	<polyline fill="#1D2132" stroke="#1D2132" stroke-width="0.1" stroke-miterlimit="10" points="1.82,20.93 10.94,20.93 10.94,20.05 
		1.82,20.05 1.82,20.93 	"/>
	<polyline fill="#1D2132" stroke="#1D2132" stroke-width="0.1" stroke-miterlimit="10" points="23.14,0.16 23.14,4.78 30.62,4.78 
		30.62,2.36 32.38,2.36 32.38,4.89 32.38,6.54 21.39,6.54 21.39,0.16 23.14,0.16 	"/>
	<polyline fill="#1D2132" stroke="#1D2132" stroke-width="0.1" stroke-miterlimit="10" points="31.5,20.93 32.38,20.93 32.38,6.54 
		31.5,6.54 31.5,20.93 	"/>
	<polyline fill="#1D2132" stroke="#1D2132" stroke-width="0.1" stroke-miterlimit="10" points="20.29,20.93 20.29,20.05 
		32.26,20.05 32.26,20.93 20.29,20.93 	"/>
</g>
<g id="Text">
	
		<text id="TXT---" transform="matrix(1 0 0 1 71.1941 29.735)" opacity="0.7" fill="#1D2132" enable-background="new    " font-family="'Cannonade-Medium'" font-size="3px">17,78</text>
	
		<text id="TXT--" transform="matrix(1 0 0 1 25.6248 26.9396)" opacity="0.7" fill="#1D2132" enable-background="new    " font-family="'Cannonade-Medium'" font-size="3px">5,07</text>
	
		<text id="TXT--" transform="matrix(1 0 0 1 11.7805 15.448)" opacity="0.7" fill="#1D2132" enable-background="new    " font-family="'Cannonade-Medium'" font-size="3px">3,96</text>
</g>
<g id="Details">
	
		<rect x="1.82" y="2.35" fill="#FFFFFF" stroke="#1D2132" stroke-width="0.5" stroke-linecap="square" stroke-miterlimit="10" width="2" height="2"/>
	<polygon fill="#1D2132" stroke="#1D2132" stroke-width="0.1" stroke-miterlimit="10" points="1.82,2.47 3.04,3.14 3.71,4.35 
		3.71,2.47 	"/>
	<g>
		
			<rect x="23.05" y="15.84" fill="#FFFFFF" stroke="#1D2132" stroke-width="0.5" stroke-miterlimit="10" width="8.21" height="4.26"/>
		<g>
			
				<rect x="29.66" y="16.4" fill="#FFFFFF" stroke="#1D2132" stroke-width="0.1" stroke-linecap="square" stroke-miterlimit="22.9256" width="1.05" height="3.22"/>
			<polygon fill="#1D2132" points="29.66,19.62 29.66,16.39 30.06,19.29 30.71,19.62 			"/>
		</g>
		<g>
			
				<rect x="23.54" y="16.4" fill="#FFFFFF" stroke="#1D2132" stroke-width="0.1" stroke-linecap="square" stroke-miterlimit="22.9256" width="1.05" height="3.22"/>
			<polygon fill="#1D2132" points="23.54,19.62 23.54,16.39 23.86,19.29 24.5,19.62 			"/>
		</g>
		<g>
			
				<rect x="25.07" y="16.4" fill="#FFFFFF" stroke="#1D2132" stroke-width="0.1" stroke-linecap="square" stroke-miterlimit="22.9256" width="4.11" height="3.22"/>
			<polygon fill="#1D2132" points="25.07,19.62 25.07,16.39 25.63,19.29 29.09,19.62 			"/>
		</g>
	</g>
</g>
</svg>
