<?xml version="1.0" encoding="utf-8"?>
<!-- Generator: Adobe Illustrator 22.0.0, SVG Export Plug-In . SVG Version: 6.00 Build 0)  -->
<svg version="1.1" id="Layer_1" xmlns="http://www.w3.org/2000/svg" xmlns:xlink="http://www.w3.org/1999/xlink" x="0px" y="0px"
	 viewBox="0 0 101 96" enable-background="new 0 0 101 96" xml:space="preserve">
<g id="Background">
	
		<polygon opacity="0.1" fill="#1D2132" stroke="#1D2132" stroke-width="0.1" stroke-miterlimit="10" enable-background="new    " points="
		5.68,2.82 52.01,2.82 52.01,19.05 97.65,19.05 97.65,91.57 5.68,91.57 	"/>
</g>
<g id="Plumbing">
	<g>
		<path fill="#FFFFFF" stroke="#1D1D1B" stroke-width="0.1" stroke-linecap="square" stroke-miterlimit="10" d="M97.91,74.55h-4.24
			c-1.57,0-1.59-1.56-1.59-4.42s-0.05-4.41,1.59-4.41h4.24V74.55z"/>
		
			<line fill="none" stroke="#1D1D1B" stroke-width="0.1" stroke-linecap="square" stroke-miterlimit="10" x1="94.51" y1="69.45" x2="94.51" y2="69.88"/>
		
			<line fill="none" stroke="#1D1D1B" stroke-width="0.1" stroke-linecap="square" stroke-miterlimit="10" x1="95.25" y1="70.14" x2="94.78" y2="70.14"/>
		
			<line fill="none" stroke="#1D1D1B" stroke-width="0.1" stroke-linecap="square" stroke-miterlimit="10" x1="94.51" y1="70.39" x2="94.51" y2="70.83"/>
		
			<line fill="none" stroke="#1D1D1B" stroke-width="0.1" stroke-linecap="square" stroke-miterlimit="10" x1="94.23" y1="70.14" x2="93.76" y2="70.14"/>
		<path fill="none" stroke="#1D1D1B" stroke-width="0.1" stroke-linecap="square" stroke-miterlimit="10" d="M95.4,72.54
			c-0.45,0.68-1.1,1.2-1.86,1.5"/>
		<path fill="none" stroke="#1D1D1B" stroke-width="0.1" stroke-linecap="square" stroke-miterlimit="10" d="M95.95,70.2
			c0.01,0.11,0.01,0.21,0.01,0.32c0,0.72-0.19,1.42-0.56,2.04"/>
		<path fill="none" stroke="#1D1D1B" stroke-width="0.1" stroke-linecap="square" stroke-miterlimit="10" d="M93.54,66.23
			c0.77,0.31,1.42,0.85,1.86,1.55"/>
		<path fill="none" stroke="#1D1D1B" stroke-width="0.1" stroke-linecap="square" stroke-miterlimit="10" d="M95.4,67.78
			c0.37,0.62,0.56,1.33,0.56,2.06c0,0.11,0,0.21-0.01,0.32"/>
		<path fill="none" stroke="#1D1D1B" stroke-width="0.1" stroke-linecap="square" stroke-miterlimit="10" d="M95.26,67.66
			c0.13,0.83,0.19,1.67,0.19,2.51c0,0.84-0.06,1.68-0.19,2.51"/>
		<path fill="none" stroke="#1D1D1B" stroke-width="0.1" stroke-linecap="square" stroke-miterlimit="10" d="M96.8,67.82
			c0.12,0.77,0.17,1.54,0.18,2.32"/>
		<path fill="none" stroke="#1D1D1B" stroke-width="0.1" stroke-linecap="square" stroke-miterlimit="10" d="M93.19,66.23
			c0.02,0,0.04,0,0.07,0c1.22,0,2.39,0.41,3.31,1.16"/>
		<path fill="none" stroke="#1D1D1B" stroke-width="0.1" stroke-linecap="square" stroke-miterlimit="10" d="M96.56,67.4
			c0.13,0.11,0.22,0.26,0.24,0.42"/>
		<path fill="none" stroke="#1D1D1B" stroke-width="0.1" stroke-linecap="square" stroke-miterlimit="10" d="M96.98,70.13
			c0,0.78-0.06,1.55-0.18,2.32"/>
		<path fill="none" stroke="#1D1D1B" stroke-width="0.1" stroke-linecap="square" stroke-miterlimit="10" d="M96.8,72.45
			c-0.02,0.16-0.11,0.31-0.24,0.42"/>
		<path fill="none" stroke="#1D1D1B" stroke-width="0.1" stroke-linecap="square" stroke-miterlimit="10" d="M95.08,70.14
			c0-0.29-0.26-0.53-0.57-0.53c-0.32,0-0.57,0.24-0.57,0.53s0.26,0.53,0.57,0.53S95.08,70.43,95.08,70.14"/>
		<path fill="none" stroke="#1D1D1B" stroke-width="0.1" stroke-linecap="square" stroke-miterlimit="10" d="M94.82,70.14
			c0-0.16-0.14-0.29-0.31-0.29s-0.31,0.13-0.31,0.29s0.14,0.29,0.31,0.29S94.82,70.3,94.82,70.14"/>
		<path fill="none" stroke="#1D1D1B" stroke-width="0.1" stroke-linecap="square" stroke-miterlimit="10" d="M93.25,66.23
			c-0.81-0.01-0.87,7.8-0.06,7.81c0.02,0,0.04,0,0.06,0c1.22,0,2.4-0.41,3.31-1.17"/>
	</g>
	<g>
		<polygon fill="#FFFFFF" points="97.65,84.44 97.65,81.22 95.41,81.22 95.38,81.22 95.35,81.22 95.32,81.23 95.29,81.24 
			95.26,81.25 95.24,81.26 95.21,81.27 95.19,81.29 95.16,81.31 95.14,81.33 95.12,81.35 95.1,81.37 95.09,81.39 95.07,81.42 
			95.06,81.45 95.05,81.47 89.06,81.47 88.91,81.48 88.77,81.49 88.63,81.51 88.49,81.54 88.35,81.57 88.21,81.62 88.07,81.67 
			87.94,81.73 87.81,81.79 87.69,81.86 87.57,81.94 87.45,82.02 87.34,82.11 87.23,82.21 87.13,82.31 87.04,82.41 86.95,82.52 
			86.86,82.63 86.79,82.74 86.71,82.86 86.65,82.98 86.58,83.11 86.53,83.23 86.48,83.36 86.43,83.49 86.4,83.62 86.36,83.76 
			86.34,83.89 86.32,84.03 86.3,84.16 86.29,84.3 86.29,84.44 86.29,84.58 86.3,84.72 86.32,84.85 86.34,84.99 86.36,85.12 
			86.4,85.26 86.43,85.39 86.48,85.52 86.53,85.65 86.58,85.77 86.65,85.9 86.71,86.02 86.79,86.14 86.86,86.25 86.95,86.36 
			87.04,86.47 87.13,86.57 87.23,86.67 87.34,86.77 87.45,86.86 87.57,86.94 87.69,87.02 87.81,87.09 87.94,87.16 88.07,87.21 
			88.21,87.26 88.35,87.31 88.49,87.34 88.63,87.37 88.77,87.39 88.91,87.4 89.06,87.41 95.05,87.41 95.06,87.44 95.07,87.46 
			95.09,87.49 95.1,87.51 95.12,87.53 95.14,87.55 95.16,87.57 95.19,87.59 95.21,87.61 95.24,87.62 95.26,87.64 95.29,87.64 
			95.32,87.65 95.35,87.66 95.38,87.66 95.41,87.66 97.65,87.66 		"/>
		
			<line fill="none" stroke="#1D1D1B" stroke-width="0.1" stroke-linecap="square" stroke-miterlimit="10" x1="95.04" y1="81.47" x2="89.06" y2="81.47"/>
		
			<line fill="none" stroke="#1D1D1B" stroke-width="0.1" stroke-linecap="square" stroke-miterlimit="10" x1="97.65" y1="81.22" x2="97.65" y2="87.66"/>
		
			<line fill="none" stroke="#1D1D1B" stroke-width="0.1" stroke-linecap="square" stroke-miterlimit="10" x1="97.65" y1="81.22" x2="95.41" y2="81.22"/>
		
			<line fill="none" stroke="#1D1D1B" stroke-width="0.1" stroke-linecap="square" stroke-miterlimit="10" x1="93.99" y1="84.44" x2="93.99" y2="86.83"/>
		
			<line fill="none" stroke="#1D1D1B" stroke-width="0.1" stroke-linecap="square" stroke-miterlimit="10" x1="89.07" y1="81.47" x2="93.99" y2="82.05"/>
		
			<line fill="none" stroke="#1D1D1B" stroke-width="0.1" stroke-linecap="square" stroke-miterlimit="10" x1="93.99" y1="84.44" x2="93.99" y2="82.05"/>
		
			<line fill="none" stroke="#1D1D1B" stroke-width="0.1" stroke-linecap="square" stroke-miterlimit="10" x1="89.07" y1="87.41" x2="93.99" y2="86.83"/>
		
			<line fill="none" stroke="#1D1D1B" stroke-width="0.1" stroke-linecap="square" stroke-miterlimit="10" x1="95.05" y1="87.41" x2="89.06" y2="87.41"/>
		
			<line fill="none" stroke="#1D1D1B" stroke-width="0.1" stroke-linecap="square" stroke-miterlimit="10" x1="97.65" y1="87.66" x2="95.41" y2="87.66"/>
		<path fill="none" stroke="#1D1D1B" stroke-width="0.1" stroke-linecap="square" stroke-miterlimit="10" d="M95.03,87.33
			c-0.1-0.96-0.15-1.92-0.15-2.89c0-0.96,0.05-1.93,0.15-2.89"/>
		<path fill="none" stroke="#1D1D1B" stroke-width="0.1" stroke-linecap="square" stroke-miterlimit="10" d="M95.03,81.55
			c0.02-0.19,0.18-0.33,0.38-0.33"/>
		<path fill="none" stroke="#1D1D1B" stroke-width="0.1" stroke-linecap="square" stroke-miterlimit="10" d="M89.06,87.41
			c-1.53,0-2.77-1.33-2.77-2.97s1.24-2.97,2.77-2.97"/>
		<path fill="none" stroke="#1D1D1B" stroke-width="0.1" stroke-linecap="square" stroke-miterlimit="10" d="M95.41,87.66
			c-0.19,0-0.36-0.15-0.37-0.34"/>
		<path fill="none" stroke="#1D1D1B" stroke-width="0.1" stroke-linecap="square" stroke-miterlimit="10" d="M96.55,84.44
			c0-0.17-0.14-0.31-0.32-0.31s-0.32,0.14-0.32,0.31s0.14,0.31,0.32,0.31S96.55,84.61,96.55,84.44"/>
	</g>
	<path fill="#FFFFFF" stroke="#1D1D1B" stroke-width="0.1" stroke-linecap="square" stroke-miterlimit="10" d="M97.91,76.24h-5.47
		c-1.06,0-1.92-0.93-1.92-2.08V66.1c0-1.15,0.86-2.08,1.92-2.08h5.27v0.69h-5.27c-0.67,0-1.22,0.62-1.22,1.39v8.06
		c0,0.77,0.55,1.39,1.22,1.39h5.47V76.24z"/>
	<g>
		
			<rect x="96.36" y="78.13" fill="#FFFFFF" stroke="#1D1D1B" stroke-width="0.1" stroke-linecap="square" stroke-miterlimit="10" width="1.29" height="1.9"/>
		<path fill="#FFFFFF" stroke="#1D1D1B" stroke-width="0.1" stroke-linecap="square" stroke-miterlimit="10" d="M96.52,79.5H87.4
			c-0.23,0-0.42-0.19-0.42-0.42s0.19-0.42,0.42-0.42h9.11c0.23,0,0.42,0.19,0.42,0.42S96.75,79.5,96.52,79.5z"/>
	</g>
	<g>
		<path fill="#FFFFFF" stroke="#1D1D1B" stroke-width="0.1" stroke-linecap="square" stroke-miterlimit="10" d="M91.51,91.39h-0.85
			c0-0.05-0.02-1.31-0.92-1.31h-9.39v-0.85h9.39C91.14,89.24,91.51,90.65,91.51,91.39z"/>
		<path fill="#FFFFFF" stroke="#1D1D1B" stroke-width="0.1" stroke-linecap="square" stroke-miterlimit="10" d="M81.2,91.39v-2.01
			c0-0.23-0.19-0.42-0.42-0.42s-0.42,0.19-0.42,0.42v2.01H81.2z"/>
	</g>
	<g>
		<g>
			<path fill="#FFFFFF" stroke="#1D1D1B" stroke-width="0.1" stroke-linecap="square" stroke-miterlimit="10" d="M54.13,78.45
				c-0.19,0-0.34-0.15-0.34-0.34v-0.12c0-0.65,0.53-1.18,1.18-1.18h5.59c0.19,0,0.34,0.15,0.34,0.34c0,0.19-0.15,0.34-0.34,0.34
				h-5.59c-0.28,0-0.5,0.22-0.5,0.5v0.12C54.48,78.3,54.32,78.45,54.13,78.45z"/>
			
				<rect x="53.34" y="77.93" fill="#FFFFFF" stroke="#1D1D1B" stroke-width="0.1" stroke-linecap="square" stroke-miterlimit="10" width="1.44" height="0.72"/>
			<path fill="#FFFFFF" stroke="#1D1D1B" stroke-width="0.1" stroke-linecap="square" stroke-miterlimit="10" d="M54.13,82.67
				c-0.19,0-0.34,0.15-0.34,0.34v0.12c0,0.65,0.53,1.18,1.18,1.18h5.59c0.19,0,0.34-0.15,0.34-0.34s-0.15-0.34-0.34-0.34h-5.59
				c-0.28,0-0.5-0.22-0.5-0.5v-0.12C54.48,82.82,54.32,82.67,54.13,82.67z"/>
			
				<rect x="53.34" y="82.48" fill="#FFFFFF" stroke="#1D1D1B" stroke-width="0.1" stroke-linecap="square" stroke-miterlimit="10" width="1.44" height="0.72"/>
		</g>
		
			<rect x="56.76" y="76.4" fill="#FFFFFF" stroke="#1D1D1B" stroke-width="0.1" stroke-linecap="square" stroke-miterlimit="10" width="1.52" height="8.32"/>
		
			<rect x="58.62" y="76.4" fill="#FFFFFF" stroke="#1D1D1B" stroke-width="0.1" stroke-linecap="square" stroke-miterlimit="10" width="1.52" height="8.32"/>
		
			<rect x="60.48" y="76.4" fill="#FFFFFF" stroke="#1D1D1B" stroke-width="0.1" stroke-linecap="square" stroke-miterlimit="10" width="1.52" height="8.32"/>
	</g>
	<path fill="#FFFFFF" stroke="#1D1D1B" stroke-width="0.1" stroke-linecap="square" stroke-miterlimit="10" d="M63.91,91.39h-0.85
		V90.5c0-0.25-0.2-0.45-0.45-0.45h-6.19c-0.71,0-1.29-0.58-1.29-1.3V71.48c0-0.25-0.2-0.45-0.45-0.45h-1.34v-0.85h1.34
		c0.71,0,1.29,0.58,1.29,1.29v17.28c0,0.25,0.2,0.45,0.45,0.45h6.19c0.71,0,1.29,0.58,1.29,1.3L63.91,91.39L63.91,91.39z"/>
	<g>
		
			<circle fill="#FFFFFF" stroke="#1D1D1B" stroke-width="0.1" stroke-linecap="square" stroke-miterlimit="10" cx="60.02" cy="85.65" r="1.41"/>
		<path fill="#FFFFFF" stroke="#1D1D1B" stroke-width="0.1" stroke-linecap="square" stroke-miterlimit="10" d="M60.3,90.83v-4.96
			c0-0.16-0.13-0.29-0.29-0.29s-0.29,0.13-0.29,0.29v4.96H60.3z"/>
		
			<rect x="58.88" y="90.83" fill="#FFFFFF" stroke="#1D1D1B" stroke-width="0.1" stroke-linecap="square" stroke-miterlimit="10" width="2.28" height="0.57"/>
	</g>
	<g>
		<g>
			<path fill="#FFFFFF" stroke="#1D2132" stroke-width="0.1" stroke-linecap="square" stroke-miterlimit="10" d="M59.11,60.51
				c0.09,0,0.17-0.09,0.17-0.21s-0.08-0.21-0.17-0.21s-0.17,0.1-0.17,0.21C58.94,60.42,59.02,60.51,59.11,60.51z"/>
			
				<ellipse fill="#FFFFFF" stroke="#1D2132" stroke-width="0.1" stroke-linecap="square" stroke-miterlimit="10" cx="59.11" cy="61.21" rx="0.17" ry="0.21"/>
			<path fill="#FFFFFF" stroke="#1D2132" stroke-width="0.1" stroke-linecap="square" stroke-miterlimit="10" d="M59.11,65.13
				c0.09,0,0.17-0.09,0.17-0.21s-0.08-0.21-0.17-0.21s-0.17,0.1-0.17,0.21S59.02,65.13,59.11,65.13z"/>
			<path fill="#FFFFFF" stroke="#1D2132" stroke-width="0.1" stroke-linecap="square" stroke-miterlimit="10" d="M59.11,65.12
				c0,0.47-0.1,0.86-0.23,0.86h-0.57c-0.13,0-0.23-0.39-0.23-0.86v-5.03c0-0.47,0.1-0.86,0.23-0.86h0.57c0.13,0,0.23,0.39,0.23,0.86
				V65.12z"/>
			
				<rect x="53.76" y="58.89" fill="#FFFFFF" stroke="#1D2132" stroke-width="0.1" stroke-linecap="square" stroke-miterlimit="10" width="5.05" height="7.49"/>
			<path fill="#FFFFFF" stroke="#1D2132" stroke-width="0.1" stroke-linecap="square" stroke-miterlimit="10" d="M58.54,65.12
				c0,0.47-0.82,0.86-1.84,0.86h-0.83c-1.02,0-1.84-0.39-1.84-0.86v-5.03c0-0.47,0.83-0.86,1.84-0.86h0.83
				c1.02,0,1.84,0.39,1.84,0.86V65.12z"/>
		</g>
		<g>
			<path fill="#FFFFFF" stroke="#1D2132" stroke-width="0.1" stroke-linecap="square" stroke-miterlimit="10" d="M54.65,64.98v-4.76
				c0-0.09-0.07-0.16-0.16-0.16h-0.04c-0.09,0-0.16,0.07-0.16,0.16v4.76c0,0.09,0.07,0.16,0.16,0.16h0.04
				C54.58,65.14,54.65,65.07,54.65,64.98z"/>
			<g>
				
					<rect x="53.49" y="60.27" fill="#FFFFFF" stroke="#1D2132" stroke-width="0.1" stroke-linecap="square" stroke-miterlimit="10" width="0.8" height="0.3"/>
				
					<rect x="53.5" y="64.66" fill="#FFFFFF" stroke="#1D2132" stroke-width="0.1" stroke-linecap="square" stroke-miterlimit="10" width="0.8" height="0.3"/>
			</g>
			<g>
				
					<rect x="53.35" y="60.1" fill="#FFFFFF" stroke="#1D2132" stroke-width="0.1" stroke-linecap="square" stroke-miterlimit="10" width="0.15" height="0.63"/>
				
					<rect x="53.34" y="64.48" fill="#FFFFFF" stroke="#1D2132" stroke-width="0.1" stroke-linecap="square" stroke-miterlimit="10" width="0.15" height="0.63"/>
			</g>
		</g>
	</g>
</g>
<g id="Furniture">
	<g>
		
			<rect x="41.96" y="70.06" fill="#FFFFFF" stroke="#1D2132" stroke-width="0.1" stroke-linecap="square" stroke-miterlimit="22.9256" width="10.05" height="21.21"/>
		
			<rect x="41.96" y="68.42" fill="#FFFFFF" stroke="#1D2132" stroke-width="0.1" stroke-linecap="square" stroke-miterlimit="22.9256" width="10.05" height="7.82"/>
		
			<rect x="41.96" y="82.84" fill="#FFFFFF" stroke="#1D2132" stroke-width="0.1" stroke-linecap="square" stroke-miterlimit="22.9256" width="10.05" height="8.45"/>
		
			<rect x="41.96" y="59.8" fill="#FFFFFF" stroke="#1D2132" stroke-width="0.1" stroke-linecap="square" stroke-miterlimit="22.9256" width="10.05" height="8.64"/>
		<g>
			
				<line fill="none" stroke="#1D2132" stroke-width="0.1" stroke-linecap="square" stroke-miterlimit="22.9256" x1="48.22" y1="64.22" x2="45.73" y2="64.22"/>
			
				<line fill="none" stroke="#1D2132" stroke-width="0.1" stroke-linecap="square" stroke-miterlimit="22.9256" x1="47.86" y1="63.34" x2="46.09" y2="65.12"/>
			
				<line fill="none" stroke="#1D2132" stroke-width="0.1" stroke-linecap="square" stroke-miterlimit="22.9256" x1="46.98" y1="62.97" x2="46.98" y2="65.49"/>
			
				<line fill="none" stroke="#1D2132" stroke-width="0.1" stroke-linecap="square" stroke-miterlimit="22.9256" x1="46.09" y1="63.34" x2="47.86" y2="65.12"/>
		</g>
		<g>
			
				<rect x="42.37" y="69.35" fill="#FFFFFF" stroke="#1D2132" stroke-width="0.1" stroke-linecap="square" stroke-miterlimit="22.9256" width="9.22" height="5.86"/>
			<g>
				<path fill="#FFFFFF" stroke="#1D2132" stroke-width="0.1" stroke-linecap="square" stroke-miterlimit="22.9256" d="M44.88,73.89
					c0.89,0,1.6-0.72,1.6-1.6c0-0.89-0.71-1.6-1.6-1.6s-1.6,0.71-1.6,1.6C43.28,73.17,44,73.89,44.88,73.89"/>
				<path fill="#FFFFFF" stroke="#1D2132" stroke-width="0.1" stroke-linecap="square" stroke-miterlimit="22.9256" d="M49.42,73.89
					c0.88,0,1.6-0.72,1.6-1.6c0-0.89-0.71-1.6-1.6-1.6s-1.6,0.71-1.6,1.6C47.81,73.17,48.54,73.89,49.42,73.89"/>
				<path fill="#FFFFFF" stroke="#1D2132" stroke-width="0.1" stroke-linecap="square" stroke-miterlimit="22.9256" d="M44.88,73.57
					c0.71,0,1.27-0.58,1.27-1.27c0-0.71-0.58-1.27-1.27-1.27c-0.71,0-1.27,0.58-1.27,1.27C43.59,72.99,44.17,73.57,44.88,73.57"/>
				<path fill="#FFFFFF" stroke="#1D2132" stroke-width="0.1" stroke-linecap="square" stroke-miterlimit="22.9256" d="M49.42,73.57
					c0.71,0,1.27-0.58,1.27-1.27c0-0.71-0.58-1.27-1.27-1.27c-0.71,0-1.27,0.58-1.27,1.27S48.71,73.57,49.42,73.57"/>
			</g>
		</g>
		<g>
			<path fill="#FFFFFF" stroke="#1D2132" stroke-width="0.1" stroke-linecap="square" stroke-miterlimit="22.9256" d="M50.12,85.1
				v3.88c0,0.33-0.25,0.58-0.58,0.58h-6.39c-0.33,0-0.58-0.25-0.58-0.58V85.1c0-0.33,0.25-0.58,0.58-0.58h6.39
				C49.87,84.52,50.12,84.77,50.12,85.1z"/>
			<g>
				<path fill="#FFFFFF" stroke="#1D2132" stroke-width="0.1" stroke-linecap="square" stroke-miterlimit="22.9256" d="M48.69,87.44
					c-0.25,0-0.46-0.19-0.46-0.41s0.2-0.41,0.46-0.41c0.25,0,0.46,0.19,0.46,0.41S48.94,87.45,48.69,87.44z"/>
				<g>
					<path fill="#FFFFFF" stroke="#1D2132" stroke-width="0.1" stroke-linecap="square" stroke-miterlimit="22.9256" d="
						M50.75,87.72c-0.35-0.02-0.63-0.31-0.63-0.69c0-0.39,0.28-0.69,0.63-0.69s0.63,0.3,0.63,0.69S51.1,87.72,50.75,87.72z"/>
					<path fill="#FFFFFF" stroke="#1D2132" stroke-width="0.1" stroke-linecap="square" stroke-miterlimit="22.9256" d="M47.2,87.01
						c0-0.13,0.13-0.2,0.33-0.2l3.27,0.02c0.19,0,0.33,0.09,0.33,0.2l0,0c0,0.13-0.14,0.2-0.33,0.2l-3.27-0.02
						C47.34,87.22,47.2,87.14,47.2,87.01L47.2,87.01z"/>
					<path fill="#FFFFFF" stroke="#1D2132" stroke-width="0.1" stroke-linecap="square" stroke-miterlimit="22.9256" d="
						M50.72,87.99c-0.11,0-0.19-0.42-0.19-0.96c0-0.52,0.09-0.96,0.19-0.96c0.13,0,0.19,0.42,0.19,0.96
						C50.92,87.56,50.84,88,50.72,87.99z"/>
				</g>
			</g>
		</g>
	</g>
	<g>
		
			<rect x="90.09" y="47.24" transform="matrix(-1.836970e-16 1 -1 -1.836970e-16 142.9105 -38.1295)" fill="#FFFFFF" stroke="#1D2132" stroke-width="0.1" stroke-linecap="square" stroke-miterlimit="10" width="0.86" height="10.31"/>
		
			<rect x="90.26" y="47.63" transform="matrix(-1.836970e-16 1 -1 -1.836970e-16 142.7366 -38.3034)" fill="#FFFFFF" stroke="#1D2132" stroke-width="0.1" stroke-linecap="square" stroke-miterlimit="10" width="0.51" height="9.17"/>
	</g>
	<g>
		<g>
			<path fill="#FFFFFF" stroke="#1D2132" stroke-width="0.1" stroke-linecap="square" stroke-miterlimit="10" d="M25.37,80.3
				c1.65,0.14,3.9,0.09,4.72,0.41c0.73,0.28,0.18,1.88,0.19,3.75c0,1.88,0.55,3.47-0.18,3.75c-0.82,0.32-3.07,0.28-4.72,0.42
				c-1.65,0.14-2.15-0.27-2.38-1.23c-0.23-0.94-0.19-2.15-0.19-2.93c0-0.78-0.04-1.99,0.18-2.93C23.22,80.57,23.72,80.16,25.37,80.3
				z"/>
			<path fill="#FFFFFF" stroke="#1D2132" stroke-width="0.1" stroke-linecap="square" stroke-miterlimit="10" d="M24.91,80.6
				c1.36,0.13,3.2,0.08,3.88,0.38c0.6,0.26,1.17,1.74,1.17,3.48c0,1.74-0.56,3.21-1.16,3.48c-0.68,0.3-2.52,0.26-3.88,0.39
				c-1.35,0.13-1.77-0.25-1.96-1.14c-0.18-0.87-0.15-1.99-0.15-2.71c0-0.72-0.03-1.84,0.15-2.71C23.15,80.86,23.56,80.48,24.91,80.6
				z"/>
			<g>
				<path fill="#FFFFFF" stroke="#1D2132" stroke-width="0.1" stroke-linecap="square" stroke-miterlimit="10" d="M31.59,86.79
					c-0.11,0.55-0.25,1.09-0.42,1.6c-1.88-0.23-0.53-1.9-0.53-3.94c0-2.11-1.42-3.96,0.6-3.96C31.85,82.47,32.01,84.62,31.59,86.79z
					"/>
				<path fill="#FFFFFF" stroke="#1D2132" stroke-width="0.1" stroke-linecap="square" stroke-miterlimit="10" d="M31.57,80.28
					c0.04,0.12,0.08,0.24,0.11,0.36c0.57,1.96,0.7,4.08,0.28,6.22c-0.1,0.51-0.23,1-0.38,1.48c-0.03,0.1-0.06,0.19-0.09,0.29
					l-0.37-0.13c0.01-0.03,0.02-0.07,0.03-0.11c0.17-0.52,0.32-1.05,0.42-1.6c0.42-2.17,0.27-4.32-0.35-6.3
					c-0.01-0.03-0.02-0.06-0.03-0.1L31.57,80.28z"/>
			</g>
		</g>
		<g>
			<path fill="#FFFFFF" stroke="#1D2132" stroke-width="0.1" stroke-linecap="square" stroke-miterlimit="10" d="M20.31,76.12
				c-0.14-1.65-0.09-3.9-0.41-4.72c-0.28-0.73-1.88-0.18-3.75-0.19c-1.88,0-3.47-0.55-3.75,0.18c-0.32,0.82-0.28,3.07-0.42,4.72
				c-0.14,1.65,0.27,2.15,1.23,2.38c0.94,0.23,2.15,0.19,2.93,0.19c0.78,0,1.99,0.04,2.93-0.18C20.03,78.28,20.44,77.77,20.31,76.12
				z"/>
			<path fill="#FFFFFF" stroke="#1D2132" stroke-width="0.1" stroke-linecap="square" stroke-miterlimit="10" d="M20,76.58
				c-0.13-1.36-0.08-3.2-0.38-3.88c-0.26-0.6-1.74-1.17-3.48-1.17c-1.74,0-3.21,0.56-3.48,1.16c-0.3,0.68-0.26,2.52-0.39,3.88
				c-0.13,1.35,0.25,1.77,1.14,1.96c0.87,0.18,1.99,0.15,2.71,0.15c0.72,0,1.84,0.03,2.71-0.15C19.75,78.35,20.13,77.94,20,76.58z"
				/>
			<g>
				<path fill="#FFFFFF" stroke="#1D2132" stroke-width="0.1" stroke-linecap="square" stroke-miterlimit="10" d="M13.81,69.91
					c-0.55,0.11-1.09,0.25-1.6,0.42c0.23,1.88,1.9,0.53,3.94,0.53c2.11,0,3.96,1.42,3.96-0.6C18.13,69.64,15.98,69.49,13.81,69.91z"
					/>
				<path fill="#FFFFFF" stroke="#1D2132" stroke-width="0.1" stroke-linecap="square" stroke-miterlimit="10" d="M20.32,69.93
					c-0.12-0.04-0.24-0.08-0.36-0.11c-1.96-0.57-4.08-0.7-6.22-0.28c-0.51,0.1-1,0.23-1.48,0.38c-0.1,0.03-0.19,0.06-0.29,0.09
					l0.13,0.37c0.03-0.01,0.07-0.02,0.11-0.03c0.52-0.17,1.05-0.32,1.6-0.42c2.17-0.42,4.32-0.27,6.3,0.35
					c0.03,0.01,0.06,0.02,0.1,0.03L20.32,69.93z"/>
			</g>
		</g>
		
			<rect x="10.63" y="77.76" transform="matrix(-1.836970e-16 1 -1 -1.836970e-16 100.1241 68.8019)" fill="#FFFFFF" stroke="#1D2132" stroke-width="0.1" stroke-linecap="square" stroke-miterlimit="10" width="10.06" height="13.41"/>
	</g>
	<g>
		<g>
			<g>
				
					<rect x="40.49" y="4.78" transform="matrix(6.123234e-17 -1 1 6.123234e-17 35.9591 51.3311)" fill="#FFFFFF" stroke="#1D2132" stroke-width="0.1" stroke-linecap="square" stroke-miterlimit="10" width="6.32" height="5.82"/>
				<polygon fill="#FFFFFF" stroke="#1D2132" stroke-width="0.1" stroke-linecap="square" stroke-miterlimit="10" points="
					44.78,10.85 45.39,10.85 45.39,11.48 41.9,11.48 41.9,10.85 42.51,10.85 42.51,11.26 44.78,11.26 				"/>
			</g>
			<g>
				
					<rect x="10.67" y="4.78" transform="matrix(6.123234e-17 -1 1 6.123234e-17 6.1418 21.5139)" fill="#FFFFFF" stroke="#1D2132" stroke-width="0.1" stroke-linecap="square" stroke-miterlimit="10" width="6.32" height="5.82"/>
				<polygon fill="#FFFFFF" stroke="#1D2132" stroke-width="0.1" stroke-linecap="square" stroke-miterlimit="10" points="
					14.97,10.85 15.57,10.85 15.57,11.48 12.08,11.48 12.08,10.85 12.69,10.85 12.69,11.26 14.97,11.26 				"/>
			</g>
		</g>
		<g>
			<g>
				
					<rect x="17.1" y="4.28" fill="#FFFFFF" stroke="#1D2132" stroke-width="0.1" stroke-linecap="square" stroke-miterlimit="22.9256" width="23.28" height="33.26"/>
				<path fill="#FFFFFF" stroke="#1D2132" stroke-width="0.1" stroke-linecap="square" stroke-miterlimit="22.9256" d="M17.38,6.58
					c0,0-0.05,0.82,0,1.6c0.08,1.32,0.13,2.15,0.13,3.51c0,1.36-0.15,1.48-0.02,1.69c0.13,0.21,0.14,0.51,0,0.85
					c-0.14,0.34-0.03,2.24-0.03,3.55c0,1.31-0.11,3.38-0.08,4.53c0.04,1.14,0.17,0.71,0.31,0.8c0.14,0.08-0.12,1.02-0.24,1.19
					c-0.13,0.17-0.07,0.9-0.09,3.4c-0.02,2.5,0.13,4.57,0.09,5.9c-0.02,0.83,0,1.3,0.03,1.52c0.07,0.5-0.01,0.29-0.01,0.85
					c0.01,0.64,0.29-0.82,0.16-0.02c-0.09,0.55-0.25,1.08-0.13,0.95c0.13-0.13,0.35-0.66,0.43-0.74c0.07-0.08,0.29-0.52,0.22-0.18
					c-0.07,0.34-0.84,1.09-0.64,1.13c0.23,0.05,0.95,0.08,2.68,0.08c1.71,0,13.51,0,13.6-0.21c0.09-0.21,0.09-0.13,0.2,0
					c0.11,0.13,2.19-0.04,2.61,0.13c0.41,0.17,1.04,0.13,1.13-0.08c0.09-0.21,0.07-0.25,0.16-0.08c0.09,0.17,0.83,0.21,1.2,0.21
					c0.56,0,0.76,0.27,0.51-0.28c-0.25-0.55-0.22-0.97-0.06-0.63c0.16,0.34,0.21,0.8,0.31,0.88s0.08,0.4,0.1-0.49
					c0.02-0.89,0.12-6.04,0.08-7.73C40,27.2,40.04,25.88,40,25.64c-0.12-0.66,0.07-1.58,0.03-3.04c-0.05-1.83-0.04-4.68-0.06-6.75
					c-0.02-2.08-0.02-2.66,0-4.19c0.02-1.52-0.24-2.1-0.12-2.58c0.25-0.95,0.03-1.36-0.01-2.08c-0.04-0.72,0.1-1.79,0.07-2.16
					c-0.02-0.29-0.4,0.81-0.56,0.64C39.2,5.3,40.04,4.8,39.73,4.69s-4.26,0.11-4.56,0s-0.22,0-0.22,0s-0.91,0-1.58,0
					c-0.66,0-14.87,0-15.23,0s-0.72,0.1-0.36,0.28c0.36,0.19-0.36-0.04-0.39,0.33C17.35,5.67,17.5,6.23,17.38,6.58z"/>
				<path fill="#FFFFFF" stroke="#1D2132" stroke-width="0.1" stroke-linecap="square" stroke-miterlimit="22.9256" d="M17.04,13.5
					c-0.1,0.98-0.04,5.7,0.05,5.7s-0.24-1.62,0.4-2.55c0.64-0.94,1.35-1.62,1.16-1.32c-0.19,0.3-0.21,0.34-0.42,0.55
					c-0.21,0.21-0.42,0.3-0.3,0.38c0.11,0.08,0.81-0.15,1.42-0.39c0.77-0.3,2.73,0,3.6,0.07c2.22,0.2,14.7,0.71,16.09,1.99
					c1.38,1.28,1.26,1.49,1.34,1.91c0.08,0.43-0.07,1.74,0.05,1.07c0.12-0.66,0.02-2.01,0.11-3.3c0.09-1.32,0.21-1.75,0.06-1.83
					c-0.15-0.09-1.85-1.27-1.6-1.07c0.06,0.05,1.51,0.9,1.62,0.86c0.11-0.04,0.03-0.46,0-0.94c-0.04-0.64-0.04-0.64-0.09-0.64
					c-0.25,0-1.01-0.11-1.94-0.07c-0.93,0.04-0.11-0.26,0.4-0.08c0.51,0.17,0.06-0.17-0.89-0.51c-0.95-0.34-14.83,0.38-15.51,0.08
					c-0.68-0.3-2.99-0.68-3.85-0.17C17.87,13.74,17.12,12.77,17.04,13.5z"/>
				<g>
					<path fill="#FFFFFF" stroke="#1D2132" stroke-width="0.1" stroke-linecap="square" stroke-miterlimit="22.9256" d="M29.38,4.46
						c-0.46,0-0.35,0.07-0.23,0.22c0.11,0.14,0.17,0.36,0,1.3c-0.17,0.95-0.23,1.65,0.06,2.55c0.29,0.9,0.13,1.01,0.02,1.25
						c-0.12,0.24-0.06,0.43,0.29,0.24c0.34-0.19,1.35,0.08,2.16,0.12c3.16,0.14,4.54,0.01,6.74-0.11c0.47-0.02,0.87-0.18,1.1-0.13
						c0.23,0.05,0.51-0.05,0.34-0.19c-0.17-0.14,0.23-1.7,0.11-2.84c-0.11-1.13-0.05-1.78,0.01-1.92c0.06-0.14-0.11-0.57-0.34-0.38
						c-0.23,0.19-1.16-0.1-1.61-0.15c-0.46-0.05-1.45-0.19-3.91-0.14c-2.46,0.05-3.55,0.03-3.95,0.17
						C29.77,4.61,29.5,4.46,29.38,4.46z"/>
					<path fill="none" stroke="#1D2132" stroke-width="0.1" stroke-linecap="square" stroke-miterlimit="22.9256" d="M29.82,9.4
						c0,0,1.88,0.64,4.69,0.64c2.81,0,4.85-0.88,4.85-0.88"/>
				</g>
				<g>
					<path fill="#FFFFFF" stroke="#1D2132" stroke-width="0.1" stroke-linecap="square" stroke-miterlimit="22.9256" d="M30.78,7.5
						c-0.34,0-0.25,0.06-0.17,0.17c0.08,0.12,0.12,0.29,0,1.05c-0.12,0.77-0.17,1.34,0.04,2.07c0.21,0.73,0.1,0.82,0.01,1.01
						C30.58,12,30.63,12.15,30.87,12c0.25-0.15,0.98,0.07,1.57,0.1c2.3,0.12,3.3,0.01,4.9-0.09c0.34-0.02,0.64-0.14,0.8-0.11
						c0.17,0.04,0.37-0.04,0.25-0.15c-0.12-0.11,0.17-1.38,0.08-2.3c-0.08-0.92-0.03-1.44,0.01-1.55c0.04-0.12-0.08-0.46-0.25-0.31
						c-0.17,0.15-0.84-0.08-1.17-0.12c-0.33-0.04-1.05-0.15-2.84-0.11c-1.79,0.04-2.58,0.02-2.87,0.14
						C31.06,7.61,30.87,7.5,30.78,7.5z"/>
					<path fill="none" stroke="#1D2132" stroke-width="0.1" stroke-linecap="square" stroke-miterlimit="22.9256" d="M31.1,11.49
						c0,0,1.36,0.52,3.41,0.52c2.04,0,3.52-0.71,3.52-0.71"/>
				</g>
				<g>
					<path fill="#FFFFFF" stroke="#1D2132" stroke-width="0.1" stroke-linecap="square" stroke-miterlimit="22.9256" d="M18.03,4.46
						c-0.46,0-0.35,0.07-0.23,0.22c0.11,0.14,0.17,0.36,0,1.3c-0.17,0.95-0.23,1.65,0.06,2.55c0.29,0.9,0.13,1.01,0.02,1.25
						c-0.12,0.24-0.06,0.43,0.29,0.24c0.34-0.19,1.35,0.08,2.16,0.12c3.16,0.14,4.54,0.01,6.74-0.11c0.47-0.02,0.87-0.18,1.1-0.13
						c0.23,0.05,0.51-0.05,0.34-0.19c-0.17-0.14,0.23-1.7,0.11-2.84c-0.11-1.13-0.05-1.78,0.01-1.92c0.06-0.14-0.11-0.57-0.34-0.38
						c-0.23,0.19-1.16-0.1-1.61-0.15c-0.46-0.05-1.45-0.19-3.91-0.14c-2.46,0.05-3.55,0.03-3.95,0.17
						C18.42,4.61,18.15,4.46,18.03,4.46z"/>
					<path fill="none" stroke="#1D2132" stroke-width="0.1" stroke-linecap="square" stroke-miterlimit="22.9256" d="M18.47,9.4
						c0,0,1.88,0.64,4.69,0.64c2.81,0,4.85-0.88,4.85-0.88"/>
				</g>
				<g>
					<path fill="#FFFFFF" stroke="#1D2132" stroke-width="0.1" stroke-linecap="square" stroke-miterlimit="22.9256" d="M19.43,7.5
						c-0.34,0-0.25,0.06-0.17,0.17c0.08,0.12,0.12,0.29,0,1.05c-0.12,0.77-0.17,1.34,0.04,2.07c0.21,0.73,0.1,0.82,0.01,1.01
						C19.23,12,19.27,12.15,19.52,12c0.25-0.15,0.98,0.07,1.57,0.1c2.3,0.12,3.3,0.01,4.9-0.09c0.34-0.02,0.64-0.14,0.8-0.11
						c0.17,0.04,0.37-0.04,0.25-0.15c-0.12-0.11,0.17-1.38,0.08-2.3c-0.08-0.92-0.03-1.44,0.01-1.55c0.04-0.12-0.08-0.46-0.25-0.31
						c-0.17,0.15-0.84-0.08-1.17-0.12c-0.33-0.04-1.05-0.15-2.84-0.11C21.08,7.4,20.3,7.38,20,7.5C19.71,7.61,19.51,7.5,19.43,7.5z"
						/>
					<path fill="none" stroke="#1D2132" stroke-width="0.1" stroke-linecap="square" stroke-miterlimit="22.9256" d="M19.75,11.49
						c0,0,1.36,0.52,3.41,0.52c2.04,0,3.52-0.71,3.52-0.71"/>
				</g>
				<path fill="#FFFFFF" stroke="#1D2132" stroke-width="0.1" stroke-linecap="square" stroke-miterlimit="22.9256" d="M40,37.23
					H17.4c-0.35,0-0.62-0.28-0.62-0.62v-9.57c0-0.35,0.28-0.62,0.62-0.62H40c0.35,0,0.62,0.28,0.62,0.62v9.57
					C40.63,36.95,40.35,37.23,40,37.23z"/>
			</g>
			<g>
				
					<rect x="10.42" y="2.82" fill="#FFFFFF" stroke="#1D2132" stroke-width="0.1" stroke-linecap="square" stroke-miterlimit="22.9256" width="36.78" height="0.83"/>
				<path fill="#FFFFFF" stroke="#1D2132" stroke-width="0.1" stroke-linecap="square" stroke-miterlimit="22.9256" d="M46.17,4.28
					H11.3c-0.35,0-0.63-0.28-0.63-0.63v0H46.8v0C46.8,4,46.52,4.28,46.17,4.28z"/>
				<g>
					<g>
						<g>
							<path fill="#FFFFFF" stroke="#1D2132" stroke-width="0.1" stroke-linecap="square" stroke-miterlimit="22.9256" d="
								M41.64,3.65h-1.26v0.15c0,0.35,0.28,0.63,0.63,0.63l0,0c0.35,0,0.63-0.28,0.63-0.63V3.65z"/>
							<path fill="#FFFFFF" stroke="#1D2132" stroke-width="0.1" stroke-linecap="square" stroke-miterlimit="22.9256" d="
								M37.05,8.31l0.94,0.22c0.05,0.53,0.02,1.06-0.07,1.59l0,0c-0.03,0.14-0.4,0.17-0.82,0.07c-0.42-0.1-0.73-0.29-0.7-0.43l0,0
								C36.53,9.26,36.74,8.78,37.05,8.31z"/>
							
								<ellipse transform="matrix(0.2315 -0.9728 0.9728 0.2315 20.6377 42.9749)" fill="#FFFFFF" stroke="#1D2132" stroke-width="0.1" stroke-linecap="square" stroke-miterlimit="22.9256" cx="37.52" cy="8.42" rx="0.16" ry="0.49"/>
							<path fill="#FFFFFF" stroke="#1D2132" stroke-width="0.1" stroke-linecap="square" stroke-miterlimit="22.9256" d="
								M37.65,8.37l0.04-0.1c0,0,0.21-0.53,0.99-0.92c0.15-0.07,0.31-0.14,0.48-0.21c0.5-0.21,1.06-0.45,1.44-0.93
								c0.5-0.64,0.5-1.64,0.5-1.68l0-0.1l-0.21,0l0,0.1c0,0.01,0,0.97-0.45,1.55c-0.35,0.44-0.86,0.65-1.36,0.86
								c-0.17,0.07-0.34,0.14-0.49,0.22C37.73,7.6,37.5,8.18,37.49,8.2l-0.04,0.1C37.45,8.35,37.57,8.39,37.65,8.37z"/>
						</g>
					</g>
					<g>
						<g>
							<path fill="#FFFFFF" stroke="#1D2132" stroke-width="0.1" stroke-linecap="square" stroke-miterlimit="22.9256" d="
								M15.84,3.65h1.26v0.15c0,0.35-0.28,0.63-0.63,0.63h0c-0.35,0-0.63-0.28-0.63-0.63V3.65z"/>
							<path fill="#FFFFFF" stroke="#1D2132" stroke-width="0.1" stroke-linecap="square" stroke-miterlimit="22.9256" d="
								M20.43,8.31l-0.94,0.22c-0.05,0.53-0.02,1.06,0.07,1.59l0,0c0.03,0.14,0.4,0.17,0.82,0.07c0.42-0.1,0.73-0.29,0.7-0.43l0,0
								C20.96,9.26,20.74,8.78,20.43,8.31z"/>
							
								<ellipse transform="matrix(0.9728 -0.2315 0.2315 0.9728 -1.4081 4.8502)" fill="#FFFFFF" stroke="#1D2132" stroke-width="0.1" stroke-linecap="square" stroke-miterlimit="22.9256" cx="19.96" cy="8.42" rx="0.49" ry="0.16"/>
							<path fill="#FFFFFF" stroke="#1D2132" stroke-width="0.1" stroke-linecap="square" stroke-miterlimit="22.9256" d="
								M19.84,8.37l-0.04-0.1c0,0-0.21-0.53-0.99-0.92c-0.15-0.07-0.31-0.14-0.48-0.21c-0.5-0.21-1.06-0.45-1.44-0.93
								c-0.5-0.64-0.5-1.64-0.5-1.68l0-0.1l0.21,0l0,0.1c0,0.01,0,0.97,0.45,1.55c0.35,0.44,0.86,0.65,1.36,0.86
								c0.17,0.07,0.34,0.14,0.49,0.22c0.85,0.43,1.08,1.01,1.09,1.03l0.04,0.1C20.03,8.35,19.91,8.39,19.84,8.37z"/>
						</g>
					</g>
				</g>
			</g>
		</g>
	</g>
	<g>
		
			<rect x="5.87" y="47.69" transform="matrix(-1 -1.224647e-16 1.224647e-16 -1 12.5972 98.3763)" fill="#FFFFFF" stroke="#1D2132" stroke-width="0.1" stroke-linecap="square" stroke-miterlimit="10" width="0.85" height="3.01"/>
		<path fill="#FFFFFF" stroke="#1D2132" stroke-width="0.1" stroke-linecap="square" stroke-miterlimit="10" d="M13.17,48.47
			L13.17,48.47c0.21-0.21,0.21-0.56-0.01-0.77l-1.41-1.38c-0.21-0.21-0.56-0.21-0.77,0.01l0,0c-0.21,0.21-0.21,0.56,0.01,0.77
			l1.41,1.38C12.62,48.69,12.96,48.69,13.17,48.47z"/>
		
			<rect x="12.28" y="38.49" transform="matrix(-0.7005 0.7136 -0.7136 -0.7005 54.6661 71.2283)" fill="#FFFFFF" stroke="#1D2132" stroke-width="0.1" stroke-linecap="square" stroke-miterlimit="10" width="0.22" height="17.18"/>
		<path fill="#FFFFFF" stroke="#1D2132" stroke-width="0.1" stroke-linecap="square" stroke-miterlimit="10" d="M6.49,49.51
			l2.77,0.28c0.19,0.02,0.35-0.12,0.37-0.3l0,0c0.02-0.19-0.12-0.35-0.3-0.37l-2.77-0.28c-0.19-0.02-0.35,0.12-0.37,0.3v0
			C6.16,49.33,6.3,49.49,6.49,49.51z"/>
		<path fill="#FFFFFF" stroke="#1D2132" stroke-width="0.1" stroke-linecap="square" stroke-miterlimit="10" d="M9.51,49.68
			l2.27-1.61c0.15-0.11,0.19-0.32,0.08-0.48l0,0c-0.11-0.15-0.32-0.19-0.48-0.08l-2.27,1.61c-0.15,0.11-0.19,0.32-0.08,0.48l0,0
			C9.14,49.75,9.36,49.78,9.51,49.68z"/>
		<polygon fill="#FFFFFF" stroke="#1D2132" stroke-width="0.1" stroke-linecap="square" stroke-miterlimit="10" points="
			16.36,51.76 18.44,53.18 6.18,41.15 7.64,43.2 		"/>
		
			<circle fill="#FFFFFF" stroke="#1D2132" stroke-width="0.1" stroke-linecap="square" stroke-miterlimit="10" cx="9.28" cy="49.4" r="0.34"/>
	</g>
	<g>
		<g>
			
				<rect x="-0.46" y="70.21" transform="matrix(3.267948e-07 1 -1 3.267948e-07 76.9545 64.4674)" fill="#FFFFFF" stroke="#1D2132" stroke-width="0.1" stroke-linecap="square" stroke-miterlimit="10" width="13.41" height="1.01"/>
			
				<line fill="none" stroke="#1D2132" stroke-width="0.1" stroke-linecap="square" stroke-miterlimit="10" x1="5.94" y1="65.06" x2="6.55" y2="65.06"/>
			
				<line fill="none" stroke="#1D2132" stroke-width="0.1" stroke-linecap="square" stroke-miterlimit="10" x1="5.94" y1="65.42" x2="6.55" y2="65.42"/>
			
				<line fill="none" stroke="#1D2132" stroke-width="0.1" stroke-linecap="square" stroke-miterlimit="10" x1="5.94" y1="64.34" x2="6.55" y2="64.34"/>
			
				<line fill="none" stroke="#1D2132" stroke-width="0.1" stroke-linecap="square" stroke-miterlimit="10" x1="5.94" y1="64.7" x2="6.55" y2="64.7"/>
			
				<line fill="none" stroke="#1D2132" stroke-width="0.1" stroke-linecap="square" stroke-miterlimit="10" x1="5.94" y1="65.78" x2="6.55" y2="65.78"/>
			
				<line fill="none" stroke="#1D2132" stroke-width="0.1" stroke-linecap="square" stroke-miterlimit="10" x1="5.94" y1="66.15" x2="6.55" y2="66.15"/>
			
				<line fill="none" stroke="#1D2132" stroke-width="0.1" stroke-linecap="square" stroke-miterlimit="10" x1="5.94" y1="66.51" x2="6.55" y2="66.51"/>
			
				<line fill="none" stroke="#1D2132" stroke-width="0.1" stroke-linecap="square" stroke-miterlimit="10" x1="5.94" y1="66.87" x2="6.55" y2="66.87"/>
			
				<line fill="none" stroke="#1D2132" stroke-width="0.1" stroke-linecap="square" stroke-miterlimit="10" x1="5.94" y1="67.23" x2="6.55" y2="67.23"/>
			
				<line fill="none" stroke="#1D2132" stroke-width="0.1" stroke-linecap="square" stroke-miterlimit="10" x1="5.94" y1="67.59" x2="6.55" y2="67.59"/>
			
				<line fill="none" stroke="#1D2132" stroke-width="0.1" stroke-linecap="square" stroke-miterlimit="10" x1="5.94" y1="68.68" x2="6.55" y2="68.68"/>
			
				<line fill="none" stroke="#1D2132" stroke-width="0.1" stroke-linecap="square" stroke-miterlimit="10" x1="5.94" y1="69.04" x2="6.55" y2="69.04"/>
			
				<line fill="none" stroke="#1D2132" stroke-width="0.1" stroke-linecap="square" stroke-miterlimit="10" x1="5.94" y1="67.96" x2="6.55" y2="67.96"/>
			
				<line fill="none" stroke="#1D2132" stroke-width="0.1" stroke-linecap="square" stroke-miterlimit="10" x1="5.94" y1="68.32" x2="6.55" y2="68.32"/>
			
				<line fill="none" stroke="#1D2132" stroke-width="0.1" stroke-linecap="square" stroke-miterlimit="10" x1="5.94" y1="69.4" x2="6.55" y2="69.4"/>
			
				<line fill="none" stroke="#1D2132" stroke-width="0.1" stroke-linecap="square" stroke-miterlimit="10" x1="5.94" y1="69.77" x2="6.55" y2="69.77"/>
			
				<line fill="none" stroke="#1D2132" stroke-width="0.1" stroke-linecap="square" stroke-miterlimit="10" x1="5.94" y1="70.13" x2="6.55" y2="70.13"/>
			
				<line fill="none" stroke="#1D2132" stroke-width="0.1" stroke-linecap="square" stroke-miterlimit="10" x1="5.94" y1="70.49" x2="6.55" y2="70.49"/>
			
				<line fill="none" stroke="#1D2132" stroke-width="0.1" stroke-linecap="square" stroke-miterlimit="10" x1="5.94" y1="70.85" x2="6.55" y2="70.85"/>
			
				<line fill="none" stroke="#1D2132" stroke-width="0.1" stroke-linecap="square" stroke-miterlimit="10" x1="5.94" y1="71.21" x2="6.55" y2="71.21"/>
			
				<line fill="none" stroke="#1D2132" stroke-width="0.1" stroke-linecap="square" stroke-miterlimit="10" x1="5.94" y1="72.3" x2="6.55" y2="72.3"/>
			
				<line fill="none" stroke="#1D2132" stroke-width="0.1" stroke-linecap="square" stroke-miterlimit="10" x1="5.94" y1="72.66" x2="6.55" y2="72.66"/>
			
				<line fill="none" stroke="#1D2132" stroke-width="0.1" stroke-linecap="square" stroke-miterlimit="10" x1="5.94" y1="71.58" x2="6.55" y2="71.58"/>
			
				<line fill="none" stroke="#1D2132" stroke-width="0.1" stroke-linecap="square" stroke-miterlimit="10" x1="5.94" y1="71.94" x2="6.55" y2="71.94"/>
			
				<line fill="none" stroke="#1D2132" stroke-width="0.1" stroke-linecap="square" stroke-miterlimit="10" x1="5.94" y1="73.02" x2="6.55" y2="73.02"/>
			
				<line fill="none" stroke="#1D2132" stroke-width="0.1" stroke-linecap="square" stroke-miterlimit="10" x1="5.94" y1="73.39" x2="6.55" y2="73.39"/>
			
				<line fill="none" stroke="#1D2132" stroke-width="0.1" stroke-linecap="square" stroke-miterlimit="10" x1="5.94" y1="73.75" x2="6.55" y2="73.75"/>
			
				<line fill="none" stroke="#1D2132" stroke-width="0.1" stroke-linecap="square" stroke-miterlimit="10" x1="5.94" y1="74.11" x2="6.55" y2="74.11"/>
			
				<line fill="none" stroke="#1D2132" stroke-width="0.1" stroke-linecap="square" stroke-miterlimit="10" x1="5.94" y1="74.47" x2="6.55" y2="74.47"/>
			
				<line fill="none" stroke="#1D2132" stroke-width="0.1" stroke-linecap="square" stroke-miterlimit="10" x1="5.94" y1="74.83" x2="6.55" y2="74.83"/>
			
				<line fill="none" stroke="#1D2132" stroke-width="0.1" stroke-linecap="square" stroke-miterlimit="10" x1="5.94" y1="75.92" x2="6.55" y2="75.92"/>
			
				<line fill="none" stroke="#1D2132" stroke-width="0.1" stroke-linecap="square" stroke-miterlimit="10" x1="5.94" y1="76.28" x2="6.55" y2="76.28"/>
			
				<line fill="none" stroke="#1D2132" stroke-width="0.1" stroke-linecap="square" stroke-miterlimit="10" x1="5.94" y1="75.2" x2="6.55" y2="75.2"/>
			
				<line fill="none" stroke="#1D2132" stroke-width="0.1" stroke-linecap="square" stroke-miterlimit="10" x1="5.94" y1="75.56" x2="6.55" y2="75.56"/>
			
				<line fill="none" stroke="#1D2132" stroke-width="0.1" stroke-linecap="square" stroke-miterlimit="10" x1="5.94" y1="76.64" x2="6.55" y2="76.64"/>
			
				<line fill="none" stroke="#1D2132" stroke-width="0.1" stroke-linecap="square" stroke-miterlimit="10" x1="5.94" y1="77.01" x2="6.55" y2="77.01"/>
		</g>
		<path fill="none" stroke="#1D2132" stroke-width="0.1" stroke-linecap="square" stroke-miterlimit="10" d="M6.94,54.57
			c0,1,0.94,0,0.94,1c0,1-0.94,0-0.94,1c0,1,0.94,0,0.94,1c0,1-0.94,0-0.94,1c0,1,0.94,0,0.94,1c0,1-0.94,0-0.94,1
			c0,1,0.94,0,0.94,1c0,1-0.94,0-0.94,1c0,1,0.94,0,0.94,1c0,1-0.94,0-0.94,1c0,1,0.94,0,0.94,1c0,1-0.94,0-0.94,1
			c0,1,0.94,0,0.94,1c0,1-0.94,0-0.94,1c0,1,0.94,0,0.94,1s-0.94,0-0.94,1c0,1,0.94,0,0.94,1c0,1-0.94,0-0.94,1c0,1,0.94,0,0.94,1
			c0,1-0.94,0-0.94,1c0,1,0.94,0,0.94,1c0,1-0.94,0-0.94,1c0,1,0.94,0,0.94,1c0,1-0.94,0-0.94,1c0,1,0.94,0,0.94,1
			c0,1-0.94,0-0.94,1s0.94,0,0.94,1c0,1-0.94,0-0.94,1c0,1,0.94,0,0.94,1c0,1-0.94,0-0.94,1c0,1,0.94,0,0.94,1c0,1-0.94,0-0.94,1
			c0,1,0.94,0,0.94,1"/>
	</g>
	<g>
		
			<rect x="91.95" y="16.04" transform="matrix(6.123234e-17 -1 1 6.123234e-17 72.9038 111.8629)" fill="#FFFFFF" stroke="#1D2132" stroke-width="0.1" stroke-linecap="square" stroke-miterlimit="10" width="0.86" height="6.87"/>
		<g>
			
				<rect x="89.44" y="19.91" fill="#FFFFFF" stroke="#1D2132" stroke-width="0.1" stroke-linecap="square" stroke-miterlimit="10" width="0.38" height="1.31"/>
			
				<rect x="89.44" y="19.91" fill="#FFFFFF" stroke="#1D2132" stroke-width="0.1" stroke-linecap="square" stroke-miterlimit="10" width="0.38" height="0.24"/>
		</g>
		<g>
			
				<rect x="91.27" y="19.91" fill="#FFFFFF" stroke="#1D2132" stroke-width="0.1" stroke-linecap="square" stroke-miterlimit="10" width="0.38" height="1.31"/>
			
				<rect x="91.27" y="19.91" fill="#FFFFFF" stroke="#1D2132" stroke-width="0.1" stroke-linecap="square" stroke-miterlimit="10" width="0.38" height="0.24"/>
		</g>
		<g>
			
				<rect x="93.11" y="19.91" fill="#FFFFFF" stroke="#1D2132" stroke-width="0.1" stroke-linecap="square" stroke-miterlimit="10" width="0.38" height="1.31"/>
			
				<rect x="93.11" y="19.91" fill="#FFFFFF" stroke="#1D2132" stroke-width="0.1" stroke-linecap="square" stroke-miterlimit="10" width="0.38" height="0.24"/>
		</g>
		<g>
			
				<rect x="94.95" y="19.91" fill="#FFFFFF" stroke="#1D2132" stroke-width="0.1" stroke-linecap="square" stroke-miterlimit="10" width="0.38" height="1.31"/>
			
				<rect x="94.95" y="19.91" fill="#FFFFFF" stroke="#1D2132" stroke-width="0.1" stroke-linecap="square" stroke-miterlimit="10" width="0.38" height="0.24"/>
		</g>
	</g>
	<g>
		
			<rect x="64.65" y="7.71" transform="matrix(-3.342634e-07 -1 1 -3.342634e-07 45.6261 93.7561)" fill="#FFFFFF" stroke="#1D2132" stroke-width="0.0902" stroke-linecap="square" stroke-miterlimit="10" width="10.07" height="32.7"/>
		<g>
			<path fill="#FFFFFF" stroke="#1D2132" stroke-width="0.0902" stroke-linecap="square" stroke-miterlimit="10" d="M70.05,23.05
				c0.08,0,0.14-0.06,0.14-0.14v-0.47c0-0.16-0.13-0.25-0.28-0.35c-0.18-0.13-0.41-0.28-0.47-0.62c-0.04-0.23,0.04-0.43,0.21-0.55
				c0.18-0.13,0.44-0.15,0.65-0.04c0.43,0.22,0.36,0.69,0.36,0.7c-0.01,0.08,0.04,0.15,0.12,0.16c0.08,0.01,0.15-0.04,0.16-0.12
				c0.03-0.23-0.03-0.74-0.52-0.99c-0.31-0.16-0.68-0.13-0.95,0.06c-0.26,0.19-0.38,0.5-0.32,0.83c0.08,0.46,0.39,0.67,0.59,0.81
				c0.06,0.04,0.14,0.09,0.15,0.12v0.47C69.9,22.99,69.97,23.05,70.05,23.05z M69.9,22.43L69.9,22.43L69.9,22.43z"/>
			<path fill="#FFFFFF" stroke="#1D2132" stroke-width="0.0902" stroke-linecap="square" stroke-miterlimit="10" d="M65.2,26.2h9.71
				c0.36,0,0.77,0.09,0.86-0.26c0.09-0.35-0.07-0.7-0.39-0.88c-0.01,0-0.01-0.01-0.02-0.01l-4.44-2.1
				c-0.04-0.02-0.07-0.02-0.11-0.02h-1.5c-0.04,0-0.08,0.01-0.11,0.02l-4.44,2.1c-0.01,0-0.01,0.01-0.02,0.01
				c-0.32,0.17-0.48,0.52-0.39,0.88C64.44,26.29,64.84,26.2,65.2,26.2z M75.44,25.57c0.12,0.07,0.1,0.19,0.09,0.22
				c-0.01,0.04-0.05,0.15-0.2,0.15H64.78c-0.15,0-0.19-0.12-0.2-0.15c-0.01-0.04-0.03-0.15,0.09-0.22l4.69-1.34h1.38L75.44,25.57z"
				/>
		</g>
	</g>
</g>
<g id="Windows">
	
		<polyline fill="none" stroke="#1D2132" stroke-width="0.1" stroke-linecap="round" stroke-linejoin="round" stroke-miterlimit="10" points="
		4.18,85.28 3,85.28 3,56.85 4.18,56.85 4.18,85.28 	"/>
	
		<polyline fill="none" stroke="#1D2132" stroke-width="0.1" stroke-linecap="round" stroke-linejoin="round" stroke-miterlimit="10" points="
		5.68,55.17 3,55.17 3,86.94 5.68,86.94 5.68,55.17 	"/>
	
		<polyline fill="none" stroke="#1D2132" stroke-width="0.1" stroke-linecap="round" stroke-linejoin="round" stroke-miterlimit="10" points="
		4.18,55.08 4.18,54.65 3,54.65 3,55.08 4.18,55.08 3,55.08 3,56.85 4.18,56.85 4.18,55.08 	"/>
	
		<polyline fill="none" stroke="#1D2132" stroke-width="0.1" stroke-linecap="round" stroke-linejoin="round" stroke-miterlimit="10" points="
		4.18,85.28 3,85.28 3,86.94 4.18,86.94 4.18,85.28 	"/>
	
		<polyline fill="none" stroke="#1D2132" stroke-width="0.1" stroke-linecap="round" stroke-linejoin="round" stroke-miterlimit="10" points="
		3,86.11 0.33,86.11 0.33,56 3,56 3,86.11 	"/>
</g>
<g id="Doors">
	<g>
		<g>
			<g>
				<polygon fill="none" stroke="#1D2132" stroke-width="0.1" stroke-miterlimit="10" points="79.71,54.16 79.71,52.82 80.43,52.82 
					80.43,54.16 				"/>
				<polygon fill="none" stroke="#1D2132" stroke-width="0.1" stroke-miterlimit="10" points="61.93,54.16 61.93,52.82 61.2,52.82 
					61.2,54.16 				"/>
				<polyline fill="none" stroke="#1D2132" stroke-width="0.1" stroke-miterlimit="10" points="67.14,40.23 66.92,40.48 
					66.71,40.71 66.49,40.96 66.27,41.2 66.07,41.45 65.87,41.71 65.66,41.96 65.47,42.22 65.29,42.49 65.1,42.75 64.92,43.03 
					64.75,43.3 64.58,43.58 64.42,43.85 64.26,44.14 64.1,44.42 63.95,44.71 63.81,45 63.66,45.29 63.53,45.59 63.4,45.88 
					63.27,46.18 63.16,46.49 63.04,46.79 62.94,47.1 62.84,47.4 62.74,47.7 62.65,48.02 62.56,48.33 62.48,48.65 62.4,48.96 
					62.33,49.28 62.27,49.6 62.2,49.92 62.16,50.24 62.1,50.56 62.07,50.88 62.03,51.19 62,51.53 61.97,51.85 61.96,52.82 
					61.94,52.82 61.93,52.82 				"/>
				<polygon fill="none" stroke="#1D2132" stroke-width="0.1" stroke-miterlimit="10" points="79.58,52.74 67.14,40.23 66.71,40.71 
					79.07,53.25 				"/>
			</g>
		</g>
	</g>
	<g>
		<g>
			<g>
				<polygon fill="none" stroke="#1D2132" stroke-width="0.1" stroke-miterlimit="10" points="99.58,30.98 98.13,30.98 98.13,30.25 
					99.58,30.25 				"/>
				<polygon fill="none" stroke="#1D2132" stroke-width="0.1" stroke-miterlimit="10" points="99.58,48.76 98.13,48.76 98.13,49.48 
					99.58,49.48 				"/>
				<polyline fill="none" stroke="#1D2132" stroke-width="0.1" stroke-miterlimit="10" points="85.65,43.54 85.9,43.76 86.13,43.98 
					86.38,44.2 86.62,44.41 86.87,44.62 87.13,44.82 87.37,45.02 87.63,45.21 87.91,45.4 88.17,45.59 88.45,45.76 88.72,45.93 
					89,46.11 89.27,46.27 89.56,46.43 89.84,46.59 90.13,46.73 90.41,46.87 90.7,47.02 91.01,47.15 91.3,47.28 91.6,47.41 
					91.91,47.53 92.21,47.64 92.51,47.74 92.82,47.84 93.12,47.95 93.44,48.03 93.74,48.12 94.06,48.21 94.38,48.28 94.7,48.35 
					95.02,48.41 95.34,48.48 95.66,48.53 95.97,48.58 96.29,48.61 96.61,48.66 96.94,48.68 97.26,48.71 97.58,48.73 97.91,48.74 
					98.23,48.76 				"/>
				<polygon fill="none" stroke="#1D2132" stroke-width="0.1" stroke-miterlimit="10" points="98.16,31.11 85.65,43.54 86.13,43.98 
					98.67,31.61 				"/>
			</g>
		</g>
	</g>
</g>
<g id="Walls">
	<polyline fill="#1D2132" stroke="#1D2132" stroke-width="0.1" stroke-miterlimit="10" points="0.49,44.47 3,44.47 3,56 0.49,56 
		0.49,46.97 0.49,46.97 	"/>
	<polyline fill="#1D2132" stroke="#1D2132" stroke-width="0.1" stroke-miterlimit="10" points="3,44.47 3,55.17 5.68,55.17 
		5.68,44.47 3,44.47 	"/>
	<polyline fill="#1D2132" stroke="#1D2132" stroke-width="0.1" stroke-miterlimit="10" points="3,86.94 3,91.46 5.68,91.46 
		5.68,86.94 3,86.94 	"/>
	<polyline fill="#1D2132" stroke="#1D2132" stroke-width="0.1" stroke-miterlimit="10" points="5.68,94.8 5.68,94.8 3,94.8 	"/>
	<line fill="none" stroke="#1D2132" stroke-width="0.1" stroke-miterlimit="10" x1="3" y1="94.8" x2="3" y2="94.8"/>
	<polyline fill="#1D2132" stroke="#1D2132" stroke-width="0.1" stroke-miterlimit="10" points="3,44.47 3,41.8 0.49,41.8 
		0.49,46.97 0.49,56 3,56 3,55.17 5.68,55.17 5.68,44.47 3,44.47 3,41.8 	"/>
	<line fill="none" stroke="#1D2132" stroke-width="0.1" stroke-miterlimit="10" x1="3" y1="44.47" x2="0.49" y2="44.47"/>
	<polygon fill="#1D2132" stroke="#1D2132" stroke-width="0.1" stroke-miterlimit="10" points="3,91.46 3,94.8 100.33,94.8 
		100.33,49.48 97.65,49.48 97.65,91.46 3,91.46 3,94.8 0.49,94.8 0.49,86.11 3,86.11 	"/>
	<polyline fill="#1D2132" stroke="#1D2132" stroke-width="0.1" stroke-miterlimit="10" points="52.01,19.05 52.01,29.08 
		53.34,29.08 53.34,19.05 52.01,19.05 	"/>
	<polyline fill="#1D2132" stroke="#1D2132" stroke-width="0.1" stroke-miterlimit="10" points="97.65,52.82 80.43,52.82 
		80.43,54.16 97.65,54.16 97.65,52.82 	"/>
	<polyline fill="#1D2132" stroke="#1D2132" stroke-width="0.1" stroke-miterlimit="10" points="61.2,52.82 52.01,52.82 52.01,91.46 
		53.34,91.46 53.34,54.16 61.2,54.16 61.2,52.82 	"/>
	<polyline fill="#1D2132" stroke="#1D2132" stroke-width="0.1" stroke-miterlimit="10" points="5.68,0.15 5.68,44.47 3,44.47 
		3,0.15 5.68,0.15 	"/>
	<polyline fill="#1D2132" stroke="#1D2132" stroke-width="0.1" stroke-miterlimit="10" points="5.68,2.82 52.01,2.82 52.01,19.05 
		97.65,19.05 97.65,16.38 54.68,16.38 54.68,0.15 5.68,0.15 5.68,2.82 	"/>
	<polyline fill="#1D2132" stroke="#1D2132" stroke-width="0.1" stroke-miterlimit="10" points="100.33,30.25 100.33,16.38 
		97.65,16.38 97.65,30.25 100.33,30.25 	"/>
	<polyline fill="#1D2132" stroke="#1D2132" stroke-width="0.1" stroke-miterlimit="10" points="5.68,91.2 5.68,86.94 3,86.94 
		3,86.11 3,94.8 	"/>
</g>
<g id="Text">
	
		<text id="TXT-Кухня-гостинная-С" transform="matrix(1 0 0 1 24.7344 54.6501)" opacity="0.7" fill="#1D2132" enable-background="new    " font-family="'Cannonade-Medium'" font-size="3px">14,68</text>
	
		<text id="TXT-Коридор-С" transform="matrix(1 0 0 1 66.7104 37.2344)" opacity="0.7" fill="#1D2132" enable-background="new    " font-family="'Cannonade-Medium'" font-size="3px">5,46</text>
	
		<text id="TXT-Санузел-С" transform="matrix(1 0 0 1 70.0521 71.2)" opacity="0.7" fill="#1D2132" enable-background="new    " font-family="'Cannonade-Medium'" font-size="3px">5,56</text>
</g>
<g id="Details">
	<path fill="none" stroke="#1D2132" stroke-width="0.1" stroke-linecap="round" stroke-linejoin="round" stroke-miterlimit="10" d="
		M95.15,90.11c0,0.55,0.45,1,1,1s1-0.45,1-1s-0.45-1-1-1S95.15,89.55,95.15,90.11"/>
	<path fill="none" stroke="#1D2132" stroke-width="0.1" stroke-linecap="round" stroke-linejoin="round" stroke-miterlimit="10" d="
		M95.34,90.11c0,0.45,0.36,0.81,0.81,0.81s0.81-0.36,0.81-0.81s-0.36-0.81-0.81-0.81C95.71,89.3,95.34,89.66,95.34,90.11"/>
	<path fill="none" stroke="#1D2132" stroke-width="0.1" stroke-linecap="round" stroke-linejoin="round" stroke-miterlimit="10" d="
		M95.39,90.11c0,0.42,0.34,0.76,0.76,0.76c0.42,0,0.76-0.34,0.76-0.76c0-0.42-0.34-0.76-0.76-0.76
		C95.73,89.35,95.39,89.69,95.39,90.11"/>
	<polygon fill="#1D2132" points="96.16,91.09 96.11,91.11 96.07,91.13 96.05,91.18 96.05,91.23 96.07,91.27 96.11,91.3 96.16,91.31 
		96.21,91.3 96.24,91.27 96.27,91.23 96.27,91.18 96.24,91.13 96.21,91.11 	"/>
	<polygon fill="none" points="96.16,91.09 96.11,91.11 96.07,91.13 96.05,91.18 96.05,91.23 96.07,91.27 96.11,91.3 96.16,91.31 
		96.21,91.3 96.24,91.27 96.27,91.23 96.27,91.18 96.24,91.13 96.21,91.11 	"/>
	
		<line fill="none" stroke="#1D2132" stroke-width="0.1" stroke-linecap="round" stroke-linejoin="round" stroke-miterlimit="10" x1="96.16" y1="91.15" x2="96.16" y2="90.81"/>
	<polygon fill="#1D2132" points="96.16,90.65 96.11,90.66 96.07,90.69 96.05,90.73 96.05,90.78 96.07,90.83 96.11,90.85 
		96.16,90.87 96.21,90.85 96.24,90.83 96.27,90.78 96.27,90.73 96.24,90.69 96.21,90.66 	"/>
	<polygon fill="none" points="96.16,90.65 96.11,90.66 96.07,90.69 96.05,90.73 96.05,90.78 96.07,90.83 96.11,90.85 96.16,90.87 
		96.21,90.85 96.24,90.83 96.27,90.78 96.27,90.73 96.24,90.69 96.21,90.66 	"/>
	
		<line fill="none" stroke="#1D2132" stroke-width="0.1" stroke-linecap="round" stroke-linejoin="round" stroke-miterlimit="10" x1="96.16" y1="90.71" x2="96.16" y2="90.36"/>
	<polygon fill="#1D2132" points="96.16,90.21 96.11,90.22 96.07,90.24 96.05,90.29 96.05,90.34 96.07,90.39 96.11,90.41 
		96.16,90.42 96.21,90.41 96.24,90.39 96.27,90.34 96.27,90.29 96.24,90.24 96.21,90.22 	"/>
	<polygon fill="none" points="96.16,90.21 96.11,90.22 96.07,90.24 96.05,90.29 96.05,90.34 96.07,90.39 96.11,90.41 96.16,90.42 
		96.21,90.41 96.24,90.39 96.27,90.34 96.27,90.29 96.24,90.24 96.21,90.22 	"/>
	
		<line fill="none" stroke="#1D2132" stroke-width="0.1" stroke-linecap="round" stroke-linejoin="round" stroke-miterlimit="10" x1="96.16" y1="90.27" x2="96.16" y2="89.92"/>
	<polygon fill="#1D2132" points="96.16,89.76 96.11,89.78 96.07,89.8 96.05,89.85 96.05,89.9 96.07,89.94 96.11,89.97 96.16,89.98 
		96.21,89.97 96.24,89.94 96.27,89.9 96.27,89.85 96.24,89.8 96.21,89.78 	"/>
	<polygon fill="none" points="96.16,89.76 96.11,89.78 96.07,89.8 96.05,89.85 96.05,89.9 96.07,89.94 96.11,89.97 96.16,89.98 
		96.21,89.97 96.24,89.94 96.27,89.9 96.27,89.85 96.24,89.8 96.21,89.78 	"/>
	
		<line fill="none" stroke="#1D2132" stroke-width="0.1" stroke-linecap="round" stroke-linejoin="round" stroke-miterlimit="10" x1="96.16" y1="89.84" x2="96.16" y2="89.48"/>
	<polygon fill="#1D2132" points="96.16,89.33 96.11,89.35 96.07,89.37 96.05,89.42 96.05,89.47 96.07,89.51 96.11,89.54 
		96.16,89.55 96.21,89.54 96.24,89.51 96.27,89.47 96.27,89.42 96.24,89.37 96.21,89.35 	"/>
	<polygon fill="none" points="96.16,89.33 96.11,89.35 96.07,89.37 96.05,89.42 96.05,89.47 96.07,89.51 96.11,89.54 96.16,89.55 
		96.21,89.54 96.24,89.51 96.27,89.47 96.27,89.42 96.24,89.37 96.21,89.35 	"/>
	
		<line fill="none" stroke="#1D2132" stroke-width="0.1" stroke-linecap="round" stroke-linejoin="round" stroke-miterlimit="10" x1="96.16" y1="89.39" x2="96.16" y2="89.03"/>
	<polygon fill="#1D2132" points="96.16,88.89 96.11,88.9 96.07,88.93 96.05,88.97 96.05,89.02 96.07,89.07 96.11,89.09 96.16,89.11 
		96.21,89.09 96.24,89.07 96.27,89.02 96.27,88.97 96.24,88.93 96.21,88.9 	"/>
	<polygon fill="none" points="96.16,88.89 96.11,88.9 96.07,88.93 96.05,88.97 96.05,89.02 96.07,89.07 96.11,89.09 96.16,89.11 
		96.21,89.09 96.24,89.07 96.27,89.02 96.27,88.97 96.24,88.93 96.21,88.9 	"/>
	
		<line fill="none" stroke="#1D2132" stroke-width="0.1" stroke-linecap="round" stroke-linejoin="round" stroke-miterlimit="10" x1="96.16" y1="88.95" x2="96.16" y2="88.7"/>
	
		<line fill="none" stroke="#1D2132" stroke-width="0.1" stroke-linecap="round" stroke-linejoin="round" stroke-miterlimit="10" x1="97.55" y1="90.11" x2="97.3" y2="90.11"/>
	<polygon fill="#1D2132" points="97.26,90 97.21,90.02 97.18,90.04 97.15,90.09 97.15,90.14 97.18,90.18 97.21,90.21 97.26,90.22 
		97.31,90.21 97.34,90.18 97.37,90.14 97.37,90.09 97.34,90.04 97.31,90.02 	"/>
	<polygon fill="none" points="97.26,90 97.21,90.02 97.18,90.04 97.15,90.09 97.15,90.14 97.18,90.18 97.21,90.21 97.26,90.22 
		97.31,90.21 97.34,90.18 97.37,90.14 97.37,90.09 97.34,90.04 97.31,90.02 	"/>
	
		<line fill="none" stroke="#1D2132" stroke-width="0.1" stroke-linecap="round" stroke-linejoin="round" stroke-miterlimit="10" x1="97.21" y1="90.11" x2="96.86" y2="90.11"/>
	<polygon fill="#1D2132" points="96.82,90 96.77,90.02 96.73,90.04 96.71,90.09 96.71,90.14 96.73,90.18 96.77,90.21 96.82,90.22 
		96.86,90.21 96.9,90.18 96.92,90.14 96.92,90.09 96.9,90.04 96.86,90.02 	"/>
	<polygon fill="none" points="96.82,90 96.77,90.02 96.73,90.04 96.71,90.09 96.71,90.14 96.73,90.18 96.77,90.21 96.82,90.22 
		96.86,90.21 96.9,90.18 96.92,90.14 96.92,90.09 96.9,90.04 96.86,90.02 	"/>
	
		<line fill="none" stroke="#1D2132" stroke-width="0.1" stroke-linecap="round" stroke-linejoin="round" stroke-miterlimit="10" x1="96.77" y1="90.11" x2="96.42" y2="90.11"/>
	<polygon fill="#1D2132" points="96.37,90 96.33,90.02 96.29,90.04 96.27,90.09 96.27,90.14 96.29,90.18 96.33,90.21 96.37,90.22 
		96.42,90.21 96.46,90.18 96.48,90.14 96.48,90.09 96.46,90.04 96.42,90.02 	"/>
	<polygon fill="none" points="96.37,90 96.33,90.02 96.29,90.04 96.27,90.09 96.27,90.14 96.29,90.18 96.33,90.21 96.37,90.22 
		96.42,90.21 96.46,90.18 96.48,90.14 96.48,90.09 96.46,90.04 96.42,90.02 	"/>
	
		<line fill="none" stroke="#1D2132" stroke-width="0.1" stroke-linecap="round" stroke-linejoin="round" stroke-miterlimit="10" x1="96.34" y1="90.11" x2="95.98" y2="90.11"/>
	<polygon fill="#1D2132" points="95.93,90 95.88,90.02 95.85,90.04 95.82,90.09 95.82,90.14 95.85,90.18 95.88,90.21 95.93,90.22 
		95.98,90.21 96.01,90.18 96.04,90.14 96.04,90.09 96.01,90.04 95.98,90.02 	"/>
	<polygon fill="none" points="95.93,90 95.88,90.02 95.85,90.04 95.82,90.09 95.82,90.14 95.85,90.18 95.88,90.21 95.93,90.22 
		95.98,90.21 96.01,90.18 96.04,90.14 96.04,90.09 96.01,90.04 95.98,90.02 	"/>
	
		<line fill="none" stroke="#1D2132" stroke-width="0.1" stroke-linecap="round" stroke-linejoin="round" stroke-miterlimit="10" x1="95.89" y1="90.11" x2="95.53" y2="90.11"/>
	<polygon fill="#1D2132" points="95.5,90 95.45,90.02 95.42,90.04 95.39,90.09 95.39,90.14 95.42,90.18 95.45,90.21 95.5,90.22 
		95.55,90.21 95.58,90.18 95.61,90.14 95.61,90.09 95.58,90.04 95.55,90.02 	"/>
	<polygon fill="none" points="95.5,90 95.45,90.02 95.42,90.04 95.39,90.09 95.39,90.14 95.42,90.18 95.45,90.21 95.5,90.22 
		95.55,90.21 95.58,90.18 95.61,90.14 95.61,90.09 95.58,90.04 95.55,90.02 	"/>
	
		<line fill="none" stroke="#1D2132" stroke-width="0.1" stroke-linecap="round" stroke-linejoin="round" stroke-miterlimit="10" x1="95.45" y1="90.11" x2="95.1" y2="90.11"/>
	<polygon fill="#1D2132" points="95.06,90 95.01,90.02 94.97,90.04 94.95,90.09 94.95,90.14 94.97,90.18 95.01,90.21 95.06,90.22 
		95.1,90.21 95.14,90.18 95.16,90.14 95.16,90.09 95.14,90.04 95.1,90.02 	"/>
	<polygon fill="none" points="95.06,90 95.01,90.02 94.97,90.04 94.95,90.09 94.95,90.14 94.97,90.18 95.01,90.21 95.06,90.22 
		95.1,90.21 95.14,90.18 95.16,90.14 95.16,90.09 95.14,90.04 95.1,90.02 	"/>
	
		<line fill="none" stroke="#1D2132" stroke-width="0.1" stroke-linecap="round" stroke-linejoin="round" stroke-miterlimit="10" x1="95.01" y1="90.11" x2="94.76" y2="90.11"/>
	
		<polyline fill="none" stroke="#1D2132" stroke-width="0.1" stroke-linecap="round" stroke-linejoin="round" stroke-miterlimit="10" points="
		97.62,91.57 97.62,88.64 94.68,88.64 94.68,91.57 97.62,91.57 	"/>
	<path fill="none" stroke="#1D2132" stroke-width="0.1" stroke-linecap="round" stroke-linejoin="round" stroke-miterlimit="10" d="
		M95.1,90.11c0,0.58,0.47,1.05,1.05,1.05s1.05-0.47,1.05-1.05s-0.47-1.05-1.05-1.05S95.1,89.53,95.1,90.11"/>
	<line fill="none" stroke="#1D2132" stroke-width="0.1" stroke-miterlimit="10" x1="96.16" y1="91.45" x2="96.16" y2="91.17"/>
	<g>
		
			<rect x="84.52" y="54.39" fill="#FFFFFF" stroke="#1D2132" stroke-width="0.5" stroke-miterlimit="10" width="13.13" height="6.81"/>
		<g>
			
				<rect x="85.39" y="55.29" fill="#FFFFFF" stroke="#1D2132" stroke-width="0.1" stroke-linecap="square" stroke-miterlimit="22.9256" width="1.68" height="5.15"/>
			<polygon fill="#1D2132" points="85.41,60.44 86.43,59.91 87.07,55.3 87.07,60.44 			"/>
		</g>
		<g>
			
				<rect x="95.19" y="55.29" fill="#FFFFFF" stroke="#1D2132" stroke-width="0.1" stroke-linecap="square" stroke-miterlimit="22.9256" width="1.68" height="5.15"/>
			<polygon fill="#1D2132" points="95.34,60.44 96.37,59.91 96.87,55.3 96.87,60.44 			"/>
		</g>
		<g>
			
				<rect x="87.84" y="55.29" fill="#FFFFFF" stroke="#1D2132" stroke-width="0.1" stroke-linecap="square" stroke-miterlimit="22.9256" width="6.57" height="5.15"/>
			<polygon fill="#1D2132" points="88,60.44 93.52,59.91 94.41,55.3 94.41,60.44 			"/>
		</g>
	</g>
</g>
</svg>
